<?xml version="1.0" encoding="UTF-8" standalone="no"?>
<svg xmlns:rdf="http://www.w3.org/1999/02/22-rdf-syntax-ns#" xmlns="http://www.w3.org/2000/svg" height="180" width="180" version="1.1" xmlns:cc="http://creativecommons.org/ns#" xmlns:dc="http://purl.org/dc/elements/1.1/" viewBox="0 0 180.00368 180.00242">
 <metadata>
  <rdf:RDF>
   <cc:Work rdf:about="">
    <dc:format>image/svg+xml</dc:format>
    <dc:type rdf:resource="http://purl.org/dc/dcmitype/StillImage"/>
    <dc:title/>
   </cc:Work>
  </rdf:RDF>
 </metadata>
 <g transform="matrix(.455 -.86797 .86797 .455 -450.64 225.78)">
  <g transform="matrix(2.8614,5.5844,-5.5844,2.8614,3902.7,-2617)">
   <g transform="matrix(.091125 0 0 .091125 225.82 704.08)">
    <g fill-rule="evenodd" transform="matrix(.75097 .88649 -.92617 .71879 528.12 -163.26)" stroke="#000" fill="#f93">
     <g transform="matrix(1.0006,-8.0952e-4,-8.0816e-4,1.001,2.3617,-5.3318)">
      <path fill="#fff" d="m-515.87 899.57c-1.9652 2.5193-4.6722 7.196-5.7265 10.213-0.89211 2.553-1.8038 5.2937-1.5077 7.9816 0.41545 3.7725 2.0056 7.5854 4.4812 10.461 2.6756 3.109 6.5292 5.3645 10.476 6.4866 3.1951 0.90858 6.697 0.58217 9.965-0.0171 5.0681-0.92971 9.9565-2.9389 14.441-5.4762 6.0743-3.4382 11.238-8.32 16.456-12.955 8.4311-7.4906 16.233-15.676 23.927-23.922 8.1136-8.6965 15.459-18.661 22.488-27.676 10.76-13.8 17.549-22.87 27.388-35.502 5.8581-7.5217 17.059-22.889 23.898-29.533 3.7243-3.618 7.3385-7.5733 11.94-9.9717 3.3599-1.752 7.2043-2.6271 10.973-2.9845 2.154-0.20229 4.3402 0.0821 6.4665 0.49519 3.768 0.72846 7.4556 1.9822 10.982 3.4833 11.632 5.3448 24.469 17.513 43.351 36.875 11.623 9.6137 29.36 28.637 45.839 48.848 4.4644 4.5058 15.096 18.264 19.43 22.9 3.0666 3.2778 6.5794 6.4924 9.6403 9.7773 2.3196 2.495 7.3756 5.9213 10.304 7.6813 3.458 2.0952 7.4442 3.4021 11.445 3.9764 3.4565 0.49949 7.1291 0.48904 10.484-0.4992 3.4897-1.0326 6.4402-3.4238 9.4529-5.481 1.7516-1.2018 3.8113-3.453 4.9823-5.2319 1.7165-2.5886 2.0904-4.6475 2.5098-7.7209 0.31595-2.3068 0.45414-4.6987-0.007-6.9746-0.77131-3.7199-2.3557-7.3195-4.4834-10.462-3.0314-4.4776-7.3602-7.9639-11.472-11.475-8.4222-7.1714-17.651-11.797-26.551-18.363-10.211-7.5358-20.843-18.541-30.751-26.481-15.444-15.263-30.433-29.825-50.324-49.343-4.465-5.144-9.2249-10.031-13.961-14.934-6.8561-7.0946-13.398-14.56-20.926-20.936-3.2709-2.7703-5.3829-4.1992-9.3978-5.7065-5.7544-2.0673-14.411-2.4012-20.501-0.7484-4.5152 1.5122-8.97 3.2269-12.94 5.8544-5.4351 3.6009-9.1818 6.4095-13.989 10.804-14.568 13.736-25.956 30.607-37.865 45.124-12.215 14.852-22.916 29.974-35.678 44.359-8.5024 9.5825-18.128 19.296-27.613 27.905-7.0131 6.3655-15.164 11.887-23.921 17.467-5.6544 3.6038-9.5811 6.4152-13.706 11.702z"/>
     </g>
    </g>
   </g>
  </g>
 </g>
</svg>
