<svg xmlns:rdf="http://www.w3.org/1999/02/22-rdf-syntax-ns#" style="shape-rendering:crispEdges" xmlns="http://www.w3.org/2000/svg" version="1.1" xml:space="preserve" height="117.42" viewBox="0 0 117.38597 117.41779" width="117.39" enable-background="new 0 0 107 115" y="0px" x="0px" xmlns:cc="http://creativecommons.org/ns#" xmlns:dc="http://purl.org/dc/elements/1.1/" overflow="visible"><g transform="matrix(.48189 0 0 .48189 -2.8621 -2.7723)" stroke="#fff" stroke-width="5.8594" fill="#fff"><g stroke-width="5.8594" stroke="#fff" fill="none"><circle cy="127.61" cx="127.22" r="41"/><path d="m228 78a112 112 0 0 0 -193 -13l45 78a50 50 0 0 1 47 -65"/><path d="m35 65a112 112 0 0 0 84 174l47-80a50 50 0 0 1 -86 -16"/><path d="m119 239a112 112 0 0 0 109 -161h-101a50 50 0 0 1 39 81"/></g></g></svg>
