<svg xmlns:rdf="http://www.w3.org/1999/02/22-rdf-syntax-ns#" xmlns="http://www.w3.org/2000/svg" height="169.82mm" width="169.82mm" version="1.1" xmlns:cc="http://creativecommons.org/ns#" xmlns:dc="http://purl.org/dc/elements/1.1/" viewBox="0 0 601.72735 601.72741">
<g transform="translate(-71.184 -236.8)">
<path d="m300.86 1.5a299.36 299.36 0 0 0 -299.36 299.36 299.36 299.36 0 0 0 299.36 299.37 299.36 299.36 0 0 0 299.37 -299.37 299.36 299.36 0 0 0 -299.37 -299.36zm50 95.457c24.02 0 42.64 0.979 55.88 2.939v64.704h-38.48c-14.05 0-23.53 2.94-28.43 8.82s-7.35 14.71-7.35 26.47v46.32h71.81l-9.56 72.54h-62.25v186.02h-75v-186.02h-62.49v-72.54h62.49v-53.43c0-30.39 8.5-53.95 25.49-70.7s39.62-25.123 67.89-25.123z" transform="translate(71.184 236.8)" fill="#fff"/>
</g>
</svg>
