<svg xmlns:rdf="http://www.w3.org/1999/02/22-rdf-syntax-ns#" style="shape-rendering:crispEdges" xmlns="http://www.w3.org/2000/svg" y="0px" xml:space="preserve" overflow="visible" height="117.42" width="117.39" version="1.1" enable-background="new 0 0 107 115" x="0px" xmlns:cc="http://creativecommons.org/ns#" xmlns:dc="http://purl.org/dc/elements/1.1/" viewBox="0 0 117.38597 117.41779"><g fill="#fff" transform="matrix(.25176 0 0 .25176 -5.7564 -5.7381)"><g stroke="#000" fill="none"><path d="m55.623 154.48 1.751-40.038s8.725-28.764 22.641-33.096l20.91 43.54h58.337s27.894-27.883 58.368-24.412c0 0-28.733 31.365-28.733 38.308l14.776 21.811s48.763 2.59 48.763 6.072l-0.85 9.584s-9.595 13.947-47.913 39.198c0 0 7.844 25.273 3.492 31.355l-22.641-6.083s-13.936 11.305-13.936 16.537c0 0 16.558 29.604 32.225 34.837 0 0 11.305 6.082 60.949-7.854l17.418-1.741s27.863 15.657 27.863 20.009c0 0-5.519 8.919-26.685 10.578l-36.844 25.118-49.654-1.762s101.89 101.06 168.07-35.656l6.983 39.178s28.743-21.77 13.926-96.656l21.77 19.139s7.844-47.022-10.455-85.33l23.501 12.185s-8.714-42.67-69.642-67.922l-22.671-7.823 49.674-8.714s-36.577-22.538-70.994-22.6c0 0 83.159-18.35 141.51 60.898l-14.83-53.985s35.728 73.144 40.96 129.74c0 0 11.315-20.9 10.445-27.843 0 0-0.86 46.142-7.824 53.125 0 0 19.139 180.26-171.58 229.01 0 0-202.9 50.524-269.99-158.46 0 0.01-25.241-68.793 20.9-160.25z" stroke-width="15.888"/><path d="m92.258 112.38s31.42-34.604 69.371-57.158c31.53-18.738 70.223-24.225 94.504-24.291 25.436-0.06935 71.589 10.159 99.367 25.305 36.005 19.631 71.335 61.51 71.335 61.51" stroke-width="15.888"/></g></g></svg>
