<svg xmlns:rdf="http://www.w3.org/1999/02/22-rdf-syntax-ns#" xmlns="http://www.w3.org/2000/svg" height="169.82mm" width="169.82mm" version="1.1" xmlns:cc="http://creativecommons.org/ns#" xmlns:dc="http://purl.org/dc/elements/1.1/" viewBox="0 0 601.72735 601.72741">
<g transform="translate(-71.184 -236.8)">
<path d="m300.86 1.5c-165.33 0.0002-299.36 134.03-299.36 299.36 0.0002 165.34 134.03 299.37 299.36 299.37 165.34 0 299.37-134.03 299.37-299.37 0-165.33-134.03-299.36-299.37-299.36zm-22.469 141.46h79.334l-26.191 16.703h-24.863c9.363 7.9712 16.448 16.385 21.256 25.242 4.808 8.8569 7.2129 18.978 7.2129 30.365 0 9.11-1.5505 17.303-4.6504 24.578-3.0999 7.2753-6.8321 13.159-11.197 17.65-4.3652 4.4917-8.761 8.6034-13.189 12.336-4.4284 3.7325-8.1931 7.625-11.293 11.674-3.0999 4.0489-4.6504 8.2235-4.6504 12.525 0 4.555 2.0254 9.0157 6.0742 13.381 4.0489 4.3652 8.95 8.6656 14.707 12.904 5.757 4.2387 11.484 8.8901 17.178 13.951 5.6937 5.0611 10.564 11.641 14.613 19.738 4.0488 8.0977 6.0723 17.08 6.0723 26.949 0 11.387-3.0361 22.332-9.1094 32.834-9.11 15.436-22.458 26.793-40.045 34.068-17.587 7.2753-48.441 10.912-68.559 10.912-16.702 0-32.296-2.6261-46.783-7.877s-25.337-13.949-32.549-26.096c-4.6815-7.5916-7.0215-15.88-7.0215-24.863 0-10.249 2.8149-19.736 8.4453-28.467 5.6305-8.7304 19.127-20.006 28.49-25.826 16.575-10.375 36.132-16.703 70.674-18.98-4.0489-5.3141-7.0525-5.9941-9.0137-10.043s-2.9414-8.6679-2.9414-13.855c0-4.555 1.3273-9.933 3.9844-16.133-5.8202 0.5061-10.123 0.75976-12.906 0.75976-18.726 0-34.509-6.1046-47.352-18.314-12.842-12.21-19.264-27.678-19.264-46.404 0-10.375 2.277-20.433 6.832-30.176 4.555-9.7426 10.818-18.031 18.789-24.863 9.7426-8.3508 21.288-14.551 34.637-18.6 13.349-4.0489 39.108-6.0742 53.279-6.0742zm-41.227 15.564c-5.3141 0-10.534 1.2319-15.658 3.6992-5.1244 2.4673-9.2685 5.7894-12.432 9.9648-5.9468 7.4651-8.9199 17.588-8.9199 30.367 0 5.8202 0.63317 11.988 1.8984 18.504 1.2653 6.5161 3.2582 10.233 5.9785 16.749 2.7203 6.5161 6.0101 12.367 9.8691 17.555 3.8591 5.1876 8.6039 9.4271 14.234 12.717 5.6305 3.2897 11.735 4.9336 18.314 4.9336 4.808 0 21.742-1.0432 26.803-3.1309 5.0611-2.0877 9.2376-4.8396 12.527-8.2559 6.7059-7.212 10.059-17.27 10.059-30.176 0-7.3386-1.0756-12.447-3.2266-20.925-2.151-8.4773-5.2195-16.67-9.2051-24.578-3.9856-7.9079-9.3312-14.455-16.037-19.643-6.7059-5.1876-26.107-7.7812-34.205-7.7812zm149.47 75.535h27.928v37.186h36.426v28.498h-36.426v37.562h-27.928v-37.562h-36.236v-28.498h36.236zm-117.72 108.18c-6.7059 0-25.35 0.44243-31.93 1.3281-6.5794 0.88568-13.38 2.4666-20.402 4.7441-7.0222 2.2775-13.157 5.1877-18.408 8.7305-5.2509 3.5428-9.5857 8.2571-13.002 14.141-3.4162 5.8835-5.123 12.556-5.123 20.021 0 8.8569 2.2141 16.67 6.6426 23.439 4.4284 6.7692 10.216 12.021 17.365 15.754 7.1488 3.7326 14.702 4.4126 22.586 6.3496 0 0 15.973 0.75196 24.197 0.75196 7.3386 0 26.393-0.82195 33.162-2.4668 6.7692-1.6448 13.032-4.1126 18.789-7.4023s10.376-7.9068 13.855-13.854c3.4795-5.9468 5.2188-12.843 5.2188-20.688 0-3.1632-0.44244-2.2641-1.3281-5.3008-0.88569-3.0366-1.803-5.6932-2.752-7.9707-0.94896-2.2775-2.6577-4.9036-5.125-7.877s-4.3343-5.1875-5.5996-6.6426-3.7006-3.6368-7.3066-6.5469-5.9155-4.7447-6.9277-5.5039c-1.0122-0.75916-3.6363-2.6567-7.875-5.6934-4.2386-3.0366-6.5482-4.6825-6.9277-4.9355-2.0244-0.25306-5.0605-0.37891-9.1094-0.37891z" transform="translate(71.184 236.8)"/>
</g>
</svg>
