<svg xmlns:rdf="http://www.w3.org/1999/02/22-rdf-syntax-ns#" xmlns="http://www.w3.org/2000/svg" height="171.8mm" width="171.8mm" version="1.1" xmlns:cc="http://creativecommons.org/ns#" xmlns:dc="http://purl.org/dc/elements/1.1/" viewBox="0 0 608.72654 608.72654">
<g transform="translate(-67.684 -233.3)">
<path d="m300.86 1.5a299.36 299.36 0 0 0 -299.36 299.36 299.36 299.36 0 0 0 299.36 299.37 299.36 299.36 0 0 0 299.37 -299.37 299.36 299.36 0 0 0 -299.37 -299.36zm-125.52 141.06c11.934 0 21.495 3.4876 28.684 10.461s10.856 15.78 11 26.42c0.14378 10.496-3.4878 19.265-10.893 26.311-7.4047 7.0453-17.145 10.568-29.223 10.568h-0.43164c-11.79 0-21.28-3.5231-28.469-10.568-7.189-7.0452-10.783-15.815-10.783-26.311 0-10.64 3.7027-19.447 11.107-26.42 7.4047-6.9734 17.074-10.461 29.008-10.461zm209.42 97.916c24.587 0 44.355 8.1594 59.309 24.479 14.95 16.31 22.43 40.22 22.43 71.71v122.5h-70.957v-114.3c0-15.097-2.9112-26.924-8.7344-35.479-5.8231-8.555-14.918-12.832-27.283-12.832-9.0582 0-16.641 2.479-22.752 7.4394-6.1107 4.9604-10.676 11.109-13.695 18.441-1.5816 4.3134-2.373 10.136-2.373 17.469v119.27h-70.955c0.28756-57.369 0.43164-103.88 0.43164-139.54 0-35.658-0.073-56.936-0.2168-63.838l-0.21484-10.354h70.955v30.393c2.7395-4.318 5.5428-8.1328 8.4121-11.412 3.0194-3.4507 7.0813-7.189 12.186-11.215 5.1042-4.0259 11.357-7.1542 18.762-9.3828 7.4047-2.2286 15.637-3.3418 24.695-3.3418zm-245.43 4.959h71.172v213.73h-71.172v-213.73z" transform="translate(71.184 236.8)" fill="#fff"/>
</g>
</svg>
