<svg xmlns:rdf="http://www.w3.org/1999/02/22-rdf-syntax-ns#" style="shape-rendering:crispEdges" xmlns="http://www.w3.org/2000/svg" version="1.1" xml:space="preserve" height="116.48" viewBox="0 0 109.164 116.48" width="109.16" enable-background="new 0 0 107 115" y="0px" x="0px" xmlns:cc="http://creativecommons.org/ns#" xmlns:dc="http://purl.org/dc/elements/1.1/" overflow="visible"><g transform="translate(1 0.05)"><path d="m41.515 11.183c-3.867 0-7.013-2.374-7.013-5.292s3.146-5.291 7.013-5.291c3.866 0 7.012 2.374 7.012 5.292s-3.146 5.291-7.012 5.291zm0-9.333c-3.178 0-5.763 1.813-5.763 4.042s2.585 4.042 5.763 4.042c3.177 0 5.762-1.813 5.762-4.042s-2.585-4.042-5.762-4.042z" stroke="#fff" stroke-width="1.3" fill="none"/><circle stroke-width="3" stroke="#fff" cy="61.848" cx="53.582" stroke-miterlimit="8" r="53.082" fill="none"/><circle stroke="#000" cy="9.453" cx="42.321" r="3.042" fill="#fff"/><circle stroke="#fff" cy="61.848" cx="53.582" stroke-miterlimit="8" r="47.916" fill="none"/><circle stroke-width="3" stroke="#fff" cy="61.848" cx="53.582" stroke-miterlimit="8" r="42.75" fill="none"/><polygon points="29.292 88.265 50.292 58.848 77.958 35.265 56.792 65.265" stroke="#000" fill="#fff"/></g><path fill="#1c74b5" d="m15.8 57.118c0.011-0.092 0.023-0.183 0.035-0.274-0.012 0.091-0.023 0.183-0.035 0.274z"/><path fill="#1c74b5" d="m15.594 59.305c0.021-0.33 0.045-0.659 0.075-0.987-0.03 0.327-0.053 0.657-0.075 0.987z"/><path fill="#be1e2d" d="m65.175 54.85 0.187-0.265c-0.125-0.015-0.249-0.029-0.375-0.043 0.067 0.1 0.124 0.206 0.188 0.308z"/><path fill="#be1e2d" d="m62.219 54.271c0.667 0.708 1.237 1.506 1.688 2.377l1.269-1.798c-0.064-0.102-0.121-0.208-0.188-0.308-0.911-0.101-1.833-0.193-2.769-0.271z"/><g transform="translate(1 0.05)" stroke="#000" stroke-width="0.9"><path fill="#fff" d="m54.771 48.965-4.684-10.088-1.213-2.612-0.069 2.79-0.269 10.923c-1.553 0.688-2.935 1.686-4.08 2.911l-6.646-2.415 3.927 4.188c0.7486 0.70166 3.4214 0.25719 4.205-0.439 1.917-2.036 4.627-3.316 7.638-3.316 1.693 0 3.289 0.412 4.707 1.127l1.625-1.386c-1.535-0.91-3.275-1.506-5.141-1.683z"/><path fill="#fff" d="m66.021 62.608 10.731-5.157c-0.098-0.351-0.2625-0.71-0.3025-1.082-3.681-0.227-7.743-0.04-11.467-0.063-0.235-0.523-0.507-1.023-0.808-1.505l-1.269 1.798c0.746 1.442 1.175 3.074 1.175 4.806 0 5.79-4.71 10.501-10.5 10.501s-10.501-4.711-10.501-10.501c0-2.78 1.094-5.303 2.863-7.184-1.4859 0.12542-11.767-7.0234-4.205 0.439l0.815 0.869c-0.819 1.532-1.308 3.259-1.424 5.085l-12.395 6.036 13.557 0.083c1.94 4.085 6.024 6.96 10.797 7.146l5.592 12.045 0.327-13.267c1.636-0.797 3.074-1.939 4.219-3.333l6.436 2.338-4.736-5.05c0.573-1.24 0.959-2.585 1.095-4.004z"/><circle stroke-width="2" stroke="#fff" cy="67.187" cx="24.015" r="6.75" fill="none"/></g><circle cy="61.898" cx="54.582" r="2.176" fill="#f1f2f2"/><g stroke="#000" transform="translate(1 1.35)"><path d="m29.442 87.971 20.754-29.079 27.511-23.53-20.754 29.563z" fill-rule="evenodd" stroke="#000" stroke-width="2" fill="#fff"/><g fill="none"><path d="m53.582 64.524c-1.476 0-2.677-1.2-2.677-2.676s1.201-2.676 2.677-2.676 2.676 1.201 2.676 2.676-1.2 2.676-2.676 2.676zm0-4.352c-0.925 0-1.677 0.752-1.677 1.676s0.752 1.676 1.677 1.676c0.924 0 1.676-0.752 1.676-1.676s-0.752-1.676-1.676-1.676z"/><g stroke="#fff"><circle stroke-width="2" cy="30.157" cx="47.564" r="6.75"/><circle stroke-width="1.3" cy="66.088" cx="24.015" r="2.5"/><circle stroke-width="1.3" cy="90.438" cx="59.242" r="2.5"/><circle stroke-width="2" cy="90.437" cx="59.042" r="6.75"/><circle stroke-width="2" cy="55.071" cx="83.058" r="6.75"/><circle stroke-width="1.3" cy="55.072" cx="83.058" r="2.5"/><circle stroke-width="1.3" cy="30.329" cx="47.734" r="2.5"/></g></g></g></svg>
