<svg xmlns:rdf="http://www.w3.org/1999/02/22-rdf-syntax-ns#" xmlns="http://www.w3.org/2000/svg" height="169.82mm" width="169.82mm" version="1.1" xmlns:cc="http://creativecommons.org/ns#" xmlns:dc="http://purl.org/dc/elements/1.1/" viewBox="0 0 601.72735 601.72741">
<g transform="translate(-71.184 -236.8)">
<path stroke-linejoin="bevel" d="m300.86 1.5a299.36 299.36 0 0 0 -299.36 299.36 299.36 299.36 0 0 0 299.36 299.37 299.36 299.36 0 0 0 299.37 -299.37 299.36 299.36 0 0 0 -299.37 -299.36zm74.26 137.21c22.88 0 42.16 8.34 57.84 25 17.81-3.43 34.56-9.8 50.24-19.11-6.04 18.79-17.64 33.33-34.8 43.62 15.2-1.63 30.39-5.72 45.59-12.25-10.95 16.01-24.18 29.65-39.7 40.92 0.16 2.29 0.24 5.72 0.24 10.3 0 21.24-3.1 42.44-9.31 63.6s-15.65 41.46-28.31 60.9-27.74 36.64-45.22 51.59-38.56 26.88-63.23 35.78c-24.67 8.91-51.06 13.36-79.16 13.36-44.28 0-84.8-11.85-121.56-35.54 5.72 0.65 12.09 0.98 19.12 0.98 36.76 0 69.52-11.27 98.27-33.82-17.15-0.33-32.51-5.6-46.07-15.81s-22.88-23.24-27.94-39.09c5.39 0.82 10.37 1.23 14.95 1.23 7.02 0 13.97-0.9 20.83-2.7-18.3-3.76-33.45-12.86-45.46-27.32s-18.01-31.25-18.01-50.37v-0.98c11.11 6.21 23.03 9.56 35.78 10.05-10.79-7.19-19.37-16.58-25.74-28.18-6.37-11.61-9.55-24.19-9.55-37.75 0-14.38 3.59-27.69 10.78-39.95 19.77 24.35 43.83 43.83 72.18 58.45 28.34 14.63 58.69 22.76 91.04 24.39-1.31-6.21-1.96-12.25-1.96-18.13 0-21.9 7.72-40.56 23.16-56 15.44-15.45 34.11-23.17 56-23.17z" transform="translate(71.184 236.8)" stroke="#fff" stroke-linecap="round" stroke-width="0" fill="#fff"/>
</g>
</svg>
