<svg xmlns:rdf="http://www.w3.org/1999/02/22-rdf-syntax-ns#" xmlns="http://www.w3.org/2000/svg" height="100%" width="100%" version="1.1" preserveAspectRatio="xMinYMin slice" xmlns:cc="http://creativecommons.org/ns#" xmlns:dc="http://purl.org/dc/elements/1.1/" viewBox="0 0 645.79291 278.27699">
<g stroke="#fff" stroke-width=".3" transform="matrix(1.1 0 0 1.1 98.511 247.16)">
<g stroke="#fff" stroke-width=".3" transform="translate(18.209,21.851)" fill="none">
<g stroke-width=".46875">
<g transform="matrix(-.64 0 0 .64 -50.41 -17.901)">
<g stroke-width=".46875">
<path opacity=".2" d="m33.9-54.884-33.268 21.799c-0.01015 0.01015-0.1066 0.07106-0.1066 0.07106 0.0203-0.01269-0.11928 0.09644-0.11928 0.09644-0.04822 0.03807-0.04822 0.02792-0.08883 0.0736l-0.43907 0.51267c-0.04061 0.04822-0.02792 0.04061-0.05837 0.09644l-0.0025 0.0076c0.0051-0.01015-0.1066 0.19289-0.1066 0.19289-0.0051 0.01269-0.04568 0.10406-0.04568 0.10406-0.0025 0.01015-0.08121 0.21573-0.08121 0.21573l-0.03299 0.10406c-0.0051 0.0203-0.0533 0.22334-0.0533 0.22334l-0.02284 0.1269-0.0203 0.2538c0-0.02284-0.0051 0.0736-0.0051 0.0736v57.848c0 1.1269 0.71825 2.1243 1.7893 2.4821l24.778 8.2611c0.81469 0.26902 1.7106 0.1269 2.3958-0.38831l33.039-24.782c0.655-0.49 1.046-1.274 1.046-2.091v-57.815c0-0.0203-0.0051-0.08883-0.0076-0.11675 0-0.02538-0.01269-0.16751-0.01269-0.17004 0 0-0.02538-0.16497-0.02538-0.17512-0.0025-0.0025-0.01523-0.0939-0.01523-0.0939-0.0076-0.04061-0.01015-0.03807-0.02284-0.07868 0 0-0.05584-0.19796-0.05837-0.19796l-0.0533-0.1472c-0.0076-0.01776-0.08375-0.18527-0.08375-0.18527-0.0025-0.0051-0.07868-0.14974-0.07868-0.14974-0.01015-0.01777-0.10913-0.17004-0.10913-0.17004s-0.09898-0.13705-0.10152-0.13705l-0.09898-0.11928c-0.01269-0.01523-0.03046-0.03046-0.04315-0.04568l-0.09644-0.10152c-0.01015-0.0076-0.1269-0.10913-0.1269-0.10913-0.03299-0.02792-0.14466-0.11675-0.14466-0.11675-0.01523-0.01015-0.14974-0.09898-0.14974-0.09898-0.02284-0.01269-0.18273-0.1066-0.18273-0.1066-0.02538-0.01269-0.16497-0.07614-0.16497-0.07614-0.02792-0.01015-0.17004-0.06852-0.17004-0.06852 0.0025 0-0.19035-0.05837-0.19035-0.05837 0.0076 0.0025-0.13198-0.03553-0.13198-0.03553l-24.545-5.2764c-0.69033-0.1472-1.3959-0.01523-1.9847 0.36801zm-34.316 23.169m-0.08629 0.3274"/>
<path opacity=".2" d="m61.541-47.476c0-0.03807-0.0025-0.07868-0.0076-0.11421-0.0051-0.04315-0.01015-0.08375-0.01777-0.12436-0.0051-0.0203-0.0051-0.04061-0.01015-0.05837-0.0025-0.01523-0.01015-0.03299-0.01523-0.04822-0.01015-0.04061-0.02284-0.08122-0.03553-0.12182-0.01015-0.03553-0.02284-0.07106-0.03553-0.10406-0.01523-0.03807-0.03299-0.0736-0.0533-0.10913-0.01777-0.03299-0.03299-0.06599-0.0533-0.09898-0.0203-0.03299-0.04315-0.06599-0.06345-0.09898-0.0203-0.03046-0.04315-0.06091-0.06345-0.09137-0.02538-0.03046-0.0533-0.06091-0.07868-0.08883s-0.05076-0.05584-0.07614-0.08122c-0.02792-0.02792-0.05837-0.0533-0.08883-0.07614s-0.05837-0.05076-0.08883-0.07106c-0.03299-0.02284-0.06345-0.04315-0.09644-0.06345-0.03553-0.0203-0.06599-0.04315-0.10406-0.05837-0.0076-0.0051-0.01523-0.01015-0.02538-0.01523-0.02792-0.01269-0.0533-0.02284-0.08122-0.03299-0.03807-0.01523-0.07106-0.03299-0.10913-0.04568-0.04061-0.01523-0.08122-0.02538-0.1269-0.03807-0.02538-0.0076-0.05076-0.01777-0.07614-0.02284l-24.55-5.276c-0.43653-0.0939-0.88829-0.0076-1.2614 0.23349l-33.268 21.796c-0.0076 0.0051-0.01523 0.01269-0.02284 0.01776-0.01269 0.0076-0.02538 0.01523-0.03807 0.02284-0.03046 0.0203-0.05837 0.04822-0.08883 0.07106-0.01523 0.01269-0.03553 0.02792-0.05076 0.04061-0.10659 0.09898-0.20304 0.20811-0.28171 0.3274-0.01269 0.01777-0.02284 0.04061-0.03299 0.05837-0.02538 0.04315-0.05076 0.08629-0.07106 0.12944-0.01015 0.02538-0.02284 0.05076-0.03299 0.0736-0.01777 0.04314-0.03553 0.08375-0.04822 0.1269-0.0076 0.02538-0.01777 0.0533-0.02538 0.07868-0.01269 0.04568-0.0203 0.08883-0.03046 0.13451-0.0051 0.02538-0.01015 0.0533-0.01523 0.07868-0.0076 0.05076-0.01015 0.10406-0.01269 0.15482 0 0.0203-0.0025 0.04061-0.0025 0.06091v57.828c0 0.71571 0.45937 1.3527 1.137 1.5786l24.778 8.2586c0.51775 0.17258 1.0863 0.08122 1.5228-0.24618l33.042-24.781c0.41623-0.31471 0.66495-0.80708 0.66495-1.3299v-57.815c0-0.0203-0.0025-0.03807-0.0051-0.05837z"/>
<path opacity=".2" d="m33.426-55.358-33.271 21.796c-0.01015 0.01015-0.1066 0.07106-0.1066 0.07106 0.0203-0.01269-0.11928 0.09644-0.11928 0.09644-0.04822 0.03807-0.04822 0.02792-0.08883 0.0736l-0.43907 0.51267c-0.04061 0.04822-0.02792 0.04061-0.05837 0.09644l-0.0025 0.0076c0.0051-0.01015-0.1066 0.19289-0.1066 0.19289-0.0051 0.01269-0.04568 0.10406-0.04568 0.10406-0.0025 0.01015-0.08121 0.21573-0.08121 0.21573l-0.03299 0.10406c-0.0051 0.0203-0.0533 0.22334-0.0533 0.22334l-0.02284 0.1269-0.0203 0.2538c0-0.02284-0.0051 0.0736-0.0051 0.0736v57.848c0 1.1269 0.71825 2.1243 1.7893 2.4821l24.778 8.2611c0.81469 0.26902 1.7106 0.1269 2.3958-0.38831l33.039-24.782c0.6548-0.48983 1.0456-1.2741 1.0456-2.0913v-57.815c0-0.0203-0.0051-0.08883-0.0076-0.11675 0-0.02538-0.01269-0.16751-0.01269-0.17004 0 0-0.02538-0.16497-0.02538-0.17512-0.0025-0.0025-0.01523-0.0939-0.01523-0.0939-0.0051-0.04061-0.0076-0.03807-0.0203-0.07868 0 0-0.05584-0.19796-0.05837-0.19796l-0.0533-0.1472c-0.0076-0.01777-0.08375-0.18527-0.08375-0.18527-0.0025-0.0051-0.07868-0.14974-0.07868-0.14974-0.01015-0.01777-0.10913-0.17004-0.10913-0.17004s-0.09898-0.13705-0.10152-0.13705l-0.09898-0.11928c-0.01269-0.01523-0.03046-0.03046-0.04314-0.04568l-0.09644-0.10152c-0.01015-0.0076-0.1269-0.10913-0.1269-0.10913-0.03553-0.02792-0.1472-0.11675-0.1472-0.11675-0.01523-0.01015-0.14974-0.09898-0.14974-0.09898-0.02284-0.01269-0.18273-0.10659-0.18273-0.10659-0.02538-0.01269-0.16497-0.07614-0.16497-0.07614-0.02792-0.01015-0.17004-0.06853-0.17004-0.06853 0.0025 0-0.19035-0.05837-0.19035-0.05837 0.0076 0.0025-0.13197-0.03553-0.13197-0.03553l-24.545-5.2764c-0.69033-0.14466-1.3933-0.01523-1.9822 0.37054zm-34.318 23.167m-0.08375 0.32994"/>
<path opacity=".2" d="m61.064-47.953c0-0.03807-0.0025-0.07868-0.0076-0.11421-0.0051-0.04315-0.01015-0.08375-0.01777-0.12436-0.0051-0.0203-0.0051-0.04061-0.01015-0.05837-0.0025-0.01523-0.01015-0.03299-0.01523-0.04822-0.01015-0.04061-0.02284-0.08122-0.03553-0.12182-0.01269-0.03553-0.02538-0.06853-0.03807-0.10406-0.01523-0.03807-0.03299-0.0736-0.0533-0.10913-0.01777-0.03299-0.03299-0.06599-0.0533-0.09898-0.0203-0.03299-0.04314-0.06599-0.06345-0.09898-0.0203-0.03045-0.04314-0.06091-0.06345-0.09137-0.02538-0.03045-0.0533-0.06091-0.07868-0.08883s-0.05076-0.05584-0.07614-0.08122c-0.02792-0.02792-0.05837-0.0533-0.08883-0.07614s-0.05837-0.05076-0.08883-0.07106c-0.03299-0.02284-0.06345-0.04315-0.09644-0.06345-0.03299-0.02538-0.06599-0.04568-0.10152-0.06345-0.0076-0.0051-0.01523-0.01015-0.02538-0.01523-0.02792-0.01269-0.0533-0.02284-0.08122-0.03299-0.03807-0.01523-0.07106-0.03299-0.10913-0.04568-0.04061-0.01523-0.08122-0.02538-0.1269-0.03807-0.02538-0.0076-0.05076-0.01777-0.07614-0.02284l-24.55-5.2764c-0.43653-0.0939-0.88829-0.0076-1.2614 0.23349l-33.268 21.799c-0.0076 0.0051-0.01523 0.01269-0.02284 0.01777-0.01269 0.0076-0.02538 0.01523-0.03807 0.02284-0.03045 0.0203-0.05837 0.04822-0.08883 0.07106-0.01523 0.01269-0.03553 0.02792-0.05076 0.04061-0.1066 0.09898-0.20304 0.20811-0.28172 0.3274-0.01269 0.01776-0.02284 0.04061-0.03299 0.05837-0.02538 0.04315-0.05076 0.08629-0.07106 0.12944-0.01015 0.02538-0.02284 0.05076-0.03299 0.0736-0.01777 0.04314-0.03553 0.08375-0.04822 0.1269-0.0076 0.02538-0.01776 0.0533-0.02538 0.07868-0.01269 0.04568-0.0203 0.08883-0.03046 0.13451-0.0051 0.02538-0.01015 0.0533-0.01523 0.07868-0.0076 0.05076-0.01015 0.10406-0.01269 0.15482 0 0.0203-0.0025 0.04061-0.0025 0.06091v57.828c0 0.71571 0.45937 1.3527 1.137 1.5786l24.778 8.2586c0.51775 0.17258 1.0863 0.08122 1.5228-0.24618l33.042-24.782c0.41623-0.31471 0.66495-0.80707 0.66495-1.3299v-57.812c0-0.0203-0.0025-0.03807-0.0051-0.05837z"/>
<path d="m32.948-56.158-33.268 21.796c-0.01015 0.01015-0.1066 0.0736-0.1066 0.0736 0.0203-0.01269-0.11928 0.09644-0.11928 0.09644-0.04822 0.03807-0.04822 0.02792-0.08883 0.0736l-0.43907 0.51267c-0.04061 0.04822-0.02792 0.04061-0.05837 0.09644l-0.0051 0.0051c0.0051-0.0076-0.1066 0.19289-0.1066 0.19289-0.0051 0.01269-0.04568 0.10406-0.04568 0.10406-0.0025 0.01015-0.08122 0.21573-0.08122 0.21827l-0.03299 0.10406c-0.0051 0.0203-0.0533 0.22334-0.0533 0.22334l-0.02284 0.1269-0.01777 0.2538c0-0.02284-0.0051 0.0736-0.0051 0.0736v57.85c0 1.1269 0.71825 2.1243 1.7893 2.4821l24.778 8.2611c0.81469 0.26902 1.7106 0.12436 2.3958-0.38831l33.041-24.78c0.6548-0.49237 1.0456-1.2741 1.0456-2.0913v-57.82c0-0.01777-0.0051-0.08883-0.0076-0.11675 0-0.02538-0.01269-0.16751-0.01269-0.17004 0 0-0.02538-0.16497-0.02538-0.17512-0.0025-0.0025-0.01523-0.0939-0.01523-0.0939-0.0076-0.04061-0.01015-0.04061-0.02284-0.07868 0 0-0.05584-0.19796-0.05837-0.19796l-0.0533-0.14466c-0.0076-0.01777-0.08375-0.18527-0.08375-0.18527-0.0025-0.0025-0.07868-0.14974-0.07868-0.14974-0.01015-0.01523-0.10913-0.17004-0.10913-0.17004s-0.09898-0.13705-0.10152-0.13705l-0.09898-0.11928c-0.01269-0.01523-0.03046-0.03299-0.04315-0.04568l-0.09644-0.10152c-0.01015-0.0076-0.1269-0.11167-0.1269-0.11167-0.03553-0.02792-0.1472-0.11675-0.1472-0.11675-0.01523-0.01015-0.14974-0.09898-0.14974-0.09898-0.02284-0.01523-0.18273-0.1066-0.18273-0.1066-0.02538-0.01269-0.16497-0.07614-0.16497-0.07614-0.02792-0.01015-0.17004-0.06853-0.17004-0.06853 0.0025 0-0.19035-0.05584-0.19035-0.05584 0.0076 0.0025-0.13198-0.03553-0.13198-0.03553l-24.545-5.2764c-0.68779-0.1472-1.3933-0.01777-1.9822 0.36801zm-34.316 23.169m-0.08629 0.3274"/>
<path d="m60.589-48.752c0-0.03807-0.0025-0.07614-0.0076-0.11421-0.0051-0.04061-0.01015-0.08375-0.01776-0.12182-0.0051-0.0203-0.0051-0.04061-0.01015-0.05837-0.0025-0.01523-0.01015-0.03299-0.01523-0.04822-0.01015-0.04061-0.02284-0.08122-0.03553-0.12182-0.01269-0.03553-0.02538-0.06853-0.03807-0.10406-0.01523-0.03807-0.03299-0.0736-0.0533-0.10913-0.01776-0.03299-0.03299-0.06599-0.0533-0.09898-0.0203-0.03299-0.04315-0.06599-0.06345-0.09898-0.0203-0.03046-0.04315-0.06091-0.06345-0.09137-0.02538-0.03046-0.0533-0.05837-0.07868-0.08883-0.02538-0.02792-0.05076-0.0533-0.07614-0.08122-0.02792-0.02538-0.05837-0.05076-0.08883-0.07614-0.03046-0.02284-0.05837-0.04822-0.08883-0.07106-0.03299-0.02284-0.06345-0.04061-0.09644-0.06091-0.03553-0.0203-0.06599-0.04314-0.10406-0.06091-0.0076-0.0051-0.01523-0.01015-0.02538-0.01523-0.02792-0.01269-0.0533-0.02284-0.08122-0.03553-0.03807-0.01523-0.07106-0.03046-0.10913-0.04568-0.04061-0.01269-0.08122-0.02538-0.1269-0.03807-0.02538-0.0051-0.05076-0.01523-0.07614-0.02284l-24.55-5.2764c-0.43653-0.0939-0.88829-0.0076-1.2614 0.23603l-33.267 21.79c-0.0076 0.0051-0.01523 0.01269-0.02284 0.01777-0.01269 0.0076-0.02538 0.01523-0.03807 0.02284-0.03046 0.02284-0.05837 0.04822-0.08883 0.07106-0.01523 0.01269-0.03553 0.02538-0.05076 0.04061-0.10659 0.09898-0.20304 0.20811-0.28171 0.3274-0.01269 0.0203-0.02284 0.04061-0.03299 0.05837-0.02538 0.04315-0.05076 0.08375-0.07106 0.12944-0.01015 0.02284-0.02284 0.04822-0.03299 0.0736-0.01776 0.04314-0.03553 0.08375-0.04822 0.1269-0.0076 0.02538-0.01777 0.0533-0.02538 0.07868-0.01269 0.04315-0.0203 0.08883-0.03045 0.13451-0.0051 0.02538-0.01015 0.0533-0.01523 0.07868-0.0076 0.0533-0.01015 0.10406-0.01269 0.15735 0 0.0203-0.0025 0.04061-0.0025 0.06091v57.827c0 0.71571 0.45937 1.3502 1.137 1.5786l24.778 8.2586c0.51775 0.17258 1.0863 0.07868 1.5228-0.24872l33.042-24.778c0.41623-0.31471 0.66495-0.80707 0.66495-1.3299v-57.815c0.0025-0.01777 0-0.03807-0.0025-0.05837z"/>
</g>
<g stroke-width=".18469">
<polygon points="22.091 13.479 35.109 3.715 35.109 26.496 22.091 36.26 12.329 33.005 12.329 10.224" transform="matrix(2.538,0,0,2.538,-30.176,-58.122)"/>
<polygon points="12.329 10.224 22.091 13.479 35.109 3.715 25.437 1.637" transform="matrix(2.538,0,0,2.538,-30.176,-58.122)"/>
<polygon points="22.091 36.26 22.091 13.479 12.329 10.224 12.329 33.005" transform="matrix(2.538,0,0,2.538,-30.176,-58.122)"/>
<polygon points="12.329 33.005 22.091 36.26 22.091 30.504 12.329 27.4" transform="matrix(2.538,0,0,2.538,-30.176,-58.122)"/>
<polygon points="20.093 18.261 20.093 16.546 13.806 14.451 13.806 16.165" transform="matrix(2.538,0,0,2.538,-30.176,-58.122)"/>
<polygon points="20.093 20.689 20.093 18.975 13.806 16.879 13.806 18.594" transform="matrix(2.538,0,0,2.538,-30.176,-58.122)"/>
<polygon points="20.093 23.118 20.093 21.404 13.806 19.308 13.806 21.023" transform="matrix(2.538,0,0,2.538,-30.176,-58.122)"/>
<g transform="matrix(2.538,0,0,2.538,-30.176,-58.122)">
<path d="m19.776 33.411c-0.453-0.121-0.808 0.097-0.808 0.497s0.355 0.809 0.808 0.93l0.48 0.129c0.454 0.122 0.809-0.097 0.809-0.497 0-0.399-0.355-0.809-0.809-0.93l-0.48-0.129z"/>
<path d="m19.776 33.603c-0.347-0.094-0.63 0.065-0.63 0.354s0.283 0.599 0.63 0.691l0.48 0.129c0.348 0.093 0.63-0.066 0.63-0.354s-0.282-0.598-0.63-0.69l-0.48-0.13z"/>
<path d="m20.828 34.406c0 0.254-0.256 0.391-0.571 0.306l-0.48-0.128c-0.315-0.085-0.57-0.358-0.57-0.612 0-0.253 0.255-0.39 0.57-0.306l0.48 0.129c0.315 0.085 0.571 0.358 0.571 0.611z"/>
<path d="m19.776 33.794c-0.245-0.065-0.451 0.038-0.451 0.226s0.207 0.402 0.451 0.469l0.48 0.129c0.245 0.065 0.452-0.038 0.452-0.227s-0.207-0.402-0.452-0.468l-0.48-0.129z"/>
<path d="m19.758 33.713c-0.202-0.054-0.358 0.037-0.358 0.151s0.156 0.289 0.358 0.343l0.518 0.139c0.205 0.056 0.358-0.034 0.358-0.15s-0.153-0.288-0.358-0.343l-0.518-0.14z"/>
</g>
</g>
</g>
<g transform="matrix(-.64 0 0 .64 -50.109 -116.81)">
<g stroke-width=".46875">
<path opacity=".2" d="m33.9-54.884-33.268 21.799c-0.01015 0.01015-0.1066 0.07106-0.1066 0.07106 0.0203-0.01269-0.11928 0.09644-0.11928 0.09644-0.04822 0.03807-0.04822 0.02792-0.08883 0.0736l-0.43907 0.51267c-0.04061 0.04822-0.02792 0.04061-0.05837 0.09644l-0.0025 0.0076c0.0051-0.01015-0.1066 0.19289-0.1066 0.19289-0.0051 0.01269-0.04568 0.10406-0.04568 0.10406-0.0025 0.01015-0.08121 0.21573-0.08121 0.21573l-0.03299 0.10406c-0.0051 0.0203-0.0533 0.22334-0.0533 0.22334l-0.02284 0.1269-0.0203 0.2538c0-0.02284-0.0051 0.0736-0.0051 0.0736v57.848c0 1.1269 0.71825 2.1243 1.7893 2.4821l24.778 8.2611c0.81469 0.26902 1.7106 0.1269 2.3958-0.38831l33.039-24.782c0.655-0.49 1.046-1.274 1.046-2.091v-57.815c0-0.0203-0.0051-0.08883-0.0076-0.11675 0-0.02538-0.01269-0.16751-0.01269-0.17004 0 0-0.02538-0.16497-0.02538-0.17512-0.0025-0.0025-0.01523-0.0939-0.01523-0.0939-0.0076-0.04061-0.01015-0.03807-0.02284-0.07868 0 0-0.05584-0.19796-0.05837-0.19796l-0.0533-0.1472c-0.0076-0.01776-0.08375-0.18527-0.08375-0.18527-0.0025-0.0051-0.07868-0.14974-0.07868-0.14974-0.01015-0.01777-0.10913-0.17004-0.10913-0.17004s-0.09898-0.13705-0.10152-0.13705l-0.09898-0.11928c-0.01269-0.01523-0.03046-0.03046-0.04315-0.04568l-0.09644-0.10152c-0.01015-0.0076-0.1269-0.10913-0.1269-0.10913-0.03299-0.02792-0.14466-0.11675-0.14466-0.11675-0.01523-0.01015-0.14974-0.09898-0.14974-0.09898-0.02284-0.01269-0.18273-0.1066-0.18273-0.1066-0.02538-0.01269-0.16497-0.07614-0.16497-0.07614-0.02792-0.01015-0.17004-0.06852-0.17004-0.06852 0.0025 0-0.19035-0.05837-0.19035-0.05837 0.0076 0.0025-0.13198-0.03553-0.13198-0.03553l-24.545-5.2764c-0.69033-0.1472-1.3959-0.01523-1.9847 0.36801zm-34.316 23.169m-0.08629 0.3274"/>
<path opacity=".2" d="m61.541-47.476c0-0.03807-0.0025-0.07868-0.0076-0.11421-0.0051-0.04315-0.01015-0.08375-0.01777-0.12436-0.0051-0.0203-0.0051-0.04061-0.01015-0.05837-0.0025-0.01523-0.01015-0.03299-0.01523-0.04822-0.01015-0.04061-0.02284-0.08122-0.03553-0.12182-0.01015-0.03553-0.02284-0.07106-0.03553-0.10406-0.01523-0.03807-0.03299-0.0736-0.0533-0.10913-0.01777-0.03299-0.03299-0.06599-0.0533-0.09898-0.0203-0.03299-0.04315-0.06599-0.06345-0.09898-0.0203-0.03046-0.04315-0.06091-0.06345-0.09137-0.02538-0.03046-0.0533-0.06091-0.07868-0.08883s-0.05076-0.05584-0.07614-0.08122c-0.02792-0.02792-0.05837-0.0533-0.08883-0.07614s-0.05837-0.05076-0.08883-0.07106c-0.03299-0.02284-0.06345-0.04315-0.09644-0.06345-0.03553-0.0203-0.06599-0.04315-0.10406-0.05837-0.0076-0.0051-0.01523-0.01015-0.02538-0.01523-0.02792-0.01269-0.0533-0.02284-0.08122-0.03299-0.03807-0.01523-0.07106-0.03299-0.10913-0.04568-0.04061-0.01523-0.08122-0.02538-0.1269-0.03807-0.02538-0.0076-0.05076-0.01777-0.07614-0.02284l-24.55-5.276c-0.43653-0.0939-0.88829-0.0076-1.2614 0.23349l-33.268 21.796c-0.0076 0.0051-0.01523 0.01269-0.02284 0.01776-0.01269 0.0076-0.02538 0.01523-0.03807 0.02284-0.03046 0.0203-0.05837 0.04822-0.08883 0.07106-0.01523 0.01269-0.03553 0.02792-0.05076 0.04061-0.10659 0.09898-0.20304 0.20811-0.28171 0.3274-0.01269 0.01777-0.02284 0.04061-0.03299 0.05837-0.02538 0.04315-0.05076 0.08629-0.07106 0.12944-0.01015 0.02538-0.02284 0.05076-0.03299 0.0736-0.01777 0.04314-0.03553 0.08375-0.04822 0.1269-0.0076 0.02538-0.01777 0.0533-0.02538 0.07868-0.01269 0.04568-0.0203 0.08883-0.03046 0.13451-0.0051 0.02538-0.01015 0.0533-0.01523 0.07868-0.0076 0.05076-0.01015 0.10406-0.01269 0.15482 0 0.0203-0.0025 0.04061-0.0025 0.06091v57.828c0 0.71571 0.45937 1.3527 1.137 1.5786l24.778 8.2586c0.51775 0.17258 1.0863 0.08122 1.5228-0.24618l33.042-24.781c0.41623-0.31471 0.66495-0.80708 0.66495-1.3299v-57.815c0-0.0203-0.0025-0.03807-0.0051-0.05837z"/>
<path opacity=".2" d="m33.426-55.358-33.271 21.796c-0.01015 0.01015-0.1066 0.07106-0.1066 0.07106 0.0203-0.01269-0.11928 0.09644-0.11928 0.09644-0.04822 0.03807-0.04822 0.02792-0.08883 0.0736l-0.43907 0.51267c-0.04061 0.04822-0.02792 0.04061-0.05837 0.09644l-0.0025 0.0076c0.0051-0.01015-0.1066 0.19289-0.1066 0.19289-0.0051 0.01269-0.04568 0.10406-0.04568 0.10406-0.0025 0.01015-0.08121 0.21573-0.08121 0.21573l-0.03299 0.10406c-0.0051 0.0203-0.0533 0.22334-0.0533 0.22334l-0.02284 0.1269-0.0203 0.2538c0-0.02284-0.0051 0.0736-0.0051 0.0736v57.848c0 1.1269 0.71825 2.1243 1.7893 2.4821l24.778 8.2611c0.81469 0.26902 1.7106 0.1269 2.3958-0.38831l33.039-24.782c0.6548-0.48983 1.0456-1.2741 1.0456-2.0913v-57.815c0-0.0203-0.0051-0.08883-0.0076-0.11675 0-0.02538-0.01269-0.16751-0.01269-0.17004 0 0-0.02538-0.16497-0.02538-0.17512-0.0025-0.0025-0.01523-0.0939-0.01523-0.0939-0.0051-0.04061-0.0076-0.03807-0.0203-0.07868 0 0-0.05584-0.19796-0.05837-0.19796l-0.0533-0.1472c-0.0076-0.01777-0.08375-0.18527-0.08375-0.18527-0.0025-0.0051-0.07868-0.14974-0.07868-0.14974-0.01015-0.01777-0.10913-0.17004-0.10913-0.17004s-0.09898-0.13705-0.10152-0.13705l-0.09898-0.11928c-0.01269-0.01523-0.03046-0.03046-0.04314-0.04568l-0.09644-0.10152c-0.01015-0.0076-0.1269-0.10913-0.1269-0.10913-0.03553-0.02792-0.1472-0.11675-0.1472-0.11675-0.01523-0.01015-0.14974-0.09898-0.14974-0.09898-0.02284-0.01269-0.18273-0.10659-0.18273-0.10659-0.02538-0.01269-0.16497-0.07614-0.16497-0.07614-0.02792-0.01015-0.17004-0.06853-0.17004-0.06853 0.0025 0-0.19035-0.05837-0.19035-0.05837 0.0076 0.0025-0.13197-0.03553-0.13197-0.03553l-24.545-5.2764c-0.69033-0.14466-1.3933-0.01523-1.9822 0.37054zm-34.318 23.167m-0.08375 0.32994"/>
<path opacity=".2" d="m61.064-47.953c0-0.03807-0.0025-0.07868-0.0076-0.11421-0.0051-0.04315-0.01015-0.08375-0.01777-0.12436-0.0051-0.0203-0.0051-0.04061-0.01015-0.05837-0.0025-0.01523-0.01015-0.03299-0.01523-0.04822-0.01015-0.04061-0.02284-0.08122-0.03553-0.12182-0.01269-0.03553-0.02538-0.06853-0.03807-0.10406-0.01523-0.03807-0.03299-0.0736-0.0533-0.10913-0.01777-0.03299-0.03299-0.06599-0.0533-0.09898-0.0203-0.03299-0.04314-0.06599-0.06345-0.09898-0.0203-0.03045-0.04314-0.06091-0.06345-0.09137-0.02538-0.03045-0.0533-0.06091-0.07868-0.08883s-0.05076-0.05584-0.07614-0.08122c-0.02792-0.02792-0.05837-0.0533-0.08883-0.07614s-0.05837-0.05076-0.08883-0.07106c-0.03299-0.02284-0.06345-0.04315-0.09644-0.06345-0.03299-0.02538-0.06599-0.04568-0.10152-0.06345-0.0076-0.0051-0.01523-0.01015-0.02538-0.01523-0.02792-0.01269-0.0533-0.02284-0.08122-0.03299-0.03807-0.01523-0.07106-0.03299-0.10913-0.04568-0.04061-0.01523-0.08122-0.02538-0.1269-0.03807-0.02538-0.0076-0.05076-0.01777-0.07614-0.02284l-24.55-5.2764c-0.43653-0.0939-0.88829-0.0076-1.2614 0.23349l-33.268 21.799c-0.0076 0.0051-0.01523 0.01269-0.02284 0.01777-0.01269 0.0076-0.02538 0.01523-0.03807 0.02284-0.03045 0.0203-0.05837 0.04822-0.08883 0.07106-0.01523 0.01269-0.03553 0.02792-0.05076 0.04061-0.1066 0.09898-0.20304 0.20811-0.28172 0.3274-0.01269 0.01776-0.02284 0.04061-0.03299 0.05837-0.02538 0.04315-0.05076 0.08629-0.07106 0.12944-0.01015 0.02538-0.02284 0.05076-0.03299 0.0736-0.01777 0.04314-0.03553 0.08375-0.04822 0.1269-0.0076 0.02538-0.01776 0.0533-0.02538 0.07868-0.01269 0.04568-0.0203 0.08883-0.03046 0.13451-0.0051 0.02538-0.01015 0.0533-0.01523 0.07868-0.0076 0.05076-0.01015 0.10406-0.01269 0.15482 0 0.0203-0.0025 0.04061-0.0025 0.06091v57.828c0 0.71571 0.45937 1.3527 1.137 1.5786l24.778 8.2586c0.51775 0.17258 1.0863 0.08122 1.5228-0.24618l33.042-24.782c0.41623-0.31471 0.66495-0.80707 0.66495-1.3299v-57.812c0-0.0203-0.0025-0.03807-0.0051-0.05837z"/>
<path d="m32.948-56.158-33.268 21.796c-0.01015 0.01015-0.1066 0.0736-0.1066 0.0736 0.0203-0.01269-0.11928 0.09644-0.11928 0.09644-0.04822 0.03807-0.04822 0.02792-0.08883 0.0736l-0.43907 0.51267c-0.04061 0.04822-0.02792 0.04061-0.05837 0.09644l-0.0051 0.0051c0.0051-0.0076-0.1066 0.19289-0.1066 0.19289-0.0051 0.01269-0.04568 0.10406-0.04568 0.10406-0.0025 0.01015-0.08122 0.21573-0.08122 0.21827l-0.03299 0.10406c-0.0051 0.0203-0.0533 0.22334-0.0533 0.22334l-0.02284 0.1269-0.01777 0.2538c0-0.02284-0.0051 0.0736-0.0051 0.0736v57.85c0 1.1269 0.71825 2.1243 1.7893 2.4821l24.778 8.2611c0.81469 0.26902 1.7106 0.12436 2.3958-0.38831l33.041-24.78c0.6548-0.49237 1.0456-1.2741 1.0456-2.0913v-57.82c0-0.01777-0.0051-0.08883-0.0076-0.11675 0-0.02538-0.01269-0.16751-0.01269-0.17004 0 0-0.02538-0.16497-0.02538-0.17512-0.0025-0.0025-0.01523-0.0939-0.01523-0.0939-0.0076-0.04061-0.01015-0.04061-0.02284-0.07868 0 0-0.05584-0.19796-0.05837-0.19796l-0.0533-0.14466c-0.0076-0.01777-0.08375-0.18527-0.08375-0.18527-0.0025-0.0025-0.07868-0.14974-0.07868-0.14974-0.01015-0.01523-0.10913-0.17004-0.10913-0.17004s-0.09898-0.13705-0.10152-0.13705l-0.09898-0.11928c-0.01269-0.01523-0.03046-0.03299-0.04315-0.04568l-0.09644-0.10152c-0.01015-0.0076-0.1269-0.11167-0.1269-0.11167-0.03553-0.02792-0.1472-0.11675-0.1472-0.11675-0.01523-0.01015-0.14974-0.09898-0.14974-0.09898-0.02284-0.01523-0.18273-0.1066-0.18273-0.1066-0.02538-0.01269-0.16497-0.07614-0.16497-0.07614-0.02792-0.01015-0.17004-0.06853-0.17004-0.06853 0.0025 0-0.19035-0.05584-0.19035-0.05584 0.0076 0.0025-0.13198-0.03553-0.13198-0.03553l-24.545-5.2764c-0.68779-0.1472-1.3933-0.01777-1.9822 0.36801zm-34.316 23.169m-0.08629 0.3274"/>
<path d="m60.589-48.752c0-0.03807-0.0025-0.07614-0.0076-0.11421-0.0051-0.04061-0.01015-0.08375-0.01776-0.12182-0.0051-0.0203-0.0051-0.04061-0.01015-0.05837-0.0025-0.01523-0.01015-0.03299-0.01523-0.04822-0.01015-0.04061-0.02284-0.08122-0.03553-0.12182-0.01269-0.03553-0.02538-0.06853-0.03807-0.10406-0.01523-0.03807-0.03299-0.0736-0.0533-0.10913-0.01776-0.03299-0.03299-0.06599-0.0533-0.09898-0.0203-0.03299-0.04315-0.06599-0.06345-0.09898-0.0203-0.03046-0.04315-0.06091-0.06345-0.09137-0.02538-0.03046-0.0533-0.05837-0.07868-0.08883-0.02538-0.02792-0.05076-0.0533-0.07614-0.08122-0.02792-0.02538-0.05837-0.05076-0.08883-0.07614-0.03046-0.02284-0.05837-0.04822-0.08883-0.07106-0.03299-0.02284-0.06345-0.04061-0.09644-0.06091-0.03553-0.0203-0.06599-0.04314-0.10406-0.06091-0.0076-0.0051-0.01523-0.01015-0.02538-0.01523-0.02792-0.01269-0.0533-0.02284-0.08122-0.03553-0.03807-0.01523-0.07106-0.03046-0.10913-0.04568-0.04061-0.01269-0.08122-0.02538-0.1269-0.03807-0.02538-0.0051-0.05076-0.01523-0.07614-0.02284l-24.55-5.2764c-0.43653-0.0939-0.88829-0.0076-1.2614 0.23603l-33.267 21.79c-0.0076 0.0051-0.01523 0.01269-0.02284 0.01777-0.01269 0.0076-0.02538 0.01523-0.03807 0.02284-0.03046 0.02284-0.05837 0.04822-0.08883 0.07106-0.01523 0.01269-0.03553 0.02538-0.05076 0.04061-0.10659 0.09898-0.20304 0.20811-0.28171 0.3274-0.01269 0.0203-0.02284 0.04061-0.03299 0.05837-0.02538 0.04315-0.05076 0.08375-0.07106 0.12944-0.01015 0.02284-0.02284 0.04822-0.03299 0.0736-0.01776 0.04314-0.03553 0.08375-0.04822 0.1269-0.0076 0.02538-0.01777 0.0533-0.02538 0.07868-0.01269 0.04315-0.0203 0.08883-0.03045 0.13451-0.0051 0.02538-0.01015 0.0533-0.01523 0.07868-0.0076 0.0533-0.01015 0.10406-0.01269 0.15735 0 0.0203-0.0025 0.04061-0.0025 0.06091v57.827c0 0.71571 0.45937 1.3502 1.137 1.5786l24.778 8.2586c0.51775 0.17258 1.0863 0.07868 1.5228-0.24872l33.042-24.778c0.41623-0.31471 0.66495-0.80707 0.66495-1.3299v-57.815c0.0025-0.01777 0-0.03807-0.0025-0.05837z"/>
</g>
<g stroke-width=".18469">
<polygon points="12.329 33.005 12.329 10.224 22.091 13.479 35.109 3.715 35.109 26.496 22.091 36.26" transform="matrix(2.538,0,0,2.538,-30.176,-58.122)"/>
<polygon points="35.109 3.715 25.437 1.637 12.329 10.224 22.091 13.479" transform="matrix(2.538,0,0,2.538,-30.176,-58.122)"/>
<polygon points="12.329 10.224 12.329 33.005 22.091 36.26 22.091 13.479" transform="matrix(2.538,0,0,2.538,-30.176,-58.122)"/>
<polygon points="22.091 30.504 12.329 27.4 12.329 33.005 22.091 36.26" transform="matrix(2.538,0,0,2.538,-30.176,-58.122)"/>
<polygon points="13.806 14.451 13.806 16.165 20.093 18.261 20.093 16.546" transform="matrix(2.538,0,0,2.538,-30.176,-58.122)"/>
<polygon points="13.806 16.879 13.806 18.594 20.093 20.689 20.093 18.975" transform="matrix(2.538,0,0,2.538,-30.176,-58.122)"/>
<polygon points="13.806 19.308 13.806 21.023 20.093 23.118 20.093 21.404" transform="matrix(2.538,0,0,2.538,-30.176,-58.122)"/>
<g transform="matrix(2.538,0,0,2.538,-30.176,-58.122)">
<path d="m19.776 33.411c-0.453-0.121-0.808 0.097-0.808 0.497s0.355 0.809 0.808 0.93l0.48 0.129c0.454 0.122 0.809-0.097 0.809-0.497 0-0.399-0.355-0.809-0.809-0.93l-0.48-0.129z"/>
<path d="m19.776 33.603c-0.347-0.094-0.63 0.065-0.63 0.354s0.283 0.599 0.63 0.691l0.48 0.129c0.348 0.093 0.63-0.066 0.63-0.354s-0.282-0.598-0.63-0.69l-0.48-0.13z"/>
<path d="m20.828 34.406c0 0.254-0.256 0.391-0.571 0.306l-0.48-0.128c-0.315-0.085-0.57-0.358-0.57-0.612 0-0.253 0.255-0.39 0.57-0.306l0.48 0.129c0.315 0.085 0.571 0.358 0.571 0.611z"/>
<path d="m19.776 33.794c-0.245-0.065-0.451 0.038-0.451 0.226s0.207 0.402 0.451 0.469l0.48 0.129c0.245 0.065 0.452-0.038 0.452-0.227s-0.207-0.402-0.452-0.468l-0.48-0.129z"/>
<path d="m19.758 33.713c-0.202-0.054-0.358 0.037-0.358 0.151s0.156 0.289 0.358 0.343l0.518 0.139c0.205 0.056 0.358-0.034 0.358-0.15s-0.153-0.288-0.358-0.343l-0.518-0.14z"/>
</g>
</g>
</g>
</g>
<g transform="matrix(-.64215 0 0 .63999 -50.104 -210.18)">
<g stroke-width=".46797">
<path opacity=".2" d="m33.9-54.884-33.268 21.799c-0.01015 0.01015-0.1066 0.07106-0.1066 0.07106 0.0203-0.01269-0.11928 0.09644-0.11928 0.09644-0.04822 0.03807-0.04822 0.02792-0.08883 0.0736l-0.43907 0.51267c-0.04061 0.04822-0.02792 0.04061-0.05837 0.09644l-0.0025 0.0076c0.0051-0.01015-0.1066 0.19289-0.1066 0.19289-0.0051 0.01269-0.04568 0.10406-0.04568 0.10406-0.0025 0.01015-0.08121 0.21573-0.08121 0.21573l-0.03299 0.10406c-0.0051 0.0203-0.0533 0.22334-0.0533 0.22334l-0.02284 0.1269-0.0203 0.2538c0-0.02284-0.0051 0.0736-0.0051 0.0736v57.848c0 1.1269 0.71825 2.1243 1.7893 2.4821l24.778 8.2611c0.81469 0.26902 1.7106 0.1269 2.3958-0.38831l33.039-24.782c0.655-0.49 1.046-1.274 1.046-2.091v-57.815c0-0.0203-0.0051-0.08883-0.0076-0.11675 0-0.02538-0.01269-0.16751-0.01269-0.17004 0 0-0.02538-0.16497-0.02538-0.17512-0.0025-0.0025-0.01523-0.0939-0.01523-0.0939-0.0076-0.04061-0.01015-0.03807-0.02284-0.07868 0 0-0.05584-0.19796-0.05837-0.19796l-0.0533-0.1472c-0.0076-0.01776-0.08375-0.18527-0.08375-0.18527-0.0025-0.0051-0.07868-0.14974-0.07868-0.14974-0.01015-0.01777-0.10913-0.17004-0.10913-0.17004s-0.09898-0.13705-0.10152-0.13705l-0.09898-0.11928c-0.01269-0.01523-0.03046-0.03046-0.04315-0.04568l-0.09644-0.10152c-0.01015-0.0076-0.1269-0.10913-0.1269-0.10913-0.03299-0.02792-0.14466-0.11675-0.14466-0.11675-0.01523-0.01015-0.14974-0.09898-0.14974-0.09898-0.02284-0.01269-0.18273-0.1066-0.18273-0.1066-0.02538-0.01269-0.16497-0.07614-0.16497-0.07614-0.02792-0.01015-0.17004-0.06852-0.17004-0.06852 0.0025 0-0.19035-0.05837-0.19035-0.05837 0.0076 0.0025-0.13198-0.03553-0.13198-0.03553l-24.545-5.2764c-0.69033-0.1472-1.3959-0.01523-1.9847 0.36801zm-34.316 23.169m-0.08629 0.3274"/>
<path opacity=".2" d="m61.541-47.476c0-0.03807-0.0025-0.07868-0.0076-0.11421-0.0051-0.04315-0.01015-0.08375-0.01777-0.12436-0.0051-0.0203-0.0051-0.04061-0.01015-0.05837-0.0025-0.01523-0.01015-0.03299-0.01523-0.04822-0.01015-0.04061-0.02284-0.08122-0.03553-0.12182-0.01015-0.03553-0.02284-0.07106-0.03553-0.10406-0.01523-0.03807-0.03299-0.0736-0.0533-0.10913-0.01777-0.03299-0.03299-0.06599-0.0533-0.09898-0.0203-0.03299-0.04315-0.06599-0.06345-0.09898-0.0203-0.03046-0.04315-0.06091-0.06345-0.09137-0.02538-0.03046-0.0533-0.06091-0.07868-0.08883s-0.05076-0.05584-0.07614-0.08122c-0.02792-0.02792-0.05837-0.0533-0.08883-0.07614s-0.05837-0.05076-0.08883-0.07106c-0.03299-0.02284-0.06345-0.04315-0.09644-0.06345-0.03553-0.0203-0.06599-0.04315-0.10406-0.05837-0.0076-0.0051-0.01523-0.01015-0.02538-0.01523-0.02792-0.01269-0.0533-0.02284-0.08122-0.03299-0.03807-0.01523-0.07106-0.03299-0.10913-0.04568-0.04061-0.01523-0.08122-0.02538-0.1269-0.03807-0.02538-0.0076-0.05076-0.01777-0.07614-0.02284l-24.55-5.276c-0.43653-0.0939-0.88829-0.0076-1.2614 0.23349l-33.268 21.796c-0.0076 0.0051-0.01523 0.01269-0.02284 0.01776-0.01269 0.0076-0.02538 0.01523-0.03807 0.02284-0.03046 0.0203-0.05837 0.04822-0.08883 0.07106-0.01523 0.01269-0.03553 0.02792-0.05076 0.04061-0.10659 0.09898-0.20304 0.20811-0.28171 0.3274-0.01269 0.01777-0.02284 0.04061-0.03299 0.05837-0.02538 0.04315-0.05076 0.08629-0.07106 0.12944-0.01015 0.02538-0.02284 0.05076-0.03299 0.0736-0.01777 0.04314-0.03553 0.08375-0.04822 0.1269-0.0076 0.02538-0.01777 0.0533-0.02538 0.07868-0.01269 0.04568-0.0203 0.08883-0.03046 0.13451-0.0051 0.02538-0.01015 0.0533-0.01523 0.07868-0.0076 0.05076-0.01015 0.10406-0.01269 0.15482 0 0.0203-0.0025 0.04061-0.0025 0.06091v57.828c0 0.71571 0.45937 1.3527 1.137 1.5786l24.778 8.2586c0.51775 0.17258 1.0863 0.08122 1.5228-0.24618l33.042-24.781c0.41623-0.31471 0.66495-0.80708 0.66495-1.3299v-57.815c0-0.0203-0.0025-0.03807-0.0051-0.05837z"/>
<path opacity=".2" d="m33.426-55.358-33.271 21.796c-0.01015 0.01015-0.1066 0.07106-0.1066 0.07106 0.0203-0.01269-0.11928 0.09644-0.11928 0.09644-0.04822 0.03807-0.04822 0.02792-0.08883 0.0736l-0.43907 0.51267c-0.04061 0.04822-0.02792 0.04061-0.05837 0.09644l-0.0025 0.0076c0.0051-0.01015-0.1066 0.19289-0.1066 0.19289-0.0051 0.01269-0.04568 0.10406-0.04568 0.10406-0.0025 0.01015-0.08121 0.21573-0.08121 0.21573l-0.03299 0.10406c-0.0051 0.0203-0.0533 0.22334-0.0533 0.22334l-0.02284 0.1269-0.0203 0.2538c0-0.02284-0.0051 0.0736-0.0051 0.0736v57.848c0 1.1269 0.71825 2.1243 1.7893 2.4821l24.778 8.2611c0.81469 0.26902 1.7106 0.1269 2.3958-0.38831l33.039-24.782c0.6548-0.48983 1.0456-1.2741 1.0456-2.0913v-57.815c0-0.0203-0.0051-0.08883-0.0076-0.11675 0-0.02538-0.01269-0.16751-0.01269-0.17004 0 0-0.02538-0.16497-0.02538-0.17512-0.0025-0.0025-0.01523-0.0939-0.01523-0.0939-0.0051-0.04061-0.0076-0.03807-0.0203-0.07868 0 0-0.05584-0.19796-0.05837-0.19796l-0.0533-0.1472c-0.0076-0.01777-0.08375-0.18527-0.08375-0.18527-0.0025-0.0051-0.07868-0.14974-0.07868-0.14974-0.01015-0.01777-0.10913-0.17004-0.10913-0.17004s-0.09898-0.13705-0.10152-0.13705l-0.09898-0.11928c-0.01269-0.01523-0.03046-0.03046-0.04314-0.04568l-0.09644-0.10152c-0.01015-0.0076-0.1269-0.10913-0.1269-0.10913-0.03553-0.02792-0.1472-0.11675-0.1472-0.11675-0.01523-0.01015-0.14974-0.09898-0.14974-0.09898-0.02284-0.01269-0.18273-0.10659-0.18273-0.10659-0.02538-0.01269-0.16497-0.07614-0.16497-0.07614-0.02792-0.01015-0.17004-0.06853-0.17004-0.06853 0.0025 0-0.19035-0.05837-0.19035-0.05837 0.0076 0.0025-0.13197-0.03553-0.13197-0.03553l-24.545-5.2764c-0.69033-0.14466-1.3933-0.01523-1.9822 0.37054zm-34.318 23.167m-0.08375 0.32994"/>
<path opacity=".2" d="m61.064-47.953c0-0.03807-0.0025-0.07868-0.0076-0.11421-0.0051-0.04315-0.01015-0.08375-0.01777-0.12436-0.0051-0.0203-0.0051-0.04061-0.01015-0.05837-0.0025-0.01523-0.01015-0.03299-0.01523-0.04822-0.01015-0.04061-0.02284-0.08122-0.03553-0.12182-0.01269-0.03553-0.02538-0.06853-0.03807-0.10406-0.01523-0.03807-0.03299-0.0736-0.0533-0.10913-0.01777-0.03299-0.03299-0.06599-0.0533-0.09898-0.0203-0.03299-0.04314-0.06599-0.06345-0.09898-0.0203-0.03045-0.04314-0.06091-0.06345-0.09137-0.02538-0.03045-0.0533-0.06091-0.07868-0.08883s-0.05076-0.05584-0.07614-0.08122c-0.02792-0.02792-0.05837-0.0533-0.08883-0.07614s-0.05837-0.05076-0.08883-0.07106c-0.03299-0.02284-0.06345-0.04315-0.09644-0.06345-0.03299-0.02538-0.06599-0.04568-0.10152-0.06345-0.0076-0.0051-0.01523-0.01015-0.02538-0.01523-0.02792-0.01269-0.0533-0.02284-0.08122-0.03299-0.03807-0.01523-0.07106-0.03299-0.10913-0.04568-0.04061-0.01523-0.08122-0.02538-0.1269-0.03807-0.02538-0.0076-0.05076-0.01777-0.07614-0.02284l-24.55-5.2764c-0.43653-0.0939-0.88829-0.0076-1.2614 0.23349l-33.268 21.799c-0.0076 0.0051-0.01523 0.01269-0.02284 0.01777-0.01269 0.0076-0.02538 0.01523-0.03807 0.02284-0.03045 0.0203-0.05837 0.04822-0.08883 0.07106-0.01523 0.01269-0.03553 0.02792-0.05076 0.04061-0.1066 0.09898-0.20304 0.20811-0.28172 0.3274-0.01269 0.01776-0.02284 0.04061-0.03299 0.05837-0.02538 0.04315-0.05076 0.08629-0.07106 0.12944-0.01015 0.02538-0.02284 0.05076-0.03299 0.0736-0.01777 0.04314-0.03553 0.08375-0.04822 0.1269-0.0076 0.02538-0.01776 0.0533-0.02538 0.07868-0.01269 0.04568-0.0203 0.08883-0.03046 0.13451-0.0051 0.02538-0.01015 0.0533-0.01523 0.07868-0.0076 0.05076-0.01015 0.10406-0.01269 0.15482 0 0.0203-0.0025 0.04061-0.0025 0.06091v57.828c0 0.71571 0.45937 1.3527 1.137 1.5786l24.778 8.2586c0.51775 0.17258 1.0863 0.08122 1.5228-0.24618l33.042-24.782c0.41623-0.31471 0.66495-0.80707 0.66495-1.3299v-57.812c0-0.0203-0.0025-0.03807-0.0051-0.05837z"/>
<path d="m32.948-56.158-33.268 21.796c-0.01015 0.01015-0.1066 0.0736-0.1066 0.0736 0.0203-0.01269-0.11928 0.09644-0.11928 0.09644-0.04822 0.03807-0.04822 0.02792-0.08883 0.0736l-0.43907 0.51267c-0.04061 0.04822-0.02792 0.04061-0.05837 0.09644l-0.0051 0.0051c0.0051-0.0076-0.1066 0.19289-0.1066 0.19289-0.0051 0.01269-0.04568 0.10406-0.04568 0.10406-0.0025 0.01015-0.08122 0.21573-0.08122 0.21827l-0.03299 0.10406c-0.0051 0.0203-0.0533 0.22334-0.0533 0.22334l-0.02284 0.1269-0.01777 0.2538c0-0.02284-0.0051 0.0736-0.0051 0.0736v57.85c0 1.1269 0.71825 2.1243 1.7893 2.4821l24.778 8.2611c0.81469 0.26902 1.7106 0.12436 2.3958-0.38831l33.041-24.78c0.6548-0.49237 1.0456-1.2741 1.0456-2.0913v-57.82c0-0.01777-0.0051-0.08883-0.0076-0.11675 0-0.02538-0.01269-0.16751-0.01269-0.17004 0 0-0.02538-0.16497-0.02538-0.17512-0.0025-0.0025-0.01523-0.0939-0.01523-0.0939-0.0076-0.04061-0.01015-0.04061-0.02284-0.07868 0 0-0.05584-0.19796-0.05837-0.19796l-0.0533-0.14466c-0.0076-0.01777-0.08375-0.18527-0.08375-0.18527-0.0025-0.0025-0.07868-0.14974-0.07868-0.14974-0.01015-0.01523-0.10913-0.17004-0.10913-0.17004s-0.09898-0.13705-0.10152-0.13705l-0.09898-0.11928c-0.01269-0.01523-0.03046-0.03299-0.04315-0.04568l-0.09644-0.10152c-0.01015-0.0076-0.1269-0.11167-0.1269-0.11167-0.03553-0.02792-0.1472-0.11675-0.1472-0.11675-0.01523-0.01015-0.14974-0.09898-0.14974-0.09898-0.02284-0.01523-0.18273-0.1066-0.18273-0.1066-0.02538-0.01269-0.16497-0.07614-0.16497-0.07614-0.02792-0.01015-0.17004-0.06853-0.17004-0.06853 0.0025 0-0.19035-0.05584-0.19035-0.05584 0.0076 0.0025-0.13198-0.03553-0.13198-0.03553l-24.545-5.2764c-0.68779-0.1472-1.3933-0.01777-1.9822 0.36801zm-34.316 23.169m-0.08629 0.3274"/>
<path d="m60.589-48.752c0-0.03807-0.0025-0.07614-0.0076-0.11421-0.0051-0.04061-0.01015-0.08375-0.01776-0.12182-0.0051-0.0203-0.0051-0.04061-0.01015-0.05837-0.0025-0.01523-0.01015-0.03299-0.01523-0.04822-0.01015-0.04061-0.02284-0.08122-0.03553-0.12182-0.01269-0.03553-0.02538-0.06853-0.03807-0.10406-0.01523-0.03807-0.03299-0.0736-0.0533-0.10913-0.01776-0.03299-0.03299-0.06599-0.0533-0.09898-0.0203-0.03299-0.04315-0.06599-0.06345-0.09898-0.0203-0.03046-0.04315-0.06091-0.06345-0.09137-0.02538-0.03046-0.0533-0.05837-0.07868-0.08883-0.02538-0.02792-0.05076-0.0533-0.07614-0.08122-0.02792-0.02538-0.05837-0.05076-0.08883-0.07614-0.03046-0.02284-0.05837-0.04822-0.08883-0.07106-0.03299-0.02284-0.06345-0.04061-0.09644-0.06091-0.03553-0.0203-0.06599-0.04314-0.10406-0.06091-0.0076-0.0051-0.01523-0.01015-0.02538-0.01523-0.02792-0.01269-0.0533-0.02284-0.08122-0.03553-0.03807-0.01523-0.07106-0.03046-0.10913-0.04568-0.04061-0.01269-0.08122-0.02538-0.1269-0.03807-0.02538-0.0051-0.05076-0.01523-0.07614-0.02284l-24.55-5.2764c-0.43653-0.0939-0.88829-0.0076-1.2614 0.23603l-33.267 21.79c-0.0076 0.0051-0.01523 0.01269-0.02284 0.01777-0.01269 0.0076-0.02538 0.01523-0.03807 0.02284-0.03046 0.02284-0.05837 0.04822-0.08883 0.07106-0.01523 0.01269-0.03553 0.02538-0.05076 0.04061-0.10659 0.09898-0.20304 0.20811-0.28171 0.3274-0.01269 0.0203-0.02284 0.04061-0.03299 0.05837-0.02538 0.04315-0.05076 0.08375-0.07106 0.12944-0.01015 0.02284-0.02284 0.04822-0.03299 0.0736-0.01776 0.04314-0.03553 0.08375-0.04822 0.1269-0.0076 0.02538-0.01777 0.0533-0.02538 0.07868-0.01269 0.04315-0.0203 0.08883-0.03045 0.13451-0.0051 0.02538-0.01015 0.0533-0.01523 0.07868-0.0076 0.0533-0.01015 0.10406-0.01269 0.15735 0 0.0203-0.0025 0.04061-0.0025 0.06091v57.827c0 0.71571 0.45937 1.3502 1.137 1.5786l24.778 8.2586c0.51775 0.17258 1.0863 0.07868 1.5228-0.24872l33.042-24.778c0.41623-0.31471 0.66495-0.80707 0.66495-1.3299v-57.815c0.0025-0.01777 0-0.03807-0.0025-0.05837z"/>
</g>
<g stroke-width=".18438">
<polygon points="35.109 3.715 35.109 26.496 22.091 36.26 12.329 33.005 12.329 10.224 22.091 13.479" transform="matrix(2.538,0,0,2.538,-30.176,-58.122)"/>
<polygon points="22.091 13.479 35.109 3.715 25.437 1.637 12.329 10.224" transform="matrix(2.538,0,0,2.538,-30.176,-58.122)"/>
<polygon points="22.091 13.479 12.329 10.224 12.329 33.005 22.091 36.26" transform="matrix(2.538,0,0,2.538,-30.176,-58.122)"/>
<polygon points="22.091 36.26 22.091 30.504 12.329 27.4 12.329 33.005" transform="matrix(2.538,0,0,2.538,-30.176,-58.122)"/>
<polygon points="20.093 16.546 13.806 14.451 13.806 16.165 20.093 18.261" transform="matrix(2.538,0,0,2.538,-30.176,-58.122)"/>
<polygon points="20.093 18.975 13.806 16.879 13.806 18.594 20.093 20.689" transform="matrix(2.538,0,0,2.538,-30.176,-58.122)"/>
<polygon points="20.093 21.404 13.806 19.308 13.806 21.023 20.093 23.118" transform="matrix(2.538,0,0,2.538,-30.176,-58.122)"/>
<g transform="matrix(2.538,0,0,2.538,-30.176,-58.122)">
<path d="m19.776 33.411c-0.453-0.121-0.808 0.097-0.808 0.497s0.355 0.809 0.808 0.93l0.48 0.129c0.454 0.122 0.809-0.097 0.809-0.497 0-0.399-0.355-0.809-0.809-0.93l-0.48-0.129z"/>
<path d="m19.776 33.603c-0.347-0.094-0.63 0.065-0.63 0.354s0.283 0.599 0.63 0.691l0.48 0.129c0.348 0.093 0.63-0.066 0.63-0.354s-0.282-0.598-0.63-0.69l-0.48-0.13z"/>
<path d="m20.828 34.406c0 0.254-0.256 0.391-0.571 0.306l-0.48-0.128c-0.315-0.085-0.57-0.358-0.57-0.612 0-0.253 0.255-0.39 0.57-0.306l0.48 0.129c0.315 0.085 0.571 0.358 0.571 0.611z"/>
<path d="m19.776 33.794c-0.245-0.065-0.451 0.038-0.451 0.226s0.207 0.402 0.451 0.469l0.48 0.129c0.245 0.065 0.452-0.038 0.452-0.227s-0.207-0.402-0.452-0.468l-0.48-0.129z"/>
<path d="m19.758 33.713c-0.202-0.054-0.358 0.037-0.358 0.151s0.156 0.289 0.358 0.343l0.518 0.139c0.205 0.056 0.358-0.034 0.358-0.15s-0.153-0.288-0.358-0.343l-0.518-0.14z"/>
</g>
</g>
</g>
</g>
</g>
<g transform="matrix(-1,0,0,1,587.6,-385.31)" stroke="#fff">
<g transform="translate(-118.49,-149.61)" stroke="#fff">
<g transform="translate(0,11.373)" stroke="#fff">
<g stroke="#fff" fill="none">
<circle opacity="0.87" stroke-linejoin="bevel" stroke-linecap="round" transform="scale(-1,1)" stroke="#fff" cy="665.09" cx="-148.1" r="128.62"/>
</g>
</g>
</g>
</g>
<g transform="translate(186.65 -22.995)">
<g transform="translate(-118.49,-149.61)">
<g transform="translate(0,11.373)" stroke="#fff">
<g transform="matrix(-1,0,0,1,610.13,-13.935)" fill="none">
<g>
<path d="m301.28 327.69h144.32v95.069h162.89"/>
<path d="m304.77 319.59h301.72"/>
</g>
</g>
<g transform="matrix(-1,0,0,-1,610.13,624.41)" fill="none">
<g>
<path d="m301.28 327.69h144.32v95.069h162.89"/>
</g>
</g>
<g transform="matrix(1.331,0,0,1.331,-78.625,-230.11)">
<path d="m300.16 375.73c-32.514-11.194-42.142 21.476-18.009 33.182-19.199 30.651 38.563 44.744 52.566 23.649 28.722 19.496 50.444 7.6312 48.216-6.5993 56.013-3.1332 32.315-85.758-19.286-55.649-11.382-23.962-59.109-23.076-63.487 5.418z" stroke-width=".75131"/>
<text style="word-spacing:0px;letter-spacing:0px" font-family="sans-serif" xml:space="preserve" font-size="24.042px" stroke="#ffffff" y="407.97168" x="284.86652" stroke-width="0.8px" line-height="125%" fill="#000000"><tspan y="407.97168" x="284.86652" stroke-width="0.8px">The Cloud</tspan></text>
</g>
<g font-size="24px" stroke-width="1.0399" transform="translate(-403.73,-11.382)" font-family="&apos;DejaVu Sans&apos;" fill="#fff">
<g transform="matrix(.96323 0 0 .95999 -83.125 -189.96)">
<text font-size="25.6px" stroke-width="1.0399" xml:space="preserve" style="word-spacing:0px;letter-spacing:0px" y="415.34616" x="507.19312" font-family="sans-serif" line-height="125%" fill="#ffffff"><tspan font-size="15.599px" y="415.34616" x="507.19312" stroke-width="1.0399" fill="#ffffff">Server 1</tspan></text>
</g>
<g transform="matrix(.96323 0 0 .95999 -82.115 -85.756)">
<text font-size="25.6px" stroke-width="1.0399" xml:space="preserve" style="word-spacing:0px;letter-spacing:0px" y="415.34616" x="507.19312" font-family="sans-serif" line-height="125%" fill="#ffffff"><tspan font-size="15.599px" y="415.34616" x="507.19312" stroke-width="1.0399" fill="#ffffff">Server 2</tspan></text>
</g>
<g transform="matrix(.96323 0 0 .95999 -83.257 17.054)">
<text font-size="25.6px" stroke-width="1.0399" xml:space="preserve" style="word-spacing:0px;letter-spacing:0px" y="415.34616" x="507.19312" font-family="sans-serif" line-height="125%" fill="#ffffff"><tspan font-size="15.599px" y="415.34616" x="507.19312" stroke-width="1.0399" fill="#ffffff">Server N</tspan></text>
</g>
</g>
</g>
</g>
</g>
<g transform="matrix(.20972 0 0 .20972 3.6507 4.3012)" stroke="#fff">
<g transform="matrix(1.05,0,0,1.05,4.5288,157.26)" stroke-width="4.5412">
<g transform="translate(-3.6739,-117.13)">
<path d="m34.535 224.2v0.29457c0.006-0.0975 0.0206-0.19729 0.0295-0.29457zm138.14 0c0.0302 0.33044 0.0589 0.66821 0.0589 1.0015v-1.0015zm0.0589 1.0015c-0.00001 15.052-30.597 27.262-68.878 27.262-37.683 0.00001-68.377-11.828-69.326-26.555v40.68c-0.0151 0.23376-0.0147 0.45704-0.0147 0.69223 0 0.22546 0.00087 0.45335 0.0147 0.67751 0.91151 14.741 31.619 26.599 69.326 26.599 37.708 0 68.415-11.858 69.326-26.599h0.0295v-0.50077c0.00095-0.0587 0-0.11794 0-0.17674s0.00094-0.11803 0-0.17674l-0.47753-41.902z" stroke="#fff" stroke-width="4.5412"/>
</g>
<g transform="translate(-3.5441,-153.11)">
<path d="m34.535 224.2v0.29457c0.006-0.0975 0.0206-0.19729 0.0295-0.29457zm138.14 0c0.0302 0.33044 0.0589 0.66821 0.0589 1.0015v-1.0015zm0.0589 1.0015c-0.00001 15.052-30.596 27.262-68.877 27.262-37.683 0.00001-68.377-11.828-69.326-26.555v40.68c-0.0151 0.23376-0.0147 0.45704-0.0147 0.69223 0 0.22546 0.00087 0.45335 0.0147 0.67751 0.91151 14.741 31.619 26.599 69.326 26.599 37.708 0 67.936-11.858 68.847-26.599h0.0295v-0.50077c0.00095-0.0587 0-0.11794 0-0.17674s0.00094-0.11803 0-0.17674v-41.902z" stroke="#fff" stroke-width="4.5412"/>
</g>
<g transform="translate(-2.7923,-109.73)">
<path d="m102.92 172.9c-37.683 0.00001-69.342-15.798-69.326-17.018v31.143c-0.0151 0.23376-0.0147 0.45704-0.0147 0.69223 0 0.22546 0.00087 0.45335 0.0147 0.67751 0.91151 14.741 31.619 26.599 69.326 26.599 37.708 0 67.94-11.858 68.851-26.599h0.0295v-0.50077c0.00095-0.0587 0-0.11794 0-0.17674s0.00094-0.11803 0-0.17674v-35.393c-0.91021 4.0761-44.04 20.456-68.88 20.753z"/>
<ellipse rx="69.244" ry="26.778" cy="153.36" cx="102.81"/>
</g>
</g>
<g transform="translate(26.695,674.54)" stroke-width="4.7683">
<path d="m194.77 146.09c0 6.627-5.373 12-12 12h-166c-6.627 0-12-5.373-12-12v-96.226c0-6.627 5.373-12 12-12h166c6.627 0 12 5.373 12 12v96.226z" stroke="#fff"/>
<polyline points="10.409 41.273 99.5 148 187.27 42.409"/>
<line y2="111.95" y1="153.32" x2="65.909" x1="9.318"/>
<line y2="153.32" y1="108.55" x2="189.32" x1="128.86"/>
</g>
<g transform="matrix(4.7683 0 0 4.7683 -1343.3 -962.6)" stroke-width=".99999">
<g transform="matrix(.99809 .061851 -.061851 .99809 27.305 -107.18)" stroke-width=".99999">
<g transform="matrix(-.10139 -.035333 -.035333 .10139 307.21 471.88)" stroke-width="9.3135">
<path d="m158.67 240.14c1.82-1.94 3.59-3.9 5.27-5.89-1.45-5.96-3.64-13.42-6.62-19.28-4.43-8.71-23.32-21.24-32.48-26.97 3.42 2.08 11.09 6.73 25.7 15.66 9.46 5.79 16.61 14.04 21.19 20.39 18.66-27.11 24.35-59.63 8.56-103-6.48-7.17-27.29-4.55-56.33 5.43-2.18 6.6-4.82 14.49-7.1 21.17-4.86 14.21-7 19.97-7 19.97s3.18-23.24 3.78-37.38c-80.33 30.33-211.79 108.65-287.11 191.99-163.38 180.78-174.32 239.07-148.33 263.87 113.78-52.32 103.9 18.89 258.98-156.93 69.65-78.96 167.08-131.21 221.49-189.03z" fill="none"/>
<path d="m158.67 240.14c1.82-1.94 3.59-3.9 5.27-5.89-1.45-5.96-3.64-13.42-6.62-19.28-4.43-8.71-23.32-21.24-32.48-26.97 3.42 2.08 11.09 6.73 25.7 15.66 9.46 5.79 16.61 14.04 21.19 20.39 18.66-27.11 24.35-59.63 8.56-103-6.48-7.17-27.29-4.55-56.33 5.43-2.18 6.6-4.82 14.49-7.1 21.17-4.86 14.21-7 19.97-7 19.97s3.18-23.24 3.78-37.38c-80.33 30.33-211.79 108.65-287.11 191.99-163.38 180.78-174.32 239.07-148.33 263.87 113.78-52.32 103.9 18.89 258.98-156.93 69.65-78.96 167.08-131.21 221.49-189.03z" fill="none"/>
<path opacity=".72177" d="m-302.42 576.62s86.27-117.27 181.18-209.13c84.8-82 203.65-172.49 203.65-172.49s-91.75 60.37-132.98 94.94c-42.42 35.56-95.35 74.59-142.85 134.01s-102.77 119.57-102.77 119.57l-27.98 37.79s20.34-2.67 21.75-4.69z" fill-opacity=".64889" fill="#062e05"/>
<path d="m158.67 240.14c1.82-1.94 3.59-3.9 5.27-5.89-1.45-5.96-3.64-13.42-6.62-19.28-4.43-8.71-23.32-21.24-32.48-26.97 3.42 2.08 11.09 6.73 25.7 15.66 9.46 5.79 16.61 14.04 21.19 20.39 18.66-27.11 24.35-59.63 8.56-103-6.48-7.17-27.29-4.55-56.33 5.43-2.18 6.6-4.82 14.49-7.1 21.17-4.86 14.21-7 19.97-7 19.97s3.18-23.24 3.78-37.38c-80.33 30.33-211.79 108.65-287.11 191.99-163.38 180.78-174.32 239.07-148.33 263.87 113.78-52.32 103.9 18.89 258.98-156.93 69.65-78.96 167.08-131.21 221.49-189.03z" fill="none"/>
<path d="m98.511 186.05s-150.96 89.92-299.39 256.27c-148.42 166.35-193.25 264.69-193.25 264.69l-37.209 43.56-1.873-1.56s86.062-170.27 191.82-283.06c228.47-243.62 343.58-279.61 339.9-279.9z" fill="#fff"/>
<path stroke-linejoin="round" d="m-311.56 582.1c25.7-11.56 54.18-20.16 81.49-23.48 15.42-1.64 30.3-6.76 43.7-14.07 9.24-2.83 14.58-12.34 23.3-14.21 12.34-10.67 25.82-22.86 37.14-33.01 11.03-12.53 24.37-25.11 35.74-38.44 32.32-34.61 63.52-70.53 101.56-99.36 26.69-21.81 54.63-41.8 81.91-62.85 15.69-10.35 29.04-24.04 43.81-36.04 10.38-11.08 32.97-21.76 22.91-39.7-2.23-11.91-13.75-16.39-20.77-23.89 12.29 6.3 22.83 15.33 32.39 25.4 10.96-11.39 14.61-28.45 17.43-43.68 0.66-8.24 0.4-15.02-0.12-21.84-1.21-6.58-0.53-11.78-3.88-18.28-1.39-8.41-4.45-17.96-8.81-20.9-5.4 1.44-15.05-4.11-18.82 0.95-2.67-2.05-9.41 0.14-12.87 1.41-6.87 1.88-14.09 3.73-19.24 6.22-5.9 4.78-5.8 19.23-11.32 27.32-1.46 15.09-5.17 5.51-1.75-2 0.55-9.52-0.03-12.58 2.02-20.89-4.72 1.67-11.44 4.79-18.86 5.79-9.86 7.42-23.82 11.17-34.87 16.99-15.1 7.69-30.38 16.48-45.58 24.58-9.97 7.86-22.18 11.43-32.06 18.96-7.63 6.23-16.33 9.6-23.47 15.4-6.98 4.49-14.42 9.3-17.49 13.01-4.25 0.57-6.73 2.92-9.55 5.33-7.31 2.78-11.81 9.66-18.3 12.98-7.19 7.73-17.94 11.49-24.75 19.34-13.68 12.17-29.9 24.92-43.32 38.95-15.34 15.29-29.51 31.22-44.09 47.15-6.71 11.55-18.3 18.49-24.6 29.44-7.92 8.65-12.27 17.95-20.83 25.02-4.14 10.9-13.74 12.44-15.54 20.78-6.17 5.43-10.54 13.13-16.06 20.63-11.57 15.8-24.52 32.93-34.25 51.39-12.53 22.2-25.79 48.16-20.58 74.4m492.31-453.72 0.19 0.45-0.19-0.45zm14.87 1.12 0.05 0.36-0.05-0.36zm-0.37 1.16-0.12-0.13 0.12 0.13zm1.71 0.28c1.21 0.95-1.14 0.14 0 0zm-44.71 4.5c1.26 0.92-1.17-0.51 0 0zm-0.82-0.13-0.28 0.19 0.28-0.19zm-22.59 40.78c0.22 3.7-2.49 2.48 0 0zm20.38 27.32 0.32 0.14-0.32-0.14zm1.59 0.4c16.99 9.27-2.98 0.38 0 0zm5.12 3.69 0.05-0.13-0.05 0.13zm0.82 0.35-0.13 0.06 0.13-0.06zm0.25 0.28-0.35 0.17 0.35-0.17zm2 2.37 0.18 0.2-0.18-0.2zm31.09 24.25 0.26 0.13-0.26-0.13zm0.25 0.25 0.15 0.09-0.15-0.09zm-32.66 35.81 0.02-0.09-0.02 0.09zm-4.78 4.13 0.14 0.26-0.14-0.26zm-13.81 11.03 0.44-0.06-0.44 0.06zm-17.78 14.59-0.14 0.01 0.14-0.01zm-8.63 6-0.23-0.08 0.23 0.08zm-313.72 79.41h-0.12 0.12zm-13.96 16.06 0.05-0.05-0.05 0.05zm-12.16 16.82c1.57 1.65-1.55 0.24 0 0zm-11.09 11.87-0.28-0.06 0.28 0.06zm0.84 0.84c-0.12 1.78-1.65-0.95 0 0zm-2.22 2.72c1.55 2.1-1.76 1.61 0 0zm-2.09 2.22 0.07-0.07-0.07 0.07zm-4.72 3.13 0.26 0.39-0.26-0.39zm-2.91 5.68 0.27 0.11-0.27-0.11zm-4.93 6.25 0.02 0.15-0.02-0.15zm-1.54 3.91-0.58 0.38 0.58-0.38zm-2.84 5.25 0.04 0.14-0.04-0.14zm-3.47 1.75 0.03 0.06-0.03-0.06zm-2.22 3.97 0.1 0.08-0.1-0.08zm-1.87 1.62 0.22 0.26-0.22-0.26zm195.78 1.69 0.06-0.02-0.06 0.02zm-14.97 15.34-0.18 0.17 0.18-0.17zm-2.78 3.32h0.08-0.08zm-3.63 3.5 0.22-0.19-0.22 0.19zm-15.65 17.09 0.06 0.02-0.06-0.02zm-4.85 5.25v-0.5 0.5zm-1.59-0.12-0.14 0.09 0.14-0.09zm-10.63 9.4 0.26 0.03-0.26-0.03zm-5.87 4.41 0.22 0.15-0.22-0.15zm-0.06 1.44 0.01 0.17-0.01-0.17zm0.09 0.97 0.2-0.12-0.2 0.12zm-1.97 2.09 0.06 0.17-0.06-0.17zm-2.34 0.78-0.02 0.16 0.02-0.16zm0.47 0.28-0.15 0.31 0.15-0.31zm0.72 0.19-0.05-0.12 0.05 0.12zm-0.32 0.37 0.13 0.24-0.13-0.24zm-9.4 6.53-0.03 0.24 0.03-0.24zm-3.03 0.69-0.07 0.05 0.07-0.05zm1 0.91 0.27 0.04-0.27-0.04zm0.62 0.09 0.06-0.05-0.06 0.05zm-4.65 0.69 0.25-0.2-0.25 0.2zm3.15 0.09 0.07 0.25-0.07-0.25zm-3.59 0.97-0.16-0.03 0.16 0.03zm0.28 0.28 0.06 0.18-0.06-0.18zm-2.06 1.19 0.08-0.09-0.08 0.09zm-4.25 0.13 0.07 0.1-0.07-0.1zm0.5 0.53 0.08 0.12-0.08-0.12zm-0.82 3.5 0.12-0.14-0.12 0.14zm0.6 0.15 0.01 0.08-0.01-0.08zm-1.44 0.75-0.25 0.34 0.25-0.34zm0.81 0.85-0.11-0.39 0.11 0.39zm-6.72 1.81-0.24-0.34 0.24 0.34zm-5.25 3.84 0.07-0.17-0.07 0.17zm-1.15 0.16-0.05 0.24 0.05-0.24zm0 0.59-0.02 0.09 0.02-0.09zm-4.28 0.88 0.22-0.07-0.22 0.07zm-0.28 0.47 0.05-0.08-0.05 0.08zm-3.94 0.9 0.23 0.03-0.23-0.03zm-0.56 0.63 0.12 0.09-0.12-0.09zm-0.04 0.56 0.25-0.31-0.25 0.31zm-6.65 3.44-0.01 0.05 0.01-0.05zm-16.1 2.03 0.01 0.1-0.01-0.1zm-4.12 1.06 0.06 0.07-0.06-0.07z" stroke-dashoffset="68" stroke="#fff"/>
<path opacity=".72177" d="m98.511 186.05s-150.96 89.92-299.39 256.27c-148.42 166.35-193.25 264.69-193.25 264.69l-37.209 43.56-1.873-1.56s86.062-170.27 191.82-283.06c228.47-243.62 343.58-279.61 339.9-279.9z" fill="none"/>
<path d="m98.511 186.05s-150.96 89.92-299.39 256.27c-148.42 166.35-193.25 264.69-193.25 264.69l-37.209 43.56-1.873-1.56s86.062-170.27 191.82-283.06c228.47-243.62 343.58-279.61 339.9-279.9z"/>
<path opacity=".72177" d="m-302.27 578.95s49.22-20.58 85.14-43.45c35.91-22.86 38.41-19.58 48.39-31.01 9.97-11.43 25.27-23.01 25.27-23.01l-26.27-12.86 32.42 8.15s19.96-16.86 29.93-32.87c9.98-16.01 19.96-25.15 29.93-34.3 9.98-9.14 12.47-12.29 12.47-12.29l-33.25-17.29 35.08 13.15s14.64-9.43 26.61-25.44 38.91-48.59 44.89-56.59c5.99-8 33.92-29.73 51.88-41.16s37.92-24.01 49.89-30.87 32.92-21 32.92-21l-8.48-16.44-11.47-11.43s1.83-12.86 6.15-14.58c4.32-1.71 38.24-15.43 42.23-20.01 4-4.57 9.98-23.72 9.98-23.72l-9.14-11.86-40.24 34.01 13.96-28.44-14.3 3.29s-13.63 26.15-15.63 32.16c-1.99 6-18.79 27.58-18.79 27.58s-49.38 28.43-55.7 35.87c-6.32 7.43-80.15 70.88-92.12 78.02-11.97 7.15-48.89 39.3-52.88 45.02s-64.51 63.74-64.51 63.74l-49.72 57.87-58.03 69.74-39.91 44.88 13.3-4.86z" fill="none"/>
<path opacity=".72177" d="m-326.05 571.05s120.05-137.2 155.97-176.07 135.85-121.75 135.85-121.75 86.97-65.88 92.95-67.03c5.99-1.14 32.43-18 32.43-18l11.3-7.58s0.34-23.29-0.99-32.15-20.95 4.86-20.95 4.86l-7.65 12.14-5.16-7.28s-63.02 28.43-81.97 43.3c-18.96 14.86-21.12 25.72-21.12 25.72l-3.33 27.87s-1.66-11.44-3.66-20.01c-1.99-8.57 2.66-14.15 2.66-14.15s-39.74 28.87-49.71 36.87c-9.98 8.01-28.94 24.3-28.94 24.3l0.5 16.57 5.49 15.44s-10.97-12.01-10.97-21.44-69.68 61.88-69.68 61.88l9.65 20.29-15.3-15.86s-50.38 67.45-55.37 70.6c-4.99 3.14-13.97 11-13.97 11l18.63 9.86-23.12-2.28s-66.84 82.74-53.54 122.9z" fill="none"/>
</g>
</g>
</g>
</g>
</svg>
