<svg xmlns:rdf="http://www.w3.org/1999/02/22-rdf-syntax-ns#" xmlns="http://www.w3.org/2000/svg" height="329.22" width="540.87" version="1.1" xmlns:cc="http://creativecommons.org/ns#" xmlns:xlink="http://www.w3.org/1999/xlink" xmlns:dc="http://purl.org/dc/elements/1.1/">
<g transform="matrix(1.1 0 0 1.1 95.664 284.1)" stroke="#fff" stroke-width="0.3">
<g transform="translate(18.209 21.851)" stroke="#fff" stroke-width="0.3" fill="none">
<g stroke-width=".46875">
<g transform="matrix(-.64 0 0 .64 -50.41 -17.901)">
<g stroke-width=".46875">
<path opacity=".2" d="m33.9-54.884-33.268 21.799c-0.01015 0.01015-0.1066 0.07106-0.1066 0.07106 0.0203-0.01269-0.11928 0.09644-0.11928 0.09644-0.04822 0.03807-0.04822 0.02792-0.08883 0.0736l-0.43907 0.51267c-0.04061 0.04822-0.02792 0.04061-0.05837 0.09644l-0.0025 0.0076c0.0051-0.01015-0.1066 0.19289-0.1066 0.19289-0.0051 0.01269-0.04568 0.10406-0.04568 0.10406-0.0025 0.01015-0.08121 0.21573-0.08121 0.21573l-0.03299 0.10406c-0.0051 0.0203-0.0533 0.22334-0.0533 0.22334l-0.02284 0.1269-0.0203 0.2538c0-0.02284-0.0051 0.0736-0.0051 0.0736v57.848c0 1.1269 0.71825 2.1243 1.7893 2.4821l24.778 8.2611c0.81469 0.26902 1.7106 0.1269 2.3958-0.38831l33.039-24.782c0.655-0.49 1.046-1.274 1.046-2.091v-57.815c0-0.0203-0.0051-0.08883-0.0076-0.11675 0-0.02538-0.01269-0.16751-0.01269-0.17004 0 0-0.02538-0.16497-0.02538-0.17512-0.0025-0.0025-0.01523-0.0939-0.01523-0.0939-0.0076-0.04061-0.01015-0.03807-0.02284-0.07868 0 0-0.05584-0.19796-0.05837-0.19796l-0.0533-0.1472c-0.0076-0.01776-0.08375-0.18527-0.08375-0.18527-0.0025-0.0051-0.07868-0.14974-0.07868-0.14974-0.01015-0.01777-0.10913-0.17004-0.10913-0.17004s-0.09898-0.13705-0.10152-0.13705l-0.09898-0.11928c-0.01269-0.01523-0.03046-0.03046-0.04315-0.04568l-0.09644-0.10152c-0.01015-0.0076-0.1269-0.10913-0.1269-0.10913-0.03299-0.02792-0.14466-0.11675-0.14466-0.11675-0.01523-0.01015-0.14974-0.09898-0.14974-0.09898-0.02284-0.01269-0.18273-0.1066-0.18273-0.1066-0.02538-0.01269-0.16497-0.07614-0.16497-0.07614-0.02792-0.01015-0.17004-0.06852-0.17004-0.06852 0.0025 0-0.19035-0.05837-0.19035-0.05837 0.0076 0.0025-0.13198-0.03553-0.13198-0.03553l-24.545-5.2764c-0.69033-0.1472-1.3959-0.01523-1.9847 0.36801zm-34.316 23.169m-0.08629 0.3274"/>
<path opacity=".2" d="m61.541-47.476c0-0.03807-0.0025-0.07868-0.0076-0.11421-0.0051-0.04315-0.01015-0.08375-0.01777-0.12436-0.0051-0.0203-0.0051-0.04061-0.01015-0.05837-0.0025-0.01523-0.01015-0.03299-0.01523-0.04822-0.01015-0.04061-0.02284-0.08122-0.03553-0.12182-0.01015-0.03553-0.02284-0.07106-0.03553-0.10406-0.01523-0.03807-0.03299-0.0736-0.0533-0.10913-0.01777-0.03299-0.03299-0.06599-0.0533-0.09898-0.0203-0.03299-0.04315-0.06599-0.06345-0.09898-0.0203-0.03046-0.04315-0.06091-0.06345-0.09137-0.02538-0.03046-0.0533-0.06091-0.07868-0.08883s-0.05076-0.05584-0.07614-0.08122c-0.02792-0.02792-0.05837-0.0533-0.08883-0.07614s-0.05837-0.05076-0.08883-0.07106c-0.03299-0.02284-0.06345-0.04315-0.09644-0.06345-0.03553-0.0203-0.06599-0.04315-0.10406-0.05837-0.0076-0.0051-0.01523-0.01015-0.02538-0.01523-0.02792-0.01269-0.0533-0.02284-0.08122-0.03299-0.03807-0.01523-0.07106-0.03299-0.10913-0.04568-0.04061-0.01523-0.08122-0.02538-0.1269-0.03807-0.02538-0.0076-0.05076-0.01777-0.07614-0.02284l-24.55-5.276c-0.43653-0.0939-0.88829-0.0076-1.2614 0.23349l-33.268 21.796c-0.0076 0.0051-0.01523 0.01269-0.02284 0.01776-0.01269 0.0076-0.02538 0.01523-0.03807 0.02284-0.03046 0.0203-0.05837 0.04822-0.08883 0.07106-0.01523 0.01269-0.03553 0.02792-0.05076 0.04061-0.10659 0.09898-0.20304 0.20811-0.28171 0.3274-0.01269 0.01777-0.02284 0.04061-0.03299 0.05837-0.02538 0.04315-0.05076 0.08629-0.07106 0.12944-0.01015 0.02538-0.02284 0.05076-0.03299 0.0736-0.01777 0.04314-0.03553 0.08375-0.04822 0.1269-0.0076 0.02538-0.01777 0.0533-0.02538 0.07868-0.01269 0.04568-0.0203 0.08883-0.03046 0.13451-0.0051 0.02538-0.01015 0.0533-0.01523 0.07868-0.0076 0.05076-0.01015 0.10406-0.01269 0.15482 0 0.0203-0.0025 0.04061-0.0025 0.06091v0.01269 57.815c0 0.71571 0.45937 1.3527 1.137 1.5786l24.778 8.2586c0.51775 0.17258 1.0863 0.08122 1.5228-0.24618l33.042-24.781c0.41623-0.31471 0.66495-0.80708 0.66495-1.3299v-57.815c0-0.0203-0.0025-0.03807-0.0051-0.05837z"/>
<path opacity=".2" d="m33.426-55.358-33.271 21.796c-0.01015 0.01015-0.1066 0.07106-0.1066 0.07106 0.0203-0.01269-0.11928 0.09644-0.11928 0.09644-0.04822 0.03807-0.04822 0.02792-0.08883 0.0736l-0.43907 0.51267c-0.04061 0.04822-0.02792 0.04061-0.05837 0.09644l-0.0025 0.0076c0.0051-0.01015-0.1066 0.19289-0.1066 0.19289-0.0051 0.01269-0.04568 0.10406-0.04568 0.10406-0.0025 0.01015-0.08121 0.21573-0.08121 0.21573l-0.03299 0.10406c-0.0051 0.0203-0.0533 0.22334-0.0533 0.22334l-0.02284 0.1269-0.0203 0.2538c0-0.02284-0.0051 0.0736-0.0051 0.0736v57.848c0 1.1269 0.71825 2.1243 1.7893 2.4821l24.778 8.2611c0.81469 0.26902 1.7106 0.1269 2.3958-0.38831l33.039-24.782c0.6548-0.48983 1.0456-1.2741 1.0456-2.0913v-57.815c0-0.0203-0.0051-0.08883-0.0076-0.11675 0-0.02538-0.01269-0.16751-0.01269-0.17004 0 0-0.02538-0.16497-0.02538-0.17512-0.0025-0.0025-0.01523-0.0939-0.01523-0.0939-0.0051-0.04061-0.0076-0.03807-0.0203-0.07868 0 0-0.05584-0.19796-0.05837-0.19796l-0.0533-0.1472c-0.0076-0.01777-0.08375-0.18527-0.08375-0.18527-0.0025-0.0051-0.07868-0.14974-0.07868-0.14974-0.01015-0.01777-0.10913-0.17004-0.10913-0.17004s-0.09898-0.13705-0.10152-0.13705l-0.09898-0.11928c-0.01269-0.01523-0.03046-0.03046-0.04314-0.04568l-0.09644-0.10152c-0.01015-0.0076-0.1269-0.10913-0.1269-0.10913-0.03553-0.02792-0.1472-0.11675-0.1472-0.11675-0.01523-0.01015-0.14974-0.09898-0.14974-0.09898-0.02284-0.01269-0.18273-0.10659-0.18273-0.10659-0.02538-0.01269-0.16497-0.07614-0.16497-0.07614-0.02792-0.01015-0.17004-0.06853-0.17004-0.06853 0.0025 0-0.19035-0.05837-0.19035-0.05837 0.0076 0.0025-0.13197-0.03553-0.13197-0.03553l-24.545-5.2764c-0.69033-0.14466-1.3933-0.01523-1.9822 0.37054zm-34.318 23.167m-0.08375 0.32994"/>
<path opacity=".2" d="m61.064-47.953c0-0.03807-0.0025-0.07868-0.0076-0.11421-0.0051-0.04315-0.01015-0.08375-0.01777-0.12436-0.0051-0.0203-0.0051-0.04061-0.01015-0.05837-0.0025-0.01523-0.01015-0.03299-0.01523-0.04822-0.01015-0.04061-0.02284-0.08122-0.03553-0.12182-0.01269-0.03553-0.02538-0.06853-0.03807-0.10406-0.01523-0.03807-0.03299-0.0736-0.0533-0.10913-0.01777-0.03299-0.03299-0.06599-0.0533-0.09898-0.0203-0.03299-0.04314-0.06599-0.06345-0.09898-0.0203-0.03045-0.04314-0.06091-0.06345-0.09137-0.02538-0.03045-0.0533-0.06091-0.07868-0.08883s-0.05076-0.05584-0.07614-0.08122c-0.02792-0.02792-0.05837-0.0533-0.08883-0.07614s-0.05837-0.05076-0.08883-0.07106c-0.03299-0.02284-0.06345-0.04315-0.09644-0.06345-0.03299-0.02538-0.06599-0.04568-0.10152-0.06345-0.0076-0.0051-0.01523-0.01015-0.02538-0.01523-0.02792-0.01269-0.0533-0.02284-0.08122-0.03299-0.03807-0.01523-0.07106-0.03299-0.10913-0.04568-0.04061-0.01523-0.08122-0.02538-0.1269-0.03807-0.02538-0.0076-0.05076-0.01777-0.07614-0.02284l-24.55-5.2764c-0.43653-0.0939-0.88829-0.0076-1.2614 0.23349l-33.268 21.799c-0.0076 0.0051-0.01523 0.01269-0.02284 0.01777-0.01269 0.0076-0.02538 0.01523-0.03807 0.02284-0.03045 0.0203-0.05837 0.04822-0.08883 0.07106-0.01523 0.01269-0.03553 0.02792-0.05076 0.04061-0.1066 0.09898-0.20304 0.20811-0.28172 0.3274-0.01269 0.01776-0.02284 0.04061-0.03299 0.05837-0.02538 0.04315-0.05076 0.08629-0.07106 0.12944-0.01015 0.02538-0.02284 0.05076-0.03299 0.0736-0.01777 0.04314-0.03553 0.08375-0.04822 0.1269-0.0076 0.02538-0.01776 0.0533-0.02538 0.07868-0.01269 0.04568-0.0203 0.08883-0.03046 0.13451-0.0051 0.02538-0.01015 0.0533-0.01523 0.07868-0.0076 0.05076-0.01015 0.10406-0.01269 0.15482 0 0.0203-0.0025 0.04061-0.0025 0.06091v0.01269 57.815c0 0.71571 0.45937 1.3527 1.137 1.5786l24.778 8.2586c0.51775 0.17258 1.0863 0.08122 1.5228-0.24618l33.042-24.782c0.41623-0.31471 0.66495-0.80707 0.66495-1.3299v-57.812c0-0.0203-0.0025-0.03807-0.0051-0.05837z"/>
<path d="m32.948-56.158-33.268 21.796c-0.01015 0.01015-0.1066 0.0736-0.1066 0.0736 0.0203-0.01269-0.11928 0.09644-0.11928 0.09644-0.04822 0.03807-0.04822 0.02792-0.08883 0.0736l-0.43907 0.51267c-0.04061 0.04822-0.02792 0.04061-0.05837 0.09644l-0.0051 0.0051c0.0051-0.0076-0.1066 0.19289-0.1066 0.19289-0.0051 0.01269-0.04568 0.10406-0.04568 0.10406-0.0025 0.01015-0.08122 0.21573-0.08122 0.21827l-0.03299 0.10406c-0.0051 0.0203-0.0533 0.22334-0.0533 0.22334l-0.02284 0.1269-0.01777 0.2538c0-0.02284-0.0051 0.0736-0.0051 0.0736v57.85c0 1.1269 0.71825 2.1243 1.7893 2.4821l24.778 8.2611c0.81469 0.26902 1.7106 0.12436 2.3958-0.38831l33.041-24.78c0.6548-0.49237 1.0456-1.2741 1.0456-2.0913v-57.82c0-0.01777-0.0051-0.08883-0.0076-0.11675 0-0.02538-0.01269-0.16751-0.01269-0.17004 0 0-0.02538-0.16497-0.02538-0.17512-0.0025-0.0025-0.01523-0.0939-0.01523-0.0939-0.0076-0.04061-0.01015-0.04061-0.02284-0.07868 0 0-0.05584-0.19796-0.05837-0.19796l-0.0533-0.14466c-0.0076-0.01777-0.08375-0.18527-0.08375-0.18527-0.0025-0.0025-0.07868-0.14974-0.07868-0.14974-0.01015-0.01523-0.10913-0.17004-0.10913-0.17004s-0.09898-0.13705-0.10152-0.13705l-0.09898-0.11928c-0.01269-0.01523-0.03046-0.03299-0.04315-0.04568l-0.09644-0.10152c-0.01015-0.0076-0.1269-0.11167-0.1269-0.11167-0.03553-0.02792-0.1472-0.11675-0.1472-0.11675-0.01523-0.01015-0.14974-0.09898-0.14974-0.09898-0.02284-0.01523-0.18273-0.1066-0.18273-0.1066-0.02538-0.01269-0.16497-0.07614-0.16497-0.07614-0.02792-0.01015-0.17004-0.06853-0.17004-0.06853 0.0025 0-0.19035-0.05584-0.19035-0.05584 0.0076 0.0025-0.13198-0.03553-0.13198-0.03553l-24.545-5.2764c-0.68779-0.1472-1.3933-0.01777-1.9822 0.36801zm-34.316 23.169m-0.08629 0.3274"/>
<path d="m60.589-48.752c0-0.03807-0.0025-0.07614-0.0076-0.11421-0.0051-0.04061-0.01015-0.08375-0.01776-0.12182-0.0051-0.0203-0.0051-0.04061-0.01015-0.05837-0.0025-0.01523-0.01015-0.03299-0.01523-0.04822-0.01015-0.04061-0.02284-0.08122-0.03553-0.12182-0.01269-0.03553-0.02538-0.06853-0.03807-0.10406-0.01523-0.03807-0.03299-0.0736-0.0533-0.10913-0.01776-0.03299-0.03299-0.06599-0.0533-0.09898-0.0203-0.03299-0.04315-0.06599-0.06345-0.09898-0.0203-0.03046-0.04315-0.06091-0.06345-0.09137-0.02538-0.03046-0.0533-0.05837-0.07868-0.08883-0.02538-0.02792-0.05076-0.0533-0.07614-0.08122-0.02792-0.02538-0.05837-0.05076-0.08883-0.07614-0.03046-0.02284-0.05837-0.04822-0.08883-0.07106-0.03299-0.02284-0.06345-0.04061-0.09644-0.06091-0.03553-0.0203-0.06599-0.04314-0.10406-0.06091-0.0076-0.0051-0.01523-0.01015-0.02538-0.01523-0.02792-0.01269-0.0533-0.02284-0.08122-0.03553-0.03807-0.01523-0.07106-0.03046-0.10913-0.04568-0.04061-0.01269-0.08122-0.02538-0.1269-0.03807-0.02538-0.0051-0.05076-0.01523-0.07614-0.02284l-24.55-5.2764c-0.43653-0.0939-0.88829-0.0076-1.2614 0.23603l-33.267 21.79c-0.0076 0.0051-0.01523 0.01269-0.02284 0.01777-0.01269 0.0076-0.02538 0.01523-0.03807 0.02284-0.03046 0.02284-0.05837 0.04822-0.08883 0.07106-0.01523 0.01269-0.03553 0.02538-0.05076 0.04061-0.10659 0.09898-0.20304 0.20811-0.28171 0.3274-0.01269 0.0203-0.02284 0.04061-0.03299 0.05837-0.02538 0.04315-0.05076 0.08375-0.07106 0.12944-0.01015 0.02284-0.02284 0.04822-0.03299 0.0736-0.01776 0.04314-0.03553 0.08375-0.04822 0.1269-0.0076 0.02538-0.01777 0.0533-0.02538 0.07868-0.01269 0.04315-0.0203 0.08883-0.03045 0.13451-0.0051 0.02538-0.01015 0.0533-0.01523 0.07868-0.0076 0.0533-0.01015 0.10406-0.01269 0.15735 0 0.0203-0.0025 0.04061-0.0025 0.06091v0.01015 57.817c0 0.71571 0.45937 1.3502 1.137 1.5786l24.778 8.2586c0.51775 0.17258 1.0863 0.07868 1.5228-0.24872l33.042-24.778c0.41623-0.31471 0.66495-0.80707 0.66495-1.3299v-57.815c0.0025-0.01777 0-0.03807-0.0025-0.05837z"/>
</g>
<g stroke-width=".18469">
<polygon transform="matrix(2.538,0,0,2.538,-30.176,-58.122)" points="22.091 13.479 35.109 3.715 35.109 26.496 22.091 36.26 12.329 33.005 12.329 10.224"/>
<polygon transform="matrix(2.538,0,0,2.538,-30.176,-58.122)" points="35.109 3.715 25.437 1.637 12.329 10.224 22.091 13.479"/>
<polygon transform="matrix(2.538,0,0,2.538,-30.176,-58.122)" points="12.329 10.224 12.329 33.005 22.091 36.26 22.091 13.479"/>
<polygon transform="matrix(2.538,0,0,2.538,-30.176,-58.122)" points="22.091 30.504 12.329 27.4 12.329 33.005 22.091 36.26"/>
<polygon transform="matrix(2.538,0,0,2.538,-30.176,-58.122)" points="13.806 14.451 13.806 16.165 20.093 18.261 20.093 16.546"/>
<polygon transform="matrix(2.538,0,0,2.538,-30.176,-58.122)" points="13.806 16.879 13.806 18.594 20.093 20.689 20.093 18.975"/>
<polygon transform="matrix(2.538,0,0,2.538,-30.176,-58.122)" points="13.806 19.308 13.806 21.023 20.093 23.118 20.093 21.404"/>
<g transform="matrix(2.538,0,0,2.538,-30.176,-58.122)">
<path d="m19.776 33.411c-0.453-0.121-0.808 0.097-0.808 0.497s0.355 0.809 0.808 0.93l0.48 0.129c0.454 0.122 0.809-0.097 0.809-0.497 0-0.399-0.355-0.809-0.809-0.93l-0.48-0.129z"/>
<path d="m19.776 33.603c-0.347-0.094-0.63 0.065-0.63 0.354s0.283 0.599 0.63 0.691l0.48 0.129c0.348 0.093 0.63-0.066 0.63-0.354s-0.282-0.598-0.63-0.69l-0.48-0.13z"/>
<path d="m20.828 34.406c0 0.254-0.256 0.391-0.571 0.306l-0.48-0.128c-0.315-0.085-0.57-0.358-0.57-0.612 0-0.253 0.255-0.39 0.57-0.306l0.48 0.129c0.315 0.085 0.571 0.358 0.571 0.611z"/>
<path d="m19.776 33.794c-0.245-0.065-0.451 0.038-0.451 0.226s0.207 0.402 0.451 0.469l0.48 0.129c0.245 0.065 0.452-0.038 0.452-0.227s-0.207-0.402-0.452-0.468l-0.48-0.129z"/>
<path d="m19.758 33.713c-0.202-0.054-0.358 0.037-0.358 0.151s0.156 0.289 0.358 0.343l0.518 0.139c0.205 0.056 0.358-0.034 0.358-0.15s-0.153-0.288-0.358-0.343l-0.518-0.14z"/>
</g>
</g>
</g>
<g transform="matrix(-.64 0 0 .64 -50.109 -142.26)">
<g stroke-width=".46875">
<path opacity=".2" d="m33.9-54.884-33.268 21.799c-0.01015 0.01015-0.1066 0.07106-0.1066 0.07106 0.0203-0.01269-0.11928 0.09644-0.11928 0.09644-0.04822 0.03807-0.04822 0.02792-0.08883 0.0736l-0.43907 0.51267c-0.04061 0.04822-0.02792 0.04061-0.05837 0.09644l-0.0025 0.0076c0.0051-0.01015-0.1066 0.19289-0.1066 0.19289-0.0051 0.01269-0.04568 0.10406-0.04568 0.10406-0.0025 0.01015-0.08121 0.21573-0.08121 0.21573l-0.03299 0.10406c-0.0051 0.0203-0.0533 0.22334-0.0533 0.22334l-0.02284 0.1269-0.0203 0.2538c0-0.02284-0.0051 0.0736-0.0051 0.0736v57.848c0 1.1269 0.71825 2.1243 1.7893 2.4821l24.778 8.2611c0.81469 0.26902 1.7106 0.1269 2.3958-0.38831l33.039-24.782c0.655-0.49 1.046-1.274 1.046-2.091v-57.815c0-0.0203-0.0051-0.08883-0.0076-0.11675 0-0.02538-0.01269-0.16751-0.01269-0.17004 0 0-0.02538-0.16497-0.02538-0.17512-0.0025-0.0025-0.01523-0.0939-0.01523-0.0939-0.0076-0.04061-0.01015-0.03807-0.02284-0.07868 0 0-0.05584-0.19796-0.05837-0.19796l-0.0533-0.1472c-0.0076-0.01776-0.08375-0.18527-0.08375-0.18527-0.0025-0.0051-0.07868-0.14974-0.07868-0.14974-0.01015-0.01777-0.10913-0.17004-0.10913-0.17004s-0.09898-0.13705-0.10152-0.13705l-0.09898-0.11928c-0.01269-0.01523-0.03046-0.03046-0.04315-0.04568l-0.09644-0.10152c-0.01015-0.0076-0.1269-0.10913-0.1269-0.10913-0.03299-0.02792-0.14466-0.11675-0.14466-0.11675-0.01523-0.01015-0.14974-0.09898-0.14974-0.09898-0.02284-0.01269-0.18273-0.1066-0.18273-0.1066-0.02538-0.01269-0.16497-0.07614-0.16497-0.07614-0.02792-0.01015-0.17004-0.06852-0.17004-0.06852 0.0025 0-0.19035-0.05837-0.19035-0.05837 0.0076 0.0025-0.13198-0.03553-0.13198-0.03553l-24.545-5.2764c-0.69033-0.1472-1.3959-0.01523-1.9847 0.36801zm-34.316 23.169m-0.08629 0.3274"/>
<path opacity=".2" d="m61.541-47.476c0-0.03807-0.0025-0.07868-0.0076-0.11421-0.0051-0.04315-0.01015-0.08375-0.01777-0.12436-0.0051-0.0203-0.0051-0.04061-0.01015-0.05837-0.0025-0.01523-0.01015-0.03299-0.01523-0.04822-0.01015-0.04061-0.02284-0.08122-0.03553-0.12182-0.01015-0.03553-0.02284-0.07106-0.03553-0.10406-0.01523-0.03807-0.03299-0.0736-0.0533-0.10913-0.01777-0.03299-0.03299-0.06599-0.0533-0.09898-0.0203-0.03299-0.04315-0.06599-0.06345-0.09898-0.0203-0.03046-0.04315-0.06091-0.06345-0.09137-0.02538-0.03046-0.0533-0.06091-0.07868-0.08883s-0.05076-0.05584-0.07614-0.08122c-0.02792-0.02792-0.05837-0.0533-0.08883-0.07614s-0.05837-0.05076-0.08883-0.07106c-0.03299-0.02284-0.06345-0.04315-0.09644-0.06345-0.03553-0.0203-0.06599-0.04315-0.10406-0.05837-0.0076-0.0051-0.01523-0.01015-0.02538-0.01523-0.02792-0.01269-0.0533-0.02284-0.08122-0.03299-0.03807-0.01523-0.07106-0.03299-0.10913-0.04568-0.04061-0.01523-0.08122-0.02538-0.1269-0.03807-0.02538-0.0076-0.05076-0.01777-0.07614-0.02284l-24.55-5.276c-0.43653-0.0939-0.88829-0.0076-1.2614 0.23349l-33.268 21.796c-0.0076 0.0051-0.01523 0.01269-0.02284 0.01776-0.01269 0.0076-0.02538 0.01523-0.03807 0.02284-0.03046 0.0203-0.05837 0.04822-0.08883 0.07106-0.01523 0.01269-0.03553 0.02792-0.05076 0.04061-0.10659 0.09898-0.20304 0.20811-0.28171 0.3274-0.01269 0.01777-0.02284 0.04061-0.03299 0.05837-0.02538 0.04315-0.05076 0.08629-0.07106 0.12944-0.01015 0.02538-0.02284 0.05076-0.03299 0.0736-0.01777 0.04314-0.03553 0.08375-0.04822 0.1269-0.0076 0.02538-0.01777 0.0533-0.02538 0.07868-0.01269 0.04568-0.0203 0.08883-0.03046 0.13451-0.0051 0.02538-0.01015 0.0533-0.01523 0.07868-0.0076 0.05076-0.01015 0.10406-0.01269 0.15482 0 0.0203-0.0025 0.04061-0.0025 0.06091v0.01269 57.815c0 0.71571 0.45937 1.3527 1.137 1.5786l24.778 8.2586c0.51775 0.17258 1.0863 0.08122 1.5228-0.24618l33.042-24.781c0.41623-0.31471 0.66495-0.80708 0.66495-1.3299v-57.815c0-0.0203-0.0025-0.03807-0.0051-0.05837z"/>
<path opacity=".2" d="m33.426-55.358-33.271 21.796c-0.01015 0.01015-0.1066 0.07106-0.1066 0.07106 0.0203-0.01269-0.11928 0.09644-0.11928 0.09644-0.04822 0.03807-0.04822 0.02792-0.08883 0.0736l-0.43907 0.51267c-0.04061 0.04822-0.02792 0.04061-0.05837 0.09644l-0.0025 0.0076c0.0051-0.01015-0.1066 0.19289-0.1066 0.19289-0.0051 0.01269-0.04568 0.10406-0.04568 0.10406-0.0025 0.01015-0.08121 0.21573-0.08121 0.21573l-0.03299 0.10406c-0.0051 0.0203-0.0533 0.22334-0.0533 0.22334l-0.02284 0.1269-0.0203 0.2538c0-0.02284-0.0051 0.0736-0.0051 0.0736v57.848c0 1.1269 0.71825 2.1243 1.7893 2.4821l24.778 8.2611c0.81469 0.26902 1.7106 0.1269 2.3958-0.38831l33.039-24.782c0.6548-0.48983 1.0456-1.2741 1.0456-2.0913v-57.815c0-0.0203-0.0051-0.08883-0.0076-0.11675 0-0.02538-0.01269-0.16751-0.01269-0.17004 0 0-0.02538-0.16497-0.02538-0.17512-0.0025-0.0025-0.01523-0.0939-0.01523-0.0939-0.0051-0.04061-0.0076-0.03807-0.0203-0.07868 0 0-0.05584-0.19796-0.05837-0.19796l-0.0533-0.1472c-0.0076-0.01777-0.08375-0.18527-0.08375-0.18527-0.0025-0.0051-0.07868-0.14974-0.07868-0.14974-0.01015-0.01777-0.10913-0.17004-0.10913-0.17004s-0.09898-0.13705-0.10152-0.13705l-0.09898-0.11928c-0.01269-0.01523-0.03046-0.03046-0.04314-0.04568l-0.09644-0.10152c-0.01015-0.0076-0.1269-0.10913-0.1269-0.10913-0.03553-0.02792-0.1472-0.11675-0.1472-0.11675-0.01523-0.01015-0.14974-0.09898-0.14974-0.09898-0.02284-0.01269-0.18273-0.10659-0.18273-0.10659-0.02538-0.01269-0.16497-0.07614-0.16497-0.07614-0.02792-0.01015-0.17004-0.06853-0.17004-0.06853 0.0025 0-0.19035-0.05837-0.19035-0.05837 0.0076 0.0025-0.13197-0.03553-0.13197-0.03553l-24.545-5.2764c-0.69033-0.14466-1.3933-0.01523-1.9822 0.37054zm-34.318 23.167m-0.08375 0.32994"/>
<path opacity=".2" d="m61.064-47.953c0-0.03807-0.0025-0.07868-0.0076-0.11421-0.0051-0.04315-0.01015-0.08375-0.01777-0.12436-0.0051-0.0203-0.0051-0.04061-0.01015-0.05837-0.0025-0.01523-0.01015-0.03299-0.01523-0.04822-0.01015-0.04061-0.02284-0.08122-0.03553-0.12182-0.01269-0.03553-0.02538-0.06853-0.03807-0.10406-0.01523-0.03807-0.03299-0.0736-0.0533-0.10913-0.01777-0.03299-0.03299-0.06599-0.0533-0.09898-0.0203-0.03299-0.04314-0.06599-0.06345-0.09898-0.0203-0.03045-0.04314-0.06091-0.06345-0.09137-0.02538-0.03045-0.0533-0.06091-0.07868-0.08883s-0.05076-0.05584-0.07614-0.08122c-0.02792-0.02792-0.05837-0.0533-0.08883-0.07614s-0.05837-0.05076-0.08883-0.07106c-0.03299-0.02284-0.06345-0.04315-0.09644-0.06345-0.03299-0.02538-0.06599-0.04568-0.10152-0.06345-0.0076-0.0051-0.01523-0.01015-0.02538-0.01523-0.02792-0.01269-0.0533-0.02284-0.08122-0.03299-0.03807-0.01523-0.07106-0.03299-0.10913-0.04568-0.04061-0.01523-0.08122-0.02538-0.1269-0.03807-0.02538-0.0076-0.05076-0.01777-0.07614-0.02284l-24.55-5.2764c-0.43653-0.0939-0.88829-0.0076-1.2614 0.23349l-33.268 21.799c-0.0076 0.0051-0.01523 0.01269-0.02284 0.01777-0.01269 0.0076-0.02538 0.01523-0.03807 0.02284-0.03045 0.0203-0.05837 0.04822-0.08883 0.07106-0.01523 0.01269-0.03553 0.02792-0.05076 0.04061-0.1066 0.09898-0.20304 0.20811-0.28172 0.3274-0.01269 0.01776-0.02284 0.04061-0.03299 0.05837-0.02538 0.04315-0.05076 0.08629-0.07106 0.12944-0.01015 0.02538-0.02284 0.05076-0.03299 0.0736-0.01777 0.04314-0.03553 0.08375-0.04822 0.1269-0.0076 0.02538-0.01776 0.0533-0.02538 0.07868-0.01269 0.04568-0.0203 0.08883-0.03046 0.13451-0.0051 0.02538-0.01015 0.0533-0.01523 0.07868-0.0076 0.05076-0.01015 0.10406-0.01269 0.15482 0 0.0203-0.0025 0.04061-0.0025 0.06091v0.01269 57.815c0 0.71571 0.45937 1.3527 1.137 1.5786l24.778 8.2586c0.51775 0.17258 1.0863 0.08122 1.5228-0.24618l33.042-24.782c0.41623-0.31471 0.66495-0.80707 0.66495-1.3299v-57.812c0-0.0203-0.0025-0.03807-0.0051-0.05837z"/>
<path d="m32.948-56.158-33.268 21.796c-0.01015 0.01015-0.1066 0.0736-0.1066 0.0736 0.0203-0.01269-0.11928 0.09644-0.11928 0.09644-0.04822 0.03807-0.04822 0.02792-0.08883 0.0736l-0.43907 0.51267c-0.04061 0.04822-0.02792 0.04061-0.05837 0.09644l-0.0051 0.0051c0.0051-0.0076-0.1066 0.19289-0.1066 0.19289-0.0051 0.01269-0.04568 0.10406-0.04568 0.10406-0.0025 0.01015-0.08122 0.21573-0.08122 0.21827l-0.03299 0.10406c-0.0051 0.0203-0.0533 0.22334-0.0533 0.22334l-0.02284 0.1269-0.01777 0.2538c0-0.02284-0.0051 0.0736-0.0051 0.0736v57.85c0 1.1269 0.71825 2.1243 1.7893 2.4821l24.778 8.2611c0.81469 0.26902 1.7106 0.12436 2.3958-0.38831l33.041-24.78c0.6548-0.49237 1.0456-1.2741 1.0456-2.0913v-57.82c0-0.01777-0.0051-0.08883-0.0076-0.11675 0-0.02538-0.01269-0.16751-0.01269-0.17004 0 0-0.02538-0.16497-0.02538-0.17512-0.0025-0.0025-0.01523-0.0939-0.01523-0.0939-0.0076-0.04061-0.01015-0.04061-0.02284-0.07868 0 0-0.05584-0.19796-0.05837-0.19796l-0.0533-0.14466c-0.0076-0.01777-0.08375-0.18527-0.08375-0.18527-0.0025-0.0025-0.07868-0.14974-0.07868-0.14974-0.01015-0.01523-0.10913-0.17004-0.10913-0.17004s-0.09898-0.13705-0.10152-0.13705l-0.09898-0.11928c-0.01269-0.01523-0.03046-0.03299-0.04315-0.04568l-0.09644-0.10152c-0.01015-0.0076-0.1269-0.11167-0.1269-0.11167-0.03553-0.02792-0.1472-0.11675-0.1472-0.11675-0.01523-0.01015-0.14974-0.09898-0.14974-0.09898-0.02284-0.01523-0.18273-0.1066-0.18273-0.1066-0.02538-0.01269-0.16497-0.07614-0.16497-0.07614-0.02792-0.01015-0.17004-0.06853-0.17004-0.06853 0.0025 0-0.19035-0.05584-0.19035-0.05584 0.0076 0.0025-0.13198-0.03553-0.13198-0.03553l-24.545-5.2764c-0.68779-0.1472-1.3933-0.01777-1.9822 0.36801zm-34.316 23.169m-0.08629 0.3274"/>
<path d="m60.589-48.752c0-0.03807-0.0025-0.07614-0.0076-0.11421-0.0051-0.04061-0.01015-0.08375-0.01776-0.12182-0.0051-0.0203-0.0051-0.04061-0.01015-0.05837-0.0025-0.01523-0.01015-0.03299-0.01523-0.04822-0.01015-0.04061-0.02284-0.08122-0.03553-0.12182-0.01269-0.03553-0.02538-0.06853-0.03807-0.10406-0.01523-0.03807-0.03299-0.0736-0.0533-0.10913-0.01776-0.03299-0.03299-0.06599-0.0533-0.09898-0.0203-0.03299-0.04315-0.06599-0.06345-0.09898-0.0203-0.03046-0.04315-0.06091-0.06345-0.09137-0.02538-0.03046-0.0533-0.05837-0.07868-0.08883-0.02538-0.02792-0.05076-0.0533-0.07614-0.08122-0.02792-0.02538-0.05837-0.05076-0.08883-0.07614-0.03046-0.02284-0.05837-0.04822-0.08883-0.07106-0.03299-0.02284-0.06345-0.04061-0.09644-0.06091-0.03553-0.0203-0.06599-0.04314-0.10406-0.06091-0.0076-0.0051-0.01523-0.01015-0.02538-0.01523-0.02792-0.01269-0.0533-0.02284-0.08122-0.03553-0.03807-0.01523-0.07106-0.03046-0.10913-0.04568-0.04061-0.01269-0.08122-0.02538-0.1269-0.03807-0.02538-0.0051-0.05076-0.01523-0.07614-0.02284l-24.55-5.2764c-0.43653-0.0939-0.88829-0.0076-1.2614 0.23603l-33.267 21.79c-0.0076 0.0051-0.01523 0.01269-0.02284 0.01777-0.01269 0.0076-0.02538 0.01523-0.03807 0.02284-0.03046 0.02284-0.05837 0.04822-0.08883 0.07106-0.01523 0.01269-0.03553 0.02538-0.05076 0.04061-0.10659 0.09898-0.20304 0.20811-0.28171 0.3274-0.01269 0.0203-0.02284 0.04061-0.03299 0.05837-0.02538 0.04315-0.05076 0.08375-0.07106 0.12944-0.01015 0.02284-0.02284 0.04822-0.03299 0.0736-0.01776 0.04314-0.03553 0.08375-0.04822 0.1269-0.0076 0.02538-0.01777 0.0533-0.02538 0.07868-0.01269 0.04315-0.0203 0.08883-0.03045 0.13451-0.0051 0.02538-0.01015 0.0533-0.01523 0.07868-0.0076 0.0533-0.01015 0.10406-0.01269 0.15735 0 0.0203-0.0025 0.04061-0.0025 0.06091v0.01015 57.817c0 0.71571 0.45937 1.3502 1.137 1.5786l24.778 8.2586c0.51775 0.17258 1.0863 0.07868 1.5228-0.24872l33.042-24.778c0.41623-0.31471 0.66495-0.80707 0.66495-1.3299v-57.815c0.0025-0.01777 0-0.03807-0.0025-0.05837z"/>
</g>
<g stroke-width=".18469">
<polygon transform="matrix(2.538,0,0,2.538,-30.176,-58.122)" points="22.091 13.479 35.109 3.715 35.109 26.496 22.091 36.26 12.329 33.005 12.329 10.224"/>
<polygon transform="matrix(2.538,0,0,2.538,-30.176,-58.122)" points="12.329 10.224 22.091 13.479 35.109 3.715 25.437 1.637"/>
<polygon transform="matrix(2.538,0,0,2.538,-30.176,-58.122)" points="22.091 36.26 22.091 13.479 12.329 10.224 12.329 33.005"/>
<polygon transform="matrix(2.538,0,0,2.538,-30.176,-58.122)" points="12.329 33.005 22.091 36.26 22.091 30.504 12.329 27.4"/>
<polygon transform="matrix(2.538,0,0,2.538,-30.176,-58.122)" points="20.093 18.261 20.093 16.546 13.806 14.451 13.806 16.165"/>
<polygon transform="matrix(2.538,0,0,2.538,-30.176,-58.122)" points="20.093 20.689 20.093 18.975 13.806 16.879 13.806 18.594"/>
<polygon transform="matrix(2.538,0,0,2.538,-30.176,-58.122)" points="20.093 23.118 20.093 21.404 13.806 19.308 13.806 21.023"/>
<g transform="matrix(2.538,0,0,2.538,-30.176,-58.122)">
<path d="m19.776 33.411c-0.453-0.121-0.808 0.097-0.808 0.497s0.355 0.809 0.808 0.93l0.48 0.129c0.454 0.122 0.809-0.097 0.809-0.497 0-0.399-0.355-0.809-0.809-0.93l-0.48-0.129z"/>
<path d="m19.776 33.603c-0.347-0.094-0.63 0.065-0.63 0.354s0.283 0.599 0.63 0.691l0.48 0.129c0.348 0.093 0.63-0.066 0.63-0.354s-0.282-0.598-0.63-0.69l-0.48-0.13z"/>
<path d="m20.828 34.406c0 0.254-0.256 0.391-0.571 0.306l-0.48-0.128c-0.315-0.085-0.57-0.358-0.57-0.612 0-0.253 0.255-0.39 0.57-0.306l0.48 0.129c0.315 0.085 0.571 0.358 0.571 0.611z"/>
<path d="m19.776 33.794c-0.245-0.065-0.451 0.038-0.451 0.226s0.207 0.402 0.451 0.469l0.48 0.129c0.245 0.065 0.452-0.038 0.452-0.227s-0.207-0.402-0.452-0.468l-0.48-0.129z"/>
<path d="m19.758 33.713c-0.202-0.054-0.358 0.037-0.358 0.151s0.156 0.289 0.358 0.343l0.518 0.139c0.205 0.056 0.358-0.034 0.358-0.15s-0.153-0.288-0.358-0.343l-0.518-0.14z"/>
</g>
</g>
</g>
</g>
<g transform="matrix(-.64215 0 0 .63999 -50.104 -235.63)">
<g stroke-width=".46797">
<path opacity=".2" d="m33.9-54.884-33.268 21.799c-0.01015 0.01015-0.1066 0.07106-0.1066 0.07106 0.0203-0.01269-0.11928 0.09644-0.11928 0.09644-0.04822 0.03807-0.04822 0.02792-0.08883 0.0736l-0.43907 0.51267c-0.04061 0.04822-0.02792 0.04061-0.05837 0.09644l-0.0025 0.0076c0.0051-0.01015-0.1066 0.19289-0.1066 0.19289-0.0051 0.01269-0.04568 0.10406-0.04568 0.10406-0.0025 0.01015-0.08121 0.21573-0.08121 0.21573l-0.03299 0.10406c-0.0051 0.0203-0.0533 0.22334-0.0533 0.22334l-0.02284 0.1269-0.0203 0.2538c0-0.02284-0.0051 0.0736-0.0051 0.0736v57.848c0 1.1269 0.71825 2.1243 1.7893 2.4821l24.778 8.2611c0.81469 0.26902 1.7106 0.1269 2.3958-0.38831l33.039-24.782c0.655-0.49 1.046-1.274 1.046-2.091v-57.815c0-0.0203-0.0051-0.08883-0.0076-0.11675 0-0.02538-0.01269-0.16751-0.01269-0.17004 0 0-0.02538-0.16497-0.02538-0.17512-0.0025-0.0025-0.01523-0.0939-0.01523-0.0939-0.0076-0.04061-0.01015-0.03807-0.02284-0.07868 0 0-0.05584-0.19796-0.05837-0.19796l-0.0533-0.1472c-0.0076-0.01776-0.08375-0.18527-0.08375-0.18527-0.0025-0.0051-0.07868-0.14974-0.07868-0.14974-0.01015-0.01777-0.10913-0.17004-0.10913-0.17004s-0.09898-0.13705-0.10152-0.13705l-0.09898-0.11928c-0.01269-0.01523-0.03046-0.03046-0.04315-0.04568l-0.09644-0.10152c-0.01015-0.0076-0.1269-0.10913-0.1269-0.10913-0.03299-0.02792-0.14466-0.11675-0.14466-0.11675-0.01523-0.01015-0.14974-0.09898-0.14974-0.09898-0.02284-0.01269-0.18273-0.1066-0.18273-0.1066-0.02538-0.01269-0.16497-0.07614-0.16497-0.07614-0.02792-0.01015-0.17004-0.06852-0.17004-0.06852 0.0025 0-0.19035-0.05837-0.19035-0.05837 0.0076 0.0025-0.13198-0.03553-0.13198-0.03553l-24.545-5.2764c-0.69033-0.1472-1.3959-0.01523-1.9847 0.36801zm-34.316 23.169m-0.08629 0.3274"/>
<path opacity=".2" d="m61.541-47.476c0-0.03807-0.0025-0.07868-0.0076-0.11421-0.0051-0.04315-0.01015-0.08375-0.01777-0.12436-0.0051-0.0203-0.0051-0.04061-0.01015-0.05837-0.0025-0.01523-0.01015-0.03299-0.01523-0.04822-0.01015-0.04061-0.02284-0.08122-0.03553-0.12182-0.01015-0.03553-0.02284-0.07106-0.03553-0.10406-0.01523-0.03807-0.03299-0.0736-0.0533-0.10913-0.01777-0.03299-0.03299-0.06599-0.0533-0.09898-0.0203-0.03299-0.04315-0.06599-0.06345-0.09898-0.0203-0.03046-0.04315-0.06091-0.06345-0.09137-0.02538-0.03046-0.0533-0.06091-0.07868-0.08883s-0.05076-0.05584-0.07614-0.08122c-0.02792-0.02792-0.05837-0.0533-0.08883-0.07614s-0.05837-0.05076-0.08883-0.07106c-0.03299-0.02284-0.06345-0.04315-0.09644-0.06345-0.03553-0.0203-0.06599-0.04315-0.10406-0.05837-0.0076-0.0051-0.01523-0.01015-0.02538-0.01523-0.02792-0.01269-0.0533-0.02284-0.08122-0.03299-0.03807-0.01523-0.07106-0.03299-0.10913-0.04568-0.04061-0.01523-0.08122-0.02538-0.1269-0.03807-0.02538-0.0076-0.05076-0.01777-0.07614-0.02284l-24.55-5.276c-0.43653-0.0939-0.88829-0.0076-1.2614 0.23349l-33.268 21.796c-0.0076 0.0051-0.01523 0.01269-0.02284 0.01776-0.01269 0.0076-0.02538 0.01523-0.03807 0.02284-0.03046 0.0203-0.05837 0.04822-0.08883 0.07106-0.01523 0.01269-0.03553 0.02792-0.05076 0.04061-0.10659 0.09898-0.20304 0.20811-0.28171 0.3274-0.01269 0.01777-0.02284 0.04061-0.03299 0.05837-0.02538 0.04315-0.05076 0.08629-0.07106 0.12944-0.01015 0.02538-0.02284 0.05076-0.03299 0.0736-0.01777 0.04314-0.03553 0.08375-0.04822 0.1269-0.0076 0.02538-0.01777 0.0533-0.02538 0.07868-0.01269 0.04568-0.0203 0.08883-0.03046 0.13451-0.0051 0.02538-0.01015 0.0533-0.01523 0.07868-0.0076 0.05076-0.01015 0.10406-0.01269 0.15482 0 0.0203-0.0025 0.04061-0.0025 0.06091v0.01269 57.815c0 0.71571 0.45937 1.3527 1.137 1.5786l24.778 8.2586c0.51775 0.17258 1.0863 0.08122 1.5228-0.24618l33.042-24.781c0.41623-0.31471 0.66495-0.80708 0.66495-1.3299v-57.815c0-0.0203-0.0025-0.03807-0.0051-0.05837z"/>
<path opacity=".2" d="m33.426-55.358-33.271 21.796c-0.01015 0.01015-0.1066 0.07106-0.1066 0.07106 0.0203-0.01269-0.11928 0.09644-0.11928 0.09644-0.04822 0.03807-0.04822 0.02792-0.08883 0.0736l-0.43907 0.51267c-0.04061 0.04822-0.02792 0.04061-0.05837 0.09644l-0.0025 0.0076c0.0051-0.01015-0.1066 0.19289-0.1066 0.19289-0.0051 0.01269-0.04568 0.10406-0.04568 0.10406-0.0025 0.01015-0.08121 0.21573-0.08121 0.21573l-0.03299 0.10406c-0.0051 0.0203-0.0533 0.22334-0.0533 0.22334l-0.02284 0.1269-0.0203 0.2538c0-0.02284-0.0051 0.0736-0.0051 0.0736v57.848c0 1.1269 0.71825 2.1243 1.7893 2.4821l24.778 8.2611c0.81469 0.26902 1.7106 0.1269 2.3958-0.38831l33.039-24.782c0.6548-0.48983 1.0456-1.2741 1.0456-2.0913v-57.815c0-0.0203-0.0051-0.08883-0.0076-0.11675 0-0.02538-0.01269-0.16751-0.01269-0.17004 0 0-0.02538-0.16497-0.02538-0.17512-0.0025-0.0025-0.01523-0.0939-0.01523-0.0939-0.0051-0.04061-0.0076-0.03807-0.0203-0.07868 0 0-0.05584-0.19796-0.05837-0.19796l-0.0533-0.1472c-0.0076-0.01777-0.08375-0.18527-0.08375-0.18527-0.0025-0.0051-0.07868-0.14974-0.07868-0.14974-0.01015-0.01777-0.10913-0.17004-0.10913-0.17004s-0.09898-0.13705-0.10152-0.13705l-0.09898-0.11928c-0.01269-0.01523-0.03046-0.03046-0.04314-0.04568l-0.09644-0.10152c-0.01015-0.0076-0.1269-0.10913-0.1269-0.10913-0.03553-0.02792-0.1472-0.11675-0.1472-0.11675-0.01523-0.01015-0.14974-0.09898-0.14974-0.09898-0.02284-0.01269-0.18273-0.10659-0.18273-0.10659-0.02538-0.01269-0.16497-0.07614-0.16497-0.07614-0.02792-0.01015-0.17004-0.06853-0.17004-0.06853 0.0025 0-0.19035-0.05837-0.19035-0.05837 0.0076 0.0025-0.13197-0.03553-0.13197-0.03553l-24.545-5.2764c-0.69033-0.14466-1.3933-0.01523-1.9822 0.37054zm-34.318 23.167m-0.08375 0.32994"/>
<path opacity=".2" d="m61.064-47.953c0-0.03807-0.0025-0.07868-0.0076-0.11421-0.0051-0.04315-0.01015-0.08375-0.01777-0.12436-0.0051-0.0203-0.0051-0.04061-0.01015-0.05837-0.0025-0.01523-0.01015-0.03299-0.01523-0.04822-0.01015-0.04061-0.02284-0.08122-0.03553-0.12182-0.01269-0.03553-0.02538-0.06853-0.03807-0.10406-0.01523-0.03807-0.03299-0.0736-0.0533-0.10913-0.01777-0.03299-0.03299-0.06599-0.0533-0.09898-0.0203-0.03299-0.04314-0.06599-0.06345-0.09898-0.0203-0.03045-0.04314-0.06091-0.06345-0.09137-0.02538-0.03045-0.0533-0.06091-0.07868-0.08883s-0.05076-0.05584-0.07614-0.08122c-0.02792-0.02792-0.05837-0.0533-0.08883-0.07614s-0.05837-0.05076-0.08883-0.07106c-0.03299-0.02284-0.06345-0.04315-0.09644-0.06345-0.03299-0.02538-0.06599-0.04568-0.10152-0.06345-0.0076-0.0051-0.01523-0.01015-0.02538-0.01523-0.02792-0.01269-0.0533-0.02284-0.08122-0.03299-0.03807-0.01523-0.07106-0.03299-0.10913-0.04568-0.04061-0.01523-0.08122-0.02538-0.1269-0.03807-0.02538-0.0076-0.05076-0.01777-0.07614-0.02284l-24.55-5.2764c-0.43653-0.0939-0.88829-0.0076-1.2614 0.23349l-33.268 21.799c-0.0076 0.0051-0.01523 0.01269-0.02284 0.01777-0.01269 0.0076-0.02538 0.01523-0.03807 0.02284-0.03045 0.0203-0.05837 0.04822-0.08883 0.07106-0.01523 0.01269-0.03553 0.02792-0.05076 0.04061-0.1066 0.09898-0.20304 0.20811-0.28172 0.3274-0.01269 0.01776-0.02284 0.04061-0.03299 0.05837-0.02538 0.04315-0.05076 0.08629-0.07106 0.12944-0.01015 0.02538-0.02284 0.05076-0.03299 0.0736-0.01777 0.04314-0.03553 0.08375-0.04822 0.1269-0.0076 0.02538-0.01776 0.0533-0.02538 0.07868-0.01269 0.04568-0.0203 0.08883-0.03046 0.13451-0.0051 0.02538-0.01015 0.0533-0.01523 0.07868-0.0076 0.05076-0.01015 0.10406-0.01269 0.15482 0 0.0203-0.0025 0.04061-0.0025 0.06091v0.01269 57.815c0 0.71571 0.45937 1.3527 1.137 1.5786l24.778 8.2586c0.51775 0.17258 1.0863 0.08122 1.5228-0.24618l33.042-24.782c0.41623-0.31471 0.66495-0.80707 0.66495-1.3299v-57.812c0-0.0203-0.0025-0.03807-0.0051-0.05837z"/>
<path d="m32.948-56.158-33.268 21.796c-0.01015 0.01015-0.1066 0.0736-0.1066 0.0736 0.0203-0.01269-0.11928 0.09644-0.11928 0.09644-0.04822 0.03807-0.04822 0.02792-0.08883 0.0736l-0.43907 0.51267c-0.04061 0.04822-0.02792 0.04061-0.05837 0.09644l-0.0051 0.0051c0.0051-0.0076-0.1066 0.19289-0.1066 0.19289-0.0051 0.01269-0.04568 0.10406-0.04568 0.10406-0.0025 0.01015-0.08122 0.21573-0.08122 0.21827l-0.03299 0.10406c-0.0051 0.0203-0.0533 0.22334-0.0533 0.22334l-0.02284 0.1269-0.01777 0.2538c0-0.02284-0.0051 0.0736-0.0051 0.0736v57.85c0 1.1269 0.71825 2.1243 1.7893 2.4821l24.778 8.2611c0.81469 0.26902 1.7106 0.12436 2.3958-0.38831l33.041-24.78c0.6548-0.49237 1.0456-1.2741 1.0456-2.0913v-57.82c0-0.01777-0.0051-0.08883-0.0076-0.11675 0-0.02538-0.01269-0.16751-0.01269-0.17004 0 0-0.02538-0.16497-0.02538-0.17512-0.0025-0.0025-0.01523-0.0939-0.01523-0.0939-0.0076-0.04061-0.01015-0.04061-0.02284-0.07868 0 0-0.05584-0.19796-0.05837-0.19796l-0.0533-0.14466c-0.0076-0.01777-0.08375-0.18527-0.08375-0.18527-0.0025-0.0025-0.07868-0.14974-0.07868-0.14974-0.01015-0.01523-0.10913-0.17004-0.10913-0.17004s-0.09898-0.13705-0.10152-0.13705l-0.09898-0.11928c-0.01269-0.01523-0.03046-0.03299-0.04315-0.04568l-0.09644-0.10152c-0.01015-0.0076-0.1269-0.11167-0.1269-0.11167-0.03553-0.02792-0.1472-0.11675-0.1472-0.11675-0.01523-0.01015-0.14974-0.09898-0.14974-0.09898-0.02284-0.01523-0.18273-0.1066-0.18273-0.1066-0.02538-0.01269-0.16497-0.07614-0.16497-0.07614-0.02792-0.01015-0.17004-0.06853-0.17004-0.06853 0.0025 0-0.19035-0.05584-0.19035-0.05584 0.0076 0.0025-0.13198-0.03553-0.13198-0.03553l-24.545-5.2764c-0.68779-0.1472-1.3933-0.01777-1.9822 0.36801zm-34.316 23.169m-0.08629 0.3274"/>
<path d="m60.589-48.752c0-0.03807-0.0025-0.07614-0.0076-0.11421-0.0051-0.04061-0.01015-0.08375-0.01776-0.12182-0.0051-0.0203-0.0051-0.04061-0.01015-0.05837-0.0025-0.01523-0.01015-0.03299-0.01523-0.04822-0.01015-0.04061-0.02284-0.08122-0.03553-0.12182-0.01269-0.03553-0.02538-0.06853-0.03807-0.10406-0.01523-0.03807-0.03299-0.0736-0.0533-0.10913-0.01776-0.03299-0.03299-0.06599-0.0533-0.09898-0.0203-0.03299-0.04315-0.06599-0.06345-0.09898-0.0203-0.03046-0.04315-0.06091-0.06345-0.09137-0.02538-0.03046-0.0533-0.05837-0.07868-0.08883-0.02538-0.02792-0.05076-0.0533-0.07614-0.08122-0.02792-0.02538-0.05837-0.05076-0.08883-0.07614-0.03046-0.02284-0.05837-0.04822-0.08883-0.07106-0.03299-0.02284-0.06345-0.04061-0.09644-0.06091-0.03553-0.0203-0.06599-0.04314-0.10406-0.06091-0.0076-0.0051-0.01523-0.01015-0.02538-0.01523-0.02792-0.01269-0.0533-0.02284-0.08122-0.03553-0.03807-0.01523-0.07106-0.03046-0.10913-0.04568-0.04061-0.01269-0.08122-0.02538-0.1269-0.03807-0.02538-0.0051-0.05076-0.01523-0.07614-0.02284l-24.55-5.2764c-0.43653-0.0939-0.88829-0.0076-1.2614 0.23603l-33.267 21.79c-0.0076 0.0051-0.01523 0.01269-0.02284 0.01777-0.01269 0.0076-0.02538 0.01523-0.03807 0.02284-0.03046 0.02284-0.05837 0.04822-0.08883 0.07106-0.01523 0.01269-0.03553 0.02538-0.05076 0.04061-0.10659 0.09898-0.20304 0.20811-0.28171 0.3274-0.01269 0.0203-0.02284 0.04061-0.03299 0.05837-0.02538 0.04315-0.05076 0.08375-0.07106 0.12944-0.01015 0.02284-0.02284 0.04822-0.03299 0.0736-0.01776 0.04314-0.03553 0.08375-0.04822 0.1269-0.0076 0.02538-0.01777 0.0533-0.02538 0.07868-0.01269 0.04315-0.0203 0.08883-0.03045 0.13451-0.0051 0.02538-0.01015 0.0533-0.01523 0.07868-0.0076 0.0533-0.01015 0.10406-0.01269 0.15735 0 0.0203-0.0025 0.04061-0.0025 0.06091v0.01015 57.817c0 0.71571 0.45937 1.3502 1.137 1.5786l24.778 8.2586c0.51775 0.17258 1.0863 0.07868 1.5228-0.24872l33.042-24.778c0.41623-0.31471 0.66495-0.80707 0.66495-1.3299v-57.815c0.0025-0.01777 0-0.03807-0.0025-0.05837z"/>
</g>
<g stroke-width=".18438">
<polygon transform="matrix(2.538,0,0,2.538,-30.176,-58.122)" points="22.091 36.26 12.329 33.005 12.329 10.224 22.091 13.479 35.109 3.715 35.109 26.496"/>
<polygon transform="matrix(2.538,0,0,2.538,-30.176,-58.122)" points="25.437 1.637 12.329 10.224 22.091 13.479 35.109 3.715"/>
<polygon transform="matrix(2.538,0,0,2.538,-30.176,-58.122)" points="12.329 33.005 22.091 36.26 22.091 13.479 12.329 10.224"/>
<polygon transform="matrix(2.538,0,0,2.538,-30.176,-58.122)" points="12.329 27.4 12.329 33.005 22.091 36.26 22.091 30.504"/>
<polygon transform="matrix(2.538,0,0,2.538,-30.176,-58.122)" points="13.806 16.165 20.093 18.261 20.093 16.546 13.806 14.451"/>
<polygon transform="matrix(2.538,0,0,2.538,-30.176,-58.122)" points="13.806 18.594 20.093 20.689 20.093 18.975 13.806 16.879"/>
<polygon transform="matrix(2.538,0,0,2.538,-30.176,-58.122)" points="13.806 21.023 20.093 23.118 20.093 21.404 13.806 19.308"/>
<g transform="matrix(2.538,0,0,2.538,-30.176,-58.122)">
<path d="m19.776 33.411c-0.453-0.121-0.808 0.097-0.808 0.497s0.355 0.809 0.808 0.93l0.48 0.129c0.454 0.122 0.809-0.097 0.809-0.497 0-0.399-0.355-0.809-0.809-0.93l-0.48-0.129z"/>
<path d="m19.776 33.603c-0.347-0.094-0.63 0.065-0.63 0.354s0.283 0.599 0.63 0.691l0.48 0.129c0.348 0.093 0.63-0.066 0.63-0.354s-0.282-0.598-0.63-0.69l-0.48-0.13z"/>
<path d="m20.828 34.406c0 0.254-0.256 0.391-0.571 0.306l-0.48-0.128c-0.315-0.085-0.57-0.358-0.57-0.612 0-0.253 0.255-0.39 0.57-0.306l0.48 0.129c0.315 0.085 0.571 0.358 0.571 0.611z"/>
<path d="m19.776 33.794c-0.245-0.065-0.451 0.038-0.451 0.226s0.207 0.402 0.451 0.469l0.48 0.129c0.245 0.065 0.452-0.038 0.452-0.227s-0.207-0.402-0.452-0.468l-0.48-0.129z"/>
<path d="m19.758 33.713c-0.202-0.054-0.358 0.037-0.358 0.151s0.156 0.289 0.358 0.343l0.518 0.139c0.205 0.056 0.358-0.034 0.358-0.15s-0.153-0.288-0.358-0.343l-0.518-0.14z"/>
</g>
</g>
</g>
</g>
</g>
<g transform="matrix(-1 0 0 1 572.76 -366.37)">
<g transform="translate(-118.49,-149.61)">
<g stroke="#fff" transform="translate(0,11.373)">
<g fill="none">
<circle opacity="0.87" stroke-linejoin="bevel" stroke-width=".29272" stroke-linecap="round" transform="scale(-1,1)" cy="665.09" cx="-148.1" r="128.62"/>
</g>
</g>
</g>
</g>
<g transform="translate(183.81 13.946)">
<g transform="translate(-118.49,-149.61)">
<g stroke="#fff" transform="translate(0,11.373)">
<g fill="none" transform="matrix(-1 0 0 1 610.13 -13.935)">
<g stroke-width="0.4">
<path d="m301.28 327.69h144.32v95.069h162.89"/>
<path d="m304.77 319.59h187.72v-23.5h116.06"/>
<path d="m305.28 312.39h140.43v-109.07h162.51"/>
</g>
</g>
<g transform="matrix(1.21 0 0 1.21 -37.25 -193.95)">
<path stroke-width="0.4" d="m300.16 375.73c-32.514-11.194-42.142 21.476-18.009 33.182-19.199 30.651 38.563 44.744 52.566 23.649 28.722 19.496 50.444 7.6312 48.216-6.5993 56.013-3.1332 32.315-85.758-19.286-55.649-11.382-23.962-59.109-23.076-63.487 5.418z"/>
<path d="m295.71 390.77h2.3672v17.496h-2.3672v-17.496"/>
<path d="m313.6 400.35v7.9219h-2.1562v-7.8516c-0.00001-1.2422-0.24219-2.1719-0.72656-2.7891-0.48438-0.61718-1.211-0.92577-2.1797-0.92578-1.1641 0.00001-2.082 0.3711-2.7539 1.1133-0.67188 0.7422-1.0078 1.7539-1.0078 3.0352v7.418h-2.168v-13.125h2.168v2.0391c0.51562-0.78905 1.1211-1.3789 1.8164-1.7695 0.70312-0.39061 1.5117-0.58592 2.4258-0.58593 1.5078 0.00001 2.6484 0.46876 3.4219 1.4062 0.77342 0.9297 1.1601 2.3008 1.1602 4.1133"/>
<path d="m320.06 391.42v3.7266h4.4414v1.6758h-4.4414v7.125c-0.00001 1.0703 0.14452 1.7578 0.43359 2.0625 0.29687 0.30469 0.89452 0.45704 1.793 0.45704h2.2148v1.8047h-2.2148c-1.6641 0-2.8125-0.30859-3.4453-0.92578-0.63282-0.625-0.94923-1.7578-0.94922-3.3984v-7.125h-1.582v-1.6758h1.582v-3.7266h2.168"/>
<path d="m338.57 401.17v1.0547h-9.9141c0.0937 1.4844 0.53906 2.6172 1.3359 3.3984 0.80468 0.77344 1.9219 1.1602 3.3516 1.1602 0.82811 0 1.6289-0.10156 2.4023-0.30469 0.78124-0.20312 1.5547-0.50781 2.3203-0.91406v2.0391c-0.77345 0.32813-1.5664 0.57813-2.3789 0.75-0.81251 0.17188-1.6367 0.25782-2.4727 0.25782-2.0938 0-3.7539-0.60938-4.9805-1.8281-1.2188-1.2188-1.8281-2.8672-1.8281-4.9453 0-2.1484 0.57812-3.8516 1.7344-5.1094 1.1641-1.2656 2.7305-1.8984 4.6992-1.8984 1.7656 0.00001 3.1602 0.57032 4.1836 1.7109 1.0312 1.1328 1.5469 2.6758 1.5469 4.6289m-2.1562-0.63281c-0.0156-1.1797-0.34767-2.1211-0.99609-2.8242-0.64064-0.70311-1.4922-1.0547-2.5547-1.0547-1.2031 0.00001-2.168 0.33986-2.8945 1.0195-0.71876 0.6797-1.1328 1.6367-1.2422 2.8711l7.6875-0.0117"/>
<path d="m349.72 397.16c-0.2422-0.14062-0.50782-0.24218-0.79687-0.30469-0.28126-0.0703-0.59376-0.10546-0.9375-0.10547-1.2188 0.00001-2.1563 0.39845-2.8125 1.1953-0.64845 0.78908-0.97266 1.9258-0.97266 3.4102v6.9141h-2.168v-13.125h2.168v2.0391c0.45312-0.79687 1.043-1.3867 1.7695-1.7695 0.72656-0.39061 1.6094-0.58592 2.6484-0.58593 0.14843 0.00001 0.31249 0.0117 0.49219 0.0351 0.17967 0.0156 0.37889 0.043 0.59765 0.082l0.0117 2.2148"/>
<path d="m362.49 400.35v7.9219h-2.1562v-7.8516c-0.00001-1.2422-0.2422-2.1719-0.72656-2.7891-0.48439-0.61718-1.211-0.92577-2.1797-0.92578-1.1641 0.00001-2.082 0.3711-2.7539 1.1133-0.67188 0.7422-1.0078 1.7539-1.0078 3.0352v7.418h-2.168v-13.125h2.168v2.0391c0.51562-0.78905 1.1211-1.3789 1.8164-1.7695 0.70311-0.39061 1.5117-0.58592 2.4258-0.58593 1.5078 0.00001 2.6484 0.46876 3.4219 1.4062 0.77343 0.9297 1.1602 2.3008 1.1602 4.1133"/>
<path d="m378.04 401.17v1.0547h-9.9141c0.0937 1.4844 0.53906 2.6172 1.3359 3.3984 0.80468 0.77344 1.9219 1.1602 3.3516 1.1602 0.82811 0 1.6289-0.10156 2.4023-0.30469 0.78124-0.20312 1.5547-0.50781 2.3203-0.91406v2.0391c-0.77345 0.32813-1.5664 0.57813-2.3789 0.75-0.81251 0.17188-1.6367 0.25782-2.4727 0.25782-2.0938 0-3.7539-0.60938-4.9805-1.8281-1.2188-1.2188-1.8281-2.8672-1.8281-4.9453 0-2.1484 0.57812-3.8516 1.7344-5.1094 1.1641-1.2656 2.7305-1.8984 4.6992-1.8984 1.7656 0.00001 3.1602 0.57032 4.1836 1.7109 1.0312 1.1328 1.5469 2.6758 1.5469 4.6289m-2.1562-0.63281c-0.0156-1.1797-0.34767-2.1211-0.99609-2.8242-0.64064-0.70311-1.4922-1.0547-2.5547-1.0547-1.2031 0.00001-2.168 0.33986-2.8945 1.0195-0.71876 0.6797-1.1328 1.6367-1.2422 2.8711l7.6875-0.0117"/>
<path d="m383.72 391.42v3.7266h4.4414v1.6758h-4.4414v7.125c-0.00001 1.0703 0.14452 1.7578 0.43359 2.0625 0.29687 0.30469 0.89452 0.45704 1.793 0.45704h2.2148v1.8047h-2.2148c-1.6641 0-2.8125-0.30859-3.4453-0.92578-0.63282-0.625-0.94923-1.7578-0.94922-3.3984v-7.125h-1.582v-1.6758h1.582v-3.7266h2.168"/>
</g>
<g font-size="24px" font-family="&apos;DejaVu Sans&apos;" transform="translate(-403.73 -11.382)">
<g transform="matrix(.80269 0 0 .79999 3.5674 -136.41)">
<text font-size="25.6px" font-family="sans-serif" xml:space="preserve" style="word-spacing:0px;letter-spacing:0px" line-height="125%" stroke="#ffffff" y="415.34616" x="507.19312" stroke-width="1px" fill="#000000"><tspan font-size="15.599px" stroke="#ffffff" y="415.34616" x="507.19312">Server 1</tspan></text>
</g>
<g transform="matrix(.80269 0 0 .79999 4.5674 -43.41)">
<text font-size="25.6px" font-family="sans-serif" xml:space="preserve" style="word-spacing:0px;letter-spacing:0px" line-height="125%" stroke="#ffffff" y="415.34616" x="507.19312" stroke-width="1px" fill="#000000"><tspan font-size="15.599px" stroke="#ffffff" y="415.34616" x="507.19312">Server 2</tspan></text>
</g>
<g transform="matrix(.80269 0 0 .79999 1.5674 82.6)">
<text font-size="25.6px" font-family="sans-serif" xml:space="preserve" style="word-spacing:0px;letter-spacing:0px" line-height="125%" stroke="#ffffff" y="415.34616" x="507.19312" stroke-width="1px" fill="#000000"><tspan font-size="15.599px" stroke="#ffffff" y="415.34616" x="507.19312">Server N</tspan></text>
</g>
</g>
<g stroke-linejoin="bevel" transform="matrix(.8 0 0 .8 -499.75 68.952)" stroke-linecap="round" stroke-width=".40458" fill="none">
<circle opacity="0.87" cy="320.43" cx="589.29" r="4.7977"/>
<circle opacity="0.87" cy="334.43" cx="589.29" r="4.7977"/>
<circle opacity="0.87" cy="348.43" cx="589.29" r="4.7977"/>
</g>
</g>
</g>
</g>
<g transform="matrix(.20972 0 0 .20972 .80421 41.243)" stroke="#fff">
<g transform="matrix(1.05 0 0 1.05 4.5288 4.6798)" stroke-width="2.4319">
<g transform="translate(-3.6739 -117.13)">
<path d="m34.535 224.2v0.29457c0.006-0.0975 0.0206-0.19729 0.0295-0.29457zm138.14 0c0.0302 0.33044 0.0589 0.66821 0.0589 1.0015v-1.0015zm0.0589 1.0015c-0.00001 15.052-30.597 27.262-68.878 27.262-37.683 0.00001-68.377-11.828-69.326-26.555v40.68c-0.0151 0.23376-0.0147 0.45704-0.0147 0.69223 0 0.22546 0.00087 0.45335 0.0147 0.67751 0.91151 14.741 31.619 26.599 69.326 26.599 37.708 0 68.415-11.858 69.326-26.599h0.0295v-0.50077c0.00095-0.0587 0-0.11794 0-0.17674s0.00094-0.11803 0-0.17674l-0.47753-41.902z" stroke="#fff" stroke-width="2.4319"/>
</g>
<g transform="translate(-3.5441,-153.11)">
<path d="m34.535 224.2v0.29457c0.006-0.0975 0.0206-0.19729 0.0295-0.29457zm138.14 0c0.0302 0.33044 0.0589 0.66821 0.0589 1.0015v-1.0015zm0.0589 1.0015c-0.00001 15.052-30.596 27.262-68.877 27.262-37.683 0.00001-68.377-11.828-69.326-26.555v40.68c-0.0151 0.23376-0.0147 0.45704-0.0147 0.69223 0 0.22546 0.00087 0.45335 0.0147 0.67751 0.91151 14.741 31.619 26.599 69.326 26.599 37.708 0 67.936-11.858 68.847-26.599h0.0295v-0.50077c0.00095-0.0587 0-0.11794 0-0.17674s0.00094-0.11803 0-0.17674v-41.902z" stroke="#fff" stroke-width="2.4319"/>
</g>
<g transform="translate(-2.7923 -109.73)">
<path d="m102.92 172.9c-37.683 0.00001-69.342-15.798-69.326-17.018v31.143c-0.0151 0.23376-0.0147 0.45704-0.0147 0.69223 0 0.22546 0.00087 0.45335 0.0147 0.67751 0.91151 14.741 31.619 26.599 69.326 26.599 37.708 0 67.94-11.858 68.851-26.599h0.0295v-0.50077c0.00095-0.0587 0-0.11794 0-0.17674s0.00094-0.11803 0-0.17674v-35.393c-0.91021 4.0761-44.04 20.456-68.88 20.753z"/>
<ellipse rx="69.244" ry="26.778" cy="153.36" cx="102.81"/>
</g>
</g>
<g transform="translate(26.695 521.96)" stroke-width="1.9264">
<path d="m194.77 146.09c0 6.627-5.373 12-12 12h-166c-6.627 0-12-5.373-12-12v-96.226c0-6.627 5.373-12 12-12h166c6.627 0 12 5.373 12 12v96.226z" stroke="#fff" stroke-width="1.9264"/>
<polyline points="10.409 41.273 99.5 148 187.27 42.409"/>
<line y2="111.95" x2="65.909" y1="153.32" x1="9.318"/>
<line y2="153.32" x2="189.32" y1="108.55" x1="128.86"/>
</g>
<g transform="matrix(5.2571 0 0 5.2571 31.436 1162)">
<rect rx="5" height="32" width="32" y="0" x="0" stroke-width=".45533" fill="#141718"/>
<g stroke-width=".36281">
<path opacity="0.26" d="m28.455 26.303a3.0609 2.4838 0 0 1 -6.1219 0 3.0609 2.4838 0 1 1 6.1219 0z" fill="none"/>
<path d="m28.455 25.347a3.0609 2.4838 0 0 1 -6.1219 0 3.0609 2.4838 0 1 1 6.1219 0z" fill="none"/>
<g fill="#141718">
<path d="m28.455 24.52a3.0609 2.4838 0 0 1 -6.1219 0 3.0609 2.4838 0 1 1 6.1219 0z"/>
<path opacity=".15" d="m22.02 18.502a6.0205 4.7911 0 0 1 -12.041 0 6.0205 4.7911 0 1 1 12.041 0z"/>
<path d="m22.02 17.489a6.0205 4.7911 0 0 1 -12.041 0 6.0205 4.7911 0 1 1 12.041 0z"/>
<path d="m18.919 16.805a2.9186 2.3226 0 1 1 -5.8372 0 2.9186 2.3226 0 1 1 5.8372 0z"/>
<rect height="9.572" width="4.51" y="8.08" x="13.745"/>
</g>
<path d="m16 5.0701c-2.375 0-4.3003 1.9126-4.3003 4.2719 0 0.22232 0.07455 0.42762 0.10751 0.64078 0.01077 0.069593-0.0141 0.14514 0 0.21359 0.03727 0.21779 0.13263 0.4459 0.21502 0.69418 0.02148 0.05408 0.03015 0.10722 0.05375 0.1602 0.19408 0.53898 0.41504 1.1322 0.80631 1.8156 2.2016 3.845 3.9305 3.8699 6.1817 0.05339 0.42796-0.72552 0.71381-1.3587 0.91382-1.9223 0.15548-0.43816 0.25466-0.82814 0.26877-1.1748 0.01049-0.090185 0.04909-0.1752 0.05375-0.26699-0.0012-0.018134 0.0017-0.035539 0-0.053395 0.0021-0.054574 0-0.10511 0-0.1602 0-2.3593-1.9253-4.2719-4.3003-4.2719z"/>
<path opacity="0.26" d="m9.8788 26.303a3.0609 2.4838 0 0 1 -6.1219 0 3.0609 2.4838 0 1 1 6.1219 0z" fill="none"/>
<path d="m9.8788 25.347a3.0609 2.4838 0 0 1 -6.1219 0 3.0609 2.4838 0 1 1 6.1219 0z" fill="none"/>
<path d="m9.8788 24.52a3.0609 2.4838 0 0 1 -6.1219 0 3.0609 2.4838 0 1 1 6.1219 0z" fill="#141718"/>
</g>
</g>
</g>
</svg>
