<svg xmlns:rdf="http://www.w3.org/1999/02/22-rdf-syntax-ns#" xmlns="http://www.w3.org/2000/svg" xml:space="preserve" height="32.99" width="33.77" version="1.1" xmlns:cc="http://creativecommons.org/ns#" xmlns:xlink="http://www.w3.org/1999/xlink" viewBox="0 0 33.770005 32.989887" xmlns:dc="http://purl.org/dc/elements/1.1/"><defs><linearGradient id="h"><stop offset="0"/><stop stop-color="#1a1a1a" offset="1"/></linearGradient><linearGradient id="i"><stop stop-color="#160802" offset="0"/><stop stop-color="#3f1705" stop-opacity=".087179" offset="1"/></linearGradient><linearGradient id="c"><stop offset="0"/><stop stop-color="#1c1511" stop-opacity=".94359" offset="1"/></linearGradient><radialGradient id="o" cx="16.76" xlink:href="#c" gradientUnits="userSpaceOnUse" cy="13.195" r="13.508" gradientTransform="matrix(1 0 0 .97690 0 .30482)"/><radialGradient id="b" cx="16.728" xlink:href="#h" gradientUnits="userSpaceOnUse" cy="13.795" r="9.4723" gradientTransform="matrix(1 0 0 .82189 0 2.457)"/><radialGradient id="a" cx="17.386" xlink:href="#i" gradientUnits="userSpaceOnUse" cy="13.704" r="3.8785" gradientTransform="matrix(1 0 0 1.0459 0 -0.629)"/><radialGradient id="n" cx="16.514" xlink:href="#c" gradientUnits="userSpaceOnUse" cy="32.07" r="6.7019" gradientTransform="matrix(1.0102 .49514 .44268 -.90314 -11.589 46.807)"/><radialGradient id="k" xlink:href="#c" gradientUnits="userSpaceOnUse" cy="18.963" cx="40.554" gradientTransform="matrix(.8 0 0 .75520 -2.3013 16.684)" r="7.7977"/><radialGradient id="e" xlink:href="#c" gradientUnits="userSpaceOnUse" cy="24.463" cx="4.0335" gradientTransform="matrix(.64 0 0 .41166 27.437 -3.5346)" r="4.0332"/><radialGradient id="d" xlink:href="#c" gradientUnits="userSpaceOnUse" cy="24.463" cx="4.0335" gradientTransform="matrix(.40534 -.68971 .44364 .26073 21.839 4.7308)" r="4.0332"/><radialGradient id="j" xlink:href="#c" gradientUnits="userSpaceOnUse" cy="24.463" cx="4.0335" gradientTransform="matrix(.036359 .51071 .32850 -.023387 44.192 31.26)" r="4.0332"/><radialGradient id="m" xlink:href="#c" gradientUnits="userSpaceOnUse" cy="17.568" cx="36.931" gradientTransform="matrix(1.6679 .47610 -.40463 1.7489 -40.913 -37.312)" r="7.7977"/><radialGradient id="g" xlink:href="#h" gradientUnits="userSpaceOnUse" cy="13.795" cx="16.728" gradientTransform="matrix(.96438 .29381 -.19572 .79262 16.087 .21895)" r="9.4723"/><radialGradient id="f" xlink:href="#i" gradientUnits="userSpaceOnUse" cy="13.704" cx="17.386" gradientTransform="matrix(.96438 .29381 -.24907 1.0086 16.822 -2.7571)" r="3.8785"/><radialGradient id="l" xlink:href="#c" gradientUnits="userSpaceOnUse" cy="17.568" cx="36.931" gradientTransform="matrix(1.3359 .44574 -.37882 1.4008 -50.708 -61.506)" r="7.7977"/></defs><g transform="matrix(1.25 0 0 -1.25 -4.0656 32.989)"><g fill-rule="evenodd"><path d="m22.949 26.291c1.094-0.238 2.215-1.32 3.36-3.238 0.668-1.149 1.722-3.094 3.16-5.84 1.066-1.812 1.066-3.883 0-6.199-0.801-1.707-2.106-3.442-3.918-5.203-2.879-2.852-6.453-4.758-10.719-5.719-1.68-0.375-3.094 0.387-4.242 2.281-2.586 4.239-4.078 6.602-4.481 7.078-2.05 2.453-3 4.442-2.839 5.961 0.082 0.668 0.867 2.36 2.359 5.078 0.695 1.231 3.441 2.602 8.242 4.122 4.641 1.468 7.664 2.027 9.078 1.679z" fill="url(#o)"/><path d="m7.3927 12.673c-0.5149 1.6629 0.34776 3.6708 1.4521 5.0165 1.7293 2.1071 4.5504 3.4711 7.2607 3.7624 2.5154 0.27033 5.2999-0.46622 7.3267-1.9802 1.3453-1.0049 2.3585-2.635 2.6402-4.2904 0.381-2.242-0.052-4.874-1.453-6.6662-1.103-1.4108-3.033-2.2369-4.818-2.3762-2.505-0.1955-4.985 1.0499-7.195 2.2442-1.98 1.0701-4.5485 2.1402-5.2143 4.2902z" stroke="#000" stroke-width=".08" fill="url(#b)"/><path d="m14.719 13.399c-0.60485 0.85928-1.5362 2.0355-1.0561 2.9703 0.69034 1.3442 2.913 1.7014 4.3564 1.2541 1.5526-0.4811 2.9244-2.1466 3.1023-3.7624 0.16479-1.4964-0.57297-3.7163-2.0462-4.0264-1.836-0.38643-3.2764 2.0301-4.3564 3.5643z" stroke="#000" stroke-width=".08" fill="url(#a)"/></g></g><g transform="matrix(.097948 .24316 .24316 -.097948 -5.4666 20.787)"><g transform="matrix(-.93760 -.34771 -.34771 .93760 81.061 14.985)"><path d="m14.303 23.099c1.3064-1.2978 2.9617-2.1904 4.9689-2.6787 2.0771-0.48534 3.6552-0.32826 4.7346 0.46519 0.95649 0.70437 1.5359 1.6386 1.7313 2.8069 0.03084 0.14667 0.11458 1.5734 0.25425 4.2842 0.17359 2.9918-1.5383 4.2375-5.1396 3.7452-1.6527-0.24252-4.5582-0.86356-8.7109-1.8667-2.0305-0.4916-2.6173-1.4006-1.7689-2.7225 0.12722-0.20075 1.4378-1.5454 3.9303-4.0335z" fill-rule="evenodd" fill="url(#n)"/><path d="m52.286 30.719c0.52465 0.07299 0.94546 0.57636 1.2569 1.5125 0.30025 0.95132 0.26466 1.6915-0.10846 2.2257-0.30915 0.44496-0.65372 0.42125-1.0317-0.0713-0.21074-0.28528-0.54837-0.80276-1.0127-1.5499-0.40265-0.45024-0.50552-0.93619-0.30998-1.4557 0.19544-0.52104 0.59919-0.74022 1.2059-0.66125z" fill-rule="evenodd" fill="url(#j)"/><g transform="matrix(1.25 0 0 -1.25 55.299 -7.4772)"><g transform="matrix(.12197 .44826 -.40356 .10980 -17.89 -28.814)"><g fill-rule="evenodd" transform="translate(-1.3937 -.67775)" stroke="#000" stroke-width=".08"><path d="m7.3927 12.673c-0.5149 1.6629 0.34776 3.6708 1.4521 5.0165 1.7293 2.1071 4.5504 3.4711 7.2607 3.7624 2.5154 0.27033 5.2999-0.46622 7.3267-1.9802 1.3453-1.0049 2.3585-2.635 2.6402-4.2904 0.381-2.242-0.052-4.874-1.453-6.6662-1.103-1.4108-3.033-2.2369-4.818-2.3762-2.505-0.1955-4.985 1.0499-7.195 2.2442-1.98 1.0701-4.5485 2.1402-5.2143 4.2902z" fill="url(#b)"/><path d="m14.719 13.399c-0.60485 0.85928-1.5362 2.0355-1.0561 2.9703 0.69034 1.3442 2.913 1.7014 4.3564 1.2541 1.5526-0.4811 2.9244-2.1466 3.1023-3.7624 0.16479-1.4964-0.57297-3.7163-2.0462-4.0264-1.836-0.38643-3.2764 2.0301-4.3564 3.5643z" fill="url(#a)"/></g></g><g transform="translate(32.967 -32.443)"><g fill-rule="evenodd" transform="matrix(-.12435 .14403 -.12967 -.11195 -66.793 2.5211)" stroke="#000" stroke-width=".08"><path d="m7.3927 12.673c-0.5149 1.6629 0.34776 3.6708 1.4521 5.0165 1.7293 2.1071 4.5504 3.4711 7.2607 3.7624 2.5154 0.27033 5.2999-0.46622 7.3267-1.9802 1.3453-1.0049 2.3585-2.635 2.6402-4.2904 0.381-2.242-0.052-4.874-1.453-6.6662-1.103-1.4108-3.033-2.2369-4.818-2.3762-2.505-0.1955-4.985 1.0499-7.195 2.2442-1.98 1.0701-4.5485 2.1402-5.2143 4.2902z" fill="url(#b)"/><path d="m14.719 13.399c-0.60485 0.85928-1.5362 2.0355-1.0561 2.9703 0.69034 1.3442 2.913 1.7014 4.3564 1.2541 1.5526-0.4811 2.9244-2.1466 3.1023-3.7624 0.16479-1.4964-0.57297-3.7163-2.0462-4.0264-1.836-0.38643-3.2764 2.0301-4.3564 3.5643z" fill="url(#a)"/></g><g transform="matrix(-.082598 -.12787 .11512 -.074361 -42.358 19.158)"><g fill-rule="evenodd"><g transform="matrix(-.94634 .35896 .29094 .94634 103.27 115.68)"><path d="m35.604 9.8598c1.081-1.1234 1.545-2.1842 1.393-3.191-0.124-0.8375-0.623-1.0434-1.494-0.6162-0.49301 0.2531-1.3248 0.74321-2.4934 1.4669-0.87615 0.35084-1.3574 0.95974-1.4442 1.8227 1.7865 0.62565 2.8888 1.6547 4.0385 0.51757z" transform="matrix(6.3973 1.6578 1.4924 -7.106 -185.08 12.106)" fill="url(#d)"/><path d="m7.3927 12.673c-0.5149 1.6629 0.34776 3.6708 1.4521 5.0165 1.7293 2.1071 4.5504 3.4711 7.2607 3.7624 2.5154 0.27033 5.2999-0.46622 7.3267-1.9802 1.3453-1.0049 2.3585-2.635 2.6402-4.2904 0.381-2.242-0.052-4.874-1.453-6.6662-1.103-1.4108-3.033-2.2369-4.818-2.3762-2.505-0.1955-4.985 1.0499-7.195 2.2442-1.98 1.0701-4.5485 2.1402-5.2143 4.2902z" transform="matrix(.73094 1.1263 -.91289 .73094 48.169 -20.034)" stroke="#000" stroke-width=".08" fill="url(#b)"/><path d="m14.719 13.399c-0.60485 0.85928-1.5362 2.0355-1.0561 2.9703 0.69034 1.3442 2.913 1.7014 4.3564 1.2541 1.5526-0.4811 2.9244-2.1466 3.1023-3.7624 0.16479-1.4964-0.57297-3.7163-2.0462-4.0264-1.836-0.38643-3.2764 2.0301-4.3564 3.5643z" transform="matrix(.73094 1.1263 -.91289 .73094 48.169 -20.034)" stroke="#000" stroke-width=".08" fill="url(#a)"/></g><g transform="matrix(.74235 .74423 -.60319 .74235 19.313 -8.835)"><path d="m27.482 6.6057c0.1376 0.64768 0.80256 1.1277 1.9974 1.433 1.2128 0.28992 2.1325 0.17984 2.7654-0.3328 0.52736-0.42496 0.4672-0.85248-0.18048-1.28-0.3744-0.23744-1.0496-0.61248-2.0224-1.1251-0.59712-0.46208-1.2122-0.5472-1.8426-0.25728-0.63232 0.28992-0.86976 0.8128-0.71744 1.5622z" transform="matrix(6.3973 1.6578 1.4924 -7.106 -185.08 12.106)" fill="url(#e)"/><path d="m7.3927 12.673c-0.5149 1.6629 0.34776 3.6708 1.4521 5.0165 1.7293 2.1071 4.5504 3.4711 7.2607 3.7624 2.5154 0.27033 5.2999-0.46622 7.3267-1.9802 1.3453-1.0049 2.3585-2.635 2.6402-4.2904 0.381-2.242-0.052-4.874-1.453-6.6662-1.103-1.4108-3.033-2.2369-4.818-2.3762-2.505-0.1955-4.985 1.0499-7.195 2.2442-1.98 1.0701-4.5485 2.1402-5.2143 4.2902z" stroke="#000" stroke-width=".08" fill="url(#b)"/><path d="m14.719 13.399c-0.60485 0.85928-1.5362 2.0355-1.0561 2.9703 0.69034 1.3442 2.913 1.7014 4.3564 1.2541 1.5526-0.4811 2.9244-2.1466 3.1023-3.7624 0.16479-1.4964-0.57297-3.7163-2.0462-4.0264-1.836-0.38643-3.2764 2.0301-4.3564 3.5643z" stroke="#000" stroke-width=".08" fill="url(#a)"/></g></g></g></g><g transform="matrix(1.331 0 0 1.331 -1.3038 -.54933)"><g transform="matrix(.33461 -.16174 -.14561 -.30124 -6.9333 -21.223)"><g transform="translate(-27.87 -9.6923)" fill-rule="evenodd"><path d="m24.411 35.174c0.7872 1.4064 2.528 1.9504 5.2152 1.6312 2.6472-0.3216 4.544-1.228 5.6968-2.7216 0.9816-1.3 1.2784-2.4096 0.8936-3.328-0.256-0.5976-0.9464-1.2472-2.0776-1.9504-1.1096-0.7688-4.4606-2.8832-5.1638-3.2672-3.4524-1.7398-2.6876-0.16916-4.9694 2.521-0.5128 1.3 0.38276 2.7086 0.14836 3.4966-0.4064 1.4088-0.3184 2.6152 0.2568 3.6184z" transform="matrix(2.0405 .76135 .68543 -2.2665 -64.657 62.237)" fill="url(#k)"/><path d="m7.3927 12.673c-0.5149 1.6629 0.34776 3.6708 1.4521 5.0165 1.7293 2.1071 4.5504 3.4711 7.2607 3.7624 2.5154 0.27033 5.2999-0.46622 7.3267-1.9802 1.3453-1.0049 2.3585-2.635 2.6402-4.2904 0.381-2.242-0.052-4.874-1.453-6.6662-1.103-1.4108-3.033-2.2369-4.818-2.3762-2.505-0.1955-4.985 1.0499-7.195 2.2442-1.98 1.0701-4.5485 2.1402-5.2143 4.2902z" stroke="#000" stroke-width=".08" fill="url(#b)"/><path d="m14.719 13.399c-0.60485 0.85928-1.5362 2.0355-1.0561 2.9703 0.69034 1.3442 2.913 1.7014 4.3564 1.2541 1.5526-0.4811 2.9244-2.1466 3.1023-3.7624 0.16479-1.4964-0.57297-3.7163-2.0462-4.0264-1.836-0.38643-3.2764 2.0301-4.3564 3.5643z" stroke="#000" stroke-width=".08" fill="url(#a)"/></g></g><g transform="matrix(-.15143 .015563 -.014011 -.13633 -2.3792 -10.577)"><g fill-rule="evenodd"><g transform="matrix(.99070 .15113 -.12249 .99070 2.7028 -1.3092)"><path d="m35.604 9.8598c1.081-1.1234 1.545-2.1842 1.393-3.191-0.124-0.8375-0.623-1.0434-1.494-0.6162-0.49301 0.2531-1.3248 0.74321-2.4934 1.4669-0.87615 0.35084-1.3574 0.95974-1.4442 1.8227 1.7865 0.62565 2.8888 1.6547 4.0385 0.51757z" transform="matrix(6.3973 1.6578 1.4924 -7.106 -185.08 12.106)" fill="url(#d)"/><path d="m7.3927 12.673c-0.5149 1.6629 0.34776 3.6708 1.4521 5.0165 1.7293 2.1071 4.5504 3.4711 7.2607 3.7624 2.5154 0.27033 5.2999-0.46622 7.3267-1.9802 1.3453-1.0049 2.3585-2.635 2.6402-4.2904 0.381-2.242-0.052-4.874-1.453-6.6662-1.103-1.4108-3.033-2.2369-4.818-2.3762-2.505-0.1955-4.985 1.0499-7.195 2.2442-1.98 1.0701-4.5485 2.1402-5.2143 4.2902z" transform="matrix(.73094 1.1263 -.91289 .73094 48.169 -20.034)" stroke="#000" stroke-width=".08" fill="url(#b)"/><path d="m14.719 13.399c-0.60485 0.85928-1.5362 2.0355-1.0561 2.9703 0.69034 1.3442 2.913 1.7014 4.3564 1.2541 1.5526-0.4811 2.9244-2.1466 3.1023-3.7624 0.16479-1.4964-0.57297-3.7163-2.0462-4.0264-1.836-0.38643-3.2764 2.0301-4.3564 3.5643z" transform="matrix(.73094 1.1263 -.91289 .73094 48.169 -20.034)" stroke="#000" stroke-width=".08" fill="url(#a)"/></g><g transform="matrix(-.67219 .82239 .66655 .67219 3.6642 2.8575)"><path d="m27.482 6.6057c0.1376 0.64768 0.80256 1.1277 1.9974 1.433 1.2128 0.28992 2.1325 0.17984 2.7654-0.3328 0.52736-0.42496 0.4672-0.85248-0.18048-1.28-0.3744-0.23744-1.0496-0.61248-2.0224-1.1251-0.59712-0.46208-1.2122-0.5472-1.8426-0.25728-0.63232 0.28992-0.86976 0.8128-0.71744 1.5622z" transform="matrix(6.3973 1.6578 1.4924 -7.106 -185.08 12.106)" fill="url(#e)"/><path d="m7.3927 12.673c-0.5149 1.6629 0.34776 3.6708 1.4521 5.0165 1.7293 2.1071 4.5504 3.4711 7.2607 3.7624 2.5154 0.27033 5.2999-0.46622 7.3267-1.9802 1.3453-1.0049 2.3585-2.635 2.6402-4.2904 0.381-2.242-0.052-4.874-1.453-6.6662-1.103-1.4108-3.033-2.2369-4.818-2.3762-2.505-0.1955-4.985 1.0499-7.195 2.2442-1.98 1.0701-4.5485 2.1402-5.2143 4.2902z" stroke="#000" stroke-width=".08" fill="url(#b)"/><path d="m14.719 13.399c-0.60485 0.85928-1.5362 2.0355-1.0561 2.9703 0.69034 1.3442 2.913 1.7014 4.3564 1.2541 1.5526-0.4811 2.9244-2.1466 3.1023-3.7624 0.16479-1.4964-0.57297-3.7163-2.0462-4.0264-1.836-0.38643-3.2764 2.0301-4.3564 3.5643z" stroke="#000" stroke-width=".08" fill="url(#a)"/></g></g></g><g transform="matrix(-.15143 .015563 -.014011 -.13633 6.112 2.8425)"><g fill-rule="evenodd"><g transform="matrix(.63845 -.85491 .69291 .63845 6.7106 241.22)"><path d="m35.604 9.8598c1.081-1.1234 1.545-2.1842 1.393-3.191-0.124-0.8375-0.623-1.0434-1.494-0.6162-0.49301 0.2531-1.3248 0.74321-2.4934 1.4669-0.87615 0.35084-1.3574 0.95974-1.4442 1.8227 1.7865 0.62565 2.8888 1.6547 4.0385 0.51757z" transform="matrix(6.3973 1.6578 1.4924 -7.106 -185.08 12.106)" fill="url(#d)"/><path d="m7.3927 12.673c-0.5149 1.6629 0.34776 3.6708 1.4521 5.0165 1.7293 2.1071 4.5504 3.4711 7.2607 3.7624 2.5154 0.27033 5.2999-0.46622 7.3267-1.9802 1.3453-1.0049 2.3585-2.635 2.6402-4.2904 0.381-2.242-0.052-4.874-1.453-6.6662-1.103-1.4108-3.033-2.2369-4.818-2.3762-2.505-0.1955-4.985 1.0499-7.195 2.2442-1.98 1.0701-4.5485 2.1402-5.2143 4.2902z" transform="matrix(.73094 1.1263 -.91289 .73094 48.169 -20.034)" stroke="#000" stroke-width=".08" fill="url(#b)"/><path d="m14.719 13.399c-0.60485 0.85928-1.5362 2.0355-1.0561 2.9703 0.69034 1.3442 2.913 1.7014 4.3564 1.2541 1.5526-0.4811 2.9244-2.1466 3.1023-3.7624 0.16479-1.4964-0.57297-3.7163-2.0462-4.0264-1.836-0.38643-3.2764 2.0301-4.3564 3.5643z" transform="matrix(.73094 1.1263 -.91289 .73094 48.169 -20.034)" stroke="#000" stroke-width=".08" fill="url(#a)"/></g><g transform="matrix(-.78822 .15192 .12313 .78822 20.66 198.29)"><path d="m27.482 6.6057c0.1376 0.64768 0.80256 1.1277 1.9974 1.433 1.2128 0.28992 2.1325 0.17984 2.7654-0.3328 0.52736-0.42496 0.4672-0.85248-0.18048-1.28-0.3744-0.23744-1.0496-0.61248-2.0224-1.1251-0.59712-0.46208-1.2122-0.5472-1.8426-0.25728-0.63232 0.28992-0.86976 0.8128-0.71744 1.5622z" transform="matrix(6.3973 1.6578 1.4924 -7.106 -185.08 12.106)" fill="url(#e)"/><path d="m7.3927 12.673c-0.5149 1.6629 0.34776 3.6708 1.4521 5.0165 1.7293 2.1071 4.5504 3.4711 7.2607 3.7624 2.5154 0.27033 5.2999-0.46622 7.3267-1.9802 1.3453-1.0049 2.3585-2.635 2.6402-4.2904 0.381-2.242-0.052-4.874-1.453-6.6662-1.103-1.4108-3.033-2.2369-4.818-2.3762-2.505-0.1955-4.985 1.0499-7.195 2.2442-1.98 1.0701-4.5485 2.1402-5.2143 4.2902z" stroke="#000" stroke-width=".08" fill="url(#b)"/><path d="m14.719 13.399c-0.60485 0.85928-1.5362 2.0355-1.0561 2.9703 0.69034 1.3442 2.913 1.7014 4.3564 1.2541 1.5526-0.4811 2.9244-2.1466 3.1023-3.7624 0.16479-1.4964-0.57297-3.7163-2.0462-4.0264-1.836-0.38643-3.2764 2.0301-4.3564 3.5643z" stroke="#000" stroke-width=".08" fill="url(#a)"/></g></g></g><g transform="matrix(.33461 -.16174 -.14561 -.30124 -9.7829 -103.2)"><g transform="translate(-27.87 -9.6923)"><g fill-rule="evenodd" transform="matrix(.48235 -.97301 .78862 .48235 9.4891 9.524)"><path d="m-3.9469 0.82283c0.8876 3.7254 13.045 26.601 18.818 27.461 5.6913 0.83068 8.9858 1.4324 15.189 1.3252 3.9108-0.93198 15.118-2.4549 14.807-4.8107-15.727-9.816-18.674-15.907-25.316-22.993-5.693-6.8696-5.206-5.8091-11.49-14.658-0.7692 8.2422-8.9373 6.0396-12.008 13.676z" fill="url(#m)"/><g transform="matrix(.70799 .78444 -.63579 .70799 1.6905 -23.379)" stroke="#000" stroke-width=".08"><path d="m20.784 12.243c-0.89256 1.4524-0.53879 3.6423 0.20581 5.2645 1.1659 2.5401 3.5618 4.6844 6.1061 5.7616 2.3614 0.99975 5.2221 1.1076 7.5373 0.24302 1.5367-0.57385 2.902-1.8482 3.5679-3.3618 0.90194-2.0501 1.1114-4.7164 0.18715-6.8558-0.728-1.684-2.393-3.048-4.081-3.7066-2.369-0.9244-5.057-0.452-7.473 0.0504-2.165 0.4502-4.896 0.7272-6.05 2.6052z" fill="url(#g)"/><path d="m27.676 15.096c-0.78793 0.65096-1.9662 1.5117-1.7258 2.5542 0.34564 1.4992 2.4041 2.4967 3.9026 2.4894 1.6119-0.0078 3.3314-1.211 3.8877-2.7169 0.51528-1.3947 0.33242-3.7523-1.0145-4.4842-1.6786-0.91211-3.6432 0.9951-5.05 2.1574z" fill="url(#f)"/></g><path d="m-4.2182-1.2523c1.4415-3.0448 3.8413-3.9635 7.1589-5.8357 2.9467-2.3819 4.2641-3.9458 4.0822-5.8637-6.0532-10.792-14.878-19.778-21.36-29.434 0.01642 13.54 4.1841 32.764 10.119 41.133z" fill="url(#l)"/><g transform="matrix(-.52073 -.94829 -.76859 .52073 23.21 2.4857)" stroke="#000" stroke-width=".08"><path d="m20.784 12.243c-0.89256 1.4524-0.53879 3.6423 0.20581 5.2645 1.1659 2.5401 2.5881 1.5493 5.1325 2.6265 2.3614 0.99975 3.6816 0.67694 5.9968-0.18758 1.5367-0.57385 4.4424-1.4176 5.1084-2.9312 0.90194-2.0501 2.085-1.5812 1.1608-3.7207-0.728-1.684-2.393-3.048-4.081-3.7066-2.369-0.9244-5.057-0.452-7.473 0.0504-2.165 0.4502-4.896 0.7272-6.05 2.6052z" fill="url(#g)"/><path d="m27.676 15.096c-0.78793 0.65096-1.9662 1.5117-1.7258 2.5542 0.34564 1.4992 1.8941 0.85445 3.3926 0.84722 1.6119-0.0078 3.8414 0.43124 4.3977-1.0746 0.51528-1.3947 0.33242-3.7523-1.0145-4.4842-1.6786-0.91211-3.6432 0.9951-5.05 2.1574z" fill="url(#f)"/></g></g></g></g></g><g transform="matrix(.99971 -.024056 .024056 .99971 19.6 -20.438)"><g fill-rule="evenodd" transform="matrix(-.12435 .14403 -.12967 -.11195 -34.45 3.5983)" stroke="#000" stroke-width=".08"><path d="m7.3927 12.673c-0.5149 1.6629 0.34776 3.6708 1.4521 5.0165 1.7293 2.1071 4.5504 3.4711 7.2607 3.7624 2.5154 0.27033 5.2999-0.46622 7.3267-1.9802 1.3453-1.0049 2.3585-2.635 2.6402-4.2904 0.381-2.242-0.052-4.874-1.453-6.6662-1.103-1.4108-3.033-2.2369-4.818-2.3762-2.505-0.1955-4.985 1.0499-7.195 2.2442-1.98 1.0701-4.5485 2.1402-5.2143 4.2902z" fill="url(#b)"/><path d="m14.719 13.399c-0.60485 0.85928-1.5362 2.0355-1.0561 2.9703 0.69034 1.3442 2.913 1.7014 4.3564 1.2541 1.5526-0.4811 2.9244-2.1466 3.1023-3.7624 0.16479-1.4964-0.57297-3.7163-2.0462-4.0264-1.836-0.38643-3.2764 2.0301-4.3564 3.5643z" fill="url(#a)"/></g><g transform="matrix(-.11949 -.094316 -.084911 .10757 -39.117 5.3199)"><g fill-rule="evenodd"><g transform="matrix(.15623 1.0971 -.88922 .15623 55.047 -48.183)"><path d="m35.604 9.8598c1.081-1.1234 1.545-2.1842 1.393-3.191-0.124-0.8375-0.623-1.0434-1.494-0.6162-0.49301 0.2531-1.3248 0.74321-2.4934 1.4669-0.87615 0.35084-1.3574 0.95974-1.4442 1.8227 1.7865 0.62565 2.8888 1.6547 4.0385 0.51757z" transform="matrix(6.3973 1.6578 1.4924 -7.106 -185.08 12.106)" fill="url(#d)"/><path d="m7.3927 12.673c-0.5149 1.6629 0.34776 3.6708 1.4521 5.0165 1.7293 2.1071 4.5504 3.4711 7.2607 3.7624 2.5154 0.27033 5.2999-0.46622 7.3267-1.9802 1.3453-1.0049 2.3585-2.635 2.6402-4.2904 0.381-2.242-0.052-4.874-1.453-6.6662-1.103-1.4108-3.033-2.2369-4.818-2.3762-2.505-0.1955-4.985 1.0499-7.195 2.2442-1.98 1.0701-4.5485 2.1402-5.2143 4.2902z" transform="matrix(.73094 1.1263 -.91289 .73094 48.169 -20.034)" stroke="#000" stroke-width=".08" fill="url(#b)"/><path d="m14.719 13.399c-0.60485 0.85928-1.5362 2.0355-1.0561 2.9703 0.69034 1.3442 2.913 1.7014 4.3564 1.2541 1.5526-0.4811 2.9244-2.1466 3.1023-3.7624 0.16479-1.4964-0.57297-3.7163-2.0462-4.0264-1.836-0.38643-3.2764 2.0301-4.3564 3.5643z" transform="matrix(.73094 1.1263 -.91289 .73094 48.169 -20.034)" stroke="#000" stroke-width=".08" fill="url(#a)"/></g><g transform="matrix(-.99874 -.055782 -.045212 .99874 35.919 -.18663)"><path d="m27.482 6.6057c0.1376 0.64768 0.80256 1.1277 1.9974 1.433 1.2128 0.28992 2.1325 0.17984 2.7654-0.3328 0.52736-0.42496 0.4672-0.85248-0.18048-1.28-0.3744-0.23744-1.0496-0.61248-2.0224-1.1251-0.59712-0.46208-1.2122-0.5472-1.8426-0.25728-0.63232 0.28992-0.86976 0.8128-0.71744 1.5622z" transform="matrix(6.3973 1.6578 1.4924 -7.106 -185.08 12.106)" fill="url(#e)"/><path d="m7.3927 12.673c-0.5149 1.6629 0.34776 3.6708 1.4521 5.0165 1.7293 2.1071 4.5504 3.4711 7.2607 3.7624 2.5154 0.27033 5.2999-0.46622 7.3267-1.9802 1.3453-1.0049 2.3585-2.635 2.6402-4.2904 0.381-2.242-0.052-4.874-1.453-6.6662-1.103-1.4108-3.033-2.2369-4.818-2.3762-2.505-0.1955-4.985 1.0499-7.195 2.2442-1.98 1.0701-4.5485 2.1402-5.2143 4.2902z" stroke="#000" stroke-width=".08" fill="url(#b)"/><path d="m14.719 13.399c-0.60485 0.85928-1.5362 2.0355-1.0561 2.9703 0.69034 1.3442 2.913 1.7014 4.3564 1.2541 1.5526-0.4811 2.9244-2.1466 3.1023-3.7624 0.16479-1.4964-0.57297-3.7163-2.0462-4.0264-1.836-0.38643-3.2764 2.0301-4.3564 3.5643z" stroke="#000" stroke-width=".08" fill="url(#a)"/></g></g></g></g><g transform="matrix(1.331 0 0 1.331 25.39 9.7763)"><g transform="matrix(-.15143 .015563 -.014011 -.13633 -2.3792 -10.577)"><g fill-rule="evenodd"><g transform="matrix(.053823 -.70837 .57414 .053823 148.1 149.2)"><path d="m35.604 9.8598c1.081-1.1234 1.545-2.1842 1.393-3.191-0.124-0.8375-0.623-1.0434-1.494-0.6162-0.49301 0.2531-1.3248 0.74321-2.4934 1.4669-0.87615 0.35084-1.3574 0.95974-1.4442 1.8227 1.7865 0.62565 2.8888 1.6547 4.0385 0.51757z" transform="matrix(6.3973 1.6578 1.4924 -7.106 -185.08 12.106)" fill="url(#d)"/><path d="m7.3927 12.673c-0.5149 1.6629 0.34776 3.6708 1.4521 5.0165 1.7293 2.1071 4.5504 3.4711 7.2607 3.7624 2.5154 0.27033 5.2999-0.46622 7.3267-1.9802 1.3453-1.0049 2.3585-2.635 2.6402-4.2904 0.381-2.242-0.052-4.874-1.453-6.6662-1.103-1.4108-3.033-2.2369-4.818-2.3762-2.505-0.1955-4.985 1.0499-7.195 2.2442-1.98 1.0701-4.5485 2.1402-5.2143 4.2902z" transform="matrix(.73094 1.1263 -.91289 .73094 48.169 -20.034)" stroke="#000" stroke-width=".08" fill="url(#b)"/><path d="m14.719 13.399c-0.60485 0.85928-1.5362 2.0355-1.0561 2.9703 0.69034 1.3442 2.913 1.7014 4.3564 1.2541 1.5526-0.4811 2.9244-2.1466 3.1023-3.7624 0.16479-1.4964-0.57297-3.7163-2.0462-4.0264-1.836-0.38643-3.2764 2.0301-4.3564 3.5643z" transform="matrix(.73094 1.1263 -.91289 .73094 48.169 -20.034)" stroke="#000" stroke-width=".08" fill="url(#a)"/></g><g transform="matrix(-.17762 1.0931 .88596 .17762 126.36 123.54)"><path d="m27.482 6.6057c0.1376 0.64768 0.80256 1.1277 1.9974 1.433 1.2128 0.28992 2.1325 0.17984 2.7654-0.3328 0.52736-0.42496 0.4672-0.85248-0.18048-1.28-0.3744-0.23744-1.0496-0.61248-2.0224-1.1251-0.59712-0.46208-1.2122-0.5472-1.8426-0.25728-0.63232 0.28992-0.86976 0.8128-0.71744 1.5622z" transform="matrix(6.3973 1.6578 1.4924 -7.106 -185.08 12.106)" fill="url(#e)"/><path d="m7.3927 12.673c-0.5149 1.6629 0.34776 3.6708 1.4521 5.0165 1.7293 2.1071 4.5504 3.4711 7.2607 3.7624 2.5154 0.27033 5.2999-0.46622 7.3267-1.9802 1.3453-1.0049 2.3585-2.635 2.6402-4.2904 0.381-2.242-0.052-4.874-1.453-6.6662-1.103-1.4108-3.033-2.2369-4.818-2.3762-2.505-0.1955-4.985 1.0499-7.195 2.2442-1.98 1.0701-4.5485 2.1402-5.2143 4.2902z" stroke="#000" stroke-width=".08" fill="url(#b)"/><path d="m14.719 13.399c-0.60485 0.85928-1.5362 2.0355-1.0561 2.9703 0.69034 1.3442 2.913 1.7014 4.3564 1.2541 1.5526-0.4811 2.9244-2.1466 3.1023-3.7624 0.16479-1.4964-0.57297-3.7163-2.0462-4.0264-1.836-0.38643-3.2764 2.0301-4.3564 3.5643z" stroke="#000" stroke-width=".08" fill="url(#a)"/></g></g></g><g transform="matrix(-.15143 .015563 -.014011 -.13633 -3.0321 -6.2686)"><g fill-rule="evenodd"><g transform="matrix(.63845 -.85491 .69291 .63845 6.7106 241.22)"><path d="m35.604 9.8598c1.081-1.1234 1.545-2.1842 1.393-3.191-0.124-0.8375-0.623-1.0434-1.494-0.6162-0.49301 0.2531-1.3248 0.74321-2.4934 1.4669-0.87615 0.35084-1.3574 0.95974-1.4442 1.8227 1.7865 0.62565 2.8888 1.6547 4.0385 0.51757z" transform="matrix(6.3973 1.6578 1.4924 -7.106 -185.08 12.106)" fill="url(#d)"/><path d="m7.3927 12.673c-0.5149 1.6629 0.34776 3.6708 1.4521 5.0165 1.7293 2.1071 4.5504 3.4711 7.2607 3.7624 2.5154 0.27033 5.2999-0.46622 7.3267-1.9802 1.3453-1.0049 2.3585-2.635 2.6402-4.2904 0.381-2.242-0.052-4.874-1.453-6.6662-1.103-1.4108-3.033-2.2369-4.818-2.3762-2.505-0.1955-4.985 1.0499-7.195 2.2442-1.98 1.0701-4.5485 2.1402-5.2143 4.2902z" transform="matrix(.73094 1.1263 -.91289 .73094 48.169 -20.034)" stroke="#000" stroke-width=".08" fill="url(#b)"/><path d="m14.719 13.399c-0.60485 0.85928-1.5362 2.0355-1.0561 2.9703 0.69034 1.3442 2.913 1.7014 4.3564 1.2541 1.5526-0.4811 2.9244-2.1466 3.1023-3.7624 0.16479-1.4964-0.57297-3.7163-2.0462-4.0264-1.836-0.38643-3.2764 2.0301-4.3564 3.5643z" transform="matrix(.73094 1.1263 -.91289 .73094 48.169 -20.034)" stroke="#000" stroke-width=".08" fill="url(#a)"/></g><g transform="matrix(-.68366 .46148 .37403 .68366 17.989 195.33)"><path d="m27.482 6.6057c0.1376 0.64768 0.80256 1.1277 1.9974 1.433 1.2128 0.28992 2.1325 0.17984 2.7654-0.3328 0.52736-0.42496 0.4672-0.85248-0.18048-1.28-0.3744-0.23744-1.0496-0.61248-2.0224-1.1251-0.59712-0.46208-1.2122-0.5472-1.8426-0.25728-0.63232 0.28992-0.86976 0.8128-0.71744 1.5622z" transform="matrix(6.3973 1.6578 1.4924 -7.106 -185.08 12.106)" fill="url(#e)"/><path d="m7.3927 12.673c-0.5149 1.6629 0.34776 3.6708 1.4521 5.0165 1.7293 2.1071 4.5504 3.4711 7.2607 3.7624 2.5154 0.27033 5.2999-0.46622 7.3267-1.9802 1.3453-1.0049 2.3585-2.635 2.6402-4.2904 0.381-2.242-0.052-4.874-1.453-6.6662-1.103-1.4108-3.033-2.2369-4.818-2.3762-2.505-0.1955-4.985 1.0499-7.195 2.2442-1.98 1.0701-4.5485 2.1402-5.2143 4.2902z" stroke="#000" stroke-width=".08" fill="url(#b)"/><path d="m14.719 13.399c-0.60485 0.85928-1.5362 2.0355-1.0561 2.9703 0.69034 1.3442 2.913 1.7014 4.3564 1.2541 1.5526-0.4811 2.9244-2.1466 3.1023-3.7624 0.16479-1.4964-0.57297-3.7163-2.0462-4.0264-1.836-0.38643-3.2764 2.0301-4.3564 3.5643z" stroke="#000" stroke-width=".08" fill="url(#a)"/></g></g></g></g></g></g></g></svg>
