<?xml version="1.0" encoding="UTF-8" standalone="no"?>
<!-- Created with Inkscape (http://www.inkscape.org/) -->

<svg
   xmlns:dc="http://purl.org/dc/elements/1.1/"
   xmlns:cc="http://creativecommons.org/ns#"
   xmlns:rdf="http://www.w3.org/1999/02/22-rdf-syntax-ns#"
   xmlns:svg="http://www.w3.org/2000/svg"
   xmlns="http://www.w3.org/2000/svg"
   xmlns:sodipodi="http://sodipodi.sourceforge.net/DTD/sodipodi-0.dtd"
   xmlns:inkscape="http://www.inkscape.org/namespaces/inkscape"
   id="svg3055"
   version="1.1"
   inkscape:version="0.48.5 r10040"
   width="48"
   height="48"
   sodipodi:docname="boomerang-orange-48.svg">
  <metadata
     id="metadata3061">
    <rdf:RDF>
      <cc:Work
         rdf:about="">
        <dc:format>image/svg+xml</dc:format>
        <dc:type
           rdf:resource="http://purl.org/dc/dcmitype/StillImage" />
        <dc:title></dc:title>
      </cc:Work>
    </rdf:RDF>
  </metadata>
  <defs
     id="defs3059" />
  <sodipodi:namedview
     pagecolor="#ffffff"
     bordercolor="#666666"
     borderopacity="1"
     objecttolerance="10"
     gridtolerance="10"
     guidetolerance="10"
     inkscape:pageopacity="0"
     inkscape:pageshadow="2"
     inkscape:window-width="1222"
     inkscape:window-height="665"
     id="namedview3057"
     showgrid="false"
     inkscape:zoom="9.8611111"
     inkscape:cx="5.9261697"
     inkscape:cy="46.347562"
     inkscape:window-x="0"
     inkscape:window-y="0"
     inkscape:window-maximized="0"
     inkscape:current-layer="g3104" />
  <g
     id="g3104"
     transform="matrix(0.34860024,0,0,0.34903378,-0.06434705,-1.5900347)">
    <path
       style="fill:#ff521d;fill-opacity:1;stroke:#000000;stroke-width:4.19501448;stroke-linecap:butt;stroke-linejoin:miter;stroke-miterlimit:0;stroke-opacity:1;stroke-dasharray:none;stroke-dashoffset:0;marker-start:none"
       d="m 120.19434,137.72849 c -1.63027,-2.51719 -2.42706,-8.29436 -4.26548,-30.92677 -1.43609,-17.67947 -3.68152,-32.967674 -6.298,-42.880429 -1.18208,-4.478469 -1.86288,-8.142671 -1.51285,-8.142671 1.22504,0 15.67094,14.028371 21.04356,20.435354 l 5.42259,6.466553 -0.65016,9.852868 c -0.67795,10.273735 -3.04039,33.749375 -4.01654,39.912265 -1.10081,6.95009 -6.68004,9.98144 -9.72312,5.28283 z m 9.50971,-73.091928 C 126.89046,61.438524 121.14492,56.039855 116.93616,52.63952 94.378337,34.414564 74.065199,27.82017 25.223717,22.86627 8.7336183,21.19371 2.9165793,19.441097 2.9165793,16.145366 c 0,-4.169146 4.3867274,-5.748804 20.0891267,-7.2340821 21.821752,-2.0641021 66.585737,-2.0437644 78.380274,0.035615 22.44799,3.9575761 28.12003,9.0764801 31.38112,28.3209201 1.32287,7.806505 3.17109,33.254447 2.41168,33.206185 -0.19752,-0.01255 -2.66116,-2.639399 -5.47473,-5.837437 z"
       id="path3106"
       inkscape:connector-curvature="0" />
  </g>
</svg>
