<?xml version="1.0" encoding="UTF-8" standalone="no"?>
<!-- Created with Inkscape (http://www.inkscape.org/) -->

<svg
   xmlns:dc="http://purl.org/dc/elements/1.1/"
   xmlns:cc="http://creativecommons.org/ns#"
   xmlns:rdf="http://www.w3.org/1999/02/22-rdf-syntax-ns#"
   xmlns:svg="http://www.w3.org/2000/svg"
   xmlns="http://www.w3.org/2000/svg"
   xmlns:sodipodi="http://sodipodi.sourceforge.net/DTD/sodipodi-0.dtd"
   xmlns:inkscape="http://www.inkscape.org/namespaces/inkscape"
   id="svg3055"
   version="1.1"
   inkscape:version="0.48.5 r10040"
   width="24"
   height="24"
   sodipodi:docname="boomerang-white.svg">
  <metadata
     id="metadata3061">
    <rdf:RDF>
      <cc:Work
         rdf:about="">
        <dc:format>image/svg+xml</dc:format>
        <dc:type
           rdf:resource="http://purl.org/dc/dcmitype/StillImage" />
        <dc:title></dc:title>
      </cc:Work>
    </rdf:RDF>
  </metadata>
  <defs
     id="defs3059" />
  <sodipodi:namedview
     pagecolor="#ffffff"
     bordercolor="#666666"
     borderopacity="1"
     objecttolerance="10"
     gridtolerance="10"
     guidetolerance="10"
     inkscape:pageopacity="0"
     inkscape:pageshadow="2"
     inkscape:window-width="1222"
     inkscape:window-height="665"
     id="namedview3057"
     showgrid="false"
     inkscape:zoom="13.945717"
     inkscape:cx="38.940035"
     inkscape:cy="10.41585"
     inkscape:window-x="0"
     inkscape:window-y="0"
     inkscape:window-maximized="0"
     inkscape:current-layer="svg3055" />
  <g
     id="g3104"
     transform="matrix(0.17298124,0,0,0.17428766,0.06638591,-0.76850509)">
    <path
       style="fill:#e1e1e1"
       d="m 122.59785,140.455 c -2.41714,-2.41715 -3.28072,-7.44219 -5.06197,-29.455 -1.82164,-22.511844 -4.43065,-39.799331 -7.59963,-50.35576 -1.13194,-3.770668 -1.86538,-7.048439 -1.62989,-7.283936 0.88312,-0.883119 10.52707,7.646737 20.03054,17.716568 L 138.1738,81.5 l -0.67842,10 c -1.27231,18.75412 -4.43384,43.48031 -5.92919,46.37201 -2.20486,4.26371 -6.15106,5.40027 -8.96834,2.58299 z m 7.0587,-77.54414 C 119.22645,52.195782 107.68472,43.740437 95.5,37.888129 79.448178,30.178456 60.39907,25.967443 26,22.524393 3.8920837,20.311582 -1.5444526,18.188354 0.59850642,12.603892 2.3159614,8.1282763 10.830799,6.7546355 47.5,5.0375937 c 44.38153,-2.078173 73.05306,1.9946547 81.46187,11.5717633 5.73128,6.527568 9.36049,24.222842 8.84469,43.124945 L 137.5,70.968605 129.65655,62.91086 z"
       id="path3122"
       inkscape:connector-curvature="0" />
    <path
       style="fill:#d2d2d2"
       d="m 122.1233,139.42962 c -2.34765,-2.98455 -2.62014,-4.71254 -4.64087,-29.42962 -1.70014,-20.795684 -4.67273,-40.167824 -7.63558,-49.760406 -1.0928,-3.538078 -1.78194,-6.637837 -1.53142,-6.888353 1.24754,-1.247549 24.04539,20.696272 28.39586,27.332129 1.20759,1.841961 1.25702,4.343853 0.31616,16 -1.76996,21.9275 -3.95192,38.26989 -5.51256,41.28783 -2.43898,4.71647 -6.35096,5.32396 -9.39159,1.45842 z M 132.27042,65.125586 C 118.1509,49.073884 95.284369,35.354479 73.661971,29.961836 61.798941,27.003187 44.091884,24.27878 19.17761,21.578874 5.8440888,20.13395 1.5971238,18.719654 0.27931221,15.285493 -0.68598497,12.769969 4.9883471,8.3705053 10.116252,7.6586473 30.9157,4.7712585 81.321786,3.7917342 98.5,5.941116 c 14.39359,1.8009626 24.73412,5.293008 29.35415,9.91303 6.70993,6.709936 10.51722,23.721024 9.94424,44.431254 L 137.5,71.0708 132.27042,65.125586 z"
       id="path3120"
       inkscape:connector-curvature="0" />
    <path
       style="fill:#c3c3c3"
       d="m 122.75363,140.25 c -2.47739,-2.78564 -3.61381,-8.69453 -4.76004,-24.75 -1.94159,-27.196097 -4.38186,-42.539959 -9.61067,-60.429628 -0.68634,-2.348233 -0.55121,-2.315497 4.03374,0.977165 4.999,3.590006 18.17851,16.894617 22.92792,23.145555 l 2.80599,3.693092 -1.11229,13.306908 c -1.91788,22.944708 -4.02378,38.878198 -5.52117,41.773828 -2.20975,4.27318 -6.09372,5.28504 -8.76348,2.28308 z m 5.20792,-79.106255 C 110.22869,43.215148 91.733717,33.349099 65.997139,28.089158 54.486248,25.736608 38.627663,23.518255 22.5,22.004631 7.7835627,20.623454 3.5076545,19.562866 1.5841708,16.816708 -0.14634925,14.346045 0.78673725,11.837445 4.285184,9.5550441 9.1487403,6.3820401 59.934303,3.5195681 84.78865,5.0175552 104.15405,6.1847199 113.4146,7.9878939 122,12.263181 c 5.47853,2.728155 6.92637,4.022566 9.21314,8.236819 4.19222,7.725792 5.97882,17.213771 6.54345,34.75 0.27892,8.6625 0.33529,15.702185 0.12527,15.643745 -0.21002,-0.05844 -4.67416,-4.44594 -9.92031,-9.75 z"
       id="path3118"
       inkscape:connector-curvature="0" />
    <path
       style="fill:#b1b1b1"
       d="m 122.73009,140.25 c -2.42782,-2.68923 -3.50766,-9.00945 -5.25378,-30.75 -1.70676,-21.250333 -4.1632,-37.568801 -7.37389,-48.985615 -1.08049,-3.842088 -1.84264,-7.107502 -1.69366,-7.256476 0.74511,-0.745112 16.2687,13.646087 22.55893,20.913346 l 7.17361,8.287833 -0.64964,8.520456 c -1.12985,14.818866 -4.44686,44.134696 -5.13139,45.351316 -1.54643,2.74853 -4.83306,5.66914 -6.3796,5.66914 -0.91888,0 -2.38164,-0.7875 -3.25058,-1.75 z M 131.5,64.25864 C 120.5008,52.162323 106.9773,42.56044 91.299794,35.715912 77.014989,29.479413 62.328818,26.420788 28.03432,22.539887 6.3089149,20.081354 2.7339618,19.239937 1.1083607,16.202474 -0.16174486,13.82926 2.0737679,10.302651 5.7292509,8.912839 12.990903,6.1519636 62.492812,3.674285 84.229727,4.9837187 111.8829,6.6495485 125.54833,10.9604 130.62237,19.618588 c 4.59049,7.833085 6.49039,17.230915 7.10229,35.131412 0.30552,8.9375 0.37995,16.21785 0.16541,16.178556 C 137.67553,70.889262 134.8,67.8878 131.5,64.25864 z"
       id="path3116"
       inkscape:connector-curvature="0" />
    <path
       style="fill:#8f8f8f"
       d="m 123.25513,140.75 c -2.72582,-3.44252 -3.47576,-7.50389 -5.28811,-28.63807 -2.1322,-24.864063 -4.71594,-41.95506 -7.87155,-52.069008 -1.10806,-3.551392 -1.90199,-6.569738 -1.76429,-6.707435 0.76798,-0.767978 16.17397,13.436598 22.35984,20.616138 l 7.24111,8.404292 -0.47682,5.572041 c -1.89408,22.133702 -3.7504,40.322742 -4.54358,44.520002 -1.39454,7.37943 -6.74492,11.9793 -9.6566,8.30204 z m 4.6081,-79.948625 C 103.57682,36.359089 81.440284,27.998586 25.260912,22.05064 5.3097311,19.938325 1.6606125,18.85986 1.2026668,14.940436 0.78548827,11.369926 3.7269619,9.1012521 10.11182,8.0690605 33.200246,4.3365302 91.998823,4.1899102 108.70394,7.8232116 c 16.28475,3.5418744 21.92687,8.1409744 25.65158,20.9095544 2.16839,7.433412 3.81646,23.307289 3.4539,33.267234 L 137.5,70.5 127.86323,60.801375 z"
       id="path3114"
       inkscape:connector-curvature="0" />
    <path
       style="fill:#747474"
       d="M 123.08947,140.08947 C 120.7894,137.7894 119.32605,130.77456 118.48146,118 116.85957,93.468923 113.10828,68.147888 109.57774,57.900433 108.83865,55.755195 108.54171,54 108.91789,54 c 2.49699,0 19.81547,17.008272 26.75113,26.271965 2.41156,3.221023 2.42373,1.490229 -0.20901,29.728035 -2.16851,23.25858 -2.93536,27.0571 -6.00596,29.75 -3.12689,2.74227 -3.9195,2.78455 -6.36458,0.33947 z M 130,62.455397 C 116.19035,48.451588 101.17956,38.675611 84.150703,32.595435 73.232026,28.696907 55.263607,25.374387 29.681889,22.52367 4.5158606,19.719275 0.67621738,18.603214 1.1890948,14.241724 1.3879551,12.550624 2.5811488,10.971862 4.5,9.8609352 9.4109758,7.0177044 30.238367,5.5343125 65.5,5.5163243 c 27.098512,-0.013824 33.278313,0.2593561 40.34563,1.7834909 18.45287,3.9795388 24.3785,8.2107648 28.02288,20.0098898 2.55014,8.256412 4.33833,23.893669 3.94187,34.470717 L 137.5,70.060844 130,62.455397 z"
       id="path3112"
       inkscape:connector-curvature="0" />
    <path
       style="fill:#525252"
       d="m 123.82501,140.96188 c -2.72661,-1.59089 -3.71975,-6.4388 -5.31857,-25.96188 -1.91476,-23.381133 -4.08486,-38.93246 -7.10681,-50.928888 -1.30635,-5.185889 -2.25885,-9.545224 -2.11666,-9.687411 0.72186,-0.721869 14.74759,12.118765 20.88058,19.116299 l 7.01161,8 -0.57663,11.703375 c -0.55941,11.353855 -3.11324,36.898615 -4.16223,41.632745 -0.52385,2.36416 -4.67766,7.18941 -6.14085,7.13347 -0.4375,-0.0167 -1.5492,-0.4702 -2.47044,-1.00771 z m 5.65153,-79.032771 C 118.17985,50.498795 110.25653,44.756857 96.5,38.031402 78.947412,29.450083 63.498565,25.900531 26.706889,21.995622 16.388656,20.900489 6.352649,19.338533 4.4046515,18.524608 1.3974885,17.268135 0.91092885,16.626243 1.1814189,14.272372 1.6780226,9.9508033 6.3471774,8.3625082 23,6.8503979 42.498382,5.0799048 91.967019,5.0856301 102.47826,6.8595963 125.57019,10.756785 131.60485,15.796077 135.44533,34.389024 136.91697,41.513725 138.86621,70 137.88209,70 c -0.23595,0 -4.01845,-3.631901 -8.40555,-8.070891 z"
       id="path3110"
       inkscape:connector-curvature="0" />
    <path
       style="fill:#373737"
       d="m 121.68611,137.75095 c -1.04719,-2.20679 -2.12356,-9.92824 -3.14504,-22.56128 -1.9559,-24.189414 -3.96904,-38.67822 -7.07582,-50.92551 -1.34244,-5.292065 -2.23631,-9.826437 -1.98636,-10.076382 0.24994,-0.249944 6.61207,5.703181 14.13806,13.229168 l 13.68361,13.683612 -0.60642,11.199721 C 135.68763,110.88894 132.91298,133.25135 131.14795,137 c -1.29184,2.74369 -2.32019,3.56547 -4.75887,3.80299 -2.67498,0.26052 -3.33401,-0.16716 -4.70297,-3.05204 z M 133.01818,65.25 C 127.75282,59.225976 117.0694,49.91099 110.16628,45.32519 102.48002,40.219137 88.603585,33.542679 80.533531,31.067793 70.684184,28.047241 50.140263,24.439017 32,22.543623 9.9042192,20.234936 4.8588333,19.303278 2.6862284,17.130673 0.11866621,14.563111 1.2983036,11.186468 5.3463617,9.5161985 14.156927,5.8808697 85.522008,3.901463 102,6.8353796 c 13.63786,2.4282289 22.52266,5.7652224 26.21181,9.8447464 2.79793,3.094004 5.78918,10.821386 7.35318,18.995685 C 137.07803,43.583768 138.75195,70 137.74002,70 c -0.31353,0 -2.43835,-2.1375 -4.72184,-4.75 z"
       id="path3108"
       inkscape:connector-curvature="0" />
    <path
       style="fill:#ffffff;fill-opacity:1"
       d="M 122.42043,138.5189 C 120.73952,135.95352 119.91797,130.06573 118.02245,107 116.54176,88.982033 114.22658,73.401118 111.52884,63.298572 110.31004,58.734357 109.6081,55 109.96899,55 c 1.2631,0 16.15769,14.296961 21.69719,20.826612 l 5.59101,6.590364 -0.67036,10.041512 c -0.699,10.470442 -3.13482,34.395552 -4.14128,40.676432 -1.13501,7.08316 -6.88753,10.17255 -10.02512,5.38398 z M 132.2255,64.027538 C 129.32452,60.76827 123.40052,55.266237 119.06105,51.800798 95.802571,33.226904 74.858504,26.506252 24.5,21.457504 7.4977169,19.752921 1.5,17.966753 1.5,14.607921 c 0,-4.24897 4.5229797,-5.8588724 20.713098,-7.3725873 22.499538,-2.1036219 68.653898,-2.0828953 80.814782,0.036292 23.14523,4.0333483 28.99343,9.2502603 32.35581,28.8631573 1.36395,7.95597 3.26958,33.891143 2.48659,33.841957 -0.20365,-0.01279 -2.74381,-2.689934 -5.64478,-5.949202 z"
       id="path3106"
       inkscape:connector-curvature="0" />
  </g>
</svg>
