<?xml version="1.0" encoding="UTF-8" standalone="no"?>
<!-- Created with Inkscape (http://www.inkscape.org/) -->

<svg
   xmlns:dc="http://purl.org/dc/elements/1.1/"
   xmlns:cc="http://creativecommons.org/ns#"
   xmlns:rdf="http://www.w3.org/1999/02/22-rdf-syntax-ns#"
   xmlns:svg="http://www.w3.org/2000/svg"
   xmlns="http://www.w3.org/2000/svg"
   version="1.1"
   width="80.75"
   height="56.5"
   id="svg3055">
  <metadata
     id="metadata3061">
    <rdf:RDF>
      <cc:Work
         rdf:about="">
        <dc:format>image/svg+xml</dc:format>
        <dc:type
           rdf:resource="http://purl.org/dc/dcmitype/StillImage" />
        <dc:title></dc:title>
      </cc:Work>
    </rdf:RDF>
  </metadata>
  <defs
     id="defs3059" />
  <g
     transform="matrix(0.34860024,0,0,0.34903378,-0.06434705,6.909965)"
     id="g3104">
    <path
       d="m 220.76164,72.549515 c -3.89741,0.337282 -11.02393,-2.521617 -38.1501,-15.304455 -21.18984,-9.985413 -40.13331,-17.382119 -53.13277,-20.746313 -5.87299,-1.519928 -10.50134,-3.116777 -10.2852,-3.548606 0.75647,-1.511319 25.78695,-10.004019 36.46229,-12.371435 l 10.77463,-2.389447 10.91351,7.35439 c 11.3797,7.668564 36.88021,26.194711 43.35488,31.49739 7.3017,5.979957 7.33771,14.878891 0.0628,15.508476 z M 142.69539,12.21031 c -5.41,1.344359 -15.1577,4.842386 -21.66154,7.77342 C 86.174927,35.693242 66.058596,56.368003 30.209935,113.32885 18.106538,132.56023 12.501828,138.57115 8.7170348,136.37944 3.9291923,133.60691 4.8239264,127.14455 12.81446,106.78493 23.918985,78.490968 51.584106,23.279616 61.255106,10.111584 79.66164,-14.950417 89.042642,-18.543821 113.1566,-9.769174 c 9.78184,3.5594257 40.14744,18.2025489 39.62309,19.1073181 -0.13639,0.2353316 -4.67435,1.5278129 -10.08434,2.8721439 z"
       id="path3106"
       style="fill:#00b3d7;fill-opacity:1;stroke:#000000;stroke-width:10.32028675;stroke-linecap:butt;stroke-linejoin:miter;stroke-miterlimit:0;stroke-opacity:1;stroke-dasharray:none;stroke-dashoffset:0;marker-start:none" />
  </g>
</svg>
