<svg xmlns:rdf="http://www.w3.org/1999/02/22-rdf-syntax-ns#" xmlns="http://www.w3.org/2000/svg" height="185.51" width="185.73" version="1.1" xmlns:cc="http://creativecommons.org/ns#" xmlns:dc="http://purl.org/dc/elements/1.1/" viewBox="0 0 185.73383 185.51362">
<g transform="matrix(.45510 -.86797 .86816 .455 -448.18 228.84)" stroke="#f93" stroke-width="5.1016" fill="none">
<g transform="matrix(2.8614,5.5844,-5.5844,2.8614,3902.7,-2617)" stroke="#f93" stroke-width=".81303" fill="none">
<g transform="matrix(.091125 0 0 .091125 225.82 704.08)" stroke="#f93" stroke-width="8.9221" fill="none">
<g transform="matrix(.75097 .88649 -.92617 .71879 528.12 -163.26)" stroke="#f93" stroke-width="7.6483" fill="none">
<g transform="matrix(1.0006,-8.0952e-4,-8.0816e-4,1.001,2.3617,-5.3318)" stroke="#f93" stroke-width="7.6422" fill="none">
<path d="m-516.57 898.9c-1.9714 2.5273-4.687 7.219-5.7444 10.246-0.8948 2.5613-1.8092 5.3108-1.5119 8.0076 0.41725 3.7849 2.0131 7.6104 4.4972 10.496 2.6848 3.1194 6.5514 5.3827 10.511 6.5089 3.2058 0.9119 6.7193 0.5848 9.9981-0.016 5.0848-0.9322 9.9892-2.9474 14.488-5.4926 6.0941-3.4488 11.274-8.346 16.509-12.996 8.4583-7.5142 16.285-15.726 24.004-23.998 8.1396-8.7241 15.508-18.72 22.56-27.764 10.794-13.844 17.605-22.943 27.475-35.615 5.8768-7.5457 17.113-22.962 23.974-29.627 3.7363-3.6294 7.3621-7.5973 11.979-10.003 3.3709-1.7574 7.2279-2.6349 11.009-2.9931 2.1611-0.20273 4.3546 0.0829 6.488 0.4975 3.7806 0.73124 7.4806 1.9895 11.019 3.4959 11.671 5.3635 24.552 17.573 43.499 37 11.663 9.6464 29.461 28.734 45.996 49.013 4.4797 4.521 15.148 18.325 19.497 22.977 3.0772 3.2889 6.602 6.5143 9.6734 9.8103 2.3276 2.5034 7.4007 5.9415 10.339 7.7075 3.4697 2.1024 7.4693 3.414 11.483 3.9906 3.468 0.5015 7.1528 0.4914 10.519-0.4997 3.5012-1.0356 6.4612-3.4343 9.4837-5.4979 1.7573-1.2055 3.8236-3.4639 4.9983-5.2485 1.7219-2.5969 2.0969-4.6625 2.5173-7.7459 0.31675-2.3143 0.45515-4.714-0.008-6.9974-0.77426-3.7322-2.3643-7.3437-4.4994-10.497-3.042-4.4926-7.3855-7.9907-11.511-11.514-8.4509-7.1958-17.711-11.837-26.641-18.426-10.246-7.5616-20.914-18.604-30.856-26.571-15.497-15.315-30.537-29.926-50.496-49.51-4.4804-5.1613-9.2566-10.065-14.009-14.984-6.8796-7.1185-13.444-14.609-20.998-21.007-3.2821-2.7797-5.4012-4.2135-9.4296-5.7262-5.7737-2.0747-14.459-2.4106-20.569-0.75305-4.53 1.5167-8.9994 3.2365-12.982 5.8722-5.4528 3.6121-9.2116 6.4295-14.034 10.838-14.615 13.779-26.039 30.704-37.986 45.268-12.254 14.899-22.989 30.07-35.792 44.5-8.5296 9.6129-18.186 19.357-27.702 27.993-7.0357 6.3856-15.213 11.924-23.999 17.522-5.6728 3.615-9.6122 6.4352-13.75 11.739z" stroke="#f93" stroke-width="7.6422" fill="none"/>
</g>
</g>
</g>
</g>
</g>
</svg>
