<?xml version="1.0" encoding="UTF-8" standalone="no"?>
<!-- Created with Inkscape (http://www.inkscape.org/) -->

<svg
   xmlns:dc="http://purl.org/dc/elements/1.1/"
   xmlns:cc="http://creativecommons.org/ns#"
   xmlns:rdf="http://www.w3.org/1999/02/22-rdf-syntax-ns#"
   xmlns:svg="http://www.w3.org/2000/svg"
   xmlns="http://www.w3.org/2000/svg"
   xmlns:sodipodi="http://sodipodi.sourceforge.net/DTD/sodipodi-0.dtd"
   xmlns:inkscape="http://www.inkscape.org/namespaces/inkscape"
   id="svg3055"
   version="1.1"
   inkscape:version="0.48.5 r10040"
   width="61.75"
   height="40.5"
   sodipodi:docname="boomerang-orange-48.svg">
  <metadata
     id="metadata3061">
    <rdf:RDF>
      <cc:Work
         rdf:about="">
        <dc:format>image/svg+xml</dc:format>
        <dc:type
           rdf:resource="http://purl.org/dc/dcmitype/StillImage" />
        <dc:title></dc:title>
      </cc:Work>
    </rdf:RDF>
  </metadata>
  <defs
     id="defs3059" />
  <sodipodi:namedview
     pagecolor="#ffffff"
     bordercolor="#666666"
     borderopacity="1"
     objecttolerance="10"
     gridtolerance="10"
     guidetolerance="10"
     inkscape:pageopacity="0"
     inkscape:pageshadow="2"
     inkscape:window-width="1222"
     inkscape:window-height="665"
     id="namedview3057"
     showgrid="false"
     inkscape:zoom="6.9728585"
     inkscape:cx="29.545843"
     inkscape:cy="19.783053"
     inkscape:window-x="0"
     inkscape:window-y="0"
     inkscape:window-maximized="0"
     inkscape:current-layer="g3104" />
  <g
     id="g3104"
     transform="matrix(0.34860024,0,0,0.34903378,-0.06434705,-9.090035)">
    <path
       style="fill:#ff521d;fill-opacity:1;stroke:#000000;stroke-width:7.634377;stroke-linecap:butt;stroke-linejoin:miter;stroke-miterlimit:0;stroke-opacity:1;stroke-dasharray:none;stroke-dashoffset:0;marker-start:none"
       d="m 169.47504,92.344679 c -2.99196,0.240424 -8.46283,-1.79748 -29.28698,-10.909447 -16.26696,-7.117884 -30.80944,-12.390464 -40.788834,-14.788557 -4.508562,-1.083447 -8.061642,-2.221726 -7.895715,-2.529546 0.58072,-1.077311 19.796059,-7.131147 27.991279,-8.818708 l 8.27144,-1.703265 8.37806,5.242417 c 8.73594,5.466368 28.31211,18.672328 33.28257,22.452227 5.60535,4.262682 5.63299,10.606093 0.0482,11.054879 z M 109.54533,49.333193 C 105.39219,50.29149 97.909106,52.784982 92.91625,54.874306 66.155839,66.072489 50.712983,80.810041 23.192771,121.41334 13.901265,135.12201 9.598655,139.40676 6.6931544,137.84445 3.0176352,135.86811 3.7045025,131.26156 9.838656,116.74865 18.36335,96.579914 39.601242,57.223706 47.025452,47.837162 61.155735,29.972261 68.357319,27.410781 86.869063,33.665597 c 7.509296,2.537259 30.820287,12.97529 30.417757,13.620235 -0.1047,0.167751 -3.58839,1.089068 -7.74152,2.047345 z"
       id="path3106"
       inkscape:connector-curvature="0" />
  </g>
</svg>
