<svg xmlns:rdf="http://www.w3.org/1999/02/22-rdf-syntax-ns#" xmlns="http://www.w3.org/2000/svg" height="400" width="650" version="1.1" xmlns:cc="http://creativecommons.org/ns#" xmlns:dc="http://purl.org/dc/elements/1.1/" viewBox="0 0 650.00001 400.00002">
<g transform="translate(0 -652.36)">
<g transform="translate(-386.2 -145.43)">
<g fill="#fff">
<path d="m672.13 826.53c-0.12872 0-0.23188 0.10319-0.23188 0.23187 0 0.12871 0.10316 0.23462 0.23188 0.23462 0.12869 0 0.23186-0.10591 0.23186-0.23462 0-0.12868-0.10317-0.23187-0.23186-0.23187zm-18.966-3.9543c-0.0697 0-0.12546 0.0556-0.12546 0.1255 0 0.0697 0.0557 0.1282 0.12546 0.1282 0.0698 0 0.1255-0.0584 0.1255-0.1282 0-0.0697-0.0557-0.1255-0.1255-0.1255zm-87.008 4.9956c-0.0811 0-0.14732 0.066-0.14732 0.14732 0 0.0811 0.0661 0.14458 0.14732 0.14458 0.0811 0 0.14456-0.0635 0.14456-0.14458 0-0.0811-0.0635-0.14732-0.14456-0.14732zm88.446-2.2103c-0.0971 0-0.17734 0.0803-0.17734 0.17731 0 0.0971 0.0803 0.1746 0.17734 0.1746 0.0971 0 0.17459-0.0775 0.17459-0.1746s-0.0775-0.17731-0.17459-0.17731zm-1.0994 0.0163c-0.0831 0-0.15001 0.067-0.15001 0.15004 0 0.083 0.067 0.15002 0.15001 0.15002 0.0831 0 0.15006-0.067 0.15006-0.15002 0-0.0831-0.0671-0.15004-0.15006-0.15004zm-17.363 5.021c-0.14209 0-0.25642 0.11434-0.25642 0.25642 0 0.14209 0.11432 0.25915 0.25642 0.25915 0.14207 0 0.25915-0.11706 0.25915-0.25915 0-0.14208-0.11708-0.25642-0.25915-0.25642zm-84.676-4.66c-0.0757 0-0.1391 0.0607-0.1391 0.13637 0 0.0757 0.0635 0.13641 0.1391 0.13641 0.0757 0 0.1364-0.0607 0.1364-0.13641 0-0.0757-0.0607-0.13637-0.1364-0.13637zm-40.361-7.7606c-0.11776 0-0.21278 0.095-0.21278 0.21277s0.095 0.21279 0.21278 0.21279c0.11776 0 0.21277-0.095 0.21277-0.21279 0-0.11776-0.095-0.21277-0.21277-0.21277zm-17.64 0.075c-0.161 0-0.29187 0.13088-0.29187 0.29189 0 0.16103 0.13087 0.29192 0.29187 0.29192 0.16102 0 0.29189-0.13088 0.29189-0.29192 0-0.16101-0.13086-0.29189-0.29189-0.29189zm161.09 8.9273c-0.0624 0-0.11183 0.0523-0.11183 0.11455 0 0.0624 0.0496 0.11185 0.11183 0.11185 0.0624 0 0.11185-0.0495 0.11185-0.11185 0-0.0624-0.0496-0.11455-0.11185-0.11455zm-91.891 4.7337c-0.0724 0-0.13094 0.0586-0.13094 0.13095 0 0.0724 0.0586 0.13093 0.13094 0.13093 0.0724 0 0.13095-0.0585 0.13095-0.13093 0-0.0724-0.0586-0.13095-0.13095-0.13095zm-49.142-12.633c-0.0951 0-0.17188 0.0794-0.17188 0.17458 0 0.0951 0.0768 0.17186 0.17188 0.17186 0.0951 0 0.17186-0.0767 0.17186-0.17186 0-0.0951-0.0767-0.17458-0.17186-0.17458zm-1.5249 0.30006c-0.15553 0-0.28373 0.1282-0.28373 0.28369 0 0.15554 0.1282 0.281 0.28373 0.281 0.15549 0 0.28098-0.12546 0.28098-0.281 0-0.15549-0.12549-0.28369-0.28098-0.28369zm2.52 0.23c-0.14565 0-0.2646 0.11896-0.2646 0.26461 0 0.14564 0.11895 0.26188 0.2646 0.26188 0.14566 0 0.26462-0.11625 0.26462-0.26188 0-0.14565-0.11897-0.26461-0.26462-0.26461zm52.926 14.163c-0.0785 0-0.14187 0.0634-0.14187 0.14186 0 0.0785 0.0634 0.14186 0.14187 0.14186 0.0785 0 0.14185-0.0634 0.14185-0.14186 0-0.0786-0.0634-0.14186-0.14185-0.14186zm65.429 0.4501c-0.0966 0-0.17461 0.078-0.17461 0.17459 0 0.0966 0.0781 0.17459 0.17461 0.17459 0.0966 0 0.17459-0.078 0.17459-0.17459 0-0.0966-0.0781-0.17459-0.17459-0.17459zm7.028-0.46293c-0.0778 0-0.14185 0.0641-0.14185 0.14186 0 0.0778 0.0641 0.13913 0.14185 0.13913 0.0778 0 0.14187-0.0612 0.14187-0.13913 0-0.0778-0.0641-0.14186-0.14187-0.14186zm-34.765 12.096c-0.1076 0-0.19369 0.0888-0.19369 0.19641 0 0.10764 0.0861 0.1937 0.19369 0.1937 0.42777-0.024 0-0.38751 0-0.39011zm-108.3-24.8c-0.15751 0-0.28369 0.12891-0.28369 0.28644 0 0.15752 0.12618 0.28643 0.28369 0.28643 0.15752 0 0.28643-0.12891 0.28643-0.28643 0-0.15753-0.12891-0.28644-0.28643-0.28644zm55.488 8.4016c-0.10885 0-0.19643 0.0875-0.19643 0.19641 0 0.10883 0.0876 0.19914 0.19643 0.19914 0.10886 0 0.19642-0.0904 0.19642-0.19914 0-0.10884-0.0876-0.19641-0.19642-0.19641zm96.503 6.4934c-0.15524 0-0.28097 0.12572-0.28097 0.28097 0 0.15524 0.12573 0.281 0.28097 0.281s0.28099-0.12575 0.28099-0.281-0.12575-0.28097-0.28099-0.28097zm-75.11 7.0718c-0.0781 0-0.14185 0.0639-0.14185 0.14185 0 0.0781 0.0639 0.13913 0.14185 0.13913 0.0781 0 0.14186-0.061 0.14186-0.13913 0-0.0781-0.0639-0.14185-0.14186-0.14185zm59.335-7.0784c-0.0812 0-0.14729 0.066-0.14729 0.14732 0 0.0812 0.0659 0.14731 0.14729 0.14731 0.0812 0 0.14731-0.0659 0.14731-0.14731 0-0.0812-0.066-0.14732-0.14731-0.14732zm-95.905 10.696c-0.0829 0-0.15002 0.0673-0.15002 0.15004 0 0.0828 0.0673 0.15003 0.15002 0.15003 0.0828 0 0.15004-0.0673 0.15004-0.15003 0-0.0829-0.0673-0.15004-0.15004-0.15004zm87.24-14.651c-0.15219 0-0.27551 0.12333-0.27551 0.27552s0.12332 0.27553 0.27551 0.27553c0.1522 0 0.27554-0.12334 0.27554-0.27553s-0.12334-0.27552-0.27554-0.27552zm9.4962 4.9146c-0.058 0-0.10367 0.0458-0.10367 0.10365 0 0.0578 0.0459 0.1064 0.10367 0.1064 0.0578 0 0.10363-0.0485 0.10363-0.1064 0-0.058-0.0459-0.10365-0.10363-0.10365zm-77.865-0.43868c-0.0611 0-0.10913 0.0506-0.10913 0.11184 0 0.061 0.048 0.10912 0.10913 0.10912 0.0611 0 0.11185-0.048 0.11185-0.10912 0-0.0612-0.0508-0.11184-0.11185-0.11184zm-51.243-19.938c-0.10801 0-0.19642 0.0883-0.19642 0.19644 0 0.10799 0.0885 0.19642 0.19642 0.19642 0.10799 0 0.19368-0.0884 0.19368-0.19642 0-0.10803-0.0857-0.19644-0.19368-0.19644zm125.97 13.006c-0.14017 0-0.2537 0.11354-0.2537 0.25371 0 0.14016 0.11353 0.25369 0.2537 0.25369 0.14018 0 0.25368-0.11353 0.25368-0.25369 0-0.14018-0.11351-0.25371-0.25368-0.25371zm-71.445 8.4133c-0.128 0-0.23189 0.10116-0.23189 0.22915s0.1039 0.23186 0.23189 0.23186c0.12797 0 0.23186-0.10387 0.23186-0.23186s-0.1039-0.22915-0.23186-0.22915zm-22.246 11.14c-0.15608 0-0.2837 0.1276-0.2837 0.2837 0 0.15609 0.12762 0.2837 0.2837 0.2837 0.1561 0 0.28097-0.12761 0.28097-0.2837 0-0.1561-0.12487-0.2837-0.28097-0.2837zm162.25-17.16c-0.16039 0-0.28917 0.12877-0.28917 0.28916 0.0361 0.63605 0.57777 0 0.58105 0 0-0.16039-0.13149-0.28916-0.29188-0.28916zm0.61105 0.0491c-0.13938 0-0.25099 0.11434-0.25099 0.2537 0.0317 0.54758 0.50219 0 0.50467 0 0-0.13936-0.11432-0.2537-0.25368-0.2537zm-162.6 17.855c-0.0933 0-0.16914 0.0758-0.16914 0.16913 0 0.0933 0.0759 0.16915 0.16914 0.16915 0.0933 0 0.1664-0.0758 0.1664-0.16915 0-0.0933-0.0731-0.16913-0.1664-0.16913zm84.721-1.5846c-0.14618 0-0.26461 0.11843-0.26461 0.26463 0 0.14617 0.11843 0.26733 0.26461 0.26733 0.1462 0 0.26464-0.12116 0.26464-0.26733 0-0.1462-0.11844-0.26463-0.26464-0.26463zm-120.58-29.15c-0.15829 0-0.28643 0.12814-0.28643 0.28643 0 0.15831 0.12813 0.28645 0.28643 0.28645s0.28644-0.12814 0.28644-0.28645c0-0.15829-0.12814-0.28643-0.28644-0.28643zm58.228 21.1c-0.12759 0-0.23187 0.10427-0.23187 0.23188 0 0.12759 0.10428 0.23188 0.23187 0.23188 0.1276 0 0.23189-0.10429 0.23189-0.23188 0-0.12761-0.10429-0.23188-0.23189-0.23188zm8.95 29.951c-0.0978 0-0.17732 0.0795-0.17732 0.17732 0 0.0978 0.0795 0.17732 0.17732 0.17732 0.0978 0 0.17731-0.0795 0.17731-0.17732 0-0.0978-0.0795-0.17732-0.17731-0.17732zm8.4333 5.222c-0.0916 0-0.16641 0.0749-0.16641 0.16642 0 0.0916 0.0749 0.1664 0.16641 0.1664 0.0916 0 0.16639-0.0749 0.16639-0.1664 0-0.0916-0.0749-0.16642-0.16639-0.16642zm39.653-25.276c-0.0809 0-0.14731 0.0638-0.14731 0.14458 0 0.0808 0.0664 0.1473 0.14731 0.1473 0.0807 0 0.14459-0.0664 0.14459-0.1473 0-0.0808-0.0638-0.14458-0.14459-0.14458zm-40.998 25.671c-0.16193 0-0.2919 0.12997-0.2919 0.29189 0 0.16193 0.12996 0.29462 0.2919 0.29462 0.1619 0 0.29461-0.13269 0.29461-0.29462 0-0.16191-0.13271-0.29189-0.29461-0.29189zm-17.037-33.808c-0.0932 0-0.16913 0.0731-0.16913 0.16642 0 0.0932 0.0759 0.16913 0.16913 0.16913 0.0932 0 0.1664-0.0759 0.1664-0.16913 0-0.0933-0.0732-0.16642-0.1664-0.16642zm9.7354 29.795c-0.15292 0-0.27823 0.12257-0.27823 0.27551 0 0.15295 0.12531 0.27825 0.27823 0.27825 0.15295 0 0.27555-0.1253 0.27555-0.27825 0-0.15294-0.1226-0.27551-0.27555-0.27551zm67.808-29.007c-0.16112 0-0.2919 0.13076-0.2919 0.29188s0.13078 0.29188 0.2919 0.29188c0.16111 0 0.2919-0.13076 0.2919-0.29188 0-0.16111-0.13079-0.29188-0.2919-0.29188zm-60.488 34.155c-0.10872 0-0.19643 0.0877-0.19643 0.19641 0 0.10874 0.0877 0.19642 0.19643 0.19642 0.10872 0 0.19643-0.0877 0.19643-0.19642 0-0.1087-0.0877-0.19641-0.19643-0.19641zm43.369-24.528c-0.0605 0-0.10911 0.0486-0.10911 0.10913 0 0.0605 0.0485 0.10911 0.10911 0.10911 0.0606 0 0.10913-0.0485 0.10913-0.10911 0-0.0605-0.0486-0.10913-0.10913-0.10913zm1.9835 0.43647c-0.16008 0-0.2919 0.12907-0.2919 0.28916 0 0.16011 0.13182 0.28916 0.2919 0.28916s0.28916-0.12904 0.28916-0.28916c0-0.16008-0.12906-0.28916-0.28916-0.28916zm24.892 4.309c-0.0926 0-0.16912 0.0738-0.16912 0.16641 0 0.0925 0.0766 0.1664 0.16912 0.1664 0.0926 0 0.1664-0.0738 0.1664-0.1664s-0.0738-0.16641-0.1664-0.16641zm-94.3-10.83c-0.11253 0-0.2046 0.092-0.2046 0.20459 0 0.11251 0.092 0.2046 0.2046 0.2046 0.11251 0 0.20184-0.0921 0.20184-0.2046 0-0.11253-0.0893-0.20459-0.20184-0.20459zm90.84 13.892c-0.0942 0-0.17187 0.0749-0.17187 0.16914 0 0.0942 0.0776 0.17184 0.17187 0.17184 0.0942 0 0.16913-0.0776 0.16913-0.17184 0-0.0942-0.0749-0.16914-0.16913-0.16914zm-50.912 26.221c-0.10797 0-0.19641 0.0884-0.19641 0.19642 0 0.10795 0.0884 0.19368 0.19641 0.19368 0.10795 0 0.19369-0.0857 0.19369-0.19368 0-0.10795-0.0858-0.19642-0.19369-0.19642zm28.855-26.329c-0.0958 0-0.17458 0.0788-0.17458 0.17462 0 0.0958 0.0788 0.17188 0.17458 0.17188 0.0959 0 0.17186-0.0761 0.17186-0.17188 0-0.0958-0.076-0.17462-0.17186-0.17462zm16.29 1.5287c-0.0542 0-0.0927 0.0581-0.0927 0.11459 0 0.0642 0.0503 0.1173 0.11456 0.1173 0.0644 0 0.11731-0.053 0.11731-0.1173 0-0.0642-0.053-0.11459-0.11731-0.11459-0.01 0-0.0143-0.003-0.0218 0zm-27.846-0.95037c-0.0665 0-0.12003 0.0535-0.12003 0.12004 0 0.0665 0.0535 0.12003 0.12003 0.12003 0.0665 0 0.12002-0.0535 0.12002-0.12003 0-0.0665-0.0535-0.12004-0.12002-0.12004zm22.291 28.536c0 0.0822 0.0678 0.14731 0.15006 0.14731 0.0822 0 0.14729-0.0652 0.14729-0.14731-0.12271-0.22095-0.18896-0.12567-0.29735 0zm-81.827-40.543c-0.11703 0-0.21006 0.0957-0.21006 0.21277 0 0.11701 0.093 0.21005 0.21006 0.21005 0.11701 0 0.21277-0.093 0.21277-0.21005 0-0.11703-0.0958-0.21277-0.21277-0.21277zm69.082 12.619c-0.0735 0-0.13366 0.0599-0.13366 0.13366 0 0.0735 0.06 0.13366 0.13366 0.13366 0.0736 0 0.13366-0.06 0.13366-0.13366 0-0.0736-0.06-0.13366-0.13366-0.13366zm28.288 1.0786c-0.15654 0-0.28372 0.1272-0.28372 0.28371 0 0.15654 0.12719 0.28371 0.28372 0.28371s0.2837-0.12719 0.2837-0.28371c0-0.15653-0.12719-0.28371-0.2837-0.28371zm-9.5236 0.0927c-0.124 0-0.22643 0.10244-0.22643 0.22643 0 0.12401 0.10243 0.22371 0.22643 0.22371 0.12399 0 0.22367-0.0997 0.22367-0.22371 0-0.12399-0.0997-0.22643-0.22367-0.22643zm-28.555-0.17018c-0.0693 0-0.12548 0.0561-0.12548 0.12548 0 0.0695 0.0561 0.12549 0.12548 0.12549 0.0695 0 0.12549-0.0562 0.12549-0.12549 0-0.0694-0.0561-0.12548-0.12549-0.12548zm2.0923 0.81294c-0.0806 0-0.14458 0.0641-0.14458 0.14457 0 0.0807 0.0639 0.1473 0.14458 0.1473 0.0807 0 0.1473-0.0667 0.1473-0.1473s-0.0667-0.14457-0.1473-0.14457zm-63.195-10.86c-0.0918 0-0.16641 0.0746-0.16641 0.16639 0 0.0918 0.0746 0.16641 0.16641 0.16641 0.0918 0 0.16638-0.0747 0.16638-0.16641 0-0.0918-0.0747-0.16639-0.16638-0.16639zm-12.974-0.58186c-0.15733 0-0.28642 0.1291-0.28642 0.28645 0 0.15733 0.12909 0.28368 0.28642 0.28368 0.15735 0 0.28371-0.12635 0.28371-0.28368 0-0.15735-0.12637-0.28645-0.28371-0.28645zm75.263 13.406c-0.15406 0-0.27823 0.12416-0.27823 0.27825s0.12417 0.28097 0.27823 0.28097c0.15407 0 0.27826-0.12688 0.27826-0.28097s-0.12419-0.27825-0.27826-0.27825zm24.542 28.438c-0.14594 0-0.26461 0.1187-0.26461 0.26465 0 0.14591 0.11867 0.2646 0.26461 0.2646 0.14595 0 0.26462-0.11869 0.26462-0.2646 0-0.14596-0.11867-0.26465-0.26462-0.26465zm-6.3916 0.16643c-0.01-0.0609-0.10913 0.0507-0.10913 0.11185 0 0.0449 0.0245 0.0841 0.0626 0.10095-0.01 0-0.011-0.008-0.0163-0.008-0.0777 0-0.13911 0.0641-0.13911 0.14185 0 0.0778 0.0613 0.14183 0.13911 0.14183 0.0777 0 0.14186-0.0641 0.14186-0.14183 0-0.0582-0.14214-0.13092-0.0873-0.13092h0.01c0.0611 0 0.11184-0.048 0.11184-0.10916 0-0.0611-0.10576-0.051-0.11184-0.11182zm-34.462 0.893c-0.0677 0-0.12277 0.0551-0.12277 0.12278 0 0.0676 0.0551 0.12274 0.12277 0.12274 0.0676 0 0.12275-0.055 0.12275-0.12274 0-0.0676-0.055-0.12278-0.12275-0.12278zm-2.641-7.708c-0.0742 0-0.13365 0.0595-0.13365 0.13367 0 0.0742 0.0595 0.13365 0.13365 0.13365 0.0742 0 0.1364-0.0595 0.1364-0.13365 0-0.0742-0.0624-0.13367-0.1364-0.13367zm-59.667-43.662c-0.11299 0-0.2046 0.0916-0.2046 0.2046 0 0.11297 0.0916 0.20459 0.2046 0.20459 0.11297 0 0.20459-0.0916 0.20459-0.20459s-0.0916-0.2046-0.20459-0.2046z"/>
<path d="m882.2 1150.5c0.0814 0 0.14638-0.065 0.14638-0.1466 0-0.082-0.0649-0.1495-0.14638-0.1495-0.0814 0-0.14634 0.068-0.14634 0.1495 0 0.081 0.0649 0.1466 0.14634 0.1466zm86.787-36.41c0.095 0 0.1718-0.078 0.1718-0.172 0-0.095-0.077-0.1684-0.1718-0.1684-0.095 0-0.1686 0.074-0.1686 0.1684 0 0.095 0.074 0.172 0.1686 0.172zm-88.464 33.161c0.11322 0 0.20683-0.093 0.20683-0.2067 0-0.1132-0.0936-0.2035-0.20683-0.2035-0.1132 0-0.20361 0.09-0.20361 0.2035 0 0.1131 0.0904 0.2067 0.20361 0.2067zm1.2823-0.021c0.0969 0 0.17497-0.078 0.17497-0.1749 0-0.097-0.0781-0.1751-0.17497-0.1751-0.0969 0-0.175 0.078-0.175 0.1751 0 0.097 0.0781 0.1749 0.175 0.1749zm20.251 22.883c0.16569 0 0.29907-0.1333 0.29907-0.299s-0.13335-0.3023-0.29907-0.3023c-0.16573 0-0.30229 0.1366-0.30229 0.3023s0.13656 0.299 0.30229 0.299zm100.77-12.822c0.088 0 0.1623-0.07 0.1623-0.1589 0-0.088-0.074-0.1592-0.1623-0.1592-0.088 0-0.1591 0.071-0.1591 0.1592 0 0.088 0.071 0.1589 0.1591 0.1589zm-76.839 28.028c0.13734 0 0.24818-0.1109 0.24818-0.2483s-0.11084-0.2481-0.24818-0.2481c-0.13737 0-0.24817 0.1107-0.24817 0.2481s0.1108 0.2483 0.24817 0.2483zm23.022-8.6854c0.18781 0 0.34046-0.1527 0.34046-0.3405s-0.15265-0.3404-0.34046-0.3404c-0.18779 0-0.34043 0.1526-0.34043 0.3404s0.15263 0.3405 0.34043 0.3405zm-68.436-31.287c0.0728 0 0.13043-0.061 0.13043-0.1336 0-0.073-0.0578-0.1304-0.13043-0.1304-0.0728 0-0.13043 0.057-0.13043 0.1304 0 0.073 0.0579 0.1336 0.13043 0.1336zm92.482-36.105c0.084 0 0.1527-0.068 0.1527-0.1527 0-0.084-0.068-0.1525-0.1527-0.1525-0.084 0-0.1527 0.068-0.1527 0.1525 0 0.085 0.068 0.1527 0.1527 0.1527zm-49.89 74.776c0.11096 0 0.20045-0.093 0.20045-0.2038 0-0.111-0.0895-0.2004-0.20045-0.2004-0.11096 0-0.20044 0.089-0.20044 0.2004 0 0.111 0.0895 0.2038 0.20044 0.2038zm1.7786-0.35c0.1814 0 0.33094-0.1496 0.33094-0.331s-0.14953-0.3277-0.33094-0.3277c-0.18136 0-0.3277 0.1463-0.3277 0.3277s0.14634 0.331 0.3277 0.331zm-2.9492-0.2738c0.1699 0 0.30863-0.1387 0.30863-0.3086 0-0.1698-0.13876-0.3054-0.30863-0.3054-0.1699 0-0.30864 0.1357-0.30864 0.3054 0 0.1699 0.13876 0.3086 0.30864 0.3086zm45.478-76.56c0.091 0 0.1655-0.074 0.1655-0.1653 0-0.091-0.074-0.1656-0.1655-0.1656-0.092 0-0.1655 0.075-0.1655 0.1656 0 0.091 0.074 0.1653 0.1655 0.1653zm-61.618 58.798c0.11265 0 0.20364-0.091 0.20364-0.2038 0-0.1126-0.091-0.2036-0.20364-0.2036-0.11265 0-0.20365 0.091-0.20365 0.2036 0 0.1127 0.0909 0.2038 0.20365 0.2038zm-8.1971 0.5399c0.0907 0 0.16545-0.075 0.16545-0.1655 0-0.09-0.0748-0.1621-0.16545-0.1621-0.0907 0-0.16545 0.071-0.16545 0.1621 0 0.091 0.0748 0.1655 0.16545 0.1655zm52.197-95.503c0.12552 0 0.22592-0.1035 0.22592-0.229s-0.1004-0.2259-0.22592-0.2259c-0.1255 0-0.22907 0.1004-0.22907 0.2259s0.10356 0.229 0.22907 0.229zm-4.779 9.5551c0.18373 0 0.33089-0.1504 0.33089-0.3341s-0.14716-0.334-0.33089-0.334c-0.18372 0-0.33408 0.1503-0.33408 0.334s0.15036 0.3341 0.33408 0.3341zm56.744 72.699c0.1269 0 0.2291-0.1022 0.2291-0.229 0-0.127-0.1022-0.2324-0.2291-0.2324s-0.2291 0.1054-0.2291 0.2324c0 0.1268 0.1022 0.229 0.2291 0.229zm-32.462-48.304c0.091 0 0.1655-0.074 0.1655-0.1655 0-0.091-0.074-0.1621-0.1655-0.1621-0.091 0-0.1655 0.071-0.1655 0.1621 0 0.091 0.075 0.1655 0.1655 0.1655zm-63.706 58.995c0.0947 0 0.17178-0.077 0.17178-0.1715 0-0.095-0.077-0.172-0.17178-0.172-0.0948 0-0.17183 0.078-0.17183 0.172 0 0.095 0.077 0.1715 0.17183 0.1715zm49.944-145.99c0.097 0 0.175-0.078 0.175-0.175s-0.078-0.175-0.175-0.175-0.175 0.078-0.175 0.175 0.078 0.175 0.175 0.175zm-39.829 162.1c0.17753 0 0.32136-0.1438 0.32136-0.3214 0-0.1774-0.14383-0.3213-0.32136-0.3213-0.17749 0-0.32133 0.1439-0.32133 0.3213 0 0.1776 0.14384 0.3214 0.32133 0.3214zm-11.076-17.228c0.0676 0 0.12091-0.053 0.12091-0.1209 0-0.067-0.0535-0.1241-0.12091-0.1241-0.0675 0-0.12089 0.056-0.12089 0.1241 0 0.067 0.0535 0.1209 0.12089 0.1209zm19.481 15.901c0.12599 0 0.22908-0.1031 0.22908-0.2292 0-0.1258-0.10309-0.229-0.22908-0.229-0.12597 0-0.22592 0.1032-0.22592 0.229 0 0.1261 0.0999 0.2292 0.22592 0.2292zm-15.818-7.3046c0.16347 0 0.29587-0.1323 0.29587-0.2959 0-0.1633-0.1324-0.2959-0.29587-0.2959-0.1635 0-0.29593 0.1326-0.29593 0.2959 0 0.1636 0.13243 0.2959 0.29593 0.2959zm47.361-156.32c0.1821 0 0.3309-0.1488 0.3309-0.3309s-0.1488-0.3309-0.3309-0.3309-0.3277 0.1488-0.3277 0.3309 0.1456 0.3309 0.3277 0.3309zm-0.3179-0.8654c0.1088 0 0.1972-0.088 0.1972-0.1973 0-0.1088-0.088-0.1973-0.1972-0.1973-0.1089 0-0.1941 0.088-0.1941 0.1973 0 0.1088 0.085 0.1973 0.1941 0.1973zm-36.9 53.965c0.1705 0 0.30863-0.138 0.30863-0.3085s-0.13813-0.3117-0.30863-0.3117c-0.17051 0-0.30863 0.1412-0.30863 0.3117s0.13812 0.3085 0.30863 0.3085zm21.193 107.53c0.18463 0 0.33407-0.1494 0.33407-0.334 0-0.1847-0.14944-0.3341-0.33407-0.3341-0.18465 0-0.33408 0.1494-0.33408 0.3341 0 0.1846 0.14943 0.334 0.33408 0.334zm24.564-88.151c0.1067 0 0.194-0.087 0.194-0.1939s-0.087-0.1943-0.194-0.1943c-0.1068 0-0.1941 0.087-0.1941 0.1943 0 0.1066 0.087 0.1939 0.1941 0.1939zm-39.553-21.532c0.0942 0 0.1718-0.074 0.1718-0.1688 0-0.094-0.0775-0.1717-0.1718-0.1717s-0.16864 0.077-0.16864 0.1717c0 0.094 0.0744 0.1688 0.16864 0.1688zm41.122 21.071c0.1888 0 0.3404-0.1516 0.3404-0.3405 0-0.1888-0.1516-0.3435-0.3404-0.3435-0.1889 0-0.3437 0.1547-0.3437 0.3435 0 0.1889 0.1548 0.3405 0.3437 0.3405zm-63.876 68.896c0.18791 0 0.34045-0.1525 0.34045-0.3403 0-0.188-0.15254-0.3406-0.34045-0.3406-0.18794 0-0.34047 0.1526-0.34047 0.3406 0 0.1878 0.15253 0.3403 0.34047 0.3403zm63.853-70.219c0.1268 0 0.2291-0.1022 0.2291-0.2291 0-0.1268-0.1023-0.2291-0.2291-0.2291s-0.2291 0.1023-0.2291 0.2291c0 0.1269 0.1023 0.2291 0.2291 0.2291zm-43.887-22.404c0.0706 0 0.12727-0.057 0.12727-0.1272 0-0.07-0.0567-0.1273-0.12727-0.1273-0.0706 0-0.12727 0.057-0.12727 0.1273 0 0.071 0.0567 0.1272 0.12727 0.1272zm-2.3134-0.5091c0.1867 0 0.34043-0.1506 0.34043-0.3372 0-0.1867-0.15371-0.3373-0.34043-0.3373s-0.33728 0.1506-0.33728 0.3373c0 0.1866 0.15054 0.3372 0.33728 0.3372zm-29.033 59.63c0.108 0 0.19728-0.086 0.19728-0.1941 0-0.108-0.0893-0.1941-0.19728-0.1941-0.108 0-0.19407 0.086-0.19407 0.1941 0 0.108 0.0861 0.1941 0.19407 0.1941zm113.24-21.354c0.1312 0 0.2386-0.1074 0.2386-0.2384 0-0.1315-0.1074-0.2387-0.2386-0.2387-0.1313 0-0.2355 0.1072-0.2355 0.2387 0 0.131 0.1042 0.2384 0.2355 0.2384zm-109.19 17.798c0.10994 0 0.20041-0.087 0.20041-0.1972 0-0.1099-0.0904-0.2005-0.20041-0.2005-0.10994 0-0.19728 0.091-0.19728 0.2005 0 0.1098 0.0874 0.1972 0.19728 0.1972zm79.034-44.23c0.1259 0 0.2291-0.1033 0.2291-0.2292s-0.1032-0.2258-0.2291-0.2258c-0.126 0-0.2259 0.1-0.2259 0.2258 0 0.1259 0.1 0.2292 0.2259 0.2292zm-53.27-20.36c0.11176 0 0.20362-0.092 0.20362-0.2037 0-0.1118-0.0919-0.2004-0.20362-0.2004-0.11181 0-0.20047 0.089-0.20047 0.2004 0 0.1119 0.0886 0.2037 0.20047 0.2037zm-19 62.872c-0.0632 0 0.10818-0.068 0.10818-0.1336 0-0.075-0.0586-0.1367-0.13364-0.1367-0.075 0-0.13681 0.062-0.13681 0.1367 0 0.075 0.0617 0.1336 0.13681 0.1336 0.01 0 0.0166 0.01 0.0255 0zm44.127-63.547c0.0776 0 0.13999-0.063 0.13999-0.1401 0-0.077-0.0624-0.14-0.13999-0.14-0.0776 0-0.14001 0.063-0.14001 0.14 0 0.078 0.0625 0.1401 0.14001 0.1401zm61.032 44.658c0.1364 0 0.2449-0.1119 0.2449-0.2482 0-0.1364-0.1085-0.2449-0.2449-0.2449-0.1366 0-0.2482 0.1085-0.2482 0.2449 0 0.1363 0.1116 0.2482 0.2482 0.2482zm-83.812-45.374c0.0859 0 0.15592-0.07 0.15592-0.1559 0-0.086-0.07-0.1559-0.15592-0.1559-0.0859 0-0.15589 0.07-0.15589 0.1559 0 0.086 0.07 0.1559 0.15589 0.1559zm-32.994 63.397c0.18259 0 0.33088-0.1485 0.33088-0.3309 0-0.1826-0.14833-0.3309-0.33088-0.3309s-0.3309 0.1483-0.3309 0.3309c0 0.1824 0.14835 0.3309 0.3309 0.3309zm11.108-0.1082c0.14461 0 0.26407-0.1196 0.26407-0.2642 0-0.1445-0.11946-0.2608-0.26407-0.2608-0.14462 0-0.2609 0.1162-0.2609 0.2608s0.11628 0.2642 0.2609 0.2642zm44.954-64.457c0.0809 0 0.14636-0.065 0.14636-0.1463 0-0.081-0.0656-0.1464-0.14636-0.1464-0.0809 0-0.14634 0.066-0.14634 0.1464 0 0.081 0.0654 0.1463 0.14634 0.1463zm-2.4404-0.9482c0.0941 0 0.16862-0.074 0.16862-0.1686 0-0.094-0.0747-0.1719-0.16862-0.1719-0.094 0-0.17182 0.078-0.17182 0.1719 0 0.094 0.0778 0.1686 0.17182 0.1686zm65.297 43.321c0.107 0 0.1941-0.087 0.1941-0.1941 0-0.107-0.087-0.1941-0.1941-0.1941s-0.1941 0.087-0.1941 0.1941 0.087 0.1941 0.1941 0.1941zm-50.021-82.093c0.1835 0 0.3341-0.1505 0.3341-0.334 0-0.1836-0.1506-0.331-0.3341-0.331s-0.3309 0.1474-0.3309 0.331c0 0.1835 0.1474 0.334 0.3309 0.334zm-14.215 36.481c0.17972 0 0.32453-0.1448 0.32453-0.3246 0-0.1797-0.14481-0.3277-0.32453-0.3277s-0.32455 0.148-0.32455 0.3277c0 0.1798 0.14483 0.3246 0.32455 0.3246zm27.024 16.609c0.079 0 0.1432-0.064 0.1432-0.143s-0.064-0.1434-0.1432-0.1434c-0.079 0-0.1432 0.064-0.1432 0.1434 0 0.079 0.064 0.143 0.1432 0.143zm3.0808 8.9901c0.087 0 0.1559-0.07 0.1559-0.1558 0-0.086-0.069-0.156-0.1559-0.156-0.087 0-0.1591 0.069-0.1591 0.156s0.073 0.1558 0.1591 0.1558zm-11.988-52.2c0.1318 0 0.2386-0.1069 0.2386-0.2387 0-0.1317-0.1068-0.2386-0.2386-0.2386s-0.2386 0.1069-0.2386 0.2386c0 0.1318 0.1068 0.2387 0.2386 0.2387z"/>
<path d="m1029.6 865.93c0 0.15798-0.1267 0.28468-0.2846 0.28468-0.1581 0-0.2881-0.1267-0.2881-0.28468 0-0.15802 0.13-0.28471 0.2881-0.28471 0.1579 0 0.2846 0.12669 0.2846 0.28471zm-45.565 32.966c0 0.0857-0.0683 0.15408-0.15409 0.15408-0.0857 0-0.15745-0.0683-0.15745-0.15408 0-0.0857 0.0717-0.15404 0.15745-0.15404 0.0858 0 0.15409 0.0683 0.15409 0.15404zm-3.42-1.765c0 0.11918-0.0985 0.21773-0.2177 0.21773-0.11917 0-0.21434-0.0985-0.21434-0.21773 0-0.11915 0.0952-0.21432 0.21434-0.21432 0.1192 0 0.2177 0.0952 0.2177 0.21432zm-0.0202 1.3498c0 0.10196-0.0823 0.1842-0.18416 0.1842-0.10198 0-0.1842-0.0822-0.1842-0.1842 0-0.10198 0.0822-0.18422 0.1842-0.18422 0.10197 0 0.18416 0.0823 0.18416 0.18422zm44.168 107.23c0 0.093-0.075 0.1709-0.1674 0.1709-0.093 0-0.1675-0.077-0.1675-0.1709 0-0.093 0.075-0.1673 0.1675-0.1673 0.093 0 0.1674 0.074 0.1674 0.1673zm-0.58-137.69c0 0.12782-0.1033 0.23446-0.2312 0.23446-0.1278 0-0.2311-0.10664-0.2311-0.23446 0-0.12778 0.1033-0.23109 0.2311-0.23109 0.1279 0 0.2312 0.10331 0.2312 0.23109zm-45.572 29.172c0 0.0766-0.0642 0.13732-0.14068 0.13732-0.0766 0-0.13734-0.0608-0.13734-0.13732 0-0.0766 0.0605-0.1373 0.13734-0.1373 0.0767 0 0.14068 0.0608 0.14068 0.1373zm35.573 97.349c0 0.089-0.072 0.1608-0.1607 0.1608-0.089 0-0.1608-0.072-0.1608-0.1608 0-0.088 0.072-0.1607 0.1608-0.1607 0.089 0 0.1607 0.072 0.1607 0.1607zm8.1436-124.67c0 0.1485-0.1227 0.27129-0.2712 0.27129s-0.2679-0.12279-0.2679-0.27129c0-0.14846 0.1194-0.26792 0.2679-0.26792s0.2712 0.11947 0.2712 0.26792zm-1.1256 2.401c0 0.18129-0.147 0.32823-0.3283 0.32823s-0.3282-0.14694-0.3282-0.32823c0-0.18124 0.1469-0.3282 0.3282-0.3282s0.3283 0.14696 0.3283 0.3282zm-52.55 24.684c0 0.1974-0.16094 0.35839-0.35832 0.35839-0.1974 0-0.35502-0.16099-0.35502-0.35839s0.15762-0.35837 0.35502-0.35837c0.19738 0 0.35832 0.16097 0.35832 0.35837zm51.512 107.69c0 0.1337-0.1075 0.2412-0.2412 0.2412-0.1336 0-0.2445-0.1075-0.2445-0.2412 0-0.1336 0.1109-0.241 0.2445-0.241 0.1337 0 0.2412 0.1074 0.2412 0.241zm-52.58-100.38c0 0.19061-0.15437 0.34498-0.34496 0.34498s-0.34495-0.15437-0.34495-0.34498c0-0.19057 0.15436-0.34496 0.34495-0.34496s0.34496 0.15439 0.34496 0.34496zm-0.93441-4.7525c0 0.13345-0.10775 0.24115-0.24116 0.24115-0.13342 0-0.24111-0.1077-0.24111-0.24115 0-0.13342 0.10769-0.24112 0.24111-0.24112 0.13341 0 0.24116 0.1077 0.24116 0.24112zm52.222-32.14c0 0.13211-0.109 0.24113-0.2411 0.24113-0.1322 0-0.2379-0.10902-0.2379-0.24113s0.1057-0.23779 0.2379-0.23779c0.1321 0 0.2411 0.10568 0.2411 0.23779zm-75.857 136.2c0 0.1015-0.0825 0.1843-0.18424 0.1843s-0.18418-0.082-0.18418-0.1843c0-0.1017 0.0824-0.1841 0.18418-0.1841 0.10176 0 0.18424 0.082 0.18424 0.1841zm75.459-145.46c0 0.11864-0.099 0.21437-0.2176 0.21437-0.1187 0-0.2145-0.0957-0.2145-0.21437 0-0.11802 0.096-0.21432 0.2145-0.21432s0.2176 0.0963 0.2176 0.21432zm-53.786 39.395c0 0.14201-0.11254 0.25789-0.25452 0.25789-0.14199 0-0.25789-0.11588-0.25789-0.25789s0.1159-0.25453 0.25789-0.25453c0.14198 0 0.25452 0.11252 0.25452 0.25453zm1.675-10.817c0 0.17709-0.14113 0.32156-0.31825 0.32156-0.17703 0-0.32148-0.14447-0.32148-0.32156 0-0.17705 0.1444-0.31816 0.32148-0.31816 0.17712 0 0.31825 0.14111 0.31825 0.31816zm-26.342 117c0 0.1917-0.1567 0.3482-0.34835 0.3482-0.19164 0-0.3483-0.1565-0.3483-0.3482s0.15667-0.345 0.3483-0.345c0.19165 0 0.34835 0.1533 0.34835 0.345zm75.191-170.44c0 0.19694-0.1581 0.35503-0.355 0.35503s-0.3584-0.15809-0.3584-0.35503c0-0.19693 0.1615-0.35839 0.3584-0.35839 0.1968 0 0.355 0.16146 0.355 0.35839zm-0.06-0.75022c0 0.17109-0.1404 0.30815-0.3114 0.30815-0.1712 0-0.3082-0.13702-0.3082-0.30815 0-0.17112 0.137-0.31148 0.3082-0.31148 0.171 0 0.3114 0.14036 0.3114 0.31148zm-76.15 170.89c0 0.1145-0.0931 0.2076-0.20767 0.2076-0.11456 0-0.20764-0.093-0.20764-0.2076s0.0931-0.2043 0.20764-0.2043c0.11456 0 0.20767 0.089 0.20767 0.2043zm73.563-170.32c0 0.15316-0.1249 0.278-0.2781 0.278-0.1531 0-0.2779-0.12484-0.2779-0.278 0-0.15314 0.1248-0.2746 0.2779-0.2746 0.1532 0 0.2781 0.12146 0.2781 0.2746zm-15.215 162.65c0 0.12-0.0976 0.2176-0.21767 0.2176-0.12009 0-0.21765-0.098-0.21765-0.2176 0-0.1202 0.0976-0.2178 0.21765-0.2178 0.12007 0 0.21767 0.098 0.21767 0.2178zm-1.9696 0.2612c0 0.1878-0.1505 0.3418-0.33827 0.3418-0.1878 0-0.34158-0.154-0.34158-0.3418 0-0.1876 0.15378-0.3382 0.34158-0.3382 0.18776 0 0.33827 0.1506 0.33827 0.3382zm-34.323-55.05c-0.0743 0-0.13397-0.059-0.13397-0.134 0-0.074 0.0596-0.134 0.13397-0.134 0.2922 0.0169 0 0.26796 0 0.268zm-0.40189-2.5692c0 0.1965-0.15848 0.3583-0.35501 0.3583-0.19654 0-0.35505-0.1618-0.35505-0.3583 0-0.1964 0.15851-0.3549 0.35505-0.3549 0.19653 0 0.35501 0.1585 0.35501 0.3549zm-17.895-89.804c0 0.1137-0.0906 0.20766-0.20431 0.20766-0.11369 0-0.2043-0.0939-0.2043-0.20766 0-0.11371 0.0906-0.20432 0.2043-0.20432s0.20431 0.0906 0.20431 0.20432zm62.52 158.24c0 0.1382-0.113 0.2512-0.2512 0.2512-0.1381 0-0.2511-0.113-0.2511-0.2512 0-0.1381 0.113-0.2477 0.2511-0.2477 0.1382 0 0.2512 0.1096 0.2512 0.2477zm-66.15-153.88c0 0.11572-0.092 0.21098-0.20763 0.21098-0.11572 0-0.21105-0.0953-0.21105-0.21098 0-0.11575 0.0953-0.20766 0.21105-0.20766 0.11565 0 0.20763 0.092 0.20763 0.20766zm65.254-9.7964c0 0.12739-0.1037 0.23107-0.2311 0.23107s-0.2311-0.10368-0.2311-0.23107c0-0.12743 0.1037-0.22776 0.2311-0.22776s0.2311 0.10033 0.2311 0.22776zm-26.862 152.23c0 0.1326-0.10866 0.2412-0.24122 0.2412-0.1325 0-0.23778-0.1086-0.23778-0.2412 0-0.1325 0.10528-0.2377 0.23778-0.2377 0.13256 0 0.24122 0.1052 0.24122 0.2377zm-25.658-56.109c0 0.1176-0.0967 0.2143-0.21439 0.2143-0.11768 0-0.21101-0.097-0.21101-0.2143 0-0.1177 0.0933-0.2108 0.21101-0.2108 0.11768 0 0.21439 0.093 0.21439 0.2108zm-14.482-79.243c0 0.0664-0.0714 0.11384-0.14067 0.11384-0.0789 0-0.14401-0.0616-0.14401-0.14066 0-0.0789 0.0651-0.14399 0.14401-0.14399 0.079 0 0.14067 0.065 0.14067 0.14399 0 0.01 0.008 0.0177 0 0.0267zm-0.134-30.21c0 0.1778-0.14375 0.32153-0.32152 0.32153-0.17779 0-0.32153-0.14373-0.32153-0.32153 0-0.17779 0.1437-0.32151 0.32153-0.32151 0.17777 0 0.32152 0.14372 0.32152 0.32151zm65.217 179.98c0 0.1437-0.1176 0.258-0.2613 0.258-0.1436 0-0.2578-0.1143-0.2578-0.258 0-0.1436 0.1142-0.2612 0.2578-0.2612 0.1437 0 0.2613 0.1176 0.2613 0.2612zm-52.048-68.056c0 0.09-0.0736 0.164-0.16405 0.164-0.0904 0-0.16412-0.074-0.16412-0.164s0.0737-0.1641 0.16412-0.1641c0.0904 0 0.16405 0.074 0.16405 0.1641zm-13.929-93.973c0 0.19221-0.1562 0.34829-0.34837 0.34829-0.19214 0-0.34833-0.15615-0.34833-0.34829 0-0.19216 0.15619-0.3483 0.34833-0.3483 0.19217 0 0.34837 0.15614 0.34837 0.3483zm-0.1139 11.693c0 0.15221-0.12575 0.27797-0.27802 0.27797-0.15216 0-0.2746-0.12576-0.2746-0.27797 0-0.15223 0.12238-0.27464 0.2746-0.27464s0.27802 0.12241 0.27802 0.27464zm-0.42873-28.368c0 0.16806-0.1367 0.30474-0.30475 0.30474-0.16808 0-0.30476-0.13668-0.30476-0.30474 0-0.16808 0.13668-0.30477 0.30476-0.30477 0.16805 0 0.30475 0.13669 0.30475 0.30477zm62.132 180.93c0 0.1127-0.0916 0.2044-0.20431 0.2044-0.11269 0-0.20431-0.092-0.20431-0.2044 0-0.1127 0.0916-0.2043 0.20431-0.2043 0.1127 0 0.20431 0.091 0.20431 0.2043zm-61.151-5.117c0 0.1932-0.15847 0.3516-0.35161 0.3516-0.19322 0-0.34837-0.1584-0.34837-0.3516s0.15515-0.3483 0.34837-0.3483c0.19314 0 0.35161 0.1551 0.35161 0.3483zm-4.7424-176.83c0 0.1451-0.11617 0.26125-0.26127 0.26125-0.14506 0-0.26123-0.11615-0.26123-0.26125 0-0.14507 0.11617-0.26457 0.26123-0.26457 0.1451 0 0.26127 0.1195 0.26127 0.26457zm46.695 33.57c0 0.1546-0.12672 0.28132-0.28134 0.28132-0.15459 0-0.27797-0.12672-0.27797-0.28132 0-0.15463 0.12338-0.278 0.27797-0.278 0.15462 0 0.28134 0.12337 0.28134 0.278zm15.632-4.5409c0 0.19564-0.15937 0.355-0.355 0.355s-0.35507-0.15936-0.35507-0.355c0-0.19561 0.15944-0.35167 0.35507-0.35167s0.355 0.15606 0.355 0.35167zm-66.133-29.71c0 0.14997-0.12131 0.27127-0.27132 0.27127-0.14999 0-0.27124-0.1213-0.27124-0.27127 0-0.15 0.12125-0.27465 0.27124-0.27465 0.15001 0 0.27132 0.12465 0.27132 0.27465zm48.608 166.85c0 0.091-0.0731 0.1642-0.16412 0.1642-0.091 0-0.16408-0.073-0.16408-0.1642 0-0.091 0.0731-0.1673 0.16408-0.1673 0.091 0 0.16412 0.076 0.16412 0.1673zm-1.5486-132.84c0 0.13465-0.10981 0.24449-0.24449 0.24449-0.13461 0-0.24449-0.10984-0.24449-0.24449 0-0.13466 0.10988-0.24452 0.24449-0.24452 0.13468 0 0.24449 0.10986 0.24449 0.24452zm-28.136 147.59c0 0.1385-0.11249 0.251-0.25118 0.251-0.13872 0-0.25121-0.1125-0.25121-0.251 0-0.1389 0.11249-0.2515 0.25121-0.2515 0.13869 0 0.25118 0.1125 0.25118 0.2515z"/>
<path d="m643.24 913.45c0.0915 0 0.16546-0.0732 0.16546-0.16542 0-0.0917-0.0739-0.16551-0.16546-0.16551-0.0915 0-0.16546 0.0742-0.16546 0.16551 0 0.0916 0.074 0.16542 0.16546 0.16542zm-73.675-14.948c0.18751 0 0.34045-0.1528 0.34045-0.34046 0-0.18759-0.15294-0.33721-0.34045-0.33721-0.18753 0-0.34047 0.14962-0.34047 0.33721 0 0.18766 0.15294 0.34046 0.34047 0.34046zm40.057-21.217c0.12552 0 0.22592-0.10354 0.22592-0.22905 0-0.12552-0.1004-0.22587-0.22592-0.22587-0.12551 0-0.22909 0.10035-0.22909 0.22587 0 0.12551 0.10357 0.22905 0.22909 0.22905zm-4.779 9.5551c0.18373 0 0.33088-0.15045 0.33088-0.33411 0-0.18368-0.14715-0.33404-0.33088-0.33404s-0.3341 0.15036-0.3341 0.33404c0 0.18366 0.15037 0.33411 0.3341 0.33411zm-28.376 10.639c0.18109 0 0.32773-0.14661 0.32773-0.32767s-0.14664-0.32768-0.32773-0.32768c-0.18105 0-0.32769 0.14662-0.32769 0.32768s0.14664 0.32767 0.32769 0.32767zm-4.5149-0.88773c0.12676 0 0.22909-0.10222 0.22909-0.22903 0-0.12674-0.10233-0.22904-0.22909-0.22904s-0.22906 0.1023-0.22906 0.22904c0 0.12681 0.1023 0.22903 0.22906 0.22903zm73.176 14.64c0.091 0 0.16544-0.0742 0.16544-0.16551 0-0.091-0.0745-0.16225-0.16544-0.16225-0.091 0-0.16546 0.071-0.16546 0.16225 0 0.091 0.0745 0.16551 0.16546 0.16551zm-3.762-78.995c0.0967 0 0.17499-0.0784 0.17499-0.17502 0-0.0967-0.0784-0.17497-0.17499-0.17497-0.0966 0-0.17499 0.0784-0.17499 0.17497 0 0.0966 0.0784 0.17502 0.17499 0.17502zm-71.316 62.504c0.13492 0 0.245-0.10694 0.245-0.24174 0-0.13481-0.11008-0.245-0.245-0.245s-0.24181 0.11019-0.24181 0.245c0 0.1348 0.10689 0.24174 0.24181 0.24174zm-10.276 1.591c0.16823 0 0.30547-0.13406 0.30547-0.30226 0-0.16828-0.13724-0.30552-0.30547-0.30552-0.16821 0-0.30227 0.13724-0.30227 0.30552 0 0.1682 0.13406 0.30226 0.30227 0.30226zm81.709-66.926c0.18205 0 0.33088-0.14885 0.33088-0.33089 0-0.18208-0.14883-0.3309-0.33088-0.3309-0.18208 0-0.32772 0.14882-0.32772 0.3309 0 0.18204 0.14564 0.33089 0.32772 0.33089zm-0.31794-0.86543c0.10882 0 0.19727-0.0884 0.19727-0.19727 0-0.10882-0.0884-0.19728-0.19727-0.19728-0.10882 0-0.19408 0.0885-0.19408 0.19728 0 0.10882 0.0853 0.19727 0.19408 0.19727zm-52.9-6.0352c0.1705 0 0.30863-0.13798 0.30863-0.30854 0-0.17048-0.13813-0.31171-0.30863-0.31171s-0.30862 0.14123-0.30862 0.31171c0 0.17056 0.13812 0.30854 0.30862 0.30854zm61.594 77.47c0.11408 0 0.20681-0.0928 0.20681-0.20673 0-0.11419-0.0927-0.20679-0.20681-0.20679-0.11409 0-0.20681 0.0926-0.20681 0.20679 0 0.11397 0.0927 0.20673 0.20681 0.20673zm-9.8362-6.0907c0.10678 0 0.19407-0.0874 0.19407-0.19393 0-0.10687-0.0873-0.19427-0.19407-0.19427-0.10678 0-0.19408 0.0874-0.19408 0.19427 0 0.1066 0.0873 0.19393 0.19408 0.19393zm-45.553-73.532c0.0942 0 0.1718-0.0742 0.1718-0.16883 0-0.0942-0.0775-0.17162-0.1718-0.17162s-0.16863 0.0773-0.16863 0.17162c0 0.0945 0.0744 0.16883 0.16863 0.16883zm47.122 73.071c0.18885 0 0.34045-0.15158 0.34045-0.34047 0-0.18879-0.1516-0.34354-0.34045-0.34354-0.18886 0-0.34363 0.15475-0.34363 0.34354 0 0.18889 0.15477 0.34047 0.34363 0.34047zm8.5161 4.6812c0.17839 0 0.32454-0.14303 0.32454-0.32148 0-0.1783-0.14615-0.32442-0.32454-0.32442-0.17838 0-0.32137 0.14612-0.32137 0.32442 0 0.17845 0.14299 0.32148 0.32137 0.32148zm-8.539-6.004c0.12678 0 0.22908-0.10222 0.22908-0.22912 0-0.12674-0.1023-0.22903-0.22908-0.22903-0.12681 0-0.22909 0.10229-0.22909 0.22903 0 0.1269 0.10228 0.22912 0.22909 0.22912zm-49.887-74.404c0.0706 0 0.12726-0.057 0.12726-0.12723 0-0.07-0.0567-0.12731-0.12726-0.12731-0.0706 0-0.12727 0.057-0.12727 0.12731 0 0.071 0.0567 0.12723 0.12727 0.12723zm-2.3134-0.50915c0.1867 0 0.34043-0.15052 0.34043-0.33712 0-0.18677-0.15371-0.33737-0.34043-0.33737-0.18673 0-0.33728 0.1506-0.33728 0.33737 0 0.1866 0.15054 0.33712 0.33728 0.33712zm-29.033 25.63c0.10799 0 0.19728-0.0861 0.19728-0.19409 0-0.10801-0.0893-0.1941-0.19728-0.1941-0.10801 0-0.19408 0.0861-0.19408 0.1941 0 0.10799 0.0861 0.19409 0.19408 0.19409zm119.24 64.647c0.13125 0 0.23863-0.10735 0.23863-0.23848 0-0.1313-0.10738-0.23865-0.23863-0.23865-0.13123 0-0.23545 0.10735-0.23545 0.23865 0 0.13113 0.10422 0.23848 0.23545 0.23848zm-115.18-68.19c0.10993 0 0.20042-0.0874 0.20042-0.19727 0-0.10988-0.0905-0.20045-0.20042-0.20045-0.10994 0-0.19729 0.0905-0.19729 0.20045 0 0.10987 0.0874 0.19727 0.19729 0.19727zm85.034 41.77c0.12591 0 0.22908-0.10327 0.22908-0.22912 0-0.12593-0.10317-0.22586-0.22908-0.22586-0.12593 0-0.22593 0.0999-0.22593 0.22586 0 0.12585 0.1 0.22912 0.22593 0.22912zm-59.304-72.304c0.11178 0 0.20363-0.0918 0.20363-0.20363 0-0.11184-0.0919-0.20045-0.20363-0.20045-0.11179 0-0.20046 0.0886-0.20046 0.20045 0 0.11183 0.0886 0.20363 0.20046 0.20363zm-19 28.872c-0.0632 0 0.10818-0.0675 0.10818-0.13357 0-0.0749-0.0586-0.13677-0.13364-0.13677-0.075 0-0.1368 0.0619-0.1368 0.13677 0 0.0749 0.0618 0.13357 0.1368 0.13357 0.01 0 0.0166 0.01 0.0256 0zm34.127 22.453c0.0776 0 0.14-0.0627 0.14-0.1401 0-0.0773-0.0624-0.13992-0.14-0.13992s-0.14001 0.0626-0.14001 0.13992c0 0.0782 0.0625 0.1401 0.14001 0.1401zm-62.829-22.596c0.16891 0 0.30545-0.13658 0.30545-0.30545 0-0.16892-0.13654-0.30551-0.30545-0.30551-0.16892 0-0.30545 0.13651-0.30545 0.30551 0 0.16887 0.13653 0.30545 0.30545 0.30545zm139.86 67.254c0.13647 0 0.24495-0.11184 0.24495-0.24819 0-0.13643-0.10848-0.24493-0.24495-0.24493-0.13652 0-0.24819 0.1085-0.24819 0.24493 0 0.13635 0.11167 0.24819 0.24819 0.24819zm-89.812-97.374c0.0859 0 0.15591-0.07 0.15591-0.15581 0-0.0859-0.07-0.15598-0.15591-0.15598-0.0859 0-0.15589 0.07-0.15589 0.15598 0 0.0858 0.07 0.15581 0.15589 0.15581zm-32.994 29.397c0.18259 0 0.33089-0.14849 0.33089-0.33086 0-0.18261-0.14833-0.33093-0.33089-0.33093-0.18255 0-0.33089 0.14832-0.33089 0.33093 0 0.18237 0.14834 0.33086 0.33089 0.33086zm11.108-0.10817c0.1446 0 0.26406-0.11957 0.26406-0.26415 0-0.14457-0.11946-0.26088-0.26406-0.26088-0.14462 0-0.2609 0.11623-0.2609 0.26088 0 0.14458 0.11628 0.26415 0.2609 0.26415zm-26.95-0.40734c0.15966 0 0.28951-0.12984 0.28951-0.28955 0-0.15973-0.12985-0.28956-0.28951-0.28956-0.15969 0-0.28954 0.12983-0.28954 0.28956 0 0.15971 0.12985 0.28955 0.28954 0.28955zm61.904 21.95c0.0809 0 0.14636-0.0652 0.14636-0.14629 0-0.0807-0.0655-0.14636-0.14636-0.14636-0.0809 0-0.14633 0.0659-0.14633 0.14636 0 0.0806 0.0654 0.14629 0.14633 0.14629zm-2.4404-0.94816c0.094 0 0.16863-0.0742 0.16863-0.16861 0-0.094-0.0747-0.17186-0.16863-0.17186-0.094 0-0.17181 0.0782-0.17181 0.17186 0 0.094 0.0778 0.16861 0.17181 0.16861zm81.297 43.321c0.10706 0 0.19408-0.087 0.19408-0.1941 0-0.10702-0.087-0.19409-0.19408-0.19409-0.10706 0-0.19407 0.0871-0.19407 0.19409 0 0.10711 0.087 0.1941 0.19407 0.1941zm-40.021-74.093c0.18353 0 0.33408-0.15054 0.33408-0.33406 0-0.18351-0.15055-0.33092-0.33408-0.33092-0.18349 0-0.3309 0.14741-0.3309 0.33092 0 0.18352 0.14741 0.33406 0.3309 0.33406zm-101.71 6.1962c0.13782 0 0.24816-0.11035 0.24816-0.24809 0-0.13789-0.11034-0.24826-0.24816-0.24826s-0.25135 0.11037-0.25135 0.24826c0 0.13774 0.11353 0.24809 0.25135 0.24809zm61.49 22.285c0.1797 0 0.32453-0.14482 0.32453-0.32457 0-0.17969-0.14483-0.32769-0.32453-0.32769-0.17972 0-0.32456 0.148-0.32456 0.32769 0 0.17975 0.14484 0.32457 0.32456 0.32457zm43.024 16.609c0.0789 0 0.14318-0.0643 0.14318-0.14304 0-0.079-0.0642-0.14334-0.14318-0.14334-0.0788 0-0.1432 0.0642-0.1432 0.14334 0 0.079 0.0643 0.14304 0.1432 0.14304zm-105.15-42.48c0.14248 0 0.25772-0.11517 0.25772-0.25763 0-0.14254-0.11524-0.2578-0.25772-0.2578-0.14251 0-0.2609 0.11526-0.2609 0.2578 0 0.14246 0.11839 0.25763 0.2609 0.25763zm108.23 51.476c0.0865 0 0.15591-0.07 0.15591-0.15582 0-0.0865-0.0693-0.15597-0.15591-0.15597-0.0864 0-0.15908 0.0693-0.15908 0.15597 0 0.0865 0.0727 0.15582 0.15908 0.15582zm-1.988-44.2c0.13179 0 0.23863-0.1068 0.23863-0.23861 0-0.13175-0.10684-0.23862-0.23863-0.23862-0.13175 0-0.2386 0.10685-0.2386 0.23862 0 0.13181 0.10683 0.23861 0.2386 0.23861z"/>
<path d="m891.4 896.92c-0.14259 0-0.25693-0.11438-0.25693-0.2569 0-0.14262 0.11434-0.26001 0.25693-0.26001 0.14261 0 0.25694 0.11739 0.25694 0.26001 0 0.14252-0.11433 0.2569-0.25694 0.2569zm-112.2-9.308c-0.0898 0-0.16311-0.0734-0.16311-0.16319 0-0.0899 0.0734-0.16019 0.16311-0.16019 0.09 0 0.16032 0.0706 0.16032 0.16019 0 0.0899-0.0706 0.16319-0.16032 0.16319zm-13.948 4.9428c-0.0841 0-0.15422-0.067-0.15422-0.15113 0-0.0839 0.0697-0.15105 0.15422-0.15105 0.0838 0 0.15107 0.067 0.15107 0.15105 0 0.0839-0.067 0.15113-0.15107 0.15113zm32.924-4.6486c-0.17841 0-0.32337-0.14504-0.32337-0.32345 0-0.1784 0.14496-0.32345 0.32337-0.32345 0.17833 0 0.32344 0.14505 0.32344 0.32345 0 0.17841-0.14503 0.32345-0.32344 0.32345zm-22.843-4.898c-0.0804 0-0.14511-0.0646-0.14511-0.14511 0-0.0802 0.0646-0.14504 0.14511-0.14504 0.0802 0 0.14502 0.0646 0.14502 0.14504 0 0.0802-0.0646 0.14511-0.14502 0.14511zm5.3094-2.2785c-0.0869 0-0.15724-0.0706-0.15724-0.15715 0-0.087 0.0706-0.15716 0.15724-0.15716 0.087 0 0.15716 0.0706 0.15716 0.15716 0 0.087-0.0706 0.15715-0.15716 0.15715zm16.736-5.234c-0.11931 0-0.21459-0.0984-0.21459-0.21765 0-0.11931 0.0953-0.21465 0.21459-0.21465 0.11922 0 0.21758 0.0953 0.21758 0.21465 0 0.11922-0.0984 0.21765-0.21758 0.21765zm4.5401 9.0774c-0.17458 0-0.31439-0.1429-0.31439-0.31742 0-0.1745 0.13981-0.31733 0.31439-0.31733 0.17451 0 0.31726 0.14283 0.31726 0.31733 0 0.17452-0.14275 0.31742-0.31726 0.31742zm-35.705 3.8414c-0.12062 0-0.21766-0.097-0.21766-0.21766 0-0.12063 0.097-0.22061 0.21766-0.22061 0.12055 0 0.21751 0.10005 0.21751 0.22061 0 0.12062-0.097 0.21766-0.21751 0.21766zm12.637-9.7883c-0.0865 0-0.15732-0.0706-0.15732-0.15718 0-0.0865 0.0706-0.15414 0.15732-0.15414 0.0865 0 0.15716 0.0676 0.15716 0.15414 0 0.0864-0.0706 0.15718-0.15716 0.15718zm111.29 8.6189c-0.11924 0-0.21763-0.0984-0.21763-0.21765 0-0.11923 0.0984-0.21464 0.21763-0.21464s0.2146 0.0954 0.2146 0.21464c0 0.11923-0.0954 0.21765-0.2146 0.21765zm-122.91-68.46c-0.0918 0-0.16627-0.0745-0.16627-0.16627 0-0.0919 0.0746-0.16623 0.16627-0.16623 0.0918 0 0.16621 0.0745 0.16621 0.16623 0 0.0919-0.0745 0.16627-0.16621 0.16627zm131.28 68.101c-0.10707 0-0.19347-0.0895-0.19347-0.1965 0-0.10703 0.0864-0.19347 0.19347-0.19347 0.10651 0 0.19342 0.0865 0.19342 0.19347 0 0.10704-0.0869 0.1965-0.19342 0.1965zm-131.4-70.797c-0.17296 0-0.31425-0.14142-0.31425-0.31439 0-0.17296 0.14129-0.31434 0.31425-0.31434 0.17304 0 0.31131 0.14139 0.31131 0.31434 0 0.17297-0.13827 0.31439-0.31131 0.31439zm153.82 67.86c-0.17773 0-0.32041-0.14267-0.32041-0.32041 0-0.17775 0.14268-0.32344 0.32041-0.32344 0.17774 0 0.32344 0.14569 0.32344 0.32344 0 0.17774-0.1457 0.32041-0.32344 0.32041zm0.67708-0.0544c-0.15441 0-0.27811-0.12673-0.27811-0.2811 0-0.15443 0.12367-0.27808 0.27811-0.27808 0.15443 0 0.28111 0.12365 0.28111 0.27808 0 0.15437-0.12668 0.2811-0.28111 0.2811zm-154.19-68.64c-0.10343 0-0.18738-0.084-0.18738-0.18743 0-0.10339 0.084-0.18739 0.18738-0.18739 0.10336 0 0.18428 0.084 0.18428 0.18739 0 0.1034-0.0809 0.18743-0.18428 0.18743zm153.73 66.397c-0.13822 0-0.25089-0.11269-0.25089-0.25097 0-0.1382 0.11267-0.25088 0.25089-0.25088s0.24783 0.11268 0.24783 0.25088c0 0.13828-0.10961 0.25097-0.24783 0.25097zm-146.79-13.74c-0.10836 0-0.19649-0.0881-0.19649-0.19643 0-0.1084 0.0881-0.19645 0.19649-0.19645 0.10843 0 0.1965 0.0881 0.1965 0.19645s-0.0881 0.19643-0.1965 0.19643zm9.3444-5.7861c-0.10145 0-0.18437-0.083-0.18437-0.1844 0-0.10142 0.0829-0.18441 0.18437-0.18441 0.10151 0 0.18428 0.083 0.18428 0.18441 0 0.10144-0.0828 0.1844-0.18428 0.1844zm-1.49-0.438c-0.17928 0-0.32336-0.144-0.32336-0.32344 0-0.17938 0.14401-0.32639 0.32336-0.32639 0.17952 0 0.32647 0.14701 0.32647 0.32639 0 0.17944-0.14695 0.32344-0.32647 0.32344zm-8.0901 4.4471c-0.16951 0-0.30844-0.13582-0.30844-0.30528 0-0.16949 0.13893-0.30828 0.30844-0.30828 0.16937 0 0.30522 0.13879 0.30522 0.30828 0 0.16946-0.13585 0.30528-0.30522 0.30528zm8.1112-5.7036c-0.12048 0-0.21752-0.0972-0.21752-0.2177 0-0.12041 0.097-0.2176 0.21752-0.2176 0.12048 0 0.21766 0.0972 0.21766 0.2176 0 0.1205-0.0972 0.2177-0.21766 0.2177zm124.94-41.785c-0.10261 0-0.1874-0.0818-0.1874-0.18437 0-0.10262 0.0848-0.18439 0.1874-0.18439 0.10264 0 0.1844 0.0818 0.1844 0.18439 0 0.10261-0.0818 0.18437-0.1844 0.18437zm-142.84 56.381c-0.12475 0-0.22685-0.10204-0.22685-0.2267 0-0.12468 0.1021-0.22664 0.22685-0.22664 0.12459 0 0.22354 0.10196 0.22354 0.22664 0 0.12466-0.0989 0.2267-0.22354 0.2267zm139-59.759c-0.10443 0-0.19039-0.083-0.19039-0.18739 0-0.10442 0.0859-0.19046 0.19039-0.19046 0.10448 0 0.18742 0.086 0.18742 0.19046 0 0.10438-0.0829 0.18739-0.18742 0.18739zm8.8413 58.891c-0.11498 0-0.20854-0.0935-0.20854-0.20855 0-0.11496 0.0936-0.20854 0.20854-0.20854 0.115 0 0.20554 0.0936 0.20554 0.20854 0 0.11504-0.0905 0.20855-0.20554 0.20855zm-137.39-24.24c-0.11959 0-0.21758-0.0981-0.21758-0.2177 0-0.11958 0.098-0.2146 0.21758-0.2146 0.1196 0 0.21458 0.095 0.21458 0.2146 0 0.11964-0.095 0.2177-0.21458 0.2177zm122.16-36.226c-0.06 0-0.10275-0.0644-0.10275-0.12695 0-0.0714 0.0557-0.12997 0.12695-0.12997 0.0712 0 0.12996 0.0588 0.12996 0.12997 0 0.0712-0.0586 0.12695-0.12996 0.12695-0.01 0-0.016 0.008-0.0241 0zm-95.388 45.42c-0.0737 0-0.133-0.0594-0.133-0.13307 0-0.0736 0.0588-0.13299 0.133-0.13299 0.0737 0 0.13297 0.0593 0.13297 0.13299 0 0.0737-0.0588 0.13307-0.13297 0.13307zm122.66-45.556c-0.16046 0-0.29019-0.12973-0.29019-0.29017 0-0.16046 0.12973-0.29018 0.29019-0.29018 0.16045 0 0.29016 0.12969 0.29016 0.29018 0 0.16044-0.12971 0.29017-0.29016 0.29017zm-162.43 58.858c-0.12968 0-0.23281-0.10615-0.23281-0.23581 0-0.1296 0.10313-0.23274 0.23281-0.23274 0.12967 0 0.23574 0.10314 0.23574 0.23274 0 0.12966-0.10607 0.23581-0.23574 0.23581zm61.42-46.973c-0.0816 0-0.14805-0.0664-0.14805-0.14806 0-0.0816 0.0661-0.14812 0.14805-0.14812 0.0815 0 0.14812 0.0665 0.14812 0.14812 0 0.0816-0.066 0.14806-0.14812 0.14806zm84.811-12.571c-0.17348 0-0.31435-0.14097-0.31435-0.3144 0-0.17341 0.14093-0.31437 0.31435-0.31437 0.17341 0 0.31432 0.14096 0.31432 0.31437 0 0.17343-0.14091 0.3144-0.31432 0.3144zm-10.553-0.10279c-0.13737 0-0.25087-0.11349-0.25087-0.25092 0-0.13732 0.1135-0.24782 0.25087-0.24782 0.13738 0 0.24787 0.11044 0.24787 0.24782s-0.11049 0.25092-0.24787 0.25092zm25.602-0.38693c-0.15167 0-0.27502-0.12338-0.27502-0.27504 0-0.15168 0.12335-0.27505 0.27502-0.27505 0.15171 0 0.27507 0.12337 0.27507 0.27505 0 0.15166-0.12336 0.27504-0.27507 0.27504zm-121.78 44.94c-0.077 0-0.13908-0.0622-0.13908-0.13903 0-0.0769 0.0625-0.13906 0.13908-0.13906 0.0769 0 0.13893 0.0622 0.13893 0.13906 0 0.0769-0.0618 0.13903-0.13893 0.13903zm2.3183-0.90077c-0.0893 0-0.16026-0.071-0.16026-0.16017 0-0.0894 0.0706-0.16327 0.16026-0.16327 0.0892 0 0.16326 0.074 0.16326 0.16327 0 0.0894-0.0742 0.16017-0.16326 0.16017zm-43.831 12.033c-0.10166 0-0.18437-0.0826-0.18437-0.18439 0-0.10171 0.0827-0.18439 0.18437-0.18439 0.10182 0 0.18444 0.0827 0.18444 0.18439 0 0.10171-0.0826 0.18439-0.18444 0.18439zm4.6181-55.189c-0.17436 0-0.31734-0.14302-0.31734-0.31732 0-0.17439 0.14298-0.31441 0.31734-0.31441 0.17438 0 0.31432 0.14002 0.31432 0.31441 0 0.1743-0.13994 0.31732-0.31432 0.31732zm159.59-4.28c-0.13095 0-0.23578-0.10484-0.23578-0.2358 0-0.13092 0.10483-0.23576 0.23578-0.23576 0.13091 0 0.23877 0.10484 0.23877 0.23576 0 0.13096-0.10786 0.2358-0.23877 0.2358zm-121.39 45.26c-0.17084 0-0.3083-0.13762-0.3083-0.30835s0.13746-0.31132 0.3083-0.31132c0.17068 0 0.30829 0.14059 0.30829 0.31132s-0.13761 0.30835-0.30829 0.30835zm91.093-3.1175c-0.13951 0-0.25387-0.11435-0.25387-0.2539 0-0.13951 0.11436-0.25086 0.25387-0.25086 0.13956 0 0.25092 0.11135 0.25092 0.25086 0 0.13955-0.11136 0.2539-0.25092 0.2539zm4.0981 14.108c-0.17655 0-0.32038-0.14384-0.32038-0.3204 0-0.17654 0.14383-0.32043 0.32038-0.32043 0.17654 0 0.3174 0.14389 0.3174 0.32043 0 0.17656-0.14086 0.3204-0.3174 0.3204zm-120.87-24.33c-0.0749 0-0.13599-0.061-0.13599-0.13602 0-0.075 0.0609-0.13602 0.13599-0.13602 0.0749 0 0.13615 0.0609 0.13615 0.13602 0 0.0749-0.061 0.13602-0.13615 0.13602zm147.66-35.33c-0.13536 0-0.24484-0.10949-0.24484-0.24487 0-0.13537 0.10948-0.2448 0.24484-0.2448s0.24788 0.10943 0.24788 0.2448c0 0.13538-0.11252 0.24487-0.24788 0.24487zm-150.59 43.869c-0.0822 0-0.14806-0.066-0.14806-0.14811 0-0.0822 0.0661-0.14808 0.14806-0.14808 0.0821 0 0.15105 0.0659 0.15105 0.14808 0 0.0822-0.0692 0.14811-0.15105 0.14811zm119.89-1.3977c-0.12153 0-0.22067-0.0991-0.22067-0.22065 0-0.12148 0.0991-0.22065 0.22067-0.22065 0.12152 0 0.22066 0.0992 0.22066 0.22065 0 0.12155-0.0991 0.22065-0.22066 0.22065zm-133.2-25.39c-0.12505 0-0.22656-0.10153-0.22656-0.22669 0-0.12519 0.10151-0.22671 0.22656-0.22671 0.12532 0 0.22685 0.10152 0.22685 0.22671 0 0.12516-0.10144 0.22669-0.22685 0.22669z"/>
<path d="m657.27 974.61c0.0773 0 0.13906-0.0619 0.13906-0.13919 0-0.0774-0.0616-0.14208-0.13906-0.14208-0.0773 0-0.13902 0.065-0.13902 0.14208 0 0.0774 0.0616 0.13919 0.13902 0.13919zm-1.592-3.087c0.10754 0 0.19648-0.0889 0.19648-0.1964 0-0.10746-0.089-0.19335-0.19648-0.19335-0.10754 0-0.19343 0.0859-0.19343 0.19335 0 0.1075 0.0859 0.1964 0.19343 0.1964zm1.2181-0.0194c0.0921 0 0.16623-0.0743 0.16623-0.16614 0-0.092-0.0742-0.16629-0.16623-0.16629-0.0921 0-0.16625 0.0743-0.16625 0.16629 0 0.092 0.0742 0.16614 0.16625 0.16614zm114.97-5.642c0.0839 0 0.15415-0.0665 0.15415-0.15111 0-0.0839-0.0702-0.15112-0.15415-0.15112-0.0839 0-0.15111 0.0674-0.15111 0.15112 0 0.0839 0.0673 0.15111 0.15111 0.15111zm-116.14 3.852c0.0692 0 0.12392-0.058 0.12392-0.1269 0-0.069-0.055-0.12389-0.12392-0.12389-0.0692 0-0.1239 0.0542-0.1239 0.12389 0 0.069 0.055 0.1269 0.1239 0.1269zm24.015 19.271c0.10701 0 0.19346-0.0866 0.19346-0.19368 0-0.10694-0.0865-0.19335-0.19346-0.19335-0.10703 0-0.19346 0.0864-0.19346 0.19335 0 0.10708 0.0864 0.19368 0.19346 0.19368zm-7.7872 0.5128c0.0862 0 0.15718-0.0712 0.15718-0.15707 0-0.0863-0.0711-0.15408-0.15718-0.15408-0.0862 0-0.15718 0.0678-0.15718 0.15408 0 0.0862 0.0711 0.15707 0.15718 0.15707zm98.954-27.786c0.12058 0 0.21763-0.097 0.21763-0.21759 0-0.12063-0.097-0.22068-0.21763-0.22068-0.1206 0-0.21764 0.10005-0.21764 0.22068 0 0.12056 0.097 0.21759 0.21764 0.21759zm-91.359 25.356c0.09 0 0.16318-0.0732 0.16318-0.16307 0-0.0901-0.0731-0.16329-0.16318-0.16329-0.0901 0-0.16324 0.0732-0.16324 0.16329 0 0.0899 0.0732 0.16307 0.16324 0.16307zm72.146-94.986c0.0919 0 0.16624-0.0743 0.16624-0.16629 0-0.0919-0.0745-0.16621-0.16624-0.16621-0.0918 0-0.16624 0.0743-0.16624 0.16621 0 0.0919 0.0745 0.16629 0.16624 0.16629zm-73.06 93.934c0.0642 0 0.11485-0.0503 0.11485-0.11483 0-0.0642-0.0508-0.118-0.11485-0.118-0.0641 0-0.11486 0.0534-0.11486 0.118 0 0.0642 0.0508 0.11483 0.11486 0.11483zm1.2488-27.357c0.15981 0 0.29019-0.12735 0.29019-0.28714 0-0.15986-0.13038-0.29025-0.29019-0.29025-0.1598 0-0.28716 0.13039-0.28716 0.29025 0 0.15979 0.12736 0.28714 0.28716 0.28714zm71.924-69.276c0.17295 0 0.31434-0.14138 0.31434-0.31432 0-0.17301-0.14139-0.31439-0.31434-0.31439-0.17297 0-0.31133 0.14138-0.31133 0.31439 0 0.17294 0.13836 0.31432 0.31133 0.31432zm-0.30204-0.82215c0.10338 0 0.18741-0.0841 0.18741-0.18742 0-0.10337-0.084-0.18741-0.18741-0.18741-0.10338 0-0.18438 0.0841-0.18438 0.18741 0 0.10339 0.081 0.18742 0.18438 0.18742zm-75.511 90.978c0.17852 0 0.32344-0.14487 0.32344-0.32344 0-0.17852-0.14492-0.32337-0.32344-0.32337-0.17853 0-0.32344 0.14485-0.32344 0.32337 0 0.17851 0.14491 0.32344 0.32344 0.32344zm-10.81-43.227c0.10259 0 0.18742-0.0818 0.18742-0.18441 0-0.10259-0.0848-0.18438-0.18742-0.18438-0.10261 0-0.18437 0.0818-0.18437 0.18438 0 0.10262 0.0818 0.18441 0.18437 0.18441zm107.58 12.014c0.12469 0 0.2267-0.10198 0.2267-0.22656 0-0.12474-0.10201-0.22673-0.2267-0.22673-0.12467 0-0.22368 0.10199-0.22368 0.22673 0 0.12458 0.099 0.22656 0.22368 0.22656zm-103.74-15.39c0.10444 0 0.1904-0.083 0.1904-0.18739 0-0.10441-0.0859-0.19044-0.1904-0.19044-0.10444 0-0.18742 0.086-0.18742 0.19044 0 0.10436 0.083 0.18739 0.18742 0.18739zm6.393-1.5772c0.06 0 0.10277-0.0642 0.10277-0.1269 0-0.0712-0.0557-0.12992-0.12696-0.12992-0.0711 0-0.12996 0.0588-0.12996 0.12992 0 0.0712 0.0587 0.1269 0.12996 0.1269 0.01 0 0.0158 0.01 0.0243 0zm-27.268-0.136c0.16046 0 0.29017-0.12977 0.29017-0.29017 0-0.16049-0.12971-0.29025-0.29017-0.29025-0.16048 0-0.29018 0.1297-0.29018 0.29025 0 0.1604 0.1297 0.29017 0.29018 0.29017zm127.17 14.492c0.12965 0 0.23271-0.10624 0.23271-0.23577 0-0.12961-0.10306-0.23267-0.23271-0.23267-0.12969 0-0.23578 0.10306-0.23578 0.23267 0 0.12953 0.10609 0.23577 0.23578 0.23577zm-110.97-15.177c0.17346 0 0.31434-0.14108 0.31434-0.31432 0-0.17349-0.14091-0.31439-0.31434-0.31439-0.17342 0-0.31435 0.1409-0.31435 0.31439 0 0.17324 0.14093 0.31432 0.31435 0.31432zm10.553-0.10278c0.13737 0 0.25086-0.11359 0.25086-0.25094 0-0.13734-0.11349-0.24783-0.25086-0.24783-0.13739 0-0.24785 0.11042-0.24785 0.24783 0 0.13735 0.11046 0.25094 0.24785 0.25094zm-25.602-0.38696c0.15168 0 0.27504-0.12335 0.27504-0.27507 0-0.15175-0.12336-0.27509-0.27504-0.27509-0.1517 0-0.27506 0.12334-0.27506 0.27509 0 0.15172 0.12336 0.27507 0.27506 0.27507zm128.02 11.707c0.10171 0 0.18438-0.0827 0.18438-0.18441 0-0.10166-0.0826-0.18439-0.18438-0.18439-0.10171 0-0.18437 0.0827-0.18437 0.18439 0 0.10176 0.0827 0.18441 0.18437 0.18441zm-22.82-55.189c0.17435 0 0.31737-0.14298 0.31737-0.31732s-0.14302-0.31439-0.31737-0.31439c-0.17432 0-0.31436 0.14005-0.31436 0.31439s0.14004 0.31732 0.31436 0.31732zm-106.12 40.086c0.13093 0 0.23575-0.10484 0.23575-0.2357 0-0.13099-0.10482-0.23584-0.23575-0.23584s-0.23878 0.10485-0.23878 0.23584c0 0.13086 0.10785 0.2357 0.23878 0.2357zm-0.603-3.4128c0.13536 0 0.24483-0.1094 0.24483-0.24475 0-0.1354-0.10947-0.24489-0.24483-0.24489-0.13539 0-0.24786 0.10949-0.24786 0.24489 0 0.13535 0.11247 0.24475 0.24786 0.24475z"/>
<path d="m400.29 827.29c0.0773 0 0.13906 0.062 0.13906 0.1392 0 0.077-0.0616 0.1421-0.13906 0.1421-0.0773 0-0.13902-0.065-0.13902-0.1421 0-0.077 0.0616-0.1392 0.13902-0.1392zm82.448 13.69c0.0899 0 0.16321 0.0734 0.16321 0.16333 0 0.0898-0.0733 0.1601-0.16321 0.1601-0.0899 0-0.16019-0.0705-0.16019-0.1601 0-0.09 0.0703-0.16333 0.16019-0.16333zm-84.04-10.603c0.10754 0 0.19648 0.0889 0.19648 0.1964 0 0.10746-0.089 0.19335-0.19648 0.19335-0.10754 0-0.19343-0.0859-0.19343-0.19335 0-0.1075 0.0859-0.1964 0.19343-0.1964zm1.2181 0.0194c0.0921 0 0.16623 0.0743 0.16623 0.16614 0 0.092-0.0742 0.16629-0.16623 0.16629-0.0921 0-0.16625-0.0743-0.16625-0.16629 0-0.092 0.0742-0.16614 0.16625-0.16614zm19.238-21.739c0.1574 0 0.28411 0.1266 0.28411 0.2841 0 0.1574-0.12668 0.2871-0.28411 0.2871-0.15744 0-0.28718-0.1297-0.28718-0.2871 0-0.1575 0.12974-0.2841 0.28718-0.2841zm95.735 27.381c0.084 0 0.1541 0.0665 0.1541 0.15111 0 0.0839-0.07 0.15112-0.1541 0.15112-0.084 0-0.1512-0.0674-0.1512-0.15112 0-0.0839 0.067-0.15111 0.1512-0.15111zm-51.126-33.575c0.17843 0 0.32344 0.1451 0.32344 0.3236 0 0.1783-0.14501 0.3233-0.32344 0.3233-0.1784 0-0.3234-0.145-0.3234-0.3233 0-0.1785 0.14499-0.3236 0.3234-0.3236zm-65.014 29.723c0.0692 0 0.12392 0.058 0.12392 0.1269 0 0.069-0.055 0.12389-0.12392 0.12389-0.0692 0-0.1239-0.0542-0.1239-0.12389 0-0.069 0.055-0.1269 0.1239-0.1269zm87.857 13.399c0.08 0 0.1451 0.065 0.1451 0.14509 0 0.0801-0.065 0.14493-0.1451 0.14493-0.08 0-0.1451-0.065-0.1451-0.14493 0-0.0802 0.065-0.14509 0.1451-0.14509zm-5.3043 2.2881c0.0869 0 0.15719 0.0695 0.15719 0.15716 0 0.087-0.0702 0.15724-0.15719 0.15724-0.0869 0-0.15719-0.0705-0.15719-0.15724 0-0.087 0.0703-0.15716 0.15719-0.15716zm-49.092-6.6992c0.17814 0 0.32343 0.14517 0.32343 0.32344 0 0.17821-0.14529 0.32034-0.32343 0.32034-0.17815 0-0.32344-0.14213-0.32344-0.32034 0-0.17827 0.14529-0.32344 0.32344-0.32344zm-9.4459-28.259c0.10701 0 0.19346 0.087 0.19346 0.1936 0 0.107-0.0865 0.1934-0.19346 0.1934-0.10703 0-0.19346-0.086-0.19346-0.1934 0-0.107 0.0864-0.1936 0.19346-0.1936zm-7.7872-0.5128c0.0862 0 0.15718 0.071 0.15718 0.157s-0.0711 0.1541-0.15718 0.1541c-0.0862 0-0.15718-0.068-0.15718-0.1541 0-0.086 0.0711-0.157 0.15718-0.157zm45.047 60.75c0.17454 0 0.31433 0.14293 0.31433 0.31742-0.0392 0.69149-0.62822 0-0.63173 0 0-0.17449 0.14285-0.31742 0.3174-0.31742zm53.907-32.964c0.1206 0 0.2177 0.097 0.2177 0.21759 0 0.12063-0.097 0.22068-0.2177 0.22068-0.1206 0-0.2176-0.10005-0.2176-0.22068 0-0.12056 0.097-0.21759 0.2176-0.21759zm-75.167 1.953c0.17204 0 0.31134 0.13927 0.31134 0.31128 0 0.17202-0.1393 0.31131-0.31134 0.31131-0.172 0-0.31131-0.13929-0.31131-0.31131 0-0.17201 0.13931-0.31128 0.31131-0.31128zm-4.2892 0.84334c0.12043 0 0.21764 0.0971 0.21764 0.21758 0 0.1204-0.0972 0.21759-0.21764 0.21759-0.12042 0-0.2176-0.0972-0.2176-0.21759 0-0.12046 0.0972-0.21758 0.2176-0.21758zm48.617 6.9924c0.0865 0 0.15716 0.0705 0.15716 0.15723 0 0.0865-0.0708 0.15414-0.15716 0.15414-0.0865 0-0.15719-0.0673-0.15719-0.15414 0-0.0865 0.0708-0.15723 0.15719-0.15723zm-60.52-35.145c0.09 0 0.16318 0.073 0.16318 0.163s-0.0731 0.1633-0.16318 0.1633c-0.0901 0-0.16324-0.073-0.16324-0.1633 0-0.09 0.0732-0.163 0.16324-0.163zm9.606-15.304c0.16867 0 0.3053 0.1365 0.3053 0.3052 0 0.1685-0.13663 0.3053-0.3053 0.3053-0.1686 0-0.30525-0.1368-0.30525-0.3053 0-0.1687 0.13665-0.3052 0.30525-0.3052zm-10.522 16.366c0.0642 0 0.11485 0.05 0.11485 0.1149 0 0.064-0.0508 0.118-0.11485 0.118-0.0641 0-0.11486-0.053-0.11486-0.118 0-0.064 0.0508-0.1149 0.11486-0.1149zm11.011 28.869c0.12817 0 0.23275 0.1016 0.23275 0.22966s-0.10458 0.23275-0.23275 0.23275c-0.12818 0-0.22972-0.10469-0.22972-0.23275s0.10154-0.22966 0.22972-0.22966zm-9.7622-1.5116c0.15981 0 0.29019 0.12735 0.29019 0.28714 0 0.15986-0.13038 0.29025-0.29019 0.29025-0.1598 0-0.28716-0.13039-0.28716-0.29025 0-0.15979 0.12736-0.28714 0.28716-0.28714zm2.2309-35.524c0.15528 0 0.28106 0.1259 0.28106 0.2811s-0.12578 0.2812-0.28106 0.2812c-0.15535 0-0.28115-0.126-0.28115-0.2812s0.1258-0.2811 0.28115-0.2811zm29.769-4.0998c0.17539 0 0.31737 0.1419 0.31737 0.3172 0 0.1755-0.14198 0.3174-0.31737 0.3174-0.17541 0-0.31739-0.1419-0.31739-0.3174 0-0.1753 0.14198-0.3172 0.31739-0.3172zm32.681 57.057c0.1084 0 0.1965 0.0881 0.1965 0.19638 0 0.10848-0.088 0.19645-0.1965 0.19645-0.1084 0-0.1964-0.088-0.1964-0.19645 0-0.10825 0.088-0.19638 0.1964-0.19638zm-9.3444 5.7862c0.10144 0 0.18437 0.0829 0.18437 0.18424 0 0.10151-0.0829 0.18454-0.18437 0.18454-0.10144 0-0.18437-0.083-0.18437-0.18454 0-0.10128 0.0829-0.18424 0.18437-0.18424zm1.49 0.438c0.17941 0 0.32343 0.14401 0.32343 0.32345 0 0.17936-0.14402 0.32638-0.32343 0.32638-0.17942 0-0.32645-0.14702-0.32645-0.32638 0-0.17944 0.14703-0.32345 0.32645-0.32345zm8.0903-4.4471c0.1695 0 0.3083 0.13588 0.3083 0.30541 0 0.16937-0.1388 0.3082-0.3083 0.3082s-0.3053-0.13883-0.3053-0.3082c0-0.16953 0.1358-0.30541 0.3053-0.30541zm-68.772-40.104c0.17852 0 0.32344 0.1449 0.32344 0.3234 0 0.1786-0.14492 0.3234-0.32344 0.3234-0.17853 0-0.32344-0.1448-0.32344-0.3234 0-0.1785 0.14491-0.3234 0.32344-0.3234zm60.661 45.808c0.12044 0 0.21763 0.0971 0.21763 0.21768 0 0.1204-0.0972 0.21757-0.21763 0.21757-0.12047 0-0.21763-0.0972-0.21763-0.21757 0-0.12056 0.0972-0.21768 0.21763-0.21768zm-71.471-2.5813c0.10259 0 0.18742 0.0818 0.18742 0.18441 0 0.10259-0.0848 0.18438-0.18742 0.18438-0.10261 0-0.18437-0.0818-0.18437-0.18438 0-0.10262 0.0818-0.18441 0.18437-0.18441zm107.58-12.01c0.1247 0 0.2267 0.10198 0.2267 0.22656 0 0.12474-0.102 0.22673-0.2267 0.22673-0.1246 0-0.2237-0.10199-0.2237-0.22673 0-0.12458 0.099-0.22656 0.2237-0.22656zm-103.73 15.392c0.10444 0 0.1904 0.083 0.1904 0.18739 0 0.10441-0.0859 0.19044-0.1904 0.19044-0.10444 0-0.18742-0.086-0.18742-0.19044 0-0.10436 0.083-0.18739 0.18742-0.18739zm6.393 1.5772c0.06 0 0.10277 0.0642 0.10277 0.1269 0 0.0712-0.0557 0.12992-0.12696 0.12992-0.0711 0-0.12996-0.0588-0.12996-0.12992 0-0.0712 0.0587-0.1269 0.12996-0.1269 0.01 0 0.0158-0.01 0.0243 0zm-27.32 0.139c0.16046 0 0.29017 0.12977 0.29017 0.29017 0 0.16049-0.12971 0.29025-0.29017 0.29025-0.16048 0-0.29018-0.1297-0.29018-0.29025 0-0.1604 0.1297-0.29017 0.29018-0.29017zm127.17-14.492c0.1297 0 0.2327 0.10624 0.2327 0.23577 0 0.12961-0.103 0.23267-0.2327 0.23267s-0.2358-0.10306-0.2358-0.23267c0-0.12953 0.1061-0.23577 0.2358-0.23577zm-111.01 15.185c0.17346 0 0.31434 0.14108 0.31434 0.31432 0 0.17349-0.14091 0.31439-0.31434 0.31439-0.17342 0-0.31435-0.1409-0.31435-0.31439 0-0.17324 0.14093-0.31432 0.31435-0.31432zm10.553 0.10278c0.13737 0 0.25086 0.11359 0.25086 0.25094 0 0.13734-0.11349 0.24783-0.25086 0.24783-0.13739 0-0.24785-0.11042-0.24785-0.24783 0-0.13735 0.11046-0.25094 0.24785-0.25094zm-25.602 0.38696c0.15168 0 0.27504 0.12335 0.27504 0.27507 0 0.15175-0.12336 0.27509-0.27504 0.27509-0.1517 0-0.27506-0.12334-0.27506-0.27509 0-0.15172 0.12336-0.27507 0.27506-0.27507zm128.02-11.707c0.1017 0 0.1844 0.0827 0.1844 0.18441 0 0.10166-0.083 0.18439-0.1844 0.18439-0.1017 0-0.1843-0.0827-0.1843-0.18439 0-0.10176 0.083-0.18441 0.1843-0.18441zm-128.99 15.099c0.13093 0 0.23575 0.10484 0.23575 0.2357 0 0.13099-0.10482 0.23584-0.23575 0.23584s-0.23878-0.10485-0.23878-0.23584c0-0.13086 0.10785-0.2357 0.23878-0.2357zm-0.603 3.4128c0.13536 0 0.24483 0.1094 0.24483 0.24475 0 0.1354-0.10947 0.24489-0.24483 0.24489-0.13539 0-0.24786-0.10949-0.24786-0.24489 0-0.13535 0.11247-0.24475 0.24786-0.24475z"/>
<path d="m690.7 1141.3c0.0815 0 0.14638-0.065 0.14638-0.1466 0-0.081-0.0649-0.1495-0.14638-0.1495-0.0814 0-0.14634 0.068-0.14634 0.1495 0 0.082 0.0649 0.1466 0.14634 0.1466zm86.787-14.41c0.0946 0 0.1718-0.077 0.1718-0.172s-0.0772-0.1685-0.1718-0.1685-0.16863 0.074-0.16863 0.1685c0 0.095 0.074 0.172 0.16863 0.172zm-88.464 11.161c0.1132 0 0.20682-0.094 0.20682-0.2068 0-0.1131-0.0936-0.2035-0.20682-0.2035-0.1132 0-0.20361 0.09-0.20361 0.2035 0 0.1132 0.0904 0.2068 0.20361 0.2068zm1.2823-0.02c0.0969 0 0.17497-0.078 0.17497-0.1749 0-0.097-0.0781-0.175-0.17497-0.175-0.0969 0-0.175 0.078-0.175 0.175s0.0782 0.1749 0.175 0.1749zm30.251 28.883c0.16569 0 0.29907-0.1333 0.29907-0.299 0-0.1658-0.13335-0.3023-0.29907-0.3023s-0.30229 0.1365-0.30229 0.3023c0 0.1657 0.13657 0.299 0.30229 0.299zm90.773-34.822c0.0883 0 0.16226-0.07 0.16226-0.1591 0-0.088-0.0739-0.1591-0.16226-0.1591-0.0883 0-0.15907 0.071-0.15907 0.1591 0 0.088 0.0708 0.1591 0.15907 0.1591zm-76.839 66.028c0.13735 0 0.24818-0.111 0.24818-0.2484 0-0.1373-0.11083-0.2481-0.24818-0.2481-0.13736 0-0.24817 0.1108-0.24817 0.2481 0 0.1374 0.11081 0.2484 0.24817 0.2484zm23.022-8.6855c0.18782 0 0.34046-0.1527 0.34046-0.3406 0-0.1877-0.15264-0.3404-0.34046-0.3404-0.18779 0-0.34043 0.1527-0.34043 0.3404 0 0.1879 0.15263 0.3406 0.34043 0.3406zm-68.436-53.287c0.0728 0 0.13044-0.061 0.13044-0.1336 0-0.073-0.0579-0.1304-0.13044-0.1304-0.0728 0-0.13042 0.057-0.13042 0.1304 0 0.072 0.0579 0.1336 0.13042 0.1336zm92.482-14.105c0.0844 0 0.15273-0.068 0.15273-0.1528 0-0.084-0.0683-0.1525-0.15273-0.1525-0.0844 0-0.15274 0.068-0.15274 0.1525 0 0.084 0.0683 0.1528 0.15274 0.1528zm-49.89 74.776c0.11096 0 0.20045-0.093 0.20045-0.2038 0-0.111-0.0895-0.2004-0.20045-0.2004-0.11097 0-0.20044 0.089-0.20044 0.2004 0 0.1111 0.0894 0.2038 0.20044 0.2038zm1.7786-0.3501c0.18139 0 0.33093-0.1496 0.33093-0.3309 0-0.1814-0.14953-0.3276-0.33093-0.3276-0.18136 0-0.3277 0.1462-0.3277 0.3276 0 0.1813 0.14634 0.3309 0.3277 0.3309zm-2.9492-0.2737c0.1699 0 0.30863-0.1387 0.30863-0.3087 0-0.1698-0.13876-0.3053-0.30863-0.3053-0.16989 0-0.30863 0.1356-0.30863 0.3053 0 0.17 0.13874 0.3087 0.30863 0.3087zm45.478-76.56c0.0915 0 0.16546-0.073 0.16546-0.1654 0-0.092-0.0739-0.1656-0.16546-0.1656-0.0915 0-0.16546 0.074-0.16546 0.1656 0 0.092 0.074 0.1654 0.16546 0.1654zm-73.675-14.948c0.18751 0 0.34045-0.1528 0.34045-0.3405 0-0.1876-0.15294-0.3372-0.34045-0.3372-0.18753 0-0.34047 0.1496-0.34047 0.3372 0 0.1877 0.15294 0.3405 0.34047 0.3405zm22.057 57.746c0.11265 0 0.20364-0.091 0.20364-0.2039 0-0.1126-0.091-0.2035-0.20364-0.2035-0.11266 0-0.20364 0.091-0.20364 0.2035 0 0.1127 0.0909 0.2039 0.20364 0.2039zm-8.1971 0.5398c0.0907 0 0.16545-0.075 0.16545-0.1654 0-0.091-0.0748-0.1622-0.16545-0.1622-0.0907 0-0.16545 0.071-0.16545 0.1622 0 0.091 0.0747 0.1654 0.16545 0.1654zm26.197-79.503c0.12552 0 0.22592-0.1035 0.22592-0.229s-0.1004-0.2259-0.22592-0.2259c-0.12551 0-0.22909 0.1004-0.22909 0.2259s0.10357 0.229 0.22909 0.229zm-4.779 9.5551c0.18373 0 0.33088-0.1504 0.33088-0.3341s-0.14715-0.334-0.33088-0.334-0.3341 0.1503-0.3341 0.334 0.15037 0.3341 0.3341 0.3341zm72.744 34.699c0.12693 0 0.22908-0.1021 0.22908-0.229 0-0.127-0.10215-0.2323-0.22908-0.2323-0.12695 0-0.2291 0.1053-0.2291 0.2323 0 0.1269 0.10215 0.229 0.2291 0.229zm-101.12-24.06c0.18109 0 0.32773-0.1466 0.32773-0.3276 0-0.1811-0.14664-0.3277-0.32773-0.3277-0.18105 0-0.32769 0.1466-0.32769 0.3277 0 0.181 0.14664 0.3276 0.32769 0.3276zm-4.5149-0.8877c0.12676 0 0.22909-0.1022 0.22909-0.229s-0.10233-0.2291-0.22909-0.2291-0.22906 0.1023-0.22906 0.2291 0.1023 0.229 0.22906 0.229zm73.176 14.64c0.091 0 0.16544-0.074 0.16544-0.1655 0-0.091-0.0745-0.1623-0.16544-0.1623-0.091 0-0.16546 0.071-0.16546 0.1623 0 0.091 0.0745 0.1655 0.16546 0.1655zm-53.706 42.995c0.0947 0 0.17177-0.077 0.17177-0.1717 0-0.095-0.077-0.1718-0.17177-0.1718-0.0948 0-0.17183 0.077-0.17183 0.1718 0 0.095 0.077 0.1717 0.17183 0.1717zm49.944-121.99c0.0967 0 0.17499-0.078 0.17499-0.175s-0.0784-0.175-0.17499-0.175c-0.0966 0-0.17499 0.078-0.17499 0.175s0.0784 0.175 0.17499 0.175zm-49.83 154.12c0.17754 0 0.32136-0.1438 0.32136-0.3213s-0.14382-0.3214-0.32136-0.3214c-0.17748 0-0.32132 0.1439-0.32132 0.3214s0.14384 0.3213 0.32132 0.3213zm-1.0759-33.228c0.0675 0 0.1209-0.053 0.1209-0.1209 0-0.068-0.0535-0.1242-0.1209-0.1242-0.0676 0-0.1209 0.056-0.1209 0.1242 0 0.068 0.0535 0.1209 0.1209 0.1209zm-20.41-58.388c0.13492 0 0.245-0.1069 0.245-0.2417s-0.11008-0.245-0.245-0.245-0.24181 0.1102-0.24181 0.245 0.10689 0.2417 0.24181 0.2417zm29.89 90.29c0.12599 0 0.22908-0.1031 0.22908-0.2291s-0.10309-0.2291-0.22908-0.2291c-0.12598 0-0.22592 0.1031-0.22592 0.2291s0.0999 0.2291 0.22592 0.2291zm-40.166-88.699c0.16823 0 0.30547-0.1341 0.30547-0.3023s-0.13724-0.3055-0.30547-0.3055c-0.16821 0-0.30227 0.1373-0.30227 0.3055s0.13406 0.3023 0.30227 0.3023zm34.348 65.394c0.16346 0 0.29586-0.1324 0.29586-0.296 0-0.1633-0.1324-0.2958-0.29586-0.2958-0.16352 0-0.29594 0.1325-0.29594 0.2958 0 0.1636 0.13242 0.296 0.29594 0.296zm47.361-132.32c0.18205 0 0.33088-0.1488 0.33088-0.3309s-0.14883-0.3309-0.33088-0.3309c-0.18208 0-0.32772 0.1488-0.32772 0.3309s0.14564 0.3309 0.32772 0.3309zm-0.31794-0.8654c0.10882 0 0.19727-0.088 0.19727-0.1973 0-0.1088-0.0884-0.1973-0.19727-0.1973-0.10882 0-0.19408 0.089-0.19408 0.1973 0 0.1088 0.0853 0.1973 0.19408 0.1973zm-52.9-6.0352c0.1705 0 0.30863-0.138 0.30863-0.3086 0-0.1704-0.13813-0.3117-0.30863-0.3117s-0.30862 0.1413-0.30862 0.3117c0 0.1706 0.13812 0.3086 0.30862 0.3086zm27.193 159.53c0.18462 0 0.33407-0.1495 0.33407-0.3341 0-0.1847-0.14945-0.3341-0.33407-0.3341-0.18465 0-0.3341 0.1494-0.3341 0.3341 0 0.1846 0.14945 0.3341 0.3341 0.3341zm34.401-82.06c0.11408 0 0.20681-0.093 0.20681-0.2068 0-0.1141-0.0927-0.2067-0.20681-0.2067-0.11409 0-0.20681 0.093-0.20681 0.2067 0 0.114 0.0927 0.2068 0.20681 0.2068zm-9.8362-6.0907c0.10678 0 0.19407-0.087 0.19407-0.194 0-0.1068-0.0873-0.1942-0.19407-0.1942-0.10678 0-0.19408 0.087-0.19408 0.1942 0 0.1066 0.0873 0.194 0.19408 0.194zm-45.553-73.532c0.0942 0 0.1718-0.074 0.1718-0.1689 0-0.094-0.0775-0.1716-0.1718-0.1716s-0.16863 0.077-0.16863 0.1716c0 0.094 0.0744 0.1689 0.16863 0.1689zm47.122 73.071c0.18885 0 0.34045-0.1516 0.34045-0.3405 0-0.1888-0.1516-0.3435-0.34045-0.3435-0.18886 0-0.34363 0.1547-0.34363 0.3435 0 0.1889 0.15477 0.3405 0.34363 0.3405zm8.5161 4.6812c0.17839 0 0.32454-0.1431 0.32454-0.3215 0-0.1783-0.14615-0.3244-0.32454-0.3244-0.17838 0-0.32137 0.1461-0.32137 0.3244 0 0.1784 0.14299 0.3215 0.32137 0.3215zm-62.392 48.215c0.18791 0 0.34046-0.1525 0.34046-0.3405 0-0.1879-0.15255-0.3404-0.34046-0.3404-0.18793 0-0.34047 0.1525-0.34047 0.3404s0.15254 0.3405 0.34047 0.3405zm53.853-54.219c0.12678 0 0.22908-0.1022 0.22908-0.2291 0-0.1268-0.1023-0.2291-0.22908-0.2291-0.12681 0-0.22909 0.1023-0.22909 0.2291 0 0.1269 0.10228 0.2291 0.22909 0.2291zm-49.887-74.404c0.0706 0 0.12726-0.057 0.12726-0.1273 0-0.07-0.0567-0.1273-0.12726-0.1273-0.0706 0-0.12727 0.057-0.12727 0.1273 0 0.071 0.0567 0.1273 0.12727 0.1273zm-2.3134-0.5092c0.1867 0 0.34043-0.1505 0.34043-0.3371 0-0.1868-0.15371-0.3374-0.34043-0.3374-0.18673 0-0.33728 0.1506-0.33728 0.3374 0 0.1866 0.15054 0.3371 0.33728 0.3371zm-29.033 25.63c0.10799 0 0.19728-0.086 0.19728-0.1941 0-0.108-0.0893-0.1941-0.19728-0.1941-0.10801 0-0.19408 0.086-0.19408 0.1941 0 0.108 0.0861 0.1941 0.19408 0.1941zm119.24 64.647c0.13125 0 0.23863-0.1073 0.23863-0.2385 0-0.1313-0.10738-0.2386-0.23863-0.2386-0.13123 0-0.23545 0.1073-0.23545 0.2386 0 0.1312 0.10422 0.2385 0.23545 0.2385zm-115.18-68.19c0.10993 0 0.20042-0.087 0.20042-0.1972 0-0.1099-0.0905-0.2005-0.20042-0.2005-0.10994 0-0.19729 0.091-0.19729 0.2005 0 0.1098 0.0874 0.1972 0.19729 0.1972zm85.034 41.77c0.12591 0 0.22908-0.1032 0.22908-0.2291s-0.10317-0.2259-0.22908-0.2259c-0.12593 0-0.22593 0.1-0.22593 0.2259s0.1 0.2291 0.22593 0.2291zm-59.304-72.304c0.11178 0 0.20363-0.092 0.20363-0.2036 0-0.1118-0.0919-0.2005-0.20363-0.2005-0.11179 0-0.20046 0.089-0.20046 0.2005 0 0.1118 0.0886 0.2036 0.20046 0.2036zm-19 28.872c-0.0632 0 0.10818-0.067 0.10818-0.1335 0-0.075-0.0586-0.1368-0.13364-0.1368-0.075 0-0.1368 0.062-0.1368 0.1368 0 0.075 0.0618 0.1335 0.1368 0.1335 0.01 0 0.0166 0.01 0.0256 0zm34.127 22.453c0.0776 0 0.14-0.063 0.14-0.1401 0-0.077-0.0624-0.1399-0.14-0.1399s-0.14001 0.063-0.14001 0.1399c0 0.078 0.0625 0.1401 0.14001 0.1401zm-62.829-22.596c0.16891 0 0.30545-0.1366 0.30545-0.3054 0-0.1689-0.13654-0.3055-0.30545-0.3055-0.16892 0-0.30545 0.1365-0.30545 0.3055 0 0.1688 0.13653 0.3054 0.30545 0.3054zm139.86 67.254c0.13647 0 0.24495-0.1118 0.24495-0.2482s-0.10848-0.2449-0.24495-0.2449c-0.13652 0-0.24819 0.1085-0.24819 0.2449s0.11167 0.2482 0.24819 0.2482zm-89.812-97.374c0.0859 0 0.15591-0.07 0.15591-0.1558 0-0.086-0.07-0.156-0.15591-0.156-0.0859 0-0.15589 0.07-0.15589 0.156s0.07 0.1558 0.15589 0.1558zm-32.994 29.397c0.18259 0 0.33089-0.1485 0.33089-0.3308 0-0.1826-0.14833-0.331-0.33089-0.331-0.18255 0-0.33089 0.1484-0.33089 0.331 0 0.1823 0.14834 0.3308 0.33089 0.3308zm11.108-0.1081c0.1446 0 0.26406-0.1196 0.26406-0.2642s-0.11946-0.2609-0.26406-0.2609c-0.14462 0-0.2609 0.1163-0.2609 0.2609s0.11628 0.2642 0.2609 0.2642zm-26.95-0.4074c0.15966 0 0.28951-0.1298 0.28951-0.2895 0-0.1598-0.12985-0.2896-0.28951-0.2896-0.15969 0-0.28954 0.1298-0.28954 0.2896 0 0.1597 0.12985 0.2895 0.28954 0.2895zm61.904 21.95c0.0809 0 0.14636-0.065 0.14636-0.1463 0-0.081-0.0655-0.1463-0.14636-0.1463-0.0809 0-0.14633 0.066-0.14633 0.1463 0 0.081 0.0654 0.1463 0.14633 0.1463zm-2.4404-0.9481c0.094 0 0.16863-0.074 0.16863-0.1687 0-0.094-0.0747-0.1718-0.16863-0.1718-0.094 0-0.17181 0.078-0.17181 0.1718 0 0.094 0.0778 0.1687 0.17181 0.1687zm81.297 43.321c0.10706 0 0.19408-0.087 0.19408-0.1941s-0.087-0.1941-0.19408-0.1941c-0.10706 0-0.19407 0.087-0.19407 0.1941s0.087 0.1941 0.19407 0.1941zm-40.021-74.093c0.18353 0 0.33408-0.1506 0.33408-0.3341s-0.15055-0.3309-0.33408-0.3309c-0.18349 0-0.3309 0.1474-0.3309 0.3309s0.14741 0.3341 0.3309 0.3341zm-101.71 6.1962c0.13782 0 0.24816-0.1104 0.24816-0.2481 0-0.1379-0.11034-0.2483-0.24816-0.2483s-0.25135 0.1104-0.25135 0.2483c0 0.1377 0.11353 0.2481 0.25135 0.2481zm61.49 22.285c0.1797 0 0.32453-0.1449 0.32453-0.3246s-0.14483-0.3277-0.32453-0.3277c-0.17972 0-0.32456 0.148-0.32456 0.3277s0.14484 0.3246 0.32456 0.3246zm43.024 16.609c0.0789 0 0.14318-0.064 0.14318-0.1431 0-0.079-0.0642-0.1433-0.14318-0.1433-0.0788 0-0.1432 0.064-0.1432 0.1433 0 0.079 0.0643 0.1431 0.1432 0.1431zm-105.15-42.48c0.14248 0 0.25772-0.1152 0.25772-0.2577s-0.11524-0.2578-0.25772-0.2578c-0.14251 0-0.2609 0.1153-0.2609 0.2578s0.11839 0.2577 0.2609 0.2577zm108.23 51.476c0.0865 0 0.15591-0.07 0.15591-0.1559 0-0.087-0.0693-0.1559-0.15591-0.1559-0.0864 0-0.15908 0.069-0.15908 0.1559 0 0.086 0.0727 0.1559 0.15908 0.1559zm-1.988-44.2c0.13179 0 0.23863-0.1068 0.23863-0.2387 0-0.1317-0.10684-0.2386-0.23863-0.2386-0.13175 0-0.2386 0.1069-0.2386 0.2386 0 0.1319 0.10683 0.2387 0.2386 0.2387z"/>
<path d="m818.81 911.11c0 0.0814 0.065 0.14638 0.1466 0.14638 0.082 0 0.1495-0.0649 0.1495-0.14638 0-0.0814-0.068-0.14634-0.1495-0.14634-0.081 0-0.1466 0.0649-0.1466 0.14634zm3.249-1.677c0 0.11322 0.093 0.20683 0.2067 0.20683 0.1132 0 0.2035-0.0936 0.2035-0.20683 0-0.1132-0.09-0.20361-0.2035-0.20361-0.1131 0-0.2067 0.0904-0.2067 0.20361zm0.021 1.2823c0 0.0969 0.078 0.17497 0.1749 0.17497 0.097 0 0.1751-0.0781 0.1751-0.17497 0-0.0969-0.078-0.175-0.1751-0.175-0.097 0-0.1749 0.0781-0.1749 0.175zm-28.883 44.251c0 0.16569 0.1333 0.29907 0.299 0.29907s0.3023-0.13335 0.3023-0.29907c0-0.16573-0.1366-0.30229-0.3023-0.30229s-0.299 0.13656-0.299 0.30229zm18.822 76.77c0 0.088 0.07 0.1623 0.1589 0.1623 0.088 0 0.1592-0.074 0.1592-0.1623 0-0.088-0.071-0.1591-0.1592-0.1591-0.088 0-0.1589 0.071-0.1589 0.1591zm-74.028-76.839c0 0.13734 0.1109 0.24818 0.2483 0.24818s0.2481-0.11084 0.2481-0.24818c0-0.13737-0.1107-0.24817-0.2481-0.24817s-0.2483 0.1108-0.2483 0.24817zm8.6854 23.022c0 0.1878 0.1527 0.3405 0.3405 0.3405s0.3404-0.1527 0.3404-0.3405-0.1526-0.3404-0.3404-0.3404-0.3405 0.1526-0.3405 0.3404zm77.287-68.436c0 0.0728 0.061 0.13043 0.1336 0.13043 0.073 0 0.1304-0.0578 0.1304-0.13043 0-0.0728-0.057-0.13043-0.1304-0.13043-0.073 0-0.1336 0.0579-0.1336 0.13043zm-84.671 42.592c0 0.11096 0.093 0.20045 0.2038 0.20045 0.111 0 0.2004-0.0895 0.2004-0.20045 0-0.11096-0.089-0.20044-0.2004-0.20044-0.111 0-0.2038 0.0895-0.2038 0.20044zm0.35 1.7786c0 0.1814 0.1496 0.33094 0.331 0.33094s0.3277-0.14953 0.3277-0.33094c0-0.18136-0.1463-0.3277-0.3277-0.3277s-0.331 0.14634-0.331 0.3277zm0.2738-2.9492c0 0.1699 0.1387 0.30863 0.3086 0.30863 0.1698 0 0.3054-0.13876 0.3054-0.30863 0-0.1699-0.1357-0.30864-0.3054-0.30864-0.1699 0-0.3086 0.13876-0.3086 0.30864zm57.762 7.86c0 0.11265 0.091 0.20364 0.2038 0.20364 0.1126 0 0.2036-0.091 0.2036-0.20364 0-0.11265-0.091-0.20365-0.2036-0.20365-0.1127 0-0.2038 0.0909-0.2038 0.20365zm-0.5399-8.1971c0 0.0907 0.075 0.16545 0.1655 0.16545 0.09 0 0.1621-0.0748 0.1621-0.16545 0-0.0907-0.071-0.16545-0.1621-0.16545-0.091 0-0.1655 0.0748-0.1655 0.16545zm19.249 80.162c0 0.1269 0.1022 0.2291 0.229 0.2291 0.127 0 0.2324-0.1022 0.2324-0.2291s-0.1054-0.2291-0.2324-0.2291c-0.1268 0-0.229 0.1022-0.229 0.2291zm-16.691-72.168c0 0.0947 0.077 0.17178 0.1715 0.17178 0.095 0 0.172-0.077 0.172-0.17178 0-0.0948-0.078-0.17183-0.172-0.17183-0.095 0-0.1715 0.077-0.1715 0.17183zm151.99 25.944c0 0.097 0.078 0.175 0.175 0.175s0.175-0.078 0.175-0.175-0.078-0.175-0.175-0.175-0.175 0.078-0.175 0.175zm-208.1-39.79c0 0.17753 0.1438 0.32136 0.3214 0.32136 0.1774 0 0.3213-0.14383 0.3213-0.32136 0-0.17749-0.1439-0.32133-0.3213-0.32133-0.1776 0-0.3214 0.14384-0.3214 0.32133zm57.228 12.924c0 0.0676 0.053 0.12091 0.1209 0.12091 0.067 0 0.1241-0.0535 0.1241-0.12091 0-0.0675-0.056-0.12089-0.1241-0.12089-0.067 0-0.1209 0.0535-0.1209 0.12089zm-55.901-4.519c0 0.12599 0.1031 0.22908 0.2292 0.22908 0.1258 0 0.229-0.10309 0.229-0.22908 0-0.12597-0.1032-0.22592-0.229-0.22592-0.1261 0-0.2292 0.0999-0.2292 0.22592zm47.305 8.182c0 0.16347 0.1323 0.29587 0.2959 0.29587 0.1633 0 0.2959-0.1324 0.2959-0.29587 0-0.1635-0.1326-0.29593-0.2959-0.29593-0.1636 0-0.2959 0.13243-0.2959 0.29593zm162.32 23.361c0 0.1821 0.1488 0.3309 0.3309 0.3309 0.18211 0 0.33091-0.1488 0.33091-0.3309s-0.1488-0.3277-0.33091-0.3277c-0.1821 0-0.3309 0.1456-0.3309 0.3277zm0.86541-0.3179c0 0.1088 0.088 0.1972 0.1973 0.1972 0.1088 0 0.1973-0.088 0.1973-0.1972 0-0.1089-0.088-0.1941-0.1973-0.1941-0.1088 0-0.1973 0.085-0.1973 0.1941zm-53.965-36.9c0 0.1705 0.138 0.30863 0.3085 0.30863s0.3117-0.13813 0.3117-0.30863c0-0.17051-0.1412-0.30863-0.3117-0.30863s-0.3085 0.13812-0.3085 0.30863zm-153.53 21.2c0 0.1846 0.1494 0.3341 0.334 0.3341 0.1847 0 0.3341-0.1495 0.3341-0.3341s-0.1494-0.3341-0.3341-0.3341c-0.1846 0-0.334 0.1495-0.334 0.3341zm155.68-14.989c0 0.0942 0.074 0.1718 0.1688 0.1718 0.094 0 0.1717-0.0775 0.1717-0.1718s-0.077-0.16864-0.1717-0.16864c-0.094 0-0.1688 0.0744-0.1688 0.16864zm-95.967 1.246c0 0.18791 0.1525 0.34045 0.3403 0.34045 0.188 0 0.3406-0.15254 0.3406-0.34045 0-0.18794-0.1526-0.34047-0.3406-0.34047-0.1878 0-0.3403 0.15253-0.3403 0.34047zm98.623-4.034c0 0.0706 0.057 0.12727 0.1272 0.12727 0.07 0 0.1273-0.0567 0.1273-0.12727 0-0.0706-0.057-0.12727-0.1273-0.12727-0.071 0-0.1272 0.0567-0.1272 0.12727zm0.5091-2.3134c0 0.1867 0.1506 0.34043 0.3372 0.34043 0.1867 0 0.3373-0.15371 0.3373-0.34043s-0.1506-0.33728-0.3373-0.33728c-0.1866 0-0.3372 0.15054-0.3372 0.33728zm-59.63-29.033c0 0.108 0.086 0.19728 0.1941 0.19728 0.108 0 0.1941-0.0893 0.1941-0.19728 0-0.108-0.086-0.19407-0.1941-0.19407-0.108 0-0.1941 0.0861-0.1941 0.19407zm3.556 4.05c0 0.10994 0.087 0.20041 0.1972 0.20041 0.1099 0 0.2005-0.0904 0.2005-0.20041 0-0.10994-0.091-0.19728-0.2005-0.19728-0.1098 0-0.1972 0.0874-0.1972 0.19728zm64.59 25.764c0 0.11176 0.092 0.20362 0.2037 0.20362 0.1118 0 0.2004-0.0919 0.2004-0.20362 0-0.11181-0.089-0.20047-0.2004-0.20047-0.1119 0-0.2037 0.0886-0.2037 0.20047zm-62.872-19c0-0.0632 0.068 0.10818 0.1336 0.10818 0.075 0 0.1367-0.0586 0.1367-0.13364 0-0.075-0.062-0.13681-0.1367-0.13681-0.075 0-0.1336 0.0617-0.1336 0.13681 0 0.01-0.01 0.0166 0 0.0255zm64.263 21.347c0 0.0859 0.07 0.15592 0.1559 0.15592 0.086 0 0.1559-0.07 0.1559-0.15592 0-0.0859-0.07-0.15589-0.1559-0.15589-0.086 0-0.1559 0.07-0.1559 0.15589zm-63.397-32.994c0 0.18259 0.1485 0.33088 0.3309 0.33088 0.1826 0 0.3309-0.14833 0.3309-0.33088s-0.1483-0.3309-0.3309-0.3309c-0.1824 0-0.3309 0.14835-0.3309 0.3309zm0.1082 11.108c0 0.14461 0.1196 0.26407 0.2642 0.26407 0.1445 0 0.2608-0.11946 0.2608-0.26407 0-0.14462-0.1162-0.2609-0.2608-0.2609s-0.2642 0.11628-0.2642 0.2609zm104.18 57.79c0 0.1835 0.1505 0.3341 0.334 0.3341 0.1836 0 0.331-0.1506 0.331-0.3341s-0.1474-0.3309-0.331-0.3309c-0.1835 0-0.334 0.1474-0.334 0.3309zm-9.8801 3.9018c0 0.1318 0.1069 0.2386 0.2387 0.2386 0.1317 0 0.2386-0.1068 0.2386-0.2386s-0.1069-0.2386-0.2386-0.2386c-0.1318 0-0.2387 0.1068-0.2387 0.2386z"/>
</g>
</g>
</g>
</svg>
