<svg xmlns:rdf="http://www.w3.org/1999/02/22-rdf-syntax-ns#" xmlns="http://www.w3.org/2000/svg" height="1014.9" width="759.7" version="1.1" xmlns:cc="http://creativecommons.org/ns#" xmlns:xlink="http://www.w3.org/1999/xlink" viewBox="0 0 759.70727 1014.9059" xmlns:dc="http://purl.org/dc/elements/1.1/">
<defs>
<linearGradient id="f">
<stop stop-color="#781215" offset="0"/>
<stop stop-color="#781215" stop-opacity="0" offset="1"/>
</linearGradient>
<linearGradient id="i" y2="90.34" gradientUnits="userSpaceOnUse" x2="138.98" y1="90.34" x1="52.881">
<stop stop-color="#848484" offset="0"/>
<stop stop-color="#848484" stop-opacity="0" offset="1"/>
</linearGradient>
<linearGradient id="g" y2="952.27" xlink:href="#f" gradientUnits="userSpaceOnUse" x2="452.1" gradientTransform="matrix(1.1025,0,0,1.1025,110.91,-64.21)" y1="844.47" x1="380.31"/>
<linearGradient id="h" x1="477.33" xlink:href="#f" gradientUnits="userSpaceOnUse" y1="969.52" gradientTransform="matrix(1.1025,0,0,1.1025,-44.196,-64.22)" x2="320.58" y2="758.23"/>
<linearGradient id="a" y2="90.34" xlink:href="#i" gradientUnits="userSpaceOnUse" x2="138.98" y1="90.34" x1="52.881"/>
</defs>
<g transform="translate(-100.37 -56.943)">
<g fill="url(#a)" transform="matrix(8.9165,0,0,8.8598,-375.14,-236)">
<g fill="url(#a)" transform="matrix(.78306 0 0 .78306 28.587 -135.63)">
<g transform="translate(0,1.2133)" stroke="#a3a3a3" stroke-width=".28736">
<path stroke-linejoin="round" fill="#901115" d="m31.742 214.36h81.388l-1.89 30.57 29.02-0.07v115.5h-108.52l0.002-146z"/>
<path d="m110.98 244.85 2.1616-30.456 26.978 30.38z" fill-rule="evenodd" fill="#d0d0d0"/>
</g>
</g>
</g>
<g transform="matrix(.864 0 0 .864 32.465 -67.497)">
<g transform="matrix(.99695 0 0 1 .50367 103.33)">
<path fill="#d9a3a5" d="m199.62 853.48c-5.86-1.61-26.15-11.81-29.5-14.83-3.46-3.13-5.12-7.8-5.12-14.44 0-16.928 12.21-37.471 36.981-62.219 25.808-25.784 58.53-48.718 101.29-70.995 9.968-5.1927 13.001-5.9492 11.069-2.7608-1.1345 1.8725-23.302 22.284-36.549 33.655-43.424 37.272-82.732 88.908-85.505 112.32l-0.60349 5.0956 3.4078-0.66795c5.862-1.149 19.072-8.08 27.408-14.381 38.503-29.102 90.13-102.6 149.6-212.98 38.846-72.1 74.074-144.07 95.551-195.2l7.3148-17.415-6.8994-27.585c-12.25-49.01-19.69-86.37-23.74-119.37-1.25-10.11-1.75-21.56-1.75-39.71-0.004-22.783 0.23635-26.606 2.2597-35.878 2.7083-12.411 4.6583-16.519 10.232-21.555 8.5655-7.7384 21.09-11.167 37.832-10.355 11.739 0.56909 17.147 2.7164 23.86 9.475 5.2518 5.2873 11.171 15.798 13.654 24.245 2.0191 6.87 2.0334 18.328 0.0397 31.94-1.6011 10.932-3.8272 20.845-4.9282 21.946-1.479 1.4789-2.4857-2.9255-2.4999-10.937-0.0312-17.539-4.1296-32.323-13.825-49.87-5.2-9.4-14.65-20.01-17.82-20.01-8.4488 0-12.823 20.587-12.855 60.5-0.0114 14.207 0.55224 30.181 1.3055 37 3.4881 31.578 15.681 90.473 18.187 87.85 1.3396-1.4019 5.4136-15.985 14.485-51.85 9.1021-35.988 10.148-39.5 11.76-39.5 1.0808 0 0.77028 7.5291-1.8144 44-2.8914 40.799-5.8743 66.023-9.4757 80.129-1.082 4.2376-1.9672 8.6561-1.9672 9.8189 0 3.6842 10.084 27.881 19.609 47.053 22.261 44.807 47.346 79.201 81.069 111.15 12.129 11.493 24.122 20.144 46.265 33.372l11.442 6.8362 10.558-1.2176c25.561-2.948 47.875-5.0765 64.921-6.1926 23.559-1.5426 71.545-0.72896 86.137 1.4605 39.071 5.8627 55.852 15.812 60.103 35.633 1.21 5.62 0.38 15.96-1.27 15.96-0.5639 0-2.9906-2.1859-5.3926-4.8575-5.3037-5.899-14.44-10.874-28.548-15.544-13.616-4.5071-25.773-6.4519-47.298-7.5665-28.512-1.4764-98.965 2.1651-95.936 4.9587 0.46383 0.4278 6.9183 3.4784 14.343 6.7792 50.165 22.301 95.249 35.461 126.53 36.935 15.952 0.75151 21.549-0.77222 29.113-7.9261 2.9601-2.7996 5.6743-4.7979 6.0314-4.4407 0.83223 0.83223-1.3382 10.632-3.8494 17.379-1.3118 3.525-3.4105 6.5105-6.4696 9.2032-8.94 7.88-16.64 10.08-35.29 10.08-45.14 0-115.04-21.22-177.05-53.75l-14.5-7.6061-12 1.728c-50.524 7.2756-142.45 27.751-202.5 45.103-24.511 7.083-54.978 16.476-57.155 17.62-0.91039 0.47859-3.352 3.9147-5.4257 7.6357-14.486 25.994-45.779 74.999-61.632 96.517-44.72 60.701-82.328 86.698-113.17 78.23zm201.22-207.1c38.89-15.41 86.22-30.25 134.66-42.23 20.06-4.96 61.76-14 75.28-16.32 3.97-0.68 7.22-1.5 7.22-1.83 0-0.32489-3.9255-3.4958-8.7233-7.0464-29.462-21.804-55.269-47.879-78.386-79.201-11.299-15.31-24.485-36.099-32.49-51.223-3.06-5.79-5.9-10.53-6.3-10.53-0.39727 0-2.918 5.7375-5.6017 12.75-17.028 44.495-39.823 93.252-66.394 142.01-9.6998 17.8-29.628 53.846-31.783 57.49-0.75587 1.278 0.49197 0.89194 12.512-3.8708zm469.95 66.632c-6.9967-2.1091-12.747-9.5579-12.747-16.512 0-4.1524 3.1725-10.738 6.3929-13.272 11.41-8.98 28.56-1.38 28.56 12.66 0 7.6377-3.4521 12.972-10.5 16.225-4.2737 1.9724-7.3663 2.2106-11.709 0.90163zm10.101-5.6042c0.21588-0.19746-0.21656-1.0929-0.96096-1.9898-0.7444-0.89695-1.821-2.5448-2.3925-3.662-1.4338-2.8027-2.8929-2.3289-3.8176 1.2398-0.54005 2.0841-1.3941 3.0047-2.7875 3.0047-1.8878 0-1.9916-0.55754-1.7214-9.25l0.28753-9.25 5.1305-0.29811c6.6404-0.38585 8.8334 1.4956 7.9781 6.8443-0.32565 2.0365-0.0777 5.1782 0.55094 6.9816 1.0659 3.0577 1.234 3.1545 2.4917 1.4344 1.8344-2.5087 1.7064-10.507-0.21198-13.245-3.5754-5.1046-10.824-6.5982-15.872-3.2704-8.3013 5.4723-7.2624 17.642 1.8478 21.644 2.62 1.151 8.1353 1.0443 9.4773-0.18322zm-2.89-14.46c0-0.4587-0.48921-1.1363-1.0871-1.5059-1.3885-0.85813-3.346 1.044-2.4937 2.423 0.70978 1.1485 3.5808 0.41309 3.5808-0.91716z"/>
<path fill="#d27d81" d="m198 852.11c-7.0767-2.2954-23.808-10.687-26.845-13.464-10.131-9.2646-6.383-28.817 10-52.162 8.0758-11.508 32.785-36.231 47.845-47.871 21.117-16.322 47.768-33.076 75.762-47.626 4.5442-2.3619 8.5055-4.051 8.8029-3.7535 0.71824 0.71824-12.966 13.839-29.065 27.867-19.831 17.28-29.029 25.987-40.376 38.217-27.302 29.428-47.052 58.762-51.83 76.979-1.9962 7.611-1.3689 10.192 2.2561 9.2821 15.614-3.9188 34.741-17.711 55.195-39.798 30.45-32.882 67.706-88.538 109.3-163.28 24.543-44.104 72.02-136.97 89.465-175 11.446-24.951 26.883-61.604 26.745-63.5-0.0602-0.825-3.4965-15.225-7.6362-32-17.339-70.259-24.671-115.58-24.747-152.95-0.0508-25.01 3.1447-46.091 8.0129-52.862 8.0365-11.178 20.174-15.671 40.655-15.052 11.19 0.33871 12.317 0.56202 17.462 3.4588 10.579 5.9564 19.839 21.147 21.942 35.993 1.2084 8.5326-1.281 31.894-4.5456 42.659-1.2651 4.1716-2.1314 0.96337-2.7002-10-0.76741-14.791-3.3524-24.968-9.6488-37.984-7.99-16.59-17.91-29.27-22.85-29.27-4.2565 0-8.4017 7.3485-10.558 18.718-3.9889 21.028-4.3866 53.762-1.0118 83.282 3.5508 31.06 14.91 85.683 17.948 86.305 1.461 0.2994 4.4609-9.9269 14.963-51.007 5.3148-20.789 10.074-38.226 10.576-38.748 1.3751-1.4316 1.131 6.8938-1.0832 36.95-3.3893 46.006-5.7515 66.234-9.7134 83.176l-2.6136 11.176 5.7942 14.324c15.665 38.724 34.701 71.989 59.7 104.32 12.757 16.501 42.5 46.117 55.282 55.046 11.482 8.0215 23.412 15.603 32.911 20.915l6.6402 3.7134 22.247-2.598c45.586-5.3236 80.919-7.1269 110.01-5.6146 56.641 2.9449 80.92 12.643 87.393 34.91 1.4607 5.0248 1.5332 15.277 0.11795 16.692-0.31161 0.31162-2.6692-1.6814-5.2392-4.4288-7.2722-7.7746-25.099-15.763-43.53-19.506-13.055-2.6514-27.469-3.6294-53.356-3.6204-33.07 0.0115-78.115 3.0781-77.385 5.2681 0.7791 2.3373 47.758 21.788 71.981 29.802 32.039 10.6 54.775 15.262 74.76 15.327 15.427 0.0505 18.151-0.73867 25.301-7.3299 2.4322-2.2419 4.7094-4.0763 5.0604-4.0763 1.161 0 0.66808 2.8016-1.9704 11.198-2.14 6.8105-3.3959 9.0606-6.9922 12.527-8.4903 8.1844-15.763 10.277-35.699 10.27-44.505-0.0155-109.35-19.343-171.92-51.247l-19.724-10.055-14.776 2.2706c-68.885 10.585-159.92 32.093-236.14 55.793-20.607 6.4069-21.448 6.7703-23.596 10.193-1.2251 1.9522-8.8608 14.701-16.968 28.33-47.816 80.382-89.262 129.73-122.07 145.33-13.686 6.5089-28.208 8.1635-39.5 4.5007zm210.5-207.9c42.968-16.69 99.337-33.461 152-45.223 21.13-4.73 52.57-10.99 55.12-10.99 3.6219 0 4.058-2.1584 0.89802-4.4448-47.673-34.494-86.338-78.661-115.87-132.37-4.3211-7.8567-8.3216-14.13-8.89-13.94-0.56841 0.18947-3.611 7.0735-6.7613 15.298-20.502 53.523-44.792 103.47-86.655 178.19-6.24 11.12-11.34 20.51-11.34 20.86 0 0.89585 1.3692 0.42496 21.5-7.3944zm459.47 66.54c-16.018-8.085-8.6694-32.225 9.2848-30.5 5.4578 0.52442 9.1405 2.8048 12.499 7.7398 3.1039 4.5606 3.1002 12.435-0.008 17.112-2.62 3.93-9.78 7.9-14.25 7.9-1.6919 0-5.0822-1.0125-7.534-2.25zm14.62-3.3985c8.4286-5.5226 6.6326-19.592-2.9673-23.246-3.352-1.2758-4.3792-1.2804-7.9515-0.0355-5.9469 2.0723-8.9866 6.9181-8.3853 13.367 0.38209 4.0981 1.0751 5.5013 4.0744 8.25 2.9839 2.7345 4.4074 3.312 8.1639 3.312 2.5424 0 5.66-0.72736 7.0658-1.6485zm-12.963-3.891c-0.79895-2.082-0.81031-11.809-0.0162-13.879 0.94659-2.4668 9.5625-2.157 11.902 0.42793 1.5647 1.729 1.6386 2.3463 0.5291 4.4195-0.99417 1.8576-1.0317 3.1498-0.16378 5.6395 1.4827 4.2532 1.4241 4.9313-0.42613 4.9313-0.85361 0-2.01-1.3139-2.5699-2.9198-1.6735-4.8005-5.3408-4.8969-6.0273-0.1585-0.41932 2.8946-2.3535 3.8167-3.2276 1.5388zm8.9706-9.6122c0.89944-1.4553-2.3183-3.8912-4.191-3.1726-0.77154 0.29607-1.4028 1.3902-1.4028 2.4313 0 2.1452 4.3683 2.7241 5.5938 0.74131z"/>
<path fill="#d75c61" d="m201.64 852.82c-2.6716-0.59102-10.764-4.0546-17.983-7.6968-15.022-7.579-16.587-9.3264-17.391-19.418-2.19-27.498 37.566-72.935 96.68-110.49 16.198-10.292 47.958-27.643 48.873-26.7 0.77675 0.80053-8.3852 9.4444-27.821 26.248-51.271 44.327-90.522 94.856-92.747 119.39-0.62371 6.8784-0.15134 7.0828 9.0502 3.917 26.274-9.0396 61.386-45.611 101.35-105.57 33.387-50.084 69.07-113.68 114.75-204.5 28.575-56.817 45.021-92.311 58.86-127.03 0.80818-2.0278-0.1086-6.9236-4.5878-24.5-26.448-103.78-33.464-168.41-22.646-208.58 2.5292-9.3926 10.225-16.567 21.968-20.482 4.3929-1.4642 8.2543-1.7998 19.183-1.667 12.422 0.15098 14.137 0.39624 18.608 2.6618 9.5352 4.8319 18.113 17.298 21.824 31.719 1.9084 7.4149 1.4764 20.649-1.1541 35.354-2.2399 12.522-3.1363 13.443-3.8678 3.9745-1.3355-17.286-4.0647-28.021-10.395-40.888-6.916-14.057-13.521-23.415-19.16-27.147-3.8794-2.5673-4.0963-2.5983-6.6185-0.94562-3.8428 2.5179-7.0379 10.618-9.0881 23.039-2.2576 13.678-2.5856 60.875-0.53854 77.5 4.2709 34.686 15.502 87.598 18.829 88.707 1.443 0.481 5.8089-14.369 15.937-54.207 4.754-18.7 8.8232-34.188 9.0428-34.417 1.1811-1.2329 1.1526 2.3548-0.17392 21.941-3.5213 51.991-6.527 78.656-10.875 96.476l-2.4398 10 5.5373 14c20.573 52.014 50.693 98.779 87.33 135.59 18.694 18.782 34.758 30.83 59.52 44.641l9 5.0195 17.525-2.2668c35.957-4.6508 55.608-5.9151 92.475-5.9495 28.529-0.0266 37.488 0.30652 48.456 1.802 35.67 4.8637 53.121 13.564 59.064 29.447 1.9257 5.147 2.9467 16.585 1.6006 17.931-0.29827 0.29827-2.8843-1.5633-5.7467-4.1369-5.7655-5.1837-17.382-11.173-28.93-14.917-23.37-7.5757-63.891-9.3386-117.94-5.1311-24.22 1.8853-28.182 2.427-27.727 3.7913 0.20498 0.61493 6.6399 3.8675 14.3 7.2279 57 25.01 103.97 38.46 134.29 38.46 12.553 0 18.649-1.7764 24.036-7.0042 4.3762-4.247 6.5961-5.1199 5.7108-2.2458-0.29647 0.9625-1.4787 4.8159-2.6271 8.5632-5.9899 19.545-24.721 25.882-62.629 21.189-45.45-5.6268-101.05-24.158-152.9-50.958-12.086-6.247-18.87-9.2122-20.5-8.9596-86.583 13.421-172.02 33.404-256.65 60.028l-14.216 4.4724-5.6584 9.708c-61.122 104.86-105.37 157.61-143.25 170.79-8.2427 2.8665-20.257 3.844-27.514 2.2385zm193.28-202.79c45.095-19.792 127.83-43.609 203.02-58.442 11.792-2.3263 21.595-4.697 21.786-5.2683 0.19042-0.57124-3.6074-3.9109-8.4396-7.4214-45.68-33.18-86.18-81.42-114.94-136.9-1.5681-3.025-3.5129-5.5-4.322-5.5-0.93769 0-2.6846 3.2628-4.8186 9-18.2 48.93-44.996 105.11-81.565 171-10.684 19.25-19.223 35.338-18.976 35.75 0.65092 1.0878 0.84413 1.0359 8.2528-2.2158zm472.38 60.01c-8.8956-5.424-10.297-17.252-2.9178-24.631 8.5812-8.5812 23.264-4.9857 26.718 6.5426 2.1561 7.1963-1.2848 15.017-8.1744 18.58-4.0598 2.0994-11.775 1.8565-15.626-0.49192zm16.036-2.6578c5.4624-3.9971 6.8631-13.094 2.9384-19.084-4.9027-7.4825-17.119-6.9215-21.799 1.001-2.2228 3.7628-2.2303 10.902-0.0151 14.283 4.1377 6.3149 13.001 8.0991 18.876 3.8zm-13.13-11.13 0.29-7.75 4.8284 0.0678c5.2412 0.0735 7.1082 1.5862 6.0876 4.9322-0.76138 2.4962-0.73057 4.2501 0.13617 7.75 0.42129 1.7012 0.27599 2.75-0.381 2.75-0.5841 0-1.6533-1.2375-2.3759-2.75-0.74439-1.558-2.2899-2.8891-3.5654-3.071-1.8166-0.25898-2.3701 0.27211-2.8656 2.75-1.1658 5.8291-2.4474 3.048-2.1562-4.679zm7.6404-1.1351c2.2093-1.4001 0.92966-4.5805-1.9792-4.919-2.9898-0.34785-4.5948 2.2249-2.764 4.4308 1.3007 1.5672 2.7974 1.7212 4.7432 0.48811z"/>
<path fill="#a55c5e" d="m200 851.58c-3.025-0.68868-10.9-4.1515-17.5-7.6952-10.806-5.8018-12.224-6.8842-14.25-10.876-2.98-5.871-2.8903-12.235 0.30777-21.833 11.558-34.686 59.052-77.95 124.84-113.72 9.56-5.2 17.66-9.46 18-9.46 1.9856 0-0.77121 3.0135-12.146 13.277-7.0125 6.3275-17.25 15.107-22.75 19.51-12.32 9.86-36.18 33.83-48.99 49.21-21.63 25.96-37.51 53.79-37.51 65.71 0 4.4196 1.7801 4.9731 8.9812 2.7928 25.99-7.8691 62.127-45.178 102.68-106.01 33.387-50.084 69.07-113.68 114.75-204.5 25.941-51.579 37.012-75.035 49.634-105.16 4.3134-10.294 8.5413-20.067 9.3952-21.718 1.4867-2.8749 1.2357-4.2702-5.9024-32.815-18.36-73.35-25.93-119.85-25.88-158.79 0.0342-25.019 2.8866-42.077 8.3681-50.044 3.359-4.8822 10.184-9.4615 17.969-12.056 4.3929-1.4642 8.2543-1.7998 19.183-1.667 12.422 0.15098 14.137 0.39624 18.608 2.6618 9.0548 4.5884 17.407 16.152 20.757 28.737 1.6359 6.1462 1.7927 16.853 0.46283 31.6-0.87453 9.6978-2.6798 18.933-3.534 18.079-0.21583-0.21584-0.88088-6.4399-1.4779-13.831-0.597-7.3914-1.571-15.473-2.1646-17.959-2.0978-8.7864-13.325-30.664-19.041-37.103-2.49-2.81-10.62-8.92-11.86-8.92-1.8779 0-7.3875 5.7883-9.0111 9.467-3.7471 8.4899-5.407 25.204-5.366 54.033 0.0337 23.768 0.36299 29.334 2.7502 46.5 2.896 20.824 6.4858 39.345 12.308 63.5 4.1492 17.214 5.1412 20.168 6.3481 18.902 1.2243-1.2843 7.5333-23.993 16.572-59.652 4.2871-16.912 8.158-30.75 8.602-30.75 1.2255 0-0.99143 28.898-5.6387 73.5-2.3913 22.95-4.2175 34.427-7.9049 49.679-1.187 4.9098-1.1737 6.0609 0.0983 8.5 0.8092 1.5517 4.397 9.7962 7.973 18.321 20.785 49.551 49.336 92.918 84.328 128.09 18.682 18.778 34.746 30.827 59.515 44.641l9 5.0195 17.525-2.2668c35.957-4.6508 55.608-5.9151 92.475-5.9495 28.529-0.0266 37.488 0.30652 48.456 1.802 30.976 4.2237 48.964 11.709 56.175 23.376 2.4952 4.0372 5.078 16.997 4.2313 21.23l-0.55983 2.7992-4.0946-4.4421c-2.799-3.0365-6.9602-5.8126-13.151-8.7733-23.16-11.08-40.6-13.94-84.57-13.87-25.703 0.0357-58.524 1.8686-74.575 4.1646-6.618 0.94666-6.4152 2.9849 0.57517 5.78 3.025 1.2096 12.7 5.1573 21.5 8.7728 56.194 23.087 94.844 33.627 123.31 33.627 12.592 0 18.681-1.7715 24.073-7.0042 4.3762-4.247 6.5961-5.1199 5.7108-2.2458-0.29647 0.9625-1.4371 4.6814-2.5348 8.2642-2.4221 7.9059-3.0947 8.8442-10.025 13.983-7.3217 5.4296-13.25 7.0914-27.536 7.7185-42.241 1.8541-113.66-19.06-178.12-52.162l-18.119-9.3044-12.381 1.8771c-40.85 6.19-96.98 17.81-147.37 30.51-45.06 11.36-111.55 30.92-114.07 33.56-0.68 0.71-5.85 9.18-11.49 18.8-52.46 89.6-94.75 141.01-129.62 157.56-12.93 6.13-24.45 7.72-36.32 5.02zm192.2-200.07c10.27-5.74 58.315-22.558 94.299-33.009 43.703-12.693 108.55-27.731 126.5-29.333 6.4827-0.57878 7.5352-0.94089 7.7599-2.6696 0.18658-1.4359-1.1344-2.9064-4.6838-5.2139-10.881-7.0736-31.4-24.541-46.111-39.251-27.417-27.417-50.378-58.541-69.534-94.253-3.752-6.9949-7.4208-12.948-8.1529-13.229-1.5672-0.60141-2.3999 1.129-9.358 19.447-18.2 47.912-43.435 99.905-83.125 171.27-8.1887 14.723-14.616 27.211-14.283 27.75 0.89003 1.4401 1.7668 1.2424 6.6886-1.5085zm469.77 51.436c-0.60413-1.1288-0.95746-2.7323-0.78518-3.5633 0.17228-0.83099 0.80859 0.0926 1.414 2.0524 1.2374 4.0054 1.005 4.5638-0.62884 1.5109zm27.257-2.9502c0.77045-3.0354 0.66052-5.0542-0.46065-8.4598-0.80992-2.4602-1.1014-4.2437-0.64785-3.9633 2.7234 1.6831 3.4788 14.32 0.94947 15.883-0.4691 0.28992-0.39754-1.2669 0.15903-3.4596zm-18.23-3c0-1.8667 0.26667-2.1333 1.2-1.2 0.93333 0.93333 0.93333 1.4667 0 2.4-0.93333 0.93333-1.2 0.66667-1.2-1.2zm-9.8421-4c0-1.375 0.22698-1.9375 0.50439-1.25s0.27741 1.8125 0 2.5-0.50439 0.125-0.50439-1.25z"/>
<path fill="#e7e7e7" d="m200.5 851.46c-2.75-0.74714-10.469-4.0754-17.154-7.396-11.215-5.5712-12.316-6.3721-14.25-10.368-5.1438-10.626-0.25629-27.41 13.744-47.199 7.5858-10.722 32.944-35.946 47.16-46.91 20.704-15.968 43.577-30.637 65.673-42.119l12.827-6.6651-8 7.8558c-4.4 4.3207-12.717 11.902-18.483 16.847-31.008 26.596-56.083 53.856-73.42 79.817-12.874 19.278-19.199 33.614-18.423 41.755 0.27369 2.8708 0.75857 3.4695 3.0213 3.7308 3.8776 0.44762 15.405-4.6957 25.34-11.306 9.6686-6.4333 28.766-24.383 40.378-37.951 41.157-48.09 86.473-122.31 147.79-242.05 30.094-58.769 46.714-93.834 62.989-132.9l7.4575-17.901-6.0393-24.099c-15.98-63.78-23.43-103.76-26.2-140.6-1.8785-24.972-0.11449-52.44 4.3254-67.352 2.8135-9.4493 14.817-17.768 28.582-19.808 9.1449-1.3552 24.556-0.20316 29.238 2.1857 9.1641 4.6752 16.371 14.256 20.46 27.197 2.9306 9.2768 3.2058 18.395 0.9893 32.777-0.80527 5.225-1.4722 9.8375-1.4821 10.25-0.01 0.4125-0.40124 0.75-0.86972 0.75s-1.1254-3.548-1.4598-7.8844c-0.96109-12.463-3.3844-20.654-10.241-34.616-7.0204-14.296-13.314-23.06-19.499-27.153l-4.037-2.6716-2.7057 1.9569c-7.3992 5.3513-10.947 21.262-11.902 53.376-1.0746 36.129 3.7498 75.103 14.771 119.33 4.5366 18.204 5.4826 20.562 7.4327 18.531 1.8476-1.9244 6.1442-16.648 14.984-51.348 4.2007-16.49 7.8336-30.177 8.0732-30.417 0.80402-0.80402 0.44078 7.2373-1.5422 34.14-2.689 36.483-5.5067 59.982-8.9036 74.258l-2.8555 12 2.008 5.5c3.6251 9.9294 13.642 32.861 19.166 43.875 11.869 23.667 27.882 48.936 44.742 70.605 11.294 14.516 36.359 40.473 47.321 49.006 16.238 12.64 45.372 30.786 49.5 30.831 1.375 0.0151 12.4-1.1478 24.5-2.5843 36.979-4.3901 51.134-5.2347 87-5.1913 26.705 0.0323 36.682 0.41517 46.5 1.7842 32.427 4.5218 50.279 12.5 56.867 25.415 2.3788 4.6629 4.3292 14.628 3.5054 17.91-0.59274 2.3617-0.69732 2.3199-5.5416-2.2114-10.403-9.7312-32.1-17.383-58.443-20.611-14.61-1.7904-62.803-1.4721-87.463 0.57774-26.641 2.2144-30.425 2.7754-30.425 4.5098 0 2.3484 41.881 20.439 68.077 29.406 32.523 11.133 56.275 16.493 76.942 17.364 16.76 0.70677 22.638-0.55925 29.377-6.3281l4.3421-3.7167-0.72421 3.4297c-1.8074 8.5592-4.9661 14.288-10.248 18.585-6.8865 5.6025-13.145 7.4194-27.766 8.0612-42.241 1.8541-113.66-19.06-178.12-52.162l-18.119-9.3044-12.381 1.8771c-40.88 6.19-97.01 17.81-147.4 30.51-45.06 11.36-111.55 30.92-114.07 33.56-0.68 0.71-5.85 9.18-11.49 18.8-71.06 121.38-124.28 173.64-165.44 162.46zm202.9-203.87c54.2-21.58 136.89-44.63 204.1-56.88 11.088-2.021 13.038-2.6522 13.26-4.2903 0.18184-1.3439-1.2246-2.8858-4.6838-5.1346-10.881-7.0736-31.4-24.541-46.111-39.251-27.417-27.417-50.378-58.541-69.534-94.253-3.752-6.9949-7.4208-12.948-8.1529-13.229-1.5672-0.60141-2.3999 1.129-9.358 19.447-18.2 47.912-43.435 99.905-83.125 171.27-13.12 23.59-15.47 28.73-13.09 28.73 0.32503 0 7.836-2.885 16.691-6.4112zm458.57 55.359c-0.60413-1.1288-0.95746-2.7323-0.78518-3.5633 0.17228-0.83099 0.80859 0.0926 1.414 2.0524 1.2374 4.0054 1.005 4.5638-0.62884 1.5109zm27.257-2.9502c0.77045-3.0354 0.66052-5.0542-0.46065-8.4598-0.80992-2.4602-1.1014-4.2437-0.64785-3.9633 2.7234 1.6831 3.4788 14.32 0.94947 15.883-0.4691 0.28992-0.39754-1.2669 0.15903-3.4596zm-18.23-3c0-1.8667 0.26667-2.1333 1.2-1.2 0.93333 0.93333 0.93333 1.4667 0 2.4-0.93333 0.93333-1.2 0.66667-1.2-1.2zm-9.8421-4c0-1.375 0.22698-1.9375 0.50439-1.25s0.27741 1.8125 0 2.5-0.50439 0.125-0.50439-1.25z"/>
<path fill="#b0151b" d="m199.5 851.07c-4.0596-0.98197-10.154-3.948-11.538-5.615-0.8021-0.96647-0.84989-2.8972-0.16479-6.6579 0.5307-2.9132 1.0184-4.1492 1.0837-2.7467 0.26682 5.7273 4.3314 6.2984 14.364 2.0181 28.84-12.304 65.924-52.918 107.73-117.99 48.65-75.719 120.1-212.1 158.12-301.79 3.9128-9.2324 7.3382-17.764 7.6119-18.959 0.27373-1.1951-0.67314-7.1661-2.1042-13.269-2.9215-12.459-3.1414-14.39-0.97485-8.5583 2.1283 5.7286 4.2516 14.049 5.3825 21.091 0.8094 5.0403 0.64976 7.2831-0.92535 13-1.8237 6.6193-5.977 17.405-9.9766 25.909-1.0348 2.2-3.5436 8.05-5.5752 13-3.5064 8.5434-5.5604 13.086-13.791 30.5-4.6497 9.8382-39.538 80.916-40.986 83.5-0.61627 1.1-5.0265 9.65-9.8006 19-12.949 25.362-21.456 41.648-28.603 54.761-3.5255 6.4684-6.8505 12.768-7.3888 14-0.53838 1.2316-2.978 5.6142-5.4214 9.7392s-5.8272 9.975-7.5195 13-5.5102 9.55-8.4842 14.5-6.6742 11.173-8.2228 13.829c-3.2362 5.5506-8.4552 13.918-16.316 26.159-8.3688 13.032-9.87 15.305-18.5 28.01-4.4 6.4775-9.0806 13.403-10.401 15.39-1.3207 1.9869-2.6924 3.8376-3.0482 4.1126-0.35583 0.275-1.7442 2.0689-3.0853 3.9865s-3.1194 4.2142-3.9518 5.1036c-0.83243 0.88938-3.5385 4.2445-6.0135 7.4558-11.653 15.12-27.956 32.243-39.195 41.167-8.62 6.84-14.76 11.28-15.61 11.28-0.43756 0-2.9243 1.35-5.5261 3-4.8746 3.0914-6.042 3.3078-11.161 2.0696zm-30.172-16.692c-2.4923-3.8038-2.8796-12.964-0.84514-19.992 4.5847-15.839 14.739-30.6 35.017-50.906 24.802-24.836 56.424-47.473 92.173-65.986l12.827-6.6422-10 9.6773c-14.237 13.777-35.889 31.095-50 39.99-7.409 4.6704-7.5803 4.7961-19.906 14.604-9.8284 7.8207-30.44 28.532-37.406 37.588-7.6199 9.9049-10.124 13.968-13.429 21.79-5.0834 12.029-5.9312 14.887-5.5628 18.75 0.42017 4.406-0.48582 4.7624-2.8672 1.1279zm219.9-172.59c-3.1408-1.5462-4.0064-5.4947-1.5995-7.2958 5.6856-4.2545 58.705-23.124 95.371-33.942 46.132-13.611 131.43-33.14 136.41-31.23 2.2314 0.85628 2.0317 6.236-0.31884 8.5865-1.1021 1.1021-5.2329 2.6279-9.75 3.6013-4.3108 0.92895-10.088 2.3009-12.838 3.0489-2.75 0.74792-9.275 2.0776-14.5 2.9549-5.225 0.87726-12.2 2.4086-15.5 3.4031-3.3 0.99443-9.15 2.3619-13 3.0389-3.85 0.67695-11.725 2.4847-17.5 4.0173s-13.425 3.4972-17 4.3659c-12.373 3.0065-29.057 7.6544-32.272 8.9905-1.7757 0.73802-6.6035 2.1534-10.728 3.1452-4.125 0.99184-9.127 2.6183-11.116 3.6143-1.9886 0.99604-5.8136 2.3562-8.5 3.0225s-6.9094 2.0847-9.3844 3.152-7.65 2.822-11.5 3.8993-8.0704 2.6539-9.3787 3.5036c-1.3083 0.84971-5.1333 2.3668-8.5 3.3713s-8.8213 2.9372-12.121 4.2948c-7.3937 3.0418-13.279 3.9307-16.272 2.4574zm445.18-5.7414c-6.6512-1.0406-15.876-3.0186-20.5-4.3957-4.6238-1.377-9.9818-2.7997-11.907-3.1614-9.055-1.7016-32.989-10.153-56-19.775-24.618-10.294-31.285-13.743-34.837-18.023-1.5033-1.8114 0.35959-6.6963 2.5537-6.6963 0.76758 0 7.7828 2.746 15.589 6.1022 53.11 22.833 92.823 34.302 123.21 35.583 16.76 0.70677 22.638-0.55925 29.377-6.3281l4.3421-3.7167-0.72421 3.4297c-1.6763 7.9386-4.9612 14.3-8.4255 16.317-4.9969 2.9088-26.225 3.2395-42.681 0.66493zm45.109-52.442c-5.0373-6.6043-19-13.459-32.786-16.097-24.613-4.7093-28.145-4.9798-65.229-4.9964-36.152-0.0162-45.715 0.58014-89 5.5502-19.401 2.2276-20.142 2.2436-25.146 0.5442-5.6594-1.9219-14.625-7.1741-32.354-18.953-11.812-7.8481-23.43-17.462-33-27.309-13.691-14.087-28.867-31.878-37-43.373-3.575-5.0533-7.8629-11.052-9.5287-13.331-5.1843-7.0921-10.766-16.572-20.78-35.287-3.19-5.97-6.46-11.98-7.27-13.36-8.24-14.12-20.42-45.19-20.42-52.11 0-4.8738 1.6627-3.2605 5.0041 4.8553 18.789 45.637 36.159 76.292 62.175 109.73 11.294 14.516 36.359 40.473 47.321 49.006 16.238 12.64 45.372 30.786 49.5 30.831 1.375 0.0151 12.4-1.1478 24.5-2.5843 36.979-4.3901 51.134-5.2347 87-5.1913 26.705 0.0323 36.682 0.41517 46.5 1.7842 32.924 4.5912 51.102 12.877 57.067 26.013 2.7448 6.0452 2.5305 7.6615-1.0157 7.6615-2.1771 0-3.6261-0.88753-5.535-3.3903zm-409.88-236.86c-24.784-97.71-31.445-163.03-20.406-200.1 1.7358-5.8297 8.652-12.874 15.782-16.073 12.336-5.5359 33.884-5.9247 43.343-0.78209 8.9888 4.8871 16.765 16.376 20.13 29.741 1.2543 4.9815 1.3522 8.4695 0.56128 20-1.06 15.35-1.85 20.46-3.17 20.46-0.49 0-0.88-1.8-0.88-4.01 0-2.2036-0.68518-8.5684-1.5226-14.144-0.83745-5.5756-1.2902-10.37-1.0061-10.654 0.28407-0.28407 1.4192 0.30049 2.5226 1.299 1.9497 1.7645 2.0061 1.7544 2.0061-0.35785 0-5.0923-4.3142-17.911-7.677-22.811-4.3957-6.4047-10.575-11.55-12.831-10.684-1.0929 0.41939-3.0338-0.70127-5.8161-3.3582-4.42-4.22-8.6-7.28-9.92-7.28-0.43991 0-2.8075 1.8506-5.2613 4.1125-3.6569 3.3708-4.9326 3.9942-7.0735 3.4569-3.8479-0.96575-12.886 2.0226-16.975 5.6124-9.261 8.1312-11.502 15.493-13.593 44.653-0.91632 12.779-0.82173 18.446 0.56746 34 2.0779 23.265 4.2679 40.859 6.0575 48.665 0.75658 3.3 2.0965 10.275 2.9777 15.5 1.7661 10.472 4.947 25.161 10.07 46.5 3.5249 14.683 4.9749 22.5 4.1734 22.5-0.26227 0-1.1902-2.8125-2.0622-6.25zm41.521-6.75c0-1.375 0.22698-1.9375 0.50439-1.25s0.27741 1.8125 0 2.5-0.50439 0.125-0.50439-1.25zm1-5c0-1.375 0.22698-1.9375 0.50439-1.25s0.27741 1.8125 0 2.5-0.50439 0.125-0.50439-1.25zm-13.276-10.75c-0.16985-1.0757-0.0339-1.5897 3.6358-13.75 1.8258-6.05 6.7603-24.492 10.966-40.981 4.2053-16.49 7.9019-30.215 8.2146-30.5 1.1656-1.0635-3.0823 56.468-4.6503 62.981l-0.84256 3.5-0.20204-4.5c-0.11112-2.475-0.52304-5.625-0.91537-7-0.59364-2.0805-1.0149-1.282-2.5102 4.7589-0.98828 3.9924-2.1624 7.4848-2.6091 7.7609-0.4467 0.27607-1.7758 3.3977-2.9536 6.937s-3.0455 7.5844-4.1505 8.9891c-1.9637 2.4964-3.7455 3.3036-3.9823 1.8041zm-5.2492-2.5267c-2.62-2.62-8.3-24.87-11.66-45.72-1.11-6.88-2.69-15.77-3.51-19.76-1.91-9.33-4.47-45.36-4.29-60.24l0.14152-11.5 0.72742 14.5c1.1134 22.193 4.9838 52.692 9.4582 74.529 3.4609 16.891 10.558 46.637 11.624 48.721 1.2303 2.4042 0.23022 2.1925-2.489-0.52674z"/>
<path fill="#901115" d="m193.39 845.47c-0.91218-1.3922-1.485-2.6974-1.273-2.9005 0.212-0.20308 4.0271-1.7694 8.478-3.4808 29.759-11.442 67.21-51.803 110.29-118.86 46.86-72.96 117.63-207.01 154.81-293.23 8.3118-19.279 11.659-25.638 8.9327-16.968-2.021 6.4261-5.7948 15.929-11.107 27.968-2.5482 5.775-5.6812 13.2-6.9624 16.5-1.2811 3.3-4.8965 11.4-8.0342 18-7.1306 14.999-61.268 123.51-66.354 133-2.0638 3.85-6.1595 11.5-9.1015 17-14.155 26.463-20.112 37.203-28.564 51.5-5.0394 8.525-10.069 17.075-11.177 19-14.353 24.941-44.976 71.596-58.091 88.5-24.575 31.677-48.798 54.828-65.962 63.044-8.8505 4.2362-13.542 4.5093-15.891 0.92526zm-25.905-21.824c-1.6506-6.2661 5.1524-22.721 15.358-37.145 7.5858-10.722 32.944-35.946 47.16-46.91 20.551-15.85 43.292-30.452 65.673-42.169l12.83-6.72-5.5 5.71c-5.45 5.67-22.84 19.58-24.47 19.58-1.7291 0-31.151 19.377-43.026 28.336-19.521 14.728-42.045 37.045-52.49 52.008-4.7334 6.7806-10.539 17.985-13.035 25.156-1.704 4.8958-1.756 4.9405-2.4924 2.145zm224.83-168.28c-0.96622-2.5179 2.8149-4.746 17.687-10.423 53.545-20.438 125.63-40.451 191.25-53.096 12.319-2.374 14.16-2.1172 13.127 1.8319-0.71361 2.7288-3.4684 3.8144-15.872 6.2544-24.132 4.7474-48.996 10.362-76 17.163-18.86 4.7498-57.643 16.17-64.909 19.114-2.8002 1.1344-8.4662 3.0761-12.591 4.3148-4.125 1.2388-12.45 4.0529-18.5 6.2537s-14.825 5.3905-19.5 7.0883c-9.605 3.4882-13.761 3.9122-14.687 1.4984zm449.55-2.4812c-15.794-2.0385-47.681-10.422-69.367-18.238-16.276-5.8659-43.428-17.544-48.837-21.005-4.671-2.9887-5.6093-4.0086-4.6979-5.1068 1.4935-1.7996 2.8576-1.3776 25.21 7.7986 44.633 18.323 81.083 28.195 108.34 29.345 16.76 0.70677 22.638-0.55925 29.377-6.3281l4.3421-3.7167-0.69815 3.4297c-0.38398 1.8864-1.675 5.4527-2.8689 7.9252l-2.1708 4.4955-7.5 1.1784c-8.6612 1.3608-21.593 1.4528-31.133 0.2215zm37.39-55.23c-8.2374-7.3421-15.367-10.347-34.753-14.649-31.851-7.0673-92.448-6.6746-151.5 0.98182-8.525 1.1053-17.166 2.0102-19.202 2.0108-4.4129 0.001-14.067-4.8759-28.948-14.624-19.48-12.76-25.37-17.63-43.24-35.7-16.84-17.03-26.09-28.2-40.72-49.18-5.19-7.4426-7.2643-10.777-18.841-30.282-2.3771-4.0053-4.0912-7.5131-3.8091-7.7952 0.28204-0.28204 1.7616 1.645 3.2879 4.2824 4.0481 6.995 17.863 27.619 24.312 36.295 15.122 20.344 43.651 50.611 57.656 61.169 16.04 12.092 43.768 29.106 47.5 29.148 1.375 0.0151 12.4-1.1478 24.5-2.5843 36.979-4.3901 51.134-5.2347 87-5.1913 26.705 0.0323 36.682 0.41517 46.5 1.7842 17.057 2.3785 31.058 6.0015 39.924 10.331 8.4492 4.1258 16.076 11.212 16.076 14.936 0 3.2446-1.2922 3.0339-5.7471-0.93678zm-345.22-156.13c-0.66934-0.80651-1.0449-1.9825-0.83463-2.6134 0.21029-0.63087 0.91818 0.029 1.5731 1.4664 1.3348 2.9295 1.0753 3.3325-0.73847 1.147zm-8.569-16.6c-0.36253-0.58659-0.44468-1.281-0.18255-1.5431 0.26212-0.26213 0.74306 0.21781 1.0688 1.0665 0.67618 1.7621 0.0998 2.0721-0.8862 0.4766zm-11.07-135.99c0.39017-2.4402 2.145-10.287 3.8996-17.437 3.7533-15.294 4.7461-12.953 2.3356 5.5087-1.3128 10.054-1.7744 11.571-4.2096 13.829l-2.7351 2.5361 0.7094-4.4366zm11.86-74.44c0.0111-2.2 0.21589-2.9822 0.45508-1.7383s0.23011 3.0439-0.0202 4c-0.25029 0.95609-0.446-0.0617-0.4349-2.2617zm-76.25-47.95c0-5.0303 6.8413-12.202 15.5-16.249 5.8124-2.7165 6.5159-2.8041 22.5-2.8041h16.5l4.7546 3c3.87 2.44 10.74 9.97 10.74 11.76 0 0.23743-1.7303-1.2143-3.845-3.226-4.41-4.18-9.84-7.03-13.43-7.03-1.3595 0-4.611-0.94627-7.2255-2.1028-4.0676-1.7993-5.1324-1.9217-7.3771-0.84836-1.4428 0.68995-5.3518 1.3394-8.6865 1.4432-8.705 0.27095-19.441 5.6316-25.187 12.577-2.546 3.0771-4.25 4.4742-4.25 3.4844z"/>
<path fill="#781215" d="m197.03 843.1c-1.9065-1.2787-1.7353-1.4135 6.4771-5.0981 17.279-7.7525 36.364-24.026 58.634-49.997 4.5207-5.272 16.42-20.628 28.671-37 1.0289-1.375 6.2835-9.025 11.677-17 10.663-15.767 12.891-18.67 9.5948-12.5-4.5088 8.439-30.41 46.545-40.083 58.971-2.475 3.1793-5.4375 7.0643-6.5834 8.6334-5.358 7.3367-26.888 29.994-35.426 37.28-15.724 13.419-28.336 19.813-32.962 16.711zm-24.998-36.374c-0.0714-1.7801 6.605-13.772 11.814-21.221 6.8387-9.7788 29.266-32.526 42.154-42.755 20.265-16.084 46.838-33.388 69.5-45.257 12.042-6.307 12.779-6.5673 10-3.5323-4.2791 4.6732-12.363 10.506-19.156 13.821-9.8351 4.8-38.547 23.132-49.844 31.824-28.099 21.62-50.609 44.804-62.042 63.9-1.3172 2.2-2.409 3.6497-2.4261 3.2215zm144.97-94.73c0.5887-1.1 1.2954-2 1.5704-2s0.0183 0.9-0.57037 2c-0.5887 1.1-1.2954 2-1.5704 2s-0.0183-0.9 0.57037-2zm13-21c0.5887-1.1 1.2954-2 1.5704-2s0.0183 0.9-0.57037 2c-0.5887 1.1-1.2954 2-1.5704 2s-0.0183-0.9 0.57037-2zm67.606-38.828c-0.3213-0.51988-0.0266-1.3835 0.6548-1.9191 4.2103-3.3092 52.608-20.232 86.239-30.154 32.086-9.4666 75.829-20.126 109.46-26.673 13.98-2.72 15.04-2.82 15.04-1.45 0 1.8321-5.6684 3.9066-15.086 5.5212-5.1778 0.88773-14.814 2.8908-21.414 4.4512s-18.3 4.2798-26 6.043-19.175 4.5631-25.5 6.2219-14.2 3.66-17.5 4.4471c-8.7514 2.0873-22.895 6.5063-50 15.622-37.467 12.601-39.718 13.385-44.5 15.514-5.7614 2.5641-10.648 3.5837-11.394 2.3773zm449.39-1.88c-1.925-0.21503-10.358-1.7021-18.74-3.3046-18.29-3.5-32.63-7.52-51.26-14.38-30.33-11.17-39.54-15.02-46.45-19.44-2.72-1.74-4.68-3.17-4.36-3.17 0.77627 0 11.447 4.0275 27.815 10.498 38.95 15.398 73.184 24.148 98.544 25.188 16.691 0.68436 22.639-0.5826 29.233-6.2269 4.6152-3.9505 5.0407-3.5427 2.6187 2.5103-1.3595 3.3978-2.2371 4.1756-5.75 5.0964-2.2801 0.59762-6.0738 1.7273-8.4305 2.5104-3.9988 1.3288-14.746 1.6588-23.215 0.71284zm34.113-55.653c-4.1532-5.0043-18.612-11.151-35.613-15.139-29.303-6.8747-109.59-5.5692-164.28 2.6713l-8.28 1.2477-8.22-4.2348c-14.34-7.39-34.38-20.75-43.22-28.82-4.4493-4.0619-3.7397-3.6618 5 2.819 5.7536 4.2665 22.973 15.293 36.336 23.268 5.2742 3.1476 6.9495 3.683 10 3.1957 55.816-8.9158 128.81-10.958 165.66-4.6351 22.662 3.8882 39.266 11.213 43.621 19.242 1.1308 2.0851 0.57772 2.2971-1.008 0.38646z"/>
</g>
</g>
<g font-size="228.61px" transform="translate(14.507,4)" font-family="sans-serif" fill="#e7e7e7">
<g transform="translate(-3.9581)">
<text style="word-spacing:0px;letter-spacing:0px" xml:space="preserve" stroke="url(#h)" y="995.19006" x="308.12738" stroke-width="5.8433" line-height="125%"><tspan stroke="url(#h)" y="995.19006" x="308.12738" stroke-width="5.8433" fill="#e7e7e7">C</tspan></text>
<text style="word-spacing:0px;letter-spacing:0px" xml:space="preserve" stroke="url(#g)" y="995.20056" x="463.23004" stroke-width="7.1662" line-height="125%"><tspan stroke="url(#g)" y="995.20056" x="463.23004" stroke-width="7.1662" fill="#e7e7e7">V</tspan></text>
</g>
</g>
</g>
</svg>
