<svg xmlns:rdf="http://www.w3.org/1999/02/22-rdf-syntax-ns#" xmlns="http://www.w3.org/2000/svg" height="8.259mm" width="8.3138mm" version="1.1" xmlns:cc="http://creativecommons.org/ns#" xmlns:dc="http://purl.org/dc/elements/1.1/" viewBox="0 0 29.458292 29.264146">
 <g transform="translate(-197.98 -747.68)">
  <g transform="matrix(.091125 0 0 .091125 225.82 704.08)">
   <g stroke="#000" transform="matrix(.75097 .88649 -.92617 .71879 528.12 -163.26)" fill-rule="evenodd">
    <path d="m2.707 0.044922c-0.3482 0.006285-0.93 0.094218-1.2578 0.20703-0.2774 0.09548-0.57202 0.2017-0.77928 0.40235-0.29089 0.28162-0.50454 0.6611-0.57812 1.0508-0.079545 0.4212-0.005968 0.8818 0.16992 1.2754 0.14242 0.3187 0.41046 0.5811 0.68555 0.8066 0.42663 0.3497 0.93233 0.6139 1.455 0.8106 0.7081 0.2664 1.4759 0.3641 2.2266 0.4824 1.213 0.1911 2.4417 0.2855 3.668 0.3672 1.2933 0.0861 2.6411 0.0266 3.8871 0.0039 1.907-0.0348 3.141-0.0806 4.886-0.1133 1.039-0.0195 3.109-0.1216 4.141-0.0039 0.562 0.0641 1.145 0.0971 1.664 0.3125 0.379 0.1572 0.717 0.4113 1.006 0.6933 0.165 0.1613 0.291 0.3572 0.402 0.5567 0.197 0.3533 0.344 0.7346 0.459 1.1191 0.346 1.2941 0.197 3.1344-0.146 5.9374-0.016 1.574-0.409 4.262-0.989 6.926-0.075 0.658-0.51 2.424-0.605 3.08-0.067 0.464-0.098 0.96-0.166 1.424-0.052 0.352 0.005 0.987 0.057 1.34 0.06 0.418 0.223 0.827 0.449 1.189 0.195 0.313 0.448 0.61 0.762 0.817 0.327 0.215 0.732 0.297 1.113 0.406 0.222 0.063 0.554 0.082 0.785 0.06 0.337-0.031 0.537-0.136 0.826-0.304 0.217-0.126 0.429-0.272 0.59-0.459 0.262-0.307 0.458-0.672 0.578-1.051 0.171-0.54 0.169-1.12 0.184-1.684 0.029-1.154-0.213-2.206-0.268-3.359-0.063-1.323 0.139-2.908 0.131-4.233 0.232-2.255 0.436-4.427 0.723-7.322 0.129-0.7 0.216-1.407 0.306-2.1131 0.13-1.022 0.313-2.0429 0.336-3.0722 0.01-0.4472-0.014-0.7123-0.162-1.1368-0.22-0.6023-0.786-1.3259-1.344-1.7109-0.438-0.2666-0.889-0.515-1.384-0.6641-0.678-0.2039-1.173-0.323-1.875-0.4238-0.685-0.0982-1.795-0.1668-2.702-0.1641-0.625 0.0351-2.341 0.0698-3.718 0.0606-2.096-0.014-4.111 0.1125-6.205 0.0234-1.395-0.0594-2.8782-0.2012-4.2582-0.4043-1.0204-0.1501-2.0474-0.44796-3.1211-0.79098-0.6933-0.22148-1.2009-0.35499-1.9317-0.3418zm-0.0879 1.2891c0.4333-0.0481 0.8595 0.1415 1.2852 0.2324 0.8398 0.1794 1.6539 0.467 2.5 0.6172 0.828 0.147 1.6697 0.219 2.5098 0.2754 1.2589 0.0845 2.5249 0.0994 3.7869 0.0918 2.049-0.0125 4.092-0.21 6.141-0.2227 1.716-0.0106 3.444-0.0771 5.148 0.1231 0.86 0.101 1.728 0.2458 2.537 0.541 0.907 0.34 1.633 1.0456 1.948 1.5254v0.0019c-1.505-1.3732-2.744-1.4836-5.641-1.2461-2.432 0.1994-4.941 1.1155-11.307 1.6192-1.216 0.0963-2.6214 0.132-4.2145 0.0488-2.2081-0.1714-4.2996-0.5483-4.7461-0.8691-0.3607-0.2592-0.9223-0.5405-1.0996-0.9375-0.1219-0.2728-0.1973-0.499-0.1758-0.795 0.0132-0.1817 0.2673-0.4587 0.3828-0.6035 0.2093-0.2623 0.6028-0.3643 0.9453-0.4023zm22.236 2.1074c0.499 0.0181 0.984 0.0703 1.442 0.166 1.505 0.4023 2.876 0.3822 1.562 12.307-0.336 3.054-0.658 6.586-0.119 8.881 0.201 0.855 0.071 1.967-0.621 2.543-0.365 0.303-0.977 0.311-1.437 0.17-0.333-0.102-0.616-0.381-0.774-0.68-0.371-0.704-0.256-1.563-0.262-2.351-0.021-3.328 0.764-6.62 0.975-9.942 0.145-2.273 0.737-4.6097 0.199-6.828-0.162-0.6696-0.458-1.3764-1.002-1.8261-0.852-0.7056-2.069-0.9439-3.187-1.0762-1.53-0.1811-2.755-0.059-3.822 0.1269-0.276 0.048-1.438 0.2032-1.438 0.2032l0.83-0.2735s4.162-1.5464 7.654-1.4199z" transform="matrix(5.7964 -7.1488 7.4688 6.0559 -3.5735 897.19)" stroke="#000" stroke-width="0.02" fill="#f93"/>
    <path opacity="0.99" d="m145.99 413.94s5.572-9.2603 6.8104-11.52c4.7967-8.7542 10.991-18.256 21.209-28.094 7.4693-7.1919 16.308-14.444 26.517-16.263 6.5076-1.1599 13.503 0.99425 19.445 3.8891 19.685 9.5894 33.712 27.981 49.851 42.78 23.587 21.628 43.606 47.177 68.589 67.175 5.9206 4.7392 11.681 10.764 19.092 12.374 3.1433 0.68312 6.8546 0.34765 9.5459-1.4142 3.7208-2.4358 7.2226-6.8691 7.0711-11.314-0.28749-8.4344-7.8404-16.094-15.393-19.836-20.267-10.041-44.776-33.736-65.634-54.635-81.447-81.604-89.243-71.679-100.97-63.357-26.936 21.535-43.367 72.611-43.367 72.611" fill-opacity=".78462" stroke-width=".1"/>
    <path opacity="0.99" d="m211.55 323.67c-5.4072-0.65579-14.901 0.26848-22.696 4.691-6.895 3.9966-13.002 9.3165-18.738 14.849-11.372 10.969-20.888 23.726-30.759 36.062-11.781 14.723-22.158 30.533-33.941 45.255-7.2607 9.0717-14.696 18.025-22.627 26.516-5.2903 5.6641-10.72 11.234-16.617 16.263-6.0261 5.1389-12.884 9.2247-19.092 14.142-3.1464 2.4922-7.0407 4.3898-9.1924 7.7782-1.7011 2.6788-3.2212 6.1082-2.4749 9.1924 0.41204 1.7028 1.0044 5.194 2.2855 6.3891 2.0862 1.946 4.2236 2.7724 6.9675 3.5533 3.9931 1.1364 9.3472-1.1551 13.374-2.1642 4.9847-1.249 19.921-13.92 34-28.667 9.8558-10.885 17.739-21.151 24.071-30.431 33.134-48.554 40.833-72.037 53.443-90.633 15.02-22.151 23.022-30.359 41.997-32.796z" fill-opacity=".78462" stroke-width=".1"/>
   </g>
  </g>
 </g>
</svg>
