<svg xmlns:rdf="http://www.w3.org/1999/02/22-rdf-syntax-ns#" xmlns="http://www.w3.org/2000/svg" height="7.5178mm" width="7.6759mm" version="1.1" xmlns:cc="http://creativecommons.org/ns#" xmlns:dc="http://purl.org/dc/elements/1.1/" viewBox="0 0 27.19818 26.637995">
 <g transform="translate(-198.5 -748.98)">
  <g transform="matrix(.091125 0 0 .091125 225.82 704.08)">
   <g fill-rule="evenodd" transform="matrix(.75097 .88649 -.92617 .71879 528.12 -163.26)" stroke="#000" fill="#f93">
    <path d="m-498.7 1039c-1.9714 2.5273-4.687 7.219-5.7444 10.246-0.8948 2.5613-1.8092 5.3108-1.5119 8.0076 0.41725 3.7849 2.0131 7.6104 4.4972 10.496 2.6848 3.1194 6.5514 5.3827 10.511 6.5089 3.2058 0.9119 6.7193 0.5848 9.9981-0.016 5.0848-0.9322 9.9892-2.9474 14.488-5.4926 6.0941-3.4488 11.274-8.346 16.509-12.996 8.4583-7.5142 16.285-15.726 24.004-23.998 8.1396-8.7241 15.508-18.72 22.56-27.764 10.794-13.844 17.605-22.943 27.475-35.615 5.8768-7.5457 17.113-22.962 23.974-29.627 3.7363-3.6294 7.3621-7.5973 11.979-10.003 3.3709-1.7574 7.2279-2.6349 11.009-2.9931 2.1611-0.20273 4.3546 0.0829 6.488 0.4975 3.7806 0.73124 7.4806 1.9895 11.019 3.4959 11.671 5.3635 24.552 17.573 43.499 37 11.663 9.6464 29.461 28.734 45.996 49.013 4.4797 4.521 15.148 18.325 19.497 22.977 3.0772 3.2889 6.602 6.5143 9.6734 9.8103 2.3276 2.5034 7.4007 5.9415 10.339 7.7075 3.4697 2.1024 7.4693 3.414 11.483 3.9906 3.468 0.5015 7.1528 0.4914 10.519-0.4997 3.5012-1.0356 6.4612-3.4343 9.4837-5.4979 1.7573-1.2055 3.8236-3.4639 4.9983-5.2485 1.7219-2.5969 2.0969-4.6625 2.5173-7.7459 0.31675-2.3143 0.45515-4.714-0.008-6.9974-0.77426-3.7322-2.3643-7.3437-4.4994-10.497-3.042-4.4926-7.3855-7.9907-11.511-11.514-8.4509-7.1958-17.711-11.837-26.641-18.426-10.246-7.5616-20.914-18.604-30.856-26.571-15.497-15.315-30.537-29.926-50.496-49.51-4.4804-5.1613-9.2566-10.065-14.009-14.984-6.8796-7.1185-13.444-14.609-20.998-21.007-3.2821-2.7797-5.4012-4.2135-9.4296-5.7262-5.7737-2.0747-14.459-2.4106-20.569-0.75305-4.53 1.5167-8.9994 3.2365-12.982 5.8722-5.4528 3.6121-9.2116 6.4295-14.034 10.838-4.704 4.3022-11.65 11.822-16.888 18.322-3.3606 4.6806-13.048 17.158-21.098 26.946-12.254 14.899-22.989 30.07-35.792 44.5-8.5296 9.6129-18.186 19.357-27.702 27.993-7.0357 6.3856-15.213 11.924-23.999 17.522-5.6728 3.615-9.6122 6.4352-13.75 11.739zm9.1185 8.4351c2.1523-3.3889 6.0388-5.2875 9.1853-7.7803 6.2077-4.9171 13.075-8.9953 19.101-14.134 5.8973-5.029 11.314-10.61 16.605-16.274 7.9282-8.4879 15.378-17.448 22.636-26.516 11.783-14.724 22.15-30.525 33.932-45.249 9.8674-12.332 19.387-25.087 30.759-36.057 5.7393-5.5363 11.852-10.865 18.746-14.86 7.7967-4.425 17.275-5.3419 22.684-4.6882l0.0142 0.0115c-18.98 2.443-26.986 10.632-42.004 32.78-12.608 18.593-20.309 42.078-53.446 90.637-6.3292 9.2761-14.209 19.539-24.064 30.424-14.079 14.747-29.017 27.416-34.001 28.666-4.0267 1.0089-9.3829 3.3201-13.376 2.1834-2.7441-0.7806-4.8706-1.6114-6.9567-3.5577-1.2806-1.1947-1.8766-4.6887-2.2886-6.3913-0.74588-3.0847 0.77318-6.5154 2.4746-9.194zm144.63-146.2c3.0276-3.4576 6.2287-6.6087 9.5982-9.3033 11.728-8.3226 19.525-18.245 100.97 63.364 20.862 20.897 45.375 44.588 65.641 54.633 7.5509 3.7408 15.103 11.404 15.394 19.84 0.14736 4.4443-3.3403 8.8678-7.0597 11.302-2.692 1.7629-6.4162 2.0964-9.5652 1.4152-7.4085-1.6111-13.158-7.6353-19.078-12.364-24.978-20.004-45.015-45.552-68.603-67.178-16.136-14.802-30.157-33.185-49.843-42.772-5.9401-2.8969-12.935-5.0612-19.447-3.8956-10.209 1.8177-19.043 9.0747-26.511 16.266-10.221 9.8409-16.41 19.338-21.206 28.091-1.2413 2.2638-6.8176 11.511-6.8176 11.511l2.7683-7.5898s12.575-39.118 33.761-63.316z" stroke="#000" stroke-width=".18814"/>
    <g stroke-width=".1" transform="translate(-20.877 402.6)">
     <path opacity="0.99" d="m145.76 419.69s5.572-9.2603 6.8104-11.52c4.7967-8.7542 10.991-18.256 21.209-28.094 7.4693-7.1919 16.308-14.444 26.517-16.263 6.5076-1.1599 13.503 0.99425 19.445 3.8891 19.685 9.5894 33.712 27.981 49.851 42.78 23.587 21.628 43.606 47.177 68.589 67.175 5.9206 4.7392 11.681 10.764 19.092 12.374 3.1433 0.68312 6.8546 0.34765 9.5459-1.4142 3.7208-2.4358 7.2226-6.8691 7.0711-11.314-0.28749-8.4344-7.8404-16.094-15.393-19.836-20.267-10.041-44.776-33.736-65.634-54.635-81.447-81.604-89.243-71.679-100.97-63.357-26.936 21.535-43.367 72.611-43.367 72.611"/>
     <path opacity="0.99" d="m211.55 323.67c-5.4072-0.65579-14.901 0.26848-22.696 4.691-6.895 3.9966-13.002 9.3165-18.738 14.849-11.372 10.969-20.888 23.726-30.759 36.062-11.781 14.723-22.158 30.533-33.941 45.255-7.2607 9.0717-14.696 18.025-22.627 26.516-5.2903 5.6641-10.72 11.234-16.617 16.263-6.0261 5.1389-12.884 9.2247-19.092 14.142-3.1464 2.4922-7.0407 4.3898-9.1924 7.7782-1.7011 2.6788-3.2212 6.1082-2.4749 9.1924 0.41204 1.7028 1.0044 5.194 2.2855 6.3891 2.0862 1.946 4.2236 2.7724 6.9675 3.5533 3.9931 1.1364 9.3472-1.1551 13.374-2.1642 4.9847-1.249 19.921-13.92 34-28.667 9.8558-10.885 17.739-21.151 24.071-30.431 33.134-48.554 40.833-72.037 53.443-90.633 15.02-22.151 23.022-30.359 41.997-32.796z"/>
    </g>
   </g>
  </g>
 </g>
</svg>
