<svg xmlns:rdf="http://www.w3.org/1999/02/22-rdf-syntax-ns#" xmlns="http://www.w3.org/2000/svg" height="7.5178mm" width="7.6759mm" version="1.1" xmlns:cc="http://creativecommons.org/ns#" xmlns:dc="http://purl.org/dc/elements/1.1/" viewBox="0 0 27.19818 26.637995">
 <g transform="translate(-198.5 -748.98)">
  <g transform="matrix(.091125 0 0 .091125 225.82 704.08)">
   <g stroke="#000" fill="#f93" transform="matrix(.75097 .88649 -.92617 .71879 528.12 -163.26)" fill-rule="evenodd">
    <g stroke-width=".1" transform="translate(-20.877 402.6)">
     <path opacity=".99" d="m145.76 419.69s5.572-9.2603 6.8104-11.52c4.7967-8.7542 10.991-18.256 21.209-28.094 7.4693-7.1919 16.308-14.444 26.517-16.263 6.5076-1.1599 13.503 0.99425 19.445 3.8891 19.685 9.5894 33.712 27.981 49.851 42.78 23.587 21.628 43.606 47.177 68.589 67.175 5.9206 4.7392 11.681 10.764 19.092 12.374 3.1433 0.68312 6.8546 0.34765 9.5459-1.4142 3.7208-2.4358 7.2226-6.8691 7.0711-11.314-0.28749-8.4344-7.8404-16.094-15.393-19.836-20.267-10.041-44.776-33.736-65.634-54.635-81.447-81.604-89.243-71.679-100.97-63.357-26.936 21.535-43.367 72.611-43.367 72.611"/>
     <path opacity=".99" d="m211.55 323.67c-5.4072-0.65579-14.901 0.26848-22.696 4.691-6.895 3.9966-13.002 9.3165-18.738 14.849-11.372 10.969-20.888 23.726-30.759 36.062-11.781 14.723-22.158 30.533-33.941 45.255-7.2607 9.0717-14.696 18.025-22.627 26.516-5.2903 5.6641-10.72 11.234-16.617 16.263-6.0261 5.1389-12.884 9.2247-19.092 14.142-3.1464 2.4922-7.0407 4.3898-9.1924 7.7782-1.7011 2.6788-3.2212 6.1082-2.4749 9.1924 0.41204 1.7028 1.0044 5.194 2.2855 6.3891 2.0862 1.946 4.2236 2.7724 6.9675 3.5533 3.9931 1.1364 9.3472-1.1551 13.374-2.1642 4.9847-1.249 19.921-13.92 34-28.667 9.8558-10.885 17.739-21.151 24.071-30.431 33.134-48.554 40.833-72.037 53.443-90.633 15.02-22.151 23.022-30.359 41.997-32.796z"/>
    </g>
   </g>
  </g>
 </g>
</svg>
