<svg xmlns:rdf="http://www.w3.org/1999/02/22-rdf-syntax-ns#" xmlns="http://www.w3.org/2000/svg" height="8.259mm" width="8.3138mm" version="1.1" xmlns:cc="http://creativecommons.org/ns#" xmlns:dc="http://purl.org/dc/elements/1.1/" viewBox="0 0 29.458292 29.264146">
 <g transform="translate(-197.98 -747.68)">
  <g transform="matrix(.091125 0 0 .091125 225.82 704.08)">
   <g fill-rule="evenodd" transform="matrix(.75097 .88649 -.92617 .71879 528.12 -163.26)" stroke="#000">
    <path d="m6.7005 888.36c1.0574-3.0265 3.7782-7.7222 5.75-10.25 4.1373-5.304 8.0771-8.135 13.75-11.75 8.7859-5.5987 16.964-11.115 24-17.5 9.5159-8.6363 19.171-18.388 27.7-28 12.803-14.43 23.546-29.601 35.8-44.5 8.0524-9.7905 14.183-19.934 22.5-29.5 4.1784-4.8059 10.775-11.471 15.475-15.768 4.8225-4.4088 8.5941-7.2296 14.043-10.836 3.9823-2.6356 8.458-4.3584 12.987-5.8742 6.1111-1.6583 14.783-1.33 20.556 0.74557 4.0255 1.515 6.1575 2.9521 9.4393 5.7322 7.5535 6.3988 14.122 13.88 21 21 4.7521 4.9188 9.5184 9.8335 14 15 19.959 19.574 35 34.177 50.5 49.5 9.9386 7.9601 20.608 18.999 30.854 26.561 8.9325 6.5925 18.194 11.241 26.646 18.439 4.1273 3.5149 8.4608 7.0109 11.5 11.5 2.1348 3.1532 3.7344 6.7699 4.5 10.5 0.46915 2.2857 0.31514 4.688 0 7-0.42052 3.0851-0.78457 5.1516-2.5 7.75-1.1759 1.7812-3.2382 4.0452-5 5.25-3.0204 2.0654-5.9897 4.467-9.5 5.5-3.3614 0.98917-7.0321 1.0014-10.5 0.5-4.0168-0.58072-8.0248-1.9035-11.5-4-2.9281-1.7665-7.9969-5.2054-10.328-7.7071-3.0701-3.2943-6.5972-6.5026-9.6716-9.7929-4.3477-4.6532-15.017-18.477-19.5-23-16.536-20.279-34.34-39.358-46-49-18.949-19.428-31.831-31.635-43.5-37-3.5426-1.5019-7.2232-2.7642-11-3.5-2.133-0.41555-4.3367-0.70557-6.5-0.5-3.7835 0.35953-7.6298 1.2433-11 3-4.6172 2.4067-8.2652 6.372-12 10-6.8602 6.664-18.09 22.077-23.967 29.622-9.8711 12.673-16.673 21.779-27.467 35.622-7.0503 9.0416-14.426 19.033-22.566 27.757-7.7185 8.2719-15.542 16.486-24 24-5.2347 4.6504-10.406 9.5517-16.5 13-4.499 2.5458-9.4153 4.5681-14.5 5.5-3.2787 0.60094-6.7939 0.91206-10 0-3.9593-1.1263-7.8147-3.3802-10.5-6.5-2.4841-2.886-4.0828-6.715-4.5-10.5-0.29723-2.6968 0.60513-5.4387 1.5-8z" stroke-width=".99716" fill="#f93"/>
    <path d="m129.67 811.26s5.572-9.2603 6.8104-11.52c4.7967-8.7542 10.991-18.256 21.209-28.094 7.4693-7.1919 16.308-14.444 26.517-16.263 6.5076-1.1599 13.503 0.99425 19.445 3.8891 19.685 9.5894 33.712 27.981 49.851 42.78 23.587 21.628 43.606 47.177 68.589 67.175 5.9206 4.7392 11.681 10.764 19.092 12.374 3.1433 0.68312 6.8546 0.34765 9.5459-1.4142 3.7208-2.4358 7.2226-6.8691 7.0711-11.314-0.28749-8.4344-7.8404-16.094-15.393-19.836-20.267-10.041-44.776-33.736-65.634-54.635-81.447-81.604-88.242-70.867-99.965-62.545-29.36 20.84-44.368 71.799-44.368 71.799" stroke-width=".1"/>
    <path d="m195.23 720.99c-5.4072-0.65579-14.901 0.26848-22.696 4.691-6.895 3.9966-13.002 9.3165-18.738 14.849-11.372 10.969-20.888 23.726-30.759 36.062-11.781 14.723-22.158 30.533-33.941 45.255-7.2607 9.0717-14.696 18.025-22.627 26.516-5.2903 5.6641-10.72 11.234-16.617 16.263-6.0261 5.1389-12.884 9.2247-19.092 14.142-3.1464 2.4922-7.0407 4.3898-9.1924 7.7782-1.7011 2.6788-3.2212 6.1082-2.4749 9.1924 0.41204 1.7028 1.0044 5.194 2.2855 6.3891 2.0862 1.946 4.2236 2.7724 6.9675 3.5533 3.9931 1.1364 9.3472-1.1551 13.374-2.1642 4.9847-1.249 27.076-17.014 34.535-27.28 51.083-70.311 61.959-100.3 76.979-122.45 15.02-22.151 23.022-30.359 41.997-32.796z" stroke-width=".1"/>
   </g>
  </g>
 </g>
</svg>
