<svg xmlns:rdf="http://www.w3.org/1999/02/22-rdf-syntax-ns#" xmlns="http://www.w3.org/2000/svg" height="1060" width="1060" version="1.1" xmlns:cc="http://creativecommons.org/ns#" xmlns:xlink="http://www.w3.org/1999/xlink" viewBox="0 0 1060.0001 1060" xmlns:dc="http://purl.org/dc/elements/1.1/">
 <defs>
  <linearGradient id="k">
   <stop stop-color="#fff" offset="0"/>
   <stop stop-color="#e6ebf2" offset=".37994"/>
   <stop stop-color="#bfcbde" stop-opacity="0" offset="1"/>
  </linearGradient>
  <style type="text/css">.str0 {stroke:#1F1A17;stroke-width:0.00710253}
    .str1 {stroke:#DEDEDD;stroke-width:0.0426112}
    .fil2 {fill:none}
    .fil5 {fill:#00923F}
    .fil0 {fill:#1F1A17}
    .fil3 {fill:#00923F;fill-rule:nonzero}
    .fil4 {fill:#2AAD78;fill-rule:nonzero}
    .fil1 {fill:white;fill-rule:nonzero}</style>
  <style type="text/css">.str0 {stroke:#4D4948;stroke-width:0.147924}
    .str2 {stroke:#582E3A;stroke-width:0.29589}
    .str3 {stroke:#582E3A;stroke-width:0.29589;stroke-linecap:round}
    .str1 {stroke:#E77817;stroke-width:0.591821;stroke-linecap:round}
    .fil2 {fill:none}
    .fil1 {fill:#4D4948}
    .fil5 {fill:#582E3A}
    .fil3 {fill:#DEDEDD}
    .fil4 {fill:#582E3A;fill-rule:nonzero}
    .fil0 {fill:black;fill-rule:nonzero}</style>
  <style type="text/css">.str0 {stroke:#4D4948;stroke-width:0.147924}
    .str2 {stroke:#582E3A;stroke-width:0.29589}
    .str3 {stroke:#582E3A;stroke-width:0.29589;stroke-linecap:round}
    .str1 {stroke:#E77817;stroke-width:0.591821;stroke-linecap:round}
    .fil2 {fill:none}
    .fil1 {fill:#4D4948}
    .fil5 {fill:#582E3A}
    .fil3 {fill:#DEDEDD}
    .fil4 {fill:#582E3A;fill-rule:nonzero}
    .fil0 {fill:black;fill-rule:nonzero}</style>
  <style type="text/css">.str0 {stroke:#1F1A17;stroke-width:0.00710253}
    .str1 {stroke:#DEDEDD;stroke-width:0.0426112}
    .fil2 {fill:none}
    .fil5 {fill:#00923F}
    .fil0 {fill:#1F1A17}
    .fil3 {fill:#00923F;fill-rule:nonzero}
    .fil4 {fill:#2AAD78;fill-rule:nonzero}
    .fil1 {fill:white;fill-rule:nonzero}</style>
  <style type="text/css">.str0 {stroke:#4D4948;stroke-width:0.147924}
    .str2 {stroke:#582E3A;stroke-width:0.29589}
    .str3 {stroke:#582E3A;stroke-width:0.29589;stroke-linecap:round}
    .str1 {stroke:#E77817;stroke-width:0.591821;stroke-linecap:round}
    .fil2 {fill:none}
    .fil1 {fill:#4D4948}
    .fil5 {fill:#582E3A}
    .fil3 {fill:#DEDEDD}
    .fil4 {fill:#582E3A;fill-rule:nonzero}
    .fil0 {fill:black;fill-rule:nonzero}</style>
  <style type="text/css">.str0 {stroke:#4D4948;stroke-width:0.147924}
    .str2 {stroke:#582E3A;stroke-width:0.29589}
    .str3 {stroke:#582E3A;stroke-width:0.29589;stroke-linecap:round}
    .str1 {stroke:#E77817;stroke-width:0.591821;stroke-linecap:round}
    .fil2 {fill:none}
    .fil1 {fill:#4D4948}
    .fil5 {fill:#582E3A}
    .fil3 {fill:#DEDEDD}
    .fil4 {fill:#582E3A;fill-rule:nonzero}
    .fil0 {fill:black;fill-rule:nonzero}</style>
  <radialGradient id="w" xlink:href="#k" gradientUnits="userSpaceOnUse" cy="-330.62" cx="338.89" gradientTransform="translate(69.851,26.403)" r="4.5211"/>
  <radialGradient id="y" xlink:href="#k" gradientUnits="userSpaceOnUse" cy="-330.62" cx="338.89" gradientTransform="translate(452.48,194.8)" r="4.5211"/>
  <radialGradient id="z" xlink:href="#k" gradientUnits="userSpaceOnUse" cy="-330.62" cx="338.89" gradientTransform="translate(-259.99,25.28)" r="4.5211"/>
  <radialGradient id="aa" gradientUnits="userSpaceOnUse" cy="3005.8" cx="8702.9" gradientTransform="matrix(1.3685 -.077842 .070605 1.2412 -5018.7 2787.8)" r="1448.7">
   <stop offset="0"/>
   <stop offset=".61199"/>
   <stop stop-color="#18222f" offset=".81989"/>
   <stop stop-color="#274359" offset=".91563"/>
   <stop stop-color="#533d53" offset=".94173"/>
   <stop stop-color="#cc5800" offset="1"/>
  </radialGradient>
  <style type="text/css">.str0 {stroke:#1F1A17;stroke-width:0.00710253}
    .str1 {stroke:#DEDEDD;stroke-width:0.0426112}
    .fil2 {fill:none}
    .fil5 {fill:#00923F}
    .fil0 {fill:#1F1A17}
    .fil3 {fill:#00923F;fill-rule:nonzero}
    .fil4 {fill:#2AAD78;fill-rule:nonzero}
    .fil1 {fill:white;fill-rule:nonzero}</style>
  <style type="text/css">.str0 {stroke:#4D4948;stroke-width:0.147924}
    .str2 {stroke:#582E3A;stroke-width:0.29589}
    .str3 {stroke:#582E3A;stroke-width:0.29589;stroke-linecap:round}
    .str1 {stroke:#E77817;stroke-width:0.591821;stroke-linecap:round}
    .fil2 {fill:none}
    .fil1 {fill:#4D4948}
    .fil5 {fill:#582E3A}
    .fil3 {fill:#DEDEDD}
    .fil4 {fill:#582E3A;fill-rule:nonzero}
    .fil0 {fill:black;fill-rule:nonzero}</style>
  <style type="text/css">.str0 {stroke:#4D4948;stroke-width:0.147924}
    .str2 {stroke:#582E3A;stroke-width:0.29589}
    .str3 {stroke:#582E3A;stroke-width:0.29589;stroke-linecap:round}
    .str1 {stroke:#E77817;stroke-width:0.591821;stroke-linecap:round}
    .fil2 {fill:none}
    .fil1 {fill:#4D4948}
    .fil5 {fill:#582E3A}
    .fil3 {fill:#DEDEDD}
    .fil4 {fill:#582E3A;fill-rule:nonzero}
    .fil0 {fill:black;fill-rule:nonzero}</style>
  <filter id="l" y="-.10946" width="1.097" x="-.048482" height="1.2189">
   <feGaussianBlur stdDeviation="5.58425"/>
  </filter>
  <filter id="a" y="-.22642" x="-.22642" width="1.4528" height="1.4528">
   <feGaussianBlur stdDeviation="2.6954178"/>
  </filter>
  <radialGradient id="ab" gradientUnits="userSpaceOnUse" cy="492.36" cx="49.999" r="20.755">
   <stop stop-color="#6dcfff" offset="0"/>
   <stop stop-color="#7ad4ff" stop-opacity="0" offset="1"/>
  </radialGradient>
  <radialGradient id="v" xlink:href="#k" gradientUnits="userSpaceOnUse" cy="-330.62" cx="338.89" gradientTransform="translate(-2.6753,-41.272)" r="4.5211"/>
  <radialGradient id="m" xlink:href="#k" gradientUnits="userSpaceOnUse" cy="-330.62" cx="338.89" gradientTransform="translate(54.384,59.674)" r="4.5211"/>
  <linearGradient id="x" y2="4027.9" gradientUnits="userSpaceOnUse" x2="11952" y1="4027.9" x1="7428.2">
   <stop stop-color="#00a2c9" offset="0"/>
   <stop stop-color="#00a2c9" stop-opacity="0" offset="1"/>
  </linearGradient>
  <radialGradient id="o" xlink:href="#k" gradientUnits="userSpaceOnUse" cy="-330.62" cx="338.89" gradientTransform="translate(32.444,42.229)" r="4.5211"/>
  <radialGradient id="u" xlink:href="#k" gradientUnits="userSpaceOnUse" cy="-330.62" cx="338.89" gradientTransform="translate(392.59 -1.8378)" r="4.5211"/>
  <radialGradient id="t" xlink:href="#k" gradientUnits="userSpaceOnUse" cy="-330.62" cx="338.89" gradientTransform="matrix(.512 0 0 .512 347.34 -284.96)" r="4.5211"/>
  <radialGradient id="s" xlink:href="#k" gradientUnits="userSpaceOnUse" cy="-330.62" cx="338.89" gradientTransform="translate(-126.24 -129.26)" r="4.5211"/>
  <radialGradient id="f" xlink:href="#ab" gradientUnits="userSpaceOnUse" cy="492.36" cx="49.999" r="20.755"/>
  <radialGradient id="r" xlink:href="#k" gradientUnits="userSpaceOnUse" cy="-330.62" cx="338.89" gradientTransform="matrix(.64 0 0 .64 154.72 -76.794)" r="4.5211"/>
  <radialGradient id="q" xlink:href="#k" gradientUnits="userSpaceOnUse" cy="-330.62" cx="338.89" gradientTransform="translate(32.225 42.229)" r="4.5211"/>
 </defs>
 <g transform="translate(192.1 -285.41)">
  <g transform="matrix(.99999 0 0 .99999 2.8372 503.25)">
   <g transform="matrix(1.6589 0 0 1.6589 -347.9 609.47)">
    <g transform="matrix(1.1 0 0 1.1 -78.606 76.462)">
     <g stroke-opacity=".87179" transform="matrix(.26215 0 0 .26215 -2221.9 -923.29)" stroke="url(#x)" stroke-width="3.3447" fill="none">
      <g transform="translate(794.29,120)">
       <circle r="1446.3" stroke-opacity=".2359" cy="6034.6" transform="rotate(-19.175)" stroke="#d6d6d6" cx="7596.6" stroke-width=".41809" fill="url(#aa)"/>
       <path stroke-linejoin="bevel" style="color:#000000" d="m2072.8-2358.8c-17125-10442 4944.2 21603 219.1 2109.7-424-1749.3-850-3030.7-1266.6-3926.5-4225.4-9085.4-7485.1 21506 2020.2 5917.9 10442-17124-21608 4967-2115.5 242 10139-2457.7 4558.8-4980-721.47-5365.3-4871.3-355.4-9487.2 1108-1269.9 6118.8 13000 7927.2 3398.9-8635.9 87.85-8544.2-1050.4 29.1-1467.6 1734.2-329.75 6428.8 4237.2 17481 8666.6-11764 2004.8-5638-766.8 705.2-1680.5 1879-2758.4 3646.6-10442 17125 21608-4967.1 2115.4-242-19492 4725.1 19139 9694.6 2014.3-747.78z" stroke-opacity=".17949" transform="matrix(.37168 0 0 .37101 8711.6 3838.6)" stroke="#08ced6" stroke-width="17.451" fill="none"/>
      </g>
     </g>
     <g stroke="#00a2c9" stroke-width="11.348" stroke-opacity=".18462">
      <g fill-opacity=".60513" transform="matrix(.67757 .49974 -.49974 .67757 734.09 -792.61)" fill="#fff">
       <g stroke-linejoin="round" stroke-opacity=".18462" fill-opacity=".60513" transform="translate(-399.01,459.27)" stroke="#00a2c9" stroke-width="4.8808" fill="#fff">
        <g fill-opacity=".60513" fill="#fff" transform="matrix(.93766 -.34756 .34756 .93766 -27.836 244.99)">
         <path d="m720 123.09c-25.36 0-47.387 14.347-58.438 35.344-11.07-11.3-26.5-18.34-43.56-18.34-19.173 0-36.283 8.8718-47.469 22.719-5.8654-4.8091-13.36-7.7188-21.531-7.7188-18.768 0-34 15.232-34 34s15.232 34 34 34c4.002 0 7.8392-0.69697 11.406-1.9688 8.297 23.837 30.941 40.969 57.594 40.969 9.2122 0 17.948-2.0575 25.781-5.7188 6.0278 12.264 18.639 20.719 33.219 20.719 15.318 0 28.474-9.3154 34.094-22.594 2.9168 0.39456 5.8818 0.59375 8.9062 0.59375 13.637 0 26.321-4.1549 36.844-11.25 6.774 8.6616 17.316 14.25 29.156 14.25 20.424 0 37-16.576 37-37s-16.576-37-37-37c-0.0732 0-0.14569-0.00042-0.21875 0-2.557-34.1-31.031-61-65.781-61z"/>
         <path d="m720 132.99c-21.626 0-40.285 12.212-49.676 30.055a9.9012 9.9012 0 0 1 -15.834 2.3164c-9.2964-9.4917-22.146-15.371-36.49-15.371-16.119 0-30.385 7.4233-39.768 19.039a9.9012 9.9012 0 0 1 -13.979 1.4356c-4.1817-3.4286-9.4332-5.4746-15.254-5.4746-13.411 0-24.1 10.688-24.1 24.1 0 13.411 10.688 24.1 24.1 24.1 2.8526 0 5.5528-0.49276 8.082-1.3945a9.9012 9.9012 0 0 1 12.674 6.0723c6.9427 19.946 25.834 34.322 48.244 34.322 7.7381 0 15.026-1.7191 21.59-4.7871a9.9012 9.9012 0 0 1 13.076 4.6016c4.4111 8.9748 13.581 15.186 24.334 15.186 11.304 0 20.871-6.8515 24.977-16.553a9.9012 9.9012 0 0 1 10.443 -5.9512c2.4723 0.33443 4.9903 0.50391 7.5801 0.50391 11.626 0 22.358-3.5234 31.309-9.5586a9.9012 9.9012 0 0 1 13.334 2.1094c4.9763 6.363 12.633 10.449 21.357 10.449 15.067 0 27.1-12.032 27.1-27.1 0-15.067-12.032-27.1-27.1-27.1-0.11105 0-0.16466 0.00002-0.16211 0a9.9012 9.9012 0 0 1 -9.9297 -9.1602c-2.16-29.02-26.25-51.84-55.89-51.84z" filter="url(#l)"/>
        </g>
       </g>
      </g>
      <g fill-opacity=".60513" transform="matrix(-.52737 -.12227 -.12227 .52737 839.2 -608.33)" fill="#fff">
       <g stroke-linejoin="round" stroke-opacity=".18462" fill-opacity=".60513" transform="translate(-399.01,459.27)" stroke="#00a2c9" stroke-width="4.8808" fill="#fff">
        <g fill-opacity=".60513" fill="#fff" transform="matrix(.93766 -.34756 .34756 .93766 -27.836 244.99)">
         <path d="m720 123.09c-25.36 0-47.387 14.347-58.438 35.344-11.07-11.3-26.5-18.34-43.56-18.34-19.173 0-36.283 8.8718-47.469 22.719-5.8654-4.8091-13.36-7.7188-21.531-7.7188-18.768 0-34 15.232-34 34s15.232 34 34 34c4.002 0 7.8392-0.69697 11.406-1.9688 8.297 23.837 30.941 40.969 57.594 40.969 9.2122 0 17.948-2.0575 25.781-5.7188 6.0278 12.264 18.639 20.719 33.219 20.719 15.318 0 28.474-9.3154 34.094-22.594 2.9168 0.39456 5.8818 0.59375 8.9062 0.59375 13.637 0 26.321-4.1549 36.844-11.25 6.774 8.6616 17.316 14.25 29.156 14.25 20.424 0 37-16.576 37-37s-16.576-37-37-37c-0.0732 0-0.14569-0.00042-0.21875 0-2.557-34.1-31.031-61-65.781-61z"/>
         <path d="m720 132.99c-21.626 0-40.285 12.212-49.676 30.055a9.9012 9.9012 0 0 1 -15.834 2.3164c-9.2964-9.4917-22.146-15.371-36.49-15.371-16.119 0-30.385 7.4233-39.768 19.039a9.9012 9.9012 0 0 1 -13.979 1.4356c-4.1817-3.4286-9.4332-5.4746-15.254-5.4746-13.411 0-24.1 10.688-24.1 24.1 0 13.411 10.688 24.1 24.1 24.1 2.8526 0 5.5528-0.49276 8.082-1.3945a9.9012 9.9012 0 0 1 12.674 6.0723c6.9427 19.946 25.834 34.322 48.244 34.322 7.7381 0 15.026-1.7191 21.59-4.7871a9.9012 9.9012 0 0 1 13.076 4.6016c4.4111 8.9748 13.581 15.186 24.334 15.186 11.304 0 20.871-6.8515 24.977-16.553a9.9012 9.9012 0 0 1 10.443 -5.9512c2.4723 0.33443 4.9903 0.50391 7.5801 0.50391 11.626 0 22.358-3.5234 31.309-9.5586a9.9012 9.9012 0 0 1 13.334 2.1094c4.9763 6.363 12.633 10.449 21.357 10.449 15.067 0 27.1-12.032 27.1-27.1 0-15.067-12.032-27.1-27.1-27.1-0.11105 0-0.16466 0.00002-0.16211 0a9.9012 9.9012 0 0 1 -9.9297 -9.1602c-2.16-29.02-26.25-51.84-55.89-51.84z" filter="url(#l)"/>
        </g>
       </g>
      </g>
      <g transform="matrix(1.3044 .36095 -.36095 1.3044 213.22 -1282.5)">
       <g stroke-linejoin="round" stroke-opacity=".18462" fill-opacity=".59487" transform="translate(-399.01,459.27)" stroke="#00a2c9" stroke-width="4.8808" fill="#dcdcdc">
        <g fill-opacity=".59487" fill="#dcdcdc" transform="matrix(.93766 -.34756 .34756 .93766 -27.836 244.99)">
         <path d="m720 123.09c-25.36 0-47.387 14.347-58.438 35.344-11.07-11.3-26.5-18.34-43.56-18.34-19.173 0-36.283 8.8718-47.469 22.719-5.8654-4.8091-13.36-7.7188-21.531-7.7188-18.768 0-34 15.232-34 34s15.232 34 34 34c4.002 0 7.8392-0.69697 11.406-1.9688 8.297 23.837 30.941 40.969 57.594 40.969 9.2122 0 17.948-2.0575 25.781-5.7188 6.0278 12.264 18.639 20.719 33.219 20.719 15.318 0 28.474-9.3154 34.094-22.594 2.9168 0.39456 5.8818 0.59375 8.9062 0.59375 13.637 0 26.321-4.1549 36.844-11.25 6.774 8.6616 17.316 14.25 29.156 14.25 20.424 0 37-16.576 37-37s-16.576-37-37-37c-0.0732 0-0.14569-0.00042-0.21875 0-2.557-34.1-31.031-61-65.781-61z"/>
         <path d="m720 132.99c-21.626 0-40.285 12.212-49.676 30.055a9.9012 9.9012 0 0 1 -15.834 2.3164c-9.2964-9.4917-22.146-15.371-36.49-15.371-16.119 0-30.385 7.4233-39.768 19.039a9.9012 9.9012 0 0 1 -13.979 1.4356c-4.1817-3.4286-9.4332-5.4746-15.254-5.4746-13.411 0-24.1 10.688-24.1 24.1 0 13.411 10.688 24.1 24.1 24.1 2.8526 0 5.5528-0.49276 8.082-1.3945a9.9012 9.9012 0 0 1 12.674 6.0723c6.9427 19.946 25.834 34.322 48.244 34.322 7.7381 0 15.026-1.7191 21.59-4.7871a9.9012 9.9012 0 0 1 13.076 4.6016c4.4111 8.9748 13.581 15.186 24.334 15.186 11.304 0 20.871-6.8515 24.977-16.553a9.9012 9.9012 0 0 1 10.443 -5.9512c2.4723 0.33443 4.9903 0.50391 7.5801 0.50391 11.626 0 22.358-3.5234 31.309-9.5586a9.9012 9.9012 0 0 1 13.334 2.1094c4.9763 6.363 12.633 10.449 21.357 10.449 15.067 0 27.1-12.032 27.1-27.1 0-15.067-12.032-27.1-27.1-27.1-0.11105 0-0.16466 0.00002-0.16211 0a9.9012 9.9012 0 0 1 -9.9297 -9.1602c-2.16-29.02-26.25-51.84-55.89-51.84z" filter="url(#l)"/>
        </g>
       </g>
      </g>
     </g>
     <g transform="matrix(.54801 0 0 .54801 882.42 -572.24)">
      <g transform="translate(131.83,249.62)">
       <g transform="translate(-182.93,-467.65)">
        <text style="word-spacing:0px;letter-spacing:0px" xml:space="preserve" font-size="40px" y="991.03918" x="1418.9371" font-family="Sans" line-height="125%"><tspan y="991.03918" x="1418.9371"/></text>
        <text style="word-spacing:0px;letter-spacing:0px" xml:space="preserve" font-size="13px" y="1293.6891" x="1315.4353" font-family="&apos;Arial Hebrew&apos;" line-height="125%"><tspan y="1293.6891" x="1315.4353"/></text>
        <text style="word-spacing:0px;letter-spacing:0px" xml:space="preserve" font-size="6px" y="1303.9227" x="1314.1394" font-family="Krungthep" line-height="125%"><tspan y="1303.9227" x="1314.1394"/></text>
        <text style="word-spacing:0px;letter-spacing:0px" xml:space="preserve" font-size="40px" y="848.02631" x="481.24521" font-family="Sans" line-height="125%"><tspan y="848.02631" x="481.24521"/></text>
        <text style="word-spacing:0px;letter-spacing:0px" xml:space="preserve" font-size="13px" y="1150.6763" x="377.74338" font-family="&apos;Arial Hebrew&apos;" line-height="125%"><tspan y="1150.6763" x="377.74338"/></text>
        <text style="word-spacing:0px;letter-spacing:0px" xml:space="preserve" font-size="6px" y="1160.9099" x="376.44748" font-family="Krungthep" line-height="125%"><tspan y="1160.9099" x="376.44748"/></text>
        <g fill-opacity=".066667" transform="translate(848.56,1191.4)" stroke="url(#f)" stroke-width="32.527" fill="#0063aa">
         <circle transform="matrix(-1.0576,0,0,1.1059,-1741.5,-1123.9)" filter="url(#a)" cy="492.36" cx="50" r="14.286"/>
         <circle transform="matrix(-1.0576,0,0,1.1059,-1608.8,-1001.8)" filter="url(#a)" cy="492.36" cx="50" r="14.286"/>
         <circle transform="matrix(-1.0576,0,0,1.1059,-1966.7,-1284.7)" filter="url(#a)" cy="492.36" cx="50" r="14.286"/>
         <circle transform="matrix(-1.0576 0 0 1.1059 -1019.8 -1052.4)" filter="url(#a)" cy="492.36" cx="50" r="14.286"/>
         <circle transform="matrix(-.54149 0 0 .56622 -1430.6 -1008.4)" filter="url(#a)" cy="492.36" cx="50" r="14.286"/>
        </g>
       </g>
      </g>
      <text style="word-spacing:0px;letter-spacing:0px" xml:space="preserve" font-size="40px" y="867.31873" x="1988.6168" font-family="Sans" line-height="125%"><tspan y="867.31873" x="1988.6168"/></text>
      <text style="word-spacing:0px;letter-spacing:0px" xml:space="preserve" font-size="13px" y="1169.9694" x="1885.1147" font-family="&apos;Arial Hebrew&apos;" line-height="125%"><tspan y="1169.9694" x="1885.1147"/></text>
      <text style="word-spacing:0px;letter-spacing:0px" xml:space="preserve" font-size="6px" y="1180.203" x="1883.8188" font-family="Krungthep" line-height="125%"><tspan y="1180.203" x="1883.8188"/></text>
     </g>
     <text style="word-spacing:0px;letter-spacing:0px" xml:space="preserve" font-size="21.921px" y="-233.12035" x="1616.8279" line-height="125%"><tspan y="-233.12035" x="1616.8279"/></text>
     <text style="word-spacing:0px;letter-spacing:0px" xml:space="preserve" font-size="21.921px" y="-77.891205" x="39.107182" font-family="sans-serif" line-height="125%" fill="#000000"><tspan y="-77.891205" x="39.107182">--</tspan></text>
     <g stroke-opacity=".18462" fill-opacity=".60513" transform="matrix(-.42203 .72851 .72851 .42203 -192.99 -727.23)" stroke="#00a2c9" stroke-width="11.348" fill="#fff">
      <g stroke-linejoin="round" stroke-opacity=".18462" fill-opacity=".60513" transform="translate(-399.01,459.27)" stroke="#00a2c9" stroke-width="4.8808" fill="#fff">
       <g fill-opacity=".60513" fill="#fff" transform="matrix(.93766 -.34756 .34756 .93766 -27.836 244.99)">
        <path d="m720 123.09c-25.36 0-47.387 14.347-58.438 35.344-11.07-11.3-26.5-18.34-43.56-18.34-19.173 0-36.283 8.8718-47.469 22.719-5.8654-4.8091-13.36-7.7188-21.531-7.7188-18.768 0-34 15.232-34 34s15.232 34 34 34c4.002 0 7.8392-0.69697 11.406-1.9688 8.297 23.837 30.941 40.969 57.594 40.969 9.2122 0 17.948-2.0575 25.781-5.7188 6.0278 12.264 18.639 20.719 33.219 20.719 15.318 0 28.474-9.3154 34.094-22.594 2.9168 0.39456 5.8818 0.59375 8.9062 0.59375 13.637 0 26.321-4.1549 36.844-11.25 6.774 8.6616 17.316 14.25 29.156 14.25 20.424 0 37-16.576 37-37s-16.576-37-37-37c-0.0732 0-0.14569-0.00042-0.21875 0-2.557-34.1-31.031-61-65.781-61z"/>
        <path d="m720 132.99c-21.626 0-40.285 12.212-49.676 30.055a9.9012 9.9012 0 0 1 -15.834 2.3164c-9.2964-9.4917-22.146-15.371-36.49-15.371-16.119 0-30.385 7.4233-39.768 19.039a9.9012 9.9012 0 0 1 -13.979 1.4356c-4.1817-3.4286-9.4332-5.4746-15.254-5.4746-13.411 0-24.1 10.688-24.1 24.1 0 13.411 10.688 24.1 24.1 24.1 2.8526 0 5.5528-0.49276 8.082-1.3945a9.9012 9.9012 0 0 1 12.674 6.0723c6.9427 19.946 25.834 34.322 48.244 34.322 7.7381 0 15.026-1.7191 21.59-4.7871a9.9012 9.9012 0 0 1 13.076 4.6016c4.4111 8.9748 13.581 15.186 24.334 15.186 11.304 0 20.871-6.8515 24.977-16.553a9.9012 9.9012 0 0 1 10.443 -5.9512c2.4723 0.33443 4.9903 0.50391 7.5801 0.50391 11.626 0 22.358-3.5234 31.309-9.5586a9.9012 9.9012 0 0 1 13.334 2.1094c4.9763 6.363 12.633 10.449 21.357 10.449 15.067 0 27.1-12.032 27.1-27.1 0-15.067-12.032-27.1-27.1-27.1-0.11105 0-0.16466 0.00002-0.16211 0a9.9012 9.9012 0 0 1 -9.9297 -9.1602c-2.16-29.02-26.25-51.84-55.89-51.84z" filter="url(#l)"/>
       </g>
      </g>
     </g>
     <g stroke-opacity=".46667" transform="translate(0 15.344)" stroke="#52bcff" stroke-width=".67443">
      <circle cy="-371.89" cx="336.21" r="4.1839" fill="url(#v)"/>
      <circle cy="-304.22" cx="408.74" r="4.1839" fill="url(#w)"/>
      <g transform="translate(-189.19,51.794)">
       <circle stroke-width="32.527" stroke-opacity="1" fill-opacity=".066667" transform="matrix(-.57959 0 0 .60605 422.16 -570.25)" stroke="url(#f)" filter="url(#a)" cy="492.36" cx="50" r="14.286" fill="#0063aa"/>
       <circle cy="-270.95" cx="393.27" r="4.1839" fill="url(#m)"/>
      </g>
      <g transform="matrix(.64 0 0 .64 -25.345 -74.472)">
       <circle stroke-width="32.527" stroke-opacity="1" fill-opacity=".066667" transform="matrix(-.57959 0 0 .60605 422.16 -570.25)" stroke="url(#f)" filter="url(#a)" cy="492.36" cx="50" r="14.286" fill="#0063aa"/>
       <circle cy="-270.95" cx="393.27" r="4.1839" fill="url(#m)"/>
      </g>
      <g transform="matrix(.64 0 0 .64 260.96 -11.545)">
       <circle stroke-width="32.527" stroke-opacity="1" fill-opacity=".066667" transform="matrix(-.57959 0 0 .60605 422.16 -570.25)" stroke="url(#f)" filter="url(#a)" cy="492.36" cx="50" r="14.286" fill="#0063aa"/>
       <circle cy="-270.95" cx="393.27" r="4.1839" fill="url(#m)"/>
      </g>
      <g transform="translate(13.668,68.339)">
       <circle stroke-width="32.527" stroke-opacity="1" fill-opacity=".066667" transform="matrix(-.57959 0 0 .60605 422.16 -570.25)" stroke="url(#f)" filter="url(#a)" cy="492.36" cx="50" r="14.286" fill="#0063aa"/>
       <circle cy="-270.95" cx="393.27" r="4.1839" fill="url(#m)"/>
      </g>
      <g transform="translate(-96.394,56.829)">
       <circle stroke-width="32.527" stroke-opacity="1" fill-opacity=".066667" transform="matrix(-.57959 0 0 .60605 422.16 -570.25)" stroke="url(#f)" filter="url(#a)" cy="492.36" cx="50" r="14.286" fill="#0063aa"/>
       <circle cy="-270.95" cx="393.27" r="4.1839" fill="url(#m)"/>
      </g>
      <circle stroke-width="32.527" stroke-opacity="1" fill-opacity=".066667" transform="matrix(-.37094 0 0 .38787 390.15 -479.37)" stroke="url(#f)" filter="url(#a)" cy="492.36" cx="50" r="14.286" fill="#0063aa"/>
      <circle r="2.6777" cy="-288.39" cx="371.6" stroke-width=".43164" fill="url(#r)"/>
      <g transform="translate(247.66 -70.915)">
       <circle stroke-width="32.527" stroke-opacity="1" fill-opacity=".066667" transform="matrix(-.57959 0 0 .60605 400.58 -586.79)" stroke="url(#f)" filter="url(#a)" cy="492.36" cx="50" r="14.286" fill="#0063aa"/>
       <circle cy="-288.39" cx="371.11" r="4.1839" fill="url(#q)"/>
      </g>
      <g transform="translate(388.62,172.44)">
       <circle stroke-width="32.527" stroke-opacity="1" fill-opacity=".066667" transform="matrix(-.57959 0 0 .60605 400.58 -586.79)" stroke="url(#f)" filter="url(#a)" cy="492.36" cx="50" r="14.286" fill="#0063aa"/>
       <circle cy="-288.39" cx="371.33" r="4.1839" fill="url(#o)"/>
      </g>
      <g transform="translate(204.48,189.22)">
       <circle stroke-width="32.527" stroke-opacity="1" fill-opacity=".066667" transform="matrix(-.57959 0 0 .60605 400.58 -586.79)" stroke="url(#f)" filter="url(#a)" cy="492.36" cx="50" r="14.286" fill="#0063aa"/>
       <circle cy="-288.39" cx="371.33" r="4.1839" fill="url(#o)"/>
      </g>
      <g transform="translate(76.3,208.04)">
       <circle stroke-width="32.527" stroke-opacity="1" fill-opacity=".066667" transform="matrix(-.57959 0 0 .60605 400.58 -586.79)" stroke="url(#f)" filter="url(#a)" cy="492.36" cx="50" r="14.286" fill="#0063aa"/>
       <circle cy="-288.39" cx="371.33" r="4.1839" fill="url(#o)"/>
      </g>
      <g transform="translate(273.36,124.45)">
       <circle stroke-width="32.527" stroke-opacity="1" fill-opacity=".066667" transform="matrix(-.57959 0 0 .60605 422.16 -570.25)" stroke="url(#f)" filter="url(#a)" cy="492.36" cx="50" r="14.286" fill="#0063aa"/>
       <circle cy="-270.95" cx="393.27" r="4.1839" fill="url(#m)"/>
      </g>
      <circle cy="-459.88" cx="212.65" r="4.1839" fill="url(#s)"/>
      <circle r="2.1422" cy="-454.24" cx="520.85" stroke-width=".34531" fill="url(#t)"/>
      <circle cy="-332.46" cx="731.48" r="4.1839" fill="url(#u)"/>
     </g>
     <g stroke-opacity=".46667" transform="translate(0 15.344)" stroke="#52bcff" stroke-width=".67443">
      <circle cy="-305.34" cx="78.901" r="4.1839" fill="url(#z)"/>
      <circle cy="-135.82" cx="791.37" r="4.1839" fill="url(#y)"/>
     </g>
     <g stroke="#00a2c9" stroke-width="11.348" stroke-opacity=".18462">
      <g fill-opacity=".86154" transform="matrix(0.459 .49723 -.49723 0.459 738.71 -738.97)" fill="#dcdcdc">
       <g stroke-linejoin="round" stroke-opacity=".18462" fill-opacity=".86154" transform="translate(-399.01,459.27)" stroke="#00a2c9" stroke-width="4.8808" fill="#dcdcdc">
        <g fill-opacity=".86154" fill="#dcdcdc" transform="matrix(.93766 -.34756 .34756 .93766 -27.836 244.99)">
         <path d="m720 123.09c-25.36 0-47.387 14.347-58.438 35.344-11.07-11.3-26.5-18.34-43.56-18.34-19.173 0-36.283 8.8718-47.469 22.719-5.8654-4.8091-13.36-7.7188-21.531-7.7188-18.768 0-34 15.232-34 34s15.232 34 34 34c4.002 0 7.8392-0.69697 11.406-1.9688 8.297 23.837 30.941 40.969 57.594 40.969 9.2122 0 17.948-2.0575 25.781-5.7188 6.0278 12.264 18.639 20.719 33.219 20.719 15.318 0 28.474-9.3154 34.094-22.594 2.9168 0.39456 5.8818 0.59375 8.9062 0.59375 13.637 0 26.321-4.1549 36.844-11.25 6.774 8.6616 17.316 14.25 29.156 14.25 20.424 0 37-16.576 37-37s-16.576-37-37-37c-0.0732 0-0.14569-0.00042-0.21875 0-2.557-34.1-31.031-61-65.781-61z"/>
         <path d="m720 132.99c-21.626 0-40.285 12.212-49.676 30.055a9.9012 9.9012 0 0 1 -15.834 2.3164c-9.2964-9.4917-22.146-15.371-36.49-15.371-16.119 0-30.385 7.4233-39.768 19.039a9.9012 9.9012 0 0 1 -13.979 1.4356c-4.1817-3.4286-9.4332-5.4746-15.254-5.4746-13.411 0-24.1 10.688-24.1 24.1 0 13.411 10.688 24.1 24.1 24.1 2.8526 0 5.5528-0.49276 8.082-1.3945a9.9012 9.9012 0 0 1 12.674 6.0723c6.9427 19.946 25.834 34.322 48.244 34.322 7.7381 0 15.026-1.7191 21.59-4.7871a9.9012 9.9012 0 0 1 13.076 4.6016c4.4111 8.9748 13.581 15.186 24.334 15.186 11.304 0 20.871-6.8515 24.977-16.553a9.9012 9.9012 0 0 1 10.443 -5.9512c2.4723 0.33443 4.9903 0.50391 7.5801 0.50391 11.626 0 22.358-3.5234 31.309-9.5586a9.9012 9.9012 0 0 1 13.334 2.1094c4.9763 6.363 12.633 10.449 21.357 10.449 15.067 0 27.1-12.032 27.1-27.1 0-15.067-12.032-27.1-27.1-27.1-0.11105 0-0.16466 0.00002-0.16211 0a9.9012 9.9012 0 0 1 -9.9297 -9.1602c-2.16-29.02-26.25-51.84-55.89-51.84z" filter="url(#l)"/>
        </g>
       </g>
      </g>
      <g fill-opacity=".60513" transform="matrix(.52281 .42964 -.42964 .52281 643.59 -820.39)" fill="#fff">
       <g stroke-linejoin="round" stroke-opacity=".18462" fill-opacity=".60513" transform="translate(-399.01,459.27)" stroke="#00a2c9" stroke-width="4.8808" fill="#fff">
        <g fill-opacity=".60513" fill="#fff" transform="matrix(.93766 -.34756 .34756 .93766 -27.836 244.99)">
         <path d="m720 123.09c-25.36 0-47.387 14.347-58.438 35.344-11.07-11.3-26.5-18.34-43.56-18.34-19.173 0-36.283 8.8718-47.469 22.719-5.8654-4.8091-13.36-7.7188-21.531-7.7188-18.768 0-34 15.232-34 34s15.232 34 34 34c4.002 0 7.8392-0.69697 11.406-1.9688 8.297 23.837 30.941 40.969 57.594 40.969 9.2122 0 17.948-2.0575 25.781-5.7188 6.0278 12.264 18.639 20.719 33.219 20.719 15.318 0 28.474-9.3154 34.094-22.594 2.9168 0.39456 5.8818 0.59375 8.9062 0.59375 13.637 0 26.321-4.1549 36.844-11.25 6.774 8.6616 17.316 14.25 29.156 14.25 20.424 0 37-16.576 37-37s-16.576-37-37-37c-0.0732 0-0.14569-0.00042-0.21875 0-2.557-34.1-31.031-61-65.781-61z"/>
         <path d="m720 132.99c-21.626 0-40.285 12.212-49.676 30.055a9.9012 9.9012 0 0 1 -15.834 2.3164c-9.2964-9.4917-22.146-15.371-36.49-15.371-16.119 0-30.385 7.4233-39.768 19.039a9.9012 9.9012 0 0 1 -13.979 1.4356c-4.1817-3.4286-9.4332-5.4746-15.254-5.4746-13.411 0-24.1 10.688-24.1 24.1 0 13.411 10.688 24.1 24.1 24.1 2.8526 0 5.5528-0.49276 8.082-1.3945a9.9012 9.9012 0 0 1 12.674 6.0723c6.9427 19.946 25.834 34.322 48.244 34.322 7.7381 0 15.026-1.7191 21.59-4.7871a9.9012 9.9012 0 0 1 13.076 4.6016c4.4111 8.9748 13.581 15.186 24.334 15.186 11.304 0 20.871-6.8515 24.977-16.553a9.9012 9.9012 0 0 1 10.443 -5.9512c2.4723 0.33443 4.9903 0.50391 7.5801 0.50391 11.626 0 22.358-3.5234 31.309-9.5586a9.9012 9.9012 0 0 1 13.334 2.1094c4.9763 6.363 12.633 10.449 21.357 10.449 15.067 0 27.1-12.032 27.1-27.1 0-15.067-12.032-27.1-27.1-27.1-0.11105 0-0.16466 0.00002-0.16211 0a9.9012 9.9012 0 0 1 -9.9297 -9.1602c-2.16-29.02-26.25-51.84-55.89-51.84z" filter="url(#l)"/>
        </g>
       </g>
      </g>
      <g fill-opacity=".60513" transform="matrix(.67643 -.019246 .019246 .67643 62.457 -787.6)" fill="#fff">
       <g stroke-linejoin="round" stroke-opacity=".18462" fill-opacity=".60513" transform="translate(-399.01,459.27)" stroke="#00a2c9" stroke-width="4.8808" fill="#fff">
        <g fill-opacity=".60513" fill="#fff" transform="matrix(.93766 -.34756 .34756 .93766 -27.836 244.99)">
         <path d="m720 123.09c-25.36 0-47.387 14.347-58.438 35.344-11.07-11.3-26.5-18.34-43.56-18.34-19.173 0-36.283 8.8718-47.469 22.719-5.8654-4.8091-13.36-7.7188-21.531-7.7188-18.768 0-34 15.232-34 34s15.232 34 34 34c4.002 0 7.8392-0.69697 11.406-1.9688 8.297 23.837 30.941 40.969 57.594 40.969 9.2122 0 17.948-2.0575 25.781-5.7188 6.0278 12.264 18.639 20.719 33.219 20.719 15.318 0 28.474-9.3154 34.094-22.594 2.9168 0.39456 5.8818 0.59375 8.9062 0.59375 13.637 0 26.321-4.1549 36.844-11.25 6.774 8.6616 17.316 14.25 29.156 14.25 20.424 0 37-16.576 37-37s-16.576-37-37-37c-0.0732 0-0.14569-0.00042-0.21875 0-2.557-34.1-31.031-61-65.781-61z"/>
         <path d="m720 132.99c-21.626 0-40.285 12.212-49.676 30.055a9.9012 9.9012 0 0 1 -15.834 2.3164c-9.2964-9.4917-22.146-15.371-36.49-15.371-16.119 0-30.385 7.4233-39.768 19.039a9.9012 9.9012 0 0 1 -13.979 1.4356c-4.1817-3.4286-9.4332-5.4746-15.254-5.4746-13.411 0-24.1 10.688-24.1 24.1 0 13.411 10.688 24.1 24.1 24.1 2.8526 0 5.5528-0.49276 8.082-1.3945a9.9012 9.9012 0 0 1 12.674 6.0723c6.9427 19.946 25.834 34.322 48.244 34.322 7.7381 0 15.026-1.7191 21.59-4.7871a9.9012 9.9012 0 0 1 13.076 4.6016c4.4111 8.9748 13.581 15.186 24.334 15.186 11.304 0 20.871-6.8515 24.977-16.553a9.9012 9.9012 0 0 1 10.443 -5.9512c2.4723 0.33443 4.9903 0.50391 7.5801 0.50391 11.626 0 22.358-3.5234 31.309-9.5586a9.9012 9.9012 0 0 1 13.334 2.1094c4.9763 6.363 12.633 10.449 21.357 10.449 15.067 0 27.1-12.032 27.1-27.1 0-15.067-12.032-27.1-27.1-27.1-0.11105 0-0.16466 0.00002-0.16211 0a9.9012 9.9012 0 0 1 -9.9297 -9.1602c-2.16-29.02-26.25-51.84-55.89-51.84z" filter="url(#l)"/>
        </g>
       </g>
      </g>
     </g>
     <g stroke-width="11.348">
      <g stroke-opacity=".097436" transform="matrix(1.3044 .36095 -.36095 1.3044 278.09 -1174.8)" stroke="#614e7b">
       <g stroke-linejoin="round" stroke-opacity=".097436" fill-opacity=".59487" transform="translate(-399.01,459.27)" stroke="#614e7b" stroke-width="4.8808" fill="#dcdcdc">
        <g stroke-opacity=".097436" fill-opacity=".59487" transform="matrix(.93766 -.34756 .34756 .93766 -27.836 244.99)" stroke="#614e7b" fill="#dcdcdc">
         <path d="m720 123.09c-25.36 0-47.387 14.347-58.438 35.344-11.07-11.3-26.5-18.34-43.56-18.34-19.173 0-36.283 8.8718-47.469 22.719-5.8654-4.8091-13.36-7.7188-21.531-7.7188-18.768 0-34 15.232-34 34s15.232 34 34 34c4.002 0 7.8392-0.69697 11.406-1.9688 8.297 23.837 30.941 40.969 57.594 40.969 9.2122 0 17.948-2.0575 25.781-5.7188 6.0278 12.264 18.639 20.719 33.219 20.719 15.318 0 28.474-9.3154 34.094-22.594 2.9168 0.39456 5.8818 0.59375 8.9062 0.59375 13.637 0 26.321-4.1549 36.844-11.25 6.774 8.6616 17.316 14.25 29.156 14.25 20.424 0 37-16.576 37-37s-16.576-37-37-37c-0.0732 0-0.14569-0.00042-0.21875 0-2.557-34.1-31.031-61-65.781-61z"/>
         <path d="m720 132.99c-21.626 0-40.285 12.212-49.676 30.055a9.9012 9.9012 0 0 1 -15.834 2.3164c-9.2964-9.4917-22.146-15.371-36.49-15.371-16.119 0-30.385 7.4233-39.768 19.039a9.9012 9.9012 0 0 1 -13.979 1.4356c-4.1817-3.4286-9.4332-5.4746-15.254-5.4746-13.411 0-24.1 10.688-24.1 24.1 0 13.411 10.688 24.1 24.1 24.1 2.8526 0 5.5528-0.49276 8.082-1.3945a9.9012 9.9012 0 0 1 12.674 6.0723c6.9427 19.946 25.834 34.322 48.244 34.322 7.7381 0 15.026-1.7191 21.59-4.7871a9.9012 9.9012 0 0 1 13.076 4.6016c4.4111 8.9748 13.581 15.186 24.334 15.186 11.304 0 20.871-6.8515 24.977-16.553a9.9012 9.9012 0 0 1 10.443 -5.9512c2.4723 0.33443 4.9903 0.50391 7.5801 0.50391 11.626 0 22.358-3.5234 31.309-9.5586a9.9012 9.9012 0 0 1 13.334 2.1094c4.9763 6.363 12.633 10.449 21.357 10.449 15.067 0 27.1-12.032 27.1-27.1 0-15.067-12.032-27.1-27.1-27.1-0.11105 0-0.16466 0.00002-0.16211 0a9.9012 9.9012 0 0 1 -9.9297 -9.1602c-2.16-29.02-26.25-51.84-55.89-51.84z" filter="url(#l)"/>
        </g>
       </g>
      </g>
      <g stroke-opacity=".18462" fill-opacity=".60513" transform="matrix(-.25481 -.22261 -.22261 .25481 912.02 -323.61)" stroke="#00a2c9" fill="#fff">
       <g stroke-linejoin="round" stroke-opacity=".18462" fill-opacity=".60513" transform="translate(-399.01,459.27)" stroke="#00a2c9" stroke-width="4.8808" fill="#fff">
        <g fill-opacity=".60513" fill="#fff" transform="matrix(.93766 -.34756 .34756 .93766 -27.836 244.99)">
         <path d="m720 123.09c-25.36 0-47.387 14.347-58.438 35.344-11.07-11.3-26.5-18.34-43.56-18.34-19.173 0-36.283 8.8718-47.469 22.719-5.8654-4.8091-13.36-7.7188-21.531-7.7188-18.768 0-34 15.232-34 34s15.232 34 34 34c4.002 0 7.8392-0.69697 11.406-1.9688 8.297 23.837 30.941 40.969 57.594 40.969 9.2122 0 17.948-2.0575 25.781-5.7188 6.0278 12.264 18.639 20.719 33.219 20.719 15.318 0 28.474-9.3154 34.094-22.594 2.9168 0.39456 5.8818 0.59375 8.9062 0.59375 13.637 0 26.321-4.1549 36.844-11.25 6.774 8.6616 17.316 14.25 29.156 14.25 20.424 0 37-16.576 37-37s-16.576-37-37-37c-0.0732 0-0.14569-0.00042-0.21875 0-2.557-34.1-31.031-61-65.781-61z"/>
         <path d="m720 132.99c-21.626 0-40.285 12.212-49.676 30.055a9.9012 9.9012 0 0 1 -15.834 2.3164c-9.2964-9.4917-22.146-15.371-36.49-15.371-16.119 0-30.385 7.4233-39.768 19.039a9.9012 9.9012 0 0 1 -13.979 1.4356c-4.1817-3.4286-9.4332-5.4746-15.254-5.4746-13.411 0-24.1 10.688-24.1 24.1 0 13.411 10.688 24.1 24.1 24.1 2.8526 0 5.5528-0.49276 8.082-1.3945a9.9012 9.9012 0 0 1 12.674 6.0723c6.9427 19.946 25.834 34.322 48.244 34.322 7.7381 0 15.026-1.7191 21.59-4.7871a9.9012 9.9012 0 0 1 13.076 4.6016c4.4111 8.9748 13.581 15.186 24.334 15.186 11.304 0 20.871-6.8515 24.977-16.553a9.9012 9.9012 0 0 1 10.443 -5.9512c2.4723 0.33443 4.9903 0.50391 7.5801 0.50391 11.626 0 22.358-3.5234 31.309-9.5586a9.9012 9.9012 0 0 1 13.334 2.1094c4.9763 6.363 12.633 10.449 21.357 10.449 15.067 0 27.1-12.032 27.1-27.1 0-15.067-12.032-27.1-27.1-27.1-0.11105 0-0.16466 0.00002-0.16211 0a9.9012 9.9012 0 0 1 -9.9297 -9.1602c-2.16-29.02-26.25-51.84-55.89-51.84z" filter="url(#l)"/>
        </g>
       </g>
      </g>
      <g stroke-opacity=".18462" fill-opacity=".60513" transform="matrix(.33301 .059866 -.059866 .33301 351.55 -467.87)" stroke="#00a2c9" fill="#fff">
       <g stroke-linejoin="round" stroke-opacity=".18462" fill-opacity=".60513" transform="translate(-399.01,459.27)" stroke="#00a2c9" stroke-width="4.8808" fill="#fff">
        <g fill-opacity=".60513" fill="#fff" transform="matrix(.93766 -.34756 .34756 .93766 -27.836 244.99)">
         <path d="m720 123.09c-25.36 0-47.387 14.347-58.438 35.344-11.07-11.3-26.5-18.34-43.56-18.34-19.173 0-36.283 8.8718-47.469 22.719-5.8654-4.8091-13.36-7.7188-21.531-7.7188-18.768 0-34 15.232-34 34s15.232 34 34 34c4.002 0 7.8392-0.69697 11.406-1.9688 8.297 23.837 30.941 40.969 57.594 40.969 9.2122 0 17.948-2.0575 25.781-5.7188 6.0278 12.264 18.639 20.719 33.219 20.719 15.318 0 28.474-9.3154 34.094-22.594 2.9168 0.39456 5.8818 0.59375 8.9062 0.59375 13.637 0 26.321-4.1549 36.844-11.25 6.774 8.6616 17.316 14.25 29.156 14.25 20.424 0 37-16.576 37-37s-16.576-37-37-37c-0.0732 0-0.14569-0.00042-0.21875 0-2.557-34.1-31.031-61-65.781-61z"/>
         <path d="m720 132.99c-21.626 0-40.285 12.212-49.676 30.055a9.9012 9.9012 0 0 1 -15.834 2.3164c-9.2964-9.4917-22.146-15.371-36.49-15.371-16.119 0-30.385 7.4233-39.768 19.039a9.9012 9.9012 0 0 1 -13.979 1.4356c-4.1817-3.4286-9.4332-5.4746-15.254-5.4746-13.411 0-24.1 10.688-24.1 24.1 0 13.411 10.688 24.1 24.1 24.1 2.8526 0 5.5528-0.49276 8.082-1.3945a9.9012 9.9012 0 0 1 12.674 6.0723c6.9427 19.946 25.834 34.322 48.244 34.322 7.7381 0 15.026-1.7191 21.59-4.7871a9.9012 9.9012 0 0 1 13.076 4.6016c4.4111 8.9748 13.581 15.186 24.334 15.186 11.304 0 20.871-6.8515 24.977-16.553a9.9012 9.9012 0 0 1 10.443 -5.9512c2.4723 0.33443 4.9903 0.50391 7.5801 0.50391 11.626 0 22.358-3.5234 31.309-9.5586a9.9012 9.9012 0 0 1 13.334 2.1094c4.9763 6.363 12.633 10.449 21.357 10.449 15.067 0 27.1-12.032 27.1-27.1 0-15.067-12.032-27.1-27.1-27.1-0.11105 0-0.16466 0.00002-0.16211 0a9.9012 9.9012 0 0 1 -9.9297 -9.1602c-2.16-29.02-26.25-51.84-55.89-51.84z" filter="url(#l)"/>
        </g>
       </g>
      </g>
     </g>
    </g>
   </g>
  </g>
 </g>
</svg>
