<?xml version="1.0" encoding="UTF-8" standalone="no"?>
<svg xmlns:rdf="http://www.w3.org/1999/02/22-rdf-syntax-ns#" xmlns="http://www.w3.org/2000/svg" height="100%" viewBox="0 0 301.70778 178.40729" width="100%" version="1.1" xmlns:cc="http://creativecommons.org/ns#" xmlns:xlink="http://www.w3.org/1999/xlink" preserveAspectRatio="xMinYMin slice" xmlns:dc="http://purl.org/dc/elements/1.1/">
 <metadata>
  <rdf:RDF>
   <cc:Work rdf:about="">
    <dc:format>image/svg+xml</dc:format>
    <dc:type rdf:resource="http://purl.org/dc/dcmitype/StillImage"/>
    <dc:title/>
   </cc:Work>
  </rdf:RDF>
 </metadata>
 <defs>
  <linearGradient id="c" x1="403.94" gradientUnits="userSpaceOnUse" y1="310.8" gradientTransform="matrix(1.32,0,0,1.32,-127.88,-120.19)" x2="407.53" y2="315.44">
   <stop stop-color="#6b5e44" offset="0"/>
   <stop stop-opacity="0" stop-color="#1b1b1b" offset="1"/>
  </linearGradient>
  <linearGradient id="d" x1="397.82" gradientUnits="userSpaceOnUse" y1="314.22" gradientTransform="matrix(1.32,0,0,1.32,-127.88,-120.19)" x2="411.13" y2="314.85">
   <stop stop-opacity=".89744" stop-color="#937c53" offset="0"/>
   <stop stop-opacity=".80392" stop-color="#737373" offset=".48298"/>
   <stop stop-opacity=".70769" stop-color="#737373" offset="1"/>
  </linearGradient>
  <linearGradient id="m" x1="405.94" gradientUnits="userSpaceOnUse" x2="413.21" gradientTransform="matrix(1.32,0,0,1.32,-127.88,-120.19)" y1="309.21" y2="336.22">
   <stop stop-color="#fff" offset="0"/>
   <stop stop-color="#fff" stop-opacity="0" offset="1"/>
  </linearGradient>
  <linearGradient id="k" y2="323.62" gradientUnits="userSpaceOnUse" y1="296.64" x2="417.56" x1="400.98">
   <stop offset="0"/>
   <stop stop-opacity="0" offset="1"/>
  </linearGradient>
  <linearGradient id="linearGradient30784" y2="361.95" gradientUnits="userSpaceOnUse" x2="459.1" gradientTransform="matrix(1.32,0,0,1.32,-127.88,-120.19)" y1="339.89" x1="357.66">
   <stop stop-color="#161616" offset="0"/>
   <stop stop-opacity="0" stop-color="#fff" offset="1"/>
  </linearGradient>
  <radialGradient id="radialGradient31485" gradientUnits="userSpaceOnUse" cy="30.473" cx="147.93" gradientTransform="matrix(1.4986 0 0 1.4963 -69.84 3.8214)" r="16.695">
   <stop stop-color="#ec7a25" offset="0"/>
   <stop stop-opacity="0" stop-color="#381e1e" offset="1"/>
  </radialGradient>
 </defs>
 <g transform="translate(-199.9 38.277)">
  <text font-size="40px" xml:space="preserve" style="word-spacing:0px;letter-spacing:0px" y="101.71137" x="1380.9397" line-height="125%"><tspan y="101.71137" x="1380.9397"/></text>
  <g transform="matrix(1.056,0,0,1.056,-56.114,-275.29)">
   <text style="word-spacing:0px;letter-spacing:0px" xml:space="preserve" font-size="40px" y="486.50525" x="1336.0771" line-height="125%"><tspan y="486.50525" x="1336.0771"/></text>
   <g transform="translate(0,-1.5116e-5)">
    <g transform="matrix(1.584,0,0,1.584,-232.71,-271.54)">
     <g transform="translate(0,-10.101)">
      <g transform="matrix(2.1646 -.046253 .046253 2.1646 -377.88 -105.79)">
       <g transform="matrix(-1,0,0,1,737.42,-76.204)">
        <g transform="translate(-3.8649 .082584)">
         <g transform="translate(-1.6564 .035394)">
          <g transform="translate(-.023596 -1.1043)">
           <path d="m404.75 327.14c2.2328-1.7944 3.7806-4.0586 4.0879-5.9803 0.15571-0.97371 0.65287-1.989 1.2408-2.5339 1.3103-1.2144 1.2381-1.8011-0.38053-3.0926-2.3744-1.8945-3.1192-2.083-5.9837-1.5135-2.0262 0.40273-2.9026 2.4932-3.364 2.1103-0.32137-0.26669-0.15652-1.9056-0.51343-3.0099 0.21976-1.0651 0.45984-1.1462 0.28878-2.0544-0.17351-0.51106-0.51007-1.4458 0.0119-1.6364 0.38252-0.13979-0.45896-0.30667-0.5122-1.2141 0.79266-0.66771-0.1448-1.6802-0.6035-2.0567-0.96706-0.55598-1.111-1.36 0.31696-2.2762 1.0121-1.1527 1.471-1.2826 1.293-2.3792-0.13236-0.81567 0.0833-2.2016 0.55646-3.5771 0.72665-2.112 0.73465-2.3447 0.13473-3.9155-0.8732-2.2865-0.21578-3.6959 2.098-4.4976 1.4946-0.51797 1.7304-0.50985 2.3844 0.0821 0.64881 0.58716 0.89258 0.59747 2.2973 0.0971 2.0206-0.71965 4.1427-0.72137 5.0899-0.004 0.41056 0.31085 1.5123 0.68001 2.4483 0.82038 0.93604 0.14037 1.7973 0.50408 1.9141 0.80825 0.11669 0.30417 0.56801 0.55303 1.0029 0.55303 1.1952 0 3.6606 2.3223 3.3855 3.189-0.12936 0.40757 0.0176 0.8518 0.34353 1.0386 0.36385 0.20851 0.54892 0.89856 0.51236 1.9104-0.057 1.5799 0.0887 1.6959 1.4603 1.1625 0.66414-0.25831 0.70165-0.1184 0.44358 1.6537-0.15505 1.0647-0.51652 2.3986-0.80328 2.9642-0.28675 0.56558-0.42658 1.3908-0.31074 1.8337 0.12686 0.485-0.0546 1.0212-0.45615 1.3477-1.4322 1.1646-2.9648 2.9208-2.9648 3.3972 0 0.27524 0.6237 0.76103 1.386 1.0795 0.7623 0.31851 1.386 0.76039 1.386 0.98194 3.1347 4.3596 5.5251 5.0782 11.484 9.7072 3.8887 8.0672-29.674 5.0046-29.674 5.0046z" stroke-opacity=".40513" stroke="url(#m)" stroke-width=".69280" fill="url(#k)"/>
           <path d="m419.87 310.62-4.5477-2.974-4.1812-6.6564-2.2412-2.8172-3.0924 1.1798 1.1791-2.0051-2.1228 0.5507-0.36711-1.4152-1.2383 0.32124-1.3827-0.96295-1.1014-4.2456-0.3429-3.6872 4.3524 0.94776 1.6054 1.094 4.868-0.88525 3.7349 1.2968 1.9067 0.0718 0.72093 1.3234 3.1582 1.2575 1.2124 1.7623 0.41303 1.5921 0.7668 1.5003-0.56326 1.4677 2.3456-0.41967-1.1916 5.5957-0.2946 1.7757z" fill-rule="evenodd" stroke="url(#d)" stroke-width=".94376" fill="url(#c)"/>
           <g fill-opacity=".98462">
            <circle transform="matrix(-.96796 .25111 .25111 .96796 0 0)" cy="399.66" cx="-320.75" r="4.95" fill="#747474"/>
            <g transform="matrix(1.584,0,0,1.584,-239.01,-202.44)">
             <path d="m415.04 311.5-3.212 8.8194-1.4915-0.79856 3.0581-8.8949z" fill-rule="evenodd" fill-opacity="1" stroke="#767676" stroke-width=".17432px"/>
            </g>
            <circle transform="matrix(-.96796 .25111 .25111 .96796 0 0)" stroke="#3d3d3d" cy="399.76" cx="-320.97" r="3.0938"/>
            <circle transform="matrix(-.96796 .25111 .25111 .96796 0 0)" cy="399.81" cx="-321.21" r="1.0313" fill="#5e1500"/>
           </g>
           <ellipse opacity="0.96" rx=".79131" transform="matrix(-.89233 .45138 .37822 .92572 0 0)" stroke="#404040" ry=".52866" cy="453.64" cx="-259.43" stroke-width=".23007" fill="#363636"/>
          </g>
         </g>
        </g>
       </g>
      </g>
      <g transform="matrix(.80578 .40089 -.40089 .80578 240.33 -65.412)">
       <path d="m461.05 364.6c-2.1253-3.6105-3.9873-6.647-4.1378-6.7477-0.33132-0.22173-0.65352 0.11896-1.6609 1.7566-0.97457 1.5844-1.5992 2.0088-4.8035 3.2641-2.8803 1.1284-2.7915 1.0659-6.1558 4.332-3.6598 3.553-3.8711 3.6637-8.4881 4.4452-3.9818 0.674-6.4551 1.2077-7.5252 1.6239-0.9168 0.35657-0.59131 0.81234 1.3029 1.8246 2.3632 1.2628 4.6266 3.0361 5.965 4.6734 1.8223 2.2293 1.9866 3.5687 0.56128 4.5747-1.1705 0.82611-2.3306 0.51257-6.3454-1.7148-3.7646-2.0886-4.6248-2.4118-5.2482-1.9719-0.47876 0.33792-0.54508 0.86993-0.34497 2.7674 0.16039 1.5209-0.14417 2.7955-1.1037 4.6195-0.64587 1.2276-1.0484 1.5534-1.7128 1.3862-0.85317-0.21475-1.1515-0.5596-1.8861-2.1803-0.80992-1.7869-1.4661-2.4305-2.4254-2.3788-0.36904 0.0199-1.4147 0.55117-2.8298 1.4377-1.6526 1.0353-2.4735 1.4347-3.1124 1.5143-0.67137 0.0837-1.2779 0.39238-2.6791 1.3638-2.9444 2.0413-5.2019 2.3782-6.2225 0.92836-1.5473-2.1976 0.95372-6.8379 6.3381-11.761 0.97113-0.88782 1.7816-1.7063 1.8009-1.8188 0.0194-0.11255-0.52826-0.9596-1.217-1.8823-1.5833-2.121-2.2063-3.5534-2.2433-5.1574-0.0597-2.5897-0.16253-3.169-0.87164-4.9091-0.39914-0.9794-1.7278-3.562-2.9525-5.7391-3.104-5.5176-3.8291-7.3564-3.1929-8.0962 1.1325-1.3168 4.9941-2.112 9.109-1.8758 4.5332 0.26017 11.96-1.3083 14.438-3.0492 1.3087-0.91937 1.9673-2.023 1.7197-2.8815-0.3115-1.0798-1.6285-1.6194-5.6454-2.313-4.1431-0.71539-9.3643-0.95934-15.802-0.73866-5.6799 0.19501-7.4274 0.14917-11.826-0.3092l-3.6801-0.38345-3.1813 0.9814c-2.5732 0.79378-3.6454 0.99727-5.61 1.0647-2.4232 0.083-2.4334 0.0859-4.6347 1.2685-5.4668 2.937-9.491 4.029-13.085 3.5508-1.652-0.21985-4.0975-1.231-4.5709-1.8898-0.17844-0.24861-0.23481-0.24554-0.22205 0.0118 0.0113 0.22816-0.2102 0.10124-0.65476-0.37518-0.78072-0.83668-1.4843-2.1692-1.156-2.1892 0.12408-0.008 0.14083-0.1339 0.0372-0.28069-0.10362-0.14681-0.15607-0.64634-0.11661-1.1101 0.0395-0.46377 0.001-0.85539-0.0854-0.8703-0.28677-0.0495 0.36519-0.65415 0.82876-0.7687 0.25065-0.0619 0.38324-0.0529 0.29464 0.02-0.27929 0.22998 1.667 0.19661 3.4233-0.0587 0.92842-0.13493 3.1421-0.61045 4.9191-1.0567 2.0599-0.51722 3.9108-0.81814 5.1062-0.83018 1.6294-0.0163 5.1232-0.31681 11.492-0.98844 0.94089-0.0992 2.3274-0.21174 3.0813-0.25009 1.0317-0.0524 2.2583-0.41468 4.9612-1.4637 3.956-1.536 3.4404-1.475 8.7456-1.0345 8.1824 0.67942 12.591 0.39521 16.66-1.0735 2.0586-0.7431 2.1616-0.75287 4.0952-0.38862 1.0909 0.20549 2.5448 0.28752 3.2309 0.1823 1.0923-0.16757 1.6-0.0565 4.0843 0.89392 4.0751 1.5589 6.6918 2.1345 14.952 3.2884 10.784 1.5067 20.123 3.1571 21.254 3.756 1.077 0.57059 4.0186 3.018 4.6456 3.8652 0.33058 0.44661 0.38797 0.46639 0.29821 0.10254-0.0747-0.30305 0.23516-0.0384 0.94651 0.80957 1.1598 1.3819 2.4861 3.5882 2.0437 3.3997-0.15486-0.0659-0.0868 0.26711 0.15331 0.75042 0.43223 0.87004 0.5768 1.6092 0.9329 4.7688 0.57903 5.1378 3.4599 11.58 9.1518 20.464-9.9487 8.614-16.073 7.9034-19.143-9.1532zm-35.018 1.921c0.93853-2.7438 2.0089-3.7838 4.3449-4.2215 0.965-0.18127 1.7988-0.53559 3.0905-1.3149 1.5715-0.94812 1.9092-1.244 3.0264-2.6517 1.3591-1.7124 2.3365-3.3922 2.3929-4.1124 0.10562-1.3492-1.5448-1.911-4.3444-1.4792-4.0085 0.61855-6.1731 1.6092-7.2798 3.3315-0.55354 0.86145-1.2611 1.5409-3.2588 3.1293-3.2044 2.5479-6.9866 6.4851-7.7895 8.1086-0.72961 1.4754-1.0272 2.9943-0.68233 3.4829 0.34192 0.48445 1.7626 1.2484 2.4168 1.2996 0.53695 0.0421 2.5611-1.1221 5.7645-3.3152 1.88-1.2871 2.0398-1.4426 2.3184-2.2571zm-10.197-6.5728c3.3283-3.5774 4.0387-6.9082 1.5646-7.3349-1.3123-0.22634-2.3824 0.1353-4.7894 1.6188-1.2407 0.76466-2.5628 1.5241-2.9378 1.6876-0.86209 0.37584-1.0722 1.2083-0.72247 2.8627 0.45295 2.1427 1.5726 3.7292 2.7785 3.9372 0.75696 0.13055 2.5032-1.0479 4.1067-2.7715z" stroke="url(#linearGradient30784)" stroke-width="1.35"/>
       <g transform="matrix(.79999 0 0 .8 -100.73 44.571)">
        <title>Ete Finger Light</title>
        <g transform="translate(91.521,-60.939)"></g>
       </g>
      </g>
     </g>
    </g>
   </g>
  </g>
 </g>
 <circle id="ng-et-finger-light" cx="151.86" stroke-dashoffset="0.27" stroke="#161616" cy="49.419" r="24.795" stroke-miterlimit="5.1" stroke-width=".40942" fill="url(#radialGradient31485)">
  <title>Et Finger Light</title>
 </circle>
</svg>
