<?xml version="1.0" encoding="UTF-8" standalone="no"?>
<svg xmlns:rdf="http://www.w3.org/1999/02/22-rdf-syntax-ns#" xmlns="http://www.w3.org/2000/svg" height="100%" width="100%" version="1.1" preserveAspectRatio="xMinYMin slice" xmlns:cc="http://creativecommons.org/ns#" xmlns:xlink="http://www.w3.org/1999/xlink" viewBox="0 0 680.00001 480" xmlns:dc="http://purl.org/dc/elements/1.1/">
 <metadata>
  <rdf:RDF>
   <cc:Work rdf:about="">
    <dc:format>image/svg+xml</dc:format>
    <dc:type rdf:resource="http://purl.org/dc/dcmitype/StillImage"/>
    <dc:title/>
   </cc:Work>
  </rdf:RDF>
 </metadata>
 <defs>
  <clipPath id="bq">
   <rect opacity=".84685" stroke-opacity=".98551" height="35.931" width="33.567" stroke="#d9cbd1" y="-135.81" x="503.9" stroke-width=".2" fill="#917c6f"/>
  </clipPath>
  <clipPath id="bp">
   <rect opacity=".84685" stroke-opacity=".98551" height="44.042" width="8.5833" stroke="#d9cbd1" y="-187.38" x="492.87" stroke-width=".12673" fill="#917c6f"/>
  </clipPath>
  <style type="text/css"><![CDATA[
    .fil0 {fill:#1F1A17}
   ]]></style>
  <radialGradient id="s-2" gradientUnits="userSpaceOnUse" cy="208.52" cx="28.945" gradientTransform="matrix(1.9184 0 0 2.9865 60.875 -626.76)" r="6.3794">
   <stop stop-color="#0099c7" offset="0"/>
   <stop stop-color="#009b89" stop-opacity="0" offset="1"/>
  </radialGradient>
  <radialGradient id="radialGradient21824" xlink:href="#s-2" gradientUnits="userSpaceOnUse" cy="-112.65" cx="51.19" gradientTransform="matrix(1 0 0 .98788 14.232 12.679)" r="9.0345"/>
  <radialGradient id="radialGradient23351" xlink:href="#s-2" gradientUnits="userSpaceOnUse" cy="-112.65" cx="51.19" gradientTransform="matrix(1 0 0 .98788 255.31 12.898)" r="9.0345"/>
  <radialGradient id="radialGradient4845-5" gradientUnits="userSpaceOnUse" cy="717.25" cx="482.53" gradientTransform="matrix(-.010606 1.6476 -1.0899 -.0037259 -27.975 -474.28)" r="51.448">
   <stop stop-color="#8e3000" offset="0"/>
   <stop stop-opacity=".41429" stop-color="#f00" offset=".55249"/>
   <stop stop-color="#f57139" stop-opacity=".55714" offset=".65217"/>
   <stop stop-opacity=".28571" stop-color="#60cff6" offset=".79033"/>
   <stop stop-opacity="0" offset="1"/>
  </radialGradient>
  <radialGradient id="radialGradient4847-7" gradientUnits="userSpaceOnUse" cy="719.74" cx="473.45" gradientTransform="matrix(-.0073442 1.0249 -1.0367 .011381 -64.196 -164.95)" r="51.448">
   <stop stop-opacity="0" stop-color="#1cdff6" offset="0"/>
   <stop stop-opacity=".50952" stop-color="#89cbf3" offset=".57378"/>
   <stop stop-opacity=".34762" stop-color="#60cff6" offset=".76995"/>
   <stop stop-opacity="0" offset="1"/>
  </radialGradient>
 </defs>
 <g transform="translate(-245.83,57.22)">
  <title>Layer 1</title>
 </g>
 <text style="word-spacing:0px;letter-spacing:0px" xml:space="preserve" font-size="40px" y="434.67395" x="1407.2291" line-height="125%"><tspan y="434.67395" x="1407.2291"/></text>
 <text style="word-spacing:0px;letter-spacing:0px" xml:space="preserve" font-size="13px" y="737.32385" x="1303.7273" line-height="125%"><tspan y="737.32385" x="1303.7273"/></text>
 <text style="word-spacing:0px;letter-spacing:0px" xml:space="preserve" font-size="6px" y="747.5575" x="1302.4314" line-height="125%"><tspan y="747.5575" x="1302.4314"/></text>
 <text font-size="40px" xml:space="preserve" style="word-spacing:0px;letter-spacing:0px" y="-246.88983" x="609.67181" font-family="Sans" line-height="125%" fill="#000000"><tspan y="-246.88983" x="609.67181"/></text>
 <text font-size="18px" font-family="Sans" xml:space="preserve" style="word-spacing:0px;letter-spacing:0px" y="100.63757" x="961.0603" font-weight="bold" line-height="125%" fill="#000000"><tspan y="100.63757" x="961.0603"/></text>
 <g transform="matrix(.96 0 0 .96 342.25 -210.41)">
  <text font-size="32.49px" xml:space="preserve" style="word-spacing:0px;letter-spacing:0px" transform="rotate(-90)" y="-740.2641" x="73.980637" line-height="125%"><tspan y="-740.2641" x="73.980637"/></text>
  <text font-size="10.559px" xml:space="preserve" style="word-spacing:0px;letter-spacing:0px" transform="rotate(-90)" y="-494.43677" x="-10.088734" line-height="125%"><tspan y="-494.43677" x="-10.088734"/></text>
  <text font-size="4.8735px" xml:space="preserve" style="word-spacing:0px;letter-spacing:0px" transform="rotate(-90)" y="-486.12445" x="-11.141315" line-height="125%"><tspan y="-486.12445" x="-11.141315"/></text>
  <g transform="matrix(-.20203 -.02302 .02302 -.20203 -420.8 439.17)">
   <text stroke-linejoin="round" style="word-spacing:0px;letter-spacing:0px" font-weight="100" fill="#a42b23" stroke-opacity=".98551" xml:space="preserve" font-size="41.822px" transform="rotate(173.51)" stroke="#e5e5e5" stroke-dasharray="31.09136276, 2.5909469" y="-532.00525" x="110.77794" font-family="Skia" line-height="125%" stroke-width="2.5909"><tspan y="-532.00525" x="110.77794" stroke-width="2.5909"/></text>
   <text font-size="61.474px" xml:space="preserve" style="word-spacing:0px;letter-spacing:0px" transform="matrix(-.99357 .1132 -.1132 -.99357 0 0)" y="-407.83047" x="134.32643" font-family="sans-serif" line-height="125%" fill="#000000"><tspan y="-407.83047" x="134.32643"/></text>
  </g>
  <g transform="translate(-581.43,229.79)">
   <g transform="matrix(1.44,0,0,1.44,-170.44,197.59)">
    <g transform="translate(.28545 190.28)">
     <g transform="translate(-82.472,-53.675)">
      <rect ry="2.1278" stroke-opacity=".99216" transform="matrix(1,-8.9454e-5,7.8772e-5,1,0,0)" height="111.76" width="31.176" stroke="#909090" stroke-miterlimit="2.0952" y="-222.6" x="716.35" stroke-width=".39062" fill="none"/>
      <g transform="matrix(0.9,-7.559e-5,7.559e-5,0.9,266.72,-44.585)" fill="#8b4383">
       <path clip-path="url(#bq)" d="m505.14-118.84c0.5235-5.0979 3.622-9.5701 8.2306-11.88 1.3112-0.65709 2.9392-1.1643 4.4913-1.3993 1.0712-0.16219 3.1353-0.16219 4.2065 0 5.4658 0.82761 9.956 4.4668 11.886 9.6331 0.30254 0.80988 0.66794 2.2449 0.73974 2.9052 0.0269 0.24774 0.083 0.49327 0.12468 0.54561 0.11092 0.13947 0.10219 3.1825-0.009 3.2942-0.0468 0.0468-0.0854 0.18471-0.0857 0.30639-0.00031 0.12168-0.0803 0.60458-0.1778 1.0731-0.58346 2.8045-2.0091 5.4291-4.0669 7.4872-2.0668 2.0671-4.7033 3.4903-7.5286 4.0638-4.9226 0.99933-9.9422-0.51347-13.495-4.0672-1.2243-1.2245-2.0471-2.3771-2.8735-4.0251-1.1843-2.3618-1.7142-5.2803-1.4414-7.9375zm2.9928 3.519c0.81154 4.3876 3.8328 7.8874 8.0382 9.3115 3.2567 1.1028 7.0184 0.70099 9.9227-1.0599 3.2558-1.9741 5.3081-5.1381 5.8064-8.9517 0.10727-0.82098 0.0547-2.5899-0.10221-3.4364-0.56841-3.0672-2.1998-5.6958-4.6872-7.5524-1.2949-0.96647-2.8045-1.6688-4.3975-2.0459-4.8726-1.1533-9.9593 0.85614-12.731 5.0294-1.0118 1.5232-1.6334 3.1369-1.9124 4.9643-0.12834 0.84071-0.0935 2.8922 0.0635 3.7411zm4.6523-2.4672h2.2922l-0.0219 0.38082-0.0219 0.38081h-4.4966l-0.0219-0.38081-0.0219-0.38082h2.2922zm-0.21411-5.1138c0.49813-0.67821 0.93361-1.2426 0.96774-1.2542 0.0696-0.0237 4.5988 3.2418 4.8401 3.4895 0.0848 0.0871 0.20721 0.31921 0.27193 0.51575 0.13693 0.41581 0.18665 0.30496-0.66125 1.4742l-0.53917 0.7435h-0.91238l-2.4197-1.7607c-1.3308-0.96839-2.4272-1.8089-2.4363-1.8678-0.009-0.0589 0.39094-0.66201 0.88907-1.3402zm-0.67433 9.4414c0.12964-0.0974 1.229-0.89878 2.4431-1.7808l2.2074-1.6038h0.40785c0.22432 0 0.458 0.0408 0.5193 0.0907 0.0959 0.078 1.1139 1.464 1.245 1.6951 0.0253 0.0447-0.0193 0.27316-0.0992 0.50776l-0.14525 0.42654-2.4023 1.7409c-1.3213 0.95748-2.4416 1.7505-2.4896 1.7622-0.0884 0.0217-1.922-2.4448-1.922-2.5854 0-0.0419 0.10607-0.1559 0.23571-0.2533zm5.5288 2.9581c0.36552-1.1194 0.68796-2.0731 0.71653-2.1194 0.0848-0.13717 0.74125 0.13899 0.71307 0.29997-0.0277 0.15835-1.3172 4.1304-1.3523 4.1655-0.0452 0.0452-0.61949-0.15014-0.68176-0.23192-0.0349-0.0459 0.21823-0.93132 0.60448-2.1142zm-0.43812-15.988c0.0974-0.037 0.26872-0.077 0.38076-0.0889l0.2037-0.0215 0.66391 1.9948c0.36516 1.0971 0.66705 2.0657 0.67087 2.1523 0.005 0.11837-0.0561 0.17838-0.24631 0.24117-0.13929 0.046-0.30667 0.073-0.37197 0.06-0.0863-0.0171-0.30409-0.59508-0.79837-2.1189-0.37381-1.1524-0.67966-2.108-0.67966-2.1235s0.0797-0.0584 0.17707-0.0954zm3.5017 2.5916c0.726-2.2166 0.94636-2.8108 1.0423-2.8108 0.16843 0 3.0392 0.93781 3.0392 0.99283 0 0.0245-0.42317 1.3382-0.94037 2.9194l-0.94038 2.8748-0.33095 0.23331c-0.18202 0.12832-0.38806 0.23331-0.45787 0.23331-0.0698 0-0.55025-0.14064-1.0676-0.31253-0.89197-0.29633-0.94749-0.32616-1.0715-0.57581-0.25824-0.52-0.24411-0.58909 0.72718-3.5545zm-0.80947 9.6566c0.0568-0.18438 0.14425-0.36881 0.1944-0.40985 0.0983-0.0804 1.9222-0.66937 2.073-0.66937 0.0502 0 0.23611 0.10608 0.41319 0.23574l0.32195 0.23574 0.9492 2.8904c0.52205 1.5897 0.93097 2.9086 0.90871 2.9309-0.0906 0.0907-3.0533 1.0244-3.0982 0.97643-0.0649-0.0694-1.877-5.657-1.8706-5.7679 0.003-0.0478 0.0515-0.23776 0.10827-0.42214zm3.2881-4.5193 0.35529-0.26085 3.0716 0.0189 3.0716 0.0189v3.1916l-3.0824 0.0168-3.0824 0.0168-0.3445-0.25325-0.3445-0.25324v-2.2348l0.3553-0.26084zm1.2248 4.3668c0.10822-0.14858 0.22345-0.27099 0.25608-0.27201 0.13614-0.004 3.6031 2.5743 3.6013 2.6785-0.001 0.0618-0.0931 0.2222-0.20443 0.35648l-0.20249 0.24414-1.8263-1.323c-1.0045-0.72764-1.8251-1.3434-1.8236-1.3684 0.001-0.025 0.0912-0.16703 0.19945-0.31562zm1.6037-7.5804c0.95054-0.68736 1.7762-1.2682 1.8348-1.2907 0.069-0.0265 0.17908 0.0637 0.31215 0.25573 0.17679 0.25514 0.19115 0.31057 0.1027 0.39624-0.0844 0.0817-2.3997 1.7735-3.3222 2.4275l-0.24581 0.17427-0.20553-0.24788c-0.11304-0.13633-0.20527-0.29683-0.20496-0.35668 0.00029-0.0598 0.77828-0.67119 1.7288-1.3586z" transform="translate(-2.9642,-54.606)"/>
       <path clip-path="url(#bp)" d="m493.37-185.19c0.0468-0.35148 0.37525-0.9937 0.66216-1.2948 0.29576-0.31038 0.84503-0.59301 1.2698-0.65336 0.22983-0.0327 0.27094-0.0202 0.23571 0.0717-0.0235 0.0612-0.0428 0.37784-0.0429 0.70371l-0.00029 0.59249-0.32111 0.13206c-0.38456 0.15816-0.56844 0.41203-0.56844 0.78482 0 0.31443 0.15198 0.58331 0.43444 0.76858 0.17372 0.11394 0.44026 0.13036 2.4346 0.14998 1.6386 0.0161 2.2671-0.00085 2.3423-0.0633 0.0601-0.0498 0.1028-0.21733 0.1028-0.40285v-0.31753h1.0154v2.9014h-1.0154l-0.001-0.30828c-0.00058-0.16955-0.0253-0.34631-0.0549-0.3928-0.0386-0.0607-0.72767-0.0914-2.4466-0.10881l-2.3929-0.0243-0.41516-0.20389c-0.46411-0.22794-0.87901-0.66362-1.0075-1.0579-0.0469-0.1438-0.10828-0.27778-0.13651-0.29773-0.0679-0.048-0.1311-0.7038-0.0944-0.97924zm-0.001 6.093c0.0299-0.23335 0.0505-0.28828 0.34432-0.91958 0.25298-0.54353 0.9087-1.1545 1.4608-1.3611 1.7592-0.65831 3.5934 0.34349 3.9502 2.1576 0.0679 0.34501 0.0695 0.54949 0.007 0.86147-0.0927 0.46148-0.37829 0.99794-0.59231 1.1125-0.0785 0.042-0.14278 0.14055-0.14278 0.21894 0 0.1207 0.0503 0.14252 0.32854 0.14252h0.32853l-0.0203 0.92484-0.0203 0.92484-0.48735 0.0214c-0.53088 0.0233-0.52155 0.0312-0.58023-0.49289l-0.0203-0.18134h-3.2636l-0.0363 0.32642-0.0363 0.32641h-1.0154l-0.0203-0.92484-0.0203-0.92484h0.28799c0.15839 0 0.30876-0.0336 0.33415-0.0747 0.0254-0.0411-0.0566-0.19177-0.18224-0.33486-0.12562-0.14309-0.28317-0.37877-0.35011-0.52373-0.067-0.14495-0.14139-0.27988-0.16542-0.29983-0.0615-0.051-0.12135-0.7182-0.0879-0.97924zm1.3847 1.2878c0.7693 1.4377 2.947 1.1134 3.2794-0.48843 0.28704-1.3828-1.2415-2.5791-2.4913-1.9498-0.94671 0.47668-1.2823 1.5148-0.78812 2.4382zm-1.384 5.2948c0.0172-0.12966 0.0619-0.23575 0.0992-0.23575 0.0374 0 0.0679-0.0444 0.0679-0.0987s0.0816-0.21893 0.18131-0.3659c0.22644-0.33372 0.22605-0.3789-0.004-0.43657-0.17264-0.0433-0.18356-0.0718-0.16318-0.42495l0.0218-0.3785h1.4505l0.0186 0.50775c0.0206 0.56191 0.004 0.60425-0.30712 0.7635-0.27727 0.1421-0.54558 0.54063-0.54558 0.81036 0 0.47415 0.35872 0.85611 0.80403 0.85611 0.40739 0 0.58193-0.23154 0.85827-1.1386 0.28695-0.94186 0.4369-1.2503 0.72604-1.4937 0.3144-0.26459 0.68472-0.36677 1.1538-0.31835 0.53651 0.0554 0.92039 0.32834 1.193 0.84826 0.19124 0.36474 0.20652 0.44982 0.18446 1.0264-0.0199 0.52148-0.0529 0.66773-0.19309 0.85728-0.1783 0.24106-0.1669 0.43619 0.0255 0.43619 0.093 0 0.11068 0.0725 0.0929 0.38082l-0.0219 0.38081h-1.3055l-0.0212-0.52242c-0.021-0.51656-0.0188-0.52369 0.19822-0.63592 0.39914-0.20643 0.54631-0.70955 0.32995-1.128-0.12747-0.24654-0.31145-0.36123-0.57946-0.36123-0.43842 0-0.56781 0.18336-0.8661 1.2274-0.24219 0.84768-0.3958 1.1537-0.72364 1.4416-0.45371 0.39841-1.3381 0.41952-1.8714 0.0447-0.53986-0.37948-0.90223-1.3004-0.80373-2.0427zm-0.003 25.623c0.0165-0.11969 0.0589-0.28289 0.0942-0.36268 0.0353-0.0798 0.14687-0.33341 0.24793-0.5636 0.22681-0.51663 0.76499-1.0566 1.3274-1.3318 0.33737-0.16508 0.53616-0.20799 1.071-0.23116 1.0589-0.0459 1.786 0.24723 2.4309 0.98002 0.44443 0.50497 0.61429 1.0108 0.61641 1.8356 0.002 0.62117-0.0202 0.73558-0.22155 1.1606-0.37346 0.78846-0.78003 1.1338-1.8789 1.5958-0.21396 0.09-0.82282 0.15064-1.0186 0.1015l-0.17025-0.0427-0.006-2.2219c-0.003-1.222-0.0329-2.2489-0.066-2.282-0.19416-0.19419-0.98059 0.38798-1.2355 0.91456-0.30007 0.61995-0.14734 1.5679 0.32395 2.0107 0.15917 0.14955 0.17766 0.22598 0.17766 0.73456 0 0.31221-0.0294 0.56765-0.0652 0.56765-0.0359 0-0.23565-0.12806-0.44392-0.28457-0.42361-0.31834-0.8206-0.83317-0.94817-1.2296-0.0465-0.14462-0.10934-0.29559-0.13957-0.33548-0.0728-0.0961-0.13386-0.74138-0.0961-1.0155zm3.4628 2.0384c0.13761 0.0528 0.61514-0.2008 0.85494-0.45405 0.47654-0.50327 0.63592-1.4095 0.35622-2.0254-0.237-0.52189-0.91676-1.0574-1.2028-0.94765-0.15824 0.0607-0.16628 3.3665-0.008 3.4271zm-3.2446-24.803c0.0839-0.0839 0.8615-0.0523 0.95251 0.0387 0.0479 0.0479 0.087 0.20728 0.087 0.35423 0 0.21575 0.0314 0.27559 0.16318 0.31091 0.2125 0.057 2.7973 0.057 3.0098 0 0.13255-0.0355 0.16318-0.0949 0.16318-0.31654 0-0.36696 0.12036-0.44765 0.62848-0.42131l0.42315 0.0219v1.7409l-0.3445 0.0221c-0.18947 0.0122-0.3445 0.046-0.3445 0.0752s0.14574 0.2074 0.32386 0.39599c0.32515 0.34426 0.55019 0.874 0.54327 1.2789-0.008 0.47386-0.3797 1.1279-0.81273 1.4305-0.14959 0.10452-0.26998 0.22639-0.26754 0.27084 0.002 0.0444 0.14058 0.17969 0.30698 0.30056 0.45276 0.32885 0.74169 0.93905 0.73505 1.5524-0.009 0.7887-0.3724 1.4265-1.0102 1.7707-0.2654 0.14323-0.41366 0.15822-1.7406 0.17601-0.79778 0.0107-1.5221 0.0353-1.6096 0.0547-0.12833 0.0285-0.16333 0.0947-0.18131 0.34324l-0.0223 0.30794-0.52581 0.0213-0.52581 0.0213v-2.5514l0.52581 0.0213 0.52581 0.0213 0.0223 0.30794c0.0287 0.3972 0.0795 0.40961 1.4981 0.36649 1.241-0.0377 1.4526-0.10594 1.7676-0.56955 0.22619-0.33299 0.20095-1.007-0.051-1.3609-0.32823-0.46102-0.58371-0.52715-1.9502-0.50478l-1.2143 0.0199-0.0363 0.32641-0.0363 0.32642h-1.0154l-0.0198-1.2907-0.0198-1.2907 0.5275 0.0213 0.5275 0.0213 0.0363 0.32642 0.0363 0.32641 1.1242 0.0221c0.69765 0.0137 1.2342-0.01 1.4143-0.0613 0.5294-0.15213 0.83405-0.56172 0.83405-1.1214 0-0.40602-0.14052-0.69554-0.45321-0.93377-0.35827-0.27295-0.78042-0.34403-1.9039-0.32056l-1.0154 0.0212-0.0363 0.32642-0.0363 0.32641-0.52581 0.0213-0.52581 0.0213v-1.2605c0-0.69326 0.0218-1.2822 0.0483-1.3088zm0.0504 10.354c0.0543-0.0209 0.29094-0.028 0.52581-0.0159l0.42703 0.022 0.0363 0.32642 0.0363 0.32641h3.2636l0.0203-0.18134c0.0587-0.52412 0.0494-0.51619 0.58024-0.49288l0.48735 0.0214 0.0203 0.92378 0.0203 0.92377-2.1961 0.0192-2.1961 0.0192-0.0363 0.32641-0.0363 0.32642-0.52581 0.0213-0.52581 0.0213v-1.2748c0-1.0089 0.0206-1.2828 0.0988-1.3128zm0.42703 3.1765 0.52582 0.0213 0.0235 0.28921c0.0129 0.15906 0.0619 0.31361 0.10879 0.34343 0.11126 0.0708 3.0328 0.0708 3.1441 0 0.0469-0.0298 0.0959-0.18437 0.10879-0.34343l0.0235-0.28921 0.52582-0.0213 0.52581-0.0213v1.8198l-0.23571 0.001c-0.4252 0.002-0.4727 0.0977-0.20173 0.40632 0.73329 0.83529 0.70581 2.0893-0.0625 2.8545-0.4618 0.45987-0.68308 0.5098-2.2644 0.51097-0.73332 0.00058-1.4068 0.0207-1.4965 0.0447-0.13255 0.0355-0.16318 0.0949-0.16318 0.31654 0 0.36697-0.12037 0.44765-0.62849 0.42131l-0.42314-0.0219-0.0198-1.2907-0.0198-1.2907 0.5275 0.0214 0.5275 0.0213 0.0235 0.28921c0.0129 0.15906 0.0619 0.31361 0.10879 0.34343 0.13165 0.0838 2.0491 0.0662 2.3991-0.0219 0.78917-0.19874 1.1469-1.0964 0.75037-1.8829-0.27027-0.53605-0.56817-0.65097-1.8189-0.70165-1.3438-0.0545-1.4119-0.0375-1.4406 0.36021l-0.0223 0.30794-0.52581 0.0213-0.52581 0.0213v-2.5514l0.52581 0.0213zm5.8097-2.4509c0.0541-0.0208 0.307-0.0279 0.56208-0.0159l0.46377 0.0219 0.0212 0.56215 0.0212 0.56216h-1.1665v-0.5463c0-0.39277 0.0276-0.5569 0.0983-0.58402z" transform="matrix(1.6105,0,0,1.6105,-283.65,147.91)"/>
      </g>
     </g>
     <g stroke-miterlimit="2.6667" transform="matrix(.86227 .060187 -.060187 .86227 283.14 -151.85)">
      <rect transform="matrix(.99777 -.06673 .074521 .99722 0 0)" stroke-opacity=".99356" ry="1.7749" height="155.69" width="32.872" stroke="#909090" stroke-miterlimit="2.0952" y="-141.24" x="479.84" stroke-width=".45193" fill="none"/>
      <g stroke="#000" stroke-width=".5" transform="matrix(.99901 .044558 -.044558 .99901 -16.163 -26.05)" stroke-opacity=".96135">
       <g stroke-opacity=".96135" transform="translate(-228.33,95.611)" stroke="#000" stroke-miterlimit="2.6667" stroke-width=".5">
        <path d="m711.72-244.75c0.20659-3.3717 1.142-5.8054 3.1567-8.2131 1.3242-1.5826 2.8044-2.6869 4.8874-3.6465 0.95301-0.43902 1.4498-0.57255 3.124-0.83975 1.2906-0.20599 2.341-0.30044 2.9865-0.26857 5.5643 0.27471 10.379 3.9869 11.989 9.2435 2.0606 6.7284-1.7317 13.96-8.5128 16.234-2.402 0.80533-4.6305 0.95959-7.0032 0.48476-4.2981-0.86012-7.8083-3.671-9.5819-7.6729-0.43359-0.97835-0.5639-1.4832-0.79296-3.0718-0.15075-1.0456-0.2645-2.0578-0.25276-2.2493zm12.175 10.199 1.0797-0.0946-0.0823-0.67541c-0.0962-0.78988-0.0356-1.1186 0.21195-1.1495 0.24713-0.0309 0.38523 0.27274 0.48079 1.0571l0.0816 0.66969 0.53256-0.0666c0.79463-0.0994 2.4541-0.78292 3.3925-1.3974 0.99654-0.6526 2.163-1.727 2.1339-1.9656-0.0115-0.0947-0.29978-0.38031-0.64053-0.63468-0.34075-0.25436-0.62923-0.54196-0.64107-0.6391-0.0423-0.34735 0.46468-0.22759 1.13 0.26692l0.67664 0.50292 0.47431-0.68138c0.91724-1.3177 1.5843-3.747 1.474-5.3683l-0.0466-0.68537-0.90976 0.0446c-0.68427 0.0336-0.91593-0.006-0.93465-0.15961-0.0187-0.15362 0.1965-0.24906 0.86829-0.38505l0.89317-0.18079-0.11929-0.67628c-0.28209-1.5992-1.4986-3.7619-2.7243-4.8433l-0.61757-0.54486-0.53563 0.65449c-0.51982 0.63518-0.98964 0.88536-1.0306 0.54882-0.0111-0.0908 0.21173-0.46219 0.4951-0.82537 0.63499-0.81382 0.59031-0.88948-0.97882-1.6577-1.3041-0.63849-3.041-1.0274-4.3893-0.98298l-0.89611 0.0296 0.084 0.68938c0.0979 0.80331 0.0384 1.1324-0.21025 1.1635-0.24712 0.0309-0.38523-0.27274-0.48079-1.0571l-0.0816-0.66969-1.017 0.12717c-0.55938 0.0699-1.054 0.17367-1.0992 0.23052-0.0452 0.0568 0.46443 4.4565 1.1325 9.777l1.2148 9.6737 1.0797-0.0946zm-0.47058-16.216c0.0869-0.17973 0.24585-0.20355 1.0608-0.159 1.3152 0.0719 2.3599 0.43775 3.453 1.2093 1.5979 1.1278 2.4176 2.4896 2.6508 4.4041 0.23207 1.9048-0.23613 3.4398-1.4948 4.9008-0.87133 1.0114-1.8528 1.6641-3.0793 2.0478-0.77916 0.24375-0.93903 0.25977-1.0665 0.10686-0.0842-0.10097-0.47373-2.8376-0.88817-6.2392-0.41445-3.4016-0.69341-6.1521-0.63601-6.2707z" fill="#e03136"/>
        <path d="m715.97-248.54c2.241-2.8222 4.1226-5.1374 4.1814-5.1447 0.0587-0.007 0.63658 4.335 1.2841 9.6496l1.1773 9.6629 0.31517 0.1186c0.32486 0.12226 1.9871-0.12333 2.1406-0.31625 0.0463-0.0582 0.0818-0.49528 0.079-0.97134-0.005-0.78846 0.003-0.81121 0.0904-0.25543 0.19478 1.2441 0.22024 1.264 1.3265 1.0362 0.95558-0.19675 2.4313-0.82572 3.2793-1.3977 0.23504-0.15853 0.46985-0.25569 0.52182-0.21592 0.12175 0.0932-3.0833 4.1526-3.5125 4.4489-0.2535 0.17497-0.61247 0.23186-1.6318 0.25861-6.3463 0.16653-11.954-4.2985-13.081-10.416l-0.24444-1.3264 4.0746-5.1313zm7.0769-5.0556c0.0571 0.20299 0.0936 0.50947 0.0811 0.68106s-0.0592 0.005-0.10381-0.36908c-0.0445-0.37459-0.0343-0.51498 0.0227-0.31199zm1.1193 2.7932c3.3427 0.0884 5.8792 2.3176 6.268 5.5087 0.3872 3.178-1.5505 5.9831-4.7577 6.8874l-0.57852 0.16312-0.76606-6.2875-0.76605-6.2875 0.60033 0.0159zm6.597 11.274c0.17548-0.0219 1.3203 0.83844 1.3409 1.0078 0.0345 0.28299-1.0562-0.31036-1.3659-0.74308-0.13103-0.18309-0.12511-0.24592 0.0249-0.26469zm2.3588-6.2392c0.34325-0.0429 0.63155-0.0168 0.64068 0.0581 0.009 0.0749-0.26425 0.17128-0.6075 0.2142-0.34326 0.0429-0.63156 0.0168-0.64069-0.0581-0.009-0.0749 0.26425-0.17128 0.60751-0.2142z" fill="#b42d30"/>
       </g>
      </g>
      <text style="word-spacing:0px;letter-spacing:0px" stroke-width="0" xml:space="preserve" font-size="18px" transform="rotate(85.437)" y="-494.82281" x="-94.844467" font-family="Sans" line-height="99.00000095%" fill="#ffffff"><tspan y="-494.82281" x="-94.844467" line-height="99.00000095%">Protractor</tspan><tspan y="-486.47589" x="-94.844467" font-size="6px" line-height="99.00000095%">      end to end testing for AngularJS</tspan></text>
     </g>
     <g transform="translate(21.913,-53.626)">
      <rect ry="1.1559" stroke-opacity=".99356" transform="matrix(-1,-9.9036e-4,-8.1592e-4,-1,0,0)" height="90.973" width="20.995" stroke="#909090" stroke-miterlimit="2.0952" y="111.48" x="-557.58" stroke-width=".39063" fill="none"/>
      <text font-size="14.704px" xml:space="preserve" style="word-spacing:0px;letter-spacing:0px" transform="matrix(.00037865 1.0213 -.97915 .017121 0 0)" stroke="#000000" y="-552.79449" x="-151.89803" stroke-width=".1" line-height="125%" fill="#1fc8ff"><tspan y="-552.79449" x="-151.89803" stroke="#000000" stroke-width=".1">CSS 3</tspan></text>
      <rect transform="rotate(-.10251)" height=".98" width="17" y="-173.21" x="538.28" stroke-width=".5" fill="#1fc8ff"/>
      <g stroke="#000" stroke-width=".1" stroke-miterlimit="0" transform="matrix(.99935 -.036152 .036152 .99935 63.191 -573.63)">
       <path d="m461.61 397.89c0.67898-2.036 1.0376-3.0304 1.1106-3.0791 0.0593-0.0395 0.17186-0.0693 0.25023-0.0662 0.0784 0.003 1.0562-0.0397 2.173-0.0951 7.7178-0.38299 12.352-0.6052 12.666-0.60737l0.36597-0.002-0.3886 7.5718-0.38861 7.5718-0.36423-0.0315c-0.20032-0.0173-2.0269-0.24719-4.059-0.51088-2.0321-0.26368-5.2993-0.68709-7.2604-0.9409-1.9611-0.25384-3.6021-0.49106-3.6466-0.52718-0.059-0.0479-1.0271-4.1996-1.4419-6.1835-0.0106-0.0507 0.432-1.4454 0.98357-3.0993zm3.2449 7.0162c0.05 0.0548 8.5458 1.1686 9.2862 1.2174l0.1823 0.012 0.21578-4.623c0.11868-2.5426 0.20673-4.6334 0.19568-4.6462-0.0111-0.0128-0.38844-0.003-0.83864 0.0206l-0.81853 0.0438-0.22311 3.5293c-0.12271 1.9411-0.23763 3.5426-0.25538 3.5588-0.0178 0.0162-0.43359-0.0196-0.92408-0.0797-0.70669-0.0865-0.9065-0.13098-0.96262-0.21443-0.0546-0.0811-0.033-0.84175 0.0938-3.312 0.0905-1.7637 0.15204-3.245 0.13671-3.2918-0.0235-0.0718-0.15917-0.0784-0.86671-0.0423-0.46135 0.0235-0.84127 0.044-0.84425 0.0454-0.003 0.001-0.0973 1.4308-0.20955 3.1764-0.12297 1.912-0.2288 3.1964-0.2662 3.2305-0.0749 0.0684-2.3022-0.20908-2.3822-0.29673-0.0721-0.079-0.48765-2.0028-0.47708-2.2088 0.01-0.18693 0.56896-1.9429 0.63888-2.0056 0.025-0.0224 0.34824-0.0607 0.71839-0.0852 0.37014-0.0245 0.69416-0.056 0.72004-0.0702 0.0259-0.0141 0.0659-0.39353 0.089-0.84312l0.0419-0.81745-0.31969-0.008c-0.17583-0.005-0.81377 0.0181-1.4176 0.0502l-1.098 0.0585-0.58546 1.757c-0.32201 0.96637-0.61508 1.8155-0.65128 1.8869-0.0511 0.10073 0.0294 0.5546 0.35869 2.0228 0.23349 1.0411 0.44187 1.9119 0.46309 1.9351z" fill="#a4cde9"/>
       <path d="m461.71 397.84c0.53241-1.5875 0.99307-2.9093 1.0237-2.9372 0.0403-0.0368 12.804-0.70206 15.134-0.78878l0.24436-0.009-0.38548 7.5109-0.38549 7.511-0.21208-0.0257c-3.0309-0.36784-14.987-1.9528-15.021-1.9914-0.0753-0.0841-1.3961-6.0382-1.3799-6.2206 0.008-0.0894 0.45004-1.4615 0.98244-3.049zm2.5886 5.2495c0.23177 1.03 0.44219 1.8954 0.4676 1.9233 0.0403 0.0442 2.8686 0.42861 6.5209 0.88641 0.6331 0.0793 1.5599 0.19735 2.0596 0.26221 0.61428 0.0797 0.94648 0.0998 1.0256 0.0618 0.1135-0.0544 0.12309-0.19931 0.3124-4.7194 0.10741-2.5648 0.1781-4.6836 0.15708-4.7083-0.047-0.0554-1.5754-0.00039-1.7546 0.0632-0.12845 0.0456-0.13127 0.074-0.34924 3.5274-0.12086 1.9148-0.23439 3.4949-0.2523 3.5112-0.0507 0.0463-1.6158-0.1633-1.671-0.22372-0.027-0.0295 0.009-1.5519 0.0805-3.383l0.12949-3.3293-0.18784-0.007c-0.55413-0.0214-1.5996 0.0716-1.6644 0.14817-0.0473 0.0558-0.13648 1.1089-0.27071 3.1955-0.11011 1.7117-0.21489 3.1256-0.23284 3.142-0.0511 0.0467-2.1571-0.23978-2.2082-0.30035-0.0251-0.0297-0.14783-0.51791-0.27272-1.0848l-0.22708-1.0308 0.29594-0.91664c0.16276-0.50415 0.32275-0.94662 0.35553-0.98327 0.0328-0.0367 0.34817-0.0748 0.70087-0.0847 0.43504-0.0123 0.67157-0.0458 0.73552-0.10413 0.0736-0.0672 0.10306-0.26169 0.13445-0.88756 0.0221-0.44084 0.0177-0.84121-0.01-0.88972-0.0429-0.0756-0.25322-0.0778-1.4712-0.0155-0.78162 0.04-1.4486 0.0978-1.4822 0.12846-0.0336 0.0307-0.31615 0.82276-0.6279 1.7602-0.31174 0.93743-0.59589 1.7581-0.63143 1.8237-0.0355 0.0656-0.0688 0.17399-0.074 0.24082-0.005 0.0668 0.18023 0.9642 0.412 1.9942z" fill="#68aedd"/>
       <path d="m461.77 397.87c0.5359-1.6043 0.98282-2.9251 0.99316-2.935 0.0162-0.0157 13.413-0.68585 14.809-0.74083l0.50405-0.0199-0.38172 7.4377-0.38172 7.4377-0.46967-0.056c-0.40788-0.0487-6.358-0.81879-12.698-1.6435-1.0956-0.14251-1.9985-0.26704-2.0066-0.27672-0.0404-0.0488-1.3623-6.08-1.3535-6.1754 0.006-0.0612 0.4488-1.4238 0.98471-3.0281zm0.84881 6.3412c0.19362 0.87917 0.37432 1.6596 0.40157 1.7343 0.0574 0.15744 0.11573 0.17174 1.2657 0.31049 0.44995 0.0543 1.1111 0.13711 1.4692 0.18406 0.88952 0.1166 1.8084 0.23582 2.7105 0.35168 0.41645 0.0535 1.1796 0.15381 1.6958 0.22294 0.90939 0.12179 1.5086 0.20008 2.9678 0.38777 0.38312 0.0493 0.99635 0.12976 1.3627 0.17886 0.36637 0.0491 0.91227 0.1049 1.2131 0.124l0.54698 0.0347 0.15918-3.1017 0.15919-3.1017-0.91118-0.0667-0.91118-0.0667 0.10357-2.3291c0.0892-2.0057 0.0911-2.3345 0.014-2.3678-0.11787-0.0509-1.7376 0.0327-1.8776 0.097-0.0996 0.0457-0.11922 0.23288-0.23909 2.2825l-0.13058 2.2327-0.85189-0.0339-0.85189-0.0339 0.0946-2.1566c0.0559-1.274 0.0718-2.1721 0.0388-2.1945-0.0891-0.0605-1.8438 0.0416-1.9378 0.11274-0.0681 0.0516-0.1062 0.47616-0.19081 2.1248l-0.10575 2.0603-1.3691-0.0545c-1.3185-0.0525-1.3689-0.0589-1.363-0.1735 0.0116-0.22669 0.52646-1.7188 0.61499-1.7824 0.0489-0.0351 0.36992-0.072 0.71335-0.082 0.34344-0.01 0.66095-0.0457 0.70558-0.0795 0.0595-0.045 0.094-0.31176 0.12923-0.99858 0.0425-0.8277 0.0362-0.94228-0.0538-0.98114-0.14842-0.0641-2.9372 0.0742-3.02 0.14978-0.0385 0.0351-0.34293 0.88193-0.67651 1.8817-0.33358 0.9998-0.62248 1.8411-0.64201 1.8695-0.0195 0.0284-0.45375 0.0351-0.96494 0.0147s-0.94399-0.0237-0.96179-0.007c-0.0178 0.0163 0.0516 0.39609 0.15432 0.84409 0.10267 0.448 0.3451 1.5339 0.53872 2.413z" fill="#3a99da"/>
      </g>
      <rect transform="matrix(-1 -.0010327 -.00078244 -1 0 0)" stroke-opacity=".99356" ry="1.2048" height="94.819" width="20.985" stroke="#909090" stroke-miterlimit="2.0952" y="111.72" x="-581.08" stroke-width=".39063" fill="none"/>
     </g>
     <g transform="matrix(.99792 -.064353 .064353 .99792 -41.708 11.153)">
      <g stroke-miterlimit="0">
       <rect ry="1.4461" stroke-opacity=".99356" transform="matrix(.068224 -.99767 .99767 .068224 71.441 -590.25)" height="20.839" width="120.11" stroke="#909090" stroke-miterlimit="2.0952" y="542.77" x="-442" stroke-width=".39063" fill="none"/>
       <rect transform="matrix(.99829 .058417 -.058417 .99829 71.441 -590.25)" height=".98" width="17" y="356.24" x="541.11" fill="#ffc300"/>
       <g stroke="#000" stroke-width=".1" transform="translate(-20.726 -.86148)">
        <path fill="#e9cf5a" d="m511.26 369.6c0.4642-1.8622 0.86943-3.4043 0.9005-3.4268 0.0311-0.0226 0.0981-0.0416 0.14902-0.0423 0.0911-0.001 14.105-1.4909 14.486-1.5399 0.10787-0.0138 0.27948-0.0409 0.38135-0.0602l0.18522-0.035 0.009 8.5074 0.009 8.5074-0.0981-0.0226c-0.0539-0.0124-0.24522-0.034-0.42504-0.048-1.442-0.11182-14.677-1.392-14.706-1.4225-0.0445-0.047-1.6849-6.6112-1.7141-6.8589-0.0147-0.12538 0.21145-1.1026 0.82369-3.5587zm7.851 2.7412 4.925-0.0293 0.0112-0.77841 0.0112-0.77842-3.8534 0.0229c-3.0296 0.018-3.863 0.01-3.8985-0.0386-0.0322-0.0439 0.0642-0.50857 0.33614-1.6205 0.20969-0.85742 0.3728-1.5756 0.36245-1.5959-0.0337-0.0662-1.617-0.0348-1.6565 0.0329-0.0525 0.09-1.1793 4.6544-1.1703 4.7405 0.007 0.0654 0.58747 0.0706 4.9327 0.0448zm-4.4436 3.7821c0.27648 1.1906 0.522 2.1781 0.54559 2.1944 0.0583 0.0405 4.7594 0.42838 4.7886 0.39509 0.0128-0.0145-0.0559-0.74324-0.15256-1.6193-0.0967-0.87607-0.16719-1.6207-0.15672-1.6547 0.0287-0.0934 2.5508-0.10424 2.6192-0.0113 0.0329 0.0447 0.0526 0.61823 0.0616 1.7911l0.0132 1.7253 0.80585 0.0781c0.56571 0.0548 0.82226 0.0625 0.86092 0.0259 0.0431-0.0408 0.0545-0.60888 0.0525-2.6119-0.001-1.4078-0.0145-2.5948-0.0291-2.6377-0.0239-0.0702-0.34869-0.0761-3.2257-0.059l-3.1991 0.019 0.00033 0.1359c0.00015 0.0747 0.10852 0.81274 0.24077 1.64 0.13225 0.82725 0.22503 1.5217 0.20618 1.5432-0.05 0.0571-1.3501-0.008-1.4239-0.0718-0.0344-0.0295-0.22378-0.74207-0.4209-1.5835-0.19711-0.84142-0.37762-1.5575-0.40114-1.5914-0.0315-0.0453-0.25914-0.0602-0.8656-0.0566-0.76622 0.005-0.82284 0.0111-0.82276 0.0947 0.00003 0.0494 0.2263 1.0639 0.50278 2.2545z" transform="matrix(.99818 .060293 -.060293 .99819 125.04 -620.12)"/>
        <path d="m613.16-220.37c0.56272-1.7931 1.0372-3.2745 1.0544-3.292s3.371-0.1853 7.4528-0.37294c4.0819-0.18763 7.4938-0.35984 7.5821-0.38268 0.0882-0.0228 0.17278-0.0409 0.18796-0.04 0.0152 0.00083-0.19783 3.7976-0.47337 8.4372l-0.50053 8.4358-0.12694-0.007c-0.0698-0.004-0.1324-0.0256-0.13904-0.0485-0.007-0.0228-0.61573-0.13427-1.3535-0.24753-0.73778-0.11329-1.8768-0.29011-2.5311-0.39292-0.65435-0.10284-1.6375-0.25675-2.1848-0.34206-6.4577-1.0065-8.6926-1.3654-8.7197-1.4001-0.0518-0.0663-1.2948-6.808-1.2822-6.9544 0.006-0.0729 0.47182-1.5998 1.0346-3.3929zm0.58145 6.3276c0.27271 1.5062 0.51749 2.7671 0.54393 2.8021 0.0327 0.0431 2.0811 0.381 6.3844 1.0528 3.4849 0.54409 6.3809 0.99168 6.4354 0.99464l0.0992 0.005 0.20377-3.4232c0.18279-3.0761 0.19646-3.4267 0.13617-3.457-0.0877-0.0441-14.133-0.80869-14.225-0.77449-0.0388 0.0144-0.0711 0.0341-0.0717 0.0438-0.00059 0.01 0.2221 1.2499 0.49482 2.756zm2.0529-3.319c0.0368 0.0186 2.2764 0.15403 4.9765 0.30099 4.1263 0.22469 4.9181 0.25679 4.9635 0.20182 0.0371-0.0449 0.0653-0.31956 0.0899-0.87356l0.036-0.80806-3.8722-0.2359c-3.8413-0.23403-3.8722-0.2359-3.8538-0.33354 0.0103-0.0539 0.22081-0.75098 0.46808-1.5491 0.39048-1.2604 0.44194-1.4609 0.39137-1.5253-0.0788-0.10044-1.6044-0.19149-1.7231-0.10308-0.0515 0.0385-0.31921 0.8363-0.80311 2.3937-0.39921 1.2849-0.72906 2.3724-0.73302 2.417-0.004 0.0445 0.023 0.096 0.0599 0.11462z" fill="#d5b931"/>
       </g>
      </g>
      <text font-size="13.122px" font-family="Sans" xml:space="preserve" style="word-spacing:0px;letter-spacing:0px" transform="rotate(93.457)" y="-582.24127" x="-229.50584" font-weight="bold" line-height="125%" fill="#ffc300"><tspan stroke-width=".1" stroke="#000000" y="-582.24127" x="-229.50584" font-weight="normal" fill="#ffc300">JAVASCRIPT</tspan></text>
     </g>
     <g transform="matrix(.99707 -.076549 .076549 .99707 281.72 -170.73)">
      <g stroke="#000" stroke-width=".1" transform="matrix(.98808 .15391 -.15391 .98808 -109.82 -516.86)">
       <path d="m483 390.87c0.79238-3.555 1.2945-5.7007 1.35-5.7689 0.048-0.059 2.4011-0.413 7.4741-1.1245 4.0723-0.57113 7.4824-1.0424 7.5781-1.0472l0.17398-0.009 0.34552 7.4959 0.34552 7.496-0.17216 0.009c-0.52071 0.0262-15.116-0.58062-15.171-0.63079-0.10995-0.0998-1.978-5.8344-1.9768-6.0683 0.00034-0.0642 0.0242-0.22263 0.0531-0.35208zm3.8429 2.1896c0.31285 0.94757 0.5955 1.7453 0.62811 1.7728 0.0465 0.0392 5.2657 0.27414 5.6022 0.25219 0.0642-0.004 0.0516-0.75246-0.0572-3.4032l-0.1394-3.3979 0.22991-0.0598c0.12645-0.0329 0.56444-0.0976 0.97331-0.14386l0.7434-0.0841 0.18179 3.5707 0.18179 3.5707 0.23657 0.0369c0.13011 0.0203 0.53445 0.0312 0.89854 0.0242l0.66198-0.0127-0.23608-4.6092c-0.12985-2.535-0.24499-4.6179-0.25588-4.6285-0.0256-0.0251-5.3255 0.71575-5.433 0.75947-0.0637 0.0259-0.0498 0.72184 0.0634 3.1781 0.1134 2.4602 0.12734 3.161 0.064 3.219-0.107 0.098-2.2404 0.0139-2.3635-0.0931-0.0479-0.0417-0.22952-0.52156-0.40354-1.0664l-0.31641-0.99066 0.22114-0.9884c0.12163-0.54363 0.24927-1.0194 0.28366-1.0573 0.0344-0.0379 0.33975-0.10989 0.67859-0.16006 0.33884-0.0502 0.65277-0.10635 0.69762-0.12487 0.1022-0.0422 0.0425-1.6678-0.0634-1.7263-0.0785-0.0433-2.6698 0.3008-2.7667 0.36743-0.0877 0.0604-0.89325 3.5518-0.88582 3.8395 0.003 0.12782 0.26197 1.0077 0.57482 1.9553z" fill="#ee8c6a"/>
       <path d="m483.03 390.98c0.0484-0.10353 0.37649-1.45 0.729-2.9922 0.35252-1.5422 0.65603-2.8206 0.67446-2.8409 0.0184-0.0203 3.3827-0.5084 7.4762-1.0847 4.0934-0.57626 7.4938-1.073 7.5564-1.1038 0.10796-0.0532 0.13139 0.32666 0.45993 7.4541 0.32854 7.1276 0.34015 7.5079 0.22778 7.4654-0.0651-0.0246-3.4955-0.17734-7.6232-0.33944-4.1276-0.16209-7.5206-0.30904-7.5398-0.32654-0.0193-0.0175-0.44399-1.282-0.94378-2.81s-0.92987-2.792-0.95572-2.809c-0.10934-0.0718-0.14541-0.43295-0.0612-0.61289zm3.6542 1.953c0.68264 2.0943 0.65196 2.0253 0.91262 2.0528 0.51397 0.0542 5.5886 0.21733 5.641 0.18129 0.0338-0.0232-0.007-1.4681-0.0973-3.4194-0.0857-1.8586-0.14844-3.3826-0.13949-3.3867 0.075-0.0346 1.6481-0.23978 1.672-0.21812 0.0171 0.0155 0.10359 1.6017 0.19223 3.5248 0.1253 2.7183 0.1803 3.5102 0.24708 3.5576 0.10092 0.0716 1.8256 0.14887 1.9172 0.0858 0.0394-0.0271-0.0176-1.7797-0.15412-4.7418-0.18638-4.0433-0.23025-4.7033-0.31445-4.7309-0.13047-0.0428-5.3811 0.68505-5.5684 0.77184l-0.14644 0.0679 0.14684 3.1855c0.11543 2.5043 0.1291 3.1864 0.0639 3.1895-0.45252 0.0217-2.1501-0.10581-2.1903-0.16456-0.0281-0.0411-0.18303-0.49768-0.34417-1.0147l-0.29299-0.94 0.2068-0.92405c0.11374-0.50822 0.23302-0.95926 0.26507-1.0023 0.0321-0.043 0.33471-0.11304 0.67259-0.15555 0.33788-0.0425 0.65578-0.10575 0.70646-0.14054 0.131-0.09 0.0976-1.7104-0.0387-1.8769-0.0905-0.11059-0.147-0.10744-1.5008 0.0838-0.80258 0.11336-1.4388 0.2333-1.4813 0.27924-0.0833 0.09-0.9269 3.6535-0.92359 3.9013 0.001 0.0869 0.24795 0.91221 0.54843 1.8341z" fill="#ef6428"/>
       <path d="m482.99 391.07c0.0128-0.092 0.0433-0.13114 0.0709-0.0909 0.0266 0.0388 0.34392-1.2364 0.70512-2.8339s0.67333-2.9254 0.69361-2.9509c0.0203-0.0255 3.3914-0.51602 7.4913-1.0901 4.5713-0.64008 7.4887-1.0752 7.543-1.1249 0.0755-0.0691 0.13972 1.0278 0.43487 7.4311 0.2943 6.3845 0.33199 7.5015 0.25112 7.4407-0.058-0.0435-3.034-0.18574-7.6117-0.36375-4.1341-0.16076-7.5355-0.31944-7.5587-0.35261-0.0232-0.0332-0.45451-1.3229-0.95848-2.8661-0.50398-1.5432-0.94007-2.7895-0.96909-2.7695-0.029 0.02-0.0541 0.007-0.0558-0.0285-0.002-0.0356-0.0155-0.10404-0.0309-0.15197-0.0154-0.0479-0.0178-0.15982-0.005-0.24866zm2.0618 2.5796c0.42354 1.2903 0.79477 2.3674 0.82495 2.3935 0.0853 0.0738 12.953 0.5545 13.015 0.48621 0.0301-0.0331-0.015-1.4013-0.10005-3.0404l-0.15468-2.9802-0.84647 0.024-0.84646 0.024-0.10515-2.2812c-0.0578-1.2546-0.12544-2.3275-0.15024-2.3841-0.0314-0.0715-0.13116-0.0986-0.32738-0.0887-0.42764 0.0215-5.3806 0.72507-5.4524 0.77446-0.0383 0.0264-0.0266 0.82449 0.0302 2.057 0.0511 1.1076 0.0769 2.062 0.0574 2.1209-0.0307 0.0926-0.21288 0.11589-1.3548 0.17341-1.1686 0.0589-1.3199 0.0543-1.3243-0.0403-0.004-0.0949 0.36715-1.8498 0.39859-1.8828 0.007-0.007 0.31642-0.059 0.68776-0.11501 0.37135-0.056 0.70483-0.12222 0.74108-0.14716 0.04-0.0275 0.0486-0.42126 0.0218-1.001-0.0389-0.84364-0.058-0.96178-0.16281-1.0082-0.17054-0.0755-2.8691 0.31399-2.9753 0.42942-0.0669 0.0727-0.38598 1.3685-0.90949 3.6932l-0.0568 0.2522-0.84858 0.0427c-0.70525 0.0355-0.9359 0.0711-0.93255 0.14378 0.0002 0.005 0.34691 1.0639 0.77045 2.3542zm8.0204-5.2531c0.1963-0.0772 1.5328-0.23957 1.5846-0.19251 0.0315 0.0286 0.0738 0.58757 0.094 1.2421l0.0367 1.1901-0.78972 0.0586c-0.58726 0.0436-0.80458 0.0375-0.84765-0.0238-0.10033-0.14272-0.17208-2.2374-0.0779-2.2745z" fill="#e34d25"/>
      </g>
      <text style="word-spacing:0px;letter-spacing:0px" font-family="Sans" xml:space="preserve" font-size="14.192px" transform="matrix(-.10263 1.0887 -.91209 -.068544 0 0)" stroke="#000000" y="-332.59454" x="-51.314175" stroke-width=".1" line-height="125%" fill="#ff6600"><tspan y="-332.59454" x="-51.314175" stroke="#000000" stroke-width=".1">HTML 5</tspan></text>
      <rect transform="rotate(4.5266)" height=".98" width="17" stroke-miterlimit="0" y="-64.397" x="301.26" stroke-width="0" fill="#f60"/>
     </g>
     <g transform="matrix(.882 0 0 .882 134.06 -598.49)">
      <g transform="matrix(.99999 0 0 1 -1.4729 -.38439)">
       <rect ry="1.6547" stroke-opacity=".99356" transform="rotate(90)" height="30.879" width="121.09" stroke="#909090" y="-566.54" x="371.32" stroke-width=".53735" fill="none"/>
       <text style="word-spacing:0px;letter-spacing:0px" font-family="Sans" xml:space="preserve" font-size="18.77px" transform="matrix(.00034291 .97703 -1.0235 .00027306 0 0)" stroke="#000000" y="-529.50061" x="418.75555" stroke-width=".53734" line-height="125%" fill="#000000"><tspan font-size="22.941px" style="letter-spacing:1.7206px" stroke="#000000" y="-529.50061" x="418.75555" stroke-width=".53734" fill="#b3b3b3">ARMA</tspan></text>
       <g transform="matrix(-.001003 .095855 -.10042 -.00096311 575.34 317.85)">
        <path d="m880 370c-1.5-0.31-9.3-11-26-37-13-20-24-36-25-36-0.17 0-1.4 1.7-2.8 3.7l-2.5 3.7v31c0 17-0.27 32-0.61 33-0.51 1.3-2.7 1.6-14 1.6h-14l-1-2.8c-0.56-1.5-1.9-6.1-3-10-3.5-13-12-44-20-75-4.4-16-9-33-10-38-1.2-4.4-3.4-12-4.9-18-1.5-5.5-4.6-17-6.9-26l-4.1-16 0.29-38 0.29-38 39-0.26c21-0.14 39-0.14 39 0 0.12 0.14 0.46 16 0.75 34l0.53 34 14-21c7.7-11 18-27 23-34l9-13 42-0.26c35-0.22 42-0.036 42 1.1 0.31 0.8-17 27-41 62-23 33-41 61-41 62 0 0.57 20 30 44 66s45 66 45 67c2.1 4 0.39 4.1-40 4.3-22 0.074-40-0.062-41-0.3zm-150-40c-16-19-29-34-30-34-0.7 0.16-7.5 6.2-15 13-17 16-21 19-22 19-1.5 0-2.5-2.5-5.7-14s-5.2-19-9.3-34c-2.7-10-9.2-34-22-82-2.6-9.6-3.1-13-2.1-13 1.6-1.6 2.8-0.38 34 36 16 19 26 30 28 30 0.96 0 9.5-7.3 19-16 9.5-8.9 17-16 18-16 2.6 0.061 2.2-1.1 15 47 3.9 15 9.8 36 13 48 14 52 14 50 11 50-0.75 0-14-15-30-34z" fill="#d1ede9"/>
        <path d="m880 370c-0.93-0.69-12-17-25-37s-24-36-25-36c-0.66 0-2.4 1.5-3.8 3.4l-2.5 3.4-0.015 32c-0.008 17-0.38 32-0.83 33-0.61 0.96-4.1 1.2-14 1l-13-0.28-12-45c-6.7-25-18-66-25-92l-13-47 0.26-38 0.26-38 37-0.26c29-0.21 38 0.012 38 1 0.44 0.69 0.81 16 0.82 35 0.009 21 0.38 34 0.95 33 0.52-0.32 11-16 24-35l23-34h41c22 0 41 0.36 41 0.8 0.27 0.44-18 28-40 61-28 41-41 61-41 62 0.22 1.1 20 32 45 68 34 50 44 66 44 67-1.5 1.9-79 1.9-81 0.056zm-130-20c-6.7-7.9-19-23-28-33-8.8-10-17-19-17-20-0.63-0.27-9 6.9-18 16-9.5 9-18 16-19 16-2 0.042-0.71 4.3-16-53-6.4-24-14-52-17-63s-5.4-21-5.4-22c0-2.4 0.003-2.4 3.1 0.65 1.7 1.7 15 17 29 34s27 31 27 31c0.64 0.2 8.9-7 18-16 9.4-9 18-16 19-17 1.3-0.21 2 0.76 2.8 3.5 4.3 15 36 130 36 140 0 0.92-0.45 1.7-0.99 1.7-0.55 0-6.5-6.5-13-14z" fill="#a6dcd5"/>
        <path d="m800 360c-0.49-0.79-3.3-11-13-46-1.1-4.1-3.7-14-5.8-22-2.1-7.7-7.5-28-12-44-4.5-17-11-39-13-48l-5.1-18-0.3-40-0.3-40 2.3-0.56c1.3-0.31 18-0.43 37-0.28l35 0.28 0.26 35c0.14 19 0.64 35 1.1 36 0.46 0.46 11-14 24-33s24-35 25-36l2-2.2h39c34 0 39 0.21 39 1.4 0 0.8-18 28-40 61s-40 60-41 61c-0.3 1.2 15 25 45 69 25 37 45 67 44 68-0.46 0.46-19 0.71-41 0.57l-40-0.26-25-37c-13-20-25-37-26-37-0.62-0.024-2.4 1.6-4 3.7l-2.9 3.8-0.5 33-0.5 33-12 0.28c-6.7 0.15-12-0.13-13-0.63zm-66-36c-15-18-28-33-29-33-0.85-0.031-9.1 7-18 16-9.3 8.7-18 16-18 16-1.6 0-2.7-3.7-19-64-2.8-10-8.3-31-12-45-7.4-27-7.5-28-6.1-28 0.5 0 13 14 27 31 29 34 29 35 31 35 0.54 0 8.8-7.5 18-17 9.6-9.1 18-16 19-16 0.69 0.27 3.7 9.4 6.6 20 3 11 8.7 32 13 47 4.1 15 9.9 36 13 47 5.7 21 6.1 23 4.5 23-0.53 0-13-15-29-33z" fill="#78d1c5"/>
        <path d="m880 350c-4.6-6.7-16-23-25-37-15-22-17-26-19-26-0.28-0.007-2 2.1-3.8 4.8l-3.2 4.8v64h-24l-2.3-8.2c-4.4-16-5.9-22-11-40-4.8-18-9.1-34-28-110l-7.6-28 0.26-38 0.26-38 36-0.26 36-0.26 0.26 36c0.23 31 0.46 36 1.8 36 0.85 0 11-14 23-32 12-17 23-33 24-36l3-4.2h39c23 0 39 0.38 39 0.91 0 0.5-18 28-40 61s-40 60-40 61c0 0.41 2.4 4.3 5.4 8.6 31 45 85 130 85 130-0.3 0.48-18 0.87-40 0.87h-40l-8.4-12zm-150-20c-15-18-28-33-29-33-1.4-0.049-13 11-30 27-3 2.9-5.5 4.5-6.2 4.1-1.1-0.7-2.5-5.4-14-49-15-56-21-78-22-81-1.2-4.2-0.48-5.2 1.8-2.4 11 15 54 63 55 63 0.87-0.001 9.5-7.6 19-17 9.6-9.3 18-17 18-17 0.55 0.2 3.4 9.3 6.4 20s8.7 32 13 47c4.1 15 9.9 36 13 47 5.7 21 6.1 23 4.5 23-0.53 0-13-15-29-33z" fill="#88c4ba"/>
        <path d="m800 360c-4.4-16-5.9-22-11-40-4.8-18-9.1-34-28-110l-7.6-28 0.26-38 0.26-38 36-0.26 36-0.26 0.26 36c0.23 31 0.46 36 1.8 36 0.85 0 11-14 23-32 12-17 23-33 24-36l3-4.2h39c23 0 39 0.38 39 0.91 0 0.5-18 28-40 61s-40 60-40 61c0 0.75 20 31 45 68 25 36 45 67 45 67 0.18 0.45-18 0.81-40 0.81h-40l-25-37c-15-23-25-37-26-37-0.87 0.001-3 2.1-4.8 4.8l-3.2 4.8v64h-24l-2.3-8.2zm-65-29c-16-18-28-32-29-32-0.91-0.003-8.9 6.9-18 15-16 15-19 17-19 17-0.34-0.34-3.1-10-13-48-15-56-21-78-22-81-1.2-4.2-0.48-5.2 1.8-2.4 11 14 54 63 55 63 0.8 0 8.4-6.6 17-15 16-16 20-19 21-18 0.43 0.43 37 130 37 130 0 2.1-4.6-3-29-32z" fill="#51c4b5"/>
        <path d="m860 330c-14-21-25-38-26-38-0.96-0.59-5.8 4.9-8 9.1-0.79 1.5-1.1 12-1.1 34v32h-11c-10 0-11-0.095-12-2.2-0.95-3.2-3.1-11-5.5-20-1.1-4.3-3-11-4.1-16-1.1-4.3-2.8-10-3.6-13-0.83-3-2.4-8.9-3.5-13s-2.4-8.8-2.9-10c-0.47-1.6-1.8-6.4-2.9-10-1.1-4.1-2.7-10-3.6-13-0.87-3.2-2.3-8.3-3.2-12-0.87-3.2-2.5-9.1-3.6-13-1.1-4.1-2.4-8.8-2.8-10-1.4-5.1-3.8-14-6-22-1.2-4.4-2.8-10-3.7-14-0.83-3-1.9-7.1-2.4-9-0.49-1.9-0.9-20-0.91-41l-0.024-37h72v35c0 31 0.2 36 1.6 37 1.3 1.1 1.8 1 2.9-0.13 1.5-1.5 13-19 35-51l14-21h76l-14 21c-7.7 11-17 26-22 32-23 33-45 67-45 68 0 0.56 1.5 3.2 3.4 5.8 5.6 7.9 88 130 88 130 0 0.22-18 0.39-40 0.39h-40l-25-37zm-130-0.088c-15-18-28-32-29-32-0.91-0.003-8.7 6.6-17 15-8.6 8.1-17 15-17 15-1.9 0.72-3-2.3-8.7-24-1.4-5.3-2.9-11-3.3-13-0.47-1.6-1.7-6.4-2.8-10-1.1-4.1-2.7-10-3.5-13-0.83-3-2.5-9.1-3.7-14-2.2-8.3-4-15-6.5-24-0.82-3-2.2-8-3-11-4.1-15-4.6-17-4.3-18 0.16-0.7 3 2 6.3 5.9 3.3 4 10 12 15 18 5 5.8 11 13 14 16 11 14 18 21 20 21 1.8 0 11-8.1 27-23 6-5.9 11-11 11-10 0.34 0.34 36 130 36 130 0 2.1-4.6-3-29-32z" fill="#56b0a2"/>
        <path stroke="#000" stroke-width="2.1907" d="m800 360c-0.95-3.2-3.1-11-5.5-20-1.1-4.3-3-11-4.1-16-1.1-4.3-2.8-10-3.6-13-0.83-3-2.4-8.9-3.5-13s-2.4-8.8-2.9-10c-0.47-1.6-1.8-6.4-2.9-10-1.9-7.1-3.3-12-6.8-25-0.83-3-2.4-8.9-3.5-13s-2.4-8.8-2.8-10c-1.4-5.1-3.8-14-6-22-1.2-4.4-2.8-10-3.7-14-0.83-3-1.9-7.1-2.4-9-0.49-1.9-0.9-20-0.91-41l-0.024-37h72v35c0 31 0.2 36 1.6 37 1.3 1.1 1.8 1 2.9-0.13 1.5-1.5 13-19 35-51l14-21h76l-14 21c-7.7 11-17 26-22 32-28 41-45 67-45 69 0 1.1 4.9 9.1 11 18 5.9 8.7 18 27 27 40 9.1 13 24 36 34 50 9.4 14 17 26 17 26 0 0.21-17 0.37-39 0.35l-39-0.034-24-36c-13-20-24-37-25-38-1.9-2.6-3.7-1.5-8.1 4.9l-3.3 4.8v64h-11c-10 0-11-0.095-12-2.2zm-67-36c-14-17-27-31-28-32-2.2-1.8-2.8-1.3-22 17l-16 15-1.8-5.8c-0.99-3.2-3.2-11-4.8-17-1.7-6.3-3.4-13-3.9-14-0.46-1.6-1.7-6.4-2.8-10-1.1-4.1-2.7-10-3.5-13-0.83-3-2.5-9.1-3.7-14-2.2-8.3-4-15-6.5-24-0.82-3-2.2-8-3-11-4.1-15-4.6-17-4.3-18 0.16-0.7 3 2 6.3 5.9 3.3 4 10 12 15 18 5 5.8 11 13 14 16 11 14 18 21 20 21 1.7 0 4.3-2.1 22-19 6.7-6.3 13-12 14-12 1.8-1 0.95-3.6 8.6 25 3.4 13 7.2 27 8.5 32 11 38 20 72 19 73-0.22 0.22-12-13-26-30z" fill="#3bbcac"/>
        <path d="m880 360c-1.6-2.6-13-19-24-37l-22-33c-0.44-1.7 37-56 38-56 0.57 0.19 9.7 13 20 29 42 62 68 100 68 100 0.18 0.43-17 0.79-39 0.79h-39l-3-4.8zm-150-30c-14-17-27-31-28-32-0.94-0.78-2.1-0.96-3-0.46-0.81 0.46-7.5 6.5-15 13-7.3 6.9-14 13-15 14-1.6 1.2-1.7 1.2-1.1-0.43 0.38-1 8.2-15 17-32 9.2-17 20-36 24-43 8.2-15 12-20 12-17 0.28 0.82 3.3 12 6.7 24 3.4 13 7.2 27 8.5 32 11 38 20 72 19 73-0.22 0.22-12-13-26-30z" fill="#339a89"/>
       </g>
      </g>
     </g>
     <g transform="matrix(.95 0 0 .95 121.68 -611.43)">
      <rect transform="translate(-2,16)" ry="2.1603" height="144.02" width="3.6555" y="337.94" x="576.19" fill="none"/>
      <rect stroke-opacity=".99356" height="143.99" width="28.877" stroke="#909090" stroke-miterlimit="2.0952" y="354.19" x="575.97" stroke-width=".41118" fill="none"/>
      <text style="word-spacing:0px;letter-spacing:0px" fill-opacity=".76812" xml:space="preserve" transform="matrix(-.014244 1.0283 -.972 -.034641 0 0)" font-size="18.566px" y="-606.55811" x="362.47803" font-family="Sans" line-height="125%" fill="#fffff9"><tspan y="-606.55811" x="362.47803" font-family="AppleGothic">AngularUI</tspan></text>
      <path fill-rule="evenodd" d="m595.04 368.52 2.5438 6.9298h-14.106l0.46249-6.2251z" fill="#aeaeaf"/>
      <g transform="translate(192.38,-21.586)">
       <path stroke="#a4a4a4" stroke-width=".77135" d="m387.16 397.82c0.0383-0.0575 1.0248-1.9131 2.1922-4.1236s2.1412-4.0393 2.164-4.0639 0.23845-0.0715 0.47926-0.10422c9.4602-1.2845 12.388-1.6633 12.442-1.6097 0.0455 0.0448 1.9892 5.2363 3.5723 9.5412l0.0865 0.23509-1.6152 4.9573-1.6152 4.9573-0.1808 0.0165c-0.0994 0.009-3.0068-0.28608-6.4608-0.65585-5.4136-0.57955-6.2928-0.68545-6.3733-0.76759-0.0513-0.0524-1.1102-1.8653-2.3531-4.0287s-2.2927-3.9796-2.3329-4.036c-0.0918-0.1288-0.0928-0.18669-0.005-0.31784zm5.3877-3.2424c0.0939 0.45294 0.34692 0.90953 0.67771 1.2228 0.51622 0.48882 1.4383 0.85483 2.483 0.98561 0.30962 0.0388 9.2166-0.0434 9.2125-0.0849-0.00071-0.007-0.0717-0.22479-0.15776-0.48352l-0.15647-0.47042-4.4575 0.031c-3.1722 0.022-4.553 0.0139-4.7886-0.0284-0.9647-0.17291-1.536-0.58201-1.7658-1.2646-0.0928-0.27564-0.0603-0.9512 0.0572-1.1884 0.25233-0.50924 0.62234-0.78743 1.2573-0.94526 0.30223-0.0751 0.94866-0.0998 4.3831-0.16698 2.9934-0.0586 4.0283-0.0944 4.0276-0.13939-0.002-0.0962-0.28632-0.89025-0.34487-0.96192-0.0667-0.0817-6.1891-0.009-7.4453 0.088-1.2942 0.10024-1.8438 0.29429-2.3544 0.83132-0.55931 0.58828-0.8188 1.6528-0.62769 2.5751z" fill="#aeaeaf"/>
       <path d="m390.13 394.17c1.087-2.0313 1.9899-3.7072 2.0063-3.7241 0.0165-0.017 2.535-0.35479 5.5968-0.75073s5.6523-0.73178 5.7567-0.74631c0.10437-0.0145 0.21556-0.011 0.24708 0.008 0.0503 0.0301 3.3066 8.6298 3.3084 8.7374 0.001 0.0668-2.8312 8.8367-2.8922 8.9553-0.0303 0.0589-0.0817 0.10737-0.1142 0.10781-0.10436 0.001-11.375-1.2608-11.494-1.2873-0.085-0.0189-0.27251-0.29973-0.72117-1.0804-0.33345-0.58019-1.297-2.256-2.1412-3.724-0.84418-1.468-1.5336-2.699-1.532-2.7357 0.002-0.0366 0.89227-1.7286 1.9793-3.7599zm2.4012 0.58679c0.12545 0.45047 0.33245 0.78001 0.69865 1.1123 0.54092 0.49081 1.2396 0.78611 2.2723 0.96045 0.4141 0.0699 1.0616 0.0749 4.9131 0.038 2.7835-0.0267 4.4645-0.0617 4.5122-0.0941 0.0657-0.0445 0.0589-0.10349-0.05-0.43352-0.0694-0.21009-0.15148-0.44486-0.18248-0.52171l-0.0564-0.13974-4.4446 0.0374c-3.8662 0.0325-4.5019 0.0268-4.8848-0.0437-0.77088-0.14208-1.2403-0.42346-1.5213-0.91187-0.14475-0.25161-0.16125-0.3254-0.16807-0.75144-0.007-0.41119 0.0102-0.50765 0.12962-0.74406 0.18306-0.36244 0.50083-0.63254 0.91814-0.78039 0.33946-0.12027 0.36539-0.12138 4.4967-0.19309 3.3214-0.0576 4.1664-0.0859 4.2105-0.14083 0.0405-0.0504 0.009-0.2003-0.11712-0.56076-0.0948-0.27062-0.19753-0.52291-0.2283-0.56064-0.0458-0.0561-0.78302-0.0549-4.0488 0.007-3.807 0.072-4.0152 0.0809-4.4735 0.19096-0.26434 0.0635-0.62344 0.19416-0.79799 0.29043-0.57851 0.31907-1.0432 0.96737-1.2027 1.678-0.0928 0.41343-0.0806 1.1829 0.0248 1.5614zm0.84153 9.5724 0.44383-0.006 0.0239-0.17096c0.0131-0.094 0.0257-0.52574 0.0278-0.95936 0.002-0.43362 0.0215-0.81782 0.0429-0.85378 0.0304-0.051 1.0053-0.0785 4.4455-0.12517 4.0275-0.0547 4.4066-0.0525 4.408 0.0253 0.0008 0.0468-0.11097 0.46768-0.24837 0.93532-0.13739 0.46765-0.26172 0.89177-0.27627 0.9425-0.0238 0.0831 0.0202 0.0916 0.44218 0.0859l0.46864-0.006 0.85662-2.6237c0.47115-1.443 0.85573-2.6414 0.85463-2.6631-0.001-0.0216-0.24615-0.036-0.54456-0.032l-0.54256 0.007-0.28803 0.98836c-0.15842 0.5436-0.32414 1.0184-0.36826 1.0551-0.0628 0.0522-1.0559 0.0798-4.5717 0.12686-2.4905 0.0334-4.5243 0.04-4.5651 0.015-0.0598-0.0367-0.073-0.23129-0.0701-1.0352l0.004-0.99005-0.53833-0.008-0.53834-0.008 0.0452 2.6527 0.0452 2.6527 0.44383-0.006z" fill="#7884a8"/>
       <path d="m390.18 394.21c1.7738-3.3191 1.9933-3.705 2.1257-3.7385 0.25217-0.0637 11.379-1.4842 11.408-1.4563 0.0149 0.0145 0.75948 1.978 1.6546 4.3635l1.6275 4.3373-1.419 4.3997c-1.6107 4.9942-1.4726 4.5842-1.5446 4.5852-0.0302 0.00041-2.6258-0.28568-5.7679-0.63576-4.5647-0.50858-5.7308-0.65369-5.8018-0.72197-0.093-0.0894-4.2663-7.329-4.2626-7.3944 0.001-0.0206 0.89225-1.703 1.9802-3.7387zm2.2962 0.51463c0.12051 0.47525 0.32056 0.79732 0.7243 1.166 0.39614 0.3618 0.79679 0.58487 1.3937 0.77596 0.84062 0.26911 1.051 0.27658 5.937 0.21061l4.5015-0.0608-0.005-0.11806c-0.003-0.0649-0.0843-0.32963-0.18067-0.58822l-0.17524-0.47016-4.4889 0.0295c-3.7487 0.0246-4.555 0.017-4.89-0.0462-0.79203-0.14935-1.2174-0.4183-1.4841-0.93838-0.1561-0.30441-0.16961-0.36809-0.15772-0.74309 0.0266-0.83836 0.46381-1.3232 1.3592-1.5072 0.20877-0.0429 1.6491-0.0907 4.3537-0.14449 2.2229-0.0442 4.0582-0.0967 4.0784-0.11669 0.0505-0.0499-0.32567-1.1662-0.41055-1.2184-0.0987-0.0606-7.0412 0.0419-7.758 0.11458-0.72306 0.0733-1.1236 0.1734-1.5449 0.38612-0.65141 0.3289-1.1526 1.0527-1.3035 1.8826-0.0639 0.35168-0.0389 1.031 0.0512 1.3861zm0.89079 9.6532 0.49214-0.007 0.03-0.16449c0.0165-0.0905 0.0253-0.44169 0.0195-0.7805-0.006-0.33881 0.003-0.72581 0.0187-0.86001l0.0292-0.24399 4.3762-0.0594c3.1604-0.0429 4.3765-0.0433 4.3772-0.001 0.00054 0.0319-0.12186 0.47557-0.272 0.98592-0.15014 0.51034-0.27267 0.94661-0.27228 0.96949 0.001 0.0589 0.98569 0.0386 1.0212-0.021 0.0564-0.0947 1.7246-5.2348 1.7234-5.31-0.001-0.0626-0.10451-0.072-0.59045-0.0531l-0.58915 0.0228-0.28202 0.94813c-0.15511 0.52147-0.30742 0.9903-0.33847 1.0418-0.0534 0.0887-0.30087 0.0963-4.5838 0.14172l-4.5273 0.048-0.0174-1.0236-0.0174-1.0236-0.52148-0.008c-0.28681-0.004-0.55248 0.004-0.59037 0.0195-0.0559 0.0223-0.0603 0.53475-0.0233 2.7063l0.0456 2.6787 0.49214-0.007z" fill="#57689c"/>
       <path d="m390.23 394.24c1.9295-3.5994 1.9733-3.675 2.1511-3.7163 0.30923-0.0718 11.267-1.4682 11.297-1.4395 0.0153 0.0149 0.75755 1.9698 1.6494 4.3442l1.6215 4.3172-1.4237 4.4098c-0.78301 2.4254-1.446 4.4329-1.4734 4.4611-0.0668 0.0688-11.474-1.2071-11.562-1.2932-0.0849-0.0831-4.1927-7.2297-4.2135-7.3305-0.009-0.0432 0.8701-1.7319 1.9534-3.7527zm2.2934 0.76544c0.40612 1.0634 1.5536 1.7541 3.2197 1.9381 0.28018 0.0309 2.0898 0.0269 4.8715-0.0108 3.7266-0.0506 4.43-0.0716 4.4525-0.13328 0.0339-0.093-0.29653-1.1045-0.38376-1.1747-0.0427-0.0344-1.6262-0.0384-4.5787-0.0117-3.9528 0.0358-4.5582 0.0308-4.8737-0.0403-1.0079-0.22695-1.4622-0.66603-1.5204-1.4695-0.0361-0.4976 0.0705-0.83615 0.35969-1.143 0.49675-0.52706 0.88431-0.56923 5.8617-0.63786l3.5566-0.049-0.002-0.14422c-0.004-0.21218-0.33223-1.1262-0.43348-1.2058-0.0711-0.0558-0.79983-0.0545-3.9713 0.007-4.1542 0.0807-4.4398 0.10141-5.1356 0.37291-0.80616 0.31455-1.411 1.1183-1.5683 2.084-0.0735 0.45124-0.004 1.2263 0.14611 1.618zm0.85407 9.4023 0.52495-0.007 0.0315-0.2367c0.0173-0.13018 0.0281-0.53635 0.024-0.9026-0.004-0.36625 0.0145-0.72682 0.0414-0.80126l0.0489-0.13534 4.2813-0.0581c3.5084-0.0476 4.2864-0.0456 4.3092 0.0112 0.0154 0.0381-0.0967 0.48933-0.24911 1.0027-0.15237 0.51339-0.26253 0.95608-0.24481 0.98375 0.0493 0.077 0.99979 0.0508 1.0625-0.0293 0.0969-0.12388 1.7708-5.3138 1.7392-5.3924-0.0417-0.10359-1.1478-0.1002-1.228 0.004-0.0281 0.0365-0.16808 0.46957-0.31096 0.96242-0.14289 0.49285-0.2809 0.93773-0.30669 0.98862-0.0441 0.087-0.3156 0.0962-4.567 0.15385l-4.5201 0.0613 0.009-0.99473c0.006-0.66248-0.01-1.013-0.0473-1.0494-0.0599-0.0581-1.0177-0.0645-1.1597-0.008-0.0746 0.0298-0.0769 0.30609-0.0232 2.7437l0.0598 2.7105 0.52495-0.007z" fill="#3b5297"/>
       <path d="m397.59 397.81c5.1087-0.0693 9.2999-0.10834 9.3138-0.0867 0.0294 0.0458-2.7904 8.8218-2.8563 8.8897-0.06 0.0619-11.48-1.2182-11.56-1.2958-0.0343-0.0332-0.43841-0.71675-0.89801-1.5191-0.4596-0.80233-1.3869-2.4182-2.0607-3.5909s-1.2256-2.1634-1.2263-2.2017c-0.00098-0.0575 1.611-0.0914 9.2874-0.19559zm-4.2472 6.6096c0.29401 0.005 0.51607-0.014 0.54808-0.047 0.0309-0.0319 0.0598-0.45238 0.0678-0.98746 0.008-0.51258 0.0321-0.96175 0.0542-0.99814 0.0513-0.0845 8.5644-0.21357 8.6175-0.13061 0.0181 0.0283-0.0917 0.47967-0.24416 1.003-0.15243 0.52332-0.26274 0.97397-0.24513 1.0015 0.0176 0.0275 0.26514 0.0468 0.55008 0.0429l0.51809-0.007 0.0964-0.27695c0.50265-1.4443 1.6637-5.1143 1.6381-5.1779-0.0268-0.0666-0.13575-0.0798-0.60539-0.0734-0.39429 0.005-0.58917 0.0284-0.62564 0.0741-0.0291 0.0365-0.16692 0.45774-0.30618 0.93611-0.13926 0.47836-0.27512 0.92321-0.30191 0.98855l-0.0487 0.11879-4.5238 0.0614-4.5238 0.0614 0.0131-0.99158c0.009-0.69732-0.005-1.0088-0.0466-1.0495-0.0647-0.0628-1.1507-0.0688-1.2109-0.007-0.0192 0.0198-0.008 1.2541 0.0248 2.743l0.0597 2.7071 0.49425 0.008z" fill="#2e364d"/>
      </g>
     </g>
    </g>
    <g transform="translate(-493.43,-175.97)">
     <title>Layer 1</title>
    </g>
    <text font-size="40px" xml:space="preserve" style="word-spacing:0px;letter-spacing:0px" y="201.48804" x="1159.6334" line-height="125%"><tspan y="201.48804" x="1159.6334"/></text>
    <text font-size="13px" xml:space="preserve" style="word-spacing:0px;letter-spacing:0px" y="504.13794" x="1056.1316" line-height="125%"><tspan y="504.13794" x="1056.1316"/></text>
    <text font-size="6px" xml:space="preserve" style="word-spacing:0px;letter-spacing:0px" y="514.37158" x="1054.8357" line-height="125%"><tspan y="514.37158" x="1054.8357"/></text>
    <text style="word-spacing:0px;letter-spacing:0px" xml:space="preserve" font-size="40px" y="-480.07578" x="362.07614" font-family="Sans" line-height="125%" fill="#000000"><tspan y="-480.07578" x="362.07614"/></text>
    <text style="word-spacing:0px;letter-spacing:0px" font-family="Sans" xml:space="preserve" font-size="18px" y="-132.54836" x="713.46466" font-weight="bold" line-height="125%" fill="#000000"><tspan y="-132.54836" x="713.46466"/></text>
   </g>
  </g>
  <g transform="matrix(1.0417,0,0,1.0417,-85.697,325.31)">
   <g transform="translate(402.53 .091789)">
    <text style="word-spacing:0px;letter-spacing:0px" xml:space="preserve" font-size="32.49px" transform="rotate(-90)" y="-5.6764135" x="404.77188" line-height="125%"><tspan y="-5.6764135" x="404.77188"/></text>
    <text style="word-spacing:0px;letter-spacing:0px" xml:space="preserve" font-size="10.559px" transform="rotate(-90)" y="240.15091" x="320.70251" line-height="125%"><tspan y="240.15091" x="320.70251"/></text>
    <text style="word-spacing:0px;letter-spacing:0px" xml:space="preserve" font-size="4.8735px" transform="rotate(-90)" y="248.46323" x="319.64993" line-height="125%"><tspan y="248.46323" x="319.64993"/></text>
    <g transform="matrix(-.20203 -.02302 .02302 -.20203 313.79 108.38)">
     <text stroke-linejoin="round" font-size="41.822px" font-weight="100" fill="#a42b23" stroke-opacity=".98551" xml:space="preserve" style="word-spacing:0px;letter-spacing:0px" transform="rotate(173.51)" stroke="#e5e5e5" stroke-dasharray="31.09136276, 2.5909469" y="-532.00525" x="110.77794" font-family="Skia" line-height="125%" stroke-width="2.5909"><tspan y="-532.00525" x="110.77794" stroke-width="2.5909"/></text>
     <text style="word-spacing:0px;letter-spacing:0px" xml:space="preserve" font-size="61.474px" transform="matrix(-.99357 .1132 -.1132 -.99357 0 0)" y="-407.83047" x="134.32643" font-family="sans-serif" line-height="125%" fill="#000000"><tspan y="-407.83047" x="134.32643"/></text>
    </g>
    <g transform="matrix(1.1,0,0,1.1,-531.21,168.01)">
     <rect ry="3.444" stroke-opacity=".74619" fill-opacity="0" transform="matrix(1,-1.0902e-5,-6.5153e-5,-1,0,0)" height="32.943" width="140.34" stroke="#fff" stroke-miterlimit="2.0952" y="-1.4971" x="232.69" stroke-width=".49089"/>
     <g stroke-linejoin="round" stroke-width=".5" stroke-opacity=".98551" transform="matrix(.99569 .092702 -.092702 .99569 8.6592 -106.8)" stroke="#000" font-family="Skia" font-weight="100" fill="#222">
      <g font-size="9.3758px" stroke-opacity="1" fill-opacity=".99492" transform="matrix(.99556 -.094101 .094101 .99556 -6.6333 98.227)" stroke="#fff" stroke-width=".18181" fill="#fff">
       <text style="word-spacing:0px;letter-spacing:0px" xml:space="preserve" transform="rotate(.010445)" y="-1.8369781" x="331.67029" line-height="125%"><tspan stroke-opacity="1" fill-opacity=".99492" stroke="#ffffff" y="-1.8369781" x="331.67029" stroke-width=".18181" fill="#ffffff">WEB</tspan></text>
       <text style="word-spacing:0px;letter-spacing:0px" xml:space="preserve" transform="rotate(.010445)" y="-10.713606" x="316.79382" line-height="125%"><tspan stroke-opacity="1" fill-opacity=".99492" stroke="#ffffff" y="-10.713606" x="316.79382" stroke-width=".18181" fill="#ffffff">RESPONSIVE</tspan></text>
       <text style="word-spacing:0px;letter-spacing:0px" xml:space="preserve" transform="rotate(.010445)" y="7.0431561" x="332.02377" line-height="125%"><tspan stroke-opacity="1" fill-opacity=".99492" stroke="#ffffff" y="7.0431561" x="332.02377" stroke-width=".18181" fill="#ffffff">DESIGN</tspan></text>
      </g>
     </g>
     <rect height="15.89" width="26.93" stroke="#6f2727" y="-25.806" x="267.26" stroke-width=".027708" fill="#007cff"/>
     <rect height="14.513" width="11.576" y="-18.693" x="294.19" fill="#ba42cb"/>
     <rect height="11.109" width="15.198" y="-15.062" x="303.47" fill="#a30d0d"/>
     <rect height="5.4977" width="3.7466" y="-9.5723" x="244.3" fill="#6f0058"/>
     <rect height="3.5131" width="5.7016" y="-6.4501" x="238.98" fill="#f1b000"/>
     <g transform="matrix(.13422 0 0 .13422 241.51 -51.034)">
      <path d="m-26.036 361.93c-3.3268-1.0989-3.9101-3.5847-3.9101-16.662 0-9.1925 0.38481-13.507 1.3139-14.73 1.1634-1.532 3.8218-1.761 23.218-2l21.904-0.26993 0.27737-13.62c0.23242-11.413 0.55653-13.864 2-15.124 1.2627-1.1025 5.1654-1.6448 14.618-2.0308 18.757-0.76616 17.605-2.6846 17.605 29.312 0 19.658 0.27212 25.038 1.25 24.712 0.97202-0.32375 1.3612-12.814 1.75-56.164 0.48184-53.724 0.57049-55.8 2.4411-57.167 1.6262-1.1887 11.888-1.419 63.25-1.419h61.309v-54.092l2.4546-2.4546 2.4546-2.4546h105.61c101.83 0 107.59 0.1417 110.48 2.7165 0.275 0.24507 0.725 10.647 1 23.115l0.5 22.669 39.715 0.5c36.376 0.45796 39.865 0.64994 41.5 2.2832 1.4735 1.4723 1.8719 4.0878 2.2847 15l0.5 13.217 47.5 0.24284c47.019 0.24038 47.518 0.26429 49.25 2.3608 1.6141 1.9535 1.7475 5.8559 1.7182 50.257-0.0273 41.367-0.24442 48.421-1.543 50.139-1.4933 1.9763-2.6817 2-100.06 2h-98.546l-1.9116-2.3608c-1.5942-1.9687-1.9116-4.0031-1.9116-12.25v-9.8892h-65.16l0.51715 2.75c0.28443 1.5125 0.8026 5.3378 1.1515 8.5006 0.71058 6.4418 2.3672 8.7422 6.3117 8.7647 3.5874 0.0205 5.6064 1.4275 4.8557 3.3838-0.54772 1.4273-4.5622 1.6009-37.023 1.6009-29.573 0-36.622-0.25671-37.544-1.3673-1.551-1.8688 0.38271-3.3728 4.887-3.801 4.3646-0.41494 5.5523-2.7154 6.5078-12.605l0.70273-7.273-18.354 0.27296-18.354 0.27296v13l5.3835 0.65704c7.1964 0.87828 8.8741 3.4517 5.204 7.9822l-1.9125 2.3608-131.86 0.0746c-72.525 0.041-132.53-0.14451-133.34-0.41225zm46.938-4.5555c0.7653-0.92214 1.0603-5.2327 0.87245-12.75l-0.284-11.35-19.75-0.27-19.75-0.27114v12.354c0 6.795 0.3 12.655 0.66667 13.021 0.36667 0.36667 8.8616 0.66667 18.878 0.66667 14.347 0 18.456-0.29562 19.367-1.3931zm415.09-2.1659c0-0.79254-0.675-1.441-1.5-1.441-1.5062 0-2.0557 2.111-0.86052 3.3062 0.93324 0.93324 2.3605-0.19452 2.3605-1.8652zm136.76-45.191 0.26135-40.25h-108.02v39.833c0 21.908 0.3039 40.137 0.67534 40.509 0.37144 0.37144 24.559 0.55895 53.75 0.41667l53.075-0.25868zm-527.34 39.15c1.3671-0.52462 1.5818-3.2386 1.5818-20v-19.393h-26.076l0.28753 9.25 0.28753 9.25 5.2294 0.30155c7.0307 0.40541 8.2706 2.2426 8.2706 12.254 0 4.186 0.3 7.9108 0.66667 8.2775 0.83338 0.83338 7.627 0.87495 9.7516 0.0597zm405.58-43.26c0-51.725-0.95832-48.126 12.823-48.15 4.7726-0.008 9.2611-0.38557 9.9745-0.83811 0.91941-0.58323 1.2106-2.9809 1-8.2347l-0.29708-7.4119-40.25-0.26134-40.25-0.26135v108.02h57zm-421.25 39.62c-0.22917-0.6875-1.0167-1.25-1.75-1.25-0.73334 0-1.5208 0.5625-1.75 1.25-0.24786 0.7436 0.46111 1.25 1.75 1.25s1.9979-0.50641 1.75-1.25zm191.75-50.25v-49l-79.25-0.25602-79.25-0.25602v99.024l79.25-0.25602 79.25-0.25602zm360.07 15.388c0.86201-1.3948-1.7409-3.1164-2.9236-1.9337-0.96192 0.96192-0.0352 3.0455 1.3545 3.0455 0.48508 0 1.1912-0.50032 1.5691-1.1118zm-199.57-44.934v-34.046l2.4546-2.4546c1.35-1.35 3.3849-2.4546 4.5221-2.4546 2.0262 0 2.0621-0.37483 1.7955-18.75l-0.27207-18.75h-197l-0.2681 23.75-0.2681 23.75h16.518c15.185 0 16.68 0.16144 18.518 2 1.9075 1.9075 2 3.3333 2 30.833 0 15.858 0.3 29.133 0.66667 29.5 0.36666 0.36667 34.567 0.66667 76 0.66667h75.333z" fill="#ababab"/>
      <path d="m-28.453 359.55c-1.2019-1.7159-1.5567-4.9959-1.5567-14.389 0-17.48-1.7654-16.328 25.5-16.638l22-0.25018 0.10084-13.904c0.08905-12.278 0.31606-14.062 1.9411-15.25 2.1765-1.5915 26.031-1.9001 28.458-0.36815 1.2479 0.78777 1.584 5.2802 2 26.735 0.46238 23.847 0.63361 25.788 2.2757 25.788 1.6767 0 1.7882-3.0712 2-55.096 0.18314-44.98 0.47633-55.4 1.5968-56.75 1.2493-1.5053 6.8631-1.6537 62.55-1.6537 46.249 0 61.471-0.29282 62.378-1.2 0.87227-0.87227 1.2042-8.4511 1.2153-27.75 0.008-14.603 0.34592-27.045 0.75-27.65 2.2258-3.3334 4.3729-3.3997 110.06-3.3997 101.81 0 105.03 0.0572 107.32 1.9097 2.3273 1.8826 2.3679 2.234 2.8608 24.75l0.5 22.84 39.434 0.26178c34.686 0.23025 39.65 0.45656 41.222 1.8795 1.5129 1.3692 1.8303 3.6337 2.0657 14.738l0.27812 13.12 48.331 0.5c46.38 0.47982 48.389 0.57836 49.75 2.4411 1.1786 1.6125 1.4188 10.095 1.4188 50.095 0 45.381-0.10532 48.249-1.8287 49.809-1.6755 1.5163-10.043 1.655-99.845 1.655-96.207 0-98.049-0.0363-99.797-1.9675-1.3556-1.4979-1.9296-4.4217-2.405-12.25l-0.62443-10.283h-64l0.29959 8c0.36179 9.6608 1.6891 12.081 7.2336 13.188 2.2378 0.4468 4.1584 1.2624 4.2678 1.8124 0.12909 0.64861-12.891 1.0921-37.051 1.2622-31.37 0.22078-37.25 0.0414-37.25-1.1365 0-0.89341 1.6447-1.6453 4.553-2.0814 5.3914-0.8085 5.9719-1.7942 7.3703-12.517 0.73278-5.6188 0.67712-7.6648-0.22435-8.2475-0.6594-0.42621-9.0739-0.66355-18.699-0.52743l-17.5 0.24748-0.29244 7.1824-0.29245 7.1824 4.7925 0.64229c6.8519 0.9183 7.2924 1.1542 7.2924 3.9049 0 5.9116 7.9106 5.5881-136.67 5.5881h-132.22zm49.943-14.278v-13l-19.427-0.27221c-14.874-0.20841-19.617 0.026-20.235 1-0.94188 1.484-1.1295 21.849-0.2231 24.211 0.54023 1.4078 3.0008 1.5696 20.25 1.3318l19.635-0.27zm415.06 11.404c0.37254-0.60278 0.0616-1.7115-0.69099-2.4638-1.7348-1.7342-4.398-0.26276-3.5454 1.9589 0.7028 1.8315 3.2304 2.1328 4.2364 0.50496zm-282.56-1.904c0-0.61111-4.6667-1-12-1-7.3334 0-12 0.38889-12 1s4.6667 1 12 1 12-0.3889 12-1zm419.5-45v-40.5l-53.387-0.25883c-38.594-0.18712-53.765 0.0546-54.75 0.87244-1.1084 0.91989-1.3631 8.4582-1.3631 40.342 0 21.566 0.30384 39.515 0.67519 39.886 0.37136 0.37136 25.009 0.55887 54.75 0.41667l54.075-0.25853zm-527 19.5v-20l-11.858-0.28267c-7.8878-0.18803-12.324 0.10409-13.25 0.87244-0.95638 0.79372-1.3918 3.4377-1.3918 8.4509 0 9.9006 0.30306 10.459 5.6727 10.459 7.5872 0 8.3273 0.88463 8.3273 9.9534 0 11.015 0.11621 11.199 6.8747 10.843l5.6253-0.29618zm404.3 19.3c0.89595-0.89595 1.2-12.044 1.2-44 0-51.132-1.2531-46.8 13.539-46.8h9.539l-0.28894-8.75-0.28893-8.75-39.934-0.26164c-31.283-0.20496-40.107 0.0117-40.735 1-1.3818 2.1767-1.0255 106.17 0.36848 107.56 1.7106 1.7106 54.89 1.7106 56.6 0zm-421.14-2.37c0.83346-2.172-1.2824-4.2145-2.797-2.7-1.28 1.28-0.48705 4.2672 1.1328 4.2672 0.58452 0 1.3334-0.70525 1.6642-1.5672zm192.1-50.683 0.25933-49.75h-160.02v49.333c0 27.133 0.30269 49.636 0.67265 50.006 0.36996 0.36996 36.258 0.55746 79.75 0.41667l79.078-0.25598zm360.05 14.512c-0.50201-2.6067-3.8118-2.8974-3.8118-0.3348 0 1.4311 0.64223 2.0733 2.0733 2.0733s1.9696-0.53853 1.7385-1.7385zm-199.8-43.76c0.28268-18.7 0.89145-34.783 1.3528-35.739 0.46137-0.95654 2.6024-2.214 4.7579-2.7944l3.9191-1.0553-0.2719-18.706-0.27191-18.706-99.268-0.25485-99.268-0.25486 0.26779 24.255 0.26779 24.255 16.5 0.25431c15.392 0.23725 16.618 0.39572 18.25 2.3608 1.5772 1.8984 1.75 4.9434 1.75 30.829 0 15.797 0.30283 29.025 0.67295 29.396 0.37012 0.37012 34.458 0.55762 75.75 0.41666l75.077-0.25628z" fill="#8c8c8c"/>
      <path d="m35.774 360.82c-12.755-0.47936-14.589-0.753-13.765-2.0531 1.4324-2.2598 1.2442-25.337-0.21858-26.8-0.66-0.66-2.3314-1.2-3.7143-1.2-2.3705 0-2.4167-0.0976-0.80714-1.7071 1.3334-1.3334 1.9714-1.4429 2.9143-0.5 0.66393 0.66393 3.2546 1.214 5.7572 1.2224 7.0106 0.0236 7.4477 0.63221 8.0338 11.188l0.5162 9.2965 5.8344 0.30242c3.2545 0.16871 6.4232-0.18622 7.1659-0.80265 1.0236-0.84952 1.4865-0.61694 2.0015 1.0057 0.486 1.5312 1.3482 2.0262 3.1403 1.8026l2.4704-0.30814-0.07983-55.027c-0.06739-46.452 0.14496-55.334 1.3628-57 1.4056-1.9227 3.0384-1.9804 63.479-2.2456l62.037-0.27215 0.29444-28.068 0.29445-28.068 2.3608-1.9104c2.2903-1.8533 5.4899-1.9104 107.14-1.9104 101.64 0 104.85 0.0573 107.14 1.9098 2.3273 1.8826 2.3679 2.234 2.8608 24.75l0.5 22.84 39.715 0.5c36.376 0.45796 39.865 0.64994 41.5 2.2832 1.4735 1.4723 1.8719 4.0878 2.2847 15l0.5 13.217 48.097 0.5c38.736 0.40268 48.419 0.76712 49.75 1.8724 1.4949 1.2413 1.6528 5.9401 1.6528 49.179 0 53.754 0.52082 50.295-7.762 51.545-2.6059 0.39318-46.813 0.41237-98.238 0.0427-109.42-0.7867-97 1.1022-97-14.749v-9.8893h-34.107c-31.445 0-34.057 0.1303-33.466 1.6694 0.35234 0.91819 1.1124 5.0807 1.689 9.25 1.1649 8.4236 2.8388 11.081 6.9804 11.081 1.5323 0 3.0641 0.45 3.404 1 0.40775 0.65977-11.736 0.9948-35.691 0.9847-23.812-0.0101-35.793-0.34897-34.809-0.9847 0.825-0.53316 2.4265-0.97627 3.5589-0.98469 3.9699-0.0295 5.4857-2.2569 6.4874-9.533 0.5287-3.8403 1.2203-8.2198 1.5369-9.7324l0.57568-2.75h-19.52c-10.736 0-19.727 0.3375-19.979 0.75-0.25225 0.4125-0.61631 3.9-0.80901 7.75l-0.35038 7 6.25 0.83731c5.6036 0.75071 6.25 1.0742 6.25 3.1276 0 5.2287 3.7629 5.0311-96.904 5.0882-51.478 0.0292-100.22-0.19581-108.31-0.5zm400.72-5.0668c0-1.7724-0.60948-2.5733-2.1227-2.7892-2.5417-0.36265-3.9357 2.4251-2.2365 4.4725 1.793 2.1604 4.3592 1.1694 4.3592-1.6833zm-399.5 0.0137c0-1.1111-0.66667-2-1.5-2-0.83334 0-1.5 0.88889-1.5 2s0.66667 2 1.5 2c0.83334 0 1.5-0.88889 1.5-2zm194 1c0-0.55-1.35-1-3-1s-3 0.45-3 1 1.35 1 3 1 3-0.45 3-1zm-76.071-1.8685c0.55-1.0277 0.71584-2.1527 0.36852-2.5-0.34732-0.34731-6.4065-0.63148-13.465-0.63148-11.778 0-12.833 0.15079-12.833 1.8333 0 1.0083 0.3 2.1334 0.66667 2.5 0.36666 0.36667 5.9758 0.66667 12.465 0.66667 10.498 0 11.908-0.20592 12.798-1.8685zm418.54-4.0764c0.3212-0.51972 0.5832-19.049 0.58223-41.177-0.001-31.485-0.27858-40.407-1.275-41.04-1.4623-0.92807-104.79-1.1514-107.19-0.23168-1.4066 0.53974-1.5818 5.1187-1.5818 41.333 0 22.4 0.3 41.026 0.66667 41.393 1.0701 1.0702 108.14 0.79632 108.8-0.27826zm-121.25-44.99c0.219-34.347 0.5633-44.235 1.5756-45.25 0.8164-0.81882 5.0686-1.4841 11.5-1.7992l10.205-0.5 0.29201-8.3469c0.18519-5.2937-0.13394-8.8602-0.87245-9.75-0.9627-1.16-7.8861-1.4031-39.96-1.4031-21.338 0-39.508 0.27314-40.378 0.60699-1.4158 0.54329-1.5818 6.3672-1.5818 55.5v54.893h58.94zm-421.81 40.66c1.5623-2.4767-1.644-5.5912-3.8614-3.7509-1.8624 1.5457-1.9784 3.2134-0.33769 4.8542 1.4711 1.4711 2.7946 1.1234 4.1991-1.1033zm192.09-51.209v-50l-79.937-0.25603c-63.289-0.2027-80.104 0.006-80.735 1-0.96233 1.5158-1.1139 98.137-0.15547 99.095 0.36992 0.36992 36.708 0.55742 80.75 0.41667l80.078-0.25591zm360.14 15.987c0.6868-1.7898-1.2952-4.4873-3.2971-4.4873-1.7026 0-2.7768 2.4356-1.9846 4.5 0.74831 1.9501 4.5319 1.941 5.2816-0.0127zm-199.64-45.03c0-37.466-0.1225-36.664 5.8199-38.117 1.474-0.36051 3.0107-1.1487 3.4148-1.7515 1.3313-1.9861 0.89741-35.034-0.48469-36.913-1.164-1.5826-8.0639-1.6817-100.25-1.4411l-99 0.25838-0.26733 24.684-0.26732 24.684 16.867 0.31606c12.448 0.23326 17.299 0.67563 18.517 1.6885 1.4664 1.2194 1.6504 4.7025 1.6504 31.244v29.871l75.75 0.25628c41.663 0.14096 76.313 0.0957 77-0.1007 0.9688-0.27668 1.25-8.0784 1.25-34.679zm-90-83.465c0-0.55-0.19844-1-0.44098-1s-0.7191 0.45-1.059 1c-0.33992 0.55-0.14148 1 0.44098 1s1.059-0.45 1.059-1zm-320.61 177.24c-0.67172-0.44508-1.3164-5.9748-1.6353-14.028-0.61799-15.603-0.34102-16.207 7.438-16.207 4.1959 0 4.856 0.23504 3.8988 1.3884-0.77575 0.93473-1.0608 5.7401-0.87245 14.706 0.27844 13.253 0.29196 13.321 2.7798 14.012 1.6468 0.45717 0.28168 0.72283-4 0.77841-3.575 0.0464-6.999-0.24624-7.6088-0.65033zm4.6088-14.735c0-0.825-0.45-1.5-1-1.5s-1 0.675-1 1.5c0 0.82501 0.45 1.5 1 1.5s1-0.675 1-1.5zm11.813 14.817c0.72188-0.28887 1.5844-0.25335 1.9167 0.0789 0.33229 0.3323-0.25833 0.56865-1.3125 0.52523-1.1649-0.048-1.4019-0.28494-0.60417-0.60413zm29.819-51.01c-0.95954-0.95954-0.72498-6.6013 0.345-8.2982 0.721-1.1434 3.8672-1.6386 13.235-2.0828 15.121-0.71718 16.789-0.0636 16.789 6.5812 0 4.366-0.0497 4.4333-2.5651 3.477-3.3164-1.2609-23.018-1.269-25.369-0.0104-0.99153 0.53065-2.0869 0.68065-2.4343 0.3333zm16.369-5.2982c0-0.55-0.70156-1-1.559-1-0.85746 0-1.2809 0.45-0.94098 1s1.0415 1 1.559 1c0.51754 0 0.94098-0.45 0.94098-1z" fill="#525252"/>
      <path d="m-27.26 360.1c-1.4975-0.41049-1.75-1.7475-1.75-9.2668 0-4.8329-0.24437-10.762-0.54304-13.177-0.707-5.7149 0.40653-7.1819 5.5383-7.2963l4.1834-0.0933-0.04095 15-0.04095 15-2.7984 0.15638c-1.5391 0.0861-3.5859-0.0595-4.5484-0.32329zm4.5505-13.674c0.28296-0.73739 0.12484-1.9711-0.35137-2.7416-1.1669-1.8881-3.4571 0.31605-2.6133 2.5151 0.73691 1.9204 2.2697 2.0375 2.9647 0.22654zm45.618 13.591c-0.24-2.1978 0.30692-12.808 0.6794-13.181 0.23971-0.2397 0.96833 0.0967 1.6192 0.74751 2.9803 2.9803 7.6953-0.43566 5.6489-4.0925-1.051-1.8781-4.3751-2.3267-5.3655-0.72418-1.6721 2.7056-2.5678 0.46216-2.2957-5.75 0.28493-6.5045 0.39393-6.7614 2.9962-7.0617 5.6942-0.65713 6.6963 0.92588 7.0121 11.077l0.28733 9.2348 7.4553 0.29795c4.1004 0.16389 7.9958 0.74654 8.6564 1.2948 0.75555 0.62705 15.518 0.97235 39.795 0.93085 34.177-0.0584 38.594 0.11094 38.594 1.48 0 2.6142 5.0267 3.6664 15.88 3.324 9.4665-0.29871 10.511-0.52544 11.872-2.5775l1.4925-2.25 36.628 0.0876c41.313 0.0988 46.424 0.46289 46.975 3.3463 0.89369 4.6693 3.3911 4.5661-110.54 4.5661-59.02 0-107.35-0.3375-107.39-0.75001zm13.582-4.25c0-1.2833-0.56226-2.5208-1.2495-2.7498-1.5331-0.51102-2.6847 2.1761-1.857 4.333 0.87972 2.2925 3.1065 1.1577 3.1065-1.5832zm195 1c0-1.7596-5.2346-2.6654-6.7347-1.1653-1.6814 1.6814 0.26022 3.2938 3.5786 2.9717 2.0026-0.19439 3.1562-0.85458 3.1562-1.8064zm29.081 2.9249c4.7474-1.3784 6.1602-3.7412 7.3409-12.277 0.59737-4.3187 1.3358-8.2562 1.641-8.75 0.91155-1.4749 43.997-1.1392 45.203 0.35221 0.55627 0.6875 1.3328 4.52 1.7256 8.5166 0.81947 8.3377 2.475 11.022 7.532 12.211 2.0183 0.47471-11.201 0.82266-31.524 0.82973-22.196 0.008-33.873-0.31514-31.919-0.88253zm125.17 0.003c-1.4834-0.87088-1.7523-2.5814-1.7653-11.228-0.008-5.6102-0.35308-10.731-0.7659-11.381-0.56772-0.89269-19.332-1.1363-77.021-1-66.576 0.15732-76.391 0.3709-77.219 1.6802-0.5215 0.825-0.95508 4.09-0.9635 7.2556l-0.0153 5.7557-85.75-0.2556-85.75-0.25558-0.25868-54.387c-0.18708-39.334 0.0544-54.764 0.87245-55.75 0.93232-1.1234 11.883-1.3629 62.309-1.3629 46.249 0 61.471-0.29283 62.378-1.2 0.87254-0.87254 1.2087-8.5814 1.2318-28.25 0.0265-22.549 0.28326-27.383 1.5429-29.05 1.4921-1.9748 2.8382-2.0033 106.92-2.2635l105.41-0.26349 1.9565 2.1c2.8492 3.0582 3.2758 6.9174 3.082 27.88-0.0958 10.368 0.13103 19.346 0.50419 19.949 0.47366 0.7664 12.509 1.1024 39.87 1.1131 22.867 0.009 39.816 0.40912 40.691 0.96077 1.172 0.73873 1.6093 3.9607 2 14.735l0.5 13.789 48 0.5c26.4 0.275 48.791 0.88713 49.759 1.3603 0.96726 0.47317 1.9965 1.8232 2.2872 3 0.86551 3.5036 0.0268 95.402-0.87899 96.307-1.2618 1.261-196.78 1.5172-198.92 0.26063zm51.786-3.0395c1.3424-4.2296-4.5786-6.5453-6.1651-2.4112-0.95743 2.495 0.40141 4.5227 3.0309 4.5227 1.6291 0 2.6911-0.71545 3.1342-2.1115zm136.96-46.888v-41.5l-54.387-0.25868c-39.334-0.18709-54.764 0.0544-55.75 0.87244-1.1092 0.92057-1.3629 8.6164-1.3629 41.342 0 22.116 0.30377 40.515 0.67505 40.886 0.37129 0.37128 25.459 0.55878 55.75 0.41667l55.075-0.25839zm-122.7 39.8c0.89633-0.89633 1.2-12.143 1.2-44.443v-43.243l2.2225-1.5567c1.6253-1.1384 4.725-1.5567 11.536-1.5567h9.3137l-0.28621-9.75-0.28621-9.75-40.934-0.26138c-32.084-0.20486-41.107 0.0114-41.735 1-1.382 2.177-1.0254 108.17 0.36864 109.56 1.712 1.7121 56.888 1.7121 58.6 0zm-229.04-53.73c0.20408-39.685-0.009-50.606-1-51.235-1.4515-0.92146-156.79-1.1392-159.18-0.22312-1.4133 0.54234-1.5818 5.956-1.5818 50.833 0 27.625 0.30266 50.529 0.67258 50.899 0.36992 0.36992 36.708 0.55742 80.75 0.41667l80.078-0.25591zm358.66 17.328c2.0791-0.79782 2.0392-5.2803-0.0541-6.0836-1.7412-0.66816-4.5118 0.63364-5.0992 2.3959-0.19479 0.58437 0.37307 1.7897 1.2619 2.6786 1.841 1.841 1.7709 1.8228 3.8914 1.0091zm-198.2-11.64c0.11984-0.1375 0.45734-16.176 0.75-35.642 0.57826-38.462 0.21392-36.29 6.3032-37.573l2.7711-0.5839-0.27106-19.726-0.27106-19.726-99.938-0.25486c-79.29-0.2022-100.1 0.004-100.73 1-1.2049 1.8978-1.0152 45.535 0.20785 47.821 0.95832 1.7906 2.2429 1.9343 17.3 1.9343 11.317 0 16.63 0.36504 17.465 1.2 0.87693 0.87693 1.2 8.8368 1.2 29.566 0 17.641 0.39139 29.097 1.0352 30.3 1.0096 1.8865 2.9249 1.9343 77.5 1.9343 42.056 0 76.563-0.1125 76.683-0.25zm-89.45-118.56c0.21771-0.65313-0.31666-1.1875-1.1875-1.1875-0.87083 0-1.5833 0.7125-1.5833 1.5833 0 1.7659 2.1528 1.4584 2.7708-0.39583zm-274.77 121.59c0-5.1104 1.7497-5.7852 15-5.7852s15 0.67482 15 5.7852v3.7148h-30zm16.75-1.0352c-0.22917-0.6875-1.2417-1.25-2.25-1.25s-2.0208 0.5625-2.25 1.25c-0.26389 0.79167 0.56111 1.25 2.25 1.25s2.5139-0.45833 2.25-1.25z" fill="#2f2f2f"/>
      <path d="m-26.52 358.75c-0.34546-0.55897-1.047-0.75742-1.559-0.44098-0.54941 0.33955-0.9309-3.2908-0.9309-8.8587 0-5.1887-0.23721-10.728-0.52713-12.309-0.72136-3.9343 0.55166-5.4345 5.133-6.049l3.8941-0.52231v29.196h-2.691c-1.48 0-2.9736-0.45734-3.3191-1.0163zm4.5101-13.606c0-2.7109-0.39476-3.3776-2-3.3776-1.5431 0-2 0.66667-2 2.9182 0 1.605 0.27755 3.6415 0.61678 4.5255 1.0171 2.6505 3.3832-0.19329 3.3832-4.0662zm46 9.1034c0-5.3953 0.05637-5.5049 2.513-4.8883 1.3965 0.35049 3.1378 0.11218 3.9193-0.5364 2.0344-1.6884 3.678 1.5236 2.4425 4.7732-0.50912 1.3391-0.65889 3.2753-0.33282 4.3026 0.51981 1.6378 0.03012 1.8679-3.9745 1.8679h-4.5674zm13.455 1.5191v-4h5.7727c3.1818 0 5.7727 0.44882 5.7727 1 0 0.64947 13.587 1 38.76 1 37.677 0 38.794 0.0559 40.009 2 1.1448 1.8332 2.332 2 14.232 2s13.087-0.16683 14.232-2c1.2109-1.9389 2.2878-1.9976 35.259-1.9211 18.705 0.0434 33.447 0.30592 32.76 0.58333-1.8695 0.75435-1.507 4.1239 0.5 4.6484 0.9625 0.25153-40.785 0.50953-92.773 0.57333l-94.523 0.116zm193.8 3.3107c1.0859-0.28376 1.75-1.4188 1.75-2.991 0-1.8995 0.3959-2.3818 1.5818-1.9267 0.86998 0.33385 2.445 0.60699 3.5 0.60699 2.36 0 2.629 3.5133 0.33642 4.393-0.86999 0.33385-3.2325 0.55479-5.25 0.49099s-2.8807-0.3218-1.9182-0.57333zm34.179-0.8821c1.9211-1.9211 1.5156-0.53511 2.9045-9.9286l1.1828-8 22.742-0.26877c17.84-0.21084 22.746 0.005 22.762 1 0.0796 5.1004 2.3195 15.486 3.6591 16.966 1.5678 1.7324 0.53562 1.8023-26.595 1.8023-25.66 0-28.084-0.14286-26.655-1.5714zm119.55-0.99367c-0.53639-1.4108-0.97525-7.0026-0.97525-12.426v-9.8612l-77.75 0.18055-77.75 0.18055-0.5 6.9957-0.50001 6.9957h-171l-0.25887-52.799c-0.17287-35.259 0.088-53.447 0.78519-54.75 1.0174-1.901 2.5808-1.9512 61.259-1.9645 33.118-0.007 61.202-0.27825 62.408-0.60165 2.1806-0.58474 2.1944-0.74188 2.5-28.335 0.24027-21.695 0.60659-28.107 1.6797-29.398 0.75485-0.90842 0.97985-1.6833 0.5-1.722-0.47984-0.0387 0.0276-0.45703 1.1276-0.92972 2.6136-1.1231 208.39-1.1231 211 0 1.1 0.47269 1.55 0.89795 1 0.94503-0.55 0.0471-0.325 0.51204 0.5 1.0332 1.2498 0.78958 1.5397 4.7484 1.7381 23.735 0.13095 12.533 0.24345 23.101 0.25 23.485 0.007 0.38372 18.2 0.83372 40.43 1 22.23 0.16627 40.792 0.67554 41.25 1.1317 0.45773 0.45617 1.0572 7.2062 1.3322 15l0.5 14.171 48 0.25011c26.4 0.13757 48.45 0.41777 49 0.62269 0.55 0.20491 1.4324 0.39656 1.961 0.42588 0.52852 0.0293 1.2844 0.87412 1.6797 1.8773 0.86983 2.2074 1.1124 92.501 0.25455 94.737-0.33264 0.86682-0.97654 1.3463-1.4309 1.0655-0.45436-0.28081-1.1088-0.0532-1.4542 0.50575-0.41611 0.67329-25.09 1.0163-73.104 1.0163-72.166 0-72.472-0.009-71.406-2 0.73124-1.3663 0.74957-2.5994 0.0579-3.8919-0.94381-1.7635-0.50988-1.9172 6.3975-2.266 4.0755-0.2058 7.7778-0.74161 8.2273-1.1907 0.44952-0.44907 0.94373-20.438 1.0982-44.419 0.18638-28.927 0.63885-44.034 1.3443-44.884 0.70474-0.84917 4.4882-1.377 11.219-1.5652l10.156-0.28394 0.28823-9.9174c0.21101-7.2603-0.0569-10.136-1-10.735-1.8322-1.1624-80.94-1.0374-82.788 0.13088-1.3036 0.82409-1.5 8.1422-1.5 55.901 0 30.224 0.37392 55.328 0.83093 55.787 0.457 0.45834 9.3462 0.97313 19.754 1.144l18.923 0.31065-0.6155 2.4523c-0.34619 1.3793-0.0755 3.103 0.61862 3.9394 1.0862 1.3087-1.541 1.487-21.913 1.487h-23.147zm189.99-6.3692c0.60254-1.1259 1.0349-9.3802 1.0345-19.75l-0.00065-17.816h3.7507c3.1549 0 3.8026-0.36611 4.0774-2.305 0.48311-3.4078-1.6764-5.475-5.0208-4.8062l-2.806 0.5612v-18.404c0-15.397-0.25671-18.66-1.5714-19.975-1.3899-1.3899-7.7713-1.5697-55.25-1.5561-32.055 0.009-54.283 0.39702-55.179 0.96288-1.2839 0.81103-1.5408 6.6226-1.7829 40.333-0.17781 24.759 0.0915 40.37 0.72525 42.037l1.0081 2.6515h54.99c53.343 0 55.021-0.0579 56.025-1.9343zm-352.64-4.3158c1.5709-1.1532 1.6826-5.1623 1.4411-51.75l-0.2617-50.5-40.75-0.5c-22.413-0.27501-59.088-0.27501-81.5 0l-40.75 0.5-0.26171 50.5c-0.24143 46.588-0.12978 50.597 1.4411 51.75 1.3282 0.97496 19.001 1.25 80.321 1.25 61.319 0 78.993-0.27504 80.321-1.25zm161.7-78.559c0.009-19.516 0.42017-35.331 0.94085-36.154 0.50904-0.80481 2.6397-1.9439 4.7347-2.5313l3.8092-1.068 0.27067-19.579c0.21664-15.671-0.005-19.808-1.1083-20.724-1.0196-0.84622-27.41-1.078-101.27-0.8896l-99.892 0.25485-0.2681 25c-0.24254 22.617-0.10516 25.119 1.4411 26.25 1.1954 0.87424 6.4248 1.25 17.396 1.25 11.857 0 15.957 0.32569 16.794 1.3342 0.74158 0.89355 1.1949 11.215 1.3724 31.25l0.26514 29.916 77 0.5c42.35 0.275 77.338 0.36094 77.75 0.19098 0.4125-0.16996 0.75689-15.92 0.76531-35zm-89.53-84.69c0-1.2985-0.77909-2.097-2.25-2.3059-1.657-0.23534-2.25 0.18195-2.25 1.5833 0 1.0466 0.31556 2.2184 0.70125 2.6041 1.3265 1.3265 3.7988 0.102 3.7988-1.8816zm-263.87 158.66c-0.563-0.87282-1.8899-1.147-3.75-0.775l-2.8787 0.57574v-10.95h3.5314c4.1497 0 4.7009 0.98255 4.2784 7.6271-0.20481 3.2214-0.60511 4.4152-1.1811 3.5222zm-11.388-35.96c-0.27728-0.72257 0.0013-2.4232 0.61913-3.7791 1.1217-2.4619 1.1415-2.4649 14.381-2.1862l13.258 0.27908 0.29546 3.5 0.29546 3.5h-14.173c-10.783 0-14.293-0.31426-14.677-1.3138zm18.516-1.94c0.6269-1.9096-3.8116-3.1256-7.1549-1.9601-2.7719 0.96628-2.8191 1.0794-1.0052 2.4067 2.2423 1.6408 7.5706 1.3492 8.1601-0.44658z" fill="#030303"/>
     </g>
     <rect height="13.409" width="21.559" stroke="#6f2727" y="-18.028" x="249.7" stroke-width=".026674" fill="#1c4d56"/>
     <ellipse rx=".23037" ry=".24476" cy="-4.6553" cx="245.27" fill="#838485"/>
    </g>
   </g>
  </g>
 </g>
 <g transform="translate(324.4 17.972)">
  <g transform="matrix(1.2,0,0,1.2,-32.093,-35.81)">
   <g transform="matrix(0,-1,1,0,-18.57,339.7)">
    <g transform="matrix(0 .83333 -.83333 0 515.27 721.57)">
     <g transform="translate(-1.948,-58.402)">
      <g transform="translate(-104.24,266.35)">
       <g transform="matrix(.53144 0 0 .53144 -246.19 170.4)">
        <g fill-rule="evenodd" stroke-opacity="0" transform="matrix(1.3003,0,0,1.0827,505.97,-61.51)">
         <path style="enable-background:new" fill="url(#radialGradient4847-7)" d="m-774.83 326.52c14.741 4.5899 0.75719 31.876-9.7609 43.068-14.381 15.876-44.845 19.823-61.911 0.34259-48.924-53.729 31.032-58.41 75.604-45.248z">
          <title fill="url(#a)">Left Engine Fire</title>
         </path>
         <path id="ng-engine" style="enable-background:new" fill="url(#radialGradient4845-5)" d="m-784.29 340.61c3.7839 1.5152 9.6219-13.058 11.748-11.245 17.626 15.032 7.4718 24.309-1.5153 36.605-23.217 39.005-59.828 37.595-83.312 0.78319-7.8627-11.542-18.099-15.446-4.5211-36.303 1.4517-2.23 9.6111 13.576 13.612 10.904 32.183 2.3277 34.573 1.3469 63.988-0.74489z">
          <title fill="url(#a)">Engine Fire</title>
         </path>
        </g>
       </g>
      </g>
     </g>
    </g>
   </g>
  </g>
 </g>
 <g transform="translate(323.84,14.681)">
  <g transform="translate(-303.83,-34.78)">
   <title>Layer 1</title>
  </g>
  <text font-size="40px" xml:space="preserve" style="word-spacing:0px;letter-spacing:0px" y="342.67395" x="1349.2291" line-height="125%"><tspan y="342.67395" x="1349.2291"/></text>
  <text font-size="13px" xml:space="preserve" style="word-spacing:0px;letter-spacing:0px" y="645.32385" x="1245.7273" line-height="125%"><tspan y="645.32385" x="1245.7273"/></text>
  <text font-size="6px" xml:space="preserve" style="word-spacing:0px;letter-spacing:0px" y="655.5575" x="1244.4314" line-height="125%"><tspan y="655.5575" x="1244.4314"/></text>
  <text style="word-spacing:0px;letter-spacing:0px" xml:space="preserve" font-size="40px" y="-338.88983" x="551.67181" font-family="Sans" line-height="125%" fill="#000000"><tspan y="-338.88983" x="551.67181"/></text>
  <text style="word-spacing:0px;letter-spacing:0px" font-family="Sans" xml:space="preserve" font-size="18px" y="8.6375732" x="903.0603" font-weight="bold" line-height="125%" fill="#000000"><tspan y="8.6375732" x="903.0603"/></text>
  <g transform="matrix(.96 0 0 .96 353.74 -292.32)">
   <text style="word-spacing:0px;letter-spacing:0px" xml:space="preserve" font-size="32.49px" transform="rotate(-90)" y="-740.2641" x="73.980637" line-height="125%"><tspan y="-740.2641" x="73.980637"/></text>
   <text style="word-spacing:0px;letter-spacing:0px" xml:space="preserve" font-size="10.559px" transform="rotate(-90)" y="-494.43677" x="-10.088734" line-height="125%"><tspan y="-494.43677" x="-10.088734"/></text>
   <text style="word-spacing:0px;letter-spacing:0px" xml:space="preserve" font-size="4.8735px" transform="rotate(-90)" y="-486.12445" x="-11.141315" line-height="125%"><tspan y="-486.12445" x="-11.141315"/></text>
   <g transform="matrix(-.20203 -.02302 .02302 -.20203 -420.8 439.17)">
    <text stroke-linejoin="round" font-size="41.822px" font-weight="100" fill="#a42b23" stroke-opacity=".98551" xml:space="preserve" style="word-spacing:0px;letter-spacing:0px" transform="rotate(173.51)" stroke="#e5e5e5" stroke-dasharray="31.09136276, 2.5909469" y="-532.00525" x="110.77794" font-family="Skia" line-height="125%" stroke-width="2.5909"><tspan y="-532.00525" x="110.77794" stroke-width="2.5909"/></text>
    <text style="word-spacing:0px;letter-spacing:0px" xml:space="preserve" font-size="61.474px" transform="matrix(-.99357 .1132 -.1132 -.99357 0 0)" y="-407.83047" x="134.32643" font-family="sans-serif" line-height="125%" fill="#000000"><tspan y="-407.83047" x="134.32643"/></text>
   </g>
   <g transform="translate(-581.43,229.79)">
    <g transform="matrix(1.44,0,0,1.44,-170.44,197.59)">
     <g transform="translate(.28545 194.76)">
      <g transform="matrix(.72338 0 0 .72338 315.66 -734.47)">
       <g transform="translate(91.178,356.87)">
        <text style="word-spacing:0px;letter-spacing:0px" xml:space="preserve" font-size="40px" y="445.81229" x="1182.8087" line-height="125%"><tspan y="445.81229" x="1182.8087"/></text>
        <text style="word-spacing:0px;letter-spacing:0px" xml:space="preserve" font-size="13px" y="748.46216" x="1079.3069" line-height="125%"><tspan y="748.46216" x="1079.3069"/></text>
        <text style="word-spacing:0px;letter-spacing:0px" xml:space="preserve" font-size="6px" y="758.6958" x="1078.011" line-height="125%"><tspan y="758.6958" x="1078.011"/></text>
       </g>
      </g>
     </g>
    </g>
   </g>
  </g>
  <g transform="matrix(1.2,0,0,1.2,-32.093,-35.81)">
   <g transform="matrix(0,-1,1,0,-18.57,339.7)">
    <g transform="matrix(0 .83333 -.83333 0 515.27 721.57)">
     <g transform="translate(-1.948,-58.402)">
      <g transform="translate(-104.24,266.35)">
       <g transform="translate(-112.11,-102.37)">
        <g transform="translate(39.856,269.37)">
         <title>Layer 1</title>
         <g transform="translate(83.388,-34.306)">
          <text stroke-linejoin="null" opacity=".5" style="text-anchor:middle" font-family="serif" xml:space="preserve" font-size="24px" stroke-linecap="null" y="217" x="264" stroke-width="0" fill="#000000"/>
          <text stroke-linejoin="null" opacity=".5" style="text-anchor:middle" font-family="serif" xml:space="preserve" font-size="24px" stroke-linecap="null" y="64" x="259" stroke-width="0" fill="#000000"/>
          <g transform="matrix(0,-1,1,0,-12.061,481.52)"></g>
         </g>
        </g>
       </g>
       <g transform="matrix(.53144 0 0 .53144 -246.19 170.4)">
        <text style="word-spacing:0px;letter-spacing:0px" xml:space="preserve" font-size="40px" transform="rotate(267.62)" y="-321.87924" x="931.90839" line-height="125%"><tspan y="-321.87924" x="931.90839"/></text>
        <text style="word-spacing:0px;letter-spacing:0px" xml:space="preserve" font-size="13px" transform="rotate(267.62)" y="-19.229946" x="828.40674" line-height="125%"><tspan y="-19.229946" x="828.40674"/></text>
        <text style="word-spacing:0px;letter-spacing:0px" xml:space="preserve" font-size="6px" transform="rotate(267.62)" y="-8.9963245" x="827.11084" line-height="125%"><tspan y="-8.9963245" x="827.11084"/></text>
        <text font-size="40px" xml:space="preserve" style="word-spacing:0px;letter-spacing:0px" transform="rotate(267.62)" y="-1003.4417" x="134.3526" font-family="Sans" line-height="125%" fill="#000000"><tspan y="-1003.4417" x="134.3526"/></text>
        <text font-size="18px" font-family="Sans" xml:space="preserve" style="word-spacing:0px;letter-spacing:0px" transform="rotate(267.62)" y="-655.91498" x="485.74042" font-weight="bold" line-height="125%" fill="#000000"><tspan y="-655.91498" x="485.74042"/></text>
        <text font-size="31.19px" xml:space="preserve" style="word-spacing:0px;letter-spacing:0px" transform="matrix(-.99914 .041353 -.041353 -.99914 0 0)" y="-843.72052" x="1037.9789" line-height="125%"><tspan y="-843.72052" x="1037.9789"/></text>
        <text font-size="10.137px" xml:space="preserve" style="word-spacing:0px;letter-spacing:0px" transform="matrix(-.99914 .041353 -.041353 -.99914 0 0)" y="-607.72675" x="957.2724" line-height="125%"><tspan y="-607.72675" x="957.2724"/></text>
        <text font-size="4.6786px" xml:space="preserve" style="word-spacing:0px;letter-spacing:0px" transform="matrix(-.99914 .041353 -.041353 -.99914 0 0)" y="-599.74689" x="956.26196" line-height="125%"><tspan y="-599.74689" x="956.26196"/></text>
        <text stroke-linejoin="round" style="word-spacing:0px;letter-spacing:0px" font-weight="100" fill="#a42b23" stroke-opacity=".98551" xml:space="preserve" font-size="8.1638px" transform="rotate(267.64)" stroke="#e5e5e5" stroke-dasharray="6.069139, 0.50576158" y="-649.10657" x="-515.51074" font-family="Skia" line-height="125%" stroke-width=".50575"><tspan y="-649.10657" x="-515.51074" stroke-width=".50575"/></text>
        <text style="word-spacing:0px;letter-spacing:0px" xml:space="preserve" font-size="12px" transform="matrix(-.041405 -.99914 .99914 -.041405 0 0)" y="-624.95917" x="-510.8205" font-family="sans-serif" line-height="125%" fill="#000000"><tspan y="-624.95917" x="-510.8205"/></text>
        <text style="word-spacing:0px;letter-spacing:0px" xml:space="preserve" font-size="40px" transform="rotate(267.62)" y="-270.37299" x="1094.402" line-height="125%"><tspan y="-270.37299" x="1094.402"/></text>
        <text style="word-spacing:0px;letter-spacing:0px" xml:space="preserve" font-size="13px" transform="rotate(267.62)" y="32.276463" x="990.90033" line-height="125%"><tspan y="32.276463" x="990.90033"/></text>
        <text style="word-spacing:0px;letter-spacing:0px" xml:space="preserve" font-size="6px" transform="rotate(267.62)" y="42.51009" x="989.60443" line-height="125%"><tspan y="42.51009" x="989.60443"/></text>
        <text font-size="40px" xml:space="preserve" style="word-spacing:0px;letter-spacing:0px" transform="rotate(267.62)" y="-951.93573" x="296.84589" font-family="Sans" line-height="125%" fill="#000000"><tspan y="-951.93573" x="296.84589"/></text>
        <text font-size="18px" font-family="Sans" xml:space="preserve" style="word-spacing:0px;letter-spacing:0px" transform="rotate(267.62)" y="-604.40887" x="648.23389" font-weight="bold" line-height="125%" fill="#000000"><tspan y="-604.40887" x="648.23389"/></text>
        <text style="word-spacing:0px;letter-spacing:0px" xml:space="preserve" font-size="31.19px" transform="matrix(-.99914 .041353 -.041353 -.99914 0 0)" y="-681.22797" x="986.47729" line-height="125%"><tspan y="-681.22797" x="986.47729"/></text>
        <text style="word-spacing:0px;letter-spacing:0px" xml:space="preserve" font-size="10.137px" transform="matrix(-.99914 .041353 -.041353 -.99914 0 0)" y="-445.2341" x="905.77081" line-height="125%"><tspan y="-445.2341" x="905.77081"/></text>
        <text style="word-spacing:0px;letter-spacing:0px" xml:space="preserve" font-size="4.6786px" transform="matrix(-.99914 .041353 -.041353 -.99914 0 0)" y="-437.25427" x="904.76031" line-height="125%"><tspan y="-437.25427" x="904.76031"/></text>
        <text stroke-linejoin="round" font-size="8.1638px" font-weight="100" fill="#a42b23" stroke-opacity=".98551" xml:space="preserve" style="word-spacing:0px;letter-spacing:0px" transform="rotate(267.64)" stroke="#e5e5e5" stroke-dasharray="6.06914211, 0.50576184" y="-597.6344" x="-353.0087" font-family="Skia" line-height="125%" stroke-width=".50575"><tspan y="-597.6344" x="-353.0087" stroke-width=".50575"/></text>
        <text font-size="12px" xml:space="preserve" style="word-spacing:0px;letter-spacing:0px" transform="matrix(-.041405 -.99914 .99914 -.041405 0 0)" y="-573.45911" x="-348.3273" font-family="sans-serif" line-height="125%" fill="#000000"><tspan y="-573.45911" x="-348.3273"/></text>
        <text style="word-spacing:0px;letter-spacing:0px" xml:space="preserve" font-size="55.296px" transform="rotate(267.62)" y="-226.63515" x="910.7052" line-height="125%"><tspan y="-226.63515" x="910.7052"/></text>
        <text style="word-spacing:0px;letter-spacing:0px" xml:space="preserve" font-size="17.971px" transform="rotate(267.62)" y="191.74745" x="767.62445" line-height="125%"><tspan y="191.74745" x="767.62445"/></text>
        <text style="word-spacing:0px;letter-spacing:0px" xml:space="preserve" font-size="8.2944px" transform="rotate(267.62)" y="205.89442" x="765.83301" line-height="125%"><tspan y="205.89442" x="765.83301"/></text>
        <text font-size="55.296px" xml:space="preserve" style="word-spacing:0px;letter-spacing:0px" transform="rotate(267.62)" y="-1168.8275" x="-191.83633" font-family="Sans" line-height="125%" fill="#000000"><tspan y="-1168.8275" x="-191.83633"/></text>
        <text font-size="24.883px" font-family="Sans" xml:space="preserve" style="word-spacing:0px;letter-spacing:0px" transform="rotate(267.62)" y="-688.40637" x="293.92242" font-weight="bold" line-height="125%" fill="#000000"><tspan y="-688.40637" x="293.92242"/></text>
        <text style="word-spacing:0px;letter-spacing:0px" xml:space="preserve" font-size="55.296px" transform="rotate(267.62)" y="-278.13708" x="748.21191" line-height="125%"><tspan y="-278.13708" x="748.21191"/></text>
        <text style="word-spacing:0px;letter-spacing:0px" xml:space="preserve" font-size="17.971px" transform="rotate(267.62)" y="140.24532" x="605.13129" line-height="125%"><tspan y="140.24532" x="605.13129"/></text>
        <text style="word-spacing:0px;letter-spacing:0px" xml:space="preserve" font-size="8.2944px" transform="rotate(267.62)" y="154.39227" x="603.33984" line-height="125%"><tspan y="154.39227" x="603.33984"/></text>
        <text font-size="55.296px" xml:space="preserve" style="word-spacing:0px;letter-spacing:0px" transform="rotate(267.62)" y="-1220.329" x="-354.32907" font-family="Sans" line-height="125%" fill="#000000"><tspan y="-1220.329" x="-354.32907"/></text>
        <text font-size="24.883px" font-family="Sans" xml:space="preserve" style="word-spacing:0px;letter-spacing:0px" transform="rotate(267.62)" y="-739.90808" x="131.42943" font-weight="bold" line-height="125%" fill="#000000"><tspan y="-739.90808" x="131.42943"/></text>
        <g transform="matrix(1.3003,0,0,1.0827,505.97,-61.51)">
         <path stroke="#1a1a1a" stroke-width="1.0192px" d="m-845.34 291.78c-7.674 11.264-7.7827 11.649-18.542 36.374l6.5297 17.196 18.232 11.541 37.563 1.5811 26.431-7.7054 7.8673-9.2158 5.7348-12.344c-13.437-26.12-13.615-26.475-25.255-37.057 0 0-19.38-1.9522-29.678-1.5045-10.298 0.44761-28.881 1.1362-28.881 1.1362z" fill="#1a1a1a"/>
         <g transform="matrix(1.4364 .12173 -.0844 1.4364 406.77 -92.792)" fill="#4d4d4d">
          <g stroke="#1a1a1a" stroke-width=".70779px">
           <path d="m-861.07 357.21c-12.444 15.055 5.9584 29.966 28.073 29.644 43.949-0.63986 44.946-27.489 36.534-33.381 5.1298 18.682-6.7414 27.72-35.752 29.65-20.662 1.375-35.786-11.015-28.856-25.914z"/>
           <path d="m-861.36 348.72c-9.7154 15.009 6.8412 28.966 27.949 28.745 42.1-0.44077 42.782-26.253 34.662-31.969 5.1052 18.02-6.1458 27.642-33.951 28.381-21.317 0.56674-31.849-10.475-28.661-25.155z"/>
           <path d="m-859.2 339.7c-11.605 13.452 5.109 27.88 25.413 28.377 40.351 0.9885 41.589-23.764 33.938-29.506 4.4841 17.432-6.5214 25.35-33.175 26.09-18.984 0.52705-32.718-11.456-26.176-24.962z"/>
           <path d="m-858.04 331.35c-11.112 12.881 4.8908 26.694 24.332 27.169 38.636 0.94415 39.823-22.756 32.497-28.253 4.2928 16.691-6.2455 24.272-31.767 24.982-18.178 0.50435-31.327-10.967-25.064-23.901z"/>
           <path d="m-858.16 333.38c-10.358 12.006 5.8449 16.835 23.966 17.276 36.012 0.87659 37.713-18.618 30.885-23.74 3.9996 15.555-6.4166 20.028-30.204 20.692-16.94 0.47416-32.251-2.2853-26.412-14.34z"/>
          </g>
         </g>
         <path d="m-757.54 308.23c-15.938 37.185-98.042 35.635-112.22-0.87148 2.7836-19.852 0.26538-32.347 12.784-31.357 37.912 2.9996 41.587 2.3807 85.213 2.0696 12.109-0.0864 10.478 10.169 14.233 30.159z" stroke-opacity=".77255" fill-rule="evenodd" stroke="#fff" stroke-width=".85638"/>
        </g>
        <g stroke="#8a8a8a" stroke-width=".75267" transform="translate(-137.55,-16.202)" fill="none">
         <path d="m-682.56 252.68h4.2992s1.5224-4.9794 0.67881-7.2408c-0.52326-1.4027-1.394-3.5652-2.9416-3.6204s-2.2161 2.1422-2.8284 3.6204c-0.92364 2.2299 0.79196 7.2408 0.79196 7.2408z"/>
         <path d="m-138.2 253.74h4.2992s1.5224-4.9794 0.67881-7.2408c-0.52326-1.4027-1.394-3.5652-2.9416-3.6204s-2.2161 2.1422-2.8284 3.6204c-0.92364 2.2299 0.79196 7.2408 0.79196 7.2408z"/>
        </g>
       </g>
       <text font-size="38.988px" xml:space="preserve" style="word-spacing:0px;letter-spacing:0px" transform="rotate(-90)" y="-601.42188" x="842.35059" line-height="125%"><tspan y="-601.42188" x="842.35059"/></text>
       <text font-size="12.671px" xml:space="preserve" style="word-spacing:0px;letter-spacing:0px" transform="rotate(-90)" y="-306.42911" x="741.46735" line-height="125%"><tspan y="-306.42911" x="741.46735"/></text>
       <text font-size="5.8482px" xml:space="preserve" style="word-spacing:0px;letter-spacing:0px" transform="rotate(-90)" y="-296.45432" x="740.20422" line-height="125%"><tspan y="-296.45432" x="740.20422"/></text>
       <text stroke-linejoin="round" font-size="10.205px" font-weight="100" fill="#a42b23" stroke-opacity=".98551" xml:space="preserve" style="word-spacing:0px;letter-spacing:0px" transform="rotate(.010445)" stroke="#e5e5e5" stroke-dasharray="7.58643908, 0.63220326" y="-356.34351" x="-191.07317" font-family="Skia" line-height="125%" stroke-width=".63219"><tspan y="-356.34351" x="-191.07317" stroke-width=".63219"/></text>
       <text font-size="15px" xml:space="preserve" style="word-spacing:0px;letter-spacing:0px" transform="rotate(.00061582)" y="-326.08145" x="-185.28842" font-family="sans-serif" line-height="125%" fill="#000000"><tspan y="-326.08145" x="-185.28842"/></text>
       <text style="word-spacing:0px;letter-spacing:0px" font-family="Sans" xml:space="preserve" font-size="23.814px" y="-253.80714" x="-371.86285" font-weight="bold" line-height="125%" fill="#000000"><tspan y="-253.80714" x="-371.86285"/></text>
       <text font-size="40px" xml:space="preserve" style="word-spacing:0px;letter-spacing:0px" y="172.99326" x="512.35272" line-height="125%"><tspan y="172.99326" x="512.35272"/></text>
       <text font-size="13px" xml:space="preserve" style="word-spacing:0px;letter-spacing:0px" y="475.63998" x="408.85196" line-height="125%"><tspan y="475.63998" x="408.85196"/></text>
       <text font-size="5.9999px" xml:space="preserve" style="word-spacing:0px;letter-spacing:0px" y="485.87354" x="407.55609" line-height="125%"><tspan y="485.87354" x="407.55609"/></text>
       <text font-size="40px" xml:space="preserve" style="word-spacing:0px;letter-spacing:0px" y="-508.56342" x="-285.19626" font-family="Sans" line-height="125%" fill="#000000"><tspan y="-508.56342" x="-285.19626"/></text>
       <text font-size="18px" font-family="Sans" xml:space="preserve" style="word-spacing:0px;letter-spacing:0px" y="-161.03963" x="66.188553" font-weight="bold" line-height="125%" fill="#000000"><tspan y="-161.03963" x="66.188553"/></text>
       <text font-size="31.19px" xml:space="preserve" style="word-spacing:0px;letter-spacing:0px" transform="rotate(-90)" y="-1263.2614" x="543.10461" line-height="125%"><tspan y="-1263.2614" x="543.10461"/></text>
       <text font-size="10.137px" xml:space="preserve" style="word-spacing:0px;letter-spacing:0px" transform="rotate(-90)" y="-1027.2697" x="462.39886" line-height="125%"><tspan y="-1027.2697" x="462.39886"/></text>
       <text font-size="4.6785px" xml:space="preserve" style="word-spacing:0px;letter-spacing:0px" transform="rotate(-90)" y="-1019.2899" x="461.3884" line-height="125%"><tspan y="-1019.2899" x="461.3884"/></text>
       <g transform="matrix(-.19395 -.022099 .022099 -.19395 -956.58 -50.485)">
        <text stroke-linejoin="round" font-size="41.822px" font-weight="100" fill="#a42b23" stroke-opacity=".98551" xml:space="preserve" style="word-spacing:0px;letter-spacing:0px" transform="rotate(173.51)" stroke="#e5e5e5" stroke-dasharray="31.09136276, 2.5909469" y="-532.00525" x="110.77794" font-family="Skia" line-height="125%" stroke-width="2.5909"><tspan y="-532.00525" x="110.77794" stroke-width="2.5909"/></text>
        <text font-size="61.474px" xml:space="preserve" style="word-spacing:0px;letter-spacing:0px" transform="matrix(-.99357 .1132 -.1132 -.99357 0 0)" y="-407.83047" x="134.32643" font-family="sans-serif" line-height="125%" fill="#000000"><tspan y="-407.83047" x="134.32643"/></text>
       </g>
       <text font-size="40px" xml:space="preserve" style="word-spacing:0px;letter-spacing:0px" y="-96.531677" x="153.28099" font-family="sans-serif" line-height="125%" fill="#f9f9f9"><tspan y="-96.531677" x="153.28099"/></text>
      </g>
     </g>
    </g>
    <ellipse id="ng-left-light" rx="8.8678" ry="8.7583" transform="rotate(90)" cy="-98.601" cx="65.422" fill="url(#radialGradient21824)">
     <title>Left Light</title>
    </ellipse>
    <path d="m95.321 55.543-0.6193 257.63-11.457-7.122s4.597-81.411 4.6448-122c0.03036-25.795-1.7285-67.825-3.0149-95.038-0.206-4.334-0.399-8.294-0.571-11.752-0.229-4.608-0.42-8.326-0.552-10.855-0.126-2.407-0.198-3.738-0.198-3.738z" stroke-opacity=".77255" fill-rule="evenodd" stroke="#fff" stroke-width=".45"/>
    <ellipse id="ng-right-light" rx="8.8678" transform="rotate(90)" ry="8.7583" cy="-98.382" cx="306.5" fill="url(#radialGradient23351)">
     <title>Right Light</title>
    </ellipse>
   </g>
  </g>
 </g>
</svg>
