<svg xmlns:rdf="http://www.w3.org/1999/02/22-rdf-syntax-ns#" xmlns="http://www.w3.org/2000/svg" height="800" width="600" version="1.1" xmlns:cc="http://creativecommons.org/ns#" xmlns:xlink="http://www.w3.org/1999/xlink" viewBox="0 0 600.00005 800.00002" xmlns:dc="http://purl.org/dc/elements/1.1/">
 <defs>
  <linearGradient id="h" y2="-141.78" gradientUnits="userSpaceOnUse" y1="-216.09" gradientTransform="matrix(1.1658 -.094687 .51947 1.3531 -274.91 -59.781)" x2="531.87" x1="550.87">
   <stop stop-opacity=".55838" stop-color="#009dd4" offset="0"/>
   <stop stop-opacity=".36041" stop-color="#a792dc" offset=".22559"/>
   <stop stop-opacity=".38039" stop-color="#f9fafa" offset=".43045"/>
   <stop stop-opacity=".15897" stop-color="#e5eff2" offset=".75111"/>
   <stop stop-color="#fff" stop-opacity=".030769" offset="1"/>
  </linearGradient>
  <linearGradient id="a">
   <stop stop-color="#ef2929" offset="0"/>
   <stop stop-opacity="0" stop-color="#ef2929" offset="1"/>
  </linearGradient>
  <filter id="o" style="color-interpolation-filters:sRGB" height="1.8308" width="1.1445" y="-.41538" x="-.072241">
   <feGaussianBlur stdDeviation="1.0680774"/>
  </filter>
  <linearGradient id="b" y2="70.875" gradientUnits="userSpaceOnUse" x2="107" y1="70.875" x1="21">
   <stop stop-color="#747474" offset="0"/>
   <stop stop-color="#B6B6B6" offset=".1224"/>
   <stop stop-color="#F3F3F3" offset=".27857"/>
   <stop stop-color="#cbcbcb" offset=".47812"/>
   <stop stop-color="#fff" offset=".6568"/>
   <stop stop-color="#F1F1F1" offset=".7202"/>
   <stop stop-color="#bbb" offset=".8387"/>
   <stop stop-color="#646464" offset="1"/>
  </linearGradient>
  <filter id="n" style="color-interpolation-filters:sRGB">
   <feGaussianBlur stdDeviation="4.6264466"/>
  </filter>
  <linearGradient id="s" x1="46.449" gradientUnits="userSpaceOnUse" y1="132.18" gradientTransform="matrix(2.0578,0,0,1.7819,229.63,139.63)" x2="47.911" y2="114.82">
   <stop stop-color="#1f1f1f" offset="0"/>
   <stop stop-opacity="0" stop-color="#1f1f1f" offset="1"/>
  </linearGradient>
  <linearGradient id="r" x1="49.834" gradientUnits="userSpaceOnUse" y1="119.69" gradientTransform="matrix(2.0578,0,0,1.7819,226.34,138.2)" x2="46.901" y2="119.69">
   <stop stop-color="#1f1f1f" offset="0"/>
   <stop stop-opacity="0" stop-color="#1f1f1f" offset="1"/>
  </linearGradient>
  <linearGradient id="q" x1="-112.72" gradientUnits="userSpaceOnUse" y1="-110.77" gradientTransform="matrix(1.7819,0,0,2.0578,-139.63,-229.91)" x2="-112.72" y2="-105.82">
   <stop offset="0"/>
   <stop stop-opacity="0" offset="1"/>
  </linearGradient>
  <linearGradient id="p" x1="-120.92" gradientUnits="userSpaceOnUse" y1="-116.7" gradientTransform="matrix(1.7819,0,0,2.0578,-138.2,-215.23)" x2="-121.06" y2="-111.32">
   <stop stop-color="#fff" offset="0"/>
   <stop stop-opacity="0" stop-color="#fff" offset="1"/>
  </linearGradient>
  <linearGradient id="t" x1="-117.58" gradientUnits="userSpaceOnUse" y1="-13.914" gradientTransform="matrix(1.7819,0,0,2.0578,-138.2,-239.92)" x2="-117.58" y2="-16.793">
   <stop stop-color="#2b2b2b" offset="0"/>
   <stop stop-opacity="0" stop-color="#2b2b2b" offset="1"/>
  </linearGradient>
  <style type="text/css">.str0 {stroke:#1F1A17;stroke-width:0.00710253}
    .str1 {stroke:#DEDEDD;stroke-width:0.0426112}
    .fil2 {fill:none}
    .fil5 {fill:#00923F}
    .fil0 {fill:#1F1A17}
    .fil3 {fill:#00923F;fill-rule:nonzero}
    .fil4 {fill:#2AAD78;fill-rule:nonzero}
    .fil1 {fill:white;fill-rule:nonzero}</style>
  <style type="text/css">.str0 {stroke:#4D4948;stroke-width:0.147924}
    .str2 {stroke:#582E3A;stroke-width:0.29589}
    .str3 {stroke:#582E3A;stroke-width:0.29589;stroke-linecap:round}
    .str1 {stroke:#E77817;stroke-width:0.591821;stroke-linecap:round}
    .fil2 {fill:none}
    .fil1 {fill:#4D4948}
    .fil5 {fill:#582E3A}
    .fil3 {fill:#DEDEDD}
    .fil4 {fill:#582E3A;fill-rule:nonzero}
    .fil0 {fill:black;fill-rule:nonzero}</style>
  <style type="text/css">.str0 {stroke:#4D4948;stroke-width:0.147924}
    .str2 {stroke:#582E3A;stroke-width:0.29589}
    .str3 {stroke:#582E3A;stroke-width:0.29589;stroke-linecap:round}
    .str1 {stroke:#E77817;stroke-width:0.591821;stroke-linecap:round}
    .fil2 {fill:none}
    .fil1 {fill:#4D4948}
    .fil5 {fill:#582E3A}
    .fil3 {fill:#DEDEDD}
    .fil4 {fill:#582E3A;fill-rule:nonzero}
    .fil0 {fill:black;fill-rule:nonzero}</style>
  <radialGradient id="l" gradientUnits="userSpaceOnUse" cy="44.565" cx="30.204" gradientTransform="matrix(1.5677 0 0 .5306 -22.257 20.223)" r="6.566">
   <stop offset="0"/>
   <stop stop-opacity="0" offset="1"/>
  </radialGradient>
  <linearGradient id="i" x1="38.357" xlink:href="#b" gradientUnits="userSpaceOnUse" y1="86.917" gradientTransform="matrix(2.2738 0 0 .14782 -449.83 -290.68)" x2="48.093" y2="86.917"/>
  <linearGradient id="j" x1="38.357" xlink:href="#b" gradientUnits="userSpaceOnUse" y1="86.917" gradientTransform="matrix(2.2738 0 0 .14782 -449.83 -398.4)" x2="48.093" y2="86.917"/>
  <linearGradient id="k" x1="38.357" gradientUnits="userSpaceOnUse" y1="86.917" gradientTransform="matrix(3.9612 0 0 .1625 -522.29 -345.3)" x2="48.093" y2="86.917">
   <stop stop-color="#5e5e5e" offset="0"/>
   <stop stop-color="#dedede" offset=".75902"/>
   <stop stop-color="#8d8d8d" offset=".9338"/>
   <stop stop-color="#616161" offset="1"/>
  </linearGradient>
  <radialGradient id="m" gradientUnits="userSpaceOnUse" cy="105.82" cx="64.71" gradientTransform="matrix(3.3252 -.020116 .0057021 .94255 147.02 236.54)" r="12.247">
   <stop stop-opacity="0" stop-color="#87b7ff" offset="0"/>
   <stop stop-opacity="0" stop-color="#87b7ff" offset=".40385"/>
   <stop stop-opacity=".49804" stop-color="#87b7ff" offset="0"/>
   <stop stop-opacity="0" stop-color="#87b7ff" offset="1"/>
  </radialGradient>
  <linearGradient id="f" y2="425.82" gradientUnits="userSpaceOnUse" x2="351.85" y1="453.35" x1="183.04">
   <stop stop-color="#fff" offset="0"/>
   <stop stop-color="#f1d37d" stop-opacity=".29744" offset="1"/>
  </linearGradient>
  <radialGradient id="e" gradientUnits="userSpaceOnUse" cy="96.2" cx="64.025" gradientTransform="matrix(1 0 0 .19656 0 77.292)" r="18.242">
   <stop offset="0"/>
   <stop stop-opacity=".27692" offset="1"/>
  </radialGradient>
  <radialGradient id="d" xlink:href="#a" gradientUnits="userSpaceOnUse" cy="16.049" cx="27.577" gradientTransform="matrix(2.9624,0,0,2.9624,-56.916,-33.346)" r="3.8335"/>
  <radialGradient id="c" xlink:href="#a" gradientUnits="userSpaceOnUse" cy="15.048" cx="27.577" gradientTransform="matrix(5.7917,0,0,5.7917,-134.94,-84.193)" r="3.8335"/>
  <linearGradient id="g" y2="28.512" gradientUnits="userSpaceOnUse" x2="487.67" gradientTransform="translate(0 -290.88)" y1="349.42" x1="81.912">
   <stop stop-color="#000a15" offset="0"/>
   <stop stop-color="#1c4e6e" offset=".65386"/>
   <stop stop-color="#6d5f72" stop-opacity=".97647" offset=".92339"/>
   <stop stop-color="#b66745" offset="1"/>
  </linearGradient>
 </defs>
 <g transform="translate(0 -252.36)">
  <g transform="matrix(.99999 0 0 .99999 2.8372 503.25)">
   <g fill-rule="evenodd" transform="translate(0 221.42)">
    <path d="m-2.8372-260.15s113.76 5.8916 311.87 49.61c209.28 46.184 288.14 77.454 288.14 77.454-0.0228 188.7 0.007 460.78 0.007 460.78h-600.01z" fill="url(#g)"/>
    <path fill="url(#h)" d="m-93.067-449.95s152.64 25.464 400.6 63.977c245.14 38.074 371.8 63.252 371.8 63.252 61.399 160 24.351 71.026 38.38 106.41 150.26 378.98-791.28-182.87-791.28-182.87z"/>
   </g>
   <text font-size="69.123px" xml:space="preserve" style="word-spacing:0px;letter-spacing:0px" transform="matrix(1.0073 .00071816 -.0013018 .99277 0 0)" y="867.98224" x="1245.6998" line-height="125%" fill="#e8c122"><tspan y="867.98224" x="1245.6998" fill="#e8c122"/></text>
   <g transform="matrix(.19154 .085419 -.085419 .19154 -642.6 448.62)">
    <title>Layer 1</title>
   </g>
   <text font-size="8.3889px" xml:space="preserve" style="word-spacing:0px;letter-spacing:0px" transform="rotate(24.035)" y="750.60248" x="-57.473526" line-height="125%"><tspan y="750.60248" x="-57.473526"/></text>
   <text font-size="2.7264px" xml:space="preserve" style="word-spacing:0px;letter-spacing:0px" transform="rotate(24.035)" y="814.07471" x="-79.18013" line-height="125%"><tspan y="814.07471" x="-79.18013"/></text>
   <text font-size="1.2583px" xml:space="preserve" style="word-spacing:0px;letter-spacing:0px" transform="rotate(24.035)" y="816.22095" x="-79.45192" line-height="125%"><tspan y="816.22095" x="-79.45192"/></text>
   <text font-size="8.3889px" xml:space="preserve" style="word-spacing:0px;letter-spacing:0px" transform="rotate(24.035)" y="607.66376" x="-224.7386" font-family="Sans" line-height="125%" fill="#000000"><tspan y="607.66376" x="-224.7386"/></text>
   <text font-size="3.775px" font-family="Sans" xml:space="preserve" style="word-spacing:0px;letter-spacing:0px" transform="rotate(24.035)" y="680.54779" x="-151.04482" font-weight="bold" line-height="125%" fill="#000000"><tspan y="680.54779" x="-151.04482"/></text>
   <g transform="translate(-1174.8 -465.19)">
    <g transform="matrix(1.5879 -.12147 .12147 1.5879 567.06 145.11)">
     <rect opacity=".63736" transform="matrix(4.551 .81685 -.6883 3.8348 230.67 -145.02)" rx="0" ry="0" height="6.1711" filter="url(#o)" width="32.968" y="93.115" x="47.458" fill="url(#e)"/>
     <path d="m241.91 356.29c-29.01 0-52.56 23.55-52.56 52.56 0 4.46 0.55 8.78 1.6 12.91-10.57 2.01-18.57 11.29-18.57 22.44 0 12.62 10.26 22.87 22.88 22.87 8.95 0 16.69-5.18 20.43-12.68 7.72 4.45 16.68 7.03 26.22 7.03 17.78 0 33.46-8.86 42.97-22.38 5.61 3.42 12.21 5.41 19.25 5.41 9.47 0 18.11-3.58 24.66-9.44 3.86 5.69 10.39 9.44 17.78 9.44 11.84 0 21.44-9.63 21.44-21.47s-9.6-21.44-21.44-21.44c-2.01 0-3.97 0.3-5.81 0.81-2.48-18.02-17.93-31.9-36.63-31.9-7.64 0-14.76 2.3-20.65 6.28-9.62-12.42-24.65-20.44-41.57-20.44z" transform="matrix(.78858 .21750 -.17843 .23302 316.17 95.274)" fill="url(#f)"/>
     <g transform="matrix(.027369 .0058815 -.0058815 .027369 407.59 202.55)">
      <g transform="translate(-57.601,419.87)">
       <path d="m221.4 595.84v248.19c1251.5 127.07 3003.5 35.207 3777.3 0.006v-248.19z" fill-rule="evenodd" stroke="#000" stroke-width="1.3595px"/>
      </g>
      <g fill="#4e3118" transform="translate(-57.601,419.87)">
       <path fill="#4e3118" d="m942-649.44v8.7061h-8.681v2.5922h8.681v6.3094h-16.613v2.8857h16.613v6.9453h-8.681v2.5923h8.681v19.76c-5.3765 0.75379-9.5183 5.7048-9.5183 11.885 0 5.5282 3.2894 10.223 7.8438 11.69l-9.0335 55.122-167.67 92.783-0.35253 1054.6h1025.1v-1064.2l-143.35-85.887-8.4607-52.432c4.4523-1.5371 7.7115-6.1442 7.7115-11.592 0-6.1804-4.1735-11.131-9.5623-11.885v-19.76h8.637v-2.5923h-8.637v-6.9453h16.569v-2.8857h-16.569v-6.3094h8.637v-2.5922h-8.637v-8.7061h-2.8203v8.7061h-8.6811v2.5922h8.6811v6.3094h-16.569v2.8857h16.569v6.9453h-8.6811v2.5923h8.6811v19.76c-5.3765 0.75379-9.5183 5.7048-9.5183 11.885 0 5.5282 3.2894 10.223 7.8438 11.69l-8.6811 52.53-151.41 86.18v562.96l-188.82-136.02-182.7 129.27v-547.06l-143.08-92.832-8.8132-55.122c4.4524-1.5371 7.7117-6.1442 7.7117-11.592 0-6.1804-4.2177-11.131-9.6064-11.885v-19.76h8.681v-2.5923h-8.681v-6.9453h16.613v-2.8857h-16.613v-6.3094h8.681v-2.5922h-8.681v-8.7061h-2.7762zm530.78 213.45a1.424 1.5805 0 0 1 0.044 0 1.4163 1.572 0 0 1 0.1325 0 1.4103 1.5653 0 0 1 0.2644 0h311.9a1.4103 1.5653 0 1 1 0 3.1303h-311.9a1.4272 1.5841 0 0 1 -0.4406 -3.1303zm-705.15 8.2659a1.4117 1.5669 0 0 1 0.13255 0 1.4103 1.5653 0 0 1 0.13255 0h324.59a1.4103 1.5653 0 1 1 0 3.1303h-324.59a1.4163 1.572 0 0 1 -0.26439 -3.1303zm903.84 20.347c13.309 0 24.148 12.031 24.148 26.803v100.32h-48.208v-100.32c0-14.772 10.751-26.803 24.06-26.803zm-80.994 0.29346c13.309 0 24.148 12.031 24.148 26.803v100.32h-48.164v-100.32c0-14.772 10.707-26.803 24.016-26.803zm-699.55 7.1409c13.309 0 24.148 12.031 24.148 26.803v100.32h-48.208v-100.32c0-14.772 10.751-26.803 24.06-26.803zm80.509 0.29346c13.309 0 24.148 12.031 24.148 26.803v100.32h-48.208v-100.32c0-14.772 10.751-26.803 24.06-26.803zm698.27 153.19c13.309 0 24.104 12.031 24.104 26.803v100.32h-48.164v-100.32c0-14.772 10.751-26.803 24.06-26.803zm-80.994 0.24455c13.309 0 24.148 11.982 24.148 26.754v100.36h-48.208v-100.36c0-14.772 10.751-26.754 24.06-26.754zm-699.55 7.092c13.309 0 24.104 12.031 24.104 26.803v100.32h-48.164v-100.32c0-14.772 10.751-26.803 24.06-26.803zm81.082 0.34237c13.309 0 24.104 12.031 24.104 26.803v100.32h-48.164v-100.32c0-14.772 10.751-26.803 24.06-26.803zm311.02 248.66 245.93 177.59-2.1152 3.6193-243.82-176.08-243.86 176.08-2.1152-3.6193 245.98-177.59zm-0.6169 173.44c6.3389 0 11.545 5.7788 11.545 12.814 0 7.0358-5.2064 12.717-11.545 12.717-6.339 0-11.457-5.6809-11.457-12.717 0-7.0357 5.1183-12.814 11.457-12.814zm-60.856 18.195c3.8777 0.103 7.6147 2.4086 9.6946 6.4072 3.1695 6.0932 1.3034 13.894-4.1862 17.412-5.4898 3.5178-12.518 1.3977-15.688-4.6954-3.1695-6.0932-1.3034-13.845 4.1862-17.363 1.3725-0.8794 2.839-1.4591 4.3185-1.6629 0.5549-0.077 1.1206-0.1129 1.6745-0.098zm121.23 0.098c2.2051-0.1732 4.4631 0.3437 6.5218 1.6629 5.4896 3.5179 7.3557 11.27 4.1862 17.363-3.1694 6.0932-10.154 8.2133-15.643 4.6954-5.4898-3.5178-7.3558-11.319-4.1864-17.412 1.9809-3.8082 5.4464-6.0211 9.1218-6.3094zm45.829 49.546c3.8775 0.1028 7.6146 2.4086 9.6945 6.4072 3.1694 6.0932 1.2153 13.894-4.2745 17.412-5.4896 3.5179-12.474 1.3977-15.643-4.6954-3.1695-6.0932-1.3034-13.845 4.1862-17.363 1.3725-0.8794 2.883-1.4591 4.3626-1.6629 0.5548-0.077 1.1205-0.113 1.6746-0.098zm-212.93 0.098c2.2051-0.173 4.5513 0.3437 6.6099 1.6629 5.4896 3.5179 7.3997 11.27 4.2304 17.363-3.1696 6.0932-10.286 8.2133-15.776 4.6954-5.4897-3.5178-7.3557-11.319-4.1863-17.412 1.9809-3.8082 5.4464-6.0212 9.1218-6.3094zm-15.556 67.888c6.3389 0 11.457 5.681 11.457 12.717 0 7.0357-5.1183 12.717-11.457 12.717-6.3389 0-11.457-5.681-11.457-12.717 0-7.0357 5.1183-12.717 11.457-12.717zm244.61 0c6.3389 0 11.457 5.681 11.457 12.717 0 7.0357-5.1183 12.717-11.457 12.717-6.3389 0-11.457-5.681-11.457-12.717 0-7.0357 5.1183-12.717 11.457-12.717zm-229.06 67.839c0.5627-0.044 1.1231-0.043 1.6745 0 3.6753 0.2883 7.1848 2.5012 9.1658 6.3094 3.1693 6.0932 1.2592 13.943-4.2304 17.461-5.4897 3.5178-12.562 1.4466-15.732-4.6465-3.1694-6.0932-1.3034-13.943 4.1863-17.461 1.544-0.9894 3.247-1.531 4.9355-1.6629zm211.83 0c2.2053-0.1732 4.4632 0.3437 6.5218 1.6629 5.4898 3.5179 7.4439 11.368 4.2745 17.461-3.1695 6.0931-10.242 8.1643-15.732 4.6465-5.4896-3.5179-7.3557-11.368-4.1862-17.461 1.9809-3.8082 5.4463-6.0211 9.1216-6.3094zm-43.978 49.595c0.2812 0.001 0.5617 0.027 0.8374 0.049 3.6752 0.2883 7.1407 2.599 9.1216 6.4073 3.1695 6.0931 1.3034 13.845-4.1862 17.363-5.4898 3.5178-12.474 1.4466-15.644-4.6465-3.1694-6.0932-1.3034-13.845 4.1864-17.363 1.5439-0.9894 3.1849-1.5998 4.8472-1.7608 0.277-0.027 0.5561-0.05 0.8372-0.049zm-122.99 0.049c2.2051-0.173 4.4631 0.4416 6.5218 1.7608 5.4896 3.5178 7.3557 11.27 4.1862 17.363-3.1694 6.0931-10.198 8.1643-15.688 4.6465-5.4896-3.5179-7.3557-11.27-4.1862-17.363 1.9809-3.8083 5.4904-6.119 9.1658-6.4073zm61.869 18.195c6.3389 0 11.545 5.6809 11.545 12.717 0 7.0357-5.2064 12.717-11.545 12.717-6.339 0-11.457-5.681-11.457-12.717 0-7.0358 5.1183-12.717 11.457-12.717z"/>
      </g>
      <g transform="translate(-57.601,419.87)">
       <g transform="matrix(1.4101,0,0,1.5651,-482.06,-603.81)">
        <path d="m523.59 638.82c-40.63 0-73.571 32.936-73.571 73.566 0 31.712 20.07 58.739 48.197 69.075h50.746c28.128-10.336 48.193-37.362 48.193-69.075 0-40.63-32.936-73.566-73.566-73.566z"/>
        <path d="m451.43 712.1s22.241 5.6358 72.163 5.6358 72.163-5.6358 72.163-5.6358" stroke="#fff" stroke-linecap="round" stroke-width="3"/>
       </g>
       <g transform="matrix(1.4101,0,0,1.5651,-480.06,-603.81)">
        <path d="m607.85 600.74c-55.24 0-100.03 44.779-100.03 100.02 0 43.116 27.287 79.861 65.529 93.914h68.994c38.242-14.052 65.522-50.797 65.522-93.914 0-55.24-44.779-100.02-100.02-100.02z"/>
        <path d="m509.74 700.37s30.239 7.6624 98.113 7.6624 98.113-7.6624 98.113-7.6624" stroke="#fff" stroke-linecap="round" stroke-width="4"/>
       </g>
      </g>
      <g transform="translate(-57.601,419.87)">
       <path fill="#3b2d43" d="m3208-225.39c-0.5713 0.86662 0.2318 10.779-0.089 17.119-0.1128 2.2328 0.517 4.0596-0.793 4.0596-1.4363 0-2.7681-1.9974-1.9389-3.7172 0.2541-0.52714 0.9793-1.7893 0.8372-2.2009-0.2204-0.63686-0.4188-0.59945-1.322 0.34229-1.9099 2.4026-0.8568 6.3066 2.3796 7.3854 0.7349 0.25888 0.8371 0.70369 0.8371 3.1303 0 1.5421 0.1199 2.3773-0.4846 3.3749-0.021 0.0351-0.065 0.0621-0.087 0.0978-0.7348 0.60258-1.2339 1.5493-1.2339 2.6412 0 1.2642 0.6475 2.3288 1.5864 2.8856 0.1283 0.2152 0.2203 0.4553 0.2203 0.83155 0 1.7769-4.1421 8.9995-4.1421 8.9995s-92.847 149.35-94.126 159.3c-1.2784 9.9499 5.4544 10.841 7.9319 13.842l-0.1762 618.62 190.28-0.2447c-0.1044-177.73-1.117-398.42-4.715-618.18 2.9401-3.1855 8.6801-6.3504 7.4031-13.891-1.277-7.5404-96.593-159.84-96.593-159.84s-3.3415-4.7065-3.5694-8.6082c-0.025-0.43729 0.164-0.66314 0.3967-0.88038 0.8831-0.57425 1.4542-1.6187 1.4542-2.8368 0-1.4077-0.7785-2.6523-1.8949-3.1303-0.1995-0.60649-0.083-1.2828-0.087-1.7118-0.014-1.2729-0.6817-3.3793 2.027-4.1085 2.5217-0.74062 5.9655-2.8417 6.6541-4.2553 0.6877-1.4136-4.1427 2.4299-6.2134 2.739-0.8007 0.11958-1.7717 0.49583-1.7627-1.8586 0.014-2.3544 1.1718-1.7661 2.9965-1.8586 0.6117 0.11395 2.0361-9.3925 0.3526-9.1952-1.5207 0.3376-5.3321-0.8555-5.3321-2.739l-0.1326-2.7878 4.2745 1.027 0.044-2.8368-4.9794-1.5162zm-0.7933 171.92c42.731 0.0286 66.59 6.3354 79.98 13.01 13.39 6.6748 16.31 13.908 16.745 15.211 1.425 4.2689 1.432 7.6992 1.0576 10.075-0.3743 2.3764-1.1899 3.8152-1.1899 3.8152-0.3615 0.64906-1.2334 0.8616-1.8066 0.44011-0.5734-0.42149-0.7502-1.3826-0.3526-2.0052 0 0 0.537-0.8314 0.8374-2.739 0.3006-1.9078 0.304-4.7444-0.9696-8.5594-0.2664-0.79807-2.4816-7.217-15.379-13.646s-36.419-12.688-78.923-12.717c-35.618-0.0236-57.739 6.1685-71.079 12.521-6.67 3.1764-11.151 6.3878-14.057 8.9019-1.453 1.257-2.5173 2.3108-3.2607 3.1303-0.7433 0.81935-1.0999 1.3149-1.4102 1.6628-2.5858 2.9007-2.6265 5.6999-2.1151 8.0213 0.5107 2.3216 1.6303 3.9618 1.6303 3.9618 0.4798 0.57581 0.4212 1.6157-0.1325 2.1031-0.5536 0.48754-1.4548 0.30708-1.8507-0.3423 0 0-1.503-2.0569-2.1593-5.0377-0.6561-2.981-0.4246-7.1212 2.7761-10.711 0.096-0.10675 0.647-0.77302 1.4543-1.663 0.8071-0.88994 1.9417-2.0428 3.4811-3.3749 3.0799-2.6639 7.7656-6.0239 14.63-9.2928 13.729-6.5382 36.205-12.79 72.092-12.766zm74.252 47.883 6.0372 0.92938v25.482l-6.0372-0.92922v-25.482zm-153.09 87.794v23.232l-4.1864 2.69v-22.939l0.089-0.1466 4.0981-2.8368zm94.169 52.138h12.779l-0.2645 23.966-12.515-0.1468v-23.819zm60.767 70.186 5.993 0.9782v25.482l-5.993-0.9782v-25.482zm-153.88 6.3585v23.183l-4.2303 2.6901v-22.89l0.1325-0.1469 4.0981-2.8366zm93.949 111.08h12.779l-0.2644 23.966-12.515-0.1468v-23.819zm63.367 76.349 5.993 0.9782v25.482l-5.993-0.9782v-25.482zm-95.271 81.778h14.586v25.482h-14.586v-25.482zm-73.635 83.735h187.99s-63.206 2.0484-93.509 2.0541c-30.799 0.01-94.478-2.0541-94.478-2.0541z"/>
      </g>
      <g transform="translate(-57.601,419.87)">
       <g transform="matrix(1.4101,0,0,1.5651,-800.84,-594.06)">
        <rect transform="matrix(1 .0022234 -.027851 .99961 0 0)" height="289.58" width="268.04" y="474.94" x="1900.8" fill="#c2a517"/>
        <path fill="#21343a" d="m1959.7 201.79c-1.9231 0-3.5 1.5767-3.5 3.5 0 1.1662 0.5888 2.1804 1.4687 2.8125l-0.25 2.5625-0.7187-0.0312 0.375 0.8125-0.4688 0.625 0.6562 0.125-0.2187 2.4062-0.75-0.0625 0.375 0.84375-0.4687 0.59375-0.031 0.0312 0.7187 0.125-0.2187 2.375-0.625-0.0312 0.375 0.8125-0.5 0.625 0.5937 0.125-0.2187 2.4062-0.5937-0.0625 0.375 0.84375-0.5 0.59375v0.0312l0.5624 0.0937-0.2187 2.4062-0.625-0.0312 0.375 0.8125-0.4687 0.625 0.5624 0.125-0.1562 1.8125-2.5 9.6875h1.5312v165.81h-27.687v-34.625h1.625l-2.625-9.75-0.125-1.8125 0.7187-0.125v-0.0312l-0.5-0.59375 0.375-0.84375-0.7187 0.0625-0.2188-2.4062 0.6562-0.125-0.4687-0.625 0.375-0.8125-0.6563 0.0312-0.2187-2.4062 0.6563-0.0937-0.031-0.0312-0.4687-0.59375 0.375-0.84375-0.625 0.0625-0.2188-2.4062 0.6875-0.125-0.5-0.625 0.375-0.8125-0.6875 0.0312-0.1875-2.375 0.75-0.125-0.031-0.0312-0.4687-0.59375 0.375-0.84375-0.75 0.0625-0.1875-2.5c0.8842-0.63155 1.4688-1.643 1.4688-2.8125v-0.0312c-0.019-1.9096-1.5901-3.4688-3.5-3.4688-1.9233 0-3.4688 1.5767-3.4688 3.5 0 1.1662 0.5891 2.1804 1.4688 2.8125l-0.25 2.5625-0.7188-0.0625 0.375 0.84375-0.5 0.59375v0.0312l0.6875 0.125-0.2187 2.4062-0.75-0.0625 0.375 0.84375-0.5 0.59375v0.0312l0.7187 0.125-0.2187 2.375-0.6563-0.0312 0.375 0.8125-0.4687 0.59375-0.031 0.0312 0.625 0.125-0.2187 2.4062-0.625-0.0625 0.375 0.84375-0.4688 0.59375-0.031 0.0312 0.5937 0.0937-0.2187 2.4062-0.625-0.0312 0.375 0.8125-0.5 0.625 0.5937 0.125-0.1875 1.8125-2.4688 9.6875h1.5313v101.81h-28.438v-34.781h1.625l-2.5938-9.75-0.1562-1.8125 0.7188-0.15625-0.4688-0.625 0.375-0.8125-0.75 0.0625-0.1875-2.4062 0.6563-0.125-0.031-0.0312-0.4687-0.59375 0.375-0.84375-0.6563 0.0625-0.1875-2.4062 0.625-0.125-0.5-0.625 0.375-0.8125-0.625 0.0312-0.1875-2.375 0.6875-0.125-0.031-0.0312-0.4688-0.59375 0.375-0.84375-0.6875 0.0625-0.1875-2.4062 0.7188-0.125-0.5-0.625 0.375-0.8125-0.7188 0.0312-0.2188-2.4688c0.8842-0.63155 1.4688-1.6743 1.4688-2.8438v-0.0312c-0.019-1.9096-1.559-3.4375-3.4688-3.4375-1.9229 0-3.5 1.5454-3.5 3.4688 0 1.1662 0.5889 2.2117 1.4688 2.8438l-0.25 2.5625-0.7188-0.0625 0.375 0.84375-0.4687 0.59375-0.031 0.0312 0.6876 0.125-0.2188 2.375-0.75-0.0625 0.375 0.84375-0.4688 0.59375-0.031 0.0312 0.7188 0.125-0.2188 2.4062-0.625-0.0625 0.375 0.84375-0.5 0.59375-0.031 0.0312 0.625 0.0937-0.2188 2.4062-0.5938-0.0312 0.375 0.8125-0.5 0.625 0.5626 0.125-0.2188 2.4062-0.625-0.0625 0.375 0.84375-0.4688 0.59375-0.031 0.0312 0.5938 0.0937-0.1563 1.8125-2.5 9.7188h1.5313v35.281h0.031v59.594h-5.3125v106.06h-3.5313v125.88h21.718v-11.906l-1.5938-1.5312h-1.0624v-23.125c1.0077-0.4826 1.6874-1.4916 1.6874-2.6875v-7.4375c0-0.98254-0.4619-1.8597-1.1874-2.4062 2.7698-26.047 8.9248-31.132 26.187-40.906 16.983 10.123 22.637 14.647 25.313 40.688-0.9051 0.51537-1.5313 1.5049-1.5313 2.625v7.4375c0 1.2707 0.795 2.3426 1.9063 2.7812v23.031h-1.25l-1.5938 1.5312v11.906h21.688v-11.906l-1.5937-1.5312h-1.0313v-23.156c0.991-0.48872 1.6875-1.4726 1.6875-2.6562v-7.4375c0-0.98254-0.4618-1.8597-1.1875-2.4062 2.7698-26.047 8.9251-31.132 26.188-40.906 17.01 10.139 22.673 14.663 25.344 40.812-0.8106 0.53598-1.3438 1.4514-1.3438 2.5v7.4375c0 1.196 0.6797 2.2049 1.6875 2.6875v23.125h-1.0625l-1.5938 1.5312v11.906h21.688v-11.906l-1.5938-1.5312h-1.3438v-23c1.1694-0.40903 2-1.5001 2-2.8125v-7.4375c0-1.1146-0.6023-2.0764-1.5-2.5938 2.7786-25.889 8.9662-30.968 26.188-40.719 16.931 10.091 22.627 14.61 25.312 40.438-1.2398 0.36827-2.125 1.5124-2.125 2.875v7.4375c0 1.4954 1.0723 2.7053 2.5 2.9375v22.875h-1.875l-1.5937 1.5312v11.906h21.688v-11.906l-1.5938-1.5312h-2.4062v-22.812h0.062c1.662 0 3-1.338 3-3v-7.4375c0-1.4954-1.0722-2.7053-2.5-2.9375 2.7979-25.574 8.9836-30.669 26.125-40.375 17.024 10.146 22.676 14.671 25.344 40.875-0.7568 0.54357-1.25 1.4305-1.25 2.4375v7.4375c0 1.1553 0.6414 2.1234 1.5938 2.625v23.188h-0.9375l-1.5937 1.5312v11.906h21.656v-11.906l-0.062-0.0625v-113.91h-3.5313v-106.06h-5.3124v-94.875h1.625l-2.5938-9.75-0.1562-1.8125 0.7187-0.15625-0.4687-0.625 0.375-0.8125-0.75 0.0625-0.1876-2.4062 0.6563-0.125v-0.0312l-0.5-0.59375 0.375-0.84375-0.6563 0.0625-0.1874-2.4062 0.625-0.125-0.5-0.625 0.375-0.8125-0.625 0.0312-0.1876-2.375 0.6876-0.125-0.031-0.0312-0.4687-0.59375 0.375-0.84375-0.6876 0.0625-0.1874-2.4062 0.7187-0.125-0.5-0.625 0.375-0.8125-0.7187 0.0312-0.1876-2.4688c0.8842-0.63155 1.4376-1.6743 1.4376-2.8438v-0.0312c-0.019-1.9096-1.559-3.4375-3.4688-3.4375-1.9234 0-3.4688 1.5454-3.4688 3.4688 0 1.1662 0.5573 2.2117 1.4376 2.8438l-0.25 2.5625-0.7188-0.0625 0.375 0.84375-0.4688 0.59375-0.031 0.0312 0.7188 0.125-0.25 2.375-0.75-0.0625 0.375 0.84375-0.4688 0.59375-0.031 0.0312 0.75 0.125-0.25 2.4062-0.625-0.0625 0.375 0.84375-0.5 0.59375v0.0312l0.625 0.0937-0.25 2.4062-0.5938-0.0312 0.375 0.8125-0.5 0.625 0.5938 0.125-0.25 2.4062-0.625-0.0625 0.375 0.84375-0.4688 0.59375-0.031 0.0312 0.625 0.0937-0.1876 1.8125-2.5 9.7188h1.5313v34.781h-28.406v-101.81h1.625l-2.625-9.75-0.125-1.8125 0.75-0.125-0.031-0.0312-0.5-0.59375 0.375-0.84375-0.7188 0.0625-0.1874-2.4062 0.625-0.125-0.4688-0.625 0.375-0.8125-0.6562 0.0312-0.1876-2.4062 0.625-0.0937v-0.0312l-0.5-0.59375 0.375-0.84375-0.625 0.0625-0.1874-2.4062 0.6562-0.125-0.5-0.625 0.375-0.8125-0.6562 0.0312-0.2188-2.375 0.75-0.125-0.031-0.0312-0.4688-0.59375 0.375-0.84375-0.7188 0.0625-0.2187-2.5c0.8842-0.63155 1.4687-1.643 1.4687-2.8125v-0.0312c-0.019-1.9096-1.5589-3.4688-3.4687-3.4688-1.9234 0-3.5 1.5767-3.5 3.5 0 1.1662 0.5885 2.1804 1.4687 2.8125l-0.25 2.5625-0.7187-0.0625 0.375 0.84375-0.5 0.59375v0.0312l0.6875 0.125-0.2188 2.4062-0.75-0.0625 0.375 0.84375-0.5 0.59375v0.0312l0.7188 0.125-0.2188 2.375-0.6562-0.0312 0.375 0.8125-0.4688 0.59375-0.031 0.0312 0.625 0.125-0.1875 2.4062-0.625-0.0625 0.375 0.84375-0.5 0.59375v0.0312l0.5937 0.0937-0.2187 2.4062-0.625-0.0312 0.375 0.8125-0.5 0.625 0.5937 0.125-0.1562 1.8125-2.5 9.6875h1.5312v34.625h-27.687v-165.81h1.625l-2.5938-9.7188-0.1562-1.8438 0.75-0.125-0.031-0.0312-0.5-0.59375 0.4063-0.84375-0.75 0.0625-0.1876-2.4062 0.625-0.125-0.4687-0.625 0.375-0.8125-0.6563 0.0625-0.1874-2.4062 0.625-0.125v-0.0312l-0.5-0.59375 0.375-0.84375-0.625 0.0625-0.1876-2.4062 0.6563-0.125-0.5-0.625 0.375-0.8125-0.6563 0.0312-0.1874-2.375 0.7187-0.125-0.031-0.0312-0.4687-0.59375 0.375-0.84375-0.7187 0.0625-0.2188-2.4688c0.8846-0.63155 1.4688-1.6743 1.4688-2.8438v-0.0312c-0.019-1.9096-1.5586-3.4688-3.4688-3.4688-1.923 0-3.5 1.5767-3.5 3.5 0 1.1662 0.5889 2.1804 1.4688 2.8125l-0.25 2.5625-0.7188-0.0312 0.375 0.8125-0.5 0.625 0.6875 0.125-0.2187 2.4062-0.75-0.0625 0.375 0.84375-0.5 0.59375v0.0312l0.7187 0.125-0.2187 2.375-0.6563-0.0312 0.375 0.8125-0.4687 0.625 0.5937 0.125-0.2187 2.4062-0.5938-0.0625 0.375 0.84375-0.5 0.59375v0.0312l0.5625 0.0937-0.2187 2.4062-0.625-0.0312 0.375 0.8125-0.5 0.625 0.5937 0.125-0.1563 1.8125-2.5 9.6875h1.5313v20.125l-12.938-0.0937v-1.2188c0.7484-0.37508 1.25-1.0502 1.25-1.8125-0.01-0.74976-0.5161-1.4088-1.25-1.7812v-0.84375c1.2482-0.43531 2.125-1.4596 2.125-2.625v-0.0312c-0.014-1.1568-0.8837-2.1324-2.125-2.5625v-1.125l-1.375-1.625-1.4062 1.625v1.125c-1.2482 0.43533-2.125 1.4284-2.125 2.5938 0 1.1657 0.8759 2.1898 2.125 2.625v0.84375c-0.7513 0.37461-1.25 1.0172-1.25 1.7812s0.4987 1.4379 1.25 1.8125v1.2188l-12.969-0.0937v-19.938h1.625l-2.5938-9.7188-0.1562-1.8438 0.75-0.125-0.031-0.0312-0.4688-0.59375 0.375-0.84375-0.75 0.0625-0.1875-2.4062 0.6563-0.125-0.5-0.625 0.375-0.8125-0.6563 0.0625-0.1875-2.4062 0.6562-0.125-0.031-0.0312-0.5-0.59375 0.375-0.84375-0.625 0.0625-0.1875-2.4062 0.6563-0.125-0.4688-0.625 0.375-0.8125-0.6875 0.0312-0.1875-2.375 0.7188-0.125v-0.0312l-0.5-0.59375 0.375-0.84375-0.7188 0.0625-0.1875-2.4688c0.8836-0.63155 1.4375-1.6743 1.4375-2.8438v-0.0312c-0.019-1.9096-1.559-3.4688-3.4688-3.4688-1.9229 0-3.4687 1.5767-3.4687 3.5 0 1.1662 0.558 2.1804 1.4375 2.8125l-0.25 2.5625-0.7188-0.0312 0.375 0.8125-0.4687 0.625 0.6875 0.125-0.25 2.4062-0.75-0.0625 0.375 0.84375-0.4688 0.59375-0.031 0.0312 0.75 0.125-0.25 2.375-0.625-0.0312 0.375 0.8125-0.5 0.625 0.625 0.125-0.25 2.4062-0.5938-0.0625 0.375 0.84375-0.4687 0.59375-0.031 0.0312 0.5938 0.0937-0.25 2.4062-0.625-0.0312 0.375 0.8125-0.4688 0.625 0.5938 0.125-0.1875 1.8125-2.5 9.6875h1.5313v13.062h-28.656v-13.062h1.625l-2.625-9.7188-0.125-1.8438 0.7187-0.125v-0.0312l-0.5-0.59375 0.375-0.84375-0.7187 0.0625-0.2187-2.4062 0.6562-0.125-0.5-0.625 0.4062-0.8125-0.6562 0.0625-0.2188-2.4062 0.6563-0.125-0.031-0.0312-0.4687-0.59375 0.375-0.84375-0.6563 0.0625-0.1874-2.4062 0.6874-0.125-0.5-0.625 0.375-0.8125-0.6874 0.0312-0.1876-2.375 0.75-0.125-0.031-0.0312-0.4688-0.59375 0.375-0.84375-0.75 0.0625-0.1874-2.4688c0.884-0.63155 1.4687-1.6743 1.4687-2.8438v-0.0312c-0.02-1.9096-1.5906-3.4688-3.5-3.4688-1.924 0-3.4687 1.5767-3.4687 3.5 0 1.1662 0.5579 2.1804 1.4374 2.8125l-0.2187 2.5625-0.7187-0.0312 0.375 0.8125-0.5 0.625 0.6874 0.125-0.2187 2.4062-0.75-0.0625 0.375 0.84375-0.5 0.59375v0.0312l0.7187 0.125-0.2187 2.375-0.6563-0.0312 0.375 0.8125-0.4687 0.625 0.5937 0.125-0.2187 2.4062-0.625-0.0625 0.375 0.84375-0.4687 0.59375-0.031 0.0312 0.5937 0.0937-0.2187 2.4062-0.625-0.0312 0.375 0.8125-0.5 0.625 0.5937 0.125-0.1874 1.8125-2.4688 9.6875h1.5312v20.125l-12.969-0.0937v-1.2188c0.7484-0.37508 1.25-1.0502 1.25-1.8125-0.01-0.74976-0.5161-1.4088-1.25-1.7812v-0.84375c1.2482-0.43531 2.125-1.4596 2.125-2.625v-0.0312c-0.014-1.1568-0.8837-2.1324-2.125-2.5625v-1.125l-1.375-1.625-1.4063 1.625v1.125c-1.248 0.43533-2.125 1.4284-2.125 2.5938 0 1.1657 0.8763 2.1898 2.125 2.625v0.84375c-0.7509 0.37461-1.25 1.0172-1.25 1.7812s0.4991 1.4379 1.25 1.8125v1.2188l-12.937-0.0937v-19.938h1.625l-2.5938-9.7188-0.1562-1.8438 0.75-0.125-0.031-0.0312-0.4687-0.59375 0.375-0.84375-0.75 0.0625-0.1876-2.4062 0.625-0.125-0.4687-0.625 0.375-0.8125-0.6563 0.0625-0.1874-2.4062 0.625-0.125v-0.0312l-0.5-0.59375 0.375-0.84375-0.625 0.0625-0.1876-2.4062 0.6563-0.125-0.4687-0.625 0.375-0.8125-0.6876 0.0312-0.1874-2.375 0.7187-0.125-0.031-0.0312-0.4687-0.59375 0.375-0.84375-0.7187 0.0625-0.2188-2.4688c0.8849-0.63155 1.4688-1.6743 1.4688-2.8438v-0.0312c-0.019-1.9096-1.5583-3.4688-3.4688-3.4688h-0.031zm6.9062 61.781c0.7706 0 1.4375 0.74481 1.6875 1.7812h0.75l-0.094 16.312-4.5 8.3125v-24.656h0.5c0.2554-1.0204 0.8932-1.75 1.6562-1.75zm8.0625 0c0.7855 0 1.4488 0.77579 1.6875 1.8438h1.0312v0.59375l-5.4062 10.031 0.062-10.656h0.9687c0.245-1.051 0.8788-1.8125 1.6563-1.8125zm8.0937 0c0.8008 0 1.4604 0.80667 1.6876 1.9062h0.7187l-0.062 9.625-4.9375-9.1562v-0.5h0.9063c0.2327-1.0838 0.8949-1.875 1.6874-1.875zm8.0626 0c0.8087 0 1.4997 0.81911 1.7187 1.9375h0.5937v24.469l-5.0624-9.375 0.094-15.094h0.9375c0.219-1.1184 0.9095-1.9375 1.7188-1.9375zm52.812 0c0.7709 0 1.4376 0.74481 1.6876 1.7812h0.75l-0.094 16.062-4.625 8.5625v-24.656h0.625c0.2554-1.0204 0.8936-1.75 1.6562-1.75zm8.0626 0c0.7853 0 1.4492 0.77579 1.6874 1.8438h0.9376v0.53125l-5.3126 9.8438 0.063-10.406h0.9687c0.245-1.051 0.8787-1.8125 1.6563-1.8125zm8.0937 0c0.8007 0 1.4607 0.80667 1.6875 1.9062h0.7188l-0.063 9.8438-5.0312-9.3125v-0.5625h1c0.2327-1.0838 0.8949-1.875 1.6875-1.875zm8.0625 0c0.809 0 1.4994 0.81911 1.7188 1.9375h0.4687v24.469l-4.9375-9.1562 0.094-15.312h0.9374c0.2194-1.1184 0.9095-1.9375 1.7188-1.9375zm-89.531 164.28c7.3087 4.356 9.494 6.1347 10.531 18.25v19.875l-21.5-0.0625v-19.094c1.0334-12.638 3.4162-14.692 10.969-18.969zm79.187 0c7.3066 4.356 9.4941 6.1347 10.531 18.25v19.875l-21.5-0.0625v-19.094c1.0334-12.638 3.4145-14.692 10.969-18.969zm-118.34 50.406c7.3084 4.356 9.494 6.166 10.531 18.281v19.875l-21.5-0.0625v-19.094c1.0344-12.638 3.4161-14.724 10.969-19zm40.562 0c7.3085 4.356 9.4927 6.166 10.531 18.281v19.875l-21.5-0.0625v-19.094c1.0328-12.638 3.4162-14.724 10.969-19zm79.188 0c7.3084 4.356 9.5253 6.166 10.562 18.281v19.875l-21.531-0.0625v-19.094c1.0351-12.638 3.4161-14.724 10.969-19zm36.781 0c7.3087 4.356 9.494 6.166 10.531 18.281v19.875l-21.5-0.0625v-19.094c1.0334-12.638 3.4162-14.724 10.969-19zm-179.69 54.375c12.891 7.6841 16.794 10.878 18.625 32.25v51.25l-37.969-0.125v-49.875c1.8231-22.294 6.0204-25.956 19.344-33.5zm68.031 0c12.892 7.6841 16.795 10.878 18.625 32.25v51.25l-37.969-0.125v-49.875c1.8233-22.294 6.0206-25.956 19.344-33.5zm68.969 0c12.891 7.6841 16.794 10.878 18.625 32.25v51.25l-37.969-0.125v-49.875c1.823-22.294 6.0204-25.956 19.344-33.5zm66.125 0c12.892 7.6841 16.794 10.878 18.625 32.25v51.25l-37.969-0.125v-49.875c1.823-22.294 6.0204-25.956 19.344-33.5z"/>
        <path style="color:#000000;block-progression:tb;text-transform:none;text-indent:0" d="m1959.4 354s-2.1656 3.6364-4.9376 7.4063c-1.3859 1.8849-2.9029 3.7953-4.375 5.2812-1.4719 1.4859-2.929 2.5126-3.8124 2.7188-3.4671 0.8087-5.5552 0.9268-7.3438 1.0624-1.7886 0.1357-3.3633 0.2938-5.375 1.25-3.0292 1.4398-5.3142 4.4913-6.9375 7.1563s-2.5625 5.0313-2.5625 5.0313l1.875 0.7187s0.3469-0.8486 0.9375-2.0313c-0.077 0.5937-0.125 1.1982-0.125 1.8126v23.125h2.3437v-2.2188h0.7813v-16.093s-0.085-1.8194 0.5313-3.5937c0.2143-0.6173 0.5055-1.2287 0.9062-1.75 0.5787 0.1275 1.0424 0.4014 1.4062 0.7187 0.538 0.4693 0.8898 0.76 1.125 1.4376 0.344 0.9901 0.3061 19.466 0.3126 19.937v0.7188l1.4687-0.125v-0.375s-0.0002-0.0312 0-0.0312v-0.2813c0.01-0.4632-0.1612-18.84 0.1875-19.844 0.2353-0.6778 0.6184-0.9683 1.1562-1.4376 0.4035-0.3519 0.8875-0.6072 1.5626-0.7187 0.3913 0.5213 0.6919 1.1327 0.9062 1.75 0.4504 1.2966 0.5231 2.6018 0.5312 3.2187v0.4063c0.0002 0.002 0 0.0625 0 0.0625v16h1.5313v-16.031s-0.0002-0.0308 0-0.0313v-0.375c0.01-0.6064 0.075-1.9363 0.5313-3.25 0.2136-0.6155 0.5073-1.2077 0.9062-1.7187 0.575 0.1279 1.044 0.3715 1.4062 0.6874 0.538 0.4692 0.8898 0.7598 1.125 1.4376 0.344 0.9901 0.3061 19.466 0.3126 19.937v0.7188l1.4687-0.125v-0.375s-0.0002-0.0312 0-0.0312v-0.2813c0.01-0.4632-0.1612-18.84 0.1875-19.844 0.2353-0.6778 0.6184-0.9683 1.1562-1.4376 0.3972-0.3463 0.8723-0.6041 1.5313-0.7187 0.4034 0.5188 0.719 1.1206 0.9375 1.75 0.6164 1.7743 0.5312 3.5937 0.5312 3.5937v16.093h0.8126v2.1562h2.3437v-23.062c0-5.8258-3.5846-10.832-8.6563-12.938 0.2176-0.0475 0.3971-0.0718 0.625-0.125 1.6519-0.3852 3.1971-1.6507 4.7813-3.25 1.5842-1.5992 3.1726-3.5671 4.5937-5.5 2.8424-3.8657 5.0313-7.5624 5.0313-7.5624l-1.7187-1.0313zm-19.813 18.562c0.1117-0.0108 0.2311 0.008 0.3438 0-0.024 1.0412-0.1001 3.5985-0.5 4.75-0.3081 0.8872-0.7645 1.7607-1.4688 2.375-0.5564 0.4855-1.2616 0.838-2.2187 0.9688 0.1492-0.1467 0.2858-0.2998 0.4063-0.4688 0.344-0.4829 0.5527-1.1373 0.3124-1.7812-0.3037-0.8147-0.3528-1.2918-0.3124-1.7188 0.04-0.427 0.181-0.8636 0.375-1.5625 0.1185-0.4273 0.7439-1.1927 1.3437-1.75 0.2999-0.2787 0.5984-0.5228 0.8125-0.6875 0.2949-0.0517 0.6036-0.0958 0.9062-0.125zm1.9376 0c0.422 0.0283 0.8426 0.0534 1.25 0.125 0.2192 0.1836 0.5028 0.4532 0.8124 0.75 0.6198 0.5937 1.2576 1.3893 1.375 1.8125 0.194 0.6989 0.3662 1.1668 0.4063 1.5937 0.04 0.4271-0.04 0.8729-0.3437 1.6876-0.2403 0.6439-0.032 1.3296 0.3124 1.8124 0.069 0.097 0.1395 0.194 0.2188 0.2813-0.8678-0.1491-1.5094-0.5136-2.0312-0.9687-0.7043-0.6144-1.192-1.4566-1.5-2.3438-0.4022-1.158-0.4757-3.6936-0.5-4.75zm3.6874 0.8438c3.9496 1.6522 6.7692 5.4497 7.1876 9.9374v1.5313c-0.3734-0.9808-0.9498-1.9703-1.8438-2.75-0.7041-0.6143-1.5953-1.0736-2.6875-1.2813-0.1846-0.1021-0.3771-0.2208-0.5625-0.3437-0.41-0.2717-0.766-0.5906-0.9688-0.875-0.2024-0.2844-0.2705-0.434-0.1874-0.6563 0.3422-0.9176 0.4649-1.6246 0.4062-2.25-0.059-0.6251-0.2566-1.1292-0.4375-1.7812-0.1572-0.5662-0.5098-1.075-0.9063-1.5312zm-9.0937 0.0624c-0.3319 0.4042-0.6141 0.8541-0.75 1.3438-0.1809 0.652-0.3788 1.1561-0.4375 1.7812-0.059 0.6254 0.064 1.301 0.4062 2.2188 0.083 0.2222 0.046 0.4031-0.1562 0.6875-0.2026 0.2844-0.59 0.6033-1 0.875-0.3508 0.2324-0.7216 0.4104-1.0312 0.5625-0.899 0.2388-1.645 0.6597-2.25 1.1875-0.8745 0.7628-1.4385 1.7274-1.8126 2.6875v-1.4688c0-0.0101-0.0009-0.0211 0-0.0312 0.4246-4.4273 3.1545-8.1689 7.0313-9.8438zm4.5937 4.7188c0.3745 0.9426 0.9542 1.8764 1.8126 2.625 0.2838 0.2477 0.6194 0.4642 0.9687 0.6562-0.3454 0.191-0.6874 0.4109-0.9687 0.6563-0.8584 0.7486-1.4381 1.6824-1.8126 2.625-0.3743-0.9392-0.926-1.8791-1.7812-2.625-0.2813-0.2454-0.5958-0.4653-0.9375-0.6563 0.3455-0.192 0.6536-0.4085 0.9375-0.6562 0.8552-0.7459 1.4069-1.6858 1.7812-2.625zm-5.7812 4.0312c1.1327 0 1.9459 0.2869 2.5938 0.7188-0.5139 0.1879-0.9741 0.4588-1.3438 0.7812-0.6554 0.5719-1.089 1.2801-1.375 2-0.286-0.7172-0.7218-1.4302-1.375-2-0.3372-0.2941-0.7356-0.5346-1.1875-0.7187 0.6614-0.4686 1.5-0.7813 2.6875-0.7813zm11.625 0.0313c1.1234 0 1.9482 0.2618 2.5938 0.6875-0.5139 0.1879-0.9741 0.4588-1.3438 0.7812-0.6554 0.5717-1.089 1.2801-1.375 2-0.286-0.7172-0.7218-1.4301-1.375-2-0.3372-0.2941-0.7356-0.5346-1.1875-0.7187 0.6592-0.4622 1.5094-0.75 2.6875-0.75z"/>
        <path style="color:#000000;block-progression:tb;text-transform:none;text-indent:0" d="m1922 421.2s-2.2145 3.6364-5.0491 7.4063c-1.4172 1.8849-2.9684 3.7953-4.4738 5.2812-1.5051 1.4859-2.9951 2.5126-3.8984 2.7188-3.5454 0.8087-5.6806 0.9268-7.5096 1.0624-1.829 0.1357-3.4392 0.2938-5.4963 1.25-3.0976 1.4398-5.4342 4.4913-7.0942 7.1563-1.6599 2.665-2.6203 5.0313-2.6203 5.0313l1.9173 0.7187s0.3548-0.8486 0.9587-2.0313c-0.079 0.5937-0.1278 1.1982-0.1278 1.8126v23.125h2.3966v-2.2188h0.7989v-16.093s-0.087-1.8194 0.5433-3.5937c0.2191-0.6173 0.5169-1.2287 0.9267-1.75 0.5917 0.1275 1.0659 0.4014 1.4379 0.7187 0.5502 0.4693 0.9099 0.76 1.1504 1.4376 0.3518 0.9901 0.313 19.466 0.3197 19.937v0.7181l1.5018-0.125v-0.375s-0.0002-0.031 0-0.031v-0.2813c0.01-0.4632-0.1648-18.84 0.1917-19.844 0.2407-0.6778 0.6324-0.9683 1.1823-1.4376 0.4127-0.3519 0.9076-0.6072 1.5979-0.7187 0.4002 0.5213 0.7075 1.1327 0.9267 1.75 0.4605 1.2966 0.5349 2.6018 0.5432 3.2187v0.406c0.0002 0 0 0.062 0 0.062v16h1.5658v-16.031s-0.0002-0.031 0-0.031v-0.375c0.01-0.6064 0.077-1.9363 0.5433-3.25 0.2185-0.6155 0.5188-1.2077 0.9267-1.7187 0.588 0.1279 1.0676 0.3715 1.4379 0.6874 0.5502 0.4692 0.9099 0.7598 1.1504 1.4376 0.3518 0.9901 0.313 19.466 0.3197 19.937v0.7181l1.5018-0.125v-0.375s-0.0002-0.031 0-0.031v-0.2813c0.01-0.4632-0.1648-18.84 0.1918-19.844 0.2406-0.6778 0.6323-0.9683 1.1823-1.4376 0.4061-0.3463 0.892-0.6041 1.5658-0.7187 0.4125 0.5188 0.7353 1.1206 0.9587 1.75 0.6303 1.7743 0.5432 3.5937 0.5432 3.5937v16.093h0.8309v2.1562h2.3966v-23.062c0-5.8258-3.6655-10.832-8.8517-12.938 0.2226-0.047 0.4061-0.072 0.6391-0.125 1.6892-0.3852 3.2693-1.6507 4.8893-3.25 1.6199-1.5992 3.2442-3.5671 4.6974-5.5 2.9065-3.8657 5.1449-7.5624 5.1449-7.5624l-1.7-1.04zm-20.26 18.562c0.1142-0.011 0.2363 0.01 0.3516 0-0.025 1.0412-0.1024 3.5985-0.5113 4.75-0.3151 0.8872-0.7818 1.7607-1.502 2.375-0.5689 0.4855-1.2901 0.838-2.2688 0.9688 0.1526-0.1467 0.2923-0.2998 0.4155-0.4688 0.3518-0.4829 0.5652-1.1373 0.3195-1.7812-0.3106-0.8147-0.3608-1.2918-0.3195-1.7188 0.041-0.427 0.1851-0.8636 0.3835-1.5625 0.1211-0.4273 0.7607-1.1927 1.374-1.75 0.3067-0.2787 0.6119-0.5228 0.8308-0.6875 0.3016-0.052 0.6173-0.096 0.9267-0.125zm1.9813 0c0.4316 0.028 0.8617 0.053 1.2783 0.125 0.2241 0.1836 0.5141 0.4532 0.8307 0.75 0.6338 0.5937 1.286 1.3893 1.406 1.8125 0.1984 0.6989 0.3745 1.1668 0.4155 1.5937 0.041 0.4271-0.041 0.8729-0.3514 1.6876-0.2458 0.6439-0.033 1.3296 0.3194 1.8124 0.071 0.097 0.1427 0.194 0.2237 0.2813-0.8873-0.1491-1.5434-0.5136-2.077-0.9687-0.7202-0.6144-1.2189-1.4566-1.5339-2.3438-0.4112-1.158-0.4864-3.6936-0.5113-4.75zm3.7707 0.8438c4.0387 1.6522 6.922 5.4497 7.3498 9.9374v1.5313c-0.3818-0.9808-0.9712-1.9703-1.8854-2.75-0.72-0.6143-1.6313-1.0736-2.7481-1.2813-0.1888-0.1021-0.3857-0.2208-0.5752-0.3437-0.4193-0.2717-0.7833-0.5906-0.9907-0.875-0.207-0.2844-0.2766-0.434-0.1916-0.6563 0.3499-0.9176 0.4753-1.6246 0.4153-2.25-0.06-0.6251-0.2624-1.1292-0.4474-1.7812-0.1607-0.5662-0.5213-1.075-0.9267-1.5312zm-9.299 0.062c-0.3394 0.4042-0.628 0.8541-0.7669 1.3438-0.185 0.652-0.3874 1.1561-0.4474 1.7812-0.06 0.6254 0.065 1.301 0.4154 2.2188 0.085 0.2222 0.047 0.4031-0.1598 0.6875-0.2071 0.2844-0.6033 0.6033-1.0225 0.875-0.3588 0.2324-0.7379 0.4104-1.0545 0.5625-0.9193 0.2388-1.6821 0.6597-2.3008 1.1875-0.8942 0.7628-1.471 1.7274-1.8535 2.6875v-1.4688c0-0.01-0.0009-0.021 0-0.031 0.4342-4.4273 3.2257-8.1689 7.19-9.8438zm4.6974 4.7188c0.383 0.9426 0.9757 1.8764 1.8535 2.625 0.2902 0.2477 0.6334 0.4642 0.9906 0.6562-0.3532 0.191-0.7029 0.4109-0.9906 0.6563-0.8778 0.7486-1.4705 1.6824-1.8535 2.625-0.3827-0.9392-0.9469-1.8791-1.8214-2.625-0.2877-0.2454-0.6093-0.4653-0.9587-0.6563 0.3533-0.192 0.6684-0.4085 0.9587-0.6562 0.8745-0.7459 1.4387-1.6858 1.8214-2.625zm-5.9117 4.0312c1.1583 0 1.9898 0.2869 2.6523 0.7188-0.5255 0.1879-0.996 0.4588-1.3741 0.7812-0.6702 0.5719-1.1136 1.2801-1.406 2-0.2925-0.7172-0.7381-1.4302-1.4061-2-0.3448-0.2941-0.7522-0.5346-1.2143-0.7187 0.6764-0.4686 1.5339-0.7813 2.7482-0.7813zm11.887 0.031c1.1488 0 1.9922 0.2618 2.6524 0.6875-0.5255 0.1879-0.9961 0.4588-1.3742 0.7812-0.6702 0.5717-1.1135 1.2801-1.406 2-0.2925-0.7172-0.7381-1.4301-1.406-2-0.3449-0.2941-0.7522-0.5346-1.2143-0.7187 0.674-0.4622 1.5434-0.75 2.7481-0.75z"/>
        <path style="color:#000000;block-progression:tb;text-transform:none;text-indent:0" d="m2075 354s2.1656 3.6364 4.9376 7.4063c1.3859 1.8849 2.9029 3.7953 4.375 5.2812 1.4719 1.4859 2.929 2.5126 3.8124 2.7188 3.4671 0.8087 5.5552 0.9268 7.3438 1.0624 1.7886 0.1357 3.3633 0.2938 5.375 1.25 3.0292 1.4398 5.3142 4.4913 6.9375 7.1563s2.5625 5.0313 2.5625 5.0313l-1.875 0.7187s-0.3469-0.8486-0.9375-2.0313c0.077 0.5937 0.125 1.1982 0.125 1.8126v23.125h-2.3437v-2.2188h-0.7813v-16.093s0.085-1.8194-0.5313-3.5937c-0.2143-0.6173-0.5055-1.2287-0.9062-1.75-0.5787 0.1275-1.0424 0.4014-1.4062 0.7187-0.538 0.4693-0.8898 0.76-1.125 1.4376-0.344 0.9901-0.3061 19.466-0.3126 19.937v0.7181l-1.4687-0.125v-0.375s0.0002-0.031 0-0.031v-0.2813c-0.01-0.4632 0.1612-18.84-0.1875-19.844-0.2353-0.6778-0.6184-0.9683-1.1562-1.4376-0.4035-0.3519-0.8875-0.6072-1.5626-0.7187-0.3913 0.5213-0.6919 1.1327-0.9062 1.75-0.4504 1.2966-0.5231 2.6018-0.5312 3.2187v0.406c-0.0002 0 0 0.062 0 0.062v16h-1.5313v-16.031s0.0002-0.031 0-0.031v-0.375c-0.01-0.6064-0.075-1.9363-0.5313-3.25-0.2136-0.6155-0.5073-1.2077-0.9062-1.7187-0.575 0.1279-1.044 0.3715-1.4062 0.6874-0.538 0.4692-0.8898 0.7598-1.125 1.4376-0.344 0.9901-0.3061 19.466-0.3126 19.937v0.7181l-1.4687-0.125v-0.375s0.0002-0.031 0-0.031v-0.2813c-0.01-0.4632 0.1612-18.84-0.1875-19.844-0.2353-0.6778-0.6184-0.9683-1.1562-1.4376-0.3972-0.3463-0.8723-0.6041-1.5313-0.7187-0.4034 0.5188-0.719 1.1206-0.9375 1.75-0.6164 1.7743-0.5312 3.5937-0.5312 3.5937v16.093h-0.8126v2.1562h-2.3437v-23.062c0-5.8258 3.5846-10.832 8.6563-12.938-0.2176-0.047-0.3971-0.072-0.625-0.125-1.6519-0.3852-3.1971-1.6507-4.7813-3.25-1.5842-1.5992-3.1726-3.5671-4.5937-5.5-2.8424-3.8657-5.0313-7.5624-5.0313-7.5624l1.8-1.04zm19.813 18.562c-0.1117-0.011-0.2311 0.01-0.3438 0 0.024 1.0412 0.1001 3.5985 0.5 4.75 0.3081 0.8872 0.7645 1.7607 1.4688 2.375 0.5564 0.4855 1.2616 0.838 2.2187 0.9688-0.1492-0.1467-0.2858-0.2998-0.4063-0.4688-0.344-0.4829-0.5527-1.1373-0.3124-1.7812 0.3037-0.8147 0.3528-1.2918 0.3124-1.7188-0.04-0.427-0.181-0.8636-0.375-1.5625-0.1185-0.4273-0.7439-1.1927-1.3437-1.75-0.2999-0.2787-0.5984-0.5228-0.8125-0.6875-0.2949-0.052-0.6036-0.096-0.9062-0.125zm-1.9376 0c-0.422 0.028-0.8426 0.053-1.25 0.125-0.2192 0.1836-0.5028 0.4532-0.8124 0.75-0.6198 0.5937-1.2576 1.3893-1.375 1.8125-0.194 0.6989-0.3662 1.1668-0.4063 1.5937-0.04 0.4271 0.04 0.8729 0.3437 1.6876 0.2403 0.6439 0.032 1.3296-0.3124 1.8124-0.069 0.097-0.1395 0.194-0.2188 0.2813 0.8678-0.1491 1.5094-0.5136 2.0312-0.9687 0.7043-0.6144 1.192-1.4566 1.5-2.3438 0.4022-1.158 0.4757-3.6936 0.5-4.75zm-3.6874 0.8438c-3.9496 1.6522-6.7692 5.4497-7.1876 9.9374v1.5313c0.3734-0.9808 0.9498-1.9703 1.8438-2.75 0.7041-0.6143 1.5953-1.0736 2.6875-1.2813 0.1846-0.1021 0.3771-0.2208 0.5625-0.3437 0.41-0.2717 0.766-0.5906 0.9688-0.875 0.2024-0.2844 0.2705-0.434 0.1874-0.6563-0.3422-0.9176-0.4649-1.6246-0.4062-2.25 0.059-0.6251 0.2566-1.1292 0.4375-1.7812 0.1572-0.5662 0.5098-1.075 0.9063-1.5312zm9.0937 0.062c0.3319 0.4042 0.6141 0.8541 0.75 1.3438 0.1809 0.652 0.3788 1.1561 0.4375 1.7812 0.059 0.6254-0.064 1.301-0.4062 2.2188-0.083 0.2222-0.046 0.4031 0.1562 0.6875 0.2026 0.2844 0.59 0.6033 1 0.875 0.3508 0.2324 0.7216 0.4104 1.0312 0.5625 0.899 0.2388 1.645 0.6597 2.25 1.1875 0.8745 0.7628 1.4385 1.7274 1.8126 2.6875v-1.4688c0-0.01 0.0009-0.021 0-0.031-0.4246-4.4273-3.1545-8.1689-7.0313-9.8438zm-4.5937 4.7188c-0.3745 0.9426-0.9542 1.8764-1.8126 2.625-0.2838 0.2477-0.6194 0.4642-0.9687 0.6562 0.3454 0.191 0.6874 0.4109 0.9687 0.6563 0.8584 0.7486 1.4381 1.6824 1.8126 2.625 0.3743-0.9392 0.926-1.8791 1.7812-2.625 0.2813-0.2454 0.5958-0.4653 0.9375-0.6563-0.3455-0.192-0.6536-0.4085-0.9375-0.6562-0.8552-0.7459-1.4069-1.6858-1.7812-2.625zm5.7812 4.0312c-1.1327 0-1.9459 0.2869-2.5938 0.7188 0.5139 0.1879 0.9741 0.4588 1.3438 0.7812 0.6554 0.5719 1.089 1.2801 1.375 2 0.286-0.7172 0.7218-1.4302 1.375-2 0.3372-0.2941 0.7356-0.5346 1.1875-0.7187-0.6614-0.4686-1.5-0.7813-2.6875-0.7813zm-11.625 0.031c-1.1234 0-1.9482 0.2618-2.5938 0.6875 0.5139 0.1879 0.9741 0.4588 1.3438 0.7812 0.6554 0.5717 1.089 1.2801 1.375 2 0.286-0.7172 0.7218-1.4301 1.375-2 0.3372-0.2941 0.7356-0.5346 1.1875-0.7187-0.6592-0.4622-1.5094-0.75-2.6875-0.75z"/>
        <path style="color:#000000;block-progression:tb;text-transform:none;text-indent:0" d="m2112.5 421.2s2.2145 3.6364 5.0491 7.4063c1.4172 1.8849 2.9684 3.7953 4.4738 5.2812 1.5051 1.4859 2.9951 2.5126 3.8984 2.7188 3.5454 0.8087 5.6806 0.9268 7.5096 1.0624 1.829 0.1357 3.4392 0.2938 5.4963 1.25 3.0976 1.4398 5.4342 4.4913 7.0942 7.1563 1.6599 2.665 2.6203 5.0313 2.6203 5.0313l-1.9173 0.7187s-0.3548-0.8486-0.9587-2.0313c0.079 0.5937 0.1278 1.1982 0.1278 1.8126v23.125h-2.3966v-2.2188h-0.7989v-16.093s0.087-1.8194-0.5433-3.5937c-0.2191-0.6173-0.5169-1.2287-0.9267-1.75-0.5917 0.1275-1.0659 0.4014-1.4379 0.7187-0.5502 0.4693-0.9099 0.76-1.1504 1.4376-0.3518 0.9901-0.313 19.466-0.3197 19.937v0.7181l-1.5018-0.125v-0.375s0.0002-0.031 0-0.031v-0.2813c-0.01-0.4632 0.1648-18.84-0.1917-19.844-0.2407-0.6778-0.6324-0.9683-1.1823-1.4376-0.4127-0.3519-0.9076-0.6072-1.5979-0.7187-0.4002 0.5213-0.7075 1.1327-0.9267 1.75-0.4605 1.2966-0.5349 2.6018-0.5432 3.2187v0.406c-0.0002 0 0 0.062 0 0.062v16h-1.5658v-16.031s0.0002-0.031 0-0.031v-0.375c-0.01-0.6064-0.077-1.9363-0.5433-3.25-0.2185-0.6155-0.5188-1.2077-0.9267-1.7187-0.588 0.1279-1.0676 0.3715-1.4379 0.6874-0.5502 0.4692-0.9099 0.7598-1.1504 1.4376-0.3518 0.9901-0.313 19.466-0.3197 19.937v0.7181l-1.5018-0.125v-0.375s0.0002-0.031 0-0.031v-0.2813c-0.01-0.4632 0.1648-18.84-0.1918-19.844-0.2406-0.6778-0.6323-0.9683-1.1823-1.4376-0.4061-0.3463-0.892-0.6041-1.5658-0.7187-0.4125 0.5188-0.7353 1.1206-0.9587 1.75-0.6303 1.7743-0.5432 3.5937-0.5432 3.5937v16.093h-0.8309v2.1562h-2.3966v-23.062c0-5.8258 3.6655-10.832 8.8517-12.938-0.2226-0.047-0.4061-0.072-0.6391-0.125-1.6892-0.3852-3.2693-1.6507-4.8893-3.25-1.6199-1.5992-3.2442-3.5671-4.6974-5.5-2.9065-3.8657-5.1449-7.5624-5.1449-7.5624l1.7575-1.0313zm20.26 18.562c-0.1142-0.011-0.2363 0.01-0.3516 0 0.025 1.0412 0.1024 3.5985 0.5113 4.75 0.3151 0.8872 0.7818 1.7607 1.502 2.375 0.5689 0.4855 1.2901 0.838 2.2688 0.9688-0.1526-0.1467-0.2923-0.2998-0.4155-0.4688-0.3518-0.4829-0.5652-1.1373-0.3195-1.7812 0.3106-0.8147 0.3608-1.2918 0.3195-1.7188-0.041-0.427-0.1851-0.8636-0.3835-1.5625-0.1211-0.4273-0.7607-1.1927-1.374-1.75-0.3067-0.2787-0.6119-0.5228-0.8308-0.6875-0.3016-0.052-0.6173-0.096-0.9267-0.125zm-1.9813 0c-0.4316 0.028-0.8617 0.053-1.2783 0.125-0.2241 0.1836-0.5141 0.4532-0.8307 0.75-0.6338 0.5937-1.286 1.3893-1.406 1.8125-0.1984 0.6989-0.3745 1.1668-0.4155 1.5937-0.041 0.4271 0.041 0.8729 0.3514 1.6876 0.2458 0.6439 0.033 1.3296-0.3194 1.8124-0.071 0.097-0.1427 0.194-0.2237 0.2813 0.8873-0.1491 1.5434-0.5136 2.077-0.9687 0.7202-0.6144 1.2189-1.4566 1.5339-2.3438 0.4112-1.158 0.4864-3.6936 0.5113-4.75zm-3.7707 0.8438c-4.0387 1.6522-6.922 5.4497-7.3498 9.9374v1.5313c0.3818-0.9808 0.9712-1.9703 1.8854-2.75 0.72-0.6143 1.6313-1.0736 2.7481-1.2813 0.1888-0.1021 0.3857-0.2208 0.5752-0.3437 0.4193-0.2717 0.7833-0.5906 0.9907-0.875 0.207-0.2844 0.2766-0.434 0.1916-0.6563-0.3499-0.9176-0.4753-1.6246-0.4153-2.25 0.06-0.6251 0.2624-1.1292 0.4474-1.7812 0.1607-0.5662 0.5213-1.075 0.9267-1.5312zm9.299 0.062c0.3394 0.4042 0.628 0.8541 0.7669 1.3438 0.185 0.652 0.3874 1.1561 0.4474 1.7812 0.06 0.6254-0.065 1.301-0.4154 2.2188-0.085 0.2222-0.047 0.4031 0.1598 0.6875 0.2071 0.2844 0.6033 0.6033 1.0225 0.875 0.3588 0.2324 0.7379 0.4104 1.0545 0.5625 0.9193 0.2388 1.6821 0.6597 2.3008 1.1875 0.8942 0.7628 1.471 1.7274 1.8535 2.6875v-1.4688c0-0.01 0.0009-0.021 0-0.031-0.4342-4.4273-3.2257-8.1689-7.19-9.8438zm-4.6974 4.7188c-0.383 0.9426-0.9757 1.8764-1.8535 2.625-0.2902 0.2477-0.6334 0.4642-0.9906 0.6562 0.3532 0.191 0.7029 0.4109 0.9906 0.6563 0.8778 0.7486 1.4705 1.6824 1.8535 2.625 0.3827-0.9392 0.9469-1.8791 1.8214-2.625 0.2877-0.2454 0.6093-0.4653 0.9587-0.6563-0.3533-0.192-0.6684-0.4085-0.9587-0.6562-0.8745-0.7459-1.4387-1.6858-1.8214-2.625zm5.9117 4.0312c-1.1583 0-1.9898 0.2869-2.6523 0.7188 0.5255 0.1879 0.996 0.4588 1.3741 0.7812 0.6702 0.5719 1.1136 1.2801 1.406 2 0.2925-0.7172 0.7381-1.4302 1.4061-2 0.3448-0.2941 0.7522-0.5346 1.2143-0.7187-0.6764-0.4686-1.5339-0.7813-2.7482-0.7813zm-11.887 0.031c-1.1488 0-1.9922 0.2618-2.6524 0.6875 0.5255 0.1879 0.9961 0.4588 1.3742 0.7812 0.6702 0.5717 1.1135 1.2801 1.406 2 0.2925-0.7172 0.7381-1.4301 1.406-2 0.3449-0.2941 0.7522-0.5346 1.2143-0.7187-0.674-0.4622-1.5434-0.75-2.7481-0.75z"/>
        <rect transform="matrix(1,7.1034e-4,-8.7512e-4,1,0,0)" height="268.23" width="494.76" y="450.45" x="2226.6" fill="#c2a517"/>
        <rect transform="matrix(.99987 -.016059 .019782 .9998 0 0)" height="135.08" width="47.118" y="600.44" x="3150.9" fill="#c2a517"/>
       </g>
      </g>
      <g fill="#401307" transform="translate(-57.601,419.87)">
       <path d="m2388.5-117.99 12.536 6.7172v43.435h-15.816l6.8908 11.487-79.564 186.05h-14.004v2.8506l5.4091 8.3258v514.68h248.79v-514.06h0.025l6.0264-8.2977v-3.4997h-12.892l-79.564-186.05 6.9163-11.487h-15.257v-43.435l10.502-6.7172h-79.996zm40.71 124.18c6.5046 0 11.773 5.8478 11.773 13.067 0 7.2197-5.2687 13.067-11.773 13.067-6.5044 0-11.798-5.8476-11.798-13.067 0-7.2196 5.294-13.067 11.798-13.067zm-49.864 104.93h38.93v62.514h-38.93zm63.493 0h38.93v62.514h-38.93zm-107.53 117.1h40.964v94.322h-40.964zm73.232 0h40.964v94.322h-40.964zm73.232 0h40.964v94.322h-40.964zm-146.46 145.94h40.964v94.35h-40.964zm73.232 0h40.964v94.35h-40.964zm73.232 0h40.964v94.35h-40.964z"/>
       <path d="m2674.7-88.163c-20.96 0-38.008 19.447-38.527 43.643h-10.049v3.8902h4.1348v9.1785h-4.1348v3.8902h3.0668c-1.2591 3.5856-2.8512 5.4883-5.2025 7.902-1.116 1.145-3.0587 2.1939-4.9015 3.0392-12.112 0.74575-22.012 10.535-24.315 23.402h-4.1621v3.8902h3.724c-0.034 0.61271-0.054 1.2311-0.054 1.854v7.3245h-3.6691v3.8902h3.6691v13.008c-0.014 0.082-0.017 0.095-0.027 0.1823-1.5952 13.106-3.2716 18.8-7.6943 26.776-5.0595 9.1243-9.4667 12.935-12.021 14.527-12.041 2.6765-21.057 14.453-21.057 28.63v11.61h-6.9551v3.8902h4.2168v536.73h248.9v-536.73h4.2443v-3.8902h-7.0098v-11.61c0-12.864-7.4267-23.725-17.798-27.627-2.5664-1.6227-6.9326-5.4674-11.939-14.497-4.0971-7.3873-5.8361-12.895-7.3384-24.071v-16.928h2.6561v-3.8902h-2.6561v-7.3245c0-0.62836-0.021-1.2359-0.055-1.854h2.7108v-3.8902h-3.1763c-2.3315-13.068-12.461-22.932-24.836-23.402-1.324-0.46001-6.6561-2.4089-8.899-4.7108-1.9585-2.0094-3.3865-3.6682-4.5457-6.2304h2.6288v-3.8902h-3.9704c-0.087-0.32492-0.1898-0.62253-0.2737-0.97256v-8.2059h4.2441v-3.8902h-10.405c-0.519-24.196-17.568-43.643-38.527-43.643zm-10.077 98.957h19.058v21.153h-19.058zm-34.173 101.66h33.351v76.437h-33.351zm54.271 0h33.379v76.437h-33.379zm-98.247 124.64h39.732v80.509h-39.732zm67.935 0h39.704v80.509h-39.704zm67.908 0h39.732v80.509h-39.732zm-136.53 135.09h49.26v94.642h-49.26zm62.377 0h49.233v94.642h-49.233zm62.349 0h49.26v94.642h-49.26z"/>
       <path d="m2931-134.66c-13.167 0.13068-18.806 17.279-25.746 15.746-0.2637-0.0579-7.4888 0-7.4888 0l1.9368 6.676v43.088l-94.617 196.05h-14.978v2.8194l5.7844 8.2719v510.78h266.06v-510.17h0.027l6.4559-8.2453v-3.4577h-13.79l-94.023-196.05v-43.088l2.7373-6.676-8.5476 0.21279c-7.141 0.18248-10.642-16.089-23.809-15.959zm-13.635 115.35h23.783v35.827h-23.783zm-53.015 120.35h33.932v62.93h-33.932zm47.928 0h33.958v62.93h-33.958zm47.954 0h33.958v62.93h-33.958zm-140.87 117.79h39.045v73.436h-39.045zm45.191 0h39.045v73.436h-39.045zm45.191 0h39.045v73.436h-39.045zm45.191 0h39.045v73.436h-39.045zm45.217 0h39.019v73.436h-39.019zm-180.79 119.37h39.045v73.436h-39.045zm45.191 0h39.045v73.436h-39.045zm45.191 0h39.045v73.436h-39.045zm45.191 0h39.045v73.436h-39.045zm45.217 0h39.019v73.436h-39.019z"/>
      </g>
      <g transform="translate(-57.601,419.87)">
       <path d="m605.35-670.15v102.53l-154.49 69.108 85.374 77.031v1012.3l62.051 26.984 62.122-10.354v-1040.6l90.463-34.044h-95.268l-3.4628-121.43-41.839 18.669v-100.25zm50.037 239.02v72.952l-16.396-6.5108-7.9153-3.1377-4.6642-1.8826v-50.36zm-114.21 14.198 17.174 15.375 1.1309 48.086-18.305 7.2952zm86.293 48.949 0.63597 0.23519v12.237l-0.63597-0.2352zm1.7669 0.70598 0.56546 0.23521v12.237l-0.56546-0.23519zm1.6961 0.70601 0.21265 0.0782 0.35338 0.15699v12.159l-0.56518-0.23521v-12.159zm1.6962 0.70598 0.63582 0.23521v12.159l-0.63582-0.23521zm1.7667 0.62754 0.56545 0.23521v12.159l-0.56545-0.23521zm1.6962 0.70599 0.63596 0.23521v12.159l-0.63596-0.23521zm1.7667 0.70598 0.42416 0.15699v12.159l-0.42416-0.15698zm1.5549 0.62756 0.56546 0.23519v12.08l-0.56546-0.2352zm1.6962 0.70598 0.63596 0.23521v12.08l-0.63596-0.23519zm1.7667 0.70599 0.56546 0.23519v12.002l-0.56546-0.23521zm1.6961 0.62754 0.6361 0.23521v12.08l-0.6361-0.2352zm1.7667 0.70599 0.56546 0.2352v12.002l-0.56546-0.23519zm1.6962 0.70598 0.56545 0.23521v12.002l-0.56545-0.23521zm1.6961 0.62754 0.63624 0.23523v12.002l-0.63624-0.2352zm1.767 0.706 0.56546 0.2352v12.002l-0.56546-0.2352zm1.6961 0.70599 0.63624 0.23521v11.923l-0.63624-0.23521zm1.7672 0.706 0.42374 0.15679v11.923l-0.42374-0.1568zm-96.187 5.0988v11.923l-0.56545 0.2352v-11.923zm-1.6962 0.70598v11.923l-0.56546 0.23521v-11.923zm-1.6961 0.706v11.923l-0.63624 0.31376v-12.002l0.63624-0.23521zm-1.767 0.70597v12.002l-0.56546 0.23519v-12.002zm-1.6961 0.62756v12.08l-0.63611 0.23521v-12.08zm-1.7667 0.706v12.08l-0.56546 0.23519v-12.08zm-1.6962 0.70597v12.08l-0.56546 0.23521v-12.08zm-1.6961 0.62756v12.159l-0.63611 0.31379v-12.237l0.63611-0.23521zm-1.7667 0.70597v12.237l-0.56546 0.23521v-12.237zm-1.6962 0.706v12.237l-0.63625 0.23521v-12.237zm-1.7669 0.70598v12.237l-0.35352 0.15681v-12.237zm47.775 27.534c3.2787 0 5.9367 3.793 5.9367 8.4718 0 4.6789-2.6581 8.4719-5.9367 8.4719-3.2785 0-5.9366-3.793-5.9366-8.4719s2.6581-8.4718 5.9366-8.4718zm17.244 0c3.2787 0 5.9368 3.793 5.9368 8.4718 0 4.6789-2.6581 8.4719-5.9368 8.4719-3.2784 0-5.9365-3.793-5.9365-8.4719s2.6581-8.4718 5.9365-8.4718zm-31.874 3.4515c3.2729 0 5.9367 3.793 5.9367 8.4719s-2.6639 8.4718-5.9367 8.4718c-3.2797 0-5.9365-3.793-5.9365-8.4718 0-4.6789 2.6568-8.4719 5.9365-8.4719zm46.503 0c3.2798 0 5.9367 3.793 5.9367 8.4719s-2.657 8.4718-5.9367 8.4718c-3.2675 0-5.9366-3.793-5.9366-8.4718 0-4.6789 2.6691-8.4719 5.9366-8.4719zm-61.062 3.1377c3.2798 0 5.9367 3.793 5.9367 8.4719s-2.657 8.4718-5.9367 8.4718c-3.273 0-5.9366-3.793-5.9366-8.4718 0-4.6789 2.6636-8.4719 5.9366-8.4719zm75.621 0c3.2681 0 5.9366 3.793 5.9366 8.4719s-2.6685 8.4718-5.9366 8.4718c-3.2796 0-5.9365-3.793-5.9365-8.4718 0-4.6789 2.6568-8.4719 5.9365-8.4719zm-90.251 3.1377c3.2785 0 5.9366 3.793 5.9366 8.4719s-2.6581 8.4718-5.9366 8.4718-5.9366-3.793-5.9366-8.4718c0-4.6789 2.6581-8.4719 5.9366-8.4719zm104.88 0c3.2787 0 5.9366 3.793 5.9366 8.4719s-2.6579 8.4718-5.9366 8.4718c-3.2785 0-5.9366-3.793-5.9366-8.4718 0-4.6789 2.6581-8.4719 5.9366-8.4719zm-61.062 11.688c3.2787 0 5.9367 3.793 5.9367 8.4719s-2.6581 8.4718-5.9367 8.4718c-3.2785 0-5.9366-3.793-5.9366-8.4718 0-4.6789 2.6581-8.4719 5.9366-8.4719zm17.244 0c3.2787 0 5.9368 3.793 5.9368 8.4719s-2.6581 8.4718-5.9368 8.4718c-3.2784 0-5.9365-3.793-5.9365-8.4718 0-4.6789 2.6581-8.4719 5.9365-8.4719zm-31.874 3.4515c3.2744 0 5.9367 3.793 5.9367 8.4719s-2.6623 8.4719-5.9367 8.4719c-3.2797 0-5.9365-3.793-5.9365-8.4719s2.6568-8.4719 5.9365-8.4719zm46.503 0c3.2798 0 5.9367 3.793 5.9367 8.4719s-2.657 8.4719-5.9367 8.4719c-3.2687 0-5.9366-3.793-5.9366-8.4719s2.668-8.4719 5.9366-8.4719zm-61.062 3.1377c3.2798 0 5.9367 3.793 5.9367 8.4719s-2.657 8.4719-5.9367 8.4719c-3.2737 0-5.9366-3.793-5.9366-8.4719s2.6629-8.4719 5.9366-8.4719zm75.621 0c3.2688 0 5.9366 3.793 5.9366 8.4719s-2.6678 8.4719-5.9366 8.4719c-3.2796 0-5.9365-3.793-5.9365-8.4719s2.6568-8.4719 5.9365-8.4719zm-90.251 3.1378c3.2785 0 5.9366 3.793 5.9366 8.4718 0 4.6789-2.6581 8.4719-5.9366 8.4719s-5.9366-3.793-5.9366-8.4719 2.6581-8.4718 5.9366-8.4718zm104.88 0c3.2787 0 5.9366 3.793 5.9366 8.4718 0 4.6789-2.6579 8.4719-5.9366 8.4719-3.2785 0-5.9366-3.793-5.9366-8.4719s2.6581-8.4718 5.9366-8.4718zm-61.062 11.766c3.2787 0 5.9367 3.793 5.9367 8.4718 0 4.6789-2.6581 8.4719-5.9367 8.4719-3.2785 0-5.9366-3.793-5.9366-8.4719s2.6581-8.4718 5.9366-8.4718zm17.244 0c3.2787 0 5.9368 3.793 5.9368 8.4718 0 4.6789-2.6581 8.4719-5.9368 8.4719-3.2784 0-5.9365-3.793-5.9365-8.4719s2.6581-8.4718 5.9365-8.4718zm-31.874 3.4515c3.2781 0 5.9367 3.793 5.9367 8.4719s-2.6586 8.4718-5.9367 8.4718c-3.2795 0-5.9365-3.793-5.9365-8.4718 0-4.6789 2.657-8.4719 5.9365-8.4719zm46.503 0c3.2798 0 5.9367 3.793 5.9367 8.4719s-2.657 8.4718-5.9367 8.4718c-3.2695 0-5.9366-3.793-5.9366-8.4718 0-4.6789 2.6671-8.4719 5.9366-8.4719zm-61.062 3.1377c3.2798 0 5.9367 3.793 5.9367 8.4719s-2.657 8.4718-5.9367 8.4718c-3.2756 0-5.9366-3.793-5.9366-8.4718 0-4.6789 2.661-8.4719 5.9366-8.4719zm75.621 0c3.2698 0 5.9366 3.793 5.9366 8.4719s-2.6668 8.4718-5.9366 8.4718c-3.2796 0-5.9365-3.793-5.9365-8.4718 0-4.6789 2.6568-8.4719 5.9365-8.4719zm-90.251 3.1377c3.2785 0 5.9366 3.793 5.9366 8.4719s-2.6581 8.4718-5.9366 8.4718-5.9366-3.793-5.9366-8.4718c0-4.6789 2.6581-8.4719 5.9366-8.4719zm104.88 0c3.2787 0 5.9366 3.793 5.9366 8.4719s-2.6579 8.4718-5.9366 8.4718c-3.2785 0-5.9366-3.793-5.9366-8.4718 0-4.6789 2.6581-8.4719 5.9366-8.4719zm-61.062 11.688c3.2787 0 5.9367 3.793 5.9367 8.4719s-2.6581 8.4718-5.9367 8.4718c-3.2785 0-5.9366-3.793-5.9366-8.4718 0-4.6789 2.6581-8.4719 5.9366-8.4719zm17.244 0c3.2787 0 5.9368 3.793 5.9368 8.4719s-2.6581 8.4718-5.9368 8.4718c-3.2784 0-5.9365-3.793-5.9365-8.4718 0-4.6789 2.6581-8.4719 5.9365-8.4719zm-31.874 3.4515c3.2753 0 5.9367 3.793 5.9367 8.4719s-2.6615 8.4719-5.9367 8.4719c-3.2797 0-5.9365-3.793-5.9365-8.4719s2.6568-8.4719 5.9365-8.4719zm46.503 0c3.2798 0 5.9367 3.793 5.9367 8.4719s-2.657 8.4719-5.9367 8.4719c-3.2705 0-5.9366-3.793-5.9366-8.4719s2.6661-8.4719 5.9366-8.4719zm-61.062 3.1377c3.2798 0 5.9367 3.793 5.9367 8.4719s-2.657 8.4719-5.9367 8.4719c-3.2749 0-5.9366-3.793-5.9366-8.4719s2.6617-8.4719 5.9366-8.4719zm75.621 0c3.2706 0 5.9366 3.793 5.9366 8.4719s-2.666 8.4719-5.9366 8.4719c-3.2796 0-5.9365-3.793-5.9365-8.4719s2.6568-8.4719 5.9365-8.4719zm-90.251 3.1377c3.2785 0 5.9366 3.793 5.9366 8.4719s-2.6581 8.4719-5.9366 8.4719-5.9366-3.793-5.9366-8.4719 2.6581-8.4719 5.9366-8.4719zm104.88 0c3.2787 0 5.9366 3.793 5.9366 8.4719s-2.6579 8.4719-5.9366 8.4719c-3.2785 0-5.9366-3.793-5.9366-8.4719s2.6581-8.4719 5.9366-8.4719zm-61.062 11.766c3.2787 0 5.9367 3.793 5.9367 8.4718 0 4.6789-2.6581 8.4719-5.9367 8.4719-3.2785 0-5.9366-3.793-5.9366-8.4719s2.6581-8.4718 5.9366-8.4718zm17.244 0c3.2787 0 5.9368 3.793 5.9368 8.4718 0 4.6789-2.6581 8.4719-5.9368 8.4719-3.2784 0-5.9365-3.793-5.9365-8.4719s2.6581-8.4718 5.9365-8.4718zm-31.874 3.4515c3.2758 0 5.9367 3.793 5.9367 8.4719s-2.6609 8.4719-5.9367 8.4719c-3.2797 0-5.9365-3.793-5.9365-8.4719s2.6568-8.4719 5.9365-8.4719zm46.503 0c3.2798 0 5.9367 3.793 5.9367 8.4719s-2.657 8.4719-5.9367 8.4719c-3.2711 0-5.9366-3.793-5.9366-8.4719s2.6656-8.4719 5.9366-8.4719zm-61.062 3.1377c3.2798 0 5.9367 3.793 5.9367 8.4719s-2.657 8.4718-5.9367 8.4718c-3.2747 0-5.9366-3.793-5.9366-8.4718 0-4.6789 2.6619-8.4719 5.9366-8.4719zm75.621 0c3.2715 0 5.9366 3.793 5.9366 8.4719s-2.6651 8.4718-5.9366 8.4718c-3.2796 0-5.9365-3.793-5.9365-8.4718 0-4.6789 2.6568-8.4719 5.9365-8.4719zm-90.251 3.1377c3.2785 0 5.9366 3.793 5.9366 8.4719s-2.6581 8.4718-5.9366 8.4718-5.9366-3.793-5.9366-8.4718c0-4.6789 2.6581-8.4719 5.9366-8.4719zm104.88 0c3.2787 0 5.9366 3.793 5.9366 8.4719s-2.6579 8.4718-5.9366 8.4718c-3.2785 0-5.9366-3.793-5.9366-8.4718 0-4.6789 2.6581-8.4719 5.9366-8.4719zm-61.06 11.663c3.2787 0 5.9367 3.793 5.9367 8.4719s-2.6581 8.4719-5.9367 8.4719c-3.2785 0-5.9366-3.793-5.9366-8.4719s2.6581-8.4719 5.9366-8.4719zm17.244 0c3.2787 0 5.9368 3.793 5.9368 8.4719s-2.6581 8.4719-5.9368 8.4719c-3.2784 0-5.9365-3.793-5.9365-8.4719s2.6581-8.4719 5.9365-8.4719zm-31.874 3.4515c3.2751 0 5.9367 3.793 5.9367 8.4719s-2.6616 8.4718-5.9367 8.4718c-3.2797 0-5.9365-3.793-5.9365-8.4718 0-4.6789 2.6568-8.4719 5.9365-8.4719zm46.503 0c3.2798 0 5.9367 3.793 5.9367 8.4719s-2.657 8.4718-5.9367 8.4718c-3.2722 0-5.9366-3.793-5.9366-8.4718 0-4.6789 2.6644-8.4719 5.9366-8.4719zm-61.062 3.1377c3.2798 0 5.9367 3.793 5.9367 8.4719s-2.657 8.4718-5.9367 8.4718c-3.2754 0-5.9366-3.793-5.9366-8.4718 0-4.6789 2.6612-8.4719 5.9366-8.4719zm75.621 0c3.2728 0 5.9366 3.793 5.9366 8.4719s-2.6638 8.4718-5.9366 8.4718c-3.2796 0-5.9365-3.793-5.9365-8.4718 0-4.6789 2.6568-8.4719 5.9365-8.4719zm-90.251 3.1377c3.2785 0 5.9366 3.793 5.9366 8.4718 0 4.6789-2.6581 8.4719-5.9366 8.4719s-5.9366-3.793-5.9366-8.4719 2.6581-8.4718 5.9366-8.4718zm104.88 0c3.2787 0 5.9366 3.793 5.9366 8.4718 0 4.6789-2.6579 8.4719-5.9366 8.4719-3.2785 0-5.9366-3.793-5.9366-8.4719s2.6581-8.4718 5.9366-8.4718z"/>
      </g>
      <g transform="translate(-57.601,419.87)">
       <path fill="#504e35" d="m3531.8 222.89c-19.778 0.0631-34.997 1.0787-40.44 4.1548-15.813 8.9366-110.03 196.64-110.03 196.64s-25.272-4.862-36.697-2.1115-2.1328 195.56-1.1657 255.09c0 6.5452 59.562 19.8 153.97 23.975v-183.57s24.712-16.161 53.265-15.529c19.539 0.43224 49.583 12.669 49.583 12.669v186.98c18.644-0.56241 37.971-1.4067 57.929-2.7926 187.91-13.049 311.79-29.212 319.71-39.096 0.8885-79.689-0.8877-290.54-0.2455-370.33 25.974-45.979-69.822-55.107-317.94-63.548-5.2224-0.17762-10.404-0.14258-15.587-0.13632-33.809 0.0405-79.397-2.4889-112.36-2.3839zm10.616 9.5356c21.133-0.0551 47.143 0.0997 73.946 0.6811 99.296 3.5759 217.61 2.5927 306.4 18.186 15.516 2.839 31.218 6.231 41.36 11.511 5.0712 2.6399 8.9034 5.7325 10.371 9.9443 1.4672 4.2118 0.1628 9.117-3.989 14.167-0.5313 0.61915-1.5209 0.64867-2.0813 0.0621s-0.5921-1.6848-0.066-2.3098c3.7526-4.5646 4.377-7.8859 3.3751-10.762-1.0016-2.8757-4.0821-5.6983-8.8366-8.1734-9.5083-4.9501-25.107-8.4105-40.563-11.238-88.37-15.52-206.64-14.538-306.03-18.118-53.288-1.1559-103.39-0.52717-117.94-0.27245-0.1184 0.11019-0.3074 0.26187-0.5522 0.54491-0.5474 0.63248-1.3334 1.6852-2.332 3.065-1.997 2.7597-4.8479 6.936-8.4685 12.669-7.2409 11.466-17.646 29.025-30.867 53.195-24.054 43.976-62.95 120.98-66.459 127.85-0.2553 0.49914-0.6298 0.67382-0.8591 0.74923-0.2291 0.0745-0.3848 0.0675-0.4909 0.0681-0.2137 0.00094-0.3017 0.0236-0.4295 0-0.2555-0.0474-0.5491-0.11206-0.9206-0.20421-0.7429-0.18461-1.8384-0.48077-3.4977-0.81733-3.3193-0.67315-8.7975-1.6101-17.366-2.3158-9.668-0.79629-18.226-0.61298-18.226-0.61298-0.7692 0.0141-1.4816-0.74745-1.4975-1.6013-0.015-0.85391 0.668-1.6474 1.4373-1.668 0 0 8.6431-0.12818 18.471 0.68112 8.6598 0.71318 14.245 1.6206 17.673 2.3158 1.7134 0.34761 2.8814 0.6338 3.6203 0.81734 4.0885-8.0108 42.146-83.296 66.03-126.96 13.248-24.22 23.698-41.787 30.99-53.331 3.6451-5.7723 6.4675-10.024 8.5296-12.873 1.031-1.4247 1.8632-2.5152 2.5163-3.2694 0.3258-0.37707 0.6409-0.70534 0.9203-0.95354 0.2791-0.2482 0.3543-0.59556 1.2887-0.613 7.1513-0.12615 23.419-0.35352 44.551-0.40867zm151.94 37.802c12.63-0.22283 23.503 10.557 23.503 10.557l0.7976 60.211h-50.136v-59.393s10.883-11.111 25.835-11.375zm248.59 30.991c0.4174-0.006 0.7591 0.0902 1.1047 0.20422 2.9205 0.96367 6.0749 7.5604 6.0749 7.5604l0.4297 48.836-15.587-2.9288 0.7365-50.947s4.3196-2.6773 7.2411-2.7245zm-253.19 92.427c12.172-0.11254 24.301 5.0402 24.301 5.0402l-0.7365 69.951-49.706-1.7028-1.1662-66.545s17.82-6.6554 27.308-6.743zm252.52 17.164c0.4161-0.0232 0.8154-0.00078 1.1662 0.0681 2.9624 0.58397 6.3819 5.3808 6.3819 5.3808l-0.5522 35.622-14.605-0.81735 0.5524-37.938s4.1419-2.1544 7.0569-2.3158zm0.491 94.607c0.3874-0.0197 0.7784 0.011 1.1047 0.0681 2.7562 0.48167 5.9524 4.4272 5.9524 4.4272l0.061 29.56-13.132-0.88544-0.5523-31.263s3.8537-1.774 6.5661-1.9071z"/>
      </g>
     </g>
     <g transform="matrix(.99991 .013356 -.013356 .99991 -106.13 36.412)">
      <g transform="matrix(.30666 .021368 -.021368 .30666 446.15 102.05)">
       <rect transform="matrix(0,-1,-1,0,0,0)" rx="1.739" ry="2.0083" height="71.245" width="22.136" y="-343.37" x="-362.62" fill="url(#i)"/>
       <path opacity=".27459" d="m323.21 340.5c-1.7712 9.8916-7.0385 17.993-18.52 22.106h25.852c1.5117 0 2.7652-1.0294 2.7652-2.3385v-17.429c0-1.309-1.2535-2.3388-2.7652-2.3388h-7.3312z" fill="url(#s)"/>
       <rect rx="22.593" ry="0" height="22.133" width="2.7716" y="340.41" x="322.86" fill="url(#r)"/>
       <rect ry="2.5876" rx="2.3032" transform="matrix(0,-1,-1,0,0,0)" height="71.245" width="22.136" y="-451.1" x="-362.62" fill="url(#j)"/>
       <rect transform="matrix(0,-1,-1,0,0,0)" rx="2.3032" ry="2.5876" height="12.117" width="22.136" y="-451.1" x="-362.62" fill="url(#q)"/>
       <rect transform="matrix(0,-1,-1,0,0,0)" rx="4.0124" ry="3.8048" height="78.322" width="38.564" y="-403.23" x="-370.35" fill="url(#k)"/>
       <rect transform="matrix(0,-1,-1,0,0,0)" rx="1.7699" ry="2.0165" height="6.4449" width="20.429" y="-450.11" x="-361.55" fill="url(#p)"/>
       <rect transform="matrix(0,-1,-1,0,0,0)" rx="2.3629" ry="2.7289" height="14.827" width="22.136" y="-286.96" x="-362.62" fill="url(#t)"/>
       <path opacity=".36066" d="m339.57 331.81c-1.2751 1.3932-1.9794 2.9172-1.9794 4.5244 0 6.4286 11.334 11.665 25.238 11.665s25.167-5.2362 25.167-11.665c0-1.6072-0.70428-3.1312-1.9794-4.5244h-46.447z" fill="url(#m)"/>
      </g>
      <circle opacity=".91575" cx="64.171" transform="matrix(.078375 0 0 -.077901 544.51 222.62)" filter="url(#n)" cy="65.54" r="63.144" fill="#0cf"/>
     </g>
     <g transform="matrix(.98449 .17545 -.17545 .98449 324.82 133.24)">
      <g transform="translate(61.696,47.348)">
       <ellipse opacity=".17647" style="color:#000000" fill-rule="evenodd" rx="10.294" transform="translate(-4.4147e-6,-4.1004e-6)" ry="3.484" cy="43.869" cx="25.093" fill="url(#l)"/>
       <g transform="matrix(1.44,0,0,1.44,-11.078,-13.625)" stroke="#000" stroke-miterlimit="10" fill="none">
        <path style="color:#000000" transform="translate(-4.4147e-6,-4.1004e-6)" d="m20.225 38.956 4.595-14.596 5.316 14.596"/>
        <path stroke-linejoin="bevel" style="color:#000000" d="m23.812 28.572 2.908 0.855-4.276 2.907 5.815 1.54-7.183 2.907 8.551 0.855"/>
       </g>
       <circle style="color:#000000" fill-rule="evenodd" cx="24.655" transform="translate(-4.4147e-6,-4.1004e-6)" cy="19.348" r="2.2975" fill="#ef2929"/>
       <circle style="color:#000000" cx="24.775" stroke="url(#d)" cy="19.892" r="7.9414" stroke-miterlimit="10" stroke-width="2.8142" fill="none"/>
       <circle style="color:#000000" cx="24.773" stroke="url(#c)" cy="19.892" r="15.526" stroke-miterlimit="10" stroke-width="2.8142" fill="none"/>
      </g>
     </g>
     <g transform="matrix(.13214 .023548 -.023548 .13214 297.7 259.22)">
      <g transform="translate(370.19,-196.36)">
       <path fill="#999" d="m221.93-101.48-5.9876-35.926 11.975-2.1246 8.4985 32.642z"/>
       <path fill="#1a1a1a" d="m192.57-279.16c1.112-1.1383 1.6346-3.1017 5.1899-0.81946l18.028 92.326 12.565 49.167-12.019 1.3658-6.5556-51.08z"/>
       <path fill="#999" d="m426.76-101.52 5.9876-35.926-11.975-2.1246-8.4985 32.642z"/>
       <path fill="#1a1a1a" d="m456.12-279.2c-1.112-1.1383-1.6346-3.1017-5.1899-0.81946l-18.028 92.326-12.565 49.167 12.019 1.3658 6.5556-51.08z"/>
       <rect ry="3.863" height="11.589" width="35.926" y="-64.204" x="222.51" fill="#333"/>
       <rect ry="3.863" height="11.589" width="35.926" y="-64.204" x="388.51" fill="#333"/>
      </g>
      <g transform="translate(370.19,-196.36)">
       <path fill="#b3b3b3" d="m199.33-105.54c-2.9121-4.4275 18.8-4.378 28.2-6.567l193.53 0.3863 26.268 3.4767v50.218c-7.3106 1.1879-14.845 2.1522-23.178 2.3178l-202.42-0.3863c-7.2109-0.47954-14.422-1.5981-21.633-1.1589l-1.1589-3.0904z"/>
      </g>
      <g transform="translate(370.19,-196.36)">
       <rect height="46.356" width="248.39" y="-105.54" x="199.33" fill="#333"/>
      </g>
      <g transform="translate(370.19,-196.36)">
       <rect height="46.356" width="232.16" y="-105.54" x="215.55" fill="#1a1a1a"/>
      </g>
     </g>
    </g>
   </g>
  </g>
 </g>
</svg>
