<svg xmlns:rdf="http://www.w3.org/1999/02/22-rdf-syntax-ns#" xmlns="http://www.w3.org/2000/svg" height="322" width="571" version="1.1" xmlns:cc="http://creativecommons.org/ns#" xmlns:dc="http://purl.org/dc/elements/1.1/">
<g transform="translate(-118.49 -149.61)">
<g stroke="#fff" transform="translate(0 11.373)">
<g fill="none">
<g stroke-width="0.4">
<path d="m314.28 327.69h144.32v91.069h118.39"/>
<path d="m317.77 319.59h187.72v-54h72.061"/>
<path d="m318.28 312.39h140.43v-109.07h118.51"/>
</g>
<circle opacity="0.87" stroke-linejoin="bevel" cx="-117.35" stroke-linecap="round" transform="scale(-1,1)" cy="299.28" r="128.62" stroke-width=".29272"/>
</g>
<g transform="matrix(1.21 0 0 1.21 -156.25 -180.02)">
<path d="m300.16 375.73c-32.514-11.194-42.142 21.476-18.009 33.182-19.199 30.651 38.563 44.744 52.566 23.649 28.722 19.496 50.444 7.6312 48.216-6.5993 56.013-3.1332 32.315-85.758-19.286-55.649-11.382-23.962-59.109-23.076-63.487 5.418z" stroke-width="0.4"/>
<path d="m295.71 390.77h2.3672v17.496h-2.3672v-17.496"/>
<path d="m313.6 400.35v7.9219h-2.1562v-7.8516c-0.00001-1.2422-0.24219-2.1719-0.72656-2.7891-0.48438-0.61718-1.211-0.92577-2.1797-0.92578-1.1641 0.00001-2.082 0.3711-2.7539 1.1133-0.67188 0.7422-1.0078 1.7539-1.0078 3.0352v7.418h-2.168v-13.125h2.168v2.0391c0.51562-0.78905 1.1211-1.3789 1.8164-1.7695 0.70312-0.39061 1.5117-0.58592 2.4258-0.58593 1.5078 0.00001 2.6484 0.46876 3.4219 1.4062 0.77342 0.9297 1.1601 2.3008 1.1602 4.1133"/>
<path d="m320.06 391.42v3.7266h4.4414v1.6758h-4.4414v7.125c-0.00001 1.0703 0.14452 1.7578 0.43359 2.0625 0.29687 0.30469 0.89452 0.45704 1.793 0.45704h2.2148v1.8047h-2.2148c-1.6641 0-2.8125-0.30859-3.4453-0.92578-0.63282-0.625-0.94923-1.7578-0.94922-3.3984v-7.125h-1.582v-1.6758h1.582v-3.7266h2.168"/>
<path d="m338.57 401.17v1.0547h-9.9141c0.0937 1.4844 0.53906 2.6172 1.3359 3.3984 0.80468 0.77344 1.9219 1.1602 3.3516 1.1602 0.82811 0 1.6289-0.10156 2.4023-0.30469 0.78124-0.20312 1.5547-0.50781 2.3203-0.91406v2.0391c-0.77345 0.32813-1.5664 0.57813-2.3789 0.75-0.81251 0.17188-1.6367 0.25782-2.4727 0.25782-2.0938 0-3.7539-0.60938-4.9805-1.8281-1.2188-1.2188-1.8281-2.8672-1.8281-4.9453 0-2.1484 0.57812-3.8516 1.7344-5.1094 1.1641-1.2656 2.7305-1.8984 4.6992-1.8984 1.7656 0.00001 3.1602 0.57032 4.1836 1.7109 1.0312 1.1328 1.5469 2.6758 1.5469 4.6289m-2.1562-0.63281c-0.0156-1.1797-0.34767-2.1211-0.99609-2.8242-0.64064-0.70311-1.4922-1.0547-2.5547-1.0547-1.2031 0.00001-2.168 0.33986-2.8945 1.0195-0.71876 0.6797-1.1328 1.6367-1.2422 2.8711l7.6875-0.0117"/>
<path d="m349.72 397.16c-0.2422-0.14062-0.50782-0.24218-0.79687-0.30469-0.28126-0.0703-0.59376-0.10546-0.9375-0.10547-1.2188 0.00001-2.1563 0.39845-2.8125 1.1953-0.64845 0.78908-0.97266 1.9258-0.97266 3.4102v6.9141h-2.168v-13.125h2.168v2.0391c0.45312-0.79687 1.043-1.3867 1.7695-1.7695 0.72656-0.39061 1.6094-0.58592 2.6484-0.58593 0.14843 0.00001 0.31249 0.0117 0.49219 0.0351 0.17967 0.0156 0.37889 0.043 0.59765 0.082l0.0117 2.2148"/>
<path d="m362.49 400.35v7.9219h-2.1562v-7.8516c-0.00001-1.2422-0.2422-2.1719-0.72656-2.7891-0.48439-0.61718-1.211-0.92577-2.1797-0.92578-1.1641 0.00001-2.082 0.3711-2.7539 1.1133-0.67188 0.7422-1.0078 1.7539-1.0078 3.0352v7.418h-2.168v-13.125h2.168v2.0391c0.51562-0.78905 1.1211-1.3789 1.8164-1.7695 0.70311-0.39061 1.5117-0.58592 2.4258-0.58593 1.5078 0.00001 2.6484 0.46876 3.4219 1.4062 0.77343 0.9297 1.1602 2.3008 1.1602 4.1133"/>
<path d="m378.04 401.17v1.0547h-9.9141c0.0937 1.4844 0.53906 2.6172 1.3359 3.3984 0.80468 0.77344 1.9219 1.1602 3.3516 1.1602 0.82811 0 1.6289-0.10156 2.4023-0.30469 0.78124-0.20312 1.5547-0.50781 2.3203-0.91406v2.0391c-0.77345 0.32813-1.5664 0.57813-2.3789 0.75-0.81251 0.17188-1.6367 0.25782-2.4727 0.25782-2.0938 0-3.7539-0.60938-4.9805-1.8281-1.2188-1.2188-1.8281-2.8672-1.8281-4.9453 0-2.1484 0.57812-3.8516 1.7344-5.1094 1.1641-1.2656 2.7305-1.8984 4.6992-1.8984 1.7656 0.00001 3.1602 0.57032 4.1836 1.7109 1.0312 1.1328 1.5469 2.6758 1.5469 4.6289m-2.1562-0.63281c-0.0156-1.1797-0.34767-2.1211-0.99609-2.8242-0.64064-0.70311-1.4922-1.0547-2.5547-1.0547-1.2031 0.00001-2.168 0.33986-2.8945 1.0195-0.71876 0.6797-1.1328 1.6367-1.2422 2.8711l7.6875-0.0117"/>
<path d="m383.72 391.42v3.7266h4.4414v1.6758h-4.4414v7.125c-0.00001 1.0703 0.14452 1.7578 0.43359 2.0625 0.29687 0.30469 0.89452 0.45704 1.793 0.45704h2.2148v1.8047h-2.2148c-1.6641 0-2.8125-0.30859-3.4453-0.92578-0.63282-0.625-0.94923-1.7578-0.94922-3.3984v-7.125h-1.582v-1.6758h1.582v-3.7266h2.168"/>
</g>
<g font-size="24px" transform="translate(119 -.000094029)" font-family="&apos;DejaVu Sans&apos;">
<g transform="matrix(.80269 0 0 .79999 3.5674 -136.41)">
<text style="word-spacing:0px;letter-spacing:0px" font-family="sans-serif" font-size="25.6px" stroke="#ffffff" line-height="125%" y="415.34616" x="507.19312" stroke-width="1px" xml:space="preserve" fill="#000000"><tspan font-size="15.599px" stroke="#ffffff" y="415.34616" x="507.19312">Client 1</tspan></text>
</g>
<g transform="matrix(.80269 0 0 .79999 4.5674 -73.41)">
<text style="word-spacing:0px;letter-spacing:0px" font-family="sans-serif" xml:space="preserve" font-size="25.6px" stroke="#ffffff" y="415.34616" x="507.19312" stroke-width="1px" line-height="125%" fill="#000000"><tspan font-size="15.599px" stroke="#ffffff" y="415.34616" x="507.19312">Client 2</tspan></text>
</g>
<g transform="matrix(.80269 0 0 .79999 1.5674 102.6)">
<text style="word-spacing:0px;letter-spacing:0px" font-family="sans-serif" font-size="25.6px" stroke="#ffffff" line-height="125%" y="415.34616" x="507.19312" stroke-width="1px" xml:space="preserve" fill="#000000"><tspan font-size="15.599px" stroke="#ffffff" y="415.34616" x="507.19312">Client N</tspan></text>
</g>
</g>
<g stroke-linejoin="bevel" transform="matrix(.8 0 0 .8 130.86 72.887)" stroke-linecap="round" stroke-width=".40458" fill="none">
<circle opacity="0.87" cy="320.43" cx="589.29" r="4.7977"/>
<circle opacity="0.87" cx="589.29" cy="334.43" r="4.7977"/>
<circle opacity="0.87" cy="348.43" cx="589.29" r="4.7977"/>
</g>
</g>
</g>
<g transform="translate(0 119.44)" stroke="#fff" fill="none">
<g transform="matrix(.80015 0 0 .80015 430.46 89.301)">
<rect transform="translate(0 -297.44)" height="50.003" width="70.458" y="42.653" x="52.528"/>
<path d="m43.675-182.51 6.2581-12.498h37.484 37.484l6.258 12.498 6.258 12.498h-50-50l6.2581-12.498zm6.2488-46.866v-28.12h37.493 37.493v28.12 28.12h-37.493-37.493v-28.12zm68.737 0v-21.871h-31.244-31.244v21.871 21.871h31.244 31.244v-21.871z"/>
</g>
<g transform="matrix(0.7 0 0 0.7 430.62 72.426)">
<rect ry="0" height="83.834" width="46.429" y="-134.64" x="55.189" stroke-width=".57143"/>
<g transform="matrix(.014172 0 0 -.014172 50.572 -38.689)" stroke-width="40.32">
<path d="m456 7054c-148-36-309-163-373-295-68-142-63 132-63-3212 0-2145 3-3041 11-3079 40-193 197-366 391-429l73-24h1465 1465l72 23c86 27 207 105 263 170 52 61 105 162 127 243 17 60 18 232 18 3099v3035l-27 80c-67 197-226 344-420 390-92 22-2912 21-3002-1zm1912-226c16-16 15-23-4-42-13-14-64-16-399-16-211 0-390 3-399 6-16 6-22 45-9 57 3 4 185 7 403 7 295 0 399-3 408-12zm1067-303 25-24v-2768c-1-2160-3-2771-13-2784-7-9-22-21-34-27-16-9-385-12-1458-12h-1437l-29 29-29 29v2757c0 2076 3 2762 12 2778 6 12 18 27 27 34 12 10 342 12 1464 13h1448l24-25zm-1385-5875c22-11 52-39 67-62 39-59 40-147 1-205-76-115-252-108-320 12-28 50-29 125-3 179 41 86 164 122 255 76z" stroke="#fff" stroke-width="40.32" fill="none"/>
</g>
</g>
<g transform="matrix(0.6 0 0 0.6 456.89 130.07)">
<rect transform="translate(0 -297.44)" height="75.509" width="111.12" y="320.95" x="19.951"/>
<path d="m43.072 119.49c-0.45302-0.45301-0.82368-1.1394-0.82368-1.5253 0-0.38591 0.37065-1.0723 0.82368-1.5253l0.82367-0.82367h9.2434 9.2434v-6.7114-6.7114h-21.492-21.492l-0.82367-0.82368-0.82368-0.82367v-39.072c0-37.97 0.01807-39.094 0.64149-39.864l0.64149-0.7922h56.603 56.603l0.64149 0.7922c0.62342 0.76991 0.64149 1.8961 0.64149 39.992v39.2l-0.88418 0.6955c-0.87354 0.68712-1.1421 0.6955-22.315 0.6955h-21.431v6.7114 6.7114h9.1829c8.782 0 9.2215 0.0304 10.067 0.69549 1.1881 0.93453 1.1881 2.3725 0 3.307-0.88032 0.69246-1.0225 0.6955-32.566 0.6955h-31.681l-0.82367-0.82368zm86.089-58.069v-36.074h-53.523-53.523v36.074 36.074h53.523 53.523v-36.074zm20.264 58.568c-0.38977-0.15986-1.0316-0.70113-1.4262-1.2028l-0.71749-0.91215v-47.422c0-33.383 0.10781-47.659 0.36416-48.221 0.2003-0.43959 0.78987-1.0507 1.3102-1.3581 0.85157-0.50303 2.7781-0.55882 19.299-0.55882s18.447 0.0558 19.299 0.55882c0.5203 0.30735 1.1099 0.91848 1.3102 1.3581 0.25635 0.56264 0.36417 14.85 0.36417 48.261v47.462l-0.97903 1.0959-0.97903 1.0959-18.568 0.0669c-10.212 0.0368-18.887-0.0638-19.277-0.22372zm20.187-25.667c0.45302-0.45302 0.82367-1.0367 0.82367-1.297 0-0.84432-1.3597-2.2417-2.1812-2.2417-0.82153 0-2.1812 1.3974-2.1812 2.2417 0 0.64261 1.5203 2.1207 2.1812 2.1207 0.29362 0 0.90451-0.37065 1.3575-0.82367zm1.1055-8.3672c0.88918-1.8306-0.41666-3.8963-2.463-3.8963-2.9669 0-3.823 4.0401-1.0988 5.1855 1.3977 0.58767 2.9174 0.0377 3.5619-1.2892zm15.154-33.594v-3.5235h-17.617-17.617v3.5235 3.5235h17.617 17.617v-3.5235zm0-14.262v-3.6913h-17.617-17.617v3.6913 3.6913h17.617 17.617v-3.6913z"/>
</g>
</g>
</svg>
