<svg xmlns:rdf="http://www.w3.org/1999/02/22-rdf-syntax-ns#" xmlns="http://www.w3.org/2000/svg" height="557.67px" width="634.53px" version="1.1" xmlns:cc="http://creativecommons.org/ns#" xmlns:dc="http://purl.org/dc/elements/1.1/" viewBox="0 0 634.531 557.67">
<path stroke="#fff" stroke-width="3" d="m497.85 495.34c0 34.426-79.74 62.331-178.09 62.331-98.369 0-178.11-27.905-178.11-62.331 0-34.427 79.738-62.338 178.11-62.338 98.35 0 178.09 27.92 178.09 62.34z" fill="#9CDAF1"/>
<path d="m271.35 555.35v-44.432c0-5.737-1.038-10.535-2.771-14.588 11.489 8.923 12.266 31.345 12.266 31.345v28.51c10.339 0.808 21.016 1.296 31.945 1.443l-0.288-28.369c-1.583-38.78-34.822-43.527-34.822-43.527-12.147-2.758-11.967 3.339-10.746 7.277-11.917-20.324-43.857-17.699-43.857-17.699-11.084 3.952-0.796 11.078-0.796 11.078 17.416 6.329 18.997 25.325 18.997 25.325v39.605c9.59 1.644 19.634 3.001 30.079 4.023l-0.01 0.01z" fill="#7DBBE6"/>
<path d="m411.44 475.3s-31.944-2.626-43.86 17.703c1.221-3.938 1.405-10.041-10.744-7.281 0 0-33.237 4.748-34.819 43.527l-0.293 28.412c10.913-0.041 21.59-0.426 31.946-1.125v-28.87s0.78-22.422 12.267-31.345c-1.732 4.053-2.771 8.85-2.771 14.589v44.892c10.419-0.912 20.474-2.145 30.074-3.668v-40.429s1.583-18.997 18.995-25.326c0-0.017 10.278-7.143-0.805-11.1v0.03z" fill="#7DBBE6"/>
<path stroke="#fff" stroke-width="3" d="m634.06 236.95l0.469-2.328c-52.246-10.447-105.86-10.553-138.3-9.205 5.327-19.199 6.932-41.291 6.932-65.926 0-35.332-13.273-63.599-34.825-85.105 3.767-12.155 8.796-39.149-5.021-73.71 0 0-24.382-7.741-79.525 29.167-21.603-5.397-44.592-8.063-67.616-8.063-25.332 0-50.93 3.226-74.803 9.773-56.905-38.82-82.026-30.868-82.026-30.868-16.398 41.007-6.259 71.367-3.179 78.908-19.273 20.8-31.04 47.354-31.04 79.906 0 24.576 2.798 46.625 9.632 65.787-32.713-1.19-84.374-0.732-134.76 9.342l0.463 2.329c50.687-10.137 102.67-10.489 135.19-9.259 1.505 3.967 3.184 7.814 5.065 11.534-32.153 1.035-87.055 5.134-139.67 19.978l0.649 2.279c53.031-14.951 108.41-18.947 140.25-19.922 19.211 35.811 57.086 58.938 124.47 66.2-9.563 6.428-19.32 17.353-23.273 35.837-13.032 6.233-54.288 21.449-79.041-21.124 0 0-13.855-25.333-40.377-27.315 0 0-25.726-0.395-1.775 16.032 0 0 17.214 8.11 29.091 38.595 0 0 15.494 51.993 90.263 35.312v53.707s-1.581 18.996-18.997 25.325-10.29 7.124 0.796 11.076 48.274 3.959 48.274-35.608v-58.57s-1.915-23.226 9.494-31.298v96.189s-0.788 22.95-12.66 31.657-7.919 14.241 9.495 10.289 33.237-4.748 34.822-43.527l0.753-97.346h7.989l0.76 97.346c1.58 38.779 34.82 43.527 34.82 43.527 17.408 3.952 9.494-10.289 9.494-10.289-11.87-8.707-12.66-31.657-12.66-31.657v-95.36c11.403 8.88 9.495 30.467 9.495 30.467v58.562c0 39.569 48.274 35.608 48.274 35.608 11.077-3.951 0.796-11.075 0.796-11.075-17.414-6.33-18.996-25.326-18.996-25.326v-76.767c0-29.936-12.604-45.788-24.933-54.156 71.859-7.126 106.34-30.328 122.23-66.38 31.476 0.865 88.119 4.7 142.3 19.983l0.646-2.279c-53.873-15.195-110.14-19.127-141.94-20.053 1.507-3.644 2.82-7.431 3.988-11.326 32.275-1.342 86.146-1.324 138.59 9.154l-0.06-0.02z"/>
<path d="m432.88 157.83c15.478 14.021 24.53 30.954 24.53 49.197 0 85.181-63.498 87.489-141.82 87.489-78.334 0-141.82-11.796-141.82-87.489 0-18.123 8.926-34.949 24.212-48.914 25.499-23.273 68.652-10.95 117.61-10.95 48.74-0.007 91.746-12.456 117.28 10.658h0.01z" fill="#F4CBB2"/>
<path d="m268.42 211.36c0 23.463-13.212 42.479-29.509 42.479s-29.509-19.018-29.509-42.479c0-23.459 13.212-42.47 29.509-42.47 16.3 0.02 29.51 19.02 29.51 42.47zm158.32 0c0 23.463-13.212 42.479-29.51 42.479-16.297 0-29.51-19.018-29.51-42.479 0-23.459 13.213-42.47 29.51-42.47 16.3 0.02 29.51 19.02 29.51 42.47z" fill="#fff"/>
<g fill="#AD5C51">
<path d="m258.96 211.9c0 15.64-8.819 28.312-19.674 28.312s-19.672-12.674-19.672-28.312c0-15.646 8.811-28.325 19.672-28.325 10.848 0 19.667 12.675 19.667 28.317zm158.31 0c0 15.64-8.818 28.312-19.674 28.312-10.854 0-19.672-12.674-19.672-28.312 0-15.646 8.811-28.325 19.672-28.325 10.85 0 19.668 12.675 19.668 28.317z"/>
<circle cy="249.09" cx="316.04" r="7.379"/>
<path d="m298.82 267.75c-0.436-1.238 0.215-2.591 1.444-3.027 1.235-0.436 2.592 0.216 3.025 1.443 1.901 5.363 6.987 8.964 12.661 8.964s10.759-3.6 12.661-8.964c0.436-1.236 1.789-1.879 3.025-1.443 1.237 0.438 1.879 1.789 1.445 3.027-2.562 7.25-9.455 12.12-17.132 12.12-7.678 0-14.554-4.846-17.119-12.105l0.01-0.01z"/>
</g>
<path d="m135.19 301.5c0 1.969-2.307 3.559-5.147 3.559-2.838 0-5.147-1.59-5.147-3.559 0-1.97 2.309-3.565 5.147-3.565 2.84 0 5.147 1.594 5.147 3.571v-0.01zm14.25 7.92c0 1.969-2.307 3.558-5.147 3.558-2.839 0-5.147-1.589-5.147-3.558 0-1.97 2.309-3.566 5.147-3.566 2.84 0 5.147 1.594 5.147 3.571zm8.71 10.29c0 1.968-2.307 3.558-5.147 3.558-2.838 0-5.147-1.59-5.147-3.558 0-1.971 2.309-3.565 5.147-3.565 2.84 0 5.147 1.593 5.147 3.57zm7.92 11.87c0 1.969-2.307 3.559-5.147 3.559-2.838 0-5.147-1.59-5.147-3.559 0-1.97 2.309-3.566 5.147-3.566 2.84 0 5.147 1.595 5.147 3.571zm8.69 11.08c0 1.969-2.307 3.558-5.147 3.558-2.838 0-5.147-1.589-5.147-3.558 0-1.97 2.309-3.566 5.147-3.566 2.84 0 5.147 1.594 5.147 3.571zm11.89 9.49c0 1.969-2.307 3.559-5.147 3.559-2.838 0-5.147-1.59-5.147-3.559 0-1.971 2.309-3.565 5.147-3.565 2.84 0 5.147 1.593 5.147 3.571zm16.62 6.34c0 1.969-2.307 3.559-5.147 3.559-2.838 0-5.147-1.59-5.147-3.559 0-1.971 2.309-3.565 5.147-3.565 2.84 0 5.147 1.593 5.147 3.571zm16.55 0c0 1.969-2.307 3.559-5.147 3.559-2.838 0-5.147-1.59-5.147-3.559 0-1.971 2.309-3.565 5.147-3.565 2.84 0 5.147 1.593 5.147 3.571zm16.78-2.75c0 1.968-2.307 3.558-5.147 3.558-2.838 0-5.147-1.59-5.147-3.558 0-1.972 2.309-3.566 5.147-3.566 2.84 0 5.147 1.593 5.147 3.571z" fill="#C3E4D8"/>
<path stroke="#fff" stroke-width="3" d="m116.3 312.06l-5.141 17.91s-1.341 6.475 4.762 7.622c6.371-0.124 5.845-6.081 5.404-8.016l-5.02-17.51z" fill="#9CDAF1"/>
<g transform="translate(-854.08 -39.723)" fill="#7dbbe6">
<path d="m1127.2 593.57v-44.432c0-5.737-1.038-10.535-2.771-14.588 11.489 8.923 12.266 31.345 12.266 31.345v28.51c10.339 0.808 21.016 1.296 31.945 1.443l-0.288-28.369c-1.583-38.78-34.822-43.527-34.822-43.527-12.147-2.758-11.967 3.339-10.746 7.277-11.917-20.324-43.857-17.699-43.857-17.699-11.084 3.952-0.796 11.078-0.796 11.078 17.416 6.329 18.997 25.325 18.997 25.325v39.605c9.59 1.644 19.634 3.001 30.079 4.023l-0.01 0.01z"/>
<path d="m1267.3 513.52s-31.944-2.626-43.86 17.703c1.221-3.938 1.405-10.041-10.744-7.281 0 0-33.237 4.748-34.819 43.527l-0.293 28.412c10.913-0.041 21.59-0.426 31.946-1.125v-28.87s0.78-22.422 12.267-31.345c-1.732 4.053-2.771 8.85-2.771 14.589v44.892c10.419-0.912 20.474-2.145 30.074-3.668v-40.429s1.583-18.997 18.995-25.326c0-0.017 10.278-7.143-0.805-11.1v0.03z"/>
</g>
</svg>
