<svg xmlns:rdf="http://www.w3.org/1999/02/22-rdf-syntax-ns#" xmlns="http://www.w3.org/2000/svg" height="557.67px" width="634.53px" version="1.1" xmlns:cc="http://creativecommons.org/ns#" xmlns:dc="http://purl.org/dc/elements/1.1/" viewBox="0 0 634.531 557.67">
<path stroke="#fff" stroke-width="3" d="m497.85 495.34c0 34.426-79.74 62.331-178.09 62.331-98.369 0-178.11-27.905-178.11-62.331 0-34.427 79.738-62.338 178.11-62.338 98.35 0 178.09 27.92 178.09 62.34z" fill="#9CDAF1"/>
<path d="m271.35 555.35v-44.432c0-5.737-1.038-10.535-2.771-14.588 11.489 8.923 12.266 31.345 12.266 31.345v28.51c10.339 0.808 21.016 1.296 31.945 1.443l-0.288-28.369c-1.583-38.78-34.822-43.527-34.822-43.527-12.147-2.758-11.967 3.339-10.746 7.277-11.917-20.324-43.857-17.699-43.857-17.699-11.084 3.952-0.796 11.078-0.796 11.078 17.416 6.329 18.997 25.325 18.997 25.325v39.605c9.59 1.644 19.634 3.001 30.079 4.023l-0.01 0.01z" fill="#7DBBE6"/>
<path d="m411.44 475.3s-31.944-2.626-43.86 17.703c1.221-3.938 1.405-10.041-10.744-7.281 0 0-33.237 4.748-34.819 43.527l-0.293 28.412c10.913-0.041 21.59-0.426 31.946-1.125v-28.87s0.78-22.422 12.267-31.345c-1.732 4.053-2.771 8.85-2.771 14.589v44.892c10.419-0.912 20.474-2.145 30.074-3.668v-40.429s1.583-18.997 18.995-25.326c0-0.017 10.278-7.143-0.805-11.1v0.03z" fill="#7DBBE6"/>
<path stroke="#fff" stroke-width="3" d="m634.06 236.95l0.469-2.328c-52.246-10.447-105.86-10.553-138.3-9.205 5.327-19.199 6.932-41.291 6.932-65.926 0-35.332-13.273-63.599-34.825-85.105 3.767-12.155 8.796-39.149-5.021-73.71 0 0-24.382-7.741-79.525 29.167-21.603-5.397-44.592-8.063-67.616-8.063-25.332 0-50.93 3.226-74.803 9.773-56.905-38.82-82.026-30.868-82.026-30.868-16.398 41.007-6.259 71.367-3.179 78.908-19.273 20.8-31.04 47.354-31.04 79.906 0 24.576 2.798 46.625 9.632 65.787-32.713-1.19-84.374-0.732-134.76 9.342l0.463 2.329c50.687-10.137 102.67-10.489 135.19-9.259 1.505 3.967 3.184 7.814 5.065 11.534-32.153 1.035-87.055 5.134-139.67 19.978l0.649 2.279c53.031-14.951 108.41-18.947 140.25-19.922 19.211 35.811 57.086 58.938 124.47 66.2-9.563 6.428-19.32 17.353-23.273 35.837-13.032 6.233-54.288 21.449-79.041-21.124 0 0-13.855-25.333-40.377-27.315 0 0-25.726-0.395-1.775 16.032 0 0 17.214 8.11 29.091 38.595 0 0 15.494 51.993 90.263 35.312v53.707s-1.581 18.996-18.997 25.325-10.29 7.124 0.796 11.076c0 0 48.274 3.959 48.274-35.608v-58.57s-1.915-23.226 9.494-31.298v96.189s-0.788 22.95-12.66 31.657-7.919 14.241 9.495 10.289c0 0 33.237-4.748 34.822-43.527l0.753-97.346h7.989l0.76 97.346c1.58 38.779 34.82 43.527 34.82 43.527 17.408 3.952 9.494-10.289 9.494-10.289-11.87-8.707-12.66-31.657-12.66-31.657v-95.36c11.403 8.88 9.495 30.467 9.495 30.467v58.562c0 39.569 48.274 35.608 48.274 35.608 11.077-3.951 0.796-11.075 0.796-11.075-17.414-6.33-18.996-25.326-18.996-25.326v-76.767c0-29.936-12.604-45.788-24.933-54.156 71.859-7.126 106.34-30.328 122.23-66.38 31.476 0.865 88.119 4.7 142.3 19.983l0.646-2.279c-53.873-15.195-110.14-19.127-141.94-20.053 1.507-3.644 2.82-7.431 3.988-11.326 32.275-1.342 86.146-1.324 138.59 9.154l-0.06-0.02z"/>
<path d="m432.88 157.83c15.478 14.021 24.53 30.954 24.53 49.197 0 85.181-63.498 87.489-141.82 87.489-78.334 0-141.82-11.796-141.82-87.489 0-18.123 8.926-34.949 24.212-48.914 25.499-23.273 68.652-10.95 117.61-10.95 48.74-0.007 91.746-12.456 117.28 10.658h0.01z" fill="#F4CBB2"/>
<path d="m268.42 211.36c0 23.463-13.212 42.479-29.509 42.479s-29.509-19.018-29.509-42.479c0-23.459 13.212-42.47 29.509-42.47 16.3 0.02 29.51 19.02 29.51 42.47zm158.32 0c0 23.463-13.212 42.479-29.51 42.479-16.297 0-29.51-19.018-29.51-42.479 0-23.459 13.213-42.47 29.51-42.47 16.3 0.02 29.51 19.02 29.51 42.47z" fill="#fff"/>
<g fill="#AD5C51">
<path d="m258.96 211.9c0 15.64-8.819 28.312-19.674 28.312s-19.672-12.674-19.672-28.312c0-15.646 8.811-28.325 19.672-28.325 10.848 0 19.667 12.675 19.667 28.317zm158.31 0c0 15.64-8.818 28.312-19.674 28.312-10.854 0-19.672-12.674-19.672-28.312 0-15.646 8.811-28.325 19.672-28.325 10.85 0 19.668 12.675 19.668 28.317z"/>
<circle cy="249.09" cx="316.04" r="7.379"/>
<path d="m298.82 267.75c-0.436-1.238 0.215-2.591 1.444-3.027 1.235-0.436 2.592 0.216 3.025 1.443 1.901 5.363 6.987 8.964 12.661 8.964s10.759-3.6 12.661-8.964c0.436-1.236 1.789-1.879 3.025-1.443 1.237 0.438 1.879 1.789 1.445 3.027-2.562 7.25-9.455 12.12-17.132 12.12-7.678 0-14.554-4.846-17.119-12.105l0.01-0.01z"/>
</g>
<path d="m135.19 301.5c0 1.969-2.307 3.559-5.147 3.559-2.838 0-5.147-1.59-5.147-3.559 0-1.97 2.309-3.565 5.147-3.565 2.84 0 5.147 1.594 5.147 3.571v-0.01zm14.25 7.92c0 1.969-2.307 3.558-5.147 3.558-2.839 0-5.147-1.589-5.147-3.558 0-1.97 2.309-3.566 5.147-3.566 2.84 0 5.147 1.594 5.147 3.571zm8.71 10.29c0 1.968-2.307 3.558-5.147 3.558-2.838 0-5.147-1.59-5.147-3.558 0-1.971 2.309-3.565 5.147-3.565 2.84 0 5.147 1.593 5.147 3.57zm7.92 11.87c0 1.969-2.307 3.559-5.147 3.559-2.838 0-5.147-1.59-5.147-3.559 0-1.97 2.309-3.566 5.147-3.566 2.84 0 5.147 1.595 5.147 3.571zm8.69 11.08c0 1.969-2.307 3.558-5.147 3.558-2.838 0-5.147-1.589-5.147-3.558 0-1.97 2.309-3.566 5.147-3.566 2.84 0 5.147 1.594 5.147 3.571zm11.89 9.49c0 1.969-2.307 3.559-5.147 3.559-2.838 0-5.147-1.59-5.147-3.559 0-1.971 2.309-3.565 5.147-3.565 2.84 0 5.147 1.593 5.147 3.571zm16.62 6.34c0 1.969-2.307 3.559-5.147 3.559-2.838 0-5.147-1.59-5.147-3.559 0-1.971 2.309-3.565 5.147-3.565 2.84 0 5.147 1.593 5.147 3.571zm16.55 0c0 1.969-2.307 3.559-5.147 3.559-2.838 0-5.147-1.59-5.147-3.559 0-1.971 2.309-3.565 5.147-3.565 2.84 0 5.147 1.593 5.147 3.571zm16.78-2.75c0 1.968-2.307 3.558-5.147 3.558-2.838 0-5.147-1.59-5.147-3.558 0-1.972 2.309-3.566 5.147-3.566 2.84 0 5.147 1.593 5.147 3.571z" fill="#C3E4D8"/>
<path stroke="#fff" stroke-width="3" d="m116.3 312.06l-5.141 17.91s-1.341 6.475 4.762 7.622c6.371-0.124 5.845-6.081 5.404-8.016l-5.02-17.51z" fill="#9CDAF1"/>
<g transform="translate(-854.08 -39.723)">
<path fill="#7dbbe6" d="m1127.2 593.57v-44.432c0-5.737-1.038-10.535-2.771-14.588 11.489 8.923 12.266 31.345 12.266 31.345v28.51c10.339 0.808 21.016 1.296 31.945 1.443l-0.288-28.369c-1.583-38.78-34.822-43.527-34.822-43.527-12.147-2.758-11.967 3.339-10.746 7.277-11.917-20.324-43.857-17.699-43.857-17.699-11.084 3.952-0.796 11.078-0.796 11.078 17.416 6.329 18.997 25.325 18.997 25.325v39.605c9.59 1.644 19.634 3.001 30.079 4.023l-0.01 0.01z"/>
<path fill="#7dbbe6" d="m1267.3 513.52s-31.944-2.626-43.86 17.703c1.221-3.938 1.405-10.041-10.744-7.281 0 0-33.237 4.748-34.819 43.527l-0.293 28.412c10.913-0.041 21.59-0.426 31.946-1.125v-28.87s0.78-22.422 12.267-31.345c-1.732 4.053-2.771 8.85-2.771 14.589v44.892c10.419-0.912 20.474-2.145 30.074-3.668v-40.429s1.583-18.997 18.995-25.326c0-0.017 10.278-7.143-0.805-11.1v0.03z"/>
<path d="m1192.6 550.87 110.31-45.363 10.31-16.839-5.1549-21.307-32.991-58.078-13.059-29.898-4.1239-20.963 8.2478-12.372 15.121 10.31 17.183 57.391 35.741 65.639 4.4676 24.4-6.5295 10.653-97.943 39.521-20.963 13.746-13.746 4.4676-11.341-13.403z" fill-opacity=".87059" fill-rule="evenodd" fill="#f69431"/>
<path fill="#7dbbe6" d="m1348.2 520.96s-5.4873-3.3666-16.89-1.3718c-11.402 1.9948-24.404 7.591-24.404 7.591s-40.772 15.133-61.61 25.151c-17.676 8.4977-53.861 29.288-53.861 29.288 5.908 4.194-0.7227 5.1955 5.3091 8.8084l124.26-49.88s12.287-1.9331 26.3 3.3065c0 0 5.7883-4.9501 3.7967-12.689z"/>
<g transform="matrix(2.8614 5.5844 -5.5844 2.8614 4851.9 -2547.6)">
<g transform="matrix(.091125 0 0 .091125 225.82 704.08)">
<g fill-rule="evenodd" transform="matrix(.75097 .88649 -.92617 .71879 528.12 -163.26)" stroke="#000" fill="#f93">
<path d="m-498.7 1039c-1.9714 2.5273-4.687 7.219-5.7444 10.246-0.8948 2.5613-1.8092 5.3108-1.5119 8.0076 0.41725 3.7849 2.0131 7.6104 4.4972 10.496 2.6848 3.1194 6.5514 5.3827 10.511 6.5089 3.2058 0.9119 6.7193 0.5848 9.9981-0.016 5.0848-0.9322 9.9892-2.9474 14.488-5.4926 6.0941-3.4488 11.274-8.346 16.509-12.996 8.4583-7.5142 16.285-15.726 24.004-23.998 8.1396-8.7241 15.508-18.72 22.56-27.764 10.794-13.844 17.605-22.943 27.475-35.615 5.8768-7.5457 17.113-22.962 23.974-29.627 3.7363-3.6294 7.3621-7.5973 11.979-10.003 3.3709-1.7574 7.2279-2.6349 11.009-2.9931 2.1611-0.20273 4.3546 0.0829 6.488 0.4975 3.7806 0.73124 7.4806 1.9895 11.019 3.4959 11.671 5.3635 24.552 17.573 43.499 37 11.663 9.6464 29.461 28.734 45.996 49.013 4.4797 4.521 15.148 18.325 19.497 22.977 3.0772 3.2889 6.602 6.5143 9.6734 9.8103 2.3276 2.5034 7.4007 5.9415 10.339 7.7075 3.4697 2.1024 7.4693 3.414 11.483 3.9906 3.468 0.5015 7.1528 0.4914 10.519-0.4997 3.5012-1.0356 6.4612-3.4343 9.4837-5.4979 1.7573-1.2055 3.8236-3.4639 4.9983-5.2485 1.7219-2.5969 2.0969-4.6625 2.5173-7.7459 0.31675-2.3143 0.45515-4.714-0.008-6.9974-0.77426-3.7322-2.3643-7.3437-4.4994-10.497-3.042-4.4926-7.3855-7.9907-11.511-11.514-8.4509-7.1958-17.711-11.837-26.641-18.426-10.246-7.5616-20.914-18.604-30.856-26.571-15.497-15.315-30.537-29.926-50.496-49.51-4.4804-5.1613-9.2566-10.065-14.009-14.984-6.8796-7.1185-13.444-14.609-20.998-21.007-3.2821-2.7797-5.4012-4.2135-9.4296-5.7262-5.7737-2.0747-14.459-2.4106-20.569-0.75305-4.53 1.5167-8.9994 3.2365-12.982 5.8722-5.4528 3.6121-9.2116 6.4295-14.034 10.838-4.704 4.3022-11.65 11.822-16.888 18.322-3.3606 4.6806-13.048 17.158-21.098 26.946-12.254 14.899-22.989 30.07-35.792 44.5-8.5296 9.6129-18.186 19.357-27.702 27.993-7.0357 6.3856-15.213 11.924-23.999 17.522-5.6728 3.615-9.6122 6.4352-13.75 11.739zm9.1185 8.4351c2.1523-3.3889 6.0388-5.2875 9.1853-7.7803 6.2077-4.9171 13.075-8.9953 19.101-14.134 5.8973-5.029 11.314-10.61 16.605-16.274 7.9282-8.4879 15.378-17.448 22.636-26.516 11.783-14.724 22.15-30.525 33.932-45.249 9.8674-12.332 19.387-25.087 30.759-36.057 5.7393-5.5363 11.852-10.865 18.746-14.86 7.7967-4.425 17.275-5.3419 22.684-4.6882l0.0142 0.0115c-18.98 2.443-26.986 10.632-42.004 32.78-12.608 18.593-20.309 42.078-53.446 90.637-6.3292 9.2761-14.209 19.539-24.064 30.424-14.079 14.747-29.017 27.416-34.001 28.666-4.0267 1.0089-9.3829 3.3201-13.376 2.1834-2.7441-0.7806-4.8706-1.6114-6.9567-3.5577-1.2806-1.1947-1.8766-4.6887-2.2886-6.3913-0.74588-3.0847 0.77318-6.5154 2.4746-9.194zm144.63-146.2c3.0276-3.4576 6.2287-6.6087 9.5982-9.3033 11.728-8.3226 19.525-18.245 100.97 63.364 20.862 20.897 45.375 44.588 65.641 54.633 7.5509 3.7408 15.103 11.404 15.394 19.84 0.14736 4.4443-3.3403 8.8678-7.0597 11.302-2.692 1.7629-6.4162 2.0964-9.5652 1.4152-7.4085-1.6111-13.158-7.6353-19.078-12.364-24.978-20.004-45.015-45.552-68.603-67.178-16.136-14.802-30.157-33.185-49.843-42.772-5.9401-2.8969-12.935-5.0612-19.447-3.8956-10.209 1.8177-19.043 9.0747-26.511 16.266-10.221 9.8409-16.41 19.338-21.206 28.091-1.2413 2.2638-6.8176 11.511-6.8176 11.511l2.7683-7.5898s12.575-39.118 33.761-63.316z" stroke="#fff" stroke-width="4.4976" fill="#000"/>
</g>
</g>
</g>
</g>
</svg>
