<?xml version="1.0" encoding="UTF-8" standalone="no"?>
<!-- Created with Inkscape (http://www.inkscape.org/) -->
<svg id="svg2985" xmlns:rdf="http://www.w3.org/1999/02/22-rdf-syntax-ns#" xmlns="http://www.w3.org/2000/svg" height="100%" viewBox="0 0 600 1500" width="100%" version="1.1" xmlns:cc="http://creativecommons.org/ns#" xmlns:xlink="http://www.w3.org/1999/xlink" xmlns:dc="http://purl.org/dc/elements/1.1/">
 <metadata id="metadata2987">
  <rdf:RDF>
   <cc:Work rdf:about="">
    <dc:format>image/svg+xml</dc:format>
    <dc:type rdf:resource="http://purl.org/dc/dcmitype/StillImage"/>
    <dc:title/>
   </cc:Work>
  </rdf:RDF>
 </metadata>
 <defs id="defs2989">
  <linearGradient id="linearGradient3771" x1="660" gradientUnits="userSpaceOnUse" y1="68" gradientTransform="matrix(.24829 0 0 .48104 .57693 -.020123)" x2="3800" y2="5600">
   <stop id="stop2992" offset="0"/>
   <stop id="stop2994" stop-color="#041329" offset=".18"/>
   <stop id="stop2996" stop-color="#01072a" stop-opacity="0" offset="1"/>
  </linearGradient>
  <clipPath id="clipPath7467-12">
   <rect id="rect20974" ry="13" height="34" width="64" y="1100" x="420"/>
  </clipPath>
  <linearGradient id="linearGradient9453-7" x1="-1800" gradientUnits="userSpaceOnUse" y1="2700" gradientTransform="matrix(.014430 .0060158 -.0052776 .012659 223.76 103.19)" x2="18000" y2="31000">
   <stop id="stop20967" stop-color="#051729" offset="0"/>
   <stop id="stop20969" stop-color="#041329" stop-opacity=".80392" offset=".4"/>
   <stop id="stop20971" stop-color="#01072a" stop-opacity="0" offset="1"/>
  </linearGradient>
 </defs>
 <rect id="rect3054" height="1500" width="600" stroke-miterlimit="0" y="0" x="0" stroke-width="0" fill="url(#linearGradient3771)"/>
 <g id="g14379">
  <text id="text3056" style="word-spacing:0px;letter-spacing:0px" xml:space="preserve" font-size="40px" line-height="125%" y="1078.4438" x="1376.9393" font-family="Sans"><tspan id="tspan3058" y="1078.4438" x="1376.9393"/></text>
  <text id="text3060" style="word-spacing:0px;letter-spacing:0px" xml:space="preserve" font-size="13px" line-height="125%" y="1381.0938" x="1273.4375" font-family="Arial Hebrew"><tspan id="tspan3062" y="1381.0938" x="1273.4375"/></text>
  <text id="text3064" style="word-spacing:0px;letter-spacing:0px" xml:space="preserve" font-size="6px" line-height="125%" y="1391.3274" x="1272.1416" font-family="Krungthep"><tspan id="tspan3066" y="1391.3274" x="1272.1416"/></text>
 </g>
 <g id="g21582" transform="translate(-21.376 -14.914)">
  <g id="g14440" stroke="#fff" stroke-miterlimit="0" fill="#fff">
   <path id="path20976" stroke-width=".064" d="m38 320a0.36 0.41 0 0 1 -0.72 0 0.36 0.41 0 1 1 0.72 0z"/>
   <path id="path20978" stroke-width=".15726" d="m140 400a0.9 0.9 0 0 1 -1.8 0 0.9 0.9 0 1 1 1.8 0z"/>
   <path id="path20980" stroke-width=".078584" d="m120 130z"/>
   <path id="path20982" stroke-width=".11795" d="m120 290a0.7 0.7 0 0 1 -1.4 0 0.7 0.7 0 1 1 1.4 0z"/>
   <path id="path20984" stroke-width=".19658" d="m160 390a1.1 1.1 0 0 1 -2.2 0 1.1 1.1 0 1 1 2.2 0z"/>
   <path id="path10387" d="m130 320a0.365 0.52722 0 0 1 -0.73 0 0.365 0.52722 0 1 1 0.73 0z" stroke="#fff" stroke-miterlimit="0" stroke-width=".076056" fill="#fff"/>
   <path id="path20987" stroke-width=".23589" d="m94 330a1.4 1.4 0 0 1 -2.6 0 1.4 1.4 0 1 1 2.6 0z"/>
   <path id="path20989" stroke-width=".11795" d="m150 340a0.66287 0.67292 56 1 1 -0.74 -1.1 0.66287 0.67292 56 0 1 0.74 1.1z"/>
   <path id="path20991" stroke-width=".23589" d="m220 120a1.4 1.4 0 0 1 -2.6 0 1.4 1.4 0 1 1 2.6 0z"/>
   <path id="path20993" stroke-width=".076056" d="m200 330z"/>
   <path id="path20995" stroke-width=".15726" d="m400 70a0.92195 0.92195 0 0 1 1.2 1.4 0.89 0.89 0 0 1 0 -0.9z"/>
   <path id="path20997" stroke-width=".076056" d="m190 390z"/>
   <path id="path20999" stroke-width=".07863" d="m190 330a0.44 0.44 0 1 1 -0.002 0.88z"/>
   <path id="path21001" stroke-width=".076056" d="m100 370a0.38146 0.522 51 0 1 -0.9 0 0.38146 0.522 51 1 1 0.9 0z"/>
   <path id="path21003" stroke-width=".038994" d="m38 360a0.22 0.22 0 1 1 0.36 0 0.22 0.22 0 0 1 -0.36 0z"/>
   <path id="path21005" stroke-width=".038994" d="m470 340z"/>
   <path id="path21007" stroke-width=".11795" d="m460 76a0.67 0.66 45 1 1 0.9 -0.9 0.67 0.66 45 0 1 -0.9 0.9z"/>
   <path id="path21009" stroke-width=".038994" d="m100 330z"/>
   <path id="path21011" stroke-width=".078479" d="m260 230a0.4423 0.4423 0 0 1 0.88 0.09z"/>
   <path id="path21013" stroke-width=".076056" d="m160 150a0.37 0.5 5.3 0 1 0.73 0.075z"/>
   <path id="path10423" d="m82 290a0.37 0.5 5.3 1 1 0.73 0.075 0.45 0.61 5.3 0 1 -0.9 0z" stroke="#fff" stroke-miterlimit="0" stroke-width=".076056" fill="#fff"/>
   <g id="g7636" stroke-width=".038994">
    <path id="path21016" d="m330 390a0.22277 0.22277 0 1 1 0.31 -0.32z"/>
    <path id="path21018" d="m290 360z"/>
    <path id="path21020" d="m220 330z"/>
   </g>
   <path id="path21022" stroke-width=".076056" d="m190 350a0.5 0.37 62 1 1 0.64 -0.35z"/>
   <g id="g14467" stroke-width=".038994">
    <path id="path21024" d="m160 370a0.22 0.22 0 0 1 0.081 -0.43z"/>
    <path id="path21026" d="m180 410a0.22 0.22 0 0 1 0.081 -0.43z"/>
    <path id="path21028" d="m400 350a0.22 0.22 0 1 1 -0.42 0.13z"/>
   </g>
   <path id="path21030" stroke-width=".45134" d="m75 160a2.5612 2.5612 0 0 1 -3.2 4 2.5612 2.5612 0 1 1 3.2 -4z"/>
   <path id="path21032" stroke-width=".038994" d="m110 380z"/>
   <path id="path21034" stroke-width=".19658" d="m170 270a1.1376 1.1376 0 1 1 0.58 -2.2 1.1376 1.1376 0 0 1 -0.58 2.2z"/>
   <path id="path21036" stroke-width=".038994" d="m130 330a0.22 0.22 0 0 1 0.14 -0.41z"/>
   <path id="path21038" stroke-width=".07863" d="m380 120a0.44 0.44 0 0 1 -0.88 0 0.44 0.44 0 1 1 0.88 0z"/>
   <path id="path21040" stroke-width=".078479" d="m48 220a0.45 0.45 0 0 1 -0.9 0 0.45 0.45 0 1 1 0.9 0z"/>
   <path id="path21042" stroke-width=".076056" d="m120 250a0.38146 0.522 51 0 1 -0.9 0 0.38146 0.522 51 1 1 0.9 0z"/>
   <g id="g7653" stroke-width=".038994">
    <path id="path21044" d="m97 260a0.22 0.22 0 0 1 -0.44 0 0.22 0.22 0 1 1 0.44 0z"/>
    <path id="path21046" d="m46 250a0.22 0.22 0 0 1 -0.44 0 0.22 0.22 0 1 1 0.44 0z"/>
    <path id="path21048" d="m250 260a0.22 0.22 0 0 1 -0.0009 0.44z"/>
   </g>
   <path id="path21050" stroke-width=".076056" d="m160 240z"/>
   <path id="path21052" stroke-width=".038994" d="m260 300a0.22 0.22 0 0 1 -0.44 0 0.22 0.22 0 1 1 0.44 0z"/>
   <path id="path10465" d="m66 270a0.38146 0.522 51 0 1 -0.9 0 0.38146 0.522 51 1 1 0.9 0z" stroke="#fff" stroke-miterlimit="0" stroke-width=".076056" fill="#fff"/>
   <path id="path21055" stroke-width=".076056" d="m210 270a0.5 0.37 52 1 1 -0.57 0.46z"/>
   <path id="path21057" stroke-width=".038994" d="m160 260a0.22389 0.22389 0 1 1 0.39 0.22z"/>
   <path id="path21059" stroke-width=".078479" d="m170 300a0.443 0.443 0 1 1 0.31 0.83z"/>
   <path id="path21061" stroke-width=".07863" d="m330 180a0.44511 0.44511 0 0 1 0.86 -0.23z"/>
   <path id="path21063" stroke-width=".038994" d="m62 370z"/>
   <path id="path21065" stroke-width=".038994" d="m230 280a0.22 0.22 0 0 1 0.099 -0.42z"/>
   <path id="path21067" stroke-width=".078479" d="m36 250a0.44 0.44 0 1 1 -0.54 0 0.44 0.44 0 0 1 0.54 0z"/>
   <path id="path21069" stroke-width=".038994" d="m310 260z"/>
   <path id="path21071" stroke-width=".038994" d="m160 98z"/>
   <path id="path21073" stroke-width=".07863" d="m150 260a0.44511 0.44511 0 0 1 0.86 -0.23z"/>
   <path id="path21075" stroke-width=".078479" d="m130 56a0.45 0.45 0 1 1 0 -0.9 0.45 0.45 0 0 1 0 0.9z"/>
   <g id="g14496" stroke-width=".038994">
    <path id="path21077" d="m200 190z"/>
    <path id="path21079" d="m170 130z"/>
    <path id="path21081" d="m300 250a0.22 0.22 0 0 1 -0.44 0 0.22 0.22 0 1 1 0.44 0z"/>
    <path id="path10497" d="m190 170a0.22006 0.22006 0 0 1 -0.01 0.44z" stroke="#fff" stroke-miterlimit="0" stroke-width=".038994" fill="#fff"/>
   </g>
   <path id="path21084" stroke-width=".078479" d="m230 170a0.44116 0.44116 0 0 1 -0.51 -0.72 0.44116 0.44116 0 1 1 0.51 0.72z"/>
   <path id="path21086" stroke-width=".07863" d="m180 160a0.44 0.44 0 0 1 0.59 0.65z"/>
  </g>
  <g id="g14504">
   <text id="text21088" style="word-spacing:0px;letter-spacing:0px" xml:space="preserve" font-size="40px" line-height="125%" y="915.52228" x="440.44522" font-family="Sans"><tspan id="tspan21090" y="915.52228" x="440.44522"/></text>
   <text id="text21092" style="word-spacing:0px;letter-spacing:0px" xml:space="preserve" font-size="13px" line-height="125%" y="1218.1722" x="336.94339" font-family="Arial Hebrew"><tspan id="tspan21094" y="1218.1722" x="336.94339"/></text>
   <text id="text21096" style="word-spacing:0px;letter-spacing:0px" xml:space="preserve" font-size="6px" line-height="125%" y="1228.4059" x="335.64749" font-family="Krungthep"><tspan id="tspan21098" y="1228.4059" x="335.64749"/></text>
  </g>
  <g id="g7686" stroke="#fff" stroke-miterlimit="0">
   <g id="g14512" fill="#fff">
    <g id="g7689" stroke-width=".038994">
     <g id="g14514">
      <path id="path21100" d="m100 230a0.22 0.22 0 0 1 -0.44 0 0.22 0.22 0 1 1 0.44 0z"/>
      <path id="path21102" d="m67 230a0.22 0.22 0 0 1 -0.44 0 0.22 0.22 0 1 1 0.44 0z"/>
      <path id="path21104" d="m56 240a0.22 0.22 0 0 1 -0.44 0 0.22 0.22 0 1 1 0.44 0z"/>
     </g>
     <path id="path21106" d="m160 260a0.22389 0.22389 0 1 1 0.39 0.22z"/>
     <g id="g14520">
      <path id="path21108" d="m69 240a0.22 0.22 0 0 1 -0.44 0 0.22 0.22 0 1 1 0.44 0z"/>
      <path id="path21110" d="m51 170z"/>
      <path id="path21112" d="m97 200z"/>
      <path id="path21114" d="m110 190z"/>
      <path id="path21116" d="m95 230z"/>
      <path id="path21118" d="m180 240a0.22 0.22 0 1 1 0.08 -0.43z"/>
     </g>
     <path id="path10535" d="m220 190a0.22 0.22 0 1 1 0.43 0.082z" stroke="#fff" stroke-miterlimit="0" stroke-width=".038994" fill="#fff"/>
     <path id="path21121" d="m160 110a0.22 0.22 0 1 1 0.43 0.082z"/>
     <path id="path10539" d="m210 210a0.22023 0.22023 0 1 1 0.28 -0.34z" stroke="#fff" stroke-miterlimit="0" stroke-width=".038994" fill="#fff"/>
     <g id="g14531">
      <path id="path21124" d="m220 180a0.22 0.22 0 1 1 0.083 -0.43z"/>
      <path id="path10543" d="m170 190a0.22 0.22 0 1 1 0.083 -0.43z" stroke="#fff" stroke-miterlimit="0" stroke-width=".038994" fill="#fff"/>
      <path id="path10545" d="m190 130a0.22 0.22 0 1 1 0.083 -0.43z" stroke="#fff" stroke-miterlimit="0" stroke-width=".038994" fill="#fff"/>
      <path id="path21128" d="m150 47z"/>
      <path id="path21130" d="m120 330z"/>
      <path id="path21132" d="m91 280z"/>
     </g>
    </g>
    <path id="path21134" stroke-width=".076056" d="m90 310z"/>
    <path id="path21136" stroke-width=".078479" d="m83 270z"/>
    <g id="g7715" stroke-width=".038994">
     <path id="path21138" d="m120 280z"/>
     <path id="path21140" d="m430 270z"/>
     <g id="g14543">
      <path id="path21142" d="m120 310z"/>
      <path id="path21144" d="m170 280a0.22 0.22 0 0 1 0.36 -0.24 0.22 0.22 0 0 1 -0.36 0.24z"/>
      <path id="path21146" d="m170 300a0.22 0.22 0 0 1 0.36 -0.24 0.22 0.22 0 1 1 -0.36 0.24z"/>
     </g>
    </g>
    <path id="path21148" stroke-width=".11795" d="m110 240a0.7 0.7 0 0 1 -1.4 0 0.7 0.7 0 1 1 1.4 0z"/>
    <path id="path21150" stroke-width=".15726" d="m180 180a0.89022 0.89022 0 1 1 -1.1 1.4 0.89022 0.89022 0 0 1 1.1 -1.4z"/>
    <path id="path21152" stroke-width=".19658" d="m150 200a1.1376 1.1376 0 1 1 0.58 -2.2 1.1376 1.1376 0 0 1 -0.58 2.2z"/>
    <path id="path10573" d="m81 220a0.38146 0.522 51 0 1 -0.9 0 0.38146 0.522 51 1 1 0.9 0z" stroke="#fff" stroke-miterlimit="0" stroke-width=".076056" fill="#fff"/>
    <path id="path21155" stroke-width=".078479" d="m31 210a0.44 0.44 0 1 1 -0.51 0 0.44 0.44 0 0 1 0.51 0z"/>
    <path id="path21157" stroke-width=".11795" d="m86 240a0.7 0.7 0 0 1 -1.4 0 0.7 0.7 0 1 1 1.4 0z"/>
    <path id="path21159" stroke-width=".11795" d="m70 200a0.7 0.7 0 0 1 -1.4 0 0.7 0.7 0 1 1 1.4 0z"/>
   </g>
   <path id="path21161" d="m110 72a1.1 1.1 0 0 1 -2.2 0 1.1 1.1 0 1 1 2.2 0z" stroke-width=".19824" fill="#d45500"/>
   <g id="g14556" fill="#fff">
    <path id="path21163" stroke-width=".07863" d="m65 150z"/>
    <path id="path21165" stroke-width=".047178" d="m41 38a0.45 0.46 0 0 1 -0.9 0 0.45 0.46 0 1 1 0.9 0z"/>
    <path id="path10587" d="m69 120a0.49 0.49 0 1 1 0 -0.9 0.49 0.49 0 0 1 0 0.9z" stroke="#fff" stroke-miterlimit="0" stroke-width=".086493" fill="#fff"/>
    <path id="path21168" stroke-width=".086493" d="m60 100a0.49 0.49 0 1 1 0 -0.9 0.49 0.49 0 0 1 0 0.9z"/>
   </g>
   <path id="path21170" d="m49 60a0.66 0.66 0 0 1 0 -0.9 0.66 0.66 0 1 1 0 0.9z" stroke-width=".11512" fill="#00f"/>
   <g id="g14563" fill="#fff">
    <path id="path21172" stroke-width=".047178" d="m73 48a0.45 0.46 0 0 1 -0.9 0 0.45 0.46 0 1 1 0.9 0z"/>
    <path id="path21174" stroke-width=".095142" d="m90 61a0.54 0.53 45 0 1 0 -0.9 0.54 0.53 45 1 1 0 0.9z"/>
    <path id="path21176" stroke-width=".07863" d="m75 130z"/>
    <path id="path21178" stroke-width=".047178" d="m74 49a0.45 0.46 0 0 1 -0.9 0 0.45 0.46 0 1 1 0.9 0z"/>
    <path id="path10601" d="m73 50a0.45 0.46 0 0 1 -0.9 0 0.45 0.46 0 1 1 0.9 0z" stroke="#fff" stroke-miterlimit="0" stroke-width=".047178" fill="#fff"/>
   </g>
   <g id="g14570">
    <path id="path21181" stroke-width=".19566" fill="#e3dbdb" d="m500 250a1.1402 1.1402 0 1 1 1.4 -1.8 1.1402 1.1402 0 0 1 -1.4 1.8z"/>
    <path id="path21183" stroke-width=".14087" fill="#fff" d="m540 150a0.79 0.79 0 0 1 -1.4 -0.58 0.79 0.79 0 1 1 1.4 0.58z"/>
    <path id="path21185" stroke-width=".23674" fill="#fff" d="m560 170a1.4 1.4 0 1 1 1.6 -2.2 1.4 1.4 0 0 1 -1.6 2.2z"/>
    <path id="path10619" d="m520 240a1.1402 1.1402 0 1 1 1.4 -1.8 1.1402 1.1402 0 0 1 -1.4 1.8z" stroke="#fff" stroke-miterlimit="0" stroke-width=".19566" fill="#f60"/>
    <path id="path21188" stroke-width=".14087" fill="#fff" d="m550 150a0.79 0.79 0 0 1 -1.4 -0.58 0.79 0.79 0 1 1 1.4 0.58z"/>
    <path id="path21190" stroke-width=".14087" fill="#ff0" d="m540 150a0.79 0.79 0 0 1 -1.4 -0.58 0.79 0.79 0 1 1 1.4 0.58z"/>
   </g>
   <g id="g14578" fill="#fff">
    <g id="g14580" stroke-width=".038994">
     <path id="path21192" d="m440 95a0.22 0.22 0 0 1 -0.44 0 0.22 0.22 0 1 1 0.44 0z"/>
     <path id="path21194" d="m460 70a0.22 0.22 0 0 1 -0.44 0 0.22 0.22 0 1 1 0.44 0z"/>
     <path id="path21196" d="m100 100z"/>
     <path id="path21198" d="m110 110z"/>
     <path id="path21200" d="m130 110z"/>
     <path id="path21202" d="m35 97a0.225 0.225 0 0 1 -0.45 0 0.225 0.225 0 1 1 0.45 0z"/>
     <path id="path21204" d="m400 52a0.22 0.22 0 0 1 -0.44 0 0.22 0.22 0 1 1 0.44 0z"/>
     <path id="path21206" d="m390 62a0.22 0.22 0 0 1 -0.44 0 0.22 0.22 0 1 1 0.44 0z"/>
     <path id="path21208" d="m190 91a0.22 0.22 0 0 1 -0.44 0 0.22 0.22 0 1 1 0.44 0z"/>
     <path id="path21210" d="m420 71z"/>
    </g>
    <path id="path21212" stroke-width=".11795" d="m120 280a0.7 0.7 0 0 1 -1.4 0 0.7 0.7 0 1 1 1.4 0z"/>
    <path id="path21214" stroke-width=".11795" d="m130 300a0.7 0.7 0 0 1 -1.4 0 0.7 0.7 0 1 1 1.4 0z"/>
    <path id="path21216" stroke-width=".038994" d="m440 79z"/>
    <path id="path21218" stroke-width=".11795" d="m140 220a0.67082 0.68098 63 0 1 -0.6 -1.2 0.67082 0.68098 63 0 1 0.6 1.2z"/>
    <path id="path10653" d="m150 170a0.5 0.37 24 0 1 0.3 -0.67z" stroke="#fff" stroke-miterlimit="0" stroke-width=".076056" fill="#fff"/>
    <path id="path21221" stroke-width=".11795" d="m120 210a0.66 0.67 63 0 1 -0.9 0 0.66 0.67 63 1 1 0.9 0z"/>
    <path id="path21223" stroke-width=".11795" d="m160 150a0.67082 0.68098 63 0 1 -0.6 -1.2 0.67082 0.68098 63 1 1 0.6 1.2z"/>
    <path id="path21225" stroke-width=".076056" d="m260 180z"/>
    <path id="path21227" stroke-width=".23589" d="m170 76a1.4 1.4 0 1 1 0 -1.8 1.4 1.4 0 0 1 0 1.8z"/>
    <path id="path21229" stroke-width=".11795" d="m250 220a0.70095 0.70095 3.2 0 1 0.073 -1.4z"/>
    <path id="path21231" stroke-width=".076056" d="m210 140a0.5 0.37 44 0 1 0.51 -0.52z"/>
    <path id="path21233" stroke-width=".038994" d="m260 150z"/>
    <path id="path21235" stroke-width=".038994" d="m210 47z"/>
    <path id="path21237" stroke-width=".11795" d="m270 180a0.68007 0.68007 37 0 1 -1.1 -0.8 0.68007 0.68007 37 0 1 1.1 0.8z"/>
    <path id="path21239" stroke-width=".064" d="m160 140z"/>
    <path id="path10677" d="m210 180a0.22 0.22 0 1 1 0.4 -0.17z" stroke="#fff" stroke-miterlimit="0" stroke-width=".038994" fill="#fff"/>
   </g>
   <path id="path21242" d="m230 110z" stroke-width=".038994" fill="url(#linearGradient9453-7)"/>
   <g id="g14609" fill="#fff">
    <g id="g14611" stroke-width=".038994">
     <path id="path21244" d="m260 53z"/>
     <path id="path21246" d="m240 56z"/>
     <path id="path21248" d="m250 79z"/>
    </g>
    <g id="g14616" stroke-width=".038994">
     <path id="path21250" d="m250 140z"/>
     <path id="path21252" d="m240 130z"/>
     <path id="path21254" d="m240 150a0.22 0.22 0 1 1 0.43 -0.086z"/>
     <path id="path21256" d="m300 67a0.22 0.22 0 1 1 0.43 0.047z"/>
    </g>
    <path id="path21258" stroke-width=".064" d="m230 99a0.43086 0.49098 53 1 1 0 -0.9 0.43086 0.49098 53 0 1 0 0.9z"/>
    <path id="path21260" stroke-width=".11795" d="m260 53a0.67 0.68 53 1 1 0 -0.9 0.67 0.68 53 0 1 0 0.9z"/>
    <path id="path21262" stroke-width=".23589" d="m210 54a1.4 1.4 0 0 1 0 -1.8 1.4 1.4 0 0 1 0 1.8z"/>
    <path id="path21264" stroke-width=".11795" d="m73 94a0.68 0.67 19 0 1 0 -0.9 0.68 0.67 19 0 1 0 0.9z"/>
    <path id="path21266" stroke-width=".076056" d="m270 120a0.37 0.5 59 1 1 0.38 0.63z"/>
    <path id="path21268" stroke-width=".19658" d="m380 31a1.1236 1.1236 0 1 1 2.1 -0.8 1.1236 1.1236 0 0 1 -2.1 0.8z"/>
    <path id="path21270" stroke-width=".038994" d="m240 83z"/>
    <path id="path21272" stroke-width=".078479" d="m320 49a0.45 0.45 0 1 1 0 -0.9 0.45 0.45 0 0 1 0 0.9z"/>
    <path id="path21274" stroke-width=".076056" d="m330 130a0.5 0.37 14 0 1 0.18 -0.71 0.5 0.37 14 1 1 -0.18 0.71z"/>
    <path id="path21276" stroke-width=".038994" d="m310 110z"/>
    <path id="path21278" stroke-width=".038994" d="m280 68z"/>
    <path id="path21280" stroke-width=".076056" d="m360 140a0.5 0.37 14 0 1 0.18 -0.71 0.5 0.37 14 1 1 -0.18 0.71z"/>
    <path id="path21282" stroke-width=".076056" d="m280 97a0.61504 0.44364 14 1 1 0 -0.9 0.61504 0.44364 14 0 1 0 0.9z"/>
    <path id="path21284" stroke-width=".038994" d="m350 150a0.22 0.22 0 0 1 0.06 0.43z"/>
    <path id="path21286" stroke-width=".078479" d="m570 230a0.44522 0.44522 0 1 1 -0.48 0.75z"/>
    <path id="path21288" stroke-width=".078479" d="m280 61a0.45 0.45 0 1 1 0 -0.9 0.45 0.45 0 0 1 0 0.9z"/>
    <path id="path21290" stroke-width=".07863" d="m340 150a0.44119 0.44119 0 1 1 0.69 0.55z"/>
    <g id="g7806" stroke-width=".038994">
     <g id="g14639">
      <path id="path21292" d="m350 99z"/>
      <path id="path21294" d="m320 70z"/>
      <path id="path21296" d="m300 68z"/>
     </g>
     <path id="path21298" d="m590 190a0.22 0.22 0 1 1 0.06 0.43z"/>
     <g id="g14645">
      <path id="path21300" d="m310 82z"/>
      <path id="path21302" d="m360 77z"/>
      <path id="path21304" d="m330 170a0.22142 0.22142 0 1 1 0.4 -0.19z"/>
      <path id="path21306" d="m340 92z"/>
     </g>
     <path id="path21308" d="m230 74z"/>
     <path id="path21310" d="m290 120z"/>
    </g>
    <path id="path21312" stroke-width=".076056" d="m260 140a0.5 0.37 60 0 1 0.63 -0.36 0.5 0.37 60 1 1 -0.63 0.36z"/>
    <path id="path21314" stroke-width=".078479" d="m290 110z"/>
    <g id="g7822" stroke-width=".038994">
     <path id="path21316" d="m310 150a0.22 0.22 0 0 1 0.068 -0.43z"/>
     <path id="path21318" d="m300 140a0.22 0.22 0 0 1 0.068 -0.43z"/>
     <g id="g14657">
      <path id="path21320" d="m290 150a0.22 0.22 0 1 1 0.41 0.14z"/>
      <path id="path21322" d="m580 210a0.22 0.22 0 0 1 0.41 0.14z"/>
      <path id="path21324" d="m380 260a0.22 0.22 0 1 1 0.41 0.14z"/>
     </g>
    </g>
    <path id="path21326" stroke-width=".11795" d="m330 120a0.67 0.68 53 1 1 0 -0.9 0.67 0.68 53 0 1 0 0.9z"/>
    <path id="path21328" stroke-width=".19658" d="m380 110a1.1 1.1 0 0 1 0 -0.9 1.1 1.1 0 1 1 0 0.9z"/>
    <path id="path21330" stroke-width=".076056" d="m340 72a0.61504 0.44364 14 1 1 0 -0.9 0.61504 0.44364 14 0 1 0 0.9z"/>
    <path id="path21332" stroke-width=".078479" d="m310 29a0.44 0.44 0 0 1 0 -0.85 0.44 0.44 0 1 1 0 0.85z"/>
    <g id="g14666" stroke-width=".11795">
     <path id="path21334" d="m320 91a0.67 0.68 53 1 1 0 -0.9 0.67 0.68 53 0 1 0 0.9z"/>
     <path id="path21336" d="m350 56a0.67 0.68 53 1 1 0 -0.9 0.67 0.68 53 0 1 0 0.9z"/>
     <path id="path21338" d="m300 150a0.67714 0.68725 53 0 1 -0.79 -1.1 0.67714 0.68725 53 0 1 0.79 1.1z"/>
     <path id="path21340" d="m370 120a0.67 0.66 26 1 1 0 -0.9 0.67 0.66 26 0 1 0 0.9z"/>
    </g>
    <path id="path21342" stroke-width=".07863" d="m490 62a0.45 0.45 0 0 1 0 0.9 0.45 0.45 0 1 1 0 -0.9z"/>
    <path id="path21344" stroke-width=".15726" d="m470 72z"/>
    <path id="path21346" stroke-width=".19658" d="m440 41z"/>
    <path id="path21348" stroke-width=".11795" d="m490 36a0.68 0.68 38 1 1 0 -1.1 0.68 0.68 38 0 1 0 1.1z"/>
    <path id="path21350" stroke-width=".11795" d="m510 86a0.68 0.68 68 0 1 0 -0.9 0.68 0.68 68 1 1 0 0.9z"/>
    <path id="path21352" stroke-width=".076056" d="m530 71a0.37 0.5 18 0 1 0.69 0.23z"/>
    <path id="path21354" stroke-width=".11795" d="m520 140a0.67498 0.66491 12 1 1 0.28 -1.3 0.67498 0.66491 12 0 1 -0.28 1.3z"/>
    <path id="path21356" stroke-width=".064" d="m570 77a0.5 0.44 28 1 1 0 -0.9 0.5 0.44 28 0 1 0 0.9z"/>
    <path id="path21358" stroke-width=".078479" d="m140 390a0.44119 0.44119 0 0 1 0.69 -0.55z"/>
    <g id="g14681" stroke-width=".076056">
     <path id="path21360" d="m120 500a0.5 0.37 51 1 1 0.58 -0.45 0.5 0.37 51 0 1 -0.58 0.45z"/>
     <path id="path21362" d="m81 410a0.56 0.41 51 1 1 0.9 0 0.56 0.41 51 0 1 -0.9 0z"/>
     <path id="path21364" d="m85 550a0.38 0.52 52 0 1 -0.9 0 0.38 0.52 52 1 1 0.9 0z"/>
    </g>
    <path id="path21366" stroke-width=".078479" d="m58 510a0.45 0.45 0 0 1 -0.9 0 0.45 0.45 0 1 1 0.9 0z"/>
    <path id="path21368" stroke-width=".038994" d="m130 430a0.22 0.22 0 0 1 0.43 0.082z"/>
    <path id="path21370" stroke-width=".038994" d="m150 550a0.22023 0.22023 0 0 1 0.34 0.28z"/>
    <path id="path21372" stroke-width=".076056" d="m45 430a0.37 0.5 6.6 1 1 0.73 0.09 0.45 0.61 6.6 0 1 -0.9 0z"/>
    <path id="path21374" stroke-width=".11795" d="m110 450z"/>
    <path id="path21376" stroke-width=".15726" d="m170 530a0.89022 0.89022 0 0 1 -1.4 -1.1 0.89022 0.89022 0 1 1 1.4 1.1z"/>
    <path id="path21378" stroke-width=".076056" d="m140 420a0.5 0.37 51 1 1 0.58 -0.45 0.5 0.37 51 0 1 -0.58 0.45z"/>
    <path id="path21380" stroke-width=".076056" d="m180 500a0.37 0.5 24 1 1 0.67 0.31z"/>
    <path id="path21382" stroke-width=".064" d="m220 500a0.39 0.34 23 0 1 0.26 -0.62z"/>
    <path id="path21384" stroke-width=".038994" d="m170 550a0.22 0.22 0 1 1 0.17 0.4z"/>
    <path id="path21386" stroke-width=".076056" d="m430 69a0.37 0.5 5.3 1 1 0.73 0.075z"/>
    <path id="path21388" stroke-width=".076056" d="m450 110a0.41 0.56 51 1 1 0 -0.9 0.41 0.56 51 0 1 0 0.9z"/>
    <path id="path21390" stroke-width=".038994" d="m440 38a0.22 0.22 0 0 1 -0.44 0 0.22 0.22 0 1 1 0.44 0z"/>
    <path id="path21392" stroke-width=".076056" d="m400 140z"/>
    <g id="g14700" stroke-width=".038994">
     <path id="path21394" d="m480 110a0.22 0.22 0 0 1 -0.44 0 0.22 0.22 0 1 1 0.44 0z"/>
     <path id="path21396" d="m400 150a0.22 0.22 0 0 1 -0.44 0 0.22 0.22 0 1 1 0.44 0z"/>
     <path id="path21398" d="m390 160a0.22 0.22 0 0 1 -0.44 0 0.22 0.22 0 1 1 0.44 0z"/>
     <path id="path21400" d="m350 310a0.22 0.22 0 0 1 -0.44 0 0.22 0.22 0 1 1 0.44 0z"/>
     <path id="path21402" d="m430 150a0.22 0.22 0 1 1 0.08 -0.43z"/>
    </g>
    <path id="path21404" stroke-width=".038994" d="m420 200z"/>
    <path id="path21406" stroke-width=".076056" d="m440 88a0.61 0.45 6.3 1 1 0 -0.9 0.61 0.45 6.3 0 1 0 0.9z"/>
    <path id="path21408" stroke-width=".078479" d="m420 140a0.44142 0.44142 0 0 1 0.15 -0.87z"/>
    <path id="path21410" stroke-width=".038994" d="m450 200z"/>
    <path id="path21412" stroke-width=".038994" d="m460 57z"/>
    <path id="path21414" stroke-width=".11795" d="m440 130a0.7 0.7 0 0 1 -1.4 0 0.7 0.7 0 1 1 1.4 0z"/>
    <path id="path21416" stroke-width=".076056" d="m200 420z"/>
    <path id="path21418" stroke-width=".038994" d="m220 440a0.22 0.22 0 0 1 -0.36 0.25 0.22 0.22 0 1 1 0.36 -0.25z"/>
    <path id="path21420" stroke-width=".076056" d="m250 460z"/>
    <g id="g7881" stroke-width=".038994">
     <g id="g14716">
      <path id="path21422" d="m190 460a0.22 0.22 0 0 1 -0.36 0.25 0.22 0.22 0 1 1 0.36 -0.25z"/>
      <path id="path21424" d="m210 490a0.22 0.22 0 0 1 -0.36 0.25 0.22 0.22 0 1 1 0.36 -0.25z"/>
      <path id="path21426" d="m230 490a0.22 0.22 0 0 1 -0.36 0.25 0.22 0.22 0 1 1 0.36 -0.25z"/>
      <path id="path21428" d="m230 470a0.22 0.22 0 0 1 -0.36 0.25 0.22 0.22 0 1 1 0.36 -0.25z"/>
     </g>
     <path id="path21430" d="m190 460a0.22 0.22 0 1 1 -0.18 -0.4 0.22 0.22 0 0 1 0.18 0.4z"/>
     <path id="path21432" d="m250 430z"/>
    </g>
    <path id="path21434" stroke-width=".076056" d="m260 420z"/>
    <path id="path21436" stroke-width=".078479" d="m240 440z"/>
    <path id="path21438" stroke-width=".038994" d="m220 410z"/>
    <path id="path21440" stroke-width=".038994" d="m230 420z"/>
    <path id="path21442" stroke-width=".11795" d="m210 460a0.68 0.67 55 0 1 -1.1 0.76 0.68 0.67 55 1 1 1.1 -0.76z"/>
   </g>
  </g>
  <g id="g14729">
   <rect id="rect21444" stroke-linejoin="round" transform="matrix(.73599 0 0 .78186 104.88 275.68)" clip-path="url(#clipPath7467-12)" ry="13" height="26" width="45" stroke="#000" y="1200" x="430" stroke-width=".5"/>
   <path id="path21446" d="m260 110a1.1 1.1 0 0 1 -2.2 0 1.1 1.1 0 1 1 2.2 0z" stroke="#fff" stroke-miterlimit="0" stroke-width=".19824" fill="#d45500"/>
   <path id="path21448" d="m250 61a0.66 0.66 0 0 1 0 -0.9 0.66 0.66 0 1 1 0 0.9z" stroke="#fff" stroke-miterlimit="0" stroke-width=".11512" fill="#00f"/>
  </g>
  <g id="g14734" stroke="#fff" stroke-miterlimit="0" fill="#fff">
   <path id="path21450" stroke-width=".038994" d="m55 100z"/>
   <path id="path21452" stroke-width=".038994" d="m64 130z"/>
   <path id="path21454" stroke-width=".064" d="m53 150z"/>
   <path id="path21456" stroke-width=".076056" d="m67 130z"/>
   <path id="path21458" stroke-width=".038994" d="m57 130z"/>
   <path id="path21460" stroke-width=".038994" d="m52 120z"/>
  </g>
  <g id="g14742" fill="#f60">
   <use id="use10909" xlink:href="#path10619" transform="translate(6.9121 -18.11)" height="580" width="600" y="0" x="0" fill="#ff6600"/>
   <use id="use21463" xlink:href="#use10909" transform="translate(-6.2209 1.2442)" height="580" width="600" y="0" x="0"/>
   <use id="use21465" xlink:href="#path10619" transform="matrix(.66085 0 0 .71737 186.66 46.24)" height="580" width="600" y="0" x="0"/>
  </g>
  <path id="path21467" d="m520 160a1.6101 1.6101 0 1 1 1.9 -2.6 1.6101 1.6101 0 0 1 -1.9 2.6z" stroke="#fff" stroke-miterlimit="0" stroke-width=".28132" fill="#fff"/>
  <path id="path21469" d="m540 260a1.93 1.93 0 1 1 2.3 -3.1 1.93 1.93 0 0 1 -2.3 3.1z" stroke="#fff" stroke-miterlimit="0" stroke-width=".33809" fill="#e3dbdb"/>
  <use id="use11441" xlink:href="#path10387" transform="translate(46.726 -188.56)" height="580" width="600" y="0" x="0"/>
  <use id="use21472" xlink:href="#path10423" transform="translate(46.726 -188.56)" height="580" width="600" y="0" x="0"/>
  <use id="use11449" xlink:href="#path10465" transform="translate(46.726 -188.56)" height="580" width="600" y="0" x="0"/>
  <use id="use11451" xlink:href="#path10573" transform="translate(46.726 -188.56)" height="580" width="600" y="0" x="0"/>
  <use id="use21476" xlink:href="#path10587" transform="translate(88.147 -15.022)" height="580" width="600" y="0" x="0"/>
  <use id="use21478" xlink:href="#path10601" transform="translate(88.147 -15.022)" height="580" width="600" y="0" x="0"/>
  <use id="use21480" xlink:href="#use11441" transform="translate(88.147 -15.022)" height="580" width="600" y="0" x="0"/>
  <path id="path21482" d="m180 14a0.45 0.45 0 0 1 -0.9 0 0.45 0.45 0 1 1 0.9 0z" stroke="#fff" stroke-miterlimit="0" stroke-width=".078479" fill="#fff"/>
  <path id="path21484" d="m260 50a0.38146 0.522 51 0 1 -0.9 0 0.38146 0.522 51 1 1 0.9 0z" stroke="#fff" stroke-miterlimit="0" stroke-width=".076056" fill="#fff"/>
  <use id="use21486" xlink:href="#use11449" transform="translate(88.147 -15.022)" height="580" width="600" y="0" x="0"/>
  <use id="use21488" xlink:href="#use11451" transform="translate(88.147 -15.022)" height="580" width="600" y="0" x="0"/>
  <use id="use21490" xlink:href="#path10497" transform="translate(-128.29 -71.056)" height="580" width="600" y="0" x="0"/>
  <use id="use21492" xlink:href="#path10535" transform="translate(-128.29 -71.056)" height="580" width="600" y="0" x="0"/>
  <use id="use21494" xlink:href="#path10539" transform="translate(-128.29 -71.056)" height="580" width="600" y="0" x="0"/>
  <use id="use21496" xlink:href="#path10543" transform="translate(-128.29 -71.056)" height="580" width="600" y="0" x="0"/>
  <use id="use21498" xlink:href="#path10545" transform="translate(-128.29 -71.056)" height="580" width="600" y="0" x="0"/>
  <use id="use21500" xlink:href="#path10653" transform="translate(-128.29 -71.056)" height="580" width="600" y="0" x="0"/>
  <use id="use21502" xlink:href="#path10677" transform="translate(-128.29 -71.056)" height="580" width="600" y="0" x="0"/>
  <g id="g14767" stroke="#fff" stroke-miterlimit="0" fill="#fff">
   <path id="path21504" stroke-width=".038994" d="m130 92a0.22 0.22 0 0 1 0.43 0.059z"/>
   <path id="path21506" stroke-width=".038994" d="m39 170a0.22006 0.22006 0 0 1 -0.0099 0.44z"/>
   <path id="path21508" stroke-width=".07863" d="m30 160a0.44 0.44 0 0 1 0.59 0.65z"/>
   <path id="path21510" stroke-width=".038994" d="m57 210a0.22023 0.22023 0 1 1 0.28 -0.34z"/>
   <path id="path21512" stroke-width=".038994" d="m66 180a0.22 0.22 0 1 1 0.083 -0.43z"/>
   <path id="path21514" stroke-width=".076056" d="m57 140a0.5 0.37 44 0 1 0.51 -0.52z"/>
   <g id="g7937" stroke-width=".038994">
    <path id="path21516" d="m57 180a0.22 0.22 0 0 1 0.4 -0.17z"/>
    <path id="path21518" d="m84 150a0.22 0.22 0 1 1 0.43 -0.086z"/>
    <path id="path21520" d="m340 35a0.22006 0.22006 0 0 1 -0.01 0.44z"/>
   </g>
   <path id="path21522" stroke-width=".07863" d="m330 26a0.44 0.44 0 0 1 0.59 0.65z"/>
   <g id="g7943" stroke-width=".038994">
    <path id="path21524" d="m350 71a0.22023 0.22023 0 1 1 0.28 -0.34z"/>
    <path id="path21526" d="m360 44a0.22 0.22 0 1 1 0.083 -0.43z"/>
    <path id="path21528" d="m350 44a0.22 0.22 0 0 1 0.4 -0.17z"/>
    <path id="path21530" d="m380 17a0.22 0.22 0 1 1 0.43 -0.086z"/>
    <path id="path21532" d="m530 29a0.225 0.225 0 0 1 -0.45 0 0.225 0.225 0 1 1 0.45 0z"/>
   </g>
   <path id="path21534" stroke-width=".11795" d="m570 26a0.68 0.67 19 0 1 0 -0.9 0.68 0.67 19 0 1 0 0.9z"/>
  </g>
  <use id="use21536" xlink:href="#path10535" transform="translate(363.3 -138.52)" height="580" width="600" y="0" x="0"/>
  <use id="use21538" xlink:href="#path10539" transform="translate(363.3 -138.52)" height="580" width="600" y="0" x="0"/>
  <use id="use21540" xlink:href="#path10543" transform="translate(363.3 -138.52)" height="580" width="600" y="0" x="0"/>
  <use id="use21542" xlink:href="#path10653" transform="translate(363.3 -138.52)" height="580" width="600" y="0" x="0"/>
  <use id="use21544" xlink:href="#path10677" transform="translate(363.3 -138.52)" height="580" width="600" y="0" x="0"/>
  <g id="g14790" stroke="#fff" stroke-miterlimit="0" fill="#fff">
   <path id="path21546" stroke-width=".038994" d="m530 110a0.22006 0.22006 0 0 1 -0.01 0.44z"/>
   <path id="path21548" stroke-width=".07863" d="m520 96a0.44 0.44 0 0 1 0.59 0.65z"/>
   <g id="g7959" stroke-width=".038994">
    <path id="path21550" d="m560 110a0.22 0.22 0 0 1 0.083 -0.43z"/>
    <path id="path21552" d="m550 110a0.22 0.22 0 1 1 0.4 -0.17z"/>
    <g id="g14796">
     <path id="path21554" d="m580 87a0.22 0.22 0 1 1 0.43 -0.086z"/>
     <path id="path21556" d="m460 160a0.22 0.22 0 0 1 -0.44 0 0.22 0.22 0 1 1 0.44 0z"/>
     <path id="path21558" d="m440 130a0.22 0.22 0 0 1 -0.44 0 0.22 0.22 0 1 1 0.44 0z"/>
    </g>
   </g>
  </g>
  <use id="use21560" xlink:href="#path10535" transform="translate(363.3 -48.518)" height="580" width="600" y="0" x="0"/>
  <use id="use21562" xlink:href="#path10539" transform="translate(363.3 -48.518)" height="580" width="600" y="0" x="0"/>
  <use id="use21564" xlink:href="#path10543" transform="translate(363.3 -48.518)" height="580" width="600" y="0" x="0"/>
  <use id="use21566" xlink:href="#path10653" transform="translate(363.3 -48.518)" height="580" width="600" y="0" x="0"/>
  <g id="g14805" stroke="#fff" stroke-miterlimit="0" fill="#fff">
   <path id="path21568" stroke-width=".038994" d="m530 200a0.22006 0.22006 0 0 1 -0.01 0.44z"/>
   <path id="path21570" stroke-width=".078479" d="m200 240a0.44522 0.44522 0 1 1 -0.48 0.75z"/>
   <path id="path21572" stroke-width=".038994" d="m220 190a0.22 0.22 0 1 1 0.06 0.43z"/>
   <path id="path21574" stroke-width=".038994" d="m200 210a0.22142 0.22142 0 0 1 0.4 -0.19z"/>
  </g>
 </g>
</svg>
