<svg xmlns:rdf="http://www.w3.org/1999/02/22-rdf-syntax-ns#" xmlns="http://www.w3.org/2000/svg" height="37.292" width="53.026" version="1.1" xmlns:cc="http://creativecommons.org/ns#" xmlns:dc="http://purl.org/dc/elements/1.1/" viewBox="0 0 53.026358 37.291455">
<g transform="matrix(-.0818 .025783 .025783 .0818 43.248 -8.3127)">
<g fill="#ff7f00">
<path d="m427.69 392.19s-52.278 26.32-132.45 52.395c-48.43 15.78-134.44-10.83-179.22-21.91-44.841-11.12-122.33-34.12-100.83-54.22 21.502-20.08 83.324-62.92 83.324-62.92s-58.862 90.824 329.18 86.654z" stroke="#fff" stroke-width="23.319"/>
<path d="m69.862 326.14c0 38.306 122.65 69.371 273.96 69.371 151.3 0 273.92-31.06 273.92-69.371-31.556-21.372-26.989-39.366-26.989-39.366h-495.19c0.01691 0 4.398 17.993-25.713 39.366z" stroke="#fff" stroke-width="23.319"/>
<path d="m560.63 149.65c-6.12-13.06-29.86-58.163-78.1-89.914-87.46-57.63-195.91-46.636-259.68-12.043-43.09 23.424-72.77 53.607-96.29 97.927-5.7402 10.825-16.441 33.923-23.774 66.968-6.3463 28.661-6.9574 46.735-7.9789 76.752 0.05064 25.081 50.993 47.703 138.77 58.719 122.84 15.372 271.31 2.0192 331.57-29.819 17.242-9.1055 25.382-18.795 25.348-28.232-1.2714-38.784-2.806-82.721-29.861-140.36z"/>
<path d="m560.63 149.65c-6.12-13.06-29.86-58.163-78.1-89.914-87.46-57.63-195.91-46.636-259.68-12.043-43.09 23.424-72.77 53.607-96.29 97.927-5.7402 10.825-16.441 33.923-23.774 66.968-6.3463 28.661-6.9574 46.735-7.9789 76.752 0.05064 25.081 50.993 47.703 138.77 58.719 122.84 15.372 271.31 2.0192 331.57-29.819 17.242-9.1055 25.382-18.795 25.348-28.232-1.2714-38.784-2.806-82.721-29.861-140.36z" stroke="#fff" stroke-width="23.319"/>
</g>
<path d="m429.75 391.04s-52.293 26.275-132.45 52.392c-48.41 15.75-134.41-10.83-179.19-21.95-44.848-11.08-122.34-34.08-100.84-54.21 21.5-20.082 83.29-62.898 83.29-62.898s-58.835 90.828 329.19 86.671z" stroke="#000" stroke-width="5.1591"/>
<path d="m71.927 324.99c0 38.309 122.61 69.347 273.94 69.347 151.29 0 273.95-31.03 273.95-69.347-31.574-21.372-26.977-39.364-26.977-39.364h-495.22c0.01858 0 4.3913 17.993-25.696 39.364z" stroke="#000" stroke-width="5.1591" fill="#f93"/>
<path fill="#ff7f00" d="m562.71 148.48c-6.12-13.05-29.87-58.133-78.1-89.914-87.45-57.629-195.9-46.623-259.67-12.034-43.12 23.425-72.79 53.608-96.29 97.888-5.7503 10.825-16.476 33.923-23.774 66.985-6.3277 28.642-6.9473 46.731-7.9839 76.711 0.03548 25.083 51.018 47.743 138.81 58.721 122.84 15.411 271.29 2.0176 331.53-29.82 17.242-9.1056 25.399-18.76 25.361-28.232-1.3168-38.722-2.8566-82.666-29.879-140.3z"/>
<path d="m562.71 148.48c-6.12-13.05-29.87-58.133-78.1-89.914-87.45-57.629-195.9-46.623-259.67-12.034-43.12 23.425-72.79 53.608-96.29 97.888-5.7503 10.825-16.476 33.923-23.774 66.985-6.3277 28.642-6.9473 46.731-7.9839 76.711 0.03548 25.083 51.018 47.743 138.81 58.721 122.84 15.411 271.29 2.0176 331.53-29.82 17.242-9.1056 25.399-18.76 25.361-28.232-1.3168-38.722-2.8566-82.666-29.879-140.3z" stroke="#000" stroke-width="5.1535" fill="#ff7f00"/>
<path d="m562.71 148.48c-6.12-13.05-29.87-58.133-78.1-89.914-87.45-57.629-195.9-46.623-259.67-12.034-43.12 23.425-72.79 53.608-96.29 97.888-5.7503 10.825-16.476 33.923-23.774 66.985-6.3277 28.642-6.9473 46.731-7.9839 76.711 0.03548 25.083 51.018 47.743 138.81 58.721 122.84 15.411 271.29 2.0176 331.53-29.82 17.242-9.1056 25.399-18.76 25.361-28.232-1.3168-38.722-2.8566-82.666-29.879-140.3z"/>
<path fill="#ff7f00" d="m473.19 49.924c-183.98-109.62-370.69 115.52-364.85 260.08l-17.114 6.4521c0.01-157.58 182.75-389.85 381.96-266.53"/>
<polygon points="108.35 310 81.896 340.12 91.236 316.45" fill="#ff7f00"/>
<path stroke-linejoin="round" d="m162.79 339.02v0c-0.01-142.63 91.08-364.85 256.03-314.4-176.89-55.933-327.55 148.7-327.55 291.8l-9.3396 23.668 71.551 22.549 9.3058-23.622v0z" stroke="#000" stroke-linecap="round" stroke-width="5.1591" fill="#f93"/>
<path fill="#ff7f00" d="m162.78 339.02-9.3295 23.669 41.952-27.476c-5.87-144.6 93.81-394.9 277.8-285.32-199.22-123.29-310.42 131.52-310.42 289.13z"/>
<path stroke-linejoin="round" d="m162.78 339.02v0 0l-9.3295 23.669 41.952-27.476c-5.87-144.6 93.81-394.9 277.8-285.32-199.22-123.29-310.42 131.52-310.42 289.13z" stroke="#000" stroke-linecap="round" stroke-width="5.1591" fill="#f93"/>
<title>Layer 1</title>
</g>
</svg>
