<svg xmlns:rdf="http://www.w3.org/1999/02/22-rdf-syntax-ns#" xmlns="http://www.w3.org/2000/svg" viewBox="0 0 652.67254 639.98687" height="639.99" width="652.67" version="1.1" xmlns:cc="http://creativecommons.org/ns#" xmlns:dc="http://purl.org/dc/elements/1.1/">
 <title>Expedition 16 insignia</title>
 <g transform="translate(-183.56 -180)">
  <g fill-opacity=".70769" fill="#420c05" transform="matrix(.64 0 0 .64 183.56 180)">
   <g transform="matrix(32.388 0 0 -32.388 643.45 125.18)">
    <path d="m0 0-5.873-4.91-0.731 0.74 5.893 4.813-0.314 0.321-5.94-4.769-0.76 0.769l6.057 4.726 1.668-1.69z" fill-opacity=".70769" fill-rule="evenodd" fill="#420c05"/>
   </g>
   <g transform="matrix(32.388 0 0 -32.388 158.6 526.47)">
    <path d="m0 0 7.682 6.41-0.748 0.756-7.723-6.247-0.405 0.405 7.758 6.215-0.778 0.786-7.924-6.17 2.138-2.155z" fill-opacity=".70769" fill-rule="evenodd" fill="#420c05"/>
   </g>
   <g transform="matrix(32.388 0 0 -32.388 574.14 54.898)">
    <path d="m0 0-6.117-4.68-0.734 0.743 6.137 4.584-0.316 0.321-6.183-4.539-0.763 0.772 6.302 4.494l1.674-1.695z" fill-opacity=".70769" fill-rule="evenodd" fill="#420c05"/>
   </g>
   <g transform="matrix(32.388 0 0 -32.388 69.537 437.4)">
    <path d="m0 0 8.005 6.111-0.752 0.759-8.043-5.951-0.406 0.407 8.078 5.918-0.78 0.789-8.249-5.871 2.147-2.162z" fill-opacity=".70769" fill-rule="evenodd" fill="#420c05"/>
   </g>
   <g transform="matrix(32.388 0 0 -32.388 1019.8 500.88)">
    <path d="m0 0-4.575-6.148-0.717 0.726 4.604 6.044-0.309 0.314-4.65-6.003-0.745 0.754 4.755 5.97l1.637-1.657z" fill-opacity=".70769" fill-rule="evenodd" fill="#420c05"/>
   </g>
   <g transform="matrix(32.388 0 0 -32.388 645.07 999.98)">
    <path d="m0 0 5.929 7.952-0.838 0.845-0.027-0.035 0.106-0.103-5.955-7.745-0.396 0.395 5.986 7.712 0.041-0.037 0.027 0.034-0.801 0.809-6.162-7.72 2.09-2.107z" fill-opacity=".70769" fill-rule="evenodd" fill="#420c05"/>
   </g>
   <g transform="matrix(32.388 0 0 -32.388 951.79 431.57)">
    <path d="m0 0-4.811-5.924-0.805 0.815 0.029 0.034 0.085-0.086 4.81 5.787-0.31 0.315-4.853-5.743 0.042-0.044-0.029-0.035-0.791 0.8 4.992 5.744l1.641-1.663z" fill-opacity=".70769" fill-rule="evenodd" fill="#420c05"/>
   </g>
   <g transform="matrix(32.388 0 0 -32.388 557.62 912.53)">
    <path d="m0 0 6.238 7.665-0.807 0.816-0.051-0.061 0.081-0.061-6.246-7.445-0.397 0.397 6.271 7.404 0.098-0.089 0.046 0.054-0.858 0.867-6.472-7.433 2.097-2.114z" fill-opacity=".70769" fill-rule="evenodd" fill="#420c05"/>
   </g>
   <g transform="matrix(32.388 0 0 -32.388 849.44 675.13)">
    <path d="m0 0-0.03-0.039-0.087 0.085-0.446-0.582-0.146 0.147-0.168-0.079-0.043-0.056 0.071-0.071-0.141-0.183 0.066-0.066-0.323-0.419-0.219 0.221 0.319 0.411v0.125l-2.13 2.152-0.003-0.135-0.344-0.411-0.199 0.2 0.358 0.423-0.031 0.119-0.617 0.624 0.357 0.412 0.688-0.696 0.417 0.495 0.227-0.229-0.427-0.509 0.135-0.137 0.288 0.238-0.153-0.424 0.104 0.043 0.464-0.038-0.166-0.362 1.475-1.491 0.377 0.487-0.058 0.061 0.032 0.041 0.353-0.357z" fill-opacity=".70769" fill-rule="evenodd" fill="#420c05"/>
   </g>
   <g transform="matrix(32.388 0 0 -32.388 291.07 203.56)">
    <path d="m0 0 0.044 0.032 0.056-0.055 0.616 0.451 0.15-0.151 0.205 0.045 0.058 0.043-0.072 0.073 0.186 0.137-0.066 0.067 0.427 0.314-0.071 0.071 0.038 0.028 0.362-0.365-0.038-0.029-0.072 0.073-0.418-0.31-0.016-0.109 2.158-2.181 0.015 0.123 0.378 0.304-0.043 0.043 0.031 0.026 0.363-0.364-0.032-0.026-0.122 0.122-0.391-0.317 0.024-0.111 0.776-0.785-0.423-0.353-0.859 0.868-0.485-0.393 0.074-0.074-0.039-0.031-0.369 0.373 0.038 0.031 0.061-0.061 0.501 0.402-0.139 0.14-0.354-0.191 0.221 0.376-0.124-0.028-0.526 0.086 0.232 0.313-1.517 1.533-0.519-0.384 0.096-0.098-0.045-0.033-0.37 0.375z" fill-opacity=".70769" fill-rule="evenodd" fill="#420c05"/>
   </g>
   <g transform="matrix(32.388 0 0 -32.388 657.7 548.49)">
    <path d="m0 0 0.154 0.169 0.224-0.226 0.204 0.224-0.028 0.027 0.117 0.128 0.022-0.022 0.175 0.194 0.117 0.001 0.022-0.07 0.062-0.01-0.02-0.112 0.177 0.036 0.008-0.073 0.084 0.003 0.028-0.104-0.085-0.095 0.027-0.036-0.035-0.039 0.205-0.208-0.002-0.088l0.112 0.127 0.097-0.005 0.043-0.11 0.048 0.013 0.005-0.194 0.025-0.025 0.09 0.102 0.067 0.003 0.016-0.087h0.105l0.023-0.107-0.033-0.125 0.213-0.216-0.641-0.741-0.202 0.195-0.236-0.011 0.003 0.088-0.096 0.042-0.027 0.078 0.042 0.048-0.164 0.025-0.021 0.107-0.059 0.014-0.019 0.095 0.041 0.047 0.002 0.07-0.166 0.168-0.095 0.054-0.072-0.081-0.039 0.04-0.052-0.029-0.015 0.101-0.07-0.007 0.005 0.077-0.031 0.027 0.002 0.07-0.118-0.043-0.004 0.112-0.049-0.013-0.016 0.111 0.049 0.054-0.219 0.227z" fill-opacity=".70769" fill-rule="evenodd" fill="#420c05"/>
   </g>
   <g transform="matrix(32.388 0 0 -32.388 659 531.33)">
    <path d="m0 0-0.641 0.647-0.033-0.033-0.058 0.058-0.068-0.134 0.148-0.151 0.072 0.133 0.078-0.078-0.172-0.281-4.122-4.383-0.158-0.667 4.496 4.818 0.232 0.134-0.024-0.103 0.166-0.168 0.053 0.172 0.031 0.036z" fill-opacity=".70769" fill-rule="evenodd" fill="#420c05"/>
   </g>
   <g transform="matrix(32.388 0 0 -32.388 509.04 379.43)">
    <path d="m0 0-0.645 0.651-0.035-0.03-0.06 0.059-0.076-0.127l0.148-0.152 0.081 0.125 0.078-0.078-0.19-0.263-4.495-4.036-0.193-0.636 4.905 4.439 0.248 0.118-0.029-0.098 0.167-0.169 0.062 0.164 0.034 0.033z" fill-opacity=".70769" fill-rule="evenodd" fill="#420c05"/>
   </g>
   <g transform="matrix(32.388 0 0 -32.388 467.91 337)">
    <path d="m0 0 0.373 0.324 6.317-6.387-0.331-0.364-6.359 6.427z" fill-opacity=".70769" fill-rule="evenodd" fill="#420c05"/>
   </g>
   <g transform="matrix(32.388 0 0 -32.388 610.74 481.77)">
    <path d="m0 0-0.186-0.19 0.025-0.026-0.136-0.139-0.042 0.043 0.044 0.045-1.5 1.515-0.326 0.33-0.067 0.64l2.188-2.218z" fill-opacity=".70769" fill-rule="evenodd" fill="#420c05"/>
   </g>
   <g transform="matrix(32.388 0 0 -32.388 551.79 444.53)">
    <path d="m0 0 0.124-0.158-0.042-0.042l-0.217 0.103-0.254-0.246-0.043 0.043-0.129-0.126 0.04-0.04-0.031-0.029-0.175 0.178s0.151 0.208 0.009 0.351c-0.141 0.143-0.287 0.054-0.358-0.013s-0.163-0.238-0.029-0.374c0.134-0.135 0.289-0.02 0.289-0.02l0.183-0.185-0.354-0.341 0.119-0.254-0.193-0.262s-0.341 0.005-0.555-0.203c-0.216-0.208-0.171-0.412-0.171-0.412l-0.08-0.079-0.124 0.013-0.524-0.509 0.021-0.02-0.075-0.074-0.029 0.03-0.206-0.199-0.053 0.054-0.381-0.37 0.06-0.06-0.15-0.146-0.209-0.066-0.082-0.079-0.007-0.191s-0.122 0.071-0.343-0.142c-0.221-0.215-0.148-0.132-0.148-0.132l-0.439 0.441-0.16-0.153 0.452-0.454-0.051-0.098-0.041-0.274-0.141-0.047-0.411-0.401-0.098 0.099 0.05 0.049-2.232 2.239-0.225-0.057 2.31-2.318 0.046 0.038 0.086-0.087-0.3-0.291-0.368-0.143-1.144-1.109s0.027-0.198 0.088-0.258l0.146-0.146-0.105-0.204 0.175-0.281 0.124-0.156-0.011-0.087 0.162-0.162 0.171 0.17-0.139 0.14h-0.122l-0.116 0.157-0.136 0.25 0.098 0.079s0.22-0.212 0.291-0.225c0.068-0.013 0.133-0.013 0.133-0.013l1.114 1.106 0.11 0.394 0.298 0.294 0.133-0.133-0.039-0.038 2.305-2.312 0.061 0.23-2.214 2.221-0.061-0.061-0.102 0.101 0.378 0.374-0.008-0.075 0.093-0.018 0.125 0.289 0.136 0.031-0.111-1.075 0.075-0.058 0.136 1.179 0.466-0.453 0.119 0.119-0.448 0.45s0.215 0.147 0.233 0.255c0.017 0.108 0.065 0.251 0.065 0.251l1.91 0.161 0.053 0.104-1.642-0.164 0.19 0.375 0.066-0.066 0.352 0.349-0.062 0.063 0.199 0.197 0.061 0.095 0.033-0.033 0.532 0.528 0.014 0.16 0.056 0.054s0.254-0.015 0.429 0.158c0.235 0.234 0.186 0.541 0.186 0.541l0.061 0.06 0.276 0.152 0.149-0.15 0.264 0.246 0.06 0.013-0.054-0.105-0.174-0.172 0.293-0.288 0.315 0.213 0.12 0.018 0.424-0.421s0.074 0.064 0.167 0.16c0.094 0.095 0.141 0.172 0.141 0.172l-0.047 0.067 0.043 0.113-0.122 0.122-0.051-0.052-0.031 0.031 0.055 0.056-0.234 0.236 0.136 0.2 0.062-0.063 0.026 0.027-0.247 0.249 0.041 0.042-0.042 0.043-0.125-0.023-0.296-0.182 0.102 0.125-0.048 0.283 0.26-0.096-0.719 0.727-0.022-0.094z" fill-opacity=".70769" fill-rule="evenodd" fill="#420c05"/>
   </g>
   <g transform="matrix(32.388 0 0 -32.388 579.32 551.73)">
    <path d="m0 0-1.302 1.313-0.138-0.138-0.897 0.904 0.144 0.14-1.308 1.319-0.673-0.62 1.321-1.331 0.167 0.161 0.912-0.918-0.165-0.165 1.311-1.32 0.628 0.655z" fill-opacity=".70769" fill-rule="evenodd" fill="#420c05"/>
   </g>
   <g transform="matrix(32.388 0 0 -32.388 574.14 421.53)">
    <path d="m0 0 0.007 0.008 0.709 0.685 0.115-0.104 0.117-0.007-0.03 0.165-0.063 0.07 0.313 0.304-1.389 1.408-0.195 0.026 0.296 0.287 0.007 0.121-0.13 0.112-0.086-0.063 0.03-0.019-0.318-0.289-0.125 0.127 0.382 0.346-0.057 0.057-0.067-0.06 0.016-0.022-0.287-0.259-0.122 0.13 0.266 0.239 0.04 0.001 0.073 0.065-0.073 0.074-0.072-0.065 0.016-0.017-0.295-0.264-0.133 0.135 0.288 0.258 0.014-0.014 0.066 0.06-0.059 0.06-0.061-0.053 0.009-0.009-0.325-0.289-0.123 0.124 0.349 0.398 0.031 0.028-0.075 0.077-0.45-0.398-0.24 0.048-0.107 0.31 0.131 0.407 0.068 0.058 0.429 0.063 0.281-0.106 0.027-0.028 0.038-0.186-0.104-0.093 0.121-0.032 0.175 0.156-0.391 0.391-0.102-0.088-0.298 0.326 0.064 0.055 0.258-0.249 0.058 0.041 0.12-0.12 0.147 0.129 0.322-0.328 0.028 0.025 0.04-0.04l0.364 0.322 0.125-0.127-0.372-0.332 0.056-0.057 0.06 0.052-0.014 0.014 0.289 0.258 0.122-0.124-0.281-0.254-0.019 0.019-0.059-0.052 0.062-0.063 0.345 0.301 0.12-0.122-0.271-0.245-0.022 0.021-0.074-0.066 0.06-0.06 0.369 0.334 0.123-0.124-0.381-0.346 0.006-0.191 0.15 0.002 0.048 0.07 0.058 0.053 0.066-0.09-0.073-0.015-0.001-0.099s0.282-0.026 0.358-0.252c0.077-0.225 0.06-0.225 0.06-0.225l0.959-0.96-0.064-0.061 0.2-0.131 0.065 0.111 0.08 0.089 0.052-0.04 0.244 0.191 0.153-0.074 0.095-0.166-0.161-0.158-0.048-0.145-0.082-0.08-0.078-0.04 0.064-0.065 0.056-0.116 0.127 0.005 0.796-0.807-0.173-0.314 0.028-0.021 0.032 0.032 0.139-0.141-0.035-0.036 0.217-0.221-0.191-0.199-0.078-0.004-0.195 0.197-0.224 0.226-0.248-0.254-0.219 0.222-0.078-0.078-0.062 0.063 0.077 0.084-0.505 0.5-0.031 0.117-0.346-0.338-0.24 0.09 0.079-0.279-0.257-0.265 0.229-0.229-0.01-0.168 0.115-0.23-0.332 0.063-0.117-0.121-0.981 0.977z" fill-opacity=".70769" fill-rule="evenodd" fill="#420c05"/>
   </g>
   <g transform="matrix(32.388 0 0 -32.388 478.92 327.6)">
    <path d="m0 0-0.041 0.042-0.296 0.065-0.07 0.07 0.086 0.075-0.041 0.108-0.151 0.152 0.128 0.11-0.13 0.132 0.04 0.034-0.246 0.007-0.161 0.163-0.373 0.018-0.423-0.353 0.164-0.376-0.27-0.228 0.115-0.116 0.049 0.042 0.051-0.051-0.044-0.037 0.129-0.005 0.047 0.105 0.068-0.061 0.119-0.013 0.19 0.067 0.037-0.037-0.034-0.029 0.078-0.08 0.091-0.041 0.448-0.112-0.199-0.203 0.063-0.064 0.338 0.226-0.097 0.098l0.335 0.292z" fill-opacity=".70769" fill-rule="evenodd" fill="#420c05"/>
   </g>
   <g transform="matrix(32.388 0 0 -32.388 650.9 424.44)">
    <path d="m0 0-0.071-0.004-0.122-0.127 0.117-0.119-0.082-0.21-0.061 0.013-0.041-0.121 0.046-0.053-0.11-0.139-0.041-0.139s0.066-0.063 0.059-0.07-0.102-0.131-0.102-0.131l-0.038 0.171 0.077 0.237-0.028 0.058 0.143 0.32 0.066 0.033 0.014 0.049-0.054 0.054-0.068-0.07-0.073-0.038-0.046-0.078-0.245-0.251-0.155-0.073-0.214 0.001-0.02 0.085 0.173 0.069 0.317 0.32 0.073 0.017-0.008 0.057 0.218 0.236 0.107-0.039 0.055 0.055 0.114-0.113z" fill-opacity=".70769" fill-rule="evenodd" fill="#420c05"/>
   </g>
   <g transform="matrix(32.388 0 0 -32.388 646.04 487.28)">
    <path d="m0 0-0.148 0.288 0.074-0.317 0.07 0.038m-0.384 0.85-0.105 0.376-0.083-0.048 0.188-0.328zm0.497-0.884-0.187-0.115-0.087 0.088-0.105 0.497-0.424 0.788 0.192 0.08 0.079 0.085 0.25-0.883 0.282-0.54z" fill-opacity=".70769" fill-rule="evenodd" fill="#420c05"/>
   </g>
  </g>
 </g>
</svg>
