<svg xmlns:rdf="http://www.w3.org/1999/02/22-rdf-syntax-ns#" xmlns="http://www.w3.org/2000/svg" height="100%" viewBox="0 0 900 600" width="100%" version="1.1" xmlns:cc="http://creativecommons.org/ns#" xmlns:dc="http://purl.org/dc/elements/1.1/" preserveAspectRatio="xMinYMin slice">
<title>Space Station Art</title>
<g>
<title>Layer 1</title>
<g clip-rule="evenodd" transform="rotate(72.555 329.23 265.49)" fill-rule="evenodd">
<path fill-opacity=".99" d="m227.44-40.36c38.49 34.024 78.586 70.144 115.92 104.4-3.79-0.031998-5.782-3.644-8.16-5.76-31.289-27.85-62.17-55.936-93.6-84.48-2.079-1.888-4.589-4.048-7.2-6.48-2.402-2.237-6.716-5.064-6.96-7.68z" fill="#84c6dc"/>
<path fill-opacity=".99" d="m321.76 115.16c-0.59399 1.433-1.458-0.73601-1.44-0.72-3.818-3.628-7.68-8.317-11.52-12.24-22.4-22.884-44.242-46.977-66.24-70.56-8.848-9.484-18.204-18.352-26.16-28.32 0.20401 0.043999 0.22601-0.093002 0.24-0.24-0.067001-0.429 0.227-0.493 0.24-0.24 33.711 36.277 68.656 72.037 102.24 108.72 0.948 1.036 2.859 1.814 2.64 3.6z" fill="#84c6dc"/>
<path d="m353.68 65.72c1.487 1.153 3.062 2.219 3.12 4.8-2.503 0.937-6.256 0.62399-9.6 0.72-1.048-1.752-2.703-2.896-3.84-4.56 1.53-0.629 4.434 0.114 6-0.48 0.71399-4.518-2.468-4-3.601-7.2 0.319-0.241 0.89398-0.227 0.96002-0.72 2.436 2.125 4.435 4.686 7.2 6.48 0.48398 0.489-0.104 0.47-0.23898 0.96z" fill="#8f8f8f"/>
<path d="m341.44 67.4c1.806 1.394 3.078 3.321 4.56 5.04-8.513 23.487-17.019 46.981-25.68 70.32-0.80801-2.048-3.42-3.516-3.6-5.76-0.138-1.712 1.963-6.33 2.88-8.88 7.033-19.572 15.481-41.865 21.84-60.72z" fill="#8f8f8f"/>
<g fill="#fff">
<path d="m352.72 72.92c-1.122 2.419 0.007996 4.347 1.681 5.28-6.219 16.821-12.539 33.542-18.96 50.16-0.94702 0.398-1.707-1.823-3.36-1.68-1.912 0.166-2.103 2.159-2.64 4.32 0.495 2.17 3.089 2.339 3.359 4.32 0.33698 2.462-2.692 5.054-2.88 7.92-2.593 0.20799-5.014 0.58499-7.92 0.48 8.588-23.572 17.031-47.289 25.92-70.56 1.312-0.369 3.148-0.21201 4.8-0.24z" fill="#8f8f8f"/>
<path fill-opacity=".99" d="m354.88 73.16c2.929 1.702 7.947 6.651 11.521 9.84 3.987 3.559 7.567 7.088 10.8 10.32 7.261 7.26 15.147 13.5 22.08 20.16 14.537 13.965 29.679 27.109 43.68 40.56 14.397 13.831 29.046 27.341 43.68 40.56 12.919 11.669 25.526 23.592 38.4 35.52 1.6699 1.548 3.625 3.038 4.7999 5.04-0.22595 0.974-1.114 1.286-1.439 2.16-14.932-12.75-28.801-27.047-43.681-40.56-14.588-13.248-29.452-26.569-43.92-40.32-21.346-20.289-43.379-40.172-65.279-60.96-5.121-4.86-10.581-10.007-16.32-15.36-2.232-2.08-7.086-4.616-4.322-6.96z" fill="#8ea4ab"/>
<g fill-opacity=".99" fill="#429fc0">
<path d="m405.76 84.2c-1.846-0.314-2.387-1.932-3.84-2.64 0.54999-1.77 1.027-3.613 1.44-5.52 2.143-0.25899 4.226-1.852 6-1.68-1.122 3.357-2.037 6.922-3.6 9.84z"/>
<path d="m402.16 75.8c-0.33402 1.666-0.84601 3.154-1.2 4.8-2.026-1.653-3.865-3.494-6-5.04 1.796-1.749 4.723-0.054993 7.2 0.24z"/>
<path d="m214.96 78.2c1.882 1.739-0.591 2.844-1.68 3.84-3.367 3.082-7.001 7.312-10.56 10.08-1.488-1.607 0.99301-2.676 1.92-3.6 3.215-3.206 6.659-7.656 10.32-10.32z"/>
<path d="m216.64 80.6c0.517 0.444 0.634 1.287 1.2 1.68-4.358 4.122-8.364 8.596-13.2 12.24-2.104-1.314 0.547-2.763 2.16-4.32 3.097-2.992 7.31-7.21 9.84-9.6z"/>
</g>
<path d="m201.28 89.24c-6.94-3.274-14.609 0.99699-14.64 8.4-2.331-0.79401-2.644-4.168-1.92-6.24 1.821-5.209 14.24-10.034 16.56-2.16z" fill="#818181"/>
<path fill-opacity=".99" d="m245.44 86.84c2.469 2.651 4.71 5.529 6.96 8.4-0.93198 3.309-2.561 5.919-3.36 9.36-2.578-2.622-5.032-5.368-7.2-8.4 1.343-2.976 2.412-6.228 3.6-9.36z" fill="#85c6db"/>
<path fill-opacity=".99" d="m241.12 98.12c2.582 1.658 3.775 4.705 6.24 6.479-2.359 0.761-5.634 0.606-8.4 0.96001-0.29401-2.593 1.669-4.846 2.16-7.439z" fill="#85c6db"/>
<path d="m208 101c-0.757 0.523-0.40601 2.154-0.48001 3.36-4.002 0.63699-5.819 3.461-7.92 6-0.41602-2.145-0.379-4.741-0.96001-6.72 2.249-1.656 5.55-4.05 9.36-2.64z" fill="#818181"/>
<path fill-opacity=".99" d="m189.28 103.16c-0.76001 1.16-1.386 2.455-3.12 2.64 0.92099-0.84201 2.005-2.79 3.12-2.64z" fill="#429fc0"/>
<path fill-opacity=".99" d="m190 104.36c0.61099 0.029007 0.931 0.349 0.95999 0.96001-0.82498-0.10501-1.345 0.094986-1.92 0.23999 0.16199-0.558 0.797-0.64299 0.95999-1.2z" fill="#429fc0"/>
<path d="m266.56 105.56c1.245 2.035 2.351 4.21 3.6 6.24 1.88 1.946 4.755 2.504 6.72 4.32 2.33 2.153 3.327 5.738 5.52 8.16 1.54 1.701 3.668 2.958 5.28 4.32 1.684 1.422 3.104 3.117 5.04 4.32 1.516 4.084 4.039 7.161 5.52 11.28 1.596 1.308 3.183 2.771 5.04 4.56 1.348 1.299 4.104 3.162 4.32 5.04 0.375 3.266-2.946 6.172-3.36 9.84-2.463-2.904-3.463-6.081-5.76-9.12-2.186-2.892-5.579-4.584-7.68-7.44-2.297-3.123-3.197-7.2-5.52-10.32-2.521-3.386-7.372-5.515-10.32-9.12-1.792-2.191-2.376-5.505-4.08-7.44-2.345-2.663-7.66-4.407-10.08-7.2-1.598-1.844-1.858-4.787-3.6-6.48 2.723-0.716 6.109-0.77101 9.36-0.96001z" fill="#8f8f8f"/>
<path fill-opacity=".99" d="m196.72 106.76v0.72c-1.571 0.92601-6.884 2.355-8.16 0.48001 2.972-0.14801 5.328-0.912 8.16-1.2z" fill="#84c6dc"/>
<path d="m250.24 107c1.928 2.556 2.619 5.085 4.56 7.44 2.754 3.341 7.388 4.9 10.08 7.92 2.005 2.25 2.733 5.516 4.56 7.92 2.84 3.737 7.041 5.481 10.08 8.88 1.862 3.343 2.905 6.477 5.04 9.36 2.444 3.301 6.244 5.282 8.64 8.4 3.233 4.208 4.25 9.691 8.4 13.44-0.16299 1.437-1.092 2.107-1.2 3.6-1.829-0.069-3.236 0.284-4.8 0.48-4.873-3.882-6.792-9.771-10.32-14.64-2.181-3.009-5.889-4.854-8.16-7.92-2.42-3.269-3.032-6.998-5.52-10.32-3.147-3.728-7.506-5.45-10.56-9.36-1.95-2.497-2.856-5.959-5.04-8.4-2.389-2.67-7.232-4.659-9.84-7.44-2.21-2.356-3.024-6.13-5.04-8.64 3.366 0.087006 5.676-0.884 9.12-0.72z" fill="#8f8f8f"/>
<path d="m287.92 175.16c-1.316-0.037003-2.585-0.026001-3.6 0.23999-1.298 1.182-1.433 3.528-2.16 5.28-5.559-3.74-7.79-10.297-11.76-15.6-2.264-3.024-5.926-4.882-8.16-7.92-2.234-3.037-3.066-6.993-5.28-10.08-2.696-2.504-5.432-4.968-8.4-7.2-2.021-4.059-4.72-7.44-6.72-11.52-3.76-2.48-7.155-5.325-11.04-7.68-1.679-4.081-4.327-7.193-6-11.28 2.592 0.748 6.387-1.809 9.12-0.95999 2.295 0.713 3.599 6.937 5.04 8.88 2.438 3.287 7.627 4.792 10.8 8.4 2.588 2.943 3.679 6.986 6.24 9.84 3.415 3.805 7.435 5.654 10.32 8.88 1.661 3.151 2.553 6.693 4.56 9.6 2.247 3.255 6.482 4.9 8.88 8.16 2.031 2.762 2.713 6.307 4.56 8.88 1.124 1.566 2.664 2.282 3.6 4.08z" fill="#8f8f8f"/>
<g fill-opacity=".99">
<path d="m196.96 109.4c0.143 0.49701-0.297 1.577 0.24 1.68-1.333 0.827-3.81 0.51-5.52 0.95999 0.077011-0.967-1.674-1.352-1.2-1.92 2.124-0.27499 4.111-0.689 6.48-0.72z" fill="#84c6dc"/>
<path d="m182.56 111.56c-0.071991 1.212-0.92999 3.708-1.92 4.8 0.025009-1.298 0.933-3.675 1.92-4.8z" fill="#429fc0"/>
<path d="m197.2 112.52c0.298 0.741 0.37401 1.706 0.48 2.64-1.044-0.003998-2.159-0.07901-2.88 0.23999-0.65601-0.62399-1.127-1.433-1.92-1.92 1.078-0.68199 2.815-0.705 4.32-0.95999z" fill="#84c6dc"/>
<path d="m197.68 116.36c0.067017 0.812 0.382 1.378 0.24 2.4-1.33 0.27101-3.029 0.171-4.32 0.48001 0.34299-0.85701 0.853-1.547 0.95999-2.64 0.918-0.20201 1.926-0.31401 3.12-0.24z" fill="#84c6dc"/>
<path d="m227.2 123.56c-2.5-0.020004-4.359 0.602-6.96 0.48 0.32602-1.674 1.076-2.925 1.44-4.56 2.674-0.067001 6.054-1.227 6.48 0.96001 0.203 1.045-0.78601 1.705-0.96001 3.12z" fill="#85c6db"/>
<path d="m198.16 119.96c-0.142 1.021 0.173 1.587 0.23999 2.4-2.076 0.325-4.219 0.58099-6.48 0.72 0.56401-0.716 0.793-1.767 1.2-2.64 1.676-0.164 3.363-0.31601 5.04-0.48z" fill="#84c6dc"/>
<path d="m228.88 121.88c0.211 0.668 1.19 0.569 1.2 1.44h-1.44c-0.174-0.73401 0.414-0.70601 0.24-1.44z" fill="#85c6db"/>
<path d="m198.64 123.56v2.16c-2.77 0.27-5.435 0.646-8.16 0.95999 0.28998-0.75 0.58198-1.498 0.95999-2.16 2.236-0.48401 4.807-0.63301 7.2-0.96001z" fill="#84c6dc"/>
<g fill="#85c6db">
<path d="m229.6 124.52c0.054993 0.935-0.51601 1.244-0.72 1.92 0.30899 0.97099 1.238 1.322 1.44 2.4-1.471-0.029999-2.868 0.013-3.84 0.48001 0.35998-1.322 0.357-5.081 3.12-4.8z"/>
<path d="m232 124.52c2.715 1.285 4.694 3.306 7.2 4.8-0.81799 3.102-2.3 5.54-3.12 8.64-1.207-0.71301-1.86-1.98-2.64-3.12 0.181-1.499 0.836-2.524 1.2-3.84-0.703-1.857-2.09-3.029-3.12-4.56-0.17899-0.979 0.77301-0.827 0.48001-1.92z"/>
<path d="m226.72 124.76c-0.58 1.581-1.266 3.054-1.68 4.8-2.45-0.261-4.759 0.801-6.48 0.48-0.506-1.683 0.64801-3.413 1.2-4.8 2.603 0.123 4.356-0.60301 6.96-0.48001z"/>
</g>
<path d="m372.4 125.96c0.61902 2.034-0.78699 6.053-0.95999 8.88-1.691-2.1-5.437-3.209-4.08-6.96 1.571-0.748 3.593-1.047 5.04-1.92z" fill="#429fc0"/>
<path d="m198.88 126.92c-0.080002 0.959 0.42799 1.332 0.23999 2.4-3.148 0.30499-6.943 1.199-9.84 0.95999-0.127-1.007 0.41901-1.341 0.48001-2.16 2.93-0.51 5.938-0.942 9.12-1.2z" fill="#84c6dc"/>
<path d="m363.76 127.4c0.422-0.48299 1.582 0.32501 2.4 0.24 0.19202 0.83301-0.357 0.923-0.23999 1.68-0.86401-0.49501-1.294-1.425-2.16-1.92z" fill="#429fc0"/>
<path d="m373.84 127.4c1.704 1.336 2.932 3.148 4.8 4.32-0.50702 1.493-0.84702 3.153-1.199 4.8-1.955 0.033997-3.084-0.756-4.801-0.96001 0.22598-2.895 0.96399-5.277 1.2-8.16z" fill="#429fc0"/>
<path d="m488.56 301.64c-25.935-27.924-52.776-56.264-78.96-85.68-12.646-14.208-26.583-28.097-39.6-42.72-10.962-12.315-22.839-24.962-34.56-37.68-1.881-2.041-5.523-5.071-3.36-6.96 1.629 0.24399 3.552 3.207 5.52 5.28 11.716 12.342 23.477 25.492 34.801 37.68 27.095 29.164 52.786 57.26 79.68 86.4 11.352 12.3 22.849 25.629 34.8 37.92 1.481 1.523 4.243 3.152 1.679 5.76z" fill="#8ea4ab"/>
<path d="m199.6 132.92c-3.122 0.558-6.447 0.91299-9.84 1.2-0.067017-0.812-0.38202-1.378-0.24002-2.4 3.162-0.358 6.336-0.704 9.36-1.2 1.007 0.03299 0.159 1.921 0.72 2.4z" fill="#84c6dc"/>
<path d="m239.92 130.76c1.24 0.44 1.319 2.041 2.16 2.88-0.83002 2.93-2.095 5.426-2.88 8.4-0.974-0.78699-1.604-1.916-2.4-2.88 0.94299-2.897 2.198-5.482 3.12-8.4z" fill="#85c6db"/>
</g>
<path d="m232 131.48c-0.597 1.002-0.636 2.564-1.44 3.36 0.30901 0.97101 1.111 1.449 1.68 2.16-5.039 1.303-10.55 4.621-9.36 10.56-1.504 0.297-4.737-0.217-5.52 0.48-1.098-9.659 5.483-15.577 14.64-16.56z" fill="#818181"/>
<path fill-opacity=".99" d="m379.6 132.92c0.78699 0.414 1.134 1.266 1.921 1.68-0.37799 0.903-1.833 0.728-2.4 1.44-0.43298-0.68399 0.393-2.159 0.479-3.12z" fill="#429fc0"/>
<path fill-opacity=".99" d="m199.84 136.52c-2.936 0.664-6.182 1.019-9.6 1.2-0.066986-0.812-0.38199-1.378-0.23999-2.4 3.143-0.37701 6.537-0.50301 9.36-1.2 0.994-0.033997 0.25 1.67 0.48 2.4z" fill="#84c6dc"/>
<path d="m136.96 134.36c2.008 2.552 3.143 5.977 5.52 8.16 1.019 0.13899 1.113-0.647 1.44-1.2 1.353 0.644 1.17 2.058 0.48 3.36 2.228 3.212 4.391 6.489 7.2 9.12 0.907 0.026993 1.291-0.47 1.44-1.2 1.094 0.92699 1.257 1.498 0.48 2.88 2.054 3.146 4.44 5.96 6.72 8.88 0.989 0.756 1.488-0.763 2.16-0.24-0.28499 0.91501-0.638 1.762-0.95999 2.64 2.105 3.334 4.488 6.392 7.2 9.12 1.487 0.358 1.253-1.983 2.16-1.44-0.28401 3.052-3.702 1.3-6 1.2-8.482-10.798-17.083-21.476-25.92-31.92-0.478-3.283-2.023-5.497-2.64-8.64 0.345-0.135 0.58501-0.37401 0.72-0.72z" fill="#818181"/>
<g fill-opacity=".99">
<path d="m243.52 136.52c1.384 0.696 1.506 2.654 2.64 3.6-0.89499 0.625-3.149-0.10899-4.08 0.48001 0.50098-1.339 1.172-2.508 1.44-4.08z" fill="#85c6db"/>
<path d="m310.72 136.76c-1.308 3.972-2.764 7.796-4.08 11.76-1.339-0.741-2.379-1.781-3.12-3.12 1.276-2.644 2.069-5.771 3.12-8.64h4.08z" fill="#435052"/>
<path d="m200.08 137.96c0.146 0.575 0.345 1.095 0.24 1.92-3.269 0.412-6.354 1.005-9.84 1.2 0.12799-0.929-0.42902-1.172-0.24002-2.16 3.604 0.003998 6.405-0.795 9.84-0.95999z" fill="#84c6dc"/>
<path d="m200.56 141.32c-0.142 1.022 0.173 1.587 0.24 2.4-3.591 0.16901-6.785 0.735-10.08 1.2v-2.64c3.559-0.041 6.262-0.937 9.84-0.95999z" fill="#84c6dc"/>
<path d="m248.32 142.52c-0.072998 1.527-0.90201 2.298-1.2 3.6-2.57-0.009995-4.498 0.62201-7.2 0.48001 0.567-1.593 1.271-3.049 1.68-4.8 2.81 0.411 5.637-1.355 6.72 0.72z" fill="#85c6db"/>
<path d="m249.28 143.72c1.331 0.27 1.685 1.515 2.88 1.92-0.72598 0.554-2.476 0.085007-3.6 0.24 0.12799-0.832 0.642-1.278 0.72-2.16z" fill="#85c6db"/>
<path d="m201.04 144.92v2.4c-3.323 0.35599-6.613 0.74699-9.84 1.2 0.188-1.067-0.31999-1.44-0.24-2.4 3.299-0.461 6.616-0.90399 10.08-1.2z" fill="#84c6dc"/>
<g fill="#85c6db">
<path d="m211.84 146.84c0.964 0.556 1.23 1.81 1.92 2.64 1.099 0.101 2.709-0.30899 3.12 0.48001-1.402 1.078-4.183 0.77699-6.48 0.95999 0.36301-1.477 1.06-2.62 1.44-4.08z"/>
<path d="m253.84 147.32c-0.40598 1.194-1.07 2.129-1.44 3.36-2.001 0.24-4.146 0.33402-6 0.72 0.50803-1.332 1.099-2.581 1.44-4.08 2.161 0.29098 4.636-1.018 6 0z"/>
<path d="m246.64 147.32c-0.43802 1.402-1.188 2.492-1.44 4.08-2.174 0.466-4.586 0.694-6.96 0.96001-0.38-1.487 0.991-2.903 1.2-4.56 2.705 0.145 4.753-0.367 7.2-0.48z"/>
</g>
<path d="m200.8 148.52c1.028 0.011993 0.64 1.44 0.71999 2.4-3.356 0.40401-6.46 1.059-10.08 1.2 0.142-1.021-0.173-1.587-0.24-2.4 3.231-0.369 6.573-0.627 9.6-1.2z" fill="#84c6dc"/>
</g>
<path d="m218.08 150.2c0.12-0.73 2.606 0.033997 3.84-0.23999 0.039993 0.521-0.852 0.10799-1.2 0.23999-0.56799 0.166-2.147 0.554-2.64 0z"/>
<path d="m290.32 150.44c5.483 3.156 8.597 8.683 11.52 14.4-0.633-0.072998-0.61899 0.50101-0.72 0.96001-2.424-3.176-4.19-7.009-6.24-10.56-1.61-1.368-4.098-3.079-4.56-4.8z" fill="#818181"/>
<g fill-opacity=".99">
<path d="m224.08 151.64c0.12801 3.648-4.761 2.279-7.68 2.88 0.16901-1.111 0.79102-1.77 0.96001-2.88 2.461 0.381 5.158-1.019 6.72 0z" fill="#85c6db"/>
<path d="m216.16 151.64c-0.166 1.195-0.83501 1.885-0.96001 3.12-2.324-0.164-4.089 0.231-6.24 0.24 0.29201-0.989 0.81801-1.743 0.96001-2.88 2.316 0.076004 4.268-0.21199 6.24-0.48z" fill="#85c6db"/>
<path d="m201.28 152.12c0.84799 0.35301 0.569 1.831 0.72 2.88-3.498 0.18201-6.472 0.888-10.08 0.96001-0.119-0.84201-0.358-1.562-0.24-2.64 3.408-0.192 6.578-0.62201 9.6-1.2z" fill="#84c6dc"/>
</g>
<g fill="#818181">
<path d="m149.2 173.48c2.515 3.512 6.629 8.335 9.84 12.48 1.49 1.923 5.146 5.153 1.68 7.2-7.654-9.969-15.282-19.731-23.04-29.76-2.519-3.256-5.636-6.251-7.44-10.08 0.58801-0.45201 1.72-0.36 2.4-0.72 4.625 5.135 8.625 10.896 12.96 16.32-0.89002 2.714 0.76999 5.523 3.6 4.56z"/>
<path d="m257.44 152.84c0.814 1.426 1.435 3.045 2.4 4.32-1.767 0.142-5.234-1.022-7.68-0.24-0.431-0.60899-0.74402-1.336-0.95999-2.16 1.692-1.03 3.016-2.425 6.24-1.92z"/>
<path d="m250.24 157.4c-3.872 1.168-6.824 3.256-8.88 6.24 0.68802-2.272 0.33203-6.367-0.71997-8.88 3.695-1.487 8.922-1.36 9.6 2.64z"/>
</g>
</g>
<path d="m238.72 163.4c-22.001 1.999-44.467 3.533-66.24 5.76 1.25-3.149 2.766-6.034 3.84-9.36 18.458-1.269 41.434-3.168 59.04-4.32 0.339-0.022003 0.465-0.273 0.72-0.23999 3.459 0.454 4.039 4.867 2.64 8.16z" fill="#a9a9a9"/>
<g fill="#fff">
<path d="m163.36 160.76c0.535 0.246 0.189 1.607-0.48 1.44-0.647-0.64299 0.30499-0.91299 0.48-1.44z"/>
<path d="m150.64 161c3.527 1.707-0.239 9.958-3.12 10.8-0.776-4.467 1.861-7.571 3.12-10.8z" fill="#818181"/>
<path d="m153.52 164.6c1.849 1.511 3.232 3.488 4.56 5.52-2.967 1.002-3.237-1.79-4.8-2.88-0.029999-0.99 0.41699-1.503 0.24-2.64z" fill="#818181"/>
<path fill-opacity=".99" d="m327.52 180.68c0.84299-3.317 2.347-5.973 3.36-9.12-2.42-0.737-4.828 0.61-7.68 0.24 0.56299-2.317 1.316-4.444 2.4-6.24 2.015-0.22099 4.673-0.634 6.48 0 1.322 0.464 2.72 2.572 3.6 3.6 0.97501 1.139 2.969 2.812 3.12 3.84 0.19601 1.332-1.056 3.664-1.92 4.56-1.979 2.051-5.742 3.098-9.36 3.12z" fill="#435052"/>
<g fill="#85c6db" fill-opacity=".99">
<path d="m230.32 166.52c-0.41901 1.182-0.701 2.5-1.2 3.6-0.94299-1.137-2.19-1.97-2.88-3.36 1.627 0.18701 2.552-0.32799 4.08-0.23999z"/>
<path d="m224.56 167c-1.026 2.973-2.202 5.798-3.12 8.88-2.325-2.019-4.401-5.486-6.48-6.96-0.097992-0.578 0.43802-0.522 0.24-1.2 3.312-0.048004 6.044-0.676 9.36-0.72z"/>
<path d="m238.96 167c-0.495 1.424-1.099 2.74-1.44 4.32-2.343-0.02301-4.479 0.161-6.48 0.48 0.38-1.62 1.252-2.748 1.44-4.56 2.32 0.078995 4.055-0.42601 6.48-0.24z"/>
<path d="m225.28 168.2c5.281 2.401 1.408 8.074 0.23999 12.48-1.263-1.217-2.44-2.52-3.36-4.08 1.201-2.639 2.173-5.507 3.12-8.4z"/>
</g>
<path d="m270.16 168.68c0.39298 1.768 1.848 2.473 2.16 4.32h-4.8c-0.70703-1.293-1.467-2.533-2.16-3.84 1.828 0.067993 2.874-0.646 4.8-0.48001z" fill="#818181"/>
<g fill="#85c6db" fill-opacity=".99">
<path d="m214.48 169.88c2.065 2.416 4.15 4.81 6.24 7.2-0.858 3.622-2.532 6.428-3.36 10.08-2.755-1.885-4.321-4.959-6.72-7.2 1.305-3.336 2.549-6.732 3.84-10.08z"/>
<path d="m237.04 172.52c-0.659 1.501-1.135 3.185-1.68 4.8-2.001 0.319-4.137 0.50299-6.48 0.48 0.56799-1.592 1.318-3.001 1.68-4.8 2.178-0.142 4.099-0.541 6.48-0.48z"/>
<path d="m237.52 173.96c0.426 0.93399 0.82599 1.895 0.72 3.36h-1.68c-0.033005-1.473 1.039-1.841 0.96001-3.36z"/>
</g>
<path fill-opacity=".99" d="m327.04 173.96c0.125 1.758-1.305 4.184-2.16 6.48-0.88101 2.367-1.777 4.853-2.64 6.96-1.392 0.528-3.867-0.026001-5.28 0.48001 1.604-4.556 3.372-8.948 5.04-13.44 1.398-0.44101 3.641-0.039001 5.04-0.48z" fill="#435052"/>
<path d="m273.52 174.44c0.032959 0.44699 0.15796 0.802 0.47998 0.95999-2.05 1.467-5.767 0.13901-8.64 0.24 0.953-2.024 5.617-1.559 8.16-1.2z" fill="#818181"/>
<path d="m298.72 176.6c0.32602 1.907-1.08 4.231-1.92 6.48-0.83499 2.234-1.792 4.569-2.4 6.72-3.555 0.125-6.84 0.52-10.32 0.72-2.528-4.774 0.14798-8.553 1.68-12.96 4.831 0.19101 8.611-0.66899 12.96-0.95999z" fill="#8f8f8f"/>
<path d="m275.68 177.56c0.074005 0.955-0.55399 1.206-0.47998 2.16-0.50903-0.69099-1.207-1.193-1.44-2.16 0.879 0.177 1.333-0.59 1.92 0z" fill="#818181"/>
<g fill="#85c6db" fill-opacity=".99">
<path d="m221.68 178.28c1.01 1.23 2.096 2.384 3.12 3.6-0.686 2.074-0.90901 4.043 0.96001 5.04 0.789 0.286 2.04-0.12199 3.12-0.24-0.66299 3.897-2.395 6.726-3.36 10.32-2.542-2.818-5.082-5.638-7.44-8.64 0.978-3.582 2.4-6.719 3.6-10.08z"/>
<path d="m240.64 180.68c0.23898 1.199-0.74501 1.175-0.72002 2.16-1.751 0.32901-3.676 0.483-5.52 0.72 0.40001-1.839 1.049-3.43 1.68-5.04 2.852-0.85701 3.393 0.78099 4.56 2.16z"/>
<path d="m234.88 178.52c-0.42401 1.579-1.663 3.614-1.44 5.04-2.246 0.314-4.125 0.995-6.72 0.96001 0.377-1.943 1.206-3.434 1.68-5.28 2.147-0.25301 4.29-0.51001 6.48-0.72z"/>
</g>
<path d="m323.44 209.24c-5.991-0.23099-9.992 1.528-12.48 4.8-1.464-0.13501-2.427-0.772-3.36-1.44 2.621-7.459 5.677-14.482 8.16-22.08 2.301-0.57901 5.428-0.332 7.92-0.72 1.143-2.537 2.146-5.214 3.12-7.92 3.263 0.062988 6.112-0.28801 7.919-1.68 0.27899-0.039001 0.42798 0.053009 0.47998 0.24-3.908 9.61-7.918 19.12-11.759 28.8z" fill="#8f8f8f"/>
<g fill-opacity=".99">
<path d="m343.6 180.2c2.327 2.074 4.149 4.651 6.24 6.96-1.056 2.544-2.911 4.289-5.52 5.28-0.84399-2.037-1.675-4.085-3.12-5.52 0.64401-2.397 1.526-4.555 2.4-6.72z" fill="#435052"/>
<path d="m340 180.68c-0.436 3.004-1.984 4.896-2.4 7.92 3.321 1.222 4.941 7.681 2.16 10.8-1.891-0.604-3.754-0.43799-6-0.23999-1.205 2.474-2.316 5.043-3.359 7.68-1.388-0.18799-2.052 0.34799-3.36 0.23999 3.315-9.084 7.068-17.731 10.8-26.4h2.159z" fill="#c61616"/>
<path d="m209.92 181.4c2.725 1.915 4.344 4.936 6.72 7.2-0.681 2.519-1.917 4.483-2.4 7.2-0.98999-1.867-6.135-5.26-6.48-7.92-0.29602-2.277 2.083-3.697 2.16-6.48z" fill="#85c6db"/>
</g>
<path d="m277.84 181.64c0.66101 0.459 1.221 1.019 1.68 1.68-0.29501 0.89899-0.979 2.882 0 3.6-1.711 0.439-2.176-3.488-1.68-5.28z" fill="#818181"/>
</g>
<g fill="#fff">
<g fill-opacity=".99">
<path d="m280.72 198.2c-3.873-0.23602-6.702 2.737-5.76 5.76-12.158 2.088-10.428-17.783 0.95996-14.4 3.029 0.899 5.193 3.761 4.8 8.64z" fill="#435054"/>
<path d="m353.92 190.04c-1.445 2.074-3.126 3.914-4.8 5.76-0.068024 0.73001 0.76898 0.93301 0.23999 1.44-1.406 0.46301-2.069-0.866-2.4-2.16 3.812 0.051025 3.927-5.885 6.96-5.04z" fill="#8e8e8e"/>
<path d="m217.36 189.8c2.889 2.471 4.882 5.838 7.68 8.4-0.836 2.604-1.95 4.93-2.64 7.68-1.355-1.059-2.388-2.772-3.84-4.56-1.049-1.292-3.414-3.097-3.6-4.56-0.29898-2.358 2.185-4.138 2.4-6.96z" fill="#85c6db"/>
</g>
<path d="m288.88 203.72c-2.755-0.52499-4.823-1.736-6.24-3.6 0.866-1.799 0.51798-5.32 0-7.2 3.642 0.042007 6.761-0.439 10.08-0.72 0.27899-0.039001 0.427 0.053009 0.48001 0.24-1.32 3.879-2.737 7.663-4.32 11.28z" fill="#8f8f8f"/>
<path d="m257.92 198.44c-2.028 0.74399-4.392-0.246-6.72 0-0.16901-1.671-0.69-2.99-0.72-4.8 4.855-1.229 5.055 2.923 7.44 4.8z" fill="#818181"/>
<g fill-opacity=".99" fill="#8e8e8e">
<path d="m357.52 196.04c-1.202 0.55899-2.406 1.115-4.32 0.95999-0.789-1.758 1.127-2.432 1.68-3.6 1.371 0.388 1.578 1.941 2.64 2.64z"/>
<path d="m349.84 197.72c1.136 5.446-1.035 14.085-0.23999 19.2-0.85101 0.049988-0.474-1.126-1.439-0.96002 0.020996-0.62 1.027-0.25299 0.72-1.2 0.18399-5.496 0.47-10.89 0.72-16.32 0.28-0.039001 0.202-0.43799 0.23898-0.72z"/>
<path d="m361.12 198.92c6.585 6.935 12.516 14.524 18.96 21.6-2.865-0.11798-5.616 0.45001-7.92-0.23999-2.721-0.814-5.091-6.287-7.2-7.92-2.832-0.046997-4.505-1.255-5.52-3.12-0.013-1.053 0.65302-1.426 0.95999-2.16-0.18799-1.093-1.297-1.264-1.681-2.16 0.58398-2.216 1.909-3.691 2.401-6z"/>
</g>
<path d="m248.08 199.4c3.421 0.098999 6.815 0.22501 10.08 0.48001 0.20401 1.716 0.99399 2.846 0.95999 4.8-3.283 0.237-6.506 0.534-9.84 0.72-0.23801-2.162-0.983-3.818-1.2-6z" fill="#818181"/>
<g fill-opacity=".99">
<path d="m280.72 200.12c1.324 2.516 3.405 4.275 6.48 5.04-1.985 1.375-3.672 3.048-5.04 5.04-2.286-2.194-4.206-4.754-5.76-7.68 0.676-1.564 1.885-2.595 4.32-2.4z" fill="#435052"/>
<path d="m355.6 200.6v1.2c-1.354 0.24503-2.217 0.98202-3.119 1.68-0.25198-1.344 0.93903-3.182 3.119-2.88z" fill="#8e8e8e"/>
<path d="m335.68 201.8c1.36-0.15997 2.182 0.21902 3.12 0.48001-0.84302 1.637-1.377 3.583-2.16 5.28-0.91702-0.362-1.994-0.565-2.88-0.95999 0.45499-1.786 1.305-3.176 1.92-4.8z" fill="#435052"/>
<path d="m347.68 201.8c-0.19702 4.283-0.39902 8.561-0.72003 12.72-4.21-1.517-6.524-8.256-3.6-12.72 1.699-0.25299 3.135 0.47101 4.32 0z" fill="#8e8e8e"/>
<path d="m354.64 203.96c1.343 0.897 2.404 2.076 3.601 3.12-0.146 0.73502-0.51001 1.25-0.71997 1.92 0.89099 2.948 3.023 4.656 6.479 5.04 1.683 2.237 3.788 4.052 5.28 6.48-6.079 2.336-13.383-0.31198-17.76-2.64-0.44098-3.589 0.030029-8.413 0.23901-12.72 0.93799 0.28 2.834 0.133 2.881-1.2z" fill="#435054"/>
</g>
<path d="m263.44 205.16c4.182-0.57501 6.406 11.294 1.68 11.76-4.195 0.41299-6.91-11.041-1.68-11.76z" fill="#818181"/>
<path d="m274 207.32c0.104-0.53702 1.183-0.097015 1.68-0.24002 0.095001 1.025 1.062 1.178 1.2 2.16-1.504-0.096985-1.853-1.348-2.88-1.92z" fill="#818181"/>
<path fill-opacity=".99" d="m548.8 209.48c-9.251 15.164-19.862 31.254-29.76 47.04-1.621 2.585-3.035 6.66-6 6.72-0.84503-2.474 1.479-4.401 2.64-6.24 3.6461-5.772 7.5081-12.181 11.28-18 0.84302-0.041992 0.789 0.811 1.44 0.95999 1.414-1.626 2.629-3.451 4.079-5.04-0.28101-0.99902-1.562-0.99802-1.6801-2.16 5.479-7.962 10.393-16.488 15.84-24.48 1.135-0.013 1.32 0.922 2.161 1.2z" fill="#b5b5b5"/>
<path d="m269.2 209.24c3.34 0.10001 3.97 2.91 6.24 4.08 3.617 0.177 6.491-0.38901 10.08-0.24002-0.45502 0.90601-0.73401 1.986-1.2 2.88-1.806-0.044983-2.948 0.57202-4.8 0.48001-0.83002 4.05-2.639 7.121-3.36 11.28 0.86697 0.436 2.648 0.007996 3.6-0.23999 0.48798 0.427-0.59702 1.31-0.48001 2.16-2.126 0.11398-4.736-0.25601-6.48 0.23999 1.077-4.683 2.711-8.809 3.6-13.68-1.951-2.77-5.903-3.538-7.2-6.96z" fill="#818181"/>
<path d="m339.76 209.96c0.311 0.64999 0.83402 1.086 0.95999 1.92-0.53998-0.38602-1.647-1.057-0.95999-1.92z"/>
<path fill-opacity=".99" d="m328.24 239c-0.34799-0.86401 1.723-2.843 2.16-4.08 3.157-8.938-3.303-19.394-6.72-23.28 4.08 0.010986 6.292-1.14 9.36-0.96002 10.234 0.599 14.62 21.204 6.96 26.64-2.913 2.067-7.481 0.694-11.76 1.68z" fill="#435054"/>
<path fill-opacity=".99" d="m323.2 239.48c-7.395-0.47699-11.984-9.743-12-18-0.009033-4.749 3.911-11.381 9.36-8.88 6.423 2.949 12.445 22.949 2.64 26.88z" fill="#e1e6e7"/>
</g>
<g fill="#a9a9a9">
<path d="m269.2 256.52c-1.183 2.429-2.154 6.31-4.56 6.72-1.678-5.198-6.963-7.177-10.08-11.04-2.218-2.75-2.982-6.388-5.04-9.6-5.306-4.374-11.397-7.962-13.92-15.12-5.004-3.556-10.98-6.139-12.96-12.72 1.932 0.31998 5.656-1.378 7.92-0.72 1.872 0.54401 2.358 3.877 3.84 5.52 1.738 1.927 4.958 2.431 6.96 4.32 1.74 1.643 2.736 4.552 4.56 6.72 2.9 3.448 7.76 5.445 10.32 8.64 2.287 2.854 3.188 6.852 5.28 9.84 2.285 3.265 5.497 4.456 7.68 7.44z"/>
<path d="m215.68 215.48c1.714 1.915 2.371 4.779 4.08 6.72 2.686 3.051 7.165 4.442 9.84 7.44 1.982 2.221 2.979 5.211 4.8 7.44 2.672 3.272 6.174 5.064 9.12 7.92 1.917 2.908 2.632 5.746 4.56 8.4 2.363 3.252 6.484 5.05 8.88 8.16 2.051 2.663 2.55 6.055 5.04 8.64 0.024994 2.426 0.12201 4.922-0.47998 6.721-3.489 1.389-6.047-3.071-7.92-6-1.64-2.564-2.865-5.041-4.56-7.2-1.865-2.376-6.004-4.877-7.68-6.96-1.803-2.241-3.09-6.547-5.04-9.12-2.661-3.51-7.458-5.614-10.32-9.12-2.093-2.563-3.043-5.297-4.8-7.68-5.766-3.994-11.43-8.09-14.4-14.88 3.283 0.16299 5.538-0.702 8.88-0.48099z"/>
</g>
<path d="m306.16 215.96c2.775 1.177 2.356 3.456 2.64 7.2 0.664 8.755 4.625 17.072 12.96 18.72-0.69202 1.788-1.625 3.335-2.4 5.04-5.54 1.5-8.039 6.042-10.08 11.04-2.071 0.449-3.25-1.872-4.08-3.12-2.789-4.193-5.676-8.694-8.64-12.96 3.08-8.759 6.582-17.098 9.6-25.92z" fill="#8f8f8f"/>
<path d="m251.44 277.88c-1.387-0.107-2.459 0.10098-3.6 0.23999-0.53799 1.622-1.04 3.279-1.68 4.8-7.483-5.078-10.691-16.508-19.2-21.36-1.352-3.608-3.773-6.147-5.04-9.84-2.996-1.804-5.183-4.417-8.16-6.24-2.67-3.642-3.324-6.785-6-10.08-2.783-3.427-7.955-4.37-10.8-7.44-1.255-1.354-1.923-3.634-2.88-5.28-0.99901-1.718-2.084-3.176-2.88-5.04 2.599-0.60101 6.075-0.32501 8.64-0.96002 2.383 1.99 2.82 5.242 4.56 7.68 2.229 3.123 7.529 4.92 10.56 8.16 2.57 2.748 3.876 6.966 6.24 9.6 2.661 2.965 7.267 4.606 9.6 7.68 1.971 2.597 2.627 6.066 4.32 8.88 2.413 3.146 5.879 4.374 8.4 7.44 1.909 2.322 2.708 5.669 4.56 8.16 0.97504 1.31 2.584 2.134 3.36 3.6z" fill="#a9a9a9"/>
<path d="m283.84 217.16c-0.936 3.225-2.332 5.988-3.36 9.12-0.87698 0.16299-1.745 0.33499-2.88 0.23999 0.879-3.041 1.993-5.848 2.88-8.88 0.92804-0.35202 2.386-0.17401 3.36-0.48001z" fill="#818181"/>
<path d="m152.56 231.56c0.20401-0.044006 0.227 0.093994 0.24 0.23999 27.159 37.121 53.449 75.366 80.88 112.56 0.74301 1.008 2.086 2.115 1.92 3.601-0.345 0.58301-1.748-1.958-2.4-2.88-26.405-37.31-54.22-75.301-80.88-112.56-0.102-0.50198 0.164-0.63599 0.23999-0.95999z" fill="#818181"/>
<g fill="#fff">
<path fill-opacity=".99" d="m318.4 248.36c-0.70196 3.271-4.296 6.25-2.4 11.04-1.318-0.83899-2.648-2.411-4.8-1.68 0.50601-5.015 3.941-7.1 7.2-9.36z" fill="#435052"/>
</g>
<path fill-opacity=".99" d="m321.04 267.08c4.733 5.19 16.198 8.147 24.24 5.041 0.504 1.924-0.28 4.043-0.72 5.76-6.572-5.788-19.489 4.917-13.2 10.56-3.81 1.169-8.784 0.21201-11.52-1.2 3.415-4.354 3.146-14.304 1.2-20.161z" fill="#435054"/>
<path fill-opacity=".99" d="m349.6 267.08c1.31 4 0.73801 10.51 0 14.64-1.301-0.61899-2.437-1.403-3.119-2.64 1.233-1.69 2.125-5.862 0.96002-8.4 1.02-0.89999 1.677-2.162 2.159-3.6z" fill="#435052"/>
<path d="m142.48 269.96c24.67 39.601 49.354 79.603 74.16 119.28 0.703 1.124 1.841 2.372 1.68 3.841-25.403-40.598-50.44-81.56-75.84-122.16v-0.96002z" fill="#818181"/>
<path fill-opacity=".99" d="m271.84 283.88c-3.896 0.11301-5.447-4.419-5.76-8.16-0.151-1.812 0.13-4.878 1.68-5.28 4.274-1.111 7.2 9.835 4.08 13.44z" fill="#ee6464">
<title>issLight</title>
</path>
<path fill-opacity=".99" d="m338.32 278.84c2.942-0.603 3.87 0.724 6 2.399 2.511 1.978 4.062 3.082 6 5.761 1.039 1.436 1.879 2.66 1.92 3.12 0.173 1.934-2.455 5.319-5.521 4.56-1.809-0.448-2.631-3.417-4.8-4.8-2.534-1.616-9.715-1.688-9.84-5.521-0.085999-2.653 4.263-5.115 6.241-5.519z" fill="#c61616"/>
<path d="m260.08 279.32c-0.83203 3.89-2.902 8.618-4.56 12.48-2.835-0.11502-5.259 0.181-7.68 0.479-1.844-4.31 0.815-8.255 1.68-12 3.658-0.18002 7.275-0.40302 10.56-0.95902z" fill="#2e2e2e"/>
<path d="m262.72 279.56c2.155 6.325 4.042 12.919 11.76 13.68-5.286 14.154-10.444 28.437-16.08 42.24-2.788-0.35702-6.237 2.237-8.88 1.92-2.956-0.354-3.904-4.211-6.48-5.52 6.46-17.539 13.174-34.826 19.68-52.32z" fill="#8f8f8f"/>
<g fill-opacity=".99">
<path d="m335.68 292.28c3.576 5.716-2.43 8.47-9.359 7.681-6.393-0.729-13.191-5.541-14.64-9.84 2.223-0.019989 5.105-0.65201 6.24-0.95999 4.218 3.184 12.742 1.148 17.759 3.119z" fill="#435054"/>
<g fill="#84c6dc">
<path d="m308.08 341c-1.586 0.414-3.02 0.979-4.56 1.439 0.60297-2.838 1.543-5.336 2.16-8.16 1.564-0.595 3.322-0.99698 4.8-1.68 0.58502 2.284-1.974 5.534-2.4 8.401z"/>
<path d="m298.72 333.08c1.838 0.401 3.816 0.664 5.76 0.96002-0.50497 3.255-1.503 6.016-2.4 8.88-2.023-0.13702-3.459-0.86102-5.52-0.96002 0.087006-2.649 1.75-5.758 2.16-8.88z"/>
<path d="m297.28 333.8c-0.677 2.683-1.471 5.249-2.16 7.92-2.058 0.422-3.509 1.45-5.52 1.92 0.69998-2.82 1.761-5.279 2.16-8.4 2.106-0.215 3.467-1.174 5.52-1.44z"/>
<path d="m285.04 334.52c1.844 0.31601 3.694 0.62701 5.52 0.96002-0.646 3.114-1.693 5.826-2.4 8.88-1.722-0.51798-3.715-0.76498-5.52-1.2 0.763-2.917 1.604-5.756 2.4-8.64z"/>
</g>
<path d="m242.8 334.76c1.929 1.751 3.805 3.555 5.76 5.28 2.716-0.72501 5.534-1.347 8.4-1.921-2.488 6.312-4.917 12.684-7.2 19.2-1.628-1.063-4.779-0.13599-4.56 2.88 0.10901 1.511 1.804 2.356 1.92 3.36 0.146 1.264-1.307 4.074-1.92 5.76-4.42 12.154-10.526 27.398-14.64 38.641-0.707-3.465-6.036-3.907-5.52 0.96002-0.927-0.048004-1.769-0.009003-2.4 0.23898-0.64101-1.444-0.46901-2.812-1.2-4.56-0.47601-1.135-2.022-2.268-2.16-3.36-0.213-1.681 1.939-5.864 2.88-8.399 6.946-18.712 14.153-40.597 20.64-58.08z" fill="#bababa"/>
<g fill="#84c6dc">
<path d="m283.12 335c0.58099 1.883-1.371 5.333-1.68 7.92-2.218 0.18198-3.61 1.189-5.28 1.92-0.19998-2.762 1.698-5.501 1.92-8.641 1.732-0.34601 3.284-0.875 5.04-1.199z"/>
<path d="m276.88 336.2c-0.772 2.988-1.623 5.898-2.4 8.881-1.87-0.050995-3.13-0.70999-4.8-0.961 0.548-3.212 1.478-6.042 2.4-8.88 1.834 0.086975 3.112 0.728 4.8 0.95999z"/>
<path d="m261.04 335.72c1.029 0.33099 2.062 0.65799 3.12 0.95999-0.72 3.04-1.782 5.738-2.4 8.88-0.539-0.58099-0.92401-1.315-1.44-1.92-0.582 0.13898-0.534 0.90598-0.72 1.44-1.154-0.12598-2.013-0.54797-2.88-0.961 0.849-2.111 1.854-4.065 2.4-6.479 1.455 0.17398 1.43-1.13 1.92-1.92z"/>
</g>
</g>
<path d="m247.6 358.52c0.20401-0.043976 0.22699 0.094025 0.23999 0.24002 35.156 49.229 70.845 98.848 106.32 148.56 0.67801 0.95001 3.205 3.983 2.16 5.04-1.062 1.073-2.9-2.846-3.601-3.84-26.07-37.041-52.519-73.33-78.72-110.4-6.511-9.212-13.587-18.942-20.64-28.8-1.773-2.478-6.492-7.842-6-9.84 0.098999-0.39902 0.19699-0.53101 0.241-0.96002z" fill="#818181"/>
<g fill="#fff">
<path d="m292.96 382.28c-0.16901 1.111-0.79098 1.77-0.95999 2.88-0.797-0.40201-0.81198-1.588-1.68-1.92 0.44101-0.76001 1.672-0.72803 2.64-0.96002z"/>
<path d="m241.6 384.92c1.322 0.357 1.447 1.913 2.4 2.64-0.70099 2.499-1.315 5.084-2.16 7.44-1.724-0.35599-1.497-2.663-2.88-3.36 1.037-2.083 1.827-4.413 2.64-6.72z"/>
<path d="m244.72 389.24c1.557 1.243 2.22 3.38 3.6 4.801-1.476 0.76398-3.5 0.979-5.04 1.68-0.18399-1.896 1.14-4.277 1.44-6.481z"/>
</g>
<path d="m227.2 407c0.388-0.067993 0.41301 0.22699 0.72 0.23901 30.545 51.461 63.026 102.98 93.84 154.56 0.629 1.053 3.044 3.248 1.2 4.8-0.48401 0.56305-0.96301-0.89899-1.44-1.68-29.701-48.655-58.843-97.728-88.8-146.88-1.972-3.236-5.745-8.328-5.52-11.04z" fill="#818181"/>
<g fill="#fff">
<path d="m371.92 491.24c-4.092 6.788-8.602 13.159-12.72 19.92-2.091-1.554 0.59201-3.729 1.439-5.04 3.204-4.954 6.757-10.648 9.841-15.6 0.92999-0.20801 0.854 0.586 1.44 0.72003z"/>
<g fill-opacity=".99">
<path d="m337.12 544.76c0.55402-0.074036 0.267 0.69299 0.72 0.71997-3.397 7.082-7.991 12.968-11.76 19.68-1.919-1.508 0.62299-3.504 1.44-4.8 3.073-4.876 6.478-10.768 9.6-15.6z" fill="#b5b5b5"/>
<path d="m321.76 569.24c0.56299 0.076965 0.53699 0.74298 0.95999 0.95996-3.742 6.019-6.919 12.602-11.52 17.76 0.633-3.729 3.047-6.523 4.8-9.359 1.914-3.0959 3.942-5.988 5.76-9.361z" fill="#b5b5b5"/>
<path d="m251.68 104.6h-1.68c1.162-2.598 2.233-5.287 3.12-8.16 2.539 1.861 3.859 4.941 6.24 6.96-1.488 0.67201-3.603 0.71701-5.76 0.72 1.667 3.693 3.612 7.108 5.52 10.56 0.37 0.12701 0.015015 0.25-0.23999 0.24-3.339-2.501-5.041-6.64-7.2-10.32z" fill="#85c6db"/>
<path d="m184 107.72c0.65601 0.518-0.562 1.182-0.72 1.68-0.48801-0.349 0.468-1.276 0.72-1.68z" fill="#429fc0"/>
<path d="m223.84 113.48c1.41 0.91 1.654 2.985 2.88 4.08-1.094 0.586-3.169 0.19101-4.32 0.72 0.003998-1.12 1.199-3.117 1.44-4.8z" fill="#85c6db"/>
<path d="m233.2-56.2c39.699 33.742 79.334 67.543 119.04 101.28-1.596 3.124-2.779 6.661-4.561 9.6-1.536 0.81-3.532 2.734-5.279 4.08 0.414 1.346 1.718 1.802 2.16 3.12-0.737 0.333-1.319-0.648-1.681-0.96-18.662-16.117-37.039-33.808-55.68-50.4-19.354-17.227-38.7-34.588-57.6-51.84 0.98001-5.181 2.606-9.715 3.601-14.88z" transform="translate(.0000012101 -.0000015166)" fill="#6b717d"/>
<g fill="#6b727d">
<path d="m228.16-35.8c37.25 33.712 74.835 67.082 111.6 101.28-2.061 5.539-4.188 11.012-6 16.8-36.61-34.907-72.853-70.19-108.96-105.6 1.171-4.108 2.094-8.465 3.359-12.48z" transform="translate(.0000012101 -.0000015166)"/>
<path d="m221.92-11.56c35.81 35.471 71.709 70.848 107.04 106.8-1.938 5.822-4.253 11.267-6 17.28-35.108-36.41-69.524-73.519-104.16-110.4 0.894-4.706 2.438-8.761 3.12-13.68z" transform="translate(.0000012101 -.0000015166)"/>
<path d="m217.36 7.88c34.675 36.526 69.262 73.135 103.44 110.16-2.016 5.424-3.86 11.02-6 16.32-24.455-27.389-50.613-56.316-75.6-84.96-6.11-7.004-12.262-13.895-18.96-21.36-1.716-1.913-5.784-5.802-6-7.2-0.22198-1.435 0.92801-4.129 1.44-6.24 0.66301-2.736 1.203-4.913 1.68-6.72z" transform="translate(.0000012101 -.0000015166)"/>
</g>
<path d="m544.24 208.52c-4.9 7.74-9.95 15.33-14.641 23.28-55.476-51.004-110.78-102.18-165.6-153.84 2.559-6.562 5.354-12.886 7.92-19.44 57.467 49.969 115.26 99.623 172.32 150z" transform="translate(.0000012101 -.0000015166)" fill="#6b717d"/>
<g fill="#6b727d">
<path d="m155.44 72.44c1.91 1.53 3.777 3.103 5.52 4.8-6.114 20.447-12.403 40.716-18.72 60.96-3.896-3.213-2.461-6.611-0.96001-12.24 3.369-12.631 6.768-25.427 10.08-37.92 1.457-5.498 3.155-10.427 4.08-15.6z" transform="translate(.0000012101 -.0000015166)"/>
<path d="m166.72 82.04c2.104 2.215 4.19 4.45 6 6.96-7.019 20.261-14.15 40.41-21.12 60.72-1.666-0.675-3.208-3.497-4.56-5.28 6.4-20.959 13.193-41.527 19.68-62.4z" transform="translate(.0000012101 -.0000015166)"/>
<path d="m525.76 237.56c-4.7371 7.343-9.277 14.883-14.16 22.08-0.55603 0.45697-1.631-0.91202-2.399-1.68-51.511-51.509-104.4-102.81-155.76-154.8 2.764-5.956 5.19-12.25 7.68-18.48 55.124 50.714 109.6 102.09 164.64 152.88z" transform="translate(.0000012101 -.0000015166)"/>
<path d="m205.84 99.32c-4.189 0.45099-7.233 2.047-8.88 5.04-0.94299 0.257-2.348 0.052002-3.12 0.48-1.502-2.497-4.516-4.046-4.8-7.2-0.38501-4.281 3.429-7.36 7.2-7.44 5.329-0.112 7 6.548 9.6 9.12z" transform="translate(.0000012101 -.0000015166)"/>
<path d="m177.04 95.48c2.128 2.192 4.154 4.486 6 6.96-7.28 19.679-15.081 38.838-22.32 58.56-1.708-1.732-2.995-3.885-4.56-5.76 6.852-20.028 14.071-39.689 20.88-59.76z" transform="translate(.0000012101 -.0000015166)"/>
<path d="m215.92 112.52c-5.779 0.461-8.496 3.984-11.04 7.68-1.533-1.087-2.792-2.537-3.12-4.32-1.83-9.919 12.565-12.515 14.16-3.36z" transform="translate(.0000012101 -.0000015166)"/>
<path d="m186.16 109.16c2.136 2.184 4.25 4.39 6 6.96-7.722 18.838-15.657 37.462-23.52 56.16-0.8-1.816-4.084-3.598-4.32-5.76-0.15701-1.441 1.846-5.067 2.64-7.2 6.003-16.118 13.478-35.341 19.2-50.16z" transform="translate(.0000012101 -.0000015166)"/>
<path d="m503.44 272.6c-4.36 8.119-9.458 15.502-13.92 23.521-49.753-54.003-99.605-107.92-149.28-162 2.457-6.422 5.044-12.715 7.439-19.2 0.21399-0.147 0.42999-0.29001 0.47998 0 52.012 52.308 103.29 105.35 155.28 157.68z" transform="translate(.0000012101 -.0000015166)"/>
<path d="m233.44 138.44c0.435 2.783 1.496 5.066 3.84 6.48 0.326-0.074005 0.199-0.601 0.24-0.95999 1.617 2.233-2.958 6.171-1.44 9.12-3.089-0.209-5.163 0.59799-8.16 0.48-0.70299-2.842-3.946-4.04-4.32-6.72-0.64002-4.581 4.713-8.28 9.84-8.4z" transform="translate(.0000012101 -.0000015166)"/>
<path d="m315.52 140.12c1.362 2.078 2.993 3.887 4.08 6.24 3.51-0.33 7.099-0.58099 10.8-0.72-14.354 37.888-28.747 75.731-42.96 113.76-5.698 0.54199-11.576 0.90302-17.52 1.2 15.235-40.126 30.429-80.289 45.6-120.48z" transform="translate(.0000012101 -.0000015166)"/>
<path d="m337.6 140.6c49.551 53.415 99.487 107.71 148.08 161.28-4.129 7.631-8.785 14.734-13.199 22.08-47.409-54.833-94.809-109.67-142.08-164.64 2.369-6.27 4.951-12.329 7.199-18.72z" transform="translate(.0000012101 -.0000015166)"/>
<path d="m131.68 159.08c1.307 0.93401 1.883 2.597 3.12 3.6-7.582 16.979-15.144 33.976-22.56 51.12-0.151-2.285-2.502-4.729-2.4-7.2 0.051003-1.24 1.722-4.053 2.64-6 6.159-13.058 13.524-29.352 19.2-41.52z" transform="translate(.0000012101 -.0000015166)"/>
<path d="m266.08 167.48c-1.208-0.007996-2.281 0.119-2.88 0.72-0.15802 1.558 1.61 3.161 2.16 4.8-0.96997 1.59-3.281 1.839-4.32 3.36 1.213 2.547 7.097 0.423 9.84 1.44 2.03 2.37 3.857 4.942 3.84 9.36-6.475-0.43001-10.597 3.451-10.8 10.08-4.757 0.453-5.753-2.077-8.16-5.04-2.559-3.15-3.003-5.771-8.4-6-1.92-3.2-4.282-5.958-6.48-8.88-3.025-6.53 2.616-15.269 8.64-17.52 3.545-1.325 9.195-1.334 12 0.72 2.13 1.56 2.686 4.716 4.56 6.96z" transform="translate(.0000012101 -.0000015166)"/>
<path d="m138.64 167.72c1.168 1.632 2.535 3.065 3.6 4.8-7.383 19.497-15.794 37.966-23.28 57.36-0.56799-1.975-3.004-3.979-3.12-6.24-0.084-1.633 1.937-4.672 2.88-6.96 6.51-15.803 13.769-34.382 19.92-48.96z" transform="translate(.0000012101 -.0000015166)"/>
<path d="m145.84 177.08c1.533 1.827 3.177 3.543 4.32 5.76-7.044 19.996-13.945 40.135-20.64 60.48-1.206-1.721-4.551-3.266-4.8-5.52-0.16-1.447 1.829-5.328 2.64-7.68 5.879-17.054 13.071-37.191 18.48-53.04z" transform="translate(.0000012101 -.0000015166)"/>
<path d="m153.76 188.84c1.028 1.882 4.011 3.537 4.32 5.76 0.24199 1.742-1.481 5.36-2.16 7.68-5.002 17.105-9.734 36.46-14.64 52.56-0.713 0.58801-1.591-1.184-2.4-1.92-0.996-0.90701-2.32-1.49-2.88-2.4 5.683-20.796 12.146-40.814 17.76-61.68z" transform="translate(.0000012101 -.0000015166)"/>
<path d="m343.36 215.72c6.049 3.721 14.009 9.866 25.2 7.68-7.464 15.256-15.084 30.356-22.561 45.6-8.557 4.849-21.637 0.34399-25.92-6.96-1.011-1.724-2.008-4.421-1.92-6.24 0.11102-2.293 1.837-5.041 2.88-7.2 1.086-2.25 2.501-4.33 3.36-6.72 5.181-1.056 10.207-0.30801 14.4-1.44 9.043-2.441 9.063-17.486 4.561-24.72z" transform="translate(.0000012101 -.0000015166)"/>
<path d="m157.36 218.12c28.241 36.88 56.035 74.203 84.24 111.12-0.92401 1.479-1.165 3.081-0.95999 4.561-1.385 3.734-2.667 7.573-4.08 11.28-25.358-34.322-51.344-71.729-77.28-107.04-1.598-2.175-4.821-5.816-5.04-7.2-0.395-2.496 3.153-9.982 3.12-12.72z" transform="translate(.0000012101 -.0000015166)"/>
<path d="m152.8 236.12c27.461 37.898 54.572 76.15 81.84 114.24-1.374 5.026-3.769 9.031-5.52 13.681-26.755-38.766-52.737-78.303-79.2-117.36 1.092-3.389 1.716-7.244 2.88-10.561z" transform="translate(.0000012101 -.0000015166)"/>
<path d="m147.28 257.96c24.584 35.965 48.262 74.237 72.96 111.12 1.356 2.025 4.653 5.738 4.8 7.199 0.17999 1.791-1.803 5.194-2.64 7.2-1.058 2.534-2.488 4.683-2.88 6.72-25.248-39.954-50.13-80.267-75.12-120.48 0.968-3.912 2.127-7.633 2.88-11.76z" transform="translate(.0000012101 -.0000015166)"/>
<path d="m370.48 286.76c-5.569 0.11099-10.926 0.435-16.561 0.479-1.582-1.217-2.554-3.046-3.6-4.8 1.304-2.971 1.465-7.343 1.2-12-0.10297-1.797-0.83997-3.574-0.72098-5.04 0.22299-2.723 2.424-4.393 2.88-6.48 4.038-0.117 7.634 0.15799 11.04 0 1.38-0.063995 2.915-0.59702 4.32-0.24002 4.952 1.255 8.199 11.06 7.2 19.2-0.54401 4.446-3.211 6.827-5.758 8.881z" transform="translate(.0000012101 -.0000015166)"/>
<path d="m279.04 290.6c-0.20297-1.033 1.277-2.294 1.92-3.84 3.141-7.549-0.67502-20.351-5.76-23.76 9.146-1.017 17.712-1.79 27.36-2.4 2.898-0.18301 6.607-1.01 9.12-0.72 7.003 0.81 10.499 17.766 6.96 24.72-2.199 4.322-12.884 3.562-19.2 4.08-7.682 0.63101-13.911 1.331-20.4 1.92z" transform="translate(.0000012101 -.0000015166)"/>
</g>
<path d="m142.96 275c24.915 39.886 49.472 80.126 74.4 120-1.773 4.467-3.81 8.67-5.52 13.199-21.884-36.837-44.938-76.278-67.2-114.24-1.369-2.334-4.149-6.084-4.32-7.681-0.24101-2.253 2.678-8.383 2.64-11.279z" transform="translate(.0000012101 -.0000015166)" fill="#6b717d"/>
<g fill="#6b727d">
<path d="m310.24 290.36c3.406 6.877 13.443 13.139 24 9.84-0.939 4.051-3.459 7.419-5.28 11.04-1.921 3.821-3.935 11.682-8.88 12.48-7.386 1.192-17.348-4.36-20.16-9.36-3.169-5.636-0.06897-10.531 2.4-15.6 1.475-3.028 3.199-6.26 4.56-8.16 0.83002-0.36899 2.187-0.211 3.36-0.23999z" transform="translate(.0000012101 -.0000015166)"/>
<path d="m260.56 348.2c36.371 46.906 72.092 94.472 108.24 141.6-3.79 6.289-7.977 12.183-11.76 18.479-34.571-47.989-68.872-96.247-103.2-144.48 2.083-5.357 4.604-10.277 6.72-15.601z" transform="translate(.0000012101 -.0000015166)"/>
<path d="m251.2 369.32c34.28 47.958 68.537 95.949 102.48 144.24-3.937 5.583-7.495 11.544-11.279 17.28-32.641-48.722-65.084-97.631-97.68-146.4 1.923-5.276 4.464-9.935 6.48-15.12z" transform="translate(.0000012101 -.0000015166)"/>
<path d="m239.44 396.92c32.169 48.788 63.66 98.26 95.76 147.12-3.501 6.26-7.53 11.99-11.04 18.24-30.499-49.979-60.834-100.13-91.2-150.24 2.073-5.128 4.21-10.189 6.48-15.12z" transform="translate(.0000012101 -.0000015166)"/>
</g>
<path d="m230.32 418.04c30.5 49.419 60.38 99.46 90.48 149.28-3.523 5.757-6.837 11.723-10.8 17.04-26.391-46.325-53.244-95.38-80.4-142.56-1.518-2.638-5.173-7.26-5.28-9.36-0.089005-1.757 1.852-4.618 2.88-6.96 1.322-3.011 2.214-5.365 3.12-7.439z" transform="translate(.0000012101 -.0000015166)" fill="#6b717d"/>
<path d="m215.68 147.08c-1.299-0.85001-2.293-2.278-3.12-3.6-2.413-3.86-4.829-8.374-7.68-12.24-1.051-9.977 5.772-18.188 16.56-16.32-1.539 4.941-3.352 9.608-5.04 14.4 0.32101 0.959 0.91602 1.644 1.2 2.64 2.578 0.12299 6.211-0.62901 9.12-0.96001h0.48c-6.256 2.791-11.687 7.665-11.52 16.08z" fill="#6b727d"/>
</g>
</g>
<path fill="#2b5460" d="m231.76-61h1.68c29.816 25.481 61.557 52.458 92.16 78.48 7.501 6.379 15.098 13.122 22.8 19.68 2.307 1.964 7.191 4.674 7.439 6.96 0.20902 1.921-1.527 4.57-2.399 6.48-1.078 2.359-2.266 4.32-2.88 6.24 2.231 2.18 5.032 4.417 6.72 6.96 0.22501 0.339 0.78 0.221 0.95999 0.48 0.634 0.917 1.43 2.394 1.68 3.36 0.40701 1.571-0.46997 4.768 1.2 6 0.845-0.087997 0.922-1.266 1.2-1.92 1.164-2.736 2.2-5.346 3.359-8.16 0.93402-2.264 2.761-9.401 5.28-9.84 1.718-0.299 4.3 2.826 5.76 4.08 5.843 5.016 11.223 9.76 16.801 14.16 2.716-1.841 6.881-0.222 10.079 0.23999 2.863-0.80899 7.029-4.127 9.36-1.2-0.45902 5.621-3.103 9.058-4.08 14.16 44.441 39.639 91.168 79.073 136.32 118.8 2.589 0.62601 5.891 1.69 6.479 3.84 0.78302 2.858-2.269 5.785-3.6 7.92-4.541 7.283-9.28 14.846-13.44 21.36-6.511 10.196-11.923 20.137-18.239 28.32-1.962 0.11502-3.302 1.504-5.04 0.72-1.043-0.47-1.675-2.926-2.4-3.84-4.269-5.377-10.576-10.096-15.84-15.36-36.277-36.276-74.483-73.696-109.92-109.44-1.959 0.36101-3.291 1.349-5.28 1.68 2.056 2.944 4.683 5.643 7.2 8.16 18.833 18.833 37.196 37.917 55.92 56.64 21.459 21.459 42.479 43.463 63.6 65.04 2.032-0.027008 5.6949 2.215 6 4.319 0.30597 2.108-2.3831 5.623-3.6 7.681-7.294 12.33-14.099 23.31-21.36 35.04-1.775 2.868-6.032 12.278-9.12 13.68-0.91 0.41299-2.838 0.86899-3.6 0.72-1.805-0.354-1.844-2.831-2.88-4.319-1.525-2.191-3.944-4.091-5.76-6.24-25.66-30.38-52.231-61.064-78.24-90.72-1.783-2.033-3.433-5.488-6.72-5.52-0.638 1.904-1.146 3.967-3.601 4.32-2.095 0.301-4.09-0.44-4.56-2.64-4.916 9.963-9.856 19.903-14.88 29.76 4.886 0.16501 10.167-1.167 14.16 0 3.894 1.139 7.624 6.944 8.88 12.48 2.177 9.6-1.368 20.048-8.16 22.08-4.901 1.467-8.681-0.016998-15.601 0.72-1.077 4.503-4.079 7.793-8.88 7.44-3.072-0.22598-4.551-2.55-6-4.08-0.24097-0.255-0.44498-1.134-0.95996-0.72 0.49896 0.86099 0.125 2.595 0.23999 3.84-2.689 5.201-4.933 9.453-7.439 14.64-2.022 4.183-4.269 11.552-8.161 13.92-8.715 5.304-24.244-3.14-27.84-9.84-1.163-2.167-2.294-6.318-1.92-9.12 0.46799-3.508 3.813-8.428 5.28-11.279 0.52301-1.019 1.583-2.199 1.2-3.36-7.938 0.46201-15.575 1.225-23.28 1.92-4.273 11.034-8.889 23.149-12.96 34.08-0.55902 1.498-1.636 3.175-1.2 4.8 2.198 1.602 5.186-1.11 8.16-1.2 1.778-0.054016 3.913 1.022 6 0.95999 2.327-0.069 4.611-1.622 6.96-1.68 2.181-0.054016 4.172 1.372 6.24 1.2 1.98-0.16498 4.479-2.258 7.44-2.4 2.217-0.10599 4.712 1.136 6.96 0.95999 2.464-0.19199 6.512-3.525 8.64-1.68 1.819 1.577-0.655 5.707-1.2 7.2-1.066 2.923-1.692 5.086-2.88 7.199-2.967 0.31198-4.631 2.508-7.92 2.641-2.3 0.092987-4.639-1.423-6.96-1.2-2.522 0.242-4.913 2.571-7.44 2.64-2.204 0.061005-4.335-1.567-6.48-1.439-2.403 0.14398-4.338 2.058-6.72 2.16-3.262 0.13898-6.106-2.268-9.12-0.24002 7.336 10.343 15.799 21.641 24.24 31.68 1.922-0.46701 3.901-1.924 6.24-1.2 2.075 2.407-0.61801 5.544-1.2 8.16 25.062 33.5 50.75 66.368 75.84 99.84 2.151 0.789 4.453 2.263 4.56 4.561 0.072021 1.545-2.1 3.998-3.36 6-7.428 11.798-14.605 22.521-22.08 34.08-2.097 3.243-3.152 6.541-7.68 6-1.704-0.83997-1.616-2.906-2.399-4.32-3.198-5.77-7.729-11.139-11.521-16.8-26.6-39.725-52.578-79.848-79.44-118.8-1.019 0.42099-2.218 0.66098-3.36 0.95999 1.221 3.147 3.18 5.992 5.04 8.88 26.648 41.381 53.991 82.902 80.88 124.08 1.976 3.024 3.404 6.685 5.52 9.119 1.528 1.759 4.745 2.767 4.561 5.761-0.075012 1.223-2.236 3.927-3.36 5.76-6.08 9.921-11.353 18.372-17.52 28.32-1.463 2.359-5.004 9.975-7.68 10.8-4.456 1.374-4.088-1.647-5.28-4.32-1.39-3.115-3.72-6.196-5.52-9.359-5.469-9.612-10.909-19.666-16.32-29.04-20.193-34.984-40.114-70.48-60-105.84-1.534-2.727-5.238-7.998-5.28-9.84-0.022003-0.94702 1.112-2.997 1.68-4.319 1.92-4.472 3.978-8.905 5.52-12.96-0.696-0.98398-1.542-1.819-1.92-3.12-1.436 0.211-3.518 0.897-5.04 0.24002-2.544-1.296-0.97-6.711-3.6-7.921-1.416 3.385-2.265 7.336-5.04 9.36-2.535-1.747-3.73-4.598-5.28-7.2-22.111-37.116-43.675-74.555-65.76-111.84-1.487-2.51-4.202-6.464-4.32-8.399-0.118-1.934 1.088-4.268 1.68-6.48 0.47899-1.79 1.663-5.356 1.68-6.72 0.018005-1.425-0.885-2.652-0.72-3.84 0.214-1.544 1.709-2.319 2.4-3.84 1.055-2.321 0.771-4.338 1.68-6.24-0.7 0.444-1.952 0.70602-2.88 0.24002-1.512-2.934-7.647-5.219-8.16-8.64-0.261-1.738 1.042-4.768 1.68-6.96 1.94-6.659 4.769-14.575 5.76-20.4-1.319 4.275-2.683 8.077-4.32 12.72-0.811 2.3-2.689 11.443-5.28 11.76-2.361 0.289-3.735-2.89-5.04-4.32-1.418-1.554-4.137-3.054-4.32-5.28-0.117-1.417 1.263-3.999 1.92-6 1.987-6.045 4.498-12.172 6.24-17.52-0.013-0.25198-0.30801-0.18799-0.24 0.24002-1.534 3.185-2.663 6.61-4.32 10.56-0.8 1.909-2.934 9.536-5.76 9.36-1.806-0.11301-3.089-3.707-3.84-5.28-1.206-2.526-1.85-4.217-2.88-6.24 0.49099-1.512 1.725-3.551 1.68-4.8-0.575 0.827-2.008 0.815-3.12 0.48001-2.167-3.673-2.733-8.947-4.32-13.2 7.456-16.064 14.726-32.314 22.32-48.24-0.70499-2.304-1.968-3.56-1.2-5.76 0.66901-1.915 4.394-3.48 6.72-2.88 0.925 0.239 2.192 2.153 3.12 3.36 2.777 3.615 6.115 8.318 8.64 10.8 0.839-1.001 1.227-2.453 2.16-3.36-3.604-5.516-8.107-10.133-12-15.36-0.018997-2.515-3.455-7.198-3.12-9.84 0.252-1.992 3.166-3.948 4.08-6 1.824-4.095 2.838-9.849 4.32-15.36 3.581-13.318 6.727-25.596 10.32-38.88 0.614-2.27 1.017-6.312 3.36-6.48 2.068-0.14801 3.711 2.425 4.8 3.36 1.873 1.608 3.391 2.88 4.56 3.84 0.426 0.454 0.17499 1.585 0.23999 2.4 3.437-1.444 5.525 2.411 7.68 4.8 2.406 2.667 5.245 5.009 3.84 8.4 3.064-0.8 3.308 3.7 4.8 2.88 0.216-10.01 15.923-16.438 22.56-8.88 1.805-1.861 3.688-3.256 5.76-5.52 1.419-1.549 3.468-5.47 6.24-5.04 1.668 0.25801 2.692 2.912 3.36 3.84 0.888 1.233 2.757 2.804 2.64 4.56-0.153 2.287-4.51 5.07-6.48 6.96-2.469 2.369-5.107 4.475-6.72 6.72 1.491 1.869 3.079 3.642 3.12 6.96 3.472 1.118 5.563 2.931 7.2 5.52 0.576 0.911 0.61401 2.91 2.64 2.16-0.042007-0.59099-1.31-3.016-0.24-4.32 1.995-2.431 10.702-0.5 13.92-1.92 1.667-3.881 2.857-7.437 4.56-12 0.94-2.521 2.985-10.731 5.76-10.8 1.637-0.041 3.631 3.117 4.8 4.56 3.148 3.886 5.593 6.772 8.64 10.56 1.188 1.477 3.078 4.67 4.56 5.04 1.852 0.463 3.43-0.87401 4.8-0.24 2.015 2.065 3.399 4.761 4.8 7.44 2.164 1.764 5.244 2.742 7.2 4.8 1.903 2.002 2.962 5.276 5.04 7.68 3.067 3.55 8.225 5.931 10.8 9.6 2.291 3.263 3.229 7.382 5.76 10.56 1.705-3.655 1.251-9.469 7.2-8.88-30.5-33.568-61.5-70.476-92.64-104.4-1.983-2.16-5.625-5.611-5.76-7.44-0.138-1.869 1.367-4.913 1.92-7.2 0.67-2.768 1.214-5.229 1.68-7.44-1.394-1.777-0.72198-6.837 1.92-7.44 1.86-2.738 1.504-15.46 5.76-15.36 1.781 0.042 5.39 4.43 7.2 6.24 32.721 32.721 65.357 64.877 97.68 97.2 1.116 1.117 2.042 2.849 3.12 2.64 0.78201-1.298 1.094-3.066 1.68-4.56-32.463-32.889-69.851-67.21-103.44-100.8-2.176-2.176-6.402-5.168-6.72-6.96-0.28-1.579 1.043-4.771 1.68-7.2 0.586-2.234 1.84-4.929 1.92-6.96 0.059998-1.518-0.815-2.723-0.48-4.32 0.302-1.435 1.685-2.152 2.4-3.12 1.507-4.195 2.299-13.82 5.282-16.565zm-2.16 19.68c18.9 17.252 38.246 34.613 57.6 51.84 18.641 16.592 37.018 34.283 55.68 50.4 0.36099 0.312 0.94299 1.293 1.681 0.96-0.44199-1.318-1.746-1.774-2.16-3.12 1.747-1.346 3.743-3.27 5.279-4.08 1.781-2.939 2.965-6.476 4.561-9.6-39.707-33.737-79.342-67.538-119.04-101.28-0.995 5.165-2.621 9.699-3.6 14.88zm4.8 8.64c2.611 2.432 5.121 4.592 7.2 6.48 31.43 28.544 62.311 56.63 93.6 84.48 2.378 2.117 4.37 5.728 8.16 5.76-37.333-34.256-77.43-70.375-115.92-104.4 0.24399 2.616 4.558 5.443 6.96 7.68zm-9.6 9.36c36.106 35.41 72.35 70.692 108.96 105.6 1.812-5.788 3.939-11.261 6-16.8-36.765-34.198-74.35-67.567-111.6-101.28-1.264 4.015-2.187 8.372-3.359 12.48zm-6 25.44c34.636 36.881 69.051 73.99 104.16 110.4 1.747-6.013 4.062-11.458 6-17.28-35.33-35.952-71.229-71.329-107.04-106.8-0.68199 4.919-2.226 8.974-3.12 13.68zm100.32 109.44c-33.583-36.683-68.529-72.443-102.24-108.72-0.013-0.252-0.30801-0.188-0.24 0.24-0.013992 0.146-0.035995 0.284-0.24 0.24 7.956 9.968 17.312 18.835 26.16 28.32 21.999 23.583 43.84 47.676 66.24 70.56 3.84 3.923 7.702 8.612 11.52 12.24-0.018005-0.016998 0.84601 2.153 1.44 0.72 0.21899-1.786-1.692-2.564-2.64-3.6zm-103.44-96.96c-0.51199 2.111-1.662 4.805-1.44 6.24 0.216 1.398 4.284 5.288 6 7.2 6.698 7.465 12.85 14.356 18.96 21.36 24.987 28.644 51.146 57.571 75.6 84.96 2.14-5.3 3.984-10.896 6-16.32-34.178-37.025-68.765-73.634-103.44-110.16-0.477 1.807-1.017 3.984-1.68 6.72zm138.24 50.16c-2.766-1.794-4.765-4.355-7.2-6.48-0.065979 0.493-0.64099 0.479-0.95999 0.72 1.133 3.2 4.314 2.682 3.601 7.2-1.566 0.594-4.47-0.14899-6 0.48 1.137 1.664 2.792 2.808 3.84 4.56 3.344-0.096008 7.097 0.217 9.6-0.72-0.05899-2.582-1.633-3.647-3.12-4.8 0.134-0.49 0.72198-0.471 0.23901-0.96zm18-6.24c-2.565 6.554-5.361 12.878-7.92 19.44 54.823 51.659 110.12 102.84 165.6 153.84 4.69-7.95 9.74-15.54 14.641-23.28-57.059-50.377-114.85-100.03-172.32-150zm-52.319 69.6c-0.91702 2.551-3.018 7.168-2.88 8.88 0.17999 2.244 2.792 3.712 3.6 5.76 8.661-23.339 17.167-46.833 25.68-70.32-1.481-1.719-2.754-3.646-4.56-5.04-6.359 18.855-14.807 41.148-21.84 60.72zm-168.24-40.08c-3.312 12.493-6.711 25.289-10.08 37.92-1.501 5.629-2.936 9.027 0.96001 12.24 6.317-20.244 12.606-40.513 18.72-60.96-1.743-1.697-3.61-3.27-5.52-4.8-0.925 5.173-2.623 10.102-4.08 15.6zm196.56-14.88c-8.889 23.271-17.332 46.987-25.92 70.56 2.906 0.105 5.327-0.272 7.92-0.48 0.18799-2.866 3.217-5.458 2.88-7.92-0.271-1.98-2.864-2.149-3.359-4.32 0.53699-2.162 0.728-4.155 2.64-4.32 1.653-0.14299 2.413 2.078 3.36 1.68 6.421-16.619 12.741-33.339 18.96-50.16-1.673-0.933-2.803-2.861-1.681-5.28-1.652 0.028-3.488-0.129-4.8 0.24zm11.281 6.96c5.739 5.353 11.199 10.5 16.32 15.36 21.9 20.788 43.934 40.671 65.279 60.96 14.468 13.751 29.332 27.072 43.92 40.32 14.88 13.513 28.749 27.811 43.681 40.56 0.32495-0.875 1.214-1.186 1.439-2.16-1.175-2.002-3.13-3.492-4.8-5.04-12.874-11.928-25.481-23.851-38.4-35.52-14.634-13.218-29.282-26.729-43.68-40.56-14.001-13.451-29.143-26.595-43.68-40.56-6.933-6.66-14.819-12.9-22.08-20.16-3.232-3.232-6.812-6.761-10.8-10.32-3.573-3.188-8.592-8.138-11.521-9.84-2.763 2.344 2.091 4.88 4.322 6.96zm50.16-5.76c-1.774-0.171-3.857 1.421-6 1.68-0.41299 1.907-0.89099 3.75-1.44 5.52 1.453 0.70801 1.994 2.326 3.84 2.64 1.562-2.918 2.477-6.483 3.6-9.84zm-14.401 1.2c2.135 1.545 3.974 3.386 6 5.04 0.35397-1.646 0.866-3.134 1.2-4.8-2.476-0.295-5.403-1.989-7.2-0.24zm-190.32 12.96c-0.927 0.924-3.408 1.993-1.92 3.6 3.559-2.769 7.193-6.998 10.56-10.08 1.088-0.99699 3.562-2.101 1.68-3.84-3.662 2.664-7.106 7.114-10.32 10.32zm149.04-1.2c1.187 0.33299 1.94 1.1 3.36 1.2 0.65302-1.987 1.671-3.609 2.16-5.76-0.99802-0.842-1.851-1.83-2.88-2.64-1.067 2.213-1.899 4.661-2.64 7.2zm-146.88 2.88c-1.613 1.558-4.265 3.006-2.16 4.32 4.836-3.644 8.842-8.119 13.2-12.24-0.56599-0.394-0.68399-1.236-1.2-1.68-2.53 2.39-6.743 6.608-9.84 9.6zm-59.76 54.24c1.353 1.783 2.894 4.605 4.56 5.28 6.97-20.31 14.102-40.458 21.12-60.72-1.81-2.51-3.896-4.745-6-6.96-6.487 20.873-13.28 41.441-19.68 62.4zm214.08-59.76c-2.489 6.23-4.916 12.524-7.68 18.48 51.362 51.99 104.25 103.29 155.76 154.8 0.76898 0.768 1.844 2.136 2.399 1.68 4.883-7.197 9.423-14.737 14.16-22.08-55.042-50.792-109.52-102.17-164.64-152.88zm-176.4 6.72c-0.724 2.071-0.41101 5.445 1.92 6.24 0.030991-7.403 7.7-11.674 14.64-8.4-2.32-7.874-14.739-3.049-16.56 2.16zm57.12 4.8c2.168 3.032 4.622 5.778 7.2 8.4 0.79901-3.441 2.429-6.051 3.36-9.36-2.25-2.871-4.491-5.749-6.96-8.4-1.188 3.132-2.257 6.384-3.6 9.36zm-45.6-6c-3.771 0.080002-7.585 3.159-7.2 7.44 0.284 3.154 3.298 4.703 4.8 7.2 0.772-0.42799 2.177-0.22299 3.12-0.48 1.647-2.993 4.691-4.589 8.88-5.04-2.6-2.572-4.271-9.232-9.6-9.12zm149.76 19.92c0.245-0.55499 1.104-0.49699 1.92-0.48 4.827 3.974 8.729 8.871 13.2 13.2 2.697-0.031998 4.995 1.989 7.44 0.72-4.193-4.821-9.756-9.996-14.641-14.88-1.314-1.315-4.484-3.586-4.56-5.28-0.084015-1.892 2.034-4.346 2.88-6.48 0.427-1.077 0.78699-2.542 1.2-3.6 0.26999-0.694 1.87-2.733 0-2.88-2.474 5.446-5.474 13.725-7.439 19.68zm-189.84 45.12c1.565 1.875 2.852 4.028 4.56 5.76 7.239-19.722 15.04-38.881 22.32-58.56-1.846-2.474-3.872-4.768-6-6.96-6.809 20.071-14.028 39.732-20.88 59.76zm102.72-40.32c0.255 0.009995 0.60901-0.11299 0.23999-0.24-1.908-3.451-3.853-6.867-5.52-10.56 2.157-0.002991 4.272-0.047989 5.76-0.72-2.381-2.019-3.702-5.099-6.24-6.96-0.88699 2.873-1.958 5.562-3.12 8.16h1.68c2.159 3.68 3.861 7.819 7.2 10.32zm-19.921-9.36c2.766-0.354 6.042-0.199 8.4-0.95999-2.465-1.774-3.658-4.822-6.24-6.479-0.49002 2.592-2.453 4.845-2.16 7.439zm-40.319-1.92c0.58101 1.979 0.54399 4.576 0.96001 6.72 2.101-2.539 3.917-5.363 7.92-6 0.074005-1.206-0.27699-2.837 0.48001-3.36-3.81-1.41-7.111 0.98399-9.36 2.64zm-12.48 2.16c1.734-0.186 2.36-1.48 3.12-2.64-1.115-0.15001-2.199 1.798-3.12 2.64zm2.88-0.24c0.57498-0.145 1.095-0.345 1.92-0.23999-0.028992-0.61101-0.34999-0.931-0.95999-0.96001-0.16299 0.55701-0.798 0.642-0.95999 1.2zm68.16 0.96001c1.742 1.693 2.002 4.636 3.6 6.48 2.42 2.793 7.735 4.537 10.08 7.2 1.704 1.935 2.288 5.249 4.08 7.44 2.948 3.605 7.799 5.734 10.32 9.12 2.323 3.12 3.223 7.198 5.52 10.32 2.101 2.855 5.494 4.548 7.68 7.44 2.297 3.039 3.297 6.215 5.76 9.12 0.414-3.668 3.735-6.574 3.36-9.84-0.215-1.878-2.972-3.741-4.32-5.04-1.857-1.789-3.444-3.252-5.04-4.56-1.481-4.119-4.004-7.196-5.52-11.28-1.936-1.204-3.356-2.898-5.04-4.32-1.612-1.361-3.74-2.619-5.28-4.32-2.193-2.421-3.19-6.006-5.52-8.16-1.965-1.816-4.84-2.374-6.72-4.32-1.25-2.03-2.355-4.205-3.6-6.24-3.251 0.189-6.637 0.244-9.36 0.96001zm-68.64 1.44c1.276 1.875 6.589 0.446 8.16-0.48001v-0.72c-2.832 0.28801-5.188 1.052-8.16 1.2zm13.2 7.92c0.32898 1.783 1.587 3.232 3.12 4.32 2.544-3.696 5.261-7.218 11.04-7.68-1.595-9.155-15.99-6.559-14.16 3.36zm39.36-8.16c2.016 2.51 2.83 6.284 5.04 8.64 2.608 2.781 7.451 4.77 9.84 7.44 2.184 2.44 3.09 5.903 5.04 8.4 3.054 3.91 7.413 5.632 10.56 9.36 2.488 3.323 3.1 7.052 5.52 10.32 2.271 3.066 5.979 4.911 8.16 7.92 3.527 4.869 5.447 10.758 10.32 14.64 1.564-0.196 2.971-0.549 4.8-0.48 0.10702-1.493 1.037-2.163 1.2-3.6-4.15-3.749-5.167-9.232-8.4-13.44-2.396-3.119-6.196-5.1-8.64-8.4-2.135-2.883-3.178-6.017-5.04-9.36-3.04-3.398-7.24-5.143-10.08-8.88-1.827-2.404-2.555-5.67-4.56-7.92-2.692-3.02-7.326-4.579-10.08-7.92-1.941-2.355-2.632-4.884-4.56-7.44-3.444-0.164-5.754 0.80701-9.12 0.72zm-57.84 1.68c0.158-0.498 1.376-1.163 0.72-1.68-0.252 0.40399-1.208 1.331-0.72 1.68zm101.04 61.68c-1.847-2.573-2.529-6.118-4.56-8.88-2.398-3.26-6.633-4.905-8.88-8.16-2.007-2.907-2.899-6.449-4.56-9.6-2.886-3.226-6.906-5.075-10.32-8.88-2.561-2.854-3.652-6.897-6.24-9.84-3.173-3.608-8.363-5.113-10.8-8.4-1.44-1.943-2.744-8.167-5.04-8.88-2.733-0.849-6.528 1.708-9.12 0.95999 1.673 4.086 4.321 7.199 6 11.28 3.885 2.355 7.28 5.2 11.04 7.68 2 4.08 4.699 7.461 6.72 11.52 2.968 2.232 5.704 4.696 8.4 7.2 2.214 3.087 3.046 7.042 5.28 10.08s5.896 4.896 8.16 7.92c3.97 5.303 6.201 11.86 11.76 15.6 0.728-1.752 0.862-4.098 2.16-5.28 1.014-0.26599 2.283-0.27699 3.6-0.23999-0.93698-1.798-2.477-2.514-3.6-4.08zm-117.36-11.76c-0.79399 2.133-2.797 5.758-2.64 7.2 0.23498 2.163 3.52 3.944 4.32 5.76 7.863-18.697 15.798-37.321 23.52-56.16-1.75-2.571-3.864-4.776-6-6.96-5.722 14.819-13.197 34.042-19.2 50.16zm76.8-41.52c-0.48602-3.383-3.484-6.254-5.76-8.64 1.188 3.611 2.404 7.195 5.76 8.64zm-53.28-7.68c-0.47501 0.56801 1.276 0.953 1.2 1.92 1.71-0.45 4.187-0.133 5.52-0.95999-0.537-0.104-0.097-1.183-0.24-1.68-2.369 0.031006-4.356 0.44501-6.48 0.72zm-9.84 6.24c0.99-1.092 1.848-3.588 1.92-4.8-0.987 1.125-1.895 3.502-1.92 4.8zm12.24-2.88c0.793 0.487 1.264 1.296 1.92 1.92 0.72099-0.319 1.836-0.24399 2.88-0.23999-0.10599-0.93401-0.18199-1.898-0.48-2.64-1.505 0.25499-3.242 0.278-4.32 0.95999zm29.52 4.8c1.151-0.52899 3.226-0.134 4.32-0.72-1.226-1.094-1.47-3.17-2.88-4.08-0.241 1.683-1.436 3.68-1.44 4.8zm4.8 12.72h-0.48c-2.909 0.33099-6.542 1.083-9.12 0.96001-0.284-0.99701-0.879-1.681-1.2-2.64 1.688-4.792 3.501-9.458 5.04-14.4-10.788-1.869-17.611 6.343-16.56 16.32 2.851 3.866 5.267 8.38 7.68 12.24 0.827 1.322 1.821 2.75 3.12 3.6-0.16699-8.415 5.264-13.289 11.52-16.08zm120.96-16.08c-0.050995-0.28999-0.267-0.147-0.48001 0-2.396 6.484-4.982 12.777-7.439 19.2 49.674 54.082 99.526 108 149.28 162 4.462-8.019 9.56-15.401 13.92-23.521-51.993-52.328-103.27-105.37-155.28-157.68zm-153.6 1.68c-0.107 1.093-0.617 1.783-0.95999 2.64 1.292-0.30901 2.991-0.209 4.32-0.48001 0.142-1.021-0.17299-1.587-0.24-2.4-1.194-0.074005-2.202 0.037994-3.12 0.24zm54.96 5.52c-1.628-1.252-2.72-3.04-4.8-3.84 0.95599 1.765 3.417 3.301 4.8 3.84zm-21.36-1.68c-0.426-2.187-3.806-1.027-6.48-0.96001-0.36398 1.635-1.114 2.886-1.44 4.56 2.601 0.121 4.46-0.5 6.96-0.48 0.174-1.415 1.163-2.075 0.96001-3.12zm-35.04 0c-0.40601 0.87399-0.635 1.924-1.2 2.64 2.261-0.14 4.404-0.396 6.48-0.72-0.066986-0.812-0.38199-1.378-0.23999-2.4-1.677 0.16399-3.364 0.31599-5.04 0.48zm35.52 2.88h1.44c-0.009003-0.871-0.98799-0.77101-1.2-1.44 0.174 0.73399-0.414 0.70599-0.24 1.44zm-37.2 1.2c-0.37801 0.662-0.67001 1.41-0.95999 2.16 2.725-0.314 5.39-0.68999 8.16-0.95999v-2.16c-2.393 0.327-4.964 0.476-7.2 0.96001zm35.039 4.8c0.97299-0.46701 2.37-0.51001 3.84-0.48001-0.202-1.078-1.131-1.429-1.44-2.4 0.20401-0.676 0.77499-0.985 0.72-1.92-2.762-0.28101-2.759 3.478-3.12 4.8zm5.041-2.88c1.03 1.531 2.417 2.703 3.12 4.56-0.364 1.316-1.019 2.341-1.2 3.84 0.78 1.14 1.433 2.407 2.64 3.12 0.81999-3.101 2.302-5.538 3.12-8.64-2.506-1.494-4.485-3.515-7.2-4.8 0.293 1.093-0.659 0.94099-0.48001 1.92zm-11.76-1.2c-0.552 1.387-1.706 3.118-1.2 4.8 1.721 0.321 4.03-0.74199 6.48-0.48 0.414-1.746 1.101-3.219 1.68-4.8-2.604-0.123-4.357 0.60301-6.96 0.48001zm147.6 2.64c-1.356 3.751 2.389 4.86 4.08 6.96 0.173-2.827 1.579-6.846 0.95999-8.88-1.447 0.87299-3.469 1.172-5.04 1.92zm-177.6 0.23999c-0.061005 0.819-0.60701 1.153-0.48001 2.16 2.896 0.239 6.691-0.655 9.84-0.95999 0.188-1.068-0.319-1.44-0.23999-2.4-3.182 0.258-6.19 0.69-9.12 1.2zm176.16 1.2c-0.117-0.757 0.43298-0.84801 0.23999-1.68-0.81799 0.085007-1.979-0.72299-2.4-0.24 0.866 0.49501 1.296 1.425 2.16 1.92zm6.72 6.24c1.717 0.20401 2.846 0.995 4.801 0.96001 0.353-1.647 0.69199-3.308 1.199-4.8-1.868-1.171-3.096-2.984-4.8-4.32-0.23599 2.883-0.974 5.265-1.2 8.16zm-35.519-4.8c0.39801 0.481 0.64502 1.116 1.44 1.2 0.38702-1.373 1.053-2.467 1.439-3.84-0.95499 0.155-0.965-0.635-1.92-0.48-0.15796 1.201-0.69598 2.024-0.95898 3.12zm149.76 165.12c-11.951-12.291-23.448-25.62-34.8-37.92-26.894-29.141-52.585-57.237-79.68-86.4-11.324-12.188-23.085-25.338-34.801-37.68-1.968-2.074-3.891-5.037-5.52-5.28-2.163 1.889 1.479 4.919 3.36 6.96 11.721 12.718 23.598 25.365 34.56 37.68 13.017 14.624 26.953 28.512 39.6 42.72 26.184 29.416 53.025 57.756 78.96 85.68 2.565-2.608-0.19702-4.237-1.679-5.76zm-288-165.36c-3.024 0.496-6.198 0.842-9.36 1.2-0.142 1.022 0.173 1.587 0.24002 2.4 3.393-0.287 6.718-0.642 9.84-1.2-0.561-0.479 0.28699-2.367-0.72-2.4zm37.92 8.64c0.795 0.965 1.426 2.093 2.4 2.88 0.785-2.975 2.05-5.47 2.88-8.4-0.841-0.839-0.92001-2.44-2.16-2.88-0.922 2.918-2.177 5.503-3.12 8.4zm-19.44 8.88c0.783-0.698 4.016-0.18399 5.52-0.48-1.19-5.939 4.321-9.257 9.36-10.56-0.569-0.711-1.371-1.189-1.68-2.16 0.804-0.79599 0.843-2.357 1.44-3.36-9.157 0.983-15.738 6.901-14.64 16.56zm161.76-12c0.56702-0.713 2.022-0.53799 2.4-1.44-0.78699-0.414-1.134-1.266-1.921-1.68-0.085999 0.961-0.91199 2.436-0.479 3.12zm-179.76-1.92c-2.823 0.69701-6.218 0.823-9.36 1.2-0.142 1.022 0.173 1.587 0.23999 2.4 3.418-0.181 6.664-0.536 9.6-1.2-0.23-0.73001 0.51401-2.434-0.48-2.4zm-63.12 0.96001c0.617 3.143 2.163 5.357 2.64 8.64 8.836 10.444 17.438 21.122 25.92 31.92 2.298 0.10001 5.716 1.853 6-1.2-0.907-0.543-0.673 1.798-2.16 1.44-2.712-2.728-5.094-5.786-7.2-9.12 0.32199-0.87799 0.675-1.725 0.95999-2.64-0.672-0.52199-1.171 0.996-2.16 0.24-2.28-2.92-4.666-5.734-6.72-8.88 0.776-1.383 0.614-1.954-0.48-2.88-0.14902 0.73-0.533 1.227-1.44 1.2-2.809-2.631-4.972-5.908-7.2-9.12 0.69-1.302 0.873-2.716-0.48-3.36-0.327 0.55299-0.421 1.339-1.44 1.2-2.377-2.183-3.512-5.608-5.52-8.16-0.135 0.34599-0.375 0.58501-0.72 0.72zm68.16 13.2c0.155 1.564-0.232 4.672 0.96001 5.28 1.886-2.594 2.439-6.521 3.84-9.6-2.192-3.008-4.027-6.374-6.24-9.36 0.388 4.085 1.001 9.26 1.44 13.68zm55.44-12.72v-0.95999c-0.349 0.131-1.241-0.28-1.2 0.23999 0.82001-0.17999 0.30499 0.97501 1.2 0.72zm-17.76 5.04c0.93097-0.589 3.186 0.146 4.08-0.48001-1.134-0.94499-1.256-2.903-2.64-3.6-0.268 1.572-0.93903 2.741-1.44 4.08zm64.56-3.84c-1.051 2.869-1.844 5.996-3.12 8.64 0.74097 1.339 1.781 2.379 3.12 3.12 1.316-3.964 2.772-7.788 4.08-11.76h-4.08zm-116.4 2.16c-0.18799 0.98801 0.36801 1.231 0.24002 2.16 3.485-0.19501 6.571-0.789 9.84-1.2 0.105-0.82501-0.095001-1.345-0.24-1.92-3.435 0.16499-6.236 0.96399-9.84 0.95999zm33.36 7.92c0.37399 2.68 3.617 3.877 4.32 6.72 2.997 0.118 5.07-0.689 8.16-0.48-1.518-2.949 3.057-6.887 1.44-9.12-0.041 0.35899 0.085999 0.88599-0.24 0.95999-2.344-1.414-3.405-3.697-3.84-6.48-5.127 0.12-10.48 3.819-9.84 8.4zm46.319 113.76c5.944-0.29602 11.822-0.65802 17.52-1.2 14.213-38.029 28.606-75.873 42.96-113.76-3.701 0.13901-7.29 0.39101-10.8 0.72-1.087-2.353-2.718-4.162-4.08-6.24-15.17 40.191-30.364 80.354-45.6 120.48zm-90.719-104.88c2.571-0.069 4.61-0.67 7.44-0.48-0.496-4.864-0.832-9.888-1.44-14.64-1.679 5.361-4.29 9.79-6 15.12zm151.2 3.6c47.271 54.969 94.671 109.81 142.08 164.64 4.414-7.346 9.07-14.449 13.199-22.08-48.593-53.575-98.529-107.87-148.08-161.28-2.248 6.391-4.83 12.45-7.199 18.72zm-139.68-17.04v2.64c3.295-0.465 6.489-1.031 10.08-1.2-0.067001-0.812-0.382-1.378-0.24-2.4-3.578 0.022995-6.281 0.91899-9.84 0.95999zm50.88-0.48c-0.40903 1.751-1.113 3.207-1.68 4.8 2.702 0.142 4.629-0.49 7.2-0.48001 0.298-1.302 1.127-2.073 1.2-3.6-1.083-2.075-3.91-0.30901-6.72-0.72zm6.96 4.08c1.125-0.155 2.874 0.314 3.6-0.24-1.195-0.405-1.549-1.65-2.88-1.92-0.078003 0.882-0.59201 1.328-0.72 2.16zm-57.6 0.23999c-0.079987 0.96001 0.42801 1.333 0.24 2.4 3.227-0.453 6.517-0.843 9.84-1.2v-2.4c-3.464 0.296-6.781 0.739-10.08 1.2zm19.44 4.8c2.297-0.183 5.078 0.118 6.48-0.95999-0.41101-0.789-2.021-0.37901-3.12-0.48001-0.69-0.83-0.95601-2.084-1.92-2.64-0.38 1.46-1.077 2.603-1.44 4.08zm37.44-3.6c-0.341 1.499-0.93198 2.748-1.44 4.08 1.854-0.38599 3.999-0.48 6-0.72 0.37003-1.23 1.034-2.166 1.44-3.36-1.364-1.018-3.839 0.29098-6 0zm-8.4 0.48c-0.209 1.657-1.581 3.073-1.2 4.56 2.374-0.26601 4.786-0.494 6.96-0.96001 0.25198-1.588 1.002-2.678 1.44-4.08-2.447 0.11299-4.495 0.625-7.2 0.48zm-48.24 1.92c0.067001 0.812 0.382 1.378 0.24 2.4 3.619-0.14099 6.724-0.79599 10.08-1.2-0.079987-0.95999 0.30902-2.389-0.71999-2.4-3.027 0.573-6.369 0.83099-9.6 1.2zm29.52 0.48c0.349-0.131 1.24 0.28101 1.2-0.23999-1.234 0.27399-3.721-0.49101-3.84 0.23999 0.493 0.554 2.072 0.166 2.64 0zm74.159 5.04c2.05 3.551 3.816 7.384 6.24 10.56 0.10098-0.459 0.086975-1.033 0.71997-0.96001-2.923-5.717-6.037-11.244-11.52-14.4 0.46298 1.721 2.951 3.432 4.56 4.8zm-77.519-3.6c-0.16899 1.111-0.791 1.77-0.96001 2.88 2.919-0.601 7.808 0.76799 7.68-2.88-1.562-1.019-4.259 0.381-6.72 0zm-7.44 0.48c-0.14299 1.138-0.66899 1.892-0.96001 2.88 2.151-0.009003 3.917-0.40401 6.24-0.24 0.125-1.235 0.79401-1.925 0.96001-3.12-1.972 0.268-3.924 0.556-6.24 0.48zm-18.24 1.2c-0.118 1.078 0.12201 1.798 0.24 2.64 3.607-0.072006 6.582-0.778 10.08-0.96001-0.151-1.049 0.12799-2.528-0.72-2.88-3.022 0.578-6.192 1.008-9.6 1.2zm85.44 1.68c-0.95502-0.80499-1.972-1.548-2.4-2.88h-2.16c0.77002 1.551 2.53 3.386 4.56 2.88zm-131.52 13.92c-4.335-5.425-8.335-11.185-12.96-16.32-0.68001 0.36-1.812 0.269-2.4 0.72 1.804 3.829 4.921 6.824 7.44 10.08 7.758 10.029 15.386 19.791 23.04 29.76 3.466-2.047-0.19-5.276-1.68-7.2-3.21-4.145-7.325-8.968-9.84-12.48-2.83 0.963-4.49-1.846-3.6-4.56zm105.6-14.16c0.216 0.824 0.52899 1.551 0.95999 2.16 2.446-0.782 5.914 0.381 7.68 0.24-0.965-1.275-1.586-2.894-2.4-4.32-3.225-0.50499-4.549 0.89-6.24 1.92zm-10.56 0c1.052 2.513 1.408 6.607 0.71997 8.88 2.056-2.983 5.008-5.071 8.88-6.24-0.67798-4-5.905-4.127-9.6-2.64zm-4.56 0.48001c-0.255-0.033005-0.38 0.21799-0.72 0.23999-17.606 1.151-40.583 3.051-59.04 4.32-1.074 3.326-2.589 6.21-3.84 9.36 21.773-2.227 44.238-3.761 66.24-5.76 1.399-3.293 0.819-7.706-2.64-8.16zm44.399 4.32c-0.93402-0.59-1.861-2.453-2.88-2.16 1.239 0.28601 2.025 2.289 2.88 2.16zm-168 41.04c-0.91802 1.947-2.589 4.76-2.64 6-0.103 2.471 2.249 4.915 2.4 7.2 7.417-17.144 14.979-34.141 22.56-51.12-1.237-1.003-1.813-2.667-3.12-3.6-5.676 12.168-13.041 28.462-19.2 41.52zm149.04-40.08c-2.805-2.055-8.455-2.045-12-0.72-6.024 2.251-11.665 10.99-8.64 17.52 2.198 2.921 4.56 5.68 6.48 8.88 5.397 0.229 5.841 2.85 8.4 6 2.407 2.963 3.403 5.493 8.16 5.04 0.20401-6.629 4.326-10.51 10.8-10.08 0.018005-4.417-1.81-6.99-3.84-9.36-2.744-1.017-8.627 1.107-9.84-1.44 1.039-1.521 3.351-1.77 4.32-3.36-0.54999-1.64-2.318-3.243-2.16-4.8 0.599-0.601 1.672-0.728 2.88-0.72-1.874-2.244-2.43-5.4-4.56-6.96zm-98.64 1.68c0.66899 0.16701 1.015-1.194 0.48-1.44-0.175 0.52701-1.127 0.79701-0.48 1.44zm-15.36 9.6c2.881-0.84201 6.647-9.093 3.12-10.8-1.259 3.229-3.896 6.333-3.12 10.8zm137.04-6.24c-0.66498-0.91299-1.32-2.957-1.92-2.4 2.467 4.093 4.903 9.497 8.88 11.28-2.083-2.744-4.949-6.12-6.96-8.88zm-131.28 1.68c1.563 1.09 1.833 3.882 4.8 2.88-1.328-2.032-2.71-4.009-4.56-5.52 0.17699 1.137-0.27 1.65-0.24 2.64zm183.6 10.32c0.86398-0.896 2.116-3.228 1.92-4.56-0.151-1.029-2.146-2.702-3.12-3.84-0.88-1.028-2.277-3.136-3.6-3.6-1.807-0.634-4.465-0.22099-6.48 0-1.083 1.796-1.837 3.923-2.4 6.24 2.852 0.37 5.26-0.978 7.68-0.24-1.013 3.147-2.517 5.803-3.36 9.12 3.619-0.021988 7.382-1.069 9.36-3.12zm-110.64-10.8c0.69 1.39 1.937 2.223 2.88 3.36 0.49901-1.101 0.78101-2.418 1.2-3.6-1.528-0.087997-2.453 0.427-4.08 0.23999zm-11.04 0.96001c0.19801 0.67799-0.338 0.62199-0.24 1.2 2.079 1.474 4.155 4.941 6.48 6.96 0.918-3.082 2.093-5.907 3.12-8.88-3.316 0.044006-6.048 0.672-9.36 0.72zm17.279-0.48c-0.188 1.812-1.06 2.94-1.44 4.56 2.001-0.319 4.137-0.50301 6.48-0.48 0.341-1.58 0.94501-2.896 1.44-4.32-2.425-0.186-4.16 0.319-6.48 0.24zm-113.76 49.44c-0.94299 2.288-2.964 5.327-2.88 6.96 0.116 2.261 2.552 4.266 3.12 6.24 7.485-19.394 15.897-37.863 23.28-57.36-1.065-1.734-2.432-3.168-3.6-4.8-6.151 14.578-13.41 33.157-19.92 48.96zm103.44-40.08c0.92 1.561 2.097 2.863 3.36 4.08 1.168-4.406 5.041-10.079-0.23999-12.48-0.94699 2.893-1.919 5.761-3.12 8.4zm-48.96-4.56c0.65601 1.024 0.852 2.508 0.72 4.32-2.497 2.789-6.51 3.928-10.56 1.68-1.845-1.024-2.658-4.245-4.56-4.8-1.072-0.313-2.034 0.34599-2.88 0.23999-1.743-0.218-2.293-1.615-3.84-1.68 2.223 2.606 4.229 5.445 6.72 8.64 2.506 3.213 7.046 6.81 6.48 12.48-1.386 1.334-2.981 2.459-4.32 3.84-1.404 5.236-2.985 10.295-4.32 15.6 0.784 0.33603 1.545 0.694 2.16 1.2 27.612 36.866 55.333 73.629 83.28 110.16 3.441-9.759 7.194-19.206 10.8-28.8-2.335 0.198-5.535 0.80399-7.44 0-1.474-2.263-2.597-5.573-1.68-8.88-4.56-4.801-8.834-9.886-12-16.08-2.565-2.429-5.215-3.781-7.44-6.72-2.101-2.775-2.866-6.807-5.28-9.6-1.982-2.294-5.868-3.669-8.16-6.48-2.389-2.929-4.057-8.041-6.48-10.56-1.245-1.294-3.599-2.441-5.28-3.6-1.796-1.238-4.094-2.185-5.28-3.6-1.388-1.657-2.445-4.344-3.84-6.72-0.638-1.086-3.877-5.134-3.6-6.96 0.35701-2.35 3.188-1.891 6-2.16 4.039-0.38599 8.164-1.603 10.32-0.23999 2.854-2.346 8.999-1.401 13.68-1.92 1.077-0.19699 1.072 0.68802 1.68 0.95999 2.715-2.885 9.526-1.674 14.4-2.4 2.021 1.819 3.181 4.499 4.56 6.96 1.893 1.354 4.494 2.07 6.24 3.6 2.288 2.004 3.416 5.513 5.76 7.92 2.811 2.886 6.854 4.912 9.36 7.68 4.172 4.606 4.889 12.241 11.04 15.12 2.217-6.343 4.786-12.334 6.96-18.72-3.461 0.38501-7.52 1.324-7.92-1.68-0.19-1.433 1.244-4.945 1.92-7.2 0.78201-2.611 1.975-5.045 1.92-7.2-0.89801-0.143-1.241-0.83899-1.92-1.2-3.184 9.646-15.435 1.801-12.96-7.44-3.66-0.22-6.18 0.70001-9.84 0.48001-0.16598-0.358-1.275-0.74701-1.68-1.68-0.50397-1.161-1.74-8.545-1.44-9.36 0.54804-1.491 1.964-0.689 2.64-1.92 0.13-1.49-0.48599-2.233-0.47998-3.6 0.61899-0.98 1.523-1.677 2.88-1.92-3.891-0.029007-5.446-2.394-6.96-4.8-2.54 1.46-6.683 1.316-10.08 1.92-1.362 3.937-2.88 8.15-4.32 12.24-1.421 4.039-2.35 8.557-5.28 11.28-3.943-2.572-6.759-6.717-10.08-10.8-1.317-1.62-2.957-3.338-4.8-5.52-1.183-1.4-4.213-4.675-4.32-6.24-0.072998-1.074 1.071-3.211 1.68-4.8 1.794-4.681 4.415-10.94 5.28-14.4-12.149 1.451-25.005 2.195-37.44 3.36zm92.16-2.88c0.69202 1.308 1.453 2.547 2.16 3.84h4.8c-0.31201-1.848-1.768-2.553-2.16-4.32-1.926-0.16598-2.972 0.548-4.8 0.48001zm-54.72 10.8c2.399 2.24 3.965 5.315 6.72 7.2 0.828-3.652 2.501-6.458 3.36-10.08-2.09-2.39-4.175-4.784-6.24-7.2-1.292 3.348-2.536 6.744-3.84 10.08zm19.92-6.96c-0.36099 1.798-1.112 3.208-1.68 4.8 2.343 0.022995 4.479-0.161 6.48-0.48 0.545-1.615 1.021-3.299 1.68-4.8-2.381-0.061005-4.302 0.338-6.48 0.48zm6 4.32h1.68c0.105-1.465-0.29401-2.426-0.72-3.36 0.078995 1.519-0.99301 1.887-0.96001 3.36zm85.44-2.88c-1.668 4.492-3.436 8.884-5.04 13.44 1.414-0.50601 3.889 0.047989 5.28-0.48001 0.862-2.107 1.758-4.593 2.64-6.96 0.85498-2.296 2.285-4.722 2.16-6.48-1.399 0.44099-3.642 0.038986-5.04 0.48zm-56.64 1.2c2.873-0.101 6.59 1.227 8.64-0.24-0.32202-0.15799-0.44702-0.513-0.47998-0.95999-2.543-0.35901-7.207-0.824-8.16 1.2zm20.4 1.92c-1.532 4.407-4.208 8.186-1.68 12.96 3.48-0.2 6.766-0.59401 10.32-0.72 0.60702-2.151 1.565-4.486 2.4-6.72 0.84003-2.249 2.246-4.573 1.92-6.48-4.349 0.291-8.129 1.151-12.96 0.95999zm-158.4 52.56c-0.811 2.352-2.8 6.233-2.64 7.68 0.25 2.254 3.594 3.799 4.8 5.52 6.695-20.345 13.595-40.484 20.64-60.48-1.143-2.217-2.787-3.934-4.32-5.76-5.409 15.849-12.601 35.986-18.48 53.04zm146.4-52.56c0.23297 0.967 0.93097 1.469 1.44 2.16-0.074005-0.955 0.55399-1.206 0.47998-2.16-0.58698-0.59-1.041 0.177-1.92 0zm-55.68 10.8c2.358 3.002 4.898 5.822 7.44 8.64 0.96501-3.595 2.698-6.423 3.36-10.32-1.081 0.11801-2.332 0.526-3.12 0.24-1.869-0.99699-1.646-2.966-0.96001-5.04-1.024-1.216-2.11-2.37-3.12-3.6-1.2 3.361-2.622 6.498-3.6 10.08zm18-9.84c-0.63 1.61-1.279 3.201-1.68 5.04 1.844-0.23599 3.769-0.39099 5.52-0.72-0.024994-0.985 0.959-0.961 0.72002-2.16-1.167-1.379-1.708-3.017-4.56-2.16zm-7.68 0.72c-0.47499 1.846-1.303 3.337-1.68 5.28 2.595 0.034988 4.474-0.64601 6.72-0.96001-0.22299-1.426 1.016-3.461 1.44-5.04-2.19 0.20999-4.333 0.467-6.48 0.72zm106.8 1.2c-0.053009-0.187-0.20102-0.27901-0.48001-0.24-1.808 1.392-4.656 1.744-7.919 1.68-0.974 2.706-1.977 5.383-3.12 7.92-2.492 0.388-5.619 0.14099-7.92 0.72-2.483 7.598-5.54 14.621-8.16 22.08 0.93298 0.66699 1.896 1.305 3.36 1.44 2.488-3.272 6.489-5.031 12.48-4.8 3.839-9.68 7.849-19.19 11.759-28.8zm6 6.48c1.445 1.435 2.276 3.483 3.12 5.52 2.608-0.992 4.464-2.736 5.52-5.28-2.091-2.309-3.913-4.886-6.24-6.96-0.875 2.165-1.757 4.323-2.4 6.72zm-3.361-6.24c-3.731 8.668-7.484 17.316-10.8 26.4 1.308 0.108 1.972-0.42798 3.36-0.23999 1.043-2.637 2.154-5.206 3.359-7.68 2.246-0.198 4.109-0.36401 6 0.23999 2.781-3.12 1.161-9.579-2.16-10.8 0.41598-3.024 1.965-4.916 2.4-7.92h-2.159zm-130.08 7.2c0.345 2.66 5.49 6.053 6.48 7.92 0.483-2.717 1.719-4.682 2.4-7.2-2.376-2.264-3.995-5.285-6.72-7.2-0.076996 2.783-2.456 4.203-2.16 6.48zm71.76-0.96001c-0.979-0.718-0.29501-2.701 0-3.6-0.45902-0.66101-1.019-1.221-1.68-1.68-0.496 1.792-0.030975 5.719 1.68 5.28zm-143.52 63.6c0.56 0.91101 1.884 1.494 2.88 2.4 0.80899 0.73599 1.687 2.508 2.4 1.92 4.906-16.1 9.638-35.455 14.64-52.56 0.67799-2.32 2.401-5.938 2.16-7.68-0.30901-2.223-3.292-3.878-4.32-5.76-5.614 20.866-12.077 40.884-17.76 61.68zm139.92-60.96c-11.388-3.382-13.118 16.489-0.96002 14.4-0.94098-3.023 1.887-5.996 5.76-5.76 0.39401-4.879-1.77-7.741-4.8-8.64zm71.04 5.52c0.33099 1.294 0.99402 2.624 2.4 2.16 0.52798-0.50699-0.30902-0.70898-0.23999-1.44 1.674-1.846 3.354-3.686 4.8-5.76-3.033-0.84499-3.148 5.091-6.96 5.04zm-132 1.68c0.18599 1.463 2.551 3.269 3.6 4.56 1.453 1.788 2.485 3.501 3.84 4.56 0.68999-2.75 1.803-5.077 2.64-7.68-2.798-2.562-4.791-5.929-7.68-8.4-0.21402 2.822-2.698 4.602-2.4 6.96zm78.241-4.32c-0.053009-0.187-0.20102-0.27901-0.48001-0.24-3.319 0.28101-6.438 0.76201-10.08 0.72 0.518 1.88 0.86597 5.4 0 7.2 1.417 1.864 3.485 3.075 6.24 3.6 1.582-3.617 2.999-7.401 4.32-11.28zm-42.721 1.2c0.029999 1.81 0.551 3.129 0.72 4.8 2.328-0.246 4.692 0.74399 6.72 0-2.385-1.877-2.585-6.029-7.44-4.8zm104.4-0.24c-0.55301 1.168-2.469 1.842-1.68 3.6 1.914 0.15399 3.118-0.40201 4.32-0.95999-1.061-0.699-1.268-2.252-2.64-2.64zm-5.28 5.04c-0.25 5.43-0.53601 10.824-0.72 16.32 0.30801 0.94699-0.699 0.58099-0.72 1.2 0.966-0.16598 0.58899 1.01 1.439 0.96002-0.79504-5.115 1.376-13.754 0.23999-19.2-0.036011 0.28201 0.041992 0.681-0.23901 0.72zm9.12 6.48c0.384 0.896 1.493 1.067 1.681 2.16-0.30698 0.73401-0.97299 1.107-0.95999 2.16 1.015 1.865 2.688 3.073 5.52 3.12 2.109 1.633 4.479 7.106 7.2 7.92 2.304 0.689 5.055 0.12201 7.92 0.23999-6.444-7.076-12.375-14.665-18.96-21.6-0.492 2.309-1.817 3.784-2.401 6zm-109.44 0.47998c3.333-0.18698 6.557-0.483 9.84-0.72 0.033997-1.954-0.75598-3.084-0.95999-4.8-3.265-0.255-6.659-0.38101-10.08-0.48001 0.21698 2.182 0.96198 3.838 1.2 6zm27.12-2.88c1.554 2.926 3.474 5.486 5.76 7.68 1.368-1.992 3.055-3.666 5.04-5.04-3.075-0.76502-5.156-2.524-6.48-5.04-2.435-0.19501-3.644 0.836-4.32 2.4zm76.08 0.96002c0.90204-0.698 1.765-1.435 3.119-1.68v-1.2c-2.18-0.302-3.371 1.536-3.119 2.88zm-18.721 3.12c0.88602 0.39499 1.963 0.59799 2.88 0.95999 0.78299-1.697 1.317-3.643 2.16-5.28-0.93802-0.26099-1.76-0.63998-3.12-0.48001-0.61502 1.624-1.465 3.014-1.92 4.8zm9.601-4.8c-2.925 4.463-0.60998 11.203 3.6 12.72 0.31998-4.159 0.52197-8.437 0.71997-12.72-1.186 0.47101-2.622-0.25299-4.32 0zm8.399 3.36c-0.20902 4.307-0.681 9.131-0.23898 12.72 4.377 2.328 11.681 4.976 17.76 2.64-1.492-2.428-3.598-4.243-5.28-6.48-3.456-0.384-5.589-2.091-6.479-5.04 0.21002-0.67001 0.574-1.186 0.72-1.92-1.196-1.043-2.258-2.223-3.601-3.12-0.048035 1.333-1.944 1.48-2.881 1.2zm-86.639 11.76c4.726-0.466 2.501-12.335-1.68-11.76-5.231 0.71899-2.516 12.173 1.68 11.76zm11.76-7.68c-0.138-0.982-1.105-1.135-1.2-2.16-0.49701 0.143-1.577-0.29599-1.68 0.24002 1.027 0.57199 1.376 1.823 2.88 1.92zm269.76-0.95999c-5.447 7.992-10.361 16.518-15.84 24.48 0.117 1.163 1.398 1.161 1.68 2.16-1.45 1.589-2.665 3.414-4.079 5.04-0.651-0.14899-0.59802-1.003-1.4401-0.95999-3.772 5.819-7.6349 12.228-11.28 18-1.161 1.839-3.4839 3.766-2.64 6.24 2.965-0.059998 4.379-4.135 6-6.72 9.897-15.786 20.509-31.876 29.76-47.04-0.84198-0.27802-1.027-1.213-2.161-1.2zm-270.24 7.92c-0.88901 4.872-2.523 8.997-3.6 13.68 1.744-0.496 4.354-0.12601 6.48-0.23999-0.117-0.85101 0.96799-1.733 0.48001-2.16-0.95203 0.24899-2.733 0.676-3.6 0.23999 0.72098-4.159 2.53-7.229 3.36-11.28 1.853 0.09201 2.995-0.52499 4.8-0.48001 0.466-0.89398 0.745-1.975 1.2-2.88-3.589-0.14899-6.463 0.41702-10.08 0.24002-2.27-1.17-2.9-3.98-6.24-4.08 1.297 3.422 5.249 4.19 7.2 6.96zm64.319-4.32c-0.12598-0.83301-0.64899-1.27-0.95999-1.92-0.68698 0.86301 0.42001 1.534 0.95999 1.92zm-0.71899 25.44c7.66-5.437 3.274-26.041-6.96-26.64-3.067-0.17999-5.28 0.97101-9.36 0.96002 3.417 3.886 9.877 14.342 6.72 23.28-0.43799 1.236-2.508 3.215-2.16 4.08 4.279-0.98599 8.847 0.38699 11.76-1.68zm-19.44-24.72c-5.449-2.501-9.369 4.131-9.36 8.88 0.015991 8.257 4.605 17.523 12 18 9.805-3.932 3.783-23.932-2.64-26.88zm-59.04 36.48c-2.092-2.988-2.993-6.985-5.28-9.84-2.56-3.195-7.419-5.192-10.32-8.64-1.824-2.167-2.82-5.077-4.56-6.72-2.001-1.89-5.222-2.394-6.96-4.32-1.482-1.643-1.968-4.976-3.84-5.52-2.264-0.65802-5.988 1.041-7.92 0.72 1.979 6.581 7.956 9.164 12.96 12.72 2.522 7.158 8.614 10.747 13.92 15.12 2.058 3.212 2.822 6.851 5.04 9.6 3.117 3.863 8.402 5.842 10.08 11.04 2.406-0.41098 3.377-4.291 4.56-6.72-2.183-2.984-5.395-4.175-7.68-7.44zm-54.72-33.12c2.97 6.79 8.634 10.886 14.4 14.88 1.757 2.382 2.707 5.117 4.8 7.68 2.863 3.506 7.66 5.61 10.32 9.12 1.95 2.573 3.237 6.879 5.04 9.12 1.676 2.083 5.814 4.584 7.68 6.96 1.695 2.159 2.92 4.636 4.56 7.2 1.873 2.929 4.431 7.389 7.92 6 0.60199-1.799 0.50497-4.295 0.47998-6.721-2.49-2.584-2.989-5.977-5.04-8.64-2.396-3.11-6.517-4.907-8.88-8.16-1.928-2.655-2.643-5.492-4.56-8.4-2.946-2.855-6.447-4.647-9.12-7.92-1.821-2.229-2.818-5.219-4.8-7.44-2.675-2.998-7.154-4.389-9.84-7.44-1.709-1.941-2.366-4.805-4.08-6.72-3.342-0.22-5.597 0.64499-8.88 0.48099zm132 24.48c-4.193 1.132-9.219 0.384-14.4 1.44-0.85797 2.39-2.274 4.47-3.36 6.72-1.042 2.16-2.769 4.907-2.88 7.2-0.088013 1.818 0.909 4.516 1.92 6.24 4.283 7.304 17.363 11.809 25.92 6.96 7.477-15.244 15.097-30.344 22.561-45.6-11.191 2.186-19.151-3.959-25.2-7.68 4.502 7.234 4.482 22.279-4.561 24.72zm-42.239 1.44c2.964 4.266 5.852 8.767 8.64 12.96 0.82999 1.248 2.009 3.569 4.08 3.12 2.042-4.999 4.54-9.54 10.08-11.04 0.77402-1.705 1.708-3.252 2.4-5.04-8.334-1.648-12.296-9.965-12.96-18.72-0.284-3.744 0.13501-6.023-2.64-7.2-3.018 8.822-6.52 17.161-9.6 25.92zm-48.48 32.399c-1.852-2.49-2.651-5.838-4.56-8.16-2.521-3.066-5.987-4.294-8.4-7.44-1.692-2.814-2.349-6.283-4.32-8.88-2.333-3.074-6.939-4.715-9.6-7.68-2.364-2.634-3.67-6.853-6.24-9.6-3.03-3.24-8.331-5.037-10.56-8.16-1.74-2.438-2.177-5.69-4.56-7.68-2.565 0.63501-6.041 0.35901-8.64 0.96002 0.796 1.864 1.881 3.322 2.88 5.04 0.95799 1.646 1.625 3.926 2.88 5.28 2.845 3.07 8.017 4.013 10.8 7.44 2.676 3.295 3.33 6.438 6 10.08 2.977 1.823 5.164 4.436 8.16 6.24 1.267 3.693 3.688 6.232 5.04 9.84 8.509 4.852 11.717 16.282 19.2 21.36 0.63998-1.521 1.142-3.178 1.68-4.8 1.141-0.13998 2.213-0.34799 3.6-0.23999-0.77701-1.465-2.386-2.289-3.36-3.6zm32.399-56.639c-0.88702 3.032-2.001 5.839-2.88 8.88 1.135 0.095001 2.003-0.076996 2.88-0.23999 1.028-3.132 2.425-5.896 3.36-9.12-0.97299 0.306-2.431 0.12799-3.36 0.48001zm-126.24 13.2c0.21899 1.384 3.442 5.024 5.04 7.2 25.936 35.312 51.922 72.718 77.28 107.04 1.414-3.707 2.695-7.546 4.08-11.28-0.20502-1.479 0.03598-3.082 0.95999-4.561-28.205-36.918-55.999-74.24-84.24-111.12 0.033005 2.738-3.515 10.224-3.12 12.72zm-1.92 1.68c26.66 37.26 54.475 75.251 80.88 112.56 0.65199 0.922 2.055 3.463 2.4 2.88 0.16699-1.485-1.177-2.593-1.92-3.601-27.431-37.193-53.721-75.438-80.88-112.56-0.014008-0.146-0.035995-0.284-0.24-0.23999-0.075989 0.324-0.342 0.45801-0.23999 0.95999zm-2.4 14.16c26.462 39.058 52.444 78.595 79.2 117.36 1.751-4.649 4.146-8.654 5.52-13.681-27.268-38.09-54.378-76.342-81.84-114.24-1.164 3.318-1.788 7.173-2.88 10.561zm141.6 10.799c3.247-0.75299 7.981-0.019012 10.8-1.2-2.309-3.131-4.428-6.452-6.72-9.6-1.474 3.487-2.77 7.151-4.08 10.8zm-146.16-5.039c1.226-0.46399 2.008-0.12201 2.64 0.23999 1.226 0.702 3.684 5.156 5.04 7.2 24.4 36.793 48.738 74.866 72.96 110.64 0.112-1.248 0.709-2.011 0.95999-3.12-26.805-39.756-53.464-79.655-80.4-119.28-0.467 1.374-0.717 2.963-1.2 4.32zm165.84 5.28c2.151-0.73099 3.482 0.841 4.8 1.68-1.896-4.791 1.698-7.77 2.4-11.04-3.26 2.26-6.695 4.345-7.2 9.36zm-166.8 12c24.99 40.212 49.873 80.525 75.12 120.48 0.39201-2.037 1.823-4.186 2.88-6.72 0.83701-2.006 2.82-5.409 2.64-7.2-0.14601-1.461-3.443-5.174-4.8-7.199-24.698-36.883-48.376-75.155-72.96-111.12-0.75299 4.127-1.912 7.848-2.88 11.76zm231.84 8.16c0.99902-8.141-2.248-17.945-7.2-19.2-1.405-0.35599-2.94 0.176-4.32 0.24002-3.406 0.15799-7.002-0.117-11.04 0-0.45599 2.087-2.657 3.757-2.88 6.48-0.11899 1.466 0.61801 3.243 0.72101 5.04 0.26502 4.657 0.104 9.029-1.2 12 1.046 1.754 2.018 3.583 3.6 4.8 5.635-0.044983 10.991-0.36798 16.561-0.479 2.545-2.055 5.212-4.436 5.758-8.881zm-76.801 10.8c6.316-0.51898 17.001 0.242 19.2-4.08 3.539-6.954 0.042999-23.91-6.96-24.72-2.513-0.29102-6.222 0.53699-9.12 0.72-9.647 0.60998-18.214 1.383-27.36 2.4 5.084 3.41 8.9 16.211 5.76 23.76-0.643 1.546-2.123 2.807-1.92 3.84 6.49-0.58902 12.719-1.289 20.4-1.92zm-31.919-19.441c5.098-1.124 8.343 9.196 6.48 13.921-2.054 5.211-8.396-0.29599-8.64-4.32 1.62 6.141 3.86 11.659 10.8 12.479 8.021-6.281 4.692-25.932-4.08-28.8-5.573 0.42798-8.107 5.172-7.2 11.28 0.54498-2.153 0.80499-4.154 2.64-4.56zm52.32 18c2.736 1.412 7.71 2.369 11.52 1.2-6.289-5.643 6.628-16.348 13.2-10.56 0.439-1.717 1.224-3.836 0.72-5.76-8.042 3.106-19.507 0.14902-24.24-5.041 1.946 5.859 2.215 15.809-1.2 20.161zm27.6-16.559c1.165 2.538 0.27301 6.71-0.96002 8.4 0.68301 1.236 1.818 2.021 3.119 2.64 0.73801-4.13 1.31-10.641 0-14.64-0.482 1.438-1.139 2.7-2.159 3.6zm-204.96 0.24002c25.4 40.6 50.437 81.562 75.84 122.16 0.161-1.469-0.977-2.717-1.68-3.841-24.805-39.677-49.49-79.679-74.16-119.28v0.96002zm125.28-0.48102c-1.55 0.40201-1.832 3.468-1.68 5.28 0.31299 3.741 1.864 8.273 5.76 8.16 3.12-3.604 0.194-14.55-4.08-13.44zm220.56 33.84c-0.63202-0.117-0.80902-1.323-1.44-0.72-3.218 5.974-7.163 11.884-10.56 17.521-1.105 1.834-3.137 4.076-2.16 6.479 2.531-1.027 3.512-3.909 4.8-6 9.653-15.66 19.058-31.545 28.32-47.28-0.62903-0.33099-0.82605-1.094-1.681-1.199-4.963 7.997-9.922 15.997-14.64 24.239 2.614 2.47-1.236 4.968-2.639 6.96zm-348-18c0.17099 1.597 2.951 5.347 4.32 7.681 22.262 37.961 45.316 77.402 67.2 114.24 1.71-4.529 3.747-8.732 5.52-13.199-24.928-39.874-49.485-80.114-74.4-120 0.03801 2.896-2.881 9.026-2.64 11.279zm191.76-1.92c0.125 3.833 7.306 3.904 9.84 5.521 2.169 1.383 2.991 4.352 4.8 4.8 3.065 0.76001 5.693-2.626 5.521-4.56-0.040985-0.45999-0.88101-1.685-1.92-3.12-1.938-2.679-3.489-3.783-6-5.761-2.13-1.676-3.058-3.002-6-2.399-1.979 0.40399-6.328 2.866-6.241 5.519zm-82.56-4.08c-0.86502 3.745-3.523 7.69-1.68 12 2.42-0.29898 4.845-0.595 7.68-0.479 1.658-3.862 3.729-8.591 4.56-12.48-3.285 0.55499-6.902 0.77798-10.56 0.95898zm-6.48 51.601c2.576 1.309 3.524 5.165 6.48 5.52 2.643 0.31702 6.093-2.277 8.88-1.92 5.636-13.804 10.793-28.086 16.08-42.24-7.718-0.76099-9.605-7.354-11.76-13.68-6.506 17.494-13.22 34.781-19.68 52.32zm74.879-42.72c-1.134 0.30798-4.017 0.94-6.24 0.95999 1.449 4.299 8.247 9.111 14.64 9.84 6.93 0.789 12.936-1.965 9.359-7.681-5.016-1.971-13.54 0.065002-17.759-3.119zm-11.04 1.44c-1.36 1.9-3.085 5.132-4.56 8.16-2.469 5.068-5.57 9.964-2.4 15.6 2.812 5 12.774 10.553 20.16 9.36 4.945-0.79901 6.959-8.659 8.88-12.48 1.821-3.621 4.341-6.989 5.28-11.04-10.557 3.299-20.594-2.963-24-9.84-1.172 0.028015-2.529-0.12997-3.36 0.24002zm3.6 42c-1.478 0.68298-3.235 1.085-4.8 1.68-0.617 2.824-1.558 5.322-2.16 8.16 1.54-0.45999 2.974-1.025 4.56-1.439 0.427-2.868 2.986-6.118 2.4-8.401zm-13.919 9.36c2.061 0.098999 3.497 0.823 5.52 0.96002 0.896-2.864 1.895-5.625 2.4-8.88-1.944-0.29602-3.921-0.55902-5.76-0.96002-0.41 3.122-2.073 6.231-2.16 8.88zm-4.8-6.721c-0.39902 3.121-1.46 5.58-2.16 8.4 2.011-0.47 3.462-1.498 5.52-1.92 0.68903-2.671 1.483-5.237 2.16-7.92-2.053 0.267-3.414 1.226-5.52 1.44zm-9.12 7.92c1.805 0.436 3.798 0.68301 5.52 1.2 0.707-3.054 1.754-5.766 2.4-8.88-1.826-0.33301-3.676-0.64401-5.52-0.95999-0.79596 2.885-1.637 5.724-2.4 8.64zm-60.48 49.681c-0.94101 2.535-3.093 6.719-2.88 8.399 0.138 1.093 1.685 2.226 2.16 3.36 0.73099 1.747 0.55899 3.115 1.2 4.56 0.631-0.24799 1.473-0.28699 2.4-0.23898-0.51601-4.867 4.813-4.425 5.52-0.96002 4.114-11.242 10.22-26.486 14.64-38.641 0.61298-1.686 2.065-4.496 1.92-5.76-0.116-1.004-1.811-1.85-1.92-3.36-0.21899-3.016 2.932-3.943 4.56-2.88 2.283-6.517 4.712-12.888 7.2-19.2-2.866 0.574-5.684 1.196-8.4 1.921-1.955-1.726-3.831-3.529-5.76-5.28-6.487 17.483-13.694 39.368-20.64 58.08zm55.92-56.641c-0.22202 3.14-2.12 5.879-1.92 8.641 1.669-0.73001 3.062-1.738 5.28-1.92 0.31-2.587 2.261-6.037 1.68-7.92-1.756 0.324-3.308 0.853-5.04 1.199zm-6-0.95999c-0.922 2.838-1.852 5.668-2.4 8.88 1.669 0.25101 2.93 0.91 4.8 0.961 0.77802-2.982 1.628-5.893 2.4-8.881-1.688-0.232-2.966-0.87302-4.8-0.95999zm-6.72 1.92c-0.83798 2.763-1.56 5.641-2.4 8.4 2.042-0.27798 3.583-1.058 5.52-1.44 0.51001-2.931 1.874-6.284 2.16-8.64-1.509 0.81198-3.48 1.161-5.28 1.68zm-6.24 0.48102c-0.54599 2.414-1.551 4.368-2.4 6.479 0.867 0.41302 1.726 0.83502 2.88 0.961 0.18698-0.534 0.13901-1.302 0.72-1.44 0.51599 0.60397 0.901 1.339 1.44 1.92 0.61798-3.142 1.68-5.84 2.4-8.88-1.058-0.302-2.091-0.629-3.12-0.95999-0.48999 0.79001-0.46497 2.094-1.92 1.92zm-5.28 26.16c34.328 48.232 68.629 96.49 103.2 144.48 3.783-6.297 7.97-12.19 11.76-18.479-36.147-47.129-71.869-94.694-108.24-141.6-2.116 5.324-4.637 10.244-6.72 15.601zm-6.48-4.321c-0.492 1.998 4.227 7.362 6 9.84 7.053 9.857 14.128 19.588 20.64 28.8 26.201 37.07 52.649 73.359 78.72 110.4 0.69998 0.99402 2.539 4.913 3.601 3.84 1.045-1.057-1.482-4.09-2.16-5.04-35.475-49.712-71.164-99.33-106.32-148.56-0.014008-0.146-0.036011-0.284-0.23999-0.23999-0.045013 0.42999-0.143 0.56198-0.24103 0.95999zm-2.64 24.96c32.596 48.77 65.04 97.679 97.68 146.4 3.784-5.736 7.343-11.697 11.279-17.28-33.943-48.291-68.2-96.282-102.48-144.24-2.016 5.185-4.557 9.844-6.48 15.12zm45.6-1.2c0.86798 0.332 0.883 1.518 1.68 1.92 0.16901-1.11 0.79102-1.769 0.96002-2.88-0.96902 0.232-2.2 0.20001-2.64 0.96002zm-51.361 8.401c1.383 0.69699 1.156 3.004 2.88 3.36 0.84399-2.356 1.459-4.941 2.16-7.44-0.95297-0.72699-1.078-2.282-2.4-2.64-0.81201 2.307-1.602 4.637-2.64 6.72zm4.321 4.08c1.54-0.70001 3.564-0.91602 5.04-1.68-1.38-1.421-2.043-3.558-3.6-4.801-0.30002 2.204-1.624 4.585-1.44 6.481zm-10.321 16.32c30.366 50.111 60.701 100.26 91.2 150.24 3.51-6.25 7.539-11.98 11.04-18.24-32.1-48.859-63.59-98.331-95.76-147.12-2.269 4.931-4.406 9.992-6.48 15.12zm-0.239 6c29.957 49.152 59.099 98.225 88.8 146.88 0.47699 0.78003 0.95599 2.243 1.44 1.68 1.844-1.552-0.57101-3.7469-1.2-4.8-30.813-51.578-63.294-103.1-93.84-154.56-0.30699-0.013-0.33299-0.30801-0.72-0.23901-0.22499 2.712 3.548 7.804 5.52 11.04zm-5.52 7.439c-1.028 2.342-2.969 5.203-2.88 6.96 0.107 2.101 3.762 6.723 5.28 9.36 27.156 47.18 54.009 96.234 80.4 142.56 3.963-5.317 7.277-11.283 10.8-17.04-30.1-49.819-59.98-99.86-90.48-149.28-0.90601 2.074-1.798 4.428-3.12 7.439zm143.28 65.041c-3.084 4.951-6.637 10.646-9.841 15.6-0.84799 1.312-3.53 3.486-1.439 5.04 4.118-6.761 8.628-13.132 12.72-19.92-0.58701-0.13501-0.51102-0.92902-1.44-0.71997zm-15.12 25.439c0.040009-0.60101-0.36899-0.75098-0.72098-0.95898-1.904 3.221-3.808 6.303-5.76 9.359-1.922 3.01-4.617 5.736-5.52 9.6 2.274-0.78601 3.001-3.495 4.319-5.52 2.814-4.321 5.61-8.297 8.16-12.48 0.24701-0.40497 1.641-1.461 0.72101-1.68-0.20801 0.75201-0.59402 1.325-1.199 1.68zm-27.84 44.4c-0.81702 1.296-3.359 3.292-1.44 4.8 3.769-6.712 8.362-12.598 11.76-19.68-0.453-0.026001-0.16598-0.79401-0.72-0.72003-3.122 4.833-6.527 10.725-9.6 15.6zm-11.52 18.241c-1.753 2.836-4.167 5.63-4.8 9.359 4.601-5.158 7.778-11.741 11.52-17.76-0.423-0.21698-0.396-0.883-0.95999-0.95996-1.818 3.373-3.846 6.265-5.76 9.361z" fill-opacity=".99"/>
<g fill="#fff">
<g fill="#818181">
<path d="m272.56 152.12h2.16c0.42801 1.332 1.445 2.075 2.4 2.88-2.03 0.506-3.79-1.329-4.56-2.88z"/>
<path d="m277.6 157.4c1.019-0.293 1.946 1.569 2.88 2.16-0.85599 0.129-1.642-1.874-2.88-2.16z"/>
<path d="m291.52 174.44c-3.977-1.784-6.413-7.187-8.88-11.28 0.59998-0.55701 1.255 1.487 1.92 2.4 2.011 2.76 4.877 6.136 6.96 8.88z"/>
</g>
<g fill-opacity=".99">
<path d="m264.88 273.8c-0.90802-6.108 1.627-10.853 7.2-11.28 8.772 2.868 12.101 22.519 4.08 28.8-6.939-0.82001-9.18-6.339-10.8-12.479 0.24402 4.024 6.585 9.531 8.64 4.32 1.863-4.725-1.382-15.045-6.48-13.921-1.835 0.405-2.095 2.406-2.64 4.56z" fill="#e7e4e1"/>
<path d="m490.96 297.32c4.718-8.242 9.677-16.242 14.64-24.239 0.854 0.10501 1.052 0.86801 1.681 1.199-9.2631 15.735-18.667 31.62-28.32 47.28-1.288 2.091-2.269 4.973-4.8 6-0.97699-2.403 1.055-4.646 2.16-6.479 3.396-5.637 7.342-11.547 10.56-17.521 0.63199-0.604 0.80899 0.603 1.44 0.72 1.403-1.992 5.253-4.49 2.639-6.96z" fill="#b5b5b5"/>
<path d="m270.64 335.48c-0.28601 2.355-1.65 5.709-2.16 8.64-1.937 0.38303-3.478 1.162-5.52 1.44 0.83997-2.76 1.562-5.638 2.4-8.4 1.8-0.51898 3.771-0.86801 5.28-1.68z" fill="#84c6dc"/>
</g>
<path d="m356.56 514.28c0.91998 0.21899-0.474 1.274-0.72101 1.68-2.55 4.184-5.346 8.159-8.16 12.48-1.318 2.024-2.045 4.733-4.319 5.52 0.90201-3.863 3.598-6.59 5.52-9.6 1.952-3.057 3.855-6.139 5.76-9.359 0.35199 0.20801 0.76099 0.35797 0.72098 0.95898 0.604-0.35498 0.99002-0.92798 1.199-1.68z"/>
</g>
</g>
</g>
<g stroke-opacity=".98824" stroke="#2b5460" fill="{{issLight}}">
<ellipse opacity=".87" rx="15.155" ry="12.417" transform="matrix(-.88394 .46759 -.28394 -.95884 0 0)" cy="-322.9" cx="39.733" stroke-width="2.929">
<title>issLight</title>
</ellipse>
<ellipse opacity="0.87" rx="10.367" ry="6.9713" transform="matrix(.71726 -.69680 0.805 .59328 0 0)" cy="255.94" cx="69.758" stroke-width="1.8345">
<title>issLight</title>
</ellipse>
<ellipse opacity=".87" rx="15.354" ry="18.721" transform="rotate(34.302)" cy="100.29" cx="591.53" stroke-width="4">
<title>issLight</title>
</ellipse>
<ellipse opacity="0.87" rx="9.5492" ry="10.479" transform="matrix(.96044 .27848 -.52360 .85197 0 0)" cy="-76.75" cx="565.05" stroke-width="2.1094">
<title>issLight</title>
</ellipse>
</g>
</svg>
