<svg xmlns:rdf="http://www.w3.org/1999/02/22-rdf-syntax-ns#" xmlns="http://www.w3.org/2000/svg" height="300" width="680" version="1.1" xmlns:cc="http://creativecommons.org/ns#" xmlns:dc="http://purl.org/dc/elements/1.1/" viewBox="0 0 680 300">
 <defs>
  <filter id="a">
   <feGaussianBlur stdDeviation="3.4085625"/>
  </filter>
 </defs>
 <g transform="translate(-757.14 272.06)">
  <title>Layer 1</title>
 </g>
 <text style="word-spacing:0px;letter-spacing:0px" xml:space="preserve" font-size="40px" y="649.51617" x="895.92316" line-height="125%"><tspan y="649.51617" x="895.92316"/></text>
 <text style="word-spacing:0px;letter-spacing:0px" xml:space="preserve" font-size="13px" y="952.16608" x="792.42133" line-height="125%"><tspan y="952.16608" x="792.42133"/></text>
 <text style="word-spacing:0px;letter-spacing:0px" xml:space="preserve" font-size="6px" y="962.39972" x="791.12543" line-height="125%"><tspan y="962.39972" x="791.12543"/></text>
 <text font-size="40px" xml:space="preserve" style="word-spacing:0px;letter-spacing:0px" y="-32.047638" x="98.365852" font-family="Sans" line-height="125%" fill="#000000"><tspan y="-32.047638" x="98.365852"/></text>
 <text font-size="18px" font-family="Sans" xml:space="preserve" style="word-spacing:0px;letter-spacing:0px" y="315.4798" x="449.75433" font-weight="bold" line-height="125%" fill="#000000"><tspan y="315.4798" x="449.75433"/></text>
 <g transform="translate(87.114 -167.21)">
  <text font-size="32.49px" xml:space="preserve" style="word-spacing:0px;letter-spacing:0px" transform="rotate(-90)" y="-740.2641" x="73.980637" line-height="125%"><tspan y="-740.2641" x="73.980637"/></text>
  <text font-size="10.559px" xml:space="preserve" style="word-spacing:0px;letter-spacing:0px" transform="rotate(-90)" y="-494.43677" x="-10.088734" line-height="125%"><tspan y="-494.43677" x="-10.088734"/></text>
  <text font-size="4.8735px" xml:space="preserve" style="word-spacing:0px;letter-spacing:0px" transform="rotate(-90)" y="-486.12445" x="-11.141315" line-height="125%"><tspan y="-486.12445" x="-11.141315"/></text>
  <g transform="matrix(-.20203 -.02302 .02302 -.20203 -420.8 439.17)">
   <text stroke-linejoin="round" style="word-spacing:0px;letter-spacing:0px" stroke-width="2.5909" stroke-opacity=".98551" font-family="Skia" xml:space="preserve" stroke-dasharray="31.09136276, 2.5909469" font-size="41.822px" transform="rotate(173.51)" stroke="#e5e5e5" y="-532.00525" x="110.77794" font-weight="100" line-height="125%" fill="#a42b23"><tspan y="-532.00525" x="110.77794" stroke-width="2.5909"/></text>
   <text font-size="61.474px" xml:space="preserve" style="word-spacing:0px;letter-spacing:0px" transform="matrix(-.99357 .1132 -.1132 -.99357 0 0)" y="-407.83047" x="134.32643" font-family="sans-serif" line-height="125%" fill="#000000"><tspan y="-407.83047" x="134.32643"/></text>
  </g>
  <g transform="translate(-581.43,229.79)">
   <g transform="translate(-63.853 24.775)">
    <title>Layer 1</title>
   </g>
   <text style="word-spacing:0px;letter-spacing:0px" xml:space="preserve" font-size="40px" y="402.22873" x="1589.2069" line-height="125%"><tspan y="402.22873" x="1589.2069"/></text>
   <text style="word-spacing:0px;letter-spacing:0px" xml:space="preserve" font-size="13px" y="704.87872" x="1485.705" line-height="125%"><tspan y="704.87872" x="1485.705"/></text>
   <text style="word-spacing:0px;letter-spacing:0px" xml:space="preserve" font-size="6px" y="715.11237" x="1484.4091" line-height="125%"><tspan y="715.11237" x="1484.4091"/></text>
   <text font-size="40px" xml:space="preserve" style="word-spacing:0px;letter-spacing:0px" y="-279.33539" x="791.64917" font-family="Sans" line-height="125%" fill="#000000"><tspan y="-279.33539" x="791.64917"/></text>
   <text font-size="18px" font-family="Sans" xml:space="preserve" style="word-spacing:0px;letter-spacing:0px" y="68.192184" x="1143.0378" font-weight="bold" line-height="125%" fill="#000000"><tspan y="68.192184" x="1143.0378"/></text>
   <g transform="translate(325.3 -340.28)">
    <g transform="translate(-179.94,-1033.6)">
     <g fill-opacity="0" transform="translate(-138.35,90.219)">
      <g stroke="#000" transform="translate(38,-7.0771)">
       <g transform="translate(599.39,443.53)">
        <path d="m324.55 838.32 1.1827-1.1971 1.7617-1.1057 2.498-0.7825 170.93-0.0133c1.0602 0.30306 2.2943 0.78966 2.8427 1.0437 0.49445 0.31341 1.0869 0.68372 1.6265 1.1311 0.42696 0.35392 0.80395 0.78999 1.192 1.0468l1.3428 1.6658 0.89226 2.1082 0.60702 2.2005-0.0907 114.82h-187.05v-116.32l1.1562-2.9801z" fill-opacity=".76777" transform="translate(2.0502e-6,-1.174e-5)" stroke-width=".099837" fill="#fff"/>
        <path d="m328.29 841.78 0.64017-0.66295 0.79907-0.56006 1.0288-0.36501h169.28l1.3878 0.49964 0.81466 0.59659 0.77992 0.70041 0.62648 0.76331 0.48516 1.0735 0.33209 1.1636v109.73h-177.31l0.0454-110.11 0.13719-0.96178 0.42216-1.0367z" fill-opacity="1" transform="translate(2.0502e-6,-1.174e-5)" stroke-width="8.9" fill="#007cff"/>
        <path d="m297.73 959.35h237.66l0.001 6.7469-0.30062 0.92382-0.6082 0.74579-0.97656 0.55969-1.3827 0.2797h-231.13l-0.99615-0.21608-0.9737-0.44021-0.7671-0.70294-0.52989-0.81864z" fill-opacity="1" transform="translate(2.0502e-6,-1.174e-5)" stroke-width=".1" fill="#b3b3b3"/>
       </g>
       <g fill-opacity="1" transform="translate(599.39,445.53)">
        <path stroke-width=".1" fill="#ccc" d="m297.69 957.31h237.74c0.007 2.266 0.0277 4.3729-0.00051 6.6386-82.493 0.0249-166.03 0.18242-236.93 0.25774-0.2754 0.00029-0.5506 0.002-0.8256 0.002-0.0466-2.1904 0.0124-4.7503 0.0124-6.8985z"/>
        <path stroke-width=".098197" fill="#b3b3b3" d="m404.7 957.31h23.718v1.6486l-0.15012 0.50242-0.33444 0.52811-0.40255 0.51137-0.43911 0.2587-0.48138 0.1281h-19.83l-0.58392-0.1708-0.52997-0.27172-0.42641-0.43064-0.42301-0.60158-0.11667-0.51435z"/>
        <rect ry=".16492" height=".64792" width="8.3277" y="960.54" x="504.16" stroke-width=".060334"/>
       </g>
      </g>
     </g>
    </g>
   </g>
   <g transform="matrix(.93186 -.36282 .36282 .93186 405.09 39.839)">
    <path fill-opacity=".24615" fill="#09080a" d="m457.19 261.88c-17.01 0-30.78 12.24-30.78 27.31s13.77 27.31 30.78 27.31c2.39 0 4.73-0.26 6.97-0.72 0.12 27.9 22.79 50.5 50.72 50.5 8.4 0 16.3-2.07 23.28-5.69 6.75 9.61 17.9 15.91 30.53 15.91 20.59 0 37.31-16.72 37.31-37.31s-16.72-37.32-37.31-37.31c-1.66 0-3.28 0.13-4.88 0.34-5.86-21.54-25.55-37.38-48.93-37.38-11.71 0-22.48 3.97-31.07 10.63-5.34-8.12-15.26-13.59-26.62-13.59z"/>
    <path d="m638.54 99.861c-12.868 0-24.335 11.489-24.335 21.309 0 9.8204 18.118 22.706 30.987 22.706 1.7639 0 3.5336-0.19349 5.2402-0.54297 5.3291-1.0907 10.324 2.9667 10.348 8.4062 0.0994 23.249 18.823 41.918 42.1 41.918 6.989 0 13.501-1.7042 19.312-4.7188 3.8298-1.9866 8.5384-0.83575 11.02 2.6934 5.2023 7.4015 13.724 12.244 23.48 12.244 15.927 0 28.693-12.766 28.693-28.693s-12.766-28.693-28.693-28.693c-1.1953 0-2.4261 0.0953-3.7539 0.26953-4.2744 0.56028-8.3055-2.1235-9.4375-6.2832-4.8562-17.852-21.125-31.018-40.621-31.018-9.7558 0-22.96 1.0214-30.092 6.5574-3.9703 3.0813-5.2408 0.98656-8.0028-3.2121-3.6244-5.5091-6.129-8.4561-14.719-8.4561z" fill-opacity=".96923" transform="translate(-181.68,164.31)" filter="url(#a)" fill="#e7e6e6"/>
    <path fill-opacity=".11282" fill="#282929" d="m478.43 283.3c-10.07 3.11-17.22 22.68-17.41 29.67 1.79 4.13 3.32 1.86 4.17-0.71 1.9-5.76 5.36-21.3 13.24-28.96z"/>
    <path fill-opacity=".11282" fill="#282929" d="m547.16 326.58c-9.42 4.74-13.22 25.22-12.25 32.14 2.45 3.78 3.59 1.28 4-1.39 0.91-5.99 1.75-21.89 8.25-30.75z"/>
   </g>
   <g transform="matrix(-.96847 -.24914 -.24914 .96847 1704.4 -28.168)">
    <path d="m457.19 261.88c-17.01 0-30.78 12.24-30.78 27.31s13.77 27.31 30.78 27.31c2.39 0 4.73-0.26 6.97-0.72 0.12 27.9 22.79 50.5 50.72 50.5 8.4 0 16.3-2.07 23.28-5.69 6.75 9.61 17.9 15.91 30.53 15.91 20.59 0 37.31-16.72 37.31-37.31s-16.72-37.32-37.31-37.31c-1.66 0-3.28 0.13-4.88 0.34-5.86-21.54-25.55-37.38-48.93-37.38-11.71 0-22.48 3.97-31.07 10.63-5.34-8.12-15.26-13.59-26.62-13.59z" fill-opacity=".24615" fill="#09080a"/>
    <path d="m638.54 99.861c-12.868 0-24.335 11.489-24.335 21.309 0 9.8204 18.118 22.706 30.987 22.706 1.7639 0 3.5336-0.19349 5.2402-0.54297 5.3291-1.0907 10.324 2.9667 10.348 8.4062 0.0994 23.249 18.823 41.918 42.1 41.918 6.989 0 13.501-1.7042 19.312-4.7188 3.8298-1.9866 8.5384-0.83575 11.02 2.6934 5.2023 7.4015 13.724 12.244 23.48 12.244 15.927 0 28.693-12.766 28.693-28.693s-12.766-28.693-28.693-28.693c-1.1953 0-2.4261 0.0953-3.7539 0.26953-4.2744 0.56028-8.3055-2.1235-9.4375-6.2832-4.8562-17.852-21.125-31.018-40.621-31.018-9.7558 0-22.96 1.0214-30.092 6.5574-3.9703 3.0813-5.2408 0.98656-8.0028-3.2121-3.6244-5.5091-6.129-8.4561-14.719-8.4561z" fill-opacity=".96923" transform="translate(-181.68,164.31)" filter="url(#a)" fill="#e7e6e6"/>
    <path d="m478.43 283.3c-10.07 3.11-17.22 22.68-17.41 29.67 1.79 4.13 3.32 1.86 4.17-0.71 1.9-5.76 5.36-21.3 13.24-28.96z" fill-opacity=".11282" fill="#282929"/>
    <path d="m547.16 326.58c-9.42 4.74-13.22 25.22-12.25 32.14 2.45 3.78 3.59 1.28 4-1.39 0.91-5.99 1.75-21.89 8.25-30.75z" fill-opacity=".11282" fill="#282929"/>
   </g>
  </g>
 </g>
</svg>
