<svg xmlns:rdf="http://www.w3.org/1999/02/22-rdf-syntax-ns#" xmlns="http://www.w3.org/2000/svg" height="100%" viewBox="0 0 266.51619 363.17589" width="100%" version="1.1" xmlns:cc="http://creativecommons.org/ns#" xmlns:xlink="http://www.w3.org/1999/xlink" preserveAspectRatio="xMinYMin slice" xmlns:dc="http://purl.org/dc/elements/1.1/">
<defs>
<linearGradient id="a">
<stop stop-color="#dd9019" offset="0"/>
<stop stop-opacity="0" offset="1"/>
</linearGradient>
<radialGradient id="b" gradientUnits="userSpaceOnUse" cy="110.86" cx="62.857" gradientTransform="matrix(.17858 -5.8924 6.1531 .18648 -1216.1 -803.66)" r="95.714">
<stop stop-color="#ffdebe" stop-opacity=".5736" offset="0"/>
<stop stop-color="#99641b" stop-opacity="0" offset="1"/>
</radialGradient>
<linearGradient id="c" y2="1039.6" gradientUnits="userSpaceOnUse" x2="42.623" gradientTransform="translate(0,-5.9225)" y1="1015.4" x1="15.536">
<stop offset="0"/>
<stop stop-color="#2e943b" offset="1"/>
</linearGradient>
<radialGradient id="j" xlink:href="#a" gradientUnits="userSpaceOnUse" cy="1072.3" cx="12.23" r=".98418"/>
<radialGradient id="k" gradientUnits="userSpaceOnUse" cy="1070.1" cx="15.483" r="1.92">
<stop stop-color="#dd19ae" offset="0"/>
<stop stop-opacity="0" offset="1"/>
</radialGradient>
<radialGradient id="l" gradientUnits="userSpaceOnUse" cy="1065.9" cx="19.383" r="2.9911">
<stop stop-color="#1975dd" offset="0"/>
<stop stop-opacity="0" offset="1"/>
</radialGradient>
<radialGradient id="m" gradientUnits="userSpaceOnUse" cy="1057.8" cx="23.582" r="3.8305">
<stop stop-color="#3bdd19" offset="0"/>
<stop stop-opacity="0" offset="1"/>
</radialGradient>
<radialGradient id="n" xlink:href="#a" gradientUnits="userSpaceOnUse" cy="1044.7" cx="23.839" gradientTransform="matrix(1 0 0 .95632 0 45.635)" r="7.0528"/>
<radialGradient id="o" gradientUnits="userSpaceOnUse" cy="1052.2" cx="23.528" gradientTransform="matrix(1 0 0 .51748 0 507.72)" r="3.2431">
<stop stop-color="#1975dd" offset="0"/>
<stop stop-color="#1975dd" stop-opacity="0" offset="1"/>
</radialGradient>
</defs>
<g transform="translate(943.58,-1236.5)">
<g transform="translate(-965.31,1095.9)">
<g transform="translate(0,-1151)">
<g transform="matrix(.25567 0 0 .25567 89.488 1153.5)">
<g transform="matrix(.87828 .47814 -.47814 .87828 393.3 -279.67)">
<g>
<title>Lightbulb</title>
<g>
<title>Light Bulb</title>
<ellipse opacity=".94712" rx="503.1" transform="scale(-1)" ry="578.27" cy="-1272.4" cx="-536.58" fill="url(#b)"/>
<g transform="matrix(17.725,-9.6497,9.6497,17.725,-9742,-16681)">
<g transform="translate(.17227 -.14017)">
<g transform="matrix(.87934 0 0 .87934 2.6194 122.02)">
<path d="m20.461 1050.7 6.1335-0.01c0 4-6.1335 4.006-6.1335 0.01z" stroke="#fff" stroke-width=".088160" fill="url(#o)"/>
<g fill="none">
<path d="m17.804 1040.7c4.1669-2.946 8.0945-2.4059 11.585-0.032 0.14137 0.8184-0.27803 1.5083-1.1178 2.1622 2.4066 1.057 0.89706 2.5003 0.1993 2.9835 2.2573 1.3191 2.1812 1.663 0.66601 3.0646-5.2509 3.1939-7.8229 1.7669-10.575 0.3023-1.1331-0.9599-2.0216-1.1177 0.9645-2.3302-2.3175-1.1772-2.0657-2.3353-0.09966-3.3432-1.3499-1.07-1.5386-1.7451-1.6225-2.8077z"/>
<path opacity="0.26" d="m24.013 1005.6c-8.008 0-14.5 6.492-14.5 14.5 0 3.4078 1.1884 6.5247 3.1562 9 0.009 0.011 0.02223 0.02 0.03125 0.031 3.0848 5.1457 3.3723 6.1735 3.9062 8.25 0.21377 0.8314 0.45657 2.5914 1.2812 3.4063 1.8461 1.8242 9.1157 2.3353 11.531 0 2.0691-4.148 3.5291-8.7439 5.875-11.625 2.0004-2.4857 3.2188-5.6235 3.2188-9.0625 0-8.008-6.492-14.5-14.5-14.5z"/>
<path opacity=".75" d="m24.3 1005.2c-7.7887 0.089-13.811 6.0526-13.799 13.897 0.0047 3.2885 1.4722 6.2125 2.8964 8.0208 1.2555 1.8218 3.3121 5.4871 4.0109 8.3928 0.38898 0.5498 0.42625 3.2096 1.1292 3.9513 1.0768 0.7948 3.1988 0.5999 5.3129 0.6157 1.8635 0.014 3.6673 0.347 4.7975-0.5267 1.2349-4.0563 3.3475-9.1021 5.5376-11.883 1.8295-2.2157 3.1534-4.2724 3.3845-8.7004 0.02317-7.2372-5.4716-13.21-13.269-13.768z" stroke="url(#c)" stroke-width=".44080"/>
<g transform="translate(.20586 -5.2198)" stroke="#845800" stroke-linecap="round" stroke-width=".44080">
<path d="m18.381 1025.7 3.4247 7.4596"/>
<path d="m28.616 1025.7-3.425 7.4776"/>
<path stroke-linejoin="round" d="m18.419 1025.7c1.0975 0.1673 2.5585-0.051 3.3482-1.2723 1.0495 0.5915 2.1224 0.9725 3.3482-0.022 0.79329 0.7468 1.8776 1.3589 3.4821 1.2946"/>
</g>
</g>
<path opacity=".5" stroke-linejoin="round" d="m20.416 1038.6 0.15264-9.5204c1.8754-1.6856 4.3546-1.6457 6.4241 0l-0.13468 9.5112" fill-opacity=".54822" stroke="#efefef" stroke-linecap="round" stroke-width=".28653"/>
<ellipse opacity="0.37" rx="5.0445" ry="3.6385" stroke="#fff" transform="matrix(.91154 -.41122 .4112 .91154 0 0)" cy="931.04" cx="-398.49" stroke-width=".28921" fill="none"/>
<path stroke-linejoin="bevel" d="m17.362 1040.4c4.1669-2.946 8.2706-2.8962 12.501 0 0.04667 1.0552 0.10078 1.8872-1.6071 2.4148 2.3909 0.2047 2.2071 1.9163 0.35714 2.8572 2.0521 0.9877 2.7651 1.6946 1.25 3.0962-4.9037 3.3991-7.8229 3.2821-12.501-0.045-0.83319-0.66-0.22222-1.5596 2.0536-1.9356-2.5859-0.4353-2.6813-2.8088-0.17858-3.1696-1.9932-1.2189-1.8069-2.1317-1.875-3.2184z" stroke="#cf0000" stroke-linecap="square" stroke-width=".44080" fill="url(#n)"/>
<path fill="#d59600" transform="translate(0,1004.4)" d="m19.538 39.271c1.2973 0.87453 3.1392 1.4027 8.8164 2.1095-4.4205 0.49526-8.4085-0.6312-8.8164-2.1095z"/>
<path fill="#d59600" d="m19.838 1046.7c1.2973 0.8746 3.1392 1.4028 8.8164 2.1095-4.4205 0.4953-8.4085-0.6312-8.8164-2.1095z"/>
</g>
<g stroke-linejoin="bevel" transform="translate(-1.9381,-4.6515)" stroke="#fff" stroke-linecap="round">
<circle opacity="0.87" stroke-width=".081632" transform="matrix(1,-1.8664e-6,-1.3805e-6,1,0,0)" cy="1057.8" cx="23.582" r="3.7897" fill="url(#m)"/>
<g stroke-width=".096906" transform="translate(1.1629,-1.1629)">
<circle opacity="0.87" stroke-width=".087215" transform="matrix(1,-3.0593e-6,-1.94e-6,1,0,0)" cy="1065.9" cx="19.383" r="2.9475" fill="url(#l)"/>
<circle opacity="0.87" transform="matrix(1,-3.0593e-6,-1.94e-6,1,0,0)" cy="1070.1" cx="15.483" r="1.8715" fill="url(#k)"/>
<circle opacity="0.87" transform="matrix(1,-3.0593e-6,-1.94e-6,1,0,0)" cy="1072.3" cx="12.23" r=".93573" fill="url(#j)"/>
</g>
</g>
</g>
<text style="word-spacing:0px;letter-spacing:0px;text-anchor:middle;text-align:center" font-family="Sans" xml:space="preserve" font-size="40px" transform="translate(0,1004.4)" y="46.073212" x="-24.158966" font-weight="bold" line-height="125%" fill="#000000"><tspan y="46.073212" x="-24.158966"/></text>
</g>
</g>
</g>
</g>
</g>
</g>
</g>
</g>
</svg>
