<svg xmlns:rdf="http://www.w3.org/1999/02/22-rdf-syntax-ns#" xmlns="http://www.w3.org/2000/svg" height="667.32" width="600" version="1.1" xmlns:cc="http://creativecommons.org/ns#" xmlns:xlink="http://www.w3.org/1999/xlink" viewBox="0 0 600.00184 667.32512" xmlns:dc="http://purl.org/dc/elements/1.1/">
 <defs>
  <radialGradient id="o" gradientUnits="userSpaceOnUse" cy="429.83" cx="273.41" gradientTransform="matrix(-.33381 1.1191 -.82058 -.24477 622.24 881.44)" r="309.13">
   <stop stop-color="#a3a3a3" offset="0"/>
   <stop stop-color="#696969" offset="1"/>
  </radialGradient>
  <radialGradient id="p" gradientUnits="userSpaceOnUse" cy="120.82" cx="124.4" gradientTransform="matrix(-.58369 1.9568 -.46930 -.13999 622.24 881.44)" r="102.27">
   <stop stop-color="#fff" offset="0"/>
   <stop stop-color="#fff" stop-opacity="0" offset="1"/>
  </radialGradient>
  <radialGradient id="q" gradientUnits="userSpaceOnUse" cy="82.897" cx="-88.068" gradientTransform="matrix(.7606 .48886 -.5936 .92358 211.85 1029.9)" r="388.16">
   <stop stop-opacity=".98039" offset="0"/>
   <stop stop-color="#181818" stop-opacity=".9451" offset=".75"/>
   <stop stop-color="#ffaa2b" stop-opacity=".50256" offset="1"/>
  </radialGradient>
  <filter id="n" y="-.10946" width="1.097" x="-.048482" height="1.2189">
   <feGaussianBlur stdDeviation="5.58425"/>
  </filter>
  <radialGradient id="r" gradientUnits="userSpaceOnUse" cy="161.84" cx="646.11" gradientTransform="matrix(1 0 0 .38384 0 99.72)" r="146.8">
   <stop stop-color="#fff" stop-opacity=".72941" offset="0"/>
   <stop stop-color="#e6e6e6" stop-opacity=".11282" offset="1"/>
  </radialGradient>
  <radialGradient id="s" gradientUnits="userSpaceOnUse" cy="161.84" cx="646.11" gradientTransform="matrix(1 0 0 .40992 0 95.499)" r="153.28">
   <stop stop-color="#fff" stop-opacity=".72941" offset="0"/>
   <stop stop-color="#7e7e7e" offset="1"/>
  </radialGradient>
  <filter id="a" y="-.32272" x="-.059167" width="1.1183" height="1.6454">
   <feGaussianBlur stdDeviation="15.099668"/>
  </filter>
  <filter id="d" y="-.17703" x="-.032948" width="1.0659" height="1.3541">
   <feGaussianBlur stdDeviation="8.282884"/>
  </filter>
  <filter id="l" y="-.23053" x="-.046781" width="1.0936" height="1.4611">
   <feGaussianBlur stdDeviation="11.938631"/>
  </filter>
  <filter id="m">
   <feGaussianBlur stdDeviation="15.760573"/>
  </filter>
 </defs>
 <g transform="translate(140.93 267.62)">
  <g transform="translate(-140.93,-467.65)">
   <g transform="matrix(.32768 0 0 .32768 -6.0586 202.08)">
    <path opacity=".45894" d="m473.52 1034.5c0.42395-1.3768 0.11822-5.0306 0.00091-8.9677-0.3017-10.131-9.2155-21.178-8.7587-30.984 0.0934-2.0053 0.0793-3.551 0.0401-4.9448 0.67158 1.5715 1.558 3.2759 3.0491 5.0837 7.0241 8.5162 10.689 23.031 11.207 17.529 0.21874-2.3244-0.11567-5.2895-0.64483-8.4429-0.0152-0.043-0.009-0.094-0.0239-0.1377-20.126-56.105-58.553-105.01-110.3-137.62-1.6608-0.45656-3.2536-0.98217-4.5344-1.7439-3.2944-1.9592-6.6639-2.6731-9.6331-4.4388-3.0251-1.799-6.2769-2.6569-8.7001-4.9432-3.0921-2.9174-7.0089-3.9942-11.276-4.1789-4.3935-0.19022-7.3874-2.2036-11.499-3.4302-4.1343-1.2332-7.1194-2.1308-11.218-1.7484-6.6122 0.61689-13.635 0.49899-20.411 0.20568-1.03-0.0446-2.0592-0.0942-3.0892-0.13883-4.622-0.20008-11.665-4.7757-16.026-3.9979-2.8732 0.5126-12.568 0.15459-13.875 4.5354-1.4261 4.7811-3.3968 6.7678-8.5548 7.6881-5.6956 1.0161-11.754-0.31826-17.796-0.57971-4.5345-0.19633-11.628-0.31329-15.388 1.7362-2.5052 1.3653-11.531 6.8003-5.6797 8.5455 3.5042 1.0453 9.4674 2.922 7.5525 6.1662-1.3596 2.3032-7.7229 0.74286-7.2682 3.3757 0.19109 1.1077 0.63218 2.1796 0.57979 3.3036-0.22908 4.9181-1.4157 7.5801-0.36782 11.728 1.1096 4.3921 7.5922 11.281 5.9618 16.746-1.2146 4.0717-2.519 13.434-8.1979 11.74-2.739-0.81705-11.018-1.3533-14.208 0.29451-1.9645-2.8677-3.9778-3.7998-7.8411-3.1217-3.7985 0.66675-4.1922 1.7497-9.1169 0.28068-1.904-0.568-0.0437-8.6847 0.12143-10.464 0.41717-4.4974 0.47892-4.7818-3.1778-6.9482-3.4398-2.0381-8.1589-0.19987-11.183-0.33567-3.683-0.16547-6.4889 1.6279-10.187 1.4617-3.995-0.17959-2.7923 1.1824-7.093-1.3657-2.7523-1.6307-6.8481 7.0529-7.9331 8.8843-2.0746 3.5016-3.4984 4.5516-5.2295 7.4732-1.6974 2.8651 3.5869 10.977 4.1136 13.977 1.2001 6.8373-5.8616 4.1383 2.7578 8.3558 0.0658 0.0325 1.3969 0.003 2.0564-0.006-7.4044 12.75-14.617 34.53-18.352 37.473 3.0584 6.0071 2.6556 15.752 5.2189 22.297 1.3772 3.5165-1.3709 12.723-0.60197 17.104 0.60123 3.4253 3.3164 5.7752 5.265 7.6035 3.8851 3.6452 5.2994 2.4469 5.0385 8.2534-0.14961 3.3298 6.771-0.771 9.7033-2.3559 3.8412-2.0761 5.4617-1.9246 10.225-1.4826 3.4737 0.3223 7.7527 4.227 9.5006 5.8669 3.7259 3.4958 6.5047 9.2358 9.5512 13.349 4.3034 5.8115 11.988 2.2117 16.62-0.2923 2.0087-1.0857 0.54275-8.0236 0.6136-9.6002 0.1486-3.306 11.359-1.8623 13.147-1.3286 6.6528 1.9846 15.653-5.5435 21.645-7.077 4.0065-1.0252 7.2472-7.9263 7.4198-9.7873 0.40558-4.3711-17.264-2.2054-18.965-1.907-5.0998 0.8952-10.736-0.2023-15.974-1.765-4.2036-1.2538-6.3905-3.1695-9.745-5.157-3.6052-2.136-4.9582-4.0771-5.7273-8.4589-0.81655-4.6522 0.0147-7.5928 1.4354-12.355 0.61609-2.0656 4.9759-4.548 6.1871-5.6549 2.641 0.11868-9.8123-21.711-21.058-25.065-9.7324-2.9032-11.525-2.2787-12.85-9.8339-0.40045-2.2822-0.8719-3.746-1.3076-5.5737 1.0316-1.3686 1.9452-2.6451 3.5013-4.3037 2.6818-2.8583 6.1946-3.5124 10.525-5.1109 4.0786-1.5055 7.3712-2.8035 10.35-4.4133 3.8211-2.0653 1.8259-6.4047 7.0903-6.1681 0.7143 0.0321 1.4186-0.14607 2.1278-0.24579-3.448 4.3801-5.2342 6.9573-5.5171 13.029-0.16827 3.6134-0.80162 13.643 2.1449 16.423 3.5518 3.3512 5.6121 2.8008 10.5 1.534 5.0215-1.3015 10.407-5.7827 15.712-5.5532 3.7003 0.16021 8.9676-2.0536 13.514-0.69769 5.0529 1.5073 4.4945 12.598 9.4131 13.048 5.304 0.48475 11.103-0.28493 16.455 2.5603 6.5681 3.4919 8.2754 10.336 12.364 16.276 4.1406 6.0165 9.344 7.8436 16.307 5.6795 9.2684-2.8806 2.9311-4.0768 8.778-8.4367 2.6452-1.9725 6.2898-3.7869 9.0585-6.7548 2.1383-2.2918 5.3786-6.1862 8.8444-6.0362 3.421 0.14812 7.0007 1.5062 10.705 0.84525 3.7529-0.66955 7.8706-1.2664 12.142 1.2741 4.343 2.5829 5.7874 3.866 6.6862 9.0714 0.65977 3.8213 0.44706 6.509 1.2929 11.408 0.82553 4.7813 1.051 6.9715-0.36785 11.728-1.1512 3.8592-2.2968 7.7001-3.4479 11.56-1.8582 6.2295-0.70351 12.854-2.5206 18.945l-4.5378 15.213c-1.1946 4.005-1.2284 6.8453-1.3674 9.8317-0.15845 3.4017-0.0188 5.7271 1.1874 9.0287 1.146 3.1368 3.518 6.4872 4.1011 9.8651 0.83216 4.8196 1.3424 8.6801 5.3152 11.042 2.1633 1.2865 5.9187 3.6669 7.9723 4.7588 0.80367 0.4273 8.6312 4.989 10.566 3.9345 4.2708-2.3276 5.6766-6.0906 9.2062-9.874 3.2764-3.5117 4.2299-1.0862 8.5489 0.2022 3.9156 1.168 9.8455 3.7317 11.856 7.4824 2.1879 4.082 7.2933 7.7418 7.0426 13.123-0.26168 5.6184 0.17174 10.098-3.1005 15.641-1.9686 3.3351-4.807 9.6513-4.1002 13.746 0.59646 3.4542 1.6314 9.944 6.7528 11.472 3.7261 1.1114 7.5967 1.8307 10.21-0.1178 1.3863-1.0337 7.4102-7.371 9.9924-7.2593 5.0155 0.2171 10.045-2.2452 15.46-7.2258 3.5522-3.2667 5.9738-5.8144 8.4794-10.059 2.409-4.0812 9.4468-8.0555 10.792-12.564 1.0919-3.6606 3.484-8.4483 3.6624-12.278 0.18166-3.8996-0.59768-5.8676 0.64875-10.046 1.2304-4.1246 3.4474-6.3095 4.4656-9.7229 1.1171-3.7452 1.1382-7.2118 0.64875-10.046-0.55116-3.1923-0.39551-6.2378-1.003-9.7564-0.47574-2.7554-2.5245-4.6941-4.0256-7.4947-1.5187-2.8334-4.7809-5.2182-1.2174-9.0376 1.6528-1.7715 5.8985-5.2904 5.1754-9.4786-0.48523-2.8104-2.1693-8.5448-3.6635-11.332-2.4507-4.5723-4.4321-6.9763-7.9002-10.249-2.9471-2.7806-6.1632-7.0617-9.7752-9.2097-3.9325-2.3387-6.7761-4.884-9.271-8.2767-2.5516-3.4699-5.4545-5.9401-6.2483-10.538-0.51198-2.9653-2.4379-6.2488-0.0699-10.26 1.3236-2.2424 5.6146-5.4344 8.4157-4.5988 4.2811 1.277 7.3142 3.5152 10.847 5.6162 2.3611 1.4042 15.525 9.7082 13.154 11-1.1394 3.8198 0.85561 8.6793 1.7882 12.371 1.0942 4.3312 3.1112 8.5876 4.4578 13.918 2.0258 8.0185 6.2104 18.352 10.268 25.923 2.8068 5.2367 3.9596 6.1412 4.3835 4.7643zm-350.15-61.98c-0.59675-1.1722-1.3108-2.2142-2.2228-3.0436 0.41922 2.8705 1.1591 3.8817 2.2228 3.0436zm-2.2228-3.0436c-0.40222-2.7535-0.54376-7.1478-0.21419-14.477 0.23408-5.2076 1.2742-11.139-4.7605-6.6705-4.7425 3.5118-6.0862 7.8311-7.7579 13.437-0.87513 2.9338 7.6189 5.2728 9.5096 5.8369 1.2862 0.38369 2.331 1.0632 3.2236 1.8747zm275.24 191.28c0.44918-1.8488 0.78977-3.7407 1.2549-5.3 0.75794-2.5408-5.3823-9.4571-7.1771-11.141-3.839-3.6019-8.6247-5.6055-13.663-7.1086-5.0524-1.5071-8.2259-1.3939-13.053-1.6108-5.2486-0.2359-10.097-0.1858-15.214 0.7123-7.0389 1.2355-14.26 5.2436-20.259 7.4579-4.8584 1.7934-7.0638 2.3816-10.945 6.5185-3.3895 3.6126-5.0029 6.6047-6.903 12.975-2.1668 7.2641-2.3252 19.708-0.48775 26.889 1.0974 4.2868 1.2155 8.7839 2.0173 13.352 0.78963 4.4987 6.1594 7.5616 8.9866 10.214 3.1863 2.9896 8.9914 2.7062 12.47 5.9699 3.9084 3.6671 8.3946 2.8974 12.355 1.4354 4.6367-1.7115 10.213-6.9934 11.972-9.9621 1.4826-2.5023 7.2668-3.9501 10.042-6.0052 4.1425-3.0675 6.9926-5.5414 10.008-8.2979 2.6208-2.3952 2.6672-4.3302 5.4984-5.8603 2.614-1.4128 2.878-0.4117 4.882-3.7939-0.63626-2.1026-0.1122-7.1673 1.2298-11.667 1.0676-3.5791 3.3013-6.5979 5.1481-9.715 0.82456-1.3918 1.3868-3.2127 1.8359-5.0614zm-84.467 149.37c0.4069-2.0746-3.0059-7.7627-5.0516-8.9747-2.9589-1.7532-5.2803-3.0752-8.5429-4.0486-2.9383-0.8764-6.2916-2.5588-8.9838-2.6798-4.7843-0.2149-5.3819 1.8002-7.5763-2.2599-1.7892-3.3102-3.06-1.0816-6.0541 2.6944-2.1823 2.7523-3.4024 5.2802-5.7338 6.5402-3.1593 1.7076-4.9267 0.5534-7.8425 3.6611-2.2016 2.3465-7.0122 3.2374-8.7456 4.1742-3.0498 1.6484 0.0367 9.5054 0.36197 11.359 0.62104 3.5381 2.5023 5.7451 4.1354 8.7666 1.9049 3.5245 5.733 3.9298 8.5729 4.0573 3.8044 0.1711 6.9893-2.7517 2.3441 2.1994-4.8031 5.1192 1.1332 4.6963 3.9994 4.1932 4.1341-0.7257 8.7974-2.0282 13.113-3.6214 4.097-1.5123 6.3535-2.2007 9.6306-4.6276 1.8841-1.3952 4.0826-7.2327 4.7372-8.3375 1.4108-2.3812 4.6528-2.5398 7.1626-3.8964 2.6074-1.4092 3.0722-5.2701 4.0485-8.543 0.22937-0.124 0.36583-0.3598 0.42397-0.6562zm4.3192-55.258c0.78514-2.2257 0.82073-4.4767-0.33963-6.6235-2.468-4.5662-5.4834-6.4807-7.2072-11.15-1.2519-3.3917-0.8799-7.4304-0.76391-10.011 0.19407-4.3179 0.9109-8.7192 2.8041-11.914 2.3828-4.0217 0.99537-6.9053-0.0752-9.8056-1.5017-4.0683-3.6368-4.4931-3.4556-8.5312 0.18372-4.0868-3.8711-1.726-0.70048-7.7095 1.0345-0.559-5.1728-9.5704-5.8207-10.77-1.845-3.4136-2.8721-6.383-5.111-10.525-2.257-4.1761-5.6847-6.1961-10.156-3.7795-3.3407 1.8055-8.9278 3.2632-12.18 3.117-7.8621-0.3533-14.496 1.906-21.995 3.2222-7.1231 1.2503-7.0528 4.6466-14.277 2.4917-4.6448-1.3854-6.5234-0.032-8.7367 4.1444-2.07 3.9063-3.259 8.4109-4.6013 12.911-1.2958 4.3444-2.5446 4.4912-6.9482 3.1778-1.8498-0.5519-4.6812-6.4768-5.2739-7.5736-1.6566-3.0651-2.5298-3.7548-6.7546-5.0151-3.2001-0.9546-6.9367 6.4539-9.4858 9.171-3.119 3.3244-1.5569 8.9238 0.14744 12.077 1.8802 3.4787 6.9391 5.2169 9.5821 8.1088 2.9603 3.239 9.1206 3.6897 12.295 6.6675 3.4818 3.2669 7.0014 6.1657 10.989 8.5287 2.697 1.5979 4.0059 3.8834 3.8574 7.1837-0.20773 4.6237-1.5119 5.4125-4.5317 7.6487-2.7421 2.0306-3.3096 6.066-4.4593 9.9204-1.3153 4.4094-0.92157 7.8456-0.3357 11.183 0.60973 3.4737-9.3881-0.083-10.978-1.0244-3.7286-2.2092-7.5507 0.016-11.359 0.362-4.573 0.4155-4.9896 3.0119-10.905 1.2472-3.7442-1.1168 1.2915-5.6151-3.8665-7.1537-2.3524-0.7017-5.1758 2.9084-8.3258 2.7668-3.6336-0.1633-1.4158-6.1926-7.4008-2.9577-4.3253 2.3377-4.829 6.1307-6.2568 10.917-1.9401 6.504 0.31374 3.2552-6.1871 5.6548-3.5184 1.2988-3.9664 0.7247-5.5073 5.8903-1.6495 5.53-0.65162 5.7292-6.8757 5.4495-5.1519-0.2316-5.5797-2.7947-7.2679-5.9181-1.6654-3.0814-0.28012-6.9782-1.6582-9.5278-1.9656-3.6368-9.5593 2.914-11.017 4.2466-5.1624 4.7183-3.8325 10.011-0.87083 15.491 3.0278 5.6019 1.9219 8.4683 8.3403 12.271 4.5348 2.6868 14.408 0.9039 18.409-1.2589 3.2365-1.7493 8.834 5.2252 10.228 6.0513 3.6667 2.1725 7.0581 3.6055 11.298 4.8702 3.9569 1.1804 4.8042 6.3784 4.6576 9.6401-0.23313 5.1871-1.0112 5.6988 4.5552 7.3592 5.3898 1.6077 6.3836 0.4017 10.875-1.2562 4.4044-1.6258 7.5382-9.0717 13.102-11.125 2.7425-1.0123 4.4121 6.6239 4.5463 7.3892 0.8112 4.6211 8.5859-4.4738 8.9511-4.863 2.6642-2.8397 0.92982-6.1587 3.3597-8.7485 2.8646-3.0532 11.075-5.4083 14.14-7.0651 3.193-1.7257 5.0121-3.9327 7.0813-6.1381 2.7741-2.9568 3.9198-5.6835 4.0484-8.543 0.13952-3.1049-8.6908-3.779-10.815-3.976-4.1593-0.3858-5.8038-6.5044-10.086-9.0418-3.2682-1.9364-3.5965-5.3957-3.4556-8.5313 0.15354-3.417 10.804-1.2779 12.942-0.6398 3.4657 1.0338 4.4906 5.9572 6.6514 7.9845 2.4187 2.2692 8.2599 1.8136 10.054 1.4988 1.886-0.331 1.4669-9.9462 1.9099-11.431 1.1892-3.9865 8.9289 5.7849 9.3341 6.5345 2.546 4.7109 2.0838 6.0267 5.6549 6.1872 1.0127 0.046 9.3057-11.348 10.522-12.645 3.7468-3.9935 6.7435-3.9889 11.317-2.6249 3.1646 0.944 6.7019 2.7491 10.126 3.7706 5.0778 1.5146 6.5104 2.9672 10.011-0.764 1.9288-2.0558 3.467-4.2673 4.2522-6.4929zm27.058-124.5c1.15-2.6213 0.10685-5.9554-1.3404-7.3133-3.4292-3.2174-6.3549-1.3318-8.8814-0.3991-3.655 1.3491-4.9793 0.4539-7.1954-3.6464 0.94161-3.1567-5.7502-13.411-3.6032-20.609 1.3541-4.5391 1.4592-10.279 0.94297-13.22-0.69683-3.9706-2.6668-5.2959-6.3436-6.3926-1.4127-0.4214-5.4304 2.8894-8.3557 2.7579-3.7096-0.1668 0.082-9.045 0.819-10.289 1.874-3.1631 3.0526-3.4424 5.015-6.7545 1.8951-3.1985-5.7787-6.9741-8.2045-7.6976-4.1622-1.2415-5.9565 1.9734-10.7 0.5586-1.3011-0.3881-2.0136-9.6127-2.1504-10.392-0.84542-4.8158-2.618-9.1061-6.0687-12.344-3.4778-3.2629-8.1375 0.1763-9.5277 1.6582-4.1299 4.4017-2.6683 6.6667-8.1173 9.6119-6.2806 3.3945-11.868 2.7432-16.609 7.7963-3.5043 3.735-4.469 7.4384-5.9789 12.5-1.9376 6.4958 2.9385 11.466 6.4488 16.207 3.9251 5.3005 9.3742 3.1421 12.95-0.6697 5.4476-5.8063 11.794-16.228 19.144-21.323 3.6942-2.5609 6.1274-4.6966 8.8814 0.3991 3.1642 5.8545 4.985 7.8676 5.8932 13.042 0.62343 3.5522 0.2645 6.6566-1.0156 10.947-1.9179 6.4293 0.16382 8.6023-6.6677 12.295-4.8582 2.6258-5.6533 3.6358-9.9989 8.2679-4.3343 4.6197-1.4288 6.5745-6.5344 9.334-3.7948 2.051-5.8304 5.4829-6.0423 10.198-0.23055 5.1285 6.8271 10.679 9.3369 14.069 3.1037 4.1914 7.0621 7.1229 12.059 7.3476 4.8765 0.2191 4.6368-3.1172 10.217-1.4528 5.3676 1.601 5.0104 3.3189 7.5736-5.2739 1.9184-6.431 4.5538-7.6421 10.042-6.0051 2.7442 0.8186 5.7068 3.9524 9.745 5.157 4.0824 1.2178 9.2148-4.0199 12.314-6.0776 0.93786-0.6227 1.5706-1.413 1.9541-2.2869zm-103.41 211.7c0.51304-1.2226-0.54014-2.744-1.0515-4.1289 0.20466-4.5535-13.662-3.0401-16.899-1.2907-9.2195 4.9829 0.52192 2.0969 5.51 1.6437 4.5292-0.4115 2.5761 5.4612 2.9633 7.6669 0.46946 2.6748 7.3067-2.216 8.3646-2.7877 0.59777-0.3231 0.94083-0.6958 1.1118-1.1033zm33.878-354.66c0.57808-1.2768-0.38305-2.7376-2.7723-4.1532-3.3737-1.9988-7.8148-0.0809-11.637-1.2209-3.8157-1.1382-6.4444-6.2408-9.6119-8.1173-4.2378-2.5109-4.0528-2.154-5.8604-5.4984-0.57043-1.0554 0.68443-2.2942 1.0274-3.4438-0.90976-3.5556-6.5874-3.2862-9.745-5.157-3.2276-1.9123-3.7954-3.4149-7.6398-4.5617-2.8478-0.8495-5.1538-3.0374-8.5431-4.0484-4.5008-1.3426-5.1632-1.7188-8.7059-1.0969-3.941 0.69172-5.0897 2.1825-8.0569 4.3797-3.0335 2.2464-4.0013 6.952-3.2872 11.02 0.80233 4.5709 1.1722 6.1356 2.8302 10.627 1.3206 3.5776 1.6036 7.0347 1.4616 10.187-0.12651 2.8174-0.50865 7.2658-0.61352 9.6001-0.10777 2.3969-4.7769-3.1953-6.8876-2.0545-3.6605 1.9785 0.85234 7.9904 1.1838 8.6036 1.1033 2.0414 10.146-2.4194 11.317-2.6249 3.0651-0.53801 5.4832-5.8647 7.7066-8.2344 3.7348-3.9808 5.6543-4.7892 10.453-7.3826 6.6654-3.6025 6.0574-0.60347 7.8812-3.6819 2.0935-3.5334-0.75474-3.4675 9.0146-2.5613 6.2977 0.58418 7.8988 5.4815 12.573 8.2505 4.3116 2.5546 6.1745 5.1168 11.503 4.1815 3.7197-0.6529 5.8316-1.7354 6.4097-3.0122zm-91.97 226.86c0.0993-2.2098-4.7361-1.2806-5.788-3.2266l-2.4165-4.4711c-5.2806-9.7703-8.6216-8.2913-17.527-6.7278-4.0755 0.7153-8.8412 0.8241-12.942 0.6398-5.1033-0.2293-6.8646 5.3024-8.1471 9.603-1.7016 5.7046-4.0954 5.0191-6.731 9.9929-3.0532 5.7618 5.2202 9.0902 9.6753 10.419 5.2882 1.5775 9.3875 2.637 13.159 6.1755 6.8824 6.4572 13.81 3.5378 20.27 0.046 4.6589-2.5181 2.8548-8.9919 3.0183-12.633 0.26479-5.8923 1.4829-7.4091 7.4287-9.8173zm73.324-373.99c1.1513-1.227-8.6736-4.0874-11.328-4.8792-3.4668-1.0341-6.1164-1.1474-9.3648-1.2933-4.9217-0.22119-5.2837 0.91301-3.5045 4.205 0.72333 1.3383 8.6925 2.5929 10.331 3.0818 4.1947 1.2513 7.3009 0.36444 9.8056-0.0752 1.3778-0.24185 2.7048-0.69217 4.0601-1.039z" fill-rule="evenodd" fill="url(#o)"/>
    <path opacity=".65217" d="m482.95 1171.9c19.291-64.668 13.146-130.86-12.545-187.96 0.93641 10.807 7.1405 60.567 7.9019 64.904 6.812 38.809-4.1088 98.054-24.463 132.4-2.017 3.4043-4.0342 6.8239-6.0512 10.228-9.7583 16.47-14.068 37.105-19.629 55.746-3.3849 11.348 3.3639 12.789 11.34 10.524 19.001-25.088 33.925-53.93 43.446-85.851z" fill-rule="evenodd" fill="url(#p)"/>
    <path opacity=".24155" d="m462.92 1212.7c32.276-59.962 31.551-127.74 4.3295-191.27 0.0315 11.051 2.6443 62.4 3.1597 66.93 4.6113 40.537-16.153 97.141-46.479 126.49-3.0052 2.9086-6.0122 5.8325-9.0171 8.7412-14.538 14.072-22.432 33.662-31.735 50.947-5.6635 10.522 2.979 13.636 13.63 13.342 27.542-20.411 50.179-45.59 66.11-75.187z" fill-opacity="0" stroke="#22a729" stroke-width="1pt"/>
    <path opacity=".16425" d="m172.33 880.25 24.588-1.3316-33.897-7.1084 33.789 6.8379-24.599-11.572 26.653 10.661-1.4903-8.2095 7.5865 9.75 18.886-3.5459-17.555 4.0947 33.848 4.6332-31.743-2.9752 30.498 9.2518-32.702-9.3097 16.838 11.407-19.587-11.175-9.5377 6.24 4.187-7.5167-25.763-0.13115z"/>
    <path opacity=".16425" d="m400.49 1084a14.251 10.688 84.215 0 1 -2.8729 -28.357 14.251 10.688 84.215 1 1 2.8729 28.357z"/>
    <path opacity=".16425" d="m362.31 943.69a12.215 8.1434 34.762 0 1 9.2866 -13.38 12.215 8.1434 34.762 1 1 -9.2866 13.38z"/>
    <path opacity=".16425" d="m279.77 1236a6.1077 8.6525 45.657 0 1 12.376 -12.095 6.1077 8.6525 45.657 0 1 -12.376 12.095z"/>
    <path opacity=".16425" d="m285.94 1317.6a4.0717 10.179 66.373 1 1 -3.2637 -7.4608 4.0717 10.179 66.373 1 1 3.2637 7.4608z"/>
    <path opacity=".16425" d="m306.35 865.83a5.0896 4.0717 16.61 1 1 2.3278 -7.8036 5.0896 4.0717 16.61 0 1 -2.3278 7.8036z"/>
    <path opacity=".16425" d="m63.232 1018.5a5.0896 4.0717 16.61 0 1 2.3278 -7.8036 5.0896 4.0717 16.61 1 1 -2.3278 7.8036z"/>
    <path opacity=".16425" d="m60.939 1026.3a15.269 12.215 16.61 1 1 6.9834 -23.411 15.269 12.215 16.61 0 1 -6.9834 23.411z"/>
    <path fill="url(#q)" d="m453.06 1212.6c-33.197 58.159-84.726 99.305-143.16 120.32-71.813 25.82-154.06 21.232-225.53-19.558-129.65-74-174.77-239.1-100.8-368.7 73.98-129.66 239.07-174.79 368.72-100.79 129.65 73.99 174.77 239.09 100.77 368.69z"/>
    <g transform="matrix(3.0518 0 0 3.0518 710.7 -935.02)">
     <g fill="#d6d6d6" transform="translate(-399.01 459.27)" fill-opacity=".47843">
      <g transform="matrix(.64 0 0 .64 267.91 83.016)">
       <path fill="#1d1d1d" d="m714.71 101.27c-21.751 0-40.967 6.8644-50.446 26.31-27.373-11.853-107.77-26.432-115.25 4.4288-4.6999 19.401 15.044 16.683 19.777 14.16 4.7342-2.5238-12.605-0.97831-17.925-0.65837-27.448 1.6508-53.094 8.5136-55.123 23.102-3.6661 26.364 55.882 18.849 71.979 18.849 3.4324 0 6.7235-0.64551 9.7832-1.8234 44.685 21.265 98.461 24.359 168.48 21.041 5.8099 8.0219 14.852 13.198 25.007 13.198 29.551 0.0326 37.324-41.188 0-68.535-0.0628 0-0.12497-0.00039-0.18763 0-2.1931-31.582-26.29-50.072-56.094-50.072z" fill-opacity=".74872"/>
       <path fill="#ccc" d="m583.56 185.21s-23.765-9.6157-19.067-12.119c-3.745 3.2752 14.73 14.021 14.73 14.021l4.3367-1.9024z" fill-opacity=".87692"/>
       <path fill="#fff" d="m564.24 159.52s14.131 4.5963 19.794 8.2809c-5.5124-5.5253-15.606-9.086-15.606-9.086z" fill-opacity=".45128"/>
       <path stroke-linejoin="round" d="m709.37 110.75c-20.458 0.42936-38.408 6.7878-46.967 23.913-25.963-9.7839-101.85-20.896-108.32 6.1327 49.555 38.882-41.213-8.7323-49.435 32.935-2.9663 23.036 52.906 15.315 68.047 14.997 3.2284-0.0677 6.3122-0.69498 9.1682-1.7813 42.418 17.641 93.056 19.274 158.85 15.002 5.6113 6.8727 14.21 11.202 23.762 11.002 27.796-0.55488 34.354-36.613-1.2528-59.697-0.0591 0.0002-0.11754 0.002-0.17649 0.003-2.6401-27.466-25.643-43.096-53.676-42.507z" fill-opacity="1" stroke="url(#r)" stroke-width="4.2187" fill="url(#s)"/>
       <g fill="#e4e4e4" transform="translate(-2.6974 1.3487)" fill-opacity=".87692">
        <path fill="#cfcfcf" d="m745.91 200.47s-16.461-18.003-15.475-26.512c-2.5559 11.663 11.106 26.834 11.106 26.834z" fill-opacity=".50769"/>
        <path d="m666.78 134.3s-7.0957 13.487-5.2234 18.34c-3.396-4.3951 3.3438-19.779 3.3438-19.779l1.8802 1.439z"/>
        <path d="m717.02 110.16c-6.2238-0.86236-20.889-2.5898-25.999 3.8426 15.133-5.2155 42.644 1.1476 53.876 11.533 11.159 8.0791 24.199 31.999 17.548 41.068 5.9358-5.1794 4.0346-17.901-1.3958-28.489-4.0807-7.9568-10.999-14.674-13.401-16.277-5.5992-3.7354-3.876-2.8952-10.581-6.333-6.7052-3.4378-13.824-4.4826-20.048-5.345z"/>
       </g>
       <g transform="matrix(.64 0 0 .64 -383.67 392.69)">
        <path fill="#232323" d="m720 123.09c-25.36 0-47.387 14.347-58.438 35.344-11.07-11.3-26.5-18.34-43.56-18.34-19.173 0-36.283 8.8718-47.469 22.719-5.8654-4.8091-13.36-7.7188-21.531-7.7188-18.768 0-34 15.232-34 34s15.232 34 34 34c4.002 0 7.8392-0.69697 11.406-1.9688 8.297 23.837 30.941 40.969 57.594 40.969 9.2122 0 17.948-2.0575 25.781-5.7188 6.0278 12.264 18.639 20.719 33.219 20.719 15.318 0 28.474-9.3154 34.094-22.594 2.9168 0.39456 5.8818 0.59375 8.9062 0.59375 13.637 0 26.321-4.1549 36.844-11.25 6.774 8.6616 17.316 14.25 29.156 14.25 20.424 0 37-16.576 37-37s-16.576-37-37-37c-0.0732 0-0.14569-0.00042-0.21875 0-2.557-34.1-31.031-61-65.781-61z" fill-opacity=".94359"/>
        <path filter="url(#n)" fill="#959595" d="m720 132.99c-21.626 0-40.285 12.212-49.676 30.055a9.9012 9.9012 0 0 1 -15.834 2.3164c-9.2964-9.4917-22.146-15.371-36.49-15.371-16.119 0-30.385 7.4233-39.768 19.039a9.9012 9.9012 0 0 1 -13.979 1.4356c-4.1817-3.4286-9.4332-5.4746-15.254-5.4746-13.411 0-24.1 10.688-24.1 24.1 0 13.411 10.688 24.1 24.1 24.1 2.8526 0 5.5528-0.49276 8.082-1.3945a9.9012 9.9012 0 0 1 12.674 6.0723c6.9427 19.946 25.834 34.322 48.244 34.322 7.7381 0 15.026-1.7191 21.59-4.7871a9.9012 9.9012 0 0 1 13.076 4.6016c4.4111 8.9748 13.581 15.186 24.334 15.186 11.304 0 20.871-6.8515 24.977-16.553a9.9012 9.9012 0 0 1 10.443 -5.9512c2.4723 0.33443 4.9903 0.50391 7.5801 0.50391 11.626 0 22.358-3.5234 31.309-9.5586a9.9012 9.9012 0 0 1 13.334 2.1094c4.9763 6.363 12.633 10.449 21.357 10.449 15.067 0 27.1-12.032 27.1-27.1 0-15.067-12.032-27.1-27.1-27.1-0.11105 0-0.16466 0.00002-0.16211 0a9.9012 9.9012 0 0 1 -9.9297 -9.1602c-2.16-29.02-26.25-51.84-55.89-51.84z" fill-opacity="1"/>
        <g fill-opacity=".47843">
         <path d="m560 218.59s-4.75-27.5 3.5-32c-12.75 5-10.5 35.25-10.5 35.25l7-3.25z" fill="#d6d6d6"/>
         <path d="m758 242.59s-4.75-27.5 3.5-32c-12.75 5-10.5 35.25-10.5 35.25l7-3.25z" fill="#d6d6d6"/>
         <path d="m663.28 159.99s22.288 15.207 19.33 26.886c6.8986-12.961-15.166-32.207-15.166-32.207l-4.1647 5.3209z" fill="#fff"/>
         <path d="m677.33 205.09c-17.293 0-31.327 14.035-31.327 31.327 0 2.5225 0.30931 4.9787 0.87314 7.3291-0.003-0.18536-0.0265-0.36951-0.0265-0.55563 0.00003-17.293 14.035-31.327 31.327-31.327 14.767 0 27.15 10.24 30.454 23.998-0.29764-17.036-14.194-30.772-31.301-30.772z" fill="#e4e4e4"/>
        </g>
       </g>
      </g>
     </g>
    </g>
   </g>
  </g>
 </g>
 <g transform="translate(6.9476 -.072423)">
  <g transform="matrix(.16777 0 0 .16777 128.29 365.96)">
   <title>Layer 1</title>
   <g stroke-width="5">
    <g opacity=".75" transform="matrix(.74885 0 0 .93973 -740.27 411.93)" filter="url(#l)" fill="#fff">
     <path filter="url(#d)" opacity=".41111" d="m379.13 219.53c32.649 13.047 132.05 19.101 1.7891 7.5759 30.726-9.9705 119.98-56.146 120.99-8.1535-17.889 10.982 12.426 10.891 10.835 10.754-87.384-7.5184-68.799 0.0266-36.265-11.579 45.943-15.142 102.41-31.659 107.98 26.033 5.3399-0.63961 21.373-1.3986 16.02-1.9188-20.513-1.9936-41.29-0.29015-61.778-2.5282-11.404-1.2458 22.792-3.3695 34.263-3.244 89.246 0.97668 63.506-2.3166 106.47 4.1553 6.0897-0.2204 24.357-0.40156 18.269-0.66122-21.671-0.92418-43.39-0.36183-65.059-1.3342-5.3229-0.23885 10.633-0.87689 15.961-0.86896 30.731 0.0458 61.491 2.4726 92.189 1.0302 26.628-1.2511-54.159 1.3836-79.736-6.1264-33.392-11.064-173.96-29.539 3.3166-17.738 21.062 1.402 60.617 30.781 79.79 42.311 52.904 39.522-172.69 14.65-71.544-13.495 41.223 0.61927 82.463 0.49199 123.67 1.8578 61.581 2.0412-34.111 32.001-89.453 13.946-7.6108-5.2305-108.74-22.281-106.82-31.919 1.2739-6.4002 10.856-7.244 16.285-10.866 54.067 0.54388 119.11 1.0438 169.61 27.67-3.9611 15.207-1.0822 8.1402-8.4044 21.293l-67.916-4.882c8.0734-4.175 7.4036-1.9002-1.9486-6.8423-30.389-7.9302-151.98-32.979-24.822-27.374 1.5109-20.361 85.341 11.192 101.73 23.16 32.303 11.09-3.7058-2.6316-46.943 4.7866-3.387 0.58108 4.6945 5.0198 7.0418 7.5297-7.4165 0.26163-14.833 0.52329-22.249 0.78488-9.0502-0.25216-36.068-1.1048-27.075-2.1592 22.794-2.6728 45.864-1.822 68.795-2.733-10.309-0.86566-20.731-0.84909-30.928-2.597-1.4038-0.24064-3.98-4.0468-2.8411-3.1915 46.315 34.782-88.894 34.515-101.59 16.424-128.53-94.743 55.231-104.49 108.43-41.63 13.137 46.473 1.1745-14.97-74.057 23.558-18.935 9.6972 42.542-0.87527 63.816-0.86935 4.4194 0.001-8.8111 0.76166-13.229 0.88345-96.309 2.6551-65.674 4.343-111.41 1.1732-35.167-4.5243-19.603-1.8422 51.012-2.8753 10.408-0.15227-20.667 2.7481-31.069 3.1291-95.683 3.5051-68.066 15.042-105.81-2.9912-36.207-46.149 109.43-34.717 36.6-21.408-35.606 12.84-126.63 48.601-118.17 2.4749 92.985-4.1002 69.69-8.5189 20.322 14.206-50.036 2.5728-98.174 11.541-141.77-15.835l65.684-8.9173z"/>
     <path filter="url(#a)" d="m4186.5-551.11c32.931 13.879 132.13 19.329 3.4512 12.006 31.259-8.8251 121.74-53.042 123.67-4.4071-17.525 10.963 12.981 10.81 11.418 10.627-86.204-10.089-68-1.2242-35.06-14.285 46.416-17.35 103.69-37.641 109.26 20.051 5.3399-0.63961 21.373-1.3986 16.02-1.9188-20.513-1.9936-41.299-0.25429-61.778-2.5282-11.402-1.2661 22.792-3.3695 34.263-3.244 89.246 0.97668 63.506-2.3166 106.47 4.1553 6.0897-0.2204 24.357-0.40157 18.269-0.66122-21.671-0.92418-43.39-0.36185-65.059-1.3342-5.3229-0.23885 10.633-0.87689 15.961-0.86896 30.731 0.0458 61.491 2.4726 92.189 1.0302 26.628-1.2511-54.159 1.3836-79.736-6.1264-33.392-11.064-173.96-29.539 3.3166-17.738 21.062 1.402 60.617 30.781 79.79 42.311 52.904 39.522-172.69 14.65-71.544-13.495 41.223 0.61927 82.463 0.49199 123.67 1.8578 61.581 2.0412-34.111 32.001-89.453 13.946-7.6108-5.2305-108.74-22.281-106.82-31.919 1.2739-6.4002 10.856-7.244 16.285-10.866 54.067 0.54388 119.11 1.0438 169.61 27.67-3.9611 15.207-1.0822 8.1402-8.4044 21.293l-67.916-4.882c8.0734-4.175 7.4036-1.9001-1.9486-6.8423-30.389-7.9302-151.98-32.979-24.822-27.374 1.5109-20.361 85.341 11.192 101.73 23.16 32.303 11.09-3.7058-2.6316-46.943 4.7866-3.387 0.58108 4.6945 5.0198 7.0418 7.5297-7.4165 0.26162-14.833 0.52327-22.249 0.78486-9.0502-0.25216-36.068-1.1048-27.075-2.1592 22.794-2.6728 45.864-1.822 68.795-2.733-10.309-0.86567-20.731-0.84911-30.928-2.597-1.4038-0.24065-3.98-4.0468-2.8411-3.1915 46.315 34.782-88.894 34.515-101.59 16.424-128.53-94.743 55.231-104.49 108.43-41.63 13.137 46.473 1.1745-14.97-74.057 23.558-18.935 9.6972 42.542-0.87527 63.816-0.86935 4.4194 0.001-8.8111 0.76165-13.229 0.88345-96.309 2.6551-65.674 4.343-111.41 1.1732-35.167-4.5243-19.603-1.8422 51.012-2.8753 10.408-0.15227-20.667 2.7481-31.069 3.1291-95.683 3.5051-68.066 15.042-105.81-2.9912-36.42-46.149 109.43-34.717 36.6-21.408-35.606 12.84-130.11 48.601-122.73 2.4749 91.209-4.1002 68.828-8.5189 18.509 14.206-50.723 2.5728-99.418 11.541-143.01-15.835l65.894-8.2791z" transform="matrix(1.1031 0 0 1.4132 -416.92 249.41)"/>
     <path filter="url(#a)" d="m3617.7-716.61c-174.07-55.085 102.84 42.699-37.327 2.3088-186.91-40.558 100.85-47.782 70.671 6.178l-67.916-4.882c8.0734-4.175 7.4036-1.9001-1.9486-6.8423-183.37-40.197 4.0464-53.213 76.908-4.214 32.303 11.09-3.7058-2.6316-46.943 4.7866-3.387 0.58108 4.6945 5.0198 7.0418 7.5297-7.4165 0.26162-14.833 0.52327-22.249 0.78486-9.0502-0.25216-36.068-1.1048-27.075-2.1592 22.794-2.6728 45.864-1.822 68.795-2.733-10.309-0.86567-20.731-0.84911-30.928-2.597-1.4038-0.24065-3.98-4.0468-2.8411-3.1915-216.33-18.275 92.785-78.452-67.217-1.648-18.935 9.6972 42.542-0.87527 63.816-0.86935 4.4194 0.001-8.8111 0.76165-13.229 0.88345-10.998-0.93613 23.581 2.4749 30.442 6.6649z" transform="matrix(3.9022 0 0 1.6181 -10426 621.72)"/>
    </g>
    <g transform="translate(1914 -447.21)">
     <path opacity=".5" d="m119.78 821.65c-27.528 11.143-42.421 67.518-75.762 42.63-41.864 3.9402-90.157-1.2096-126.41 28.593-26.832 15.327 35.811 1.4282 1.4238 15.622-27.093 11.29-64.723 26.445-81.96-9.1996-25.035-8.7314-90.09 21.983-62.085 55.56 15.257 10.842-35.077 14.806-44.828 20.838-20.829 1.6938-52.128 14.613-45.347 22.09 26.72 9.906 61.601 32.125 90.068 51.291 36.955 25.334 77.624-1.343 116.46 9.6814 28.154 1.6225 52.325 25.774 79.66 27.042 28.483 4.751 80.829 35.2 94.93 32.38-43.89 11.957 25.616 22.08 39.387 22.064 15.883 0.7777 18.251-2.0449 7.2108 11.278 29.158 8.3111 60.472 4.2946 90.379 2.8171 38.781-9.9583 80.441-10.056 116.9-30.086 13.739-44.379 74.937-42.99 110.76-60.754 41.909-10.776 83.056-42.157 126.29-19.754 7.5291-9.9526 55.621 8.9864 81.886-7.722-34.082-15.975-72.323-16.98-99.872-50.115-37.734 5.3262-44.561-46.699-79.542-43.25-30.694-23.09-63.501 9.1034-91.448-2.543 5.9071-19.115 44.151-8.9538 35.651-8.7659 19.226 5.2647 62.566-6.4824 18.842-11.104-20.15-3.1116-76.271 8.9282-40.604-12.966-39.257 0.5198-73.102-36.339-112.63-37.647 17.277-60.442-61.314-32.883-87.281-29.489-46.977 0.3573 36.454 21.507-0.0891 30.025-35.439 11.92-38.321-33.133-61.988-48.518zm280.8 109.31-0.9294 0.0637 0.9294-0.0637zm-0.9361 0.0605c-5.7867-4.3178-8.6324 5.0993 0 0zm-4.0251-0.78661c-3.5473-0.81543-2.2312-0.51289 0 0zm-325.21 187.87c5.1546-2.0772-7.6179-0.2259 0 0zm119.05-269.64c-12.887 1.2896-21.695-0.0617 0 0zm48.956 6.0206c-12.722 9.6879-17.619-5.2258 0 0zm-122.72 10.377c1.3681 1.5657-2.1181 0.27786 0 0zm27.427 6.7467c-2.7728 4.1376-14.057-1.3225 0 0zm-107.95 3.691c-14.212 4.9974-12.791-1.2243 0 0zm195.03 0.7866c16.526-2.5711 61.206 21.001 43.164 21.737 6.7768-28.614-74.816-11.754-43.164-21.737zm-102.5 0.30255c-2.8724 6.4045-12.344-6.5795 0 0zm59.042 18.546c22.797 2.1509-15.866 5.2414 0 0zm-3.9549 18.758c54.951 9.2094-29.757 5.4562 0 0zm191.36 7.1097c16.325-0.0609 29.81 1.3025 5.0262 0.24444l-5.0262-0.24444zm-197.91 1.785c10.341 0.13097 2.2632 0.0287 0 0zm155.67 5.1735c14.41 4.623-25.516 2.2145 0 0zm79.8 18.243c13.461-1.8214 68.264 22.581 28.399 14.732-10.041-1.6783-21.845-3.1556-28.399-14.732zm-661.45 61.597c-0.25997 4.2518-6.7171-5.2363 0 0zm-2.8316 1.7245c4.5596-1.5962 12.065 7.4481 0 0zm797.9 14.34c11.286 6.2186 59.881 5.9439 25.447 6.0125 14.856-2.7593 36.288 8.2256 8.9669 5.1532-10.863-4.5851-28.031 5.0768-34.414-11.166zm-696.5 10.77c-0.0176 2.1231-2.9409-2.542 0 0zm4.2591 9.6511c-3.4374 0.9944-1.7649 0.5106 0 0zm-42.38 1.6337c14.917 2.9825 74.871-1.7761 29.902 5.246-10.031 1.5585-20.951 1.7435-29.902-5.246zm77.413 0.6353c5.156-2.5544 2.8152 10.287 0 0zm573.41 4.5381-0.6318 0.3329 0.6318-0.3329zm-397.69 39.149c15.057-2.838 61.967 16.291 20.373 14.041-10.964 8.158-47.857 8.3918-20.373-14.041z" fill-opacity=".73333" transform="matrix(.4096 0 0 .4096 -2494.5 700.31)" filter="url(#m)" fill="#ddd"/>
    </g>
    <g fill="#fff">
     <g filter="url(#l)" opacity=".75" transform="matrix(.74885 0 0 .93973 -924.37 1015.5)">
      <path filter="url(#d)" opacity=".41111" d="m379.13 219.53c32.649 13.047 132.05 19.101 1.7891 7.5759 30.726-9.9705 119.98-56.146 120.99-8.1535-17.889 10.982 12.426 10.891 10.835 10.754-87.384-7.5184-68.799 0.0266-36.265-11.579 45.943-15.142 102.41-31.659 107.98 26.033 5.3399-0.63961 21.373-1.3986 16.02-1.9188-20.513-1.9936-41.29-0.29015-61.778-2.5282-11.404-1.2458 22.792-3.3695 34.263-3.244 89.246 0.97668 63.506-2.3166 106.47 4.1553 6.0897-0.2204 24.357-0.40156 18.269-0.66122-21.671-0.92418-43.39-0.36183-65.059-1.3342-5.3229-0.23885 10.633-0.87689 15.961-0.86896 30.731 0.0458 61.491 2.4726 92.189 1.0302 26.628-1.2511-54.159 1.3836-79.736-6.1264-33.392-11.064-173.96-29.539 3.3166-17.738 21.062 1.402 60.617 30.781 79.79 42.311 52.904 39.522-172.69 14.65-71.544-13.495 41.223 0.61927 82.463 0.49199 123.67 1.8578 61.581 2.0412-34.111 32.001-89.453 13.946-7.6108-5.2305-108.74-22.281-106.82-31.919 1.2739-6.4002 10.856-7.244 16.285-10.866 54.067 0.54388 119.11 1.0438 169.61 27.67-3.9611 15.207-1.0822 8.1402-8.4044 21.293l-67.916-4.882c8.0734-4.175 7.4036-1.9002-1.9486-6.8423-30.389-7.9302-151.98-32.979-24.822-27.374 1.5109-20.361 85.341 11.192 101.73 23.16 32.303 11.09-3.7058-2.6316-46.943 4.7866-3.387 0.58108 4.6945 5.0198 7.0418 7.5297-7.4165 0.26163-14.833 0.52329-22.249 0.78488-9.0502-0.25216-36.068-1.1048-27.075-2.1592 22.794-2.6728 45.864-1.822 68.795-2.733-10.309-0.86566-20.731-0.84909-30.928-2.597-1.4038-0.24064-3.98-4.0468-2.8411-3.1915 46.315 34.782-88.894 34.515-101.59 16.424-128.53-94.743 55.231-104.49 108.43-41.63 13.137 46.473 1.1745-14.97-74.057 23.558-18.935 9.6972 42.542-0.87527 63.816-0.86935 4.4194 0.001-8.8111 0.76166-13.229 0.88345-96.309 2.6551-65.674 4.343-111.41 1.1732-35.167-4.5243-19.603-1.8422 51.012-2.8753 10.408-0.15227-20.667 2.7481-31.069 3.1291-95.683 3.5051-68.066 15.042-105.81-2.9912-36.207-46.149 109.43-34.717 36.6-21.408-35.606 12.84-126.63 48.601-118.17 2.4749 92.985-4.1002 69.69-8.5189 20.322 14.206-50.036 2.5728-98.174 11.541-141.77-15.835l65.684-8.9173z"/>
      <path filter="url(#a)" d="m339.88 184.79c32.931 13.879 132.13 19.329 3.4512 12.006 31.259-8.8251 121.74-53.042 123.67-4.4071-17.525 10.963 12.981 10.81 11.418 10.627-86.204-10.089-68-1.2242-35.06-14.285 46.416-17.35 103.69-37.641 109.26 20.051 5.3399-0.63961 21.373-1.3986 16.02-1.9188-20.513-1.9936-41.299-0.25429-61.778-2.5282-11.402-1.2661 22.792-3.3695 34.263-3.244 89.246 0.97668 63.506-2.3166 106.47 4.1553 6.0897-0.2204 24.357-0.40157 18.269-0.66122-21.671-0.92418-43.39-0.36185-65.059-1.3342-5.3229-0.23885 10.633-0.87689 15.961-0.86896 30.731 0.0458 61.491 2.4726 92.189 1.0302 26.628-1.2511-54.159 1.3836-79.736-6.1264-33.392-11.064-173.96-29.539 3.3166-17.738 21.062 1.402 60.617 30.781 79.79 42.311 52.904 39.522-172.69 14.65-71.544-13.495 41.223 0.61927 82.463 0.49199 123.67 1.8578 61.581 2.0412-34.111 32.001-89.453 13.946-7.6108-5.2305-108.74-22.281-106.82-31.919 1.2739-6.4002 10.856-7.244 16.285-10.866 54.067 0.54388 119.11 1.0438 169.61 27.67-3.9611 15.207-1.0822 8.1402-8.4044 21.293l-67.916-4.882c8.0734-4.175 7.4036-1.9001-1.9486-6.8423-30.389-7.9302-151.98-32.979-24.822-27.374 1.5109-20.361 85.341 11.192 101.73 23.16 32.303 11.09-3.7058-2.6316-46.943 4.7866-3.387 0.58108 4.6945 5.0198 7.0418 7.5297-7.4165 0.26162-14.833 0.52327-22.249 0.78486-9.0502-0.25216-36.068-1.1048-27.075-2.1592 22.794-2.6728 45.864-1.822 68.795-2.733-10.309-0.86567-20.731-0.84911-30.928-2.597-1.4038-0.24065-3.98-4.0468-2.8411-3.1915 46.315 34.782-88.894 34.515-101.59 16.424-128.53-94.743 55.231-104.49 108.43-41.63 13.137 46.473 1.1745-14.97-74.057 23.558-18.935 9.6972 42.542-0.87527 63.816-0.86935 4.4194 0.001-8.8111 0.76165-13.229 0.88345-96.309 2.6551-65.674 4.343-111.41 1.1732-35.167-4.5243-19.603-1.8422 51.012-2.8753 10.408-0.15227-20.667 2.7481-31.069 3.1291-95.683 3.5051-68.066 15.042-105.81-2.9912-36.42-46.149 109.43-34.717 36.6-21.408-35.606 12.84-130.11 48.601-122.73 2.4749 91.209-4.1002 68.828-8.5189 18.509 14.206-50.723 2.5728-99.418 11.541-143.01-15.835l65.894-8.2791z"/>
     </g>
     <g filter="url(#l)" opacity=".75" fill-opacity=".33846" transform="matrix(-4.2606 0 0 .63802 3998 1074.6)">
      <path filter="url(#d)" opacity=".41111" d="m379.13 219.53c32.649 13.047 132.05 19.101 1.7891 7.5759 30.726-9.9705 119.98-56.146 120.99-8.1535-17.889 10.982 12.426 10.891 10.835 10.754-87.384-7.5184-68.799 0.0266-36.265-11.579 45.943-15.142 102.41-31.659 107.98 26.033 5.3399-0.63961 21.373-1.3986 16.02-1.9188-20.513-1.9936-41.29-0.29015-61.778-2.5282-11.404-1.2458 22.792-3.3695 34.263-3.244 89.246 0.97668 63.506-2.3166 106.47 4.1553 6.0897-0.2204 24.357-0.40156 18.269-0.66122-21.671-0.92418-43.39-0.36183-65.059-1.3342-5.3229-0.23885 10.633-0.87689 15.961-0.86896 30.731 0.0458 61.491 2.4726 92.189 1.0302 26.628-1.2511-54.159 1.3836-79.736-6.1264-33.392-11.064-173.96-29.539 3.3166-17.738 21.062 1.402 60.617 30.781 79.79 42.311 52.904 39.522-172.69 14.65-71.544-13.495 41.223 0.61927 82.463 0.49199 123.67 1.8578 61.581 2.0412-34.111 32.001-89.453 13.946-7.6108-5.2305-108.74-22.281-106.82-31.919 1.2739-6.4002 10.856-7.244 16.285-10.866 54.067 0.54388 119.11 1.0438 169.61 27.67-3.9611 15.207-1.0822 8.1402-8.4044 21.293l-67.916-4.882c8.0734-4.175 7.4036-1.9002-1.9486-6.8423-30.389-7.9302-151.98-32.979-24.822-27.374 1.5109-20.361 85.341 11.192 101.73 23.16 32.303 11.09-3.7058-2.6316-46.943 4.7866-3.387 0.58108 4.6945 5.0198 7.0418 7.5297-7.4165 0.26163-14.833 0.52329-22.249 0.78488-9.0502-0.25216-36.068-1.1048-27.075-2.1592 22.794-2.6728 45.864-1.822 68.795-2.733-10.309-0.86566-20.731-0.84909-30.928-2.597-1.4038-0.24064-3.98-4.0468-2.8411-3.1915 46.315 34.782-88.894 34.515-101.59 16.424-128.53-94.743 55.231-104.49 108.43-41.63 13.137 46.473 1.1745-14.97-74.057 23.558-18.935 9.6972 42.542-0.87527 63.816-0.86935 4.4194 0.001-8.8111 0.76166-13.229 0.88345-96.309 2.6551-65.674 4.343-111.41 1.1732-35.167-4.5243-19.603-1.8422 51.012-2.8753 10.408-0.15227-20.667 2.7481-31.069 3.1291-95.683 3.5051-68.066 15.042-105.81-2.9912-36.207-46.149 109.43-34.717 36.6-21.408-35.606 12.84-126.63 48.601-118.17 2.4749 92.985-4.1002 69.69-8.5189 20.322 14.206-50.036 2.5728-98.174 11.541-141.77-15.835l65.684-8.9173z"/>
      <path filter="url(#a)" d="m371.72 210.16c32.931 13.879 132.13 19.329 3.4512 12.006 31.259-8.8251 121.74-53.042 123.67-4.4071-17.525 10.963 12.981 10.81 11.418 10.627-86.204-10.089-68-1.2242-35.06-14.285 46.416-17.35 103.69-37.641 109.26 20.051 5.3399-0.63961 21.373-1.3986 16.02-1.9188-20.513-1.9936-41.299-0.25429-61.778-2.5282-11.402-1.2661 22.792-3.3695 34.263-3.244 89.246 0.97668 63.506-2.3166 106.47 4.1553 6.0897-0.2204 24.357-0.40157 18.269-0.66122-21.671-0.92418-43.39-0.36185-65.059-1.3342-5.3229-0.23885 10.633-0.87689 15.961-0.86896 30.731 0.0458 61.491 2.4726 92.189 1.0302 26.628-1.2511-54.159 1.3836-79.736-6.1264-33.392-11.064-173.96-29.539 3.3166-17.738 21.062 1.402 60.617 30.781 79.79 42.311 52.904 39.522-172.69 14.65-71.544-13.495 41.223 0.61927 82.463 0.49199 123.67 1.8578 61.581 2.0412-34.111 32.001-89.453 13.946-7.6108-5.2305-108.74-22.281-106.82-31.919 1.2739-6.4002 10.856-7.244 16.285-10.866 54.067 0.54388 119.11 1.0438 169.61 27.67-3.9611 15.207-1.0822 8.1402-8.4044 21.293l-67.916-4.882c8.0734-4.175 7.4036-1.9001-1.9486-6.8423-30.389-7.9302-151.98-32.979-24.822-27.374 1.5109-20.361 85.341 11.192 101.73 23.16 32.303 11.09-3.7058-2.6316-46.943 4.7866-3.387 0.58108 4.6945 5.0198 7.0418 7.5297-7.4165 0.26162-14.833 0.52327-22.249 0.78486-9.0502-0.25216-36.068-1.1048-27.075-2.1592 22.794-2.6728 45.864-1.822 68.795-2.733-10.309-0.86567-20.731-0.84911-30.928-2.597-1.4038-0.24065-3.98-4.0468-2.8411-3.1915 46.315 34.782-88.894 34.515-101.59 16.424-128.53-94.743 55.231-104.49 108.43-41.63 13.137 46.473 1.1745-14.97-74.057 23.558-18.935 9.6972 42.542-0.87527 63.816-0.86935 4.4194 0.001-8.8111 0.76165-13.229 0.88345-96.309 2.6551-65.674 4.343-111.41 1.1732-35.167-4.5243-19.603-1.8422 51.012-2.8753 10.408-0.15227-20.667 2.7481-31.069 3.1291-95.683 3.5051-68.066 15.042-105.81-2.9912-36.42-46.149 109.43-34.717 36.6-21.408-35.606 12.84-130.11 48.601-122.73 2.4749 91.209-4.1002 68.828-8.5189 18.509 14.206-50.723 2.5728-99.418 11.541-143.01-15.835l65.894-8.2791z"/>
     </g>
     <g filter="url(#l)" opacity=".75" fill-opacity=".33846" transform="matrix(-4.2606 0 0 .63802 3998 1074.6)">
      <path filter="url(#d)" opacity=".41111" d="m379.13 219.53c32.649 13.047 132.05 19.101 1.7891 7.5759 30.726-9.9705 119.98-56.146 120.99-8.1535-17.889 10.982 12.426 10.891 10.835 10.754-87.384-7.5184-68.799 0.0266-36.265-11.579 45.943-15.142 102.41-31.659 107.98 26.033 5.3399-0.63961 21.373-1.3986 16.02-1.9188-20.513-1.9936-41.29-0.29015-61.778-2.5282-11.404-1.2458 22.792-3.3695 34.263-3.244 89.246 0.97668 63.506-2.3166 106.47 4.1553 6.0897-0.2204 24.357-0.40156 18.269-0.66122-21.671-0.92418-43.39-0.36183-65.059-1.3342-5.3229-0.23885 10.633-0.87689 15.961-0.86896 30.731 0.0458 61.491 2.4726 92.189 1.0302 26.628-1.2511-54.159 1.3836-79.736-6.1264-33.392-11.064-173.96-29.539 3.3166-17.738 21.062 1.402 60.617 30.781 79.79 42.311 52.904 39.522-172.69 14.65-71.544-13.495 41.223 0.61927 82.463 0.49199 123.67 1.8578 61.581 2.0412-34.111 32.001-89.453 13.946-7.6108-5.2305-108.74-22.281-106.82-31.919 1.2739-6.4002 10.856-7.244 16.285-10.866 54.067 0.54388 119.11 1.0438 169.61 27.67-3.9611 15.207-1.0822 8.1402-8.4044 21.293l-67.916-4.882c8.0734-4.175 7.4036-1.9002-1.9486-6.8423-30.389-7.9302-151.98-32.979-24.822-27.374 1.5109-20.361 85.341 11.192 101.73 23.16 32.303 11.09-3.7058-2.6316-46.943 4.7866-3.387 0.58108 4.6945 5.0198 7.0418 7.5297-7.4165 0.26163-14.833 0.52329-22.249 0.78488-9.0502-0.25216-36.068-1.1048-27.075-2.1592 22.794-2.6728 45.864-1.822 68.795-2.733-10.309-0.86566-20.731-0.84909-30.928-2.597-1.4038-0.24064-3.98-4.0468-2.8411-3.1915 46.315 34.782-88.894 34.515-101.59 16.424-128.53-94.743 55.231-104.49 108.43-41.63 13.137 46.473 1.1745-14.97-74.057 23.558-18.935 9.6972 42.542-0.87527 63.816-0.86935 4.4194 0.001-8.8111 0.76166-13.229 0.88345-96.309 2.6551-65.674 4.343-111.41 1.1732-35.167-4.5243-19.603-1.8422 51.012-2.8753 10.408-0.15227-20.667 2.7481-31.069 3.1291-95.683 3.5051-68.066 15.042-105.81-2.9912-36.207-46.149 109.43-34.717 36.6-21.408-35.606 12.84-126.63 48.601-118.17 2.4749 92.985-4.1002 69.69-8.5189 20.322 14.206-50.036 2.5728-98.174 11.541-141.77-15.835l65.684-8.9173z"/>
      <path filter="url(#a)" d="m373.53-7.5663c32.931 13.879 132.13 19.329 3.4512 12.006 31.259-8.8251 121.74-53.042 123.67-4.4071-17.525 10.963 12.981 10.81 11.418 10.627-86.204-10.089-68-1.2242-35.06-14.285 74.762-22.146 183.72 28.104 63.502 15.604 258.77-8.4222 7.6976 7.3257 202.09-0.92288-184.9-34.706-187-97.803 3.3706 18.447-140.71 14.629-105.43-16.652 52.126-11.637-156.13-6.9946-260.76-127.1-10.378-1.169-3.9611 15.207-1.0822 8.1402-8.4044 21.293-162.79 8.9162-174.58-138.08 7.0434-15.938 32.303 11.09-3.7058-2.6316-46.943 4.7866-3.387 0.58108 4.6945 5.0198 7.0418 7.5297-74.179 0.60421-34.678-2.0994 19.471-4.1073-10.309-0.86567-20.731-0.84911-30.928-2.597-1.4038-0.24065-3.98-4.0468-2.8411-3.1915-164.22 18.891-108.75-145.72 6.84-25.206-51.63 15.354-86.54 86.11-220.74 22.005-36.42-46.149 109.43-34.717 36.6-21.408-35.606 12.84-130.11 48.601-122.73 2.4749 91.209-4.1002 68.828-8.5189 18.509 14.206-50.723 2.5728-99.418 11.541-143.01-15.835l65.894-8.2791z" transform="matrix(1.0276 0 0 4.2126 273.95 -476.31)"/>
     </g>
    </g>
   </g>
  </g>
 </g>
</svg>
