<?xml version="1.0" encoding="UTF-8" standalone="no"?>
<svg
   xmlns:dc="http://purl.org/dc/elements/1.1/"
   xmlns:cc="http://creativecommons.org/ns#"
   xmlns:rdf="http://www.w3.org/1999/02/22-rdf-syntax-ns#"
   xmlns:svg="http://www.w3.org/2000/svg"
   xmlns="http://www.w3.org/2000/svg"
   xmlns:sodipodi="http://sodipodi.sourceforge.net/DTD/sodipodi-0.dtd"
   xmlns:inkscape="http://www.inkscape.org/namespaces/inkscape"
   height="250"
   width="600"
   version="1.1"
   viewBox="0 0 600.00184 250.00191"
   id="svg7176"
   inkscape:version="0.91 r13725"
   sodipodi:docname="moon.svg">
  <metadata
     id="metadata7252">
    <rdf:RDF>
      <cc:Work
         rdf:about="">
        <dc:format>image/svg+xml</dc:format>
        <dc:type
           rdf:resource="http://purl.org/dc/dcmitype/StillImage" />
        <dc:title></dc:title>
      </cc:Work>
    </rdf:RDF>
  </metadata>
  <sodipodi:namedview
     pagecolor="#ffffff"
     bordercolor="#666666"
     borderopacity="1"
     objecttolerance="10"
     gridtolerance="10"
     guidetolerance="10"
     inkscape:pageopacity="0"
     inkscape:pageshadow="2"
     inkscape:window-width="706"
     inkscape:window-height="480"
     id="namedview7250"
     showgrid="false"
     inkscape:zoom="0.37053107"
     inkscape:cx="-23.859478"
     inkscape:cy="333.66"
     inkscape:window-x="135"
     inkscape:window-y="0"
     inkscape:window-maximized="0"
     inkscape:current-layer="svg7176" />
  <defs
     id="defs7178">
    <radialGradient
       id="g"
       gradientUnits="userSpaceOnUse"
       cy="120.82"
       cx="124.4"
       gradientTransform="matrix(-0.58369,1.9568,-0.4693,-0.13999,622.24,881.44)"
       r="102.27">
      <stop
         stop-color="#fff"
         offset="0"
         id="stop7181" />
      <stop
         stop-color="#fff"
         stop-opacity="0"
         offset="1"
         id="stop7183" />
    </radialGradient>
    <radialGradient
       id="h"
       gradientUnits="userSpaceOnUse"
       cy="82.897003"
       cx="-88.068001"
       gradientTransform="matrix(0.7606,0.48886,-0.5936,0.92358,220.44,1043.1)"
       r="388.16">
      <stop
         stop-opacity=".98039"
         offset="0"
         id="stop7186" />
      <stop
         stop-color="#181818"
         stop-opacity=".9451"
         offset=".75"
         id="stop7188" />
      <stop
         stop-color="#ffaa2b"
         stop-opacity=".50256"
         offset="1"
         id="stop7190" />
    </radialGradient>
    <filter
       id="i"
       y="-0.32271999"
       x="-0.059167001"
       width="1.1183"
       height="1.6454">
      <feGaussianBlur
         stdDeviation="15.099668"
         id="feGaussianBlur7193" />
    </filter>
    <filter
       id="j"
       y="-0.17703"
       x="-0.032947998"
       width="1.0659"
       height="1.3541">
      <feGaussianBlur
         stdDeviation="8.282884"
         id="feGaussianBlur7196" />
    </filter>
    <filter
       id="k"
       y="-0.23052999"
       x="-0.046781"
       width="1.0936"
       height="1.4611">
      <feGaussianBlur
         stdDeviation="11.938631"
         id="feGaussianBlur7199" />
    </filter>
    <filter
       id="a">
      <feGaussianBlur
         stdDeviation="15.760573"
         id="feGaussianBlur7202" />
    </filter>
  </defs>
  <g
     transform="translate(140.93,7.2211671)"
     id="g7204">
    <g
       transform="translate(-140.93,-467.65)"
       id="g7206">
      <g
         transform="matrix(0.32768,0,0,0.32768,-6.0586,202.08)"
         id="g7208">
        <ellipse
           rx="269.37"
           ry="269.73999"
           cy="1091.9"
           cx="226.48"
           id="ellipse7210"
           style="fill:#838383" />
        <path
           d="m 480.66,1071 c 0.62168,-1.2995 0.85626,-4.9586 1.3188,-8.8701 1.1904,-10.065 -6.0031,-22.302 -4.1101,-31.935 0.3871,-1.9698 0.6003,-3.5008 0.76637,-4.8853 0.43337,1.6532 1.0596,3.4694 2.2689,5.4767 5.6963,9.456 7.1882,24.352 8.5092,18.986 0.55798,-2.267 0.66295,-5.249 0.60295,-8.446 -0.009,-0.044 0.005,-0.094 -0.003,-0.1397 -11.662,-58.454 -42.485,-112.47 -88.877,-152.34 -1.5757,-0.69568 -3.0739,-1.4497 -4.2289,-2.3914 -2.9707,-2.4221 -6.1987,-3.6234 -8.8762,-5.8063 -2.7279,-2.224 -5.8183,-3.5505 -7.8792,-6.1681 -2.6298,-3.3402 -6.3458,-4.9809 -10.539,-5.7907 -4.3178,-0.83384 -6.9833,-3.2654 -10.87,-5.0829 -3.9082,-1.8274 -6.729,-3.154 -10.839,-3.378 -6.6311,-0.36156 -13.56,-1.5103 -20.22,-2.7962 -1.0123,-0.19548 -2.023,-0.39579 -3.0352,-0.59131 -4.5424,-0.87717 -10.836,-6.4382 -15.264,-6.3097 -2.9173,0.0848 -12.454,-1.6941 -14.391,2.447 -2.1133,4.5196 -4.3545,6.1951 -9.5918,6.3474 -5.7831,0.16803 -11.58,-2.0422 -17.518,-3.1888 -4.4564,-0.8606 -11.456,-2.0188 -15.476,-0.54412 -2.6786,0.9823 -12.405,5.0318 -6.8739,7.618 3.3125,1.5489 8.9352,4.2816 6.5643,7.2092 -1.6833,2.0784 -7.7482,-0.40019 -7.6854,2.2709 0.0263,1.1238 0.305,2.2488 0.088,3.3529 -0.94938,4.831 -2.5143,7.2897 -2.0874,11.547 0.45208,4.5075 5.8519,12.274 3.436,17.44 -1.7998,3.849 -4.4659,12.918 -9.8342,10.408 -2.5892,-1.2107 -10.699,-2.9578 -14.097,-1.7968 -1.5217,-3.1253 -3.3762,-4.3431 -7.2972,-4.2402 -3.8552,0.10127 -4.4038,1.1146 -9.0592,-1.0622 -1.7998,-0.84165 1.2331,-8.5968 1.6579,-10.333 1.0736,-4.3872 1.1765,-4.6595 -2.1222,-7.3398 -3.1029,-2.5215 -8.041,-1.3968 -11.012,-1.9755 -3.6187,-0.70493 -6.6577,0.6566 -10.291,-0.0513 -3.9252,-0.76476 -2.9358,0.7592 -6.8153,-2.3933 -2.4828,-2.0175 -7.8102,5.9699 -9.1526,7.622 -2.5667,3.1587 -4.1293,3.988 -6.271,6.6235 -2.1,2.5845 1.9348,11.385 2.0148,14.43 0.18224,6.9394 -6.4061,3.2319 1.4999,8.6704 0.0604,0.0418 1.3813,0.20826 2.035,0.29628 -9.1978,11.523 -19.533,32.007 -23.66,34.369 2.1424,6.3914 0.31181,15.971 1.8854,22.822 0.84545,3.6807 -3.2258,12.383 -3.1091,16.83 0.0913,3.47655 2.4316,6.19995 4.0904,8.29475 3.3072,4.1767 4.8822,3.1992 3.7708,8.9043 -0.63734,3.2716 6.8108,0.2325 9.9442,-0.9043 4.1046,-1.4891 5.6852,-1.101 10.332,0.036 3.3886,0.8293 7.0473,5.3205 8.5352,7.1995 3.1717,4.0053 5.0768,10.091 7.4857,14.608 3.4026,6.3808 11.533,3.9495 16.482,2.1534 2.1465,-0.7787 1.7161,-7.8567 2.0178,-9.4058 0.63282,-3.2483 11.509,-0.1728 13.199,0.6179 6.2889,2.9407 16.298,-3.1828 22.45,-3.8192 4.1137,-0.4252 8.3334,-6.775 8.7776,-8.5905 1.0436,-4.264 -16.752,-4.7186 -18.479,-4.6734 -5.176,0.1359 -10.59,-1.778 -15.541,-4.0935 -3.9737,-1.858 -5.8553,-4.0742 -8.8813,-6.5331 -3.2521,-2.64275 -4.3052,-4.76165 -4.422,-9.20885 -0.12398,-4.7217 1.1304,-7.5082 3.2356,-12.01 0.91297,-1.9526 5.5903,-3.7674 6.951,-4.6842 2.5949,0.5055 -6.515,-22.917 -17.146,-27.888 -9.2001,-4.302 -11.065,-3.9477 -11.265,-11.616 -0.0607,-2.3163 -0.31192,-3.8335 -0.4743,-5.7054 1.2215,-1.2021 2.3128,-2.3305 4.0958,-3.7424 3.0728,-2.4331 6.6435,-2.5639 11.162,-3.5086 4.2556,-0.88975 7.7032,-1.6898 10.886,-2.8443 4.0831,-1.4813 2.7473,-6.0668 7.9198,-5.0591 0.70183,0.13672 1.4247,0.064 2.1408,0.0696 -4.0543,3.8258 -6.1998,6.1125 -7.372,12.077 -0.69748,3.5494 -2.7979,13.377 -0.29196,16.56 3.0207,3.8368 5.1395,3.5952 10.161,3.0605 5.1582,-0.5494 11.144,-4.1905 16.358,-3.1838 3.6366,0.70227 9.172,-0.71335 13.47,1.2959 4.7765,2.2335 2.5943,13.122 7.3933,14.29 5.1752,1.259 11.024,1.3499 15.9,4.9508 5.9836,4.4192 6.6665,11.44 9.8378,17.916 3.2114,6.5597 8.0898,9.1317 15.295,8.0144 9.5911,-1.4872 3.4984,-3.6017 9.9226,-7.0551 2.9064,-1.5624 6.778,-2.8215 9.9528,-5.3502 2.4519,-1.9526 6.2293,-5.3286 9.6355,-4.6709 3.3621,0.64935 6.7033,2.5187 10.465,2.4094 3.8105,-0.11077 7.9712,-0.096 11.823,3.0446 3.9163,3.1931 5.1564,4.6745 5.2804,9.9555 0.091,3.8768 -0.51435,6.5041 -0.39767,11.47405 0.11389,4.8506 0.015,7.0501 -2.0874,11.547 -1.7059,3.648 -3.4035,7.2788 -5.1094,10.928 -2.7535,5.8888 -2.5849,12.611 -5.2774,18.369 l -6.7243,14.381 c -1.7702,3.7859 -2.2211,6.5904 -2.7974,9.524 -0.65668,3.3414 -0.8603,5.6621 -0.15238,9.1052 0.67254,3.2711 2.5264,6.9336 2.6068,10.361 0.11482,4.8895 0.0522,8.7831 3.6347,11.703 1.9508,1.5905 5.3155,4.4968 7.1864,5.8787 0.73215,0.5408 7.8043,6.2034 9.873,5.4445 4.5665,-1.6746 6.5101,-5.1901 10.557,-8.4138 3.757,-2.992 4.3436,-0.4526 8.4264,1.4564 3.7014,1.7308 9.1902,5.1383 10.628,9.1437 1.5642,4.3591 6.0763,8.7294 5.0375,14.015 -1.0846,5.519 -1.3142,10.014 -5.3655,15.016 -2.4373,3.0096 -6.1732,8.8401 -6.0758,12.994 0.0824,3.5044 0.1523,10.076 4.9935,12.34 3.5223,1.6469 7.2451,2.9271 10.116,1.3839 1.5232,-0.8187 8.413,-6.2019 10.951,-5.712 4.9291,0.9518 10.266,-0.7448 16.354,-4.8752 3.9937,-2.7092 6.7634,-4.8733 9.8656,-8.7036 2.9826,-3.6829 10.528,-6.5798 12.521,-10.842 1.618,-3.4605 4.6878,-7.8447 5.427,-11.607 0.75282,-3.8305 0.27116,-5.8916 2.1182,-9.8415 1.8232,-3.8991 4.3372,-5.7344 5.846,-8.961 1.6554,-3.5404 2.1857,-6.9663 2.1181,-9.8417 -0.076,-3.2386 0.52553,-6.2281 0.44171,-9.7979 -0.0656,-2.7954 -1.8072,-5.014 -2.8804,-8.005 -1.0858,-3.0256 -3.9621,-5.864 0.12403,-9.1182 1.8952,-1.5094 6.612,-4.3661 6.5122,-8.6151 -0.0669,-2.8512 -0.89,-8.7709 -1.9583,-11.747 -1.7522,-4.8829 -3.3587,-7.552 -6.3082,-11.299 -2.5064,-3.1835 -5.0585,-7.8909 -8.3156,-10.546 -3.5461,-2.8911 -5.9847,-5.8267 -7.9539,-9.5493 -2.0139,-3.8071 -4.5223,-6.6771 -4.6317,-11.342 -0.0707,-3.0083 -1.4931,-6.53935 1.4387,-10.15905 1.6388,-2.0236 6.3523,-4.5503 9.0002,-3.3121 4.047,1.8923 6.7182,4.5519 9.9038,7.1492 2.1291,1.73605 13.93,11.88405 11.395,12.81405 -1.6884,3.6107 -0.42924,8.7107 -0.0493,12.499 0.44579,4.4449 1.8154,8.9516 2.364,14.422 0.82538,8.2292 3.4459,19.066 6.3468,27.151 2.0067,5.5924 3.0141,6.6564 3.6357,5.3568 z M 143.42,958.26 c -0.418,-1.2472 -0.97112,-2.3828 -1.7514,-3.3372 -0.007,2.901 0.57604,4.0099 1.7514,3.3372 z m -1.7514,-3.3372 c 0.007,-2.7827 0.51261,-7.1501 1.9157,-14.351 0.99686,-5.1167 2.8974,-10.831 -3.7285,-7.2977 -5.2071,2.7767 -7.171,6.8516 -9.6484,12.151 -1.2968,2.7733 6.7613,6.3352 8.5485,7.1711 1.2158,0.56855 2.1494,1.3942 2.9131,2.3281 z m 244.14,229.65 c 0.716,-1.7627 1.3309,-3.584 2.0201,-5.0581 1.1232,-2.4017 -3.934,-10.145 -5.4618,-12.075 -3.268,-4.127 -7.7072,-6.8122 -12.47,-9.0394 -4.7761,-2.2333 -7.9318,-2.5877 -12.675,-3.5117 -5.1569,-1.0046 -9.96,-1.6675 -15.153,-1.5313 -7.1441,0.1876 -14.876,3.091 -21.135,4.3996 -5.0692,1.06 -7.3371,1.3177 -11.784,4.8393 -3.8836,3.0752 -5.9192,5.7977 -8.7349,11.82 -3.2108,6.8668 -5.1963,19.152 -4.4342,26.525 0.45549,4.4015 -0.0886,8.8671 0.0332,13.504 0.11989,4.5658 4.9813,8.3847 7.3879,11.424 2.7124,3.4254 8.4961,3.9982 11.457,7.7377 3.327,4.2017 7.8777,4.0997 12.01,3.2355 4.8379,-1.0115 11.13,-5.4165 13.306,-8.0945 1.8343,-2.2571 7.7684,-2.8392 10.816,-4.4641 4.5483,-2.4254 7.731,-4.4536 11.119,-6.737 2.9444,-1.984 3.2746,-3.8911 6.2999,-4.9886 2.7932,-1.0133 2.9073,0.016 5.3866,-3.0353 -0.32032,-2.1732 0.94238,-7.1059 2.9311,-11.36 1.582,-3.3833 4.2351,-6.0411 6.5199,-8.853 1.0201,-1.2555 1.8439,-2.974 2.5598,-4.7366 z m -105.5,135.33 c 0.70736,-1.9923 -1.8324,-8.1202 -3.6778,-9.6197 -2.6691,-2.169 -4.771,-3.8178 -7.8551,-5.2601 -2.7776,-1.2987 -5.8472,-3.4557 -8.4924,-3.9709 -4.7008,-0.9158 -5.588,0.9896 -7.1619,-3.3488 -1.2833,-3.5373 -2.8678,-1.5196 -6.3843,1.7754 -2.5631,2.4016 -4.1415,4.7228 -6.6327,5.6265 -3.3759,1.2247 -4.9545,-0.1767 -8.2954,2.4687 -2.5225,1.9975 -7.4118,2.1717 -9.2641,2.8437 -3.2589,1.1823 -1.3606,9.4076 -1.3113,11.289 0.0943,3.5909 1.6308,6.0505 2.8021,9.2792 1.3662,3.7661 5.0932,4.7296 7.8835,5.2732 3.738,0.7283 7.3178,-1.6948 1.9954,2.52 -5.5033,4.3577 0.43068,4.8117 3.3397,4.7354 4.1958,-0.1103 8.9999,-0.7133 13.503,-1.655 4.2748,-0.8937 6.6079,-1.2431 10.206,-3.162 2.0687,-1.1031 5.1012,-6.5541 5.9111,-7.5508 1.7454,-2.1481 4.9755,-1.8285 7.6574,-2.8014 2.7862,-1.0107 3.8134,-4.7614 5.26,-7.8553 0.24511,-0.089 0.41476,-0.3021 0.5158,-0.5868 z m 12.393,-54.023 c 1.1037,-2.0862 1.4697,-4.3076 0.63743,-6.6016 -1.7701,-4.8793 -4.4714,-7.2161 -5.4903,-12.088 -0.73985,-3.5388 0.22163,-7.479 0.71562,-10.015 0.82656,-4.2424 2.1824,-8.4906 4.5246,-11.372 2.948,-3.6278 1.9994,-6.684 1.3667,-9.7102 -0.8875,-4.2447 -2.937,-4.9788 -2.1643,-8.9464 0.78233,-4.0155 -3.5754,-2.2762 0.44017,-7.7287 1.1053,-0.4012 -3.7102,-10.227 -4.1747,-11.508 -1.3233,-3.6477 -1.9029,-6.7358 -3.5087,-11.162 -1.6188,-4.4624 -4.7124,-6.9642 -9.4903,-5.231 -3.5698,1.295 -9.3104,1.9158 -12.506,1.2932 -7.7248,-1.5049 -14.619,-0.2451 -22.23,-0.045 -7.2295,0.1901 -7.6591,3.5597 -14.488,0.3666 -4.3908,-2.053 -6.4478,-0.9904 -9.2509,2.8153 -2.6216,3.5598 -4.4597,7.8408 -6.4488,12.095 -1.9202,4.1069 -3.177,4.0686 -7.3398,2.1222 -1.7486,-0.8177 -3.6785,-7.0944 -4.1036,-8.2664 -1.1882,-3.2753 -1.9505,-4.0858 -5.9442,-5.9532 -3.0251,-1.4147 -7.8099,5.3643 -10.731,7.6772 -3.5737,2.83 -2.8515,8.5981 -1.629,11.968 1.3486,3.7172 6.097,6.1799 8.2864,9.429 2.4521,3.6388 8.4793,4.9899 11.182,8.4019 2.9639,3.7432 6.0193,7.1277 9.6163,10.051 2.4329,1.9769 3.3916,4.4298 2.7598,7.6725 -0.885,4.543 -2.2909,5.1316 -5.6066,6.8998 -3.0108,1.6055 -4.1652,5.5137 -5.8688,9.1573 -1.949,4.1682 -2.0646,7.6249 -1.9756,11.012 0.0926,3.5256 -9.2739,-1.4618 -10.708,-2.6267 -3.3634,-2.7331 -7.4711,-1.0938 -11.289,-1.3113 -4.5844,-0.261 -5.378,2.2462 -10.97,-0.3689 -3.5394,-1.6549 2.1027,-5.3643 -2.7732,-7.6443 -2.2237,-1.0398 -5.547,2.1162 -8.642,1.5131 -3.5701,-0.6954 -0.49028,-6.3333 -6.8858,-4.0132 -4.6219,1.6767 -5.6775,5.3545 -7.7933,9.879 -2.8749,6.1482 -0.16803,3.266 -6.951,4.6841 -3.6711,0.7677 -4.0298,0.134 -6.3132,5.017 -2.4443,5.2276 -1.4865,5.5713 -7.6019,4.3799 -5.0619,-0.9863 -5.1084,-3.5843 -6.3192,-6.922 -1.1944,-3.2926 0.74847,-6.9436 -0.23994,-9.668 -1.4098,-3.8862 -9.8838,1.4774 -11.521,2.5814 -5.7998,3.9083 -5.2621,9.339 -3.138,15.195 2.1717,5.9861 0.6565,8.6587 6.4463,13.363 4.0907,3.3241 14.119,3.0116 18.394,1.4603 3.4584,-1.2546 7.9702,6.4667 9.2276,7.4887 3.3076,2.6878 6.4516,4.6036 10.46,6.4777 3.7405,1.7492 3.8146,7.0152 3.1903,10.22 -0.99292,5.0965 -1.8377,5.4883 3.4242,7.9487 5.095,2.3823 6.2552,1.3355 10.942,0.3557 4.5955,-0.9609 8.7896,-7.8654 14.595,-9.0787 2.8615,-0.5983 3.3907,7.2004 3.411,7.9771 0.12326,4.6902 9.1502,-3.1634 9.5686,-3.4947 3.0526,-2.4174 1.8248,-5.9551 4.6089,-8.1598 3.2822,-2.5991 11.75,-3.722 15.025,-4.9103 3.4119,-1.2378 5.5356,-3.1535 7.9065,-5.0308 3.1785,-2.5171 4.7125,-5.0458 5.2599,-7.8553 0.59435,-3.0506 -8.041,-5.0151 -10.113,-5.5222 -4.0574,-0.9929 -4.7849,-7.2868 -8.6477,-10.426 -2.9481,-2.3957 -2.7645,-5.8656 -2.1643,-8.9465 0.65406,-3.3574 10.874,0.3237 12.896,1.2691 3.2761,1.5319 3.5663,6.5525 5.4057,8.8753 2.059,2.6 7.9037,3.0079 9.7246,2.9601 1.9142,-0.05 2.9127,-9.6226 3.5691,-11.026 1.7621,-3.7684 7.9818,7.0344 8.2724,7.8354 1.826,5.0339 1.1755,6.2674 4.6842,6.9511 0.99492,0.1943 10.872,-9.8572 12.266,-10.961 4.293,-3.3995 7.2565,-2.9545 11.58,-0.9333 2.9915,1.3989 6.2251,3.7043 9.4619,5.2179 4.8001,2.2443 6.0037,3.8918 10.015,0.7155 2.21,-1.75 4.0565,-3.7114 5.1602,-5.7975 z m 45.061,-119.17 c 1.5227,-2.4239 0.98091,-5.8751 -0.25104,-7.4308 -2.9192,-3.6865 -6.0902,-2.2514 -8.7263,-1.7001 -3.8136,0.7973 -4.9919,-0.2828 -6.5814,-4.6643 1.3953,-2.984 -3.7168,-14.11 -0.53532,-20.915 2.0065,-4.2907 2.954,-9.9529 2.8756,-12.938 -0.10573,-4.0299 -1.8596,-5.6303 -5.3353,-7.2555 -1.3354,-0.6243 -5.796,2.0601 -8.6703,1.4999 -3.6448,-0.71 1.4104,-8.9346 2.3222,-10.057 2.3185,-2.8534 3.5254,-2.9564 5.9532,-5.9441 2.3446,-2.8853 -4.691,-7.7477 -6.9841,-8.8197 -3.9346,-1.8398 -6.1818,1.0765 -10.666,-1.0201 -1.23,-0.5752 -0.57907,-9.8043 -0.59984,-10.595 -0.12849,-4.8877 -1.2513,-9.392 -4.1887,-13.102 -2.9606,-3.7386 -8.0751,-1.0215 -9.668,0.2399 -4.7319,3.747 -3.6191,6.2022 -9.4418,8.3146 -6.7113,2.4347 -12.142,0.9693 -17.574,5.2708 -4.0152,3.1793 -5.5137,6.7008 -7.751,11.486 -2.8712,6.1405 1.2215,11.773 3.9969,16.979 3.1035,5.8198 8.8107,4.4857 12.908,1.2408 6.2417,-4.9428 14.051,-14.319 22.07,-18.278 4.0305,-1.9902 6.7511,-3.7452 8.7263,1.7 2.2695,6.256 3.7746,8.5147 3.9125,13.766 0.0946,3.6052 -0.71666,6.6231 -2.6134,10.679 -2.842,6.0776 -1.1022,8.5329 -8.4022,11.182 -5.1914,1.8833 -6.1263,2.7655 -11.105,6.7087 -4.9662,3.9325 -2.3795,6.2931 -7.8352,8.2723 -4.055,1.471 -6.5729,4.5666 -7.4754,9.1992 -0.98172,5.039 5.1836,11.566 7.1679,15.288 2.454,4.6021 5.9386,8.0835 10.848,9.04 4.7913,0.9335 5.0446,-2.4018 10.32,0.064 5.074,2.3725 4.4683,4.0192 8.2664,-4.1036 2.8427,-6.0792 5.6275,-6.8898 10.815,-4.4641 2.5941,1.2131 5.064,4.7483 8.8813,6.5332 3.8591,1.8046 9.7055,-2.622 13.073,-4.2019 1.019,-0.4786 1.7612,-1.1668 2.269,-1.975 z m -133.4,194.2 c 0.68714,-1.1339 -0.131,-2.7937 -0.43329,-4.2386 0.87162,-4.474 -13.067,-5.0149 -16.526,-3.7602 -9.8517,3.5739 0.20813,2.1508 5.2086,2.4355 4.5405,0.2586 1.7456,5.7806 1.8044,8.0193 0.0713,2.7147 7.553,-1.1182 8.6835,-1.5281 0.63855,-0.2323 1.0328,-0.5501 1.2619,-0.928 z m 85.632,-345.83 c 0.75942,-1.178 0.0234,-2.7642 -2.1319,-4.5156 -3.0433,-2.4729 -7.718,-1.2284 -11.331,-2.9178 -3.607,-1.6866 -5.4572,-7.1201 -8.3146,-9.4418 -3.8228,-3.1064 -3.6922,-2.7262 -4.9887,-6.3 -0.40914,-1.1278 1.0142,-2.1687 1.5224,-3.2554 -0.37734,-3.6507 -6.0329,-4.2186 -8.8813,-6.5332 -2.9115,-2.3659 -3.2523,-3.9356 -6.8864,-5.6349 -2.692,-1.2588 -4.6514,-3.7618 -7.8554,-5.26 -4.2546,-1.9895 -4.8545,-2.4589 -8.4502,-2.3644 -3.9999,0.10502 -5.3552,1.4108 -8.6131,3.1481 -3.3307,1.7762 -4.9795,6.2885 -4.871,10.417 0.12186,4.6392 0.25776,6.2412 1.2377,10.928 0.78049,3.7328 0.55236,7.194 -0.0514,10.291 -0.5392,2.7682 -1.5709,7.1122 -2.0177,9.4057 -0.45886,2.355 -4.2554,-3.8626 -6.5109,-3.0444 -3.9115,1.4191 -0.33121,8.0289 -0.0935,8.6842 0.79131,2.1814 10.391,-0.90204 11.58,-0.93321 3.1109,-0.0817 6.2856,-4.9952 8.8331,-7.0124 4.2793,-3.3887 6.2968,-3.9062 11.424,-5.7662 7.1225,-2.5838 6.0803,0.2933 8.3367,-2.4837 2.59,-3.1874 -0.23697,-3.5408 9.2931,-1.2087 6.1435,1.5034 7.0074,6.5828 11.224,10.009 3.8893,3.1605 5.3555,5.9686 10.764,5.8266 3.7753,-0.0991 6.0233,-0.85959 6.7828,-2.0375 z m -124.3,210.93 c 0.423,-2.1711 -4.4965,-1.9627 -5.251,-4.0421 l -1.7332,-4.7778 c -3.7874,-10.44 -7.3095,-9.4682 -16.348,-9.2305 -4.1364,0.1086 -8.8663,-0.4842 -12.896,-1.2691 -5.0142,-0.9768 -7.5693,4.2359 -9.4699,8.3014 -2.5215,5.3925 -4.7885,4.3627 -8.1265,8.8951 -3.8668,5.2506 3.8276,9.7587 8.039,11.728 4.999,2.3377 8.898,3.988 12.109,8.0424 5.8587,7.3985 13.14,5.5289 20.043,3.0245 4.9784,-1.8061 4.1453,-8.4748 4.8421,-12.052 1.1279,-5.7894 2.5557,-7.1107 8.7908,-8.619 z m 127.49,-359.15 c 1.3191,-1.0445 -7.9787,-5.3177 -10.488,-6.491 -3.2772,-1.5324 -5.8814,-2.0338 -9.073,-2.6555 -4.8358,-0.9421 -5.3605,0.12658 -4.0844,3.6443 0.51879,1.4301 8.2171,3.8422 9.7659,4.5666 3.9653,1.8542 7.1681,1.4334 9.7102,1.3667 1.3984,-0.0367 2.7772,-0.28714 4.1687,-0.43103 z"
           id="path7212"
           inkscape:connector-curvature="0"
           style="opacity:0.45894003;fill-rule:evenodd" />
        <path
           d="m 482.95,1171.9 c 19.291,-64.668 13.146,-130.86 -12.545,-187.96 0.93641,10.807 7.1405,60.567 7.9019,64.904 6.812,38.809 -4.1088,98.054 -24.463,132.4 -2.017,3.4043 -4.0342,6.8239 -6.0512,10.228 -9.7583,16.47 -14.068,37.105 -19.629,55.746 -3.3849,11.348 3.3639,12.789 11.34,10.524 19.001,-25.088 33.925,-53.93 43.446,-85.851 z"
           id="path7214"
           style="opacity:0.65216998;fill:url(#g);fill-rule:evenodd"
           inkscape:connector-curvature="0" />
        <path
           d="M 400.49,1084 A 14.251079,10.688059 84.215 0 1 397.6171,1055.643 14.251079,10.688059 84.215 1 1 400.49,1084 Z"
           id="path7216"
           inkscape:connector-curvature="0"
           style="opacity:0.16425003" />
        <path
           d="m 362.31,943.69 a 12.215126,8.1434842 34.762 0 1 9.2866,-13.38 12.215126,8.1434842 34.762 1 1 -9.2866,13.38 z"
           id="path7218"
           inkscape:connector-curvature="0"
           style="opacity:0.16425003" />
        <path
           d="M 279.77,1236 A 6.1077,8.6525 45.657 0 1 292.146,1223.905 6.1077,8.6525 45.657 0 1 279.77,1236 Z"
           id="path7220"
           inkscape:connector-curvature="0"
           style="opacity:0.16425003" />
        <path
           d="m 285.94,1317.6 a 4.0717095,10.179024 66.373 1 1 -3.2637,-7.4608 4.0717095,10.179024 66.373 1 1 3.2637,7.4608 z"
           id="path7222"
           inkscape:connector-curvature="0"
           style="opacity:0.16425003" />
        <path
           d="m 306.35,865.83 a 5.0896,4.0717 16.61 1 1 2.3278,-7.8036 5.0896,4.0717 16.61 0 1 -2.3278,7.8036 z"
           id="path7224"
           inkscape:connector-curvature="0"
           style="opacity:0.16425003" />
        <path
           d="m 63.232,1018.5 a 5.0896,4.0717 16.61 0 1 2.3278,-7.8036 5.0896,4.0717 16.61 1 1 -2.3278,7.8036 z"
           id="path7226"
           inkscape:connector-curvature="0"
           style="opacity:0.16425003" />
        <path
           d="m 60.939,1026.3 a 15.269229,12.215183 16.61 1 1 6.9834,-23.411 15.269229,12.215183 16.61 0 1 -6.9834,23.411 z"
           id="path7228"
           inkscape:connector-curvature="0"
           style="opacity:0.16425003" />
        <path
           d="m 461.65,1225.8 c -33.197,58.159 -84.726,99.305 -143.16,120.32 -71.813,25.82 -154.06,21.232 -225.53,-19.558 -129.65,-74 -174.77,-239.1 -100.8,-368.7 73.98,-129.66 239.07,-174.79 368.72,-100.79 129.65,73.99 174.77,239.09 100.77,368.69 z"
           id="path7230"
           style="fill:url(#h)"
           inkscape:connector-curvature="0" />
      </g>
    </g>
  </g>
  <g
     transform="translate(6.9476,-260.47126)"
     id="g7232">
    <g
       transform="matrix(0.16777,0,0,0.16777,128.29,365.96)"
       id="g7234">
      <title
         id="title7236">Layer 1</title>
      <g
         id="g7238"
         style="stroke-width:5">
        <g
           transform="matrix(0.74885,0,0,0.93973,-740.27,411.93)"
           id="g7240"
           style="opacity:0.75;fill:#ffffff;filter:url(#k)">
          <path
             d="m 379.13,219.53 c 32.649,13.047 132.05,19.101 1.7891,7.5759 30.726,-9.9705 119.98,-56.146 120.99,-8.1535 -17.889,10.982 12.426,10.891 10.835,10.754 -87.384,-7.5184 -68.799,0.0266 -36.265,-11.579 45.943,-15.142 102.41,-31.659 107.98,26.033 5.3399,-0.63961 21.373,-1.3986 16.02,-1.9188 -20.513,-1.9936 -41.29,-0.29015 -61.778,-2.5282 -11.404,-1.2458 22.792,-3.3695 34.263,-3.244 89.246,0.97668 63.506,-2.3166 106.47,4.1553 6.0897,-0.2204 24.357,-0.40156 18.269,-0.66122 -21.671,-0.92418 -43.39,-0.36183 -65.059,-1.3342 -5.3229,-0.23885 10.633,-0.87689 15.961,-0.86896 30.731,0.0458 61.491,2.4726 92.189,1.0302 26.628,-1.2511 -54.159,1.3836 -79.736,-6.1264 -33.392,-11.064 -173.96,-29.539 3.3166,-17.738 21.062,1.402 60.617,30.781 79.79,42.311 52.904,39.522 -172.69,14.65 -71.544,-13.495 41.223,0.61927 82.463,0.49199 123.67,1.8578 61.581,2.0412 -34.111,32.001 -89.453,13.946 -7.6108,-5.2305 -108.74,-22.281 -106.82,-31.919 1.2739,-6.4002 10.856,-7.244 16.285,-10.866 54.067,0.54388 119.11,1.0438 169.61,27.67 -3.9611,15.207 -1.0822,8.1402 -8.4044,21.293 l -67.916,-4.882 c 8.0734,-4.175 7.4036,-1.9002 -1.9486,-6.8423 -30.389,-7.9302 -151.98,-32.979 -24.822,-27.374 1.5109,-20.361 85.341,11.192 101.73,23.16 32.303,11.09 -3.7058,-2.6316 -46.943,4.7866 -3.387,0.58108 4.6945,5.0198 7.0418,7.5297 -7.4165,0.26163 -14.833,0.52329 -22.249,0.78488 -9.0502,-0.25216 -36.068,-1.1048 -27.075,-2.1592 22.794,-2.6728 45.864,-1.822 68.795,-2.733 -10.309,-0.86566 -20.731,-0.84909 -30.928,-2.597 -1.4038,-0.24064 -3.98,-4.0468 -2.8411,-3.1915 46.315,34.782 -88.894,34.515 -101.59,16.424 -128.53,-94.743 55.231,-104.49 108.43,-41.63 13.137,46.473 1.1745,-14.97 -74.057,23.558 -18.935,9.6972 42.542,-0.87527 63.816,-0.86935 4.4194,0.001 -8.8111,0.76166 -13.229,0.88345 -96.309,2.6551 -65.674,4.343 -111.41,1.1732 -35.167,-4.5243 -19.603,-1.8422 51.012,-2.8753 10.408,-0.15227 -20.667,2.7481 -31.069,3.1291 -95.683,3.5051 -68.066,15.042 -105.81,-2.9912 -36.207,-46.149 109.43,-34.717 36.6,-21.408 -35.606,12.84 -126.63,48.601 -118.17,2.4749 92.985,-4.1002 69.69,-8.5189 20.322,14.206 -50.036,2.5728 -98.174,11.541 -141.77,-15.835 l 65.684,-8.9173 z"
             id="path7242"
             inkscape:connector-curvature="0"
             style="opacity:0.41111001;filter:url(#j)" />
          <path
             d="m 4186.5,-551.11 c 32.931,13.879 132.13,19.329 3.4512,12.006 31.259,-8.8251 121.74,-53.042 123.67,-4.4071 -17.525,10.963 12.981,10.81 11.418,10.627 -86.204,-10.089 -68,-1.2242 -35.06,-14.285 46.416,-17.35 103.69,-37.641 109.26,20.051 5.3399,-0.63961 21.373,-1.3986 16.02,-1.9188 -20.513,-1.9936 -41.299,-0.25429 -61.778,-2.5282 -11.402,-1.2661 22.792,-3.3695 34.263,-3.244 89.246,0.97668 63.506,-2.3166 106.47,4.1553 6.0897,-0.2204 24.357,-0.40157 18.269,-0.66122 -21.671,-0.92418 -43.39,-0.36185 -65.059,-1.3342 -5.3229,-0.23885 10.633,-0.87689 15.961,-0.86896 30.731,0.0458 61.491,2.4726 92.189,1.0302 26.628,-1.2511 -54.159,1.3836 -79.736,-6.1264 -33.392,-11.064 -173.96,-29.539 3.3166,-17.738 21.062,1.402 60.617,30.781 79.79,42.311 52.904,39.522 -172.69,14.65 -71.544,-13.495 41.223,0.61927 82.463,0.49199 123.67,1.8578 61.581,2.0412 -34.111,32.001 -89.453,13.946 -7.6108,-5.2305 -108.74,-22.281 -106.82,-31.919 1.2739,-6.4002 10.856,-7.244 16.285,-10.866 54.067,0.54388 119.11,1.0438 169.61,27.67 -3.9611,15.207 -1.0822,8.1402 -8.4044,21.293 l -67.916,-4.882 c 8.0734,-4.175 7.4036,-1.9001 -1.9486,-6.8423 -30.389,-7.9302 -151.98,-32.979 -24.822,-27.374 1.5109,-20.361 85.341,11.192 101.73,23.16 32.303,11.09 -3.7058,-2.6316 -46.943,4.7866 -3.387,0.58108 4.6945,5.0198 7.0418,7.5297 -7.4165,0.26162 -14.833,0.52327 -22.249,0.78486 -9.0502,-0.25216 -36.068,-1.1048 -27.075,-2.1592 22.794,-2.6728 45.864,-1.822 68.795,-2.733 -10.309,-0.86567 -20.731,-0.84911 -30.928,-2.597 -1.4038,-0.24065 -3.98,-4.0468 -2.8411,-3.1915 46.315,34.782 -88.894,34.515 -101.59,16.424 -128.53,-94.743 55.231,-104.49 108.43,-41.63 13.137,46.473 1.1745,-14.97 -74.057,23.558 -18.935,9.6972 42.542,-0.87527 63.816,-0.86935 4.4194,0.001 -8.8111,0.76165 -13.229,0.88345 -96.309,2.6551 -65.674,4.343 -111.41,1.1732 -35.167,-4.5243 -19.603,-1.8422 51.012,-2.8753 10.408,-0.15227 -20.667,2.7481 -31.069,3.1291 -95.683,3.5051 -68.066,15.042 -105.81,-2.9912 -36.42,-46.149 109.43,-34.717 36.6,-21.408 -35.606,12.84 -130.11,48.601 -122.73,2.4749 91.209,-4.1002 68.828,-8.5189 18.509,14.206 -50.723,2.5728 -99.418,11.541 -143.01,-15.835 l 65.894,-8.2791 z"
             transform="matrix(1.1031,0,0,1.4132,-416.92,249.41)"
             id="path7244"
             inkscape:connector-curvature="0"
             style="filter:url(#i)" />
        </g>
        <g
           transform="translate(1914,-447.21)"
           id="g7246">
          <path
             d="m 119.78,821.65 c -27.528,11.143 -42.421,67.518 -75.762,42.63 -41.864,3.9402 -90.157,-1.2096 -126.41,28.593 -26.832,15.327 35.811,1.4282 1.4238,15.622 -27.093,11.29 -64.723,26.445 -81.96,-9.1996 -25.035,-8.7314 -90.09,21.983 -62.085,55.56 15.257,10.842 -35.077,14.806 -44.828,20.838 -20.829,1.6938 -52.128,14.613 -45.347,22.09 26.72,9.906 61.601,32.125 90.068,51.291 36.955,25.334 77.624,-1.343 116.46,9.6814 28.154,1.6225 52.325,25.774 79.66,27.042 28.483,4.751 80.829,35.2 94.93,32.38 -43.89,11.957 25.616,22.08 39.387,22.064 15.883,0.7777 18.251,-2.0449 7.2108,11.278 29.158,8.3111 60.472,4.2946 90.379,2.8171 38.781,-9.9583 80.441,-10.056 116.9,-30.086 13.739,-44.379 74.937,-42.99 110.76,-60.754 41.909,-10.776 83.056,-42.157 126.29,-19.754 7.5291,-9.9526 55.621,8.9864 81.886,-7.722 -34.082,-15.975 -72.323,-16.98 -99.872,-50.115 -37.734,5.3262 -44.561,-46.699 -79.542,-43.25 -30.694,-23.09 -63.501,9.1034 -91.448,-2.543 5.9071,-19.115 44.151,-8.9538 35.651,-8.7659 19.226,5.2647 62.566,-6.4824 18.842,-11.104 -20.15,-3.1116 -76.271,8.9282 -40.604,-12.966 -39.257,0.5198 -73.102,-36.339 -112.63,-37.647 17.277,-60.442 -61.314,-32.883 -87.281,-29.489 -46.977,0.3573 36.454,21.507 -0.0891,30.025 -35.439,11.92 -38.321,-33.133 -61.988,-48.518 z m 280.8,109.31 -0.9294,0.0637 0.9294,-0.0637 z m -0.9361,0.0605 c -5.7867,-4.3178 -8.6324,5.0993 0,0 z m -4.0251,-0.78661 c -3.5473,-0.81543 -2.2312,-0.51289 0,0 z m -325.21,187.87001 c 5.1546,-2.0772 -7.6179,-0.2259 0,0 z m 119.05,-269.64001 c -12.887,1.2896 -21.695,-0.0617 0,0 z m 48.956,6.0206 c -12.722,9.6879 -17.619,-5.2258 0,0 z m -122.72,10.377 c 1.3681,1.5657 -2.1181,0.27786 0,0 z m 27.427,6.7467 c -2.7728,4.1376 -14.057,-1.3225 0,0 z m -107.95,3.691 c -14.212,4.9974 -12.791,-1.2243 0,0 z m 195.03,0.7866 c 16.526,-2.5711 61.206,21.001 43.164,21.737 6.7768,-28.614 -74.816,-11.754 -43.164,-21.737 z m -102.5,0.30255 c -2.8724,6.4045 -12.344,-6.5795 0,0 z m 59.042,18.546 c 22.797,2.1509 -15.866,5.2414 0,0 z m -3.9549,18.758 c 54.951,9.2094 -29.757,5.4562 0,0 z m 191.36,7.1097 c 16.325,-0.0609 29.81,1.3025 5.0262,0.24444 l -5.0262,-0.24444 z m -197.91,1.785 c 10.341,0.13097 2.2632,0.0287 0,0 z m 155.67,5.1735 c 14.41,4.623 -25.516,2.2145 0,0 z m 79.8,18.243 c 13.461,-1.8214 68.264,22.581 28.399,14.732 -10.041,-1.6783 -21.845,-3.1556 -28.399,-14.732 z m -661.45,61.59696 c -0.25997,4.2518 -6.7171,-5.2363 0,0 z m -2.8316,1.7245 c 4.5596,-1.5962 12.065,7.4481 0,0 z m 797.9,14.34 c 11.286,6.2186 59.881,5.9439 25.447,6.0125 14.856,-2.7593 36.288,8.2256 8.9669,5.1532 -10.863,-4.5851 -28.031,5.0768 -34.414,-11.166 z m -696.5,10.77 c -0.0176,2.1231 -2.9409,-2.542 0,0 z m 4.2591,9.6511 c -3.4374,0.9944 -1.7649,0.5106 0,0 z m -42.38,1.6337 c 14.917,2.9825 74.871,-1.7761 29.902,5.246 -10.031,1.5585 -20.951,1.7435 -29.902,-5.246 z m 77.413,0.6353 c 5.156,-2.5544 2.8152,10.287 0,0 z m 573.41,4.5381 -0.6318,0.3329 0.6318,-0.3329 z m -397.69,39.149 c 15.057,-2.838 61.967,16.291 20.373,14.041 -10.964,8.158 -47.857,8.3918 -20.373,-14.041 z"
             transform="matrix(0.4096,0,0,0.4096,-2494.5,700.31)"
             id="path7248"
             inkscape:connector-curvature="0"
             style="opacity:0.5;fill:#dddddd;fill-opacity:0.73332974;filter:url(#a)" />
        </g>
      </g>
    </g>
  </g>
</svg>
