<svg xmlns:rdf="http://www.w3.org/1999/02/22-rdf-syntax-ns#" xmlns="http://www.w3.org/2000/svg" height="250" width="600" version="1.1" xmlns:cc="http://creativecommons.org/ns#" xmlns:dc="http://purl.org/dc/elements/1.1/" viewBox="0 0 600.00184 250.00191">
<defs>
<radialGradient id="g" gradientUnits="userSpaceOnUse" cy="82.897" cx="-88.068" gradientTransform="matrix(.82702 .53511 -.64544 1.0109 980.41 944.61)" r="388.16">
<stop stop-opacity=".89231" offset="0"/>
<stop stop-color="#181818" stop-opacity=".9451" offset=".75"/>
<stop stop-color="#c97900" stop-opacity=".50256" offset="1"/>
</radialGradient>
<radialGradient id="f" gradientUnits="userSpaceOnUse" cy="398.08" cx="354.29" gradientTransform="translate(-1.4286 .49496)" r="320">
<stop stop-color="#eeb500" offset="0"/>
<stop stop-color="#c7c300" offset=".47562"/>
<stop stop-color="#ffaf05" offset=".85612"/>
<stop stop-color="#ff5407" offset="1"/>
</radialGradient>
<clipPath id="d">
<rect stroke-linejoin="round" height="86680" width="1.3271e5" stroke="#fff" stroke-linecap="round" y="-55692" x="-39022" stroke-width="3" fill="none"/>
</clipPath>
<filter id="e">
<feGaussianBlur stdDeviation="6.4"/>
</filter>
</defs>
<g transform="matrix(-.032915 .47754 .47071 .033393 -120.55 -81.022)">
<g transform="translate(362,190)" fill-opacity=".97647">
<path d="m0.46804 65.119c-23.184 0-44-21.336-44-4.5 0 3.035-10.388 3.952-9.25 6.719-63.078 10.384-105.47 46.2-134.57 92.671-18.792 30.016-28.315 70.877-28.324 101.7 0 110.4 89.18 199.98 199.58 199.98 10.39 0 20.59-0.81 30.558-2.34-0.003 0.09-0.08816 0.29813 0 0.28 7.5079-1.5436 8.6306-2.0094 14.5-3.5 7.219-1.38 16.03-4.3007 7.219-1.38 16.477-4.45 28.553-8.9433 43.055-17.213 8.0315-3.2108 9.3764-5.0891 14.597-8.5791 12.482-8.36-7.8496 5.809 12.884-9.4354 11.096-9.192 8.7218-6.0522 21.968-19.892 8.1513-8.8058 15.862-17.842 18.75-22.81 19.2-27.22 30.768-57.908 34.378-92.788 0.47073-8.9285 1.033-16.588 0.65155-38.902-2.7651-25.499-3.9317-26.054-7.9986-40.618-10.274-30.2-11.193-32.75-31.376-62.179-9.34-13.63-20.54-24.35-34.03-35.84-19.922-16.965-43.222-29.344-72.721-36.367-4.575-1.719-4.183-1.948-8.199-3.064-16.988-4.717-4.491-1.949-27.675-1.949z" fill="#d7ded1"/>
<path fill="#eef0ec" d="m-26.562 66.625c-4.941 0.192-7.521 5.872-11.157 9.437-16.426 0.764-33.059 4.951-49.125 14.094-40.526 23.064-68.586 60.084-87.036 93.064-7.61-0.28-13.689 3.098-21.189 3.358-8.37 2.42-1.1406 9.6698 2.2694 14.85 3.75 7.9-3.5605 14.752-10.08 20.632-6.8 3.75-4.63 12.16 3.04 12.32 0.83 0.31 1.62 0.47 2.37 0.53-4.15 11.46-6.03 18.59-6.03 18.59s216.36-190.21 306.88-117.38-33.439-30.91-78.286-48.432c0.584-5.486 3.553-14.122-2.563-17.219-6.025 2.92-12.85 2.84-19.375 3.219-9.6219 1.651-17.833-4.359-26.781-6.563-1.075-0.374-2.039-0.535-2.937-0.5z" fill-rule="evenodd"/>
<path fill-rule="evenodd" d="m162.06 305.12c-109.6 59.4-180.31 128.69-292.03 106.07 0 0 69.282 45.3 143.72 38 1.833 1.75 3.533 3.65 5.875 4.59 4.636 0.69 8.78-2.67 12-5.59 0.662-0.64 1.062-1.36 1.281-2.1 17.637-4.01 35.269-11.37 52.032-23.43 3.292 2.92 6.495 6.16 10.124 5.37 3.817-4.95 8.388-9.62 11.818-14.44-0.28-2.01-0.83-5.31-1.85-8.18 5.45-5.51 10.75-11.61 15.88-18.38 4.13-2.65 7.9-5.92 11.25-9.53 2.11-2.51 5.33-5.64 3.53-9.19-0.32-0.45-0.8-0.92-1.28-1.4 10.27-17.19 19.59-37.6 27.65-61.79z" fill="#c4ccbd"/>
</g>
<circle transform="matrix(.30544 0 0 .30544 194.47 315.86)" cy="460.93" cx="351.43" r="200" fill="#c4ccbe"/>
<path d="m293.95 401.68c-28.2 4.12-48.51 28.37-48.51 56.06 6.43-23.89 26.93-39.84 52.95-43.64 19.19-2.8 37.21 0.19 50.79 12-11.82-17.48-32.97-27.67-55.23-24.42z" fill="#a2ae98"/>
<path d="m290.7 391.89c-28.2 4.13-50.25 24.46-50.24 52.15 6.43-23.89 26.48-42.9 52.5-46.71 19.19-2.81 37.65 3.24 51.23 15.05-11.82-17.48-31.23-23.75-53.49-20.49z" fill="#ececec"/>
<path d="m363.16 455.25c-0.24 6.16-1.38 12.21-3.32 17.97 1.49-0.91 3.1-1.63 4.82-2.13 0.16-5.34-0.32-10.68-1.5-15.84zm12.43 21.5c-0.3 7.99-5.26 15.43-13.18 18.5-6.06 1.94-11.39 3.16-12.03-4.03-1.01 1.34-2.08 2.64-3.19 3.9-0.69-0.27-1.38-0.58-2.03-0.93 0.51 0.48 1.08 0.93 1.65 1.37-6.5 7.25-14.77 13.12-24.47 16.88-18.08 7.01-37.41 5.24-53.28-3.25 15.41 14.41 40.05 23.56 61.03 15.43 10.82-4.19 19.32-11.99 25.19-21.59 0.84-3.34 2.38-1.78 9.63-3.84 8.59-3.33 12.68-13.72 10.68-22.44z" fill="#a2ae98"/>
<circle transform="matrix(.13119 0 0 .13119 265.51 542.98)" cy="460.93" cx="351.43" r="200" fill="#c4ccbe"/>
<path d="m308.24 579.84c-12.11 1.77-20.84 12.18-20.83 24.08 2.76-10.26 11.56-17.11 22.74-18.75 8.24-1.2 15.98 0.09 21.81 5.16-5.07-7.51-14.16-11.89-23.72-10.49z" fill="#a2ae98"/>
<path d="m306.85 575.63c-12.12 1.78-21.59 10.51-21.58 22.4 2.76-10.26 11.37-18.42 22.55-20.06 8.24-1.21 16.16 1.39 22 6.46-5.08-7.5-13.41-10.19-22.97-8.8z" fill="#ececec"/>
<path d="m323.98 632.86c11.41-4.43 16.84-18.21 14.2-29.8-0.41 10.61-6.99 20.49-17.53 24.57-7.76 3.01-16.07 2.24-22.89-1.41 6.62 6.2 17.2 10.13 26.22 6.64z" fill="#a2ae98"/>
<path d="m317.07 627.04c11.89-2.93 19.56-14.15 18.4-25.98-1.75 10.47-8.78 18.31-19.75 21.02-8.09 2-16.98 1.31-23.27-3.18 5.78 6.98 15.24 10.46 24.62 8.14z" fill="#ececec"/>
<circle transform="matrix(.06262 0 0 .06262 192.84 475.64)" cy="460.93" cx="351.43" r="200" fill="#c4ccbe"/>
<path d="m213.23 493.23c-5.78 0.85-9.94 5.82-9.94 11.5 1.32-4.9 5.52-8.17 10.85-8.95 3.94-0.57 7.63 0.04 10.41 2.46-2.42-3.58-6.75-5.67-11.32-5.01z" fill="#808080"/>
<path d="m212.57 491.23c-5.78 0.84-10.3 5.01-10.3 10.69 1.31-4.9 5.43-8.8 10.76-9.58 3.93-0.57 7.72 0.67 10.5 3.09-2.42-3.59-6.4-4.87-10.96-4.2z" fill="#ececec"/>
<path d="m220.74 518.54c5.45-2.11 8.05-8.69 6.78-14.22-0.19 5.06-3.34 9.78-8.36 11.73-3.71 1.43-7.67 1.07-10.93-0.67 3.16 2.95 8.21 4.83 12.51 3.16z" fill="#808080"/>
<path d="m217.45 515.77c5.67-1.41 9.33-6.76 8.78-12.41-0.84 5-4.19 8.74-9.43 10.04-3.86 0.95-8.1 0.62-11.11-1.52 2.76 3.33 7.28 4.99 11.76 3.89z" fill="#ececec"/>
<circle transform="matrix(.11832 0 0 .11832 215.45 297.93)" cy="460.93" cx="351.43" r="200" fill="#daded5"/>
<path d="m253.99 331.17c-10.93 1.6-18.79 10.99-18.79 21.71 2.49-9.25 10.43-15.43 20.51-16.9 7.43-1.08 14.41 0.08 19.67 4.65-4.58-6.77-12.77-10.72-21.39-9.46z" fill="#808080"/>
<path d="m252.73 327.38c-10.93 1.6-19.47 9.47-19.46 20.2 2.49-9.26 10.25-16.62 20.33-18.09 7.44-1.09 14.59 1.25 19.85 5.82-4.58-6.77-12.1-9.19-20.72-7.93z" fill="#ececec"/>
<path d="m268.18 378.99c10.29-3.99 15.19-16.42 12.8-26.88-0.37 9.58-6.3 18.48-15.8 22.16-7.01 2.72-14.49 2.02-20.64-1.27 5.97 5.59 15.51 9.13 23.64 5.99z" fill="#808080"/>
<path d="m261.95 373.74c10.72-2.65 17.64-12.76 16.6-23.44-1.59 9.46-7.93 16.52-17.82 18.97-7.29 1.8-15.31 1.17-20.99-2.87 5.21 6.3 13.75 9.43 22.21 7.34z" fill="#ececec"/>
<circle transform="matrix(.06262 0 0 .06262 375.84 287.64)" cy="460.93" cx="351.43" r="200" fill="#daded5"/>
<path d="m396.23 305.23c-5.78 0.85-9.94 5.82-9.94 11.5 1.32-4.9 5.52-8.17 10.85-8.95 3.94-0.57 7.63 0.04 10.41 2.46-2.42-3.58-6.75-5.67-11.32-5.01z" fill="#808080"/>
<path d="m395.57 303.23c-5.78 0.84-10.3 5.01-10.3 10.69 1.31-4.9 5.43-8.8 10.76-9.58 3.93-0.57 7.72 0.67 10.5 3.09-2.42-3.59-6.4-4.87-10.96-4.2z" fill="#ececec"/>
<path d="m403.74 330.54c5.45-2.11 8.05-8.69 6.78-14.22-0.19 5.06-3.34 9.78-8.36 11.73-3.71 1.43-7.67 1.07-10.93-0.67 3.16 2.95 8.21 4.83 12.51 3.16z" fill="#808080"/>
<path d="m400.45 327.77c5.67-1.41 9.33-6.76 8.78-12.41-0.84 5-4.19 8.74-9.43 10.04-3.86 0.95-8.1 0.62-11.11-1.52 2.76 3.33 7.28 4.99 11.76 3.89z" fill="#ececec"/>
<g transform="matrix(.708 .14107 -.16809 .84361 236.98 12.64)">
<circle transform="matrix(.11832 0 0 .11832 443.45 470.93)" cy="460.93" cx="351.43" r="200" fill="#c4ccbe"/>
<path d="m481.99 504.17c-10.93 1.6-18.79 10.99-18.79 21.71 2.49-9.25 10.43-15.43 20.51-16.9 7.43-1.08 14.41 0.08 19.67 4.65-4.58-6.77-12.77-10.72-21.39-9.46z" fill="#a2ae98"/>
<path d="m480.73 500.38c-10.93 1.6-19.47 9.47-19.46 20.2 2.49-9.26 10.25-16.62 20.33-18.09 7.44-1.09 14.59 1.25 19.85 5.82-4.58-6.77-12.1-9.19-20.72-7.93z" fill="#ececec"/>
<path d="m496.18 551.99c10.29-3.99 15.19-16.42 12.8-26.88-0.37 9.58-6.3 18.48-15.8 22.16-7.01 2.72-14.49 2.02-20.64-1.27 5.97 5.59 15.51 9.13 23.64 5.99z" fill="#a2ae98"/>
<path d="m489.95 546.74c10.72-2.65 17.64-12.76 16.6-23.44-1.59 9.46-7.93 16.52-17.82 18.97-7.29 1.8-15.31 1.17-20.99-2.87 5.21 6.3 13.75 9.43 22.21 7.34z" fill="#ececec"/>
</g>
<circle transform="matrix(.098724 0 0 .098724 321.4 432.05)" cy="460.93" cx="351.43" r="200" fill="#c4ccbe"/>
<path d="m369.09 480.75c-0.3 7.99-13.51 11.43-22.93 10-11.13 7.74-17.66 9.77-32.82 15.94-21.58 4.26-39.41-2.01-55.28-10.5 15.41 14.41 40.05 23.56 61.03 15.43 10.82-4.19 21.32-8.49 27.19-18.09 3.09 0.41 5.13 1.97 10.63 1.66 3.59 0.42 12.18 1.28 12.18-14.44z" fill="#ececec"/>
<circle transform="matrix(.12384 0 0 .12384 336.62 481.09)" cy="460.93" cx="351.43" r="200" fill="#c4ccbe"/>
<path d="m376.95 515.88c-11.43 1.67-19.66 11.5-19.66 22.73 2.6-9.68 10.91-16.15 21.46-17.69 7.79-1.14 15.09 0.07 20.6 4.86-4.79-7.08-13.37-11.22-22.4-9.9z" fill="#a2ae98"/>
<path d="m375.64 511.91c-11.44 1.68-20.38 9.92-20.37 21.15 2.6-9.69 10.73-17.4 21.28-18.94 7.79-1.14 15.27 1.31 20.77 6.1-4.79-7.09-12.66-9.63-21.68-8.31z" fill="#ececec"/>
<path d="m391.81 565.93c10.77-4.17 15.9-17.19 13.4-28.13-0.38 10.02-6.6 19.34-16.54 23.2-7.33 2.84-15.17 2.11-21.61-1.33 6.25 5.84 16.24 9.56 24.75 6.26z" fill="#a2ae98"/>
<path d="m385.29 560.44c11.22-2.77 18.46-13.36 17.37-24.53-1.65 9.89-8.29 17.29-18.64 19.85-7.64 1.88-16.03 1.23-21.98-3 5.46 6.59 14.4 9.87 23.25 7.68z" fill="#ececec"/>
<circle fill-opacity=".97647" transform="matrix(.097159 -.01751 .0079452 .044087 261.22 274.57)" cy="460.93" cx="351.43" r="200" fill="#e2e4df"/>
<path d="m295.09 281.26c-8.86 2.21-14.69 6.87-13.97 10.87 1.43-3.82 7.53-7.29 15.71-9.33 6.03-1.51 11.84-2.11 16.47-1.18-4.22-1.85-11.21-2.11-18.21-0.36z" fill="#808080"/>
<path d="m293.81 280.03c-8.87 2.21-15.35 6.41-14.63 10.41 1.42-3.82 7.31-7.71 15.49-9.75 6.03-1.51 12.05-1.69 16.68-0.77-4.21-1.84-10.55-1.63-17.54 0.11z" fill="#ececec"/>
<path d="m309.96 296.98c8.18-3.01 11.37-8.37 8.71-11.91 0.34 3.62-3.94 7.82-11.49 10.59-5.57 2.05-11.77 2.9-17.04 2.58 5.28 1.2 13.36 1.11 19.82-1.26z" fill="#808080"/>
<path d="m304.49 295.94c8.63-2.57 13.63-7.36 12.06-11.19-0.67 3.76-5.4 7.33-13.36 9.7-5.87 1.76-12.49 2.71-17.43 2.04 4.71 1.58 11.93 1.48 18.73-0.55z" fill="#ececec"/>
<circle transform="matrix(.043895 -.019239 .044616 .10179 178.48 545.14)" cy="460.93" cx="351.43" r="200" fill="#c4ccbe"/>
<path d="m205.31 567.47c-3.45 3.15-2.82 12.51 1.22 21.74-2.56-8.36-1.95-14.97 1.24-17.88 2.34-2.14 5.37-2.28 9.05 0.8-4.25-5.08-8.78-7.14-11.51-4.66z" fill="#a2ae98"/>
<path d="m203.42 564.42c-3.45 3.15-3.65 11.31 0.39 20.54-2.56-8.37-2.46-15.96 0.73-18.87 2.34-2.15 5.88-1.3 9.56 1.78-4.26-5.08-7.96-5.94-10.68-3.45z" fill="#ececec"/>
<path d="m228.61 606.3c2.31-5.1-0.56-16.59-5.38-25.2 3.47 8.3 4.63 16.93 2.49 21.64-1.58 3.47-4.61 4.09-8.14 2.26 4.32 3.83 9.2 5.33 11.03 1.3z" fill="#a2ae98"/>
<path d="m224.32 602.8c2.98-4.02 1.73-13.84-2.68-22.86 2.98 8.39 3.29 15.5 0.54 19.21-2.02 2.74-5.23 3.5-8.87 0.95 4.31 4.57 8.66 5.88 11.01 2.7z" fill="#ececec"/>
<g transform="matrix(.9134 -.24403 .21007 .78629 -32.955 180.35)">
<circle transform="matrix(.17954 0 0 .17954 370.24 308.37)" cy="460.93" cx="351.43" r="200" fill="#c4ccbe"/>
<path d="m428.71 358.82c-16.58 2.42-28.52 16.67-28.52 32.95 3.78-14.04 15.83-23.42 31.13-25.65 11.28-1.65 21.87 0.11 29.85 7.05-6.94-10.27-19.38-16.27-32.46-14.35z" fill="#a2ae98"/>
<path d="m426.8 353.06c-16.58 2.43-29.54 14.38-29.53 30.65 3.77-14.04 15.56-25.21 30.86-27.45 11.28-1.65 22.12 1.9 30.11 8.84-6.95-10.27-18.36-13.95-31.44-12.04z" fill="#ececec"/>
<path d="m450.24 431.38c15.62-6.06 23.06-24.92 19.44-40.79-0.56 14.53-9.57 28.05-23.99 33.63-10.63 4.12-21.99 3.07-31.32-1.92 9.06 8.47 23.54 13.85 35.87 9.08z" fill="#a2ae98"/>
<path d="m440.8 423.42c16.26-4.02 26.76-19.37 25.18-35.57-2.4 14.34-12.03 25.07-27.04 28.78-11.06 2.73-23.23 1.78-31.85-4.35 7.91 9.55 20.87 14.31 33.71 11.14z" fill="#ececec"/>
<g transform="matrix(.10015 0 0 .10015 386.4 347.37)">
<path d="m329.56 392.23c-32.32 4.72-55.59 32.51-55.59 64.23 7.37-27.37 30.86-45.64 60.68-50 21.99-3.21 42.63 0.22 58.19 13.76-13.54-20.04-37.77-31.72-63.28-27.99z" fill="#a2ae98"/>
<path d="m325.84 381.01c-32.32 4.73-57.58 28.03-57.57 59.75 7.36-27.37 30.34-49.15 60.16-53.51 21.99-3.22 43.13 3.7 58.7 17.24-13.55-20.03-35.78-27.21-61.29-23.48z" fill="#ececec"/>
<path d="m371.54 533.68c30.45-11.8 44.95-48.58 37.88-79.51-1.09 28.33-18.65 54.68-46.75 65.56-20.72 8.03-42.88 5.98-61.06-3.75 17.66 16.52 45.89 27.01 69.93 17.7z" fill="#a2ae98"/>
<path d="m353.12 518.16c31.71-7.83 52.17-37.75 49.09-69.33-4.68 27.96-23.44 48.86-52.69 56.09-21.58 5.33-45.3 3.49-62.1-8.47 15.42 18.62 40.67 27.9 65.7 21.71z" fill="#ececec"/>
</g>
<g transform="matrix(.072158 0 0 .072158 413.73 346.21)">
<path d="m329.56 392.23c-32.32 4.72-55.59 32.51-55.59 64.23 7.37-27.37 30.86-45.64 60.68-50 21.99-3.21 42.63 0.22 58.19 13.76-13.54-20.04-37.77-31.72-63.28-27.99z" fill="#a2ae98"/>
<path d="m325.84 381.01c-32.32 4.73-57.58 28.03-57.57 59.75 7.36-27.37 30.34-49.15 60.16-53.51 21.99-3.22 43.13 3.7 58.7 17.24-13.55-20.03-35.78-27.21-61.29-23.48z" fill="#ececec"/>
<path d="m371.54 533.68c30.45-11.8 44.95-48.58 37.88-79.51-1.09 28.33-18.65 54.68-46.75 65.56-20.72 8.03-42.88 5.98-61.06-3.75 17.66 16.52 45.89 27.01 69.93 17.7z" fill="#a2ae98"/>
<path d="m353.12 518.16c31.71-7.83 52.17-37.75 49.09-69.33-4.68 27.96-23.44 48.86-52.69 56.09-21.58 5.33-45.3 3.49-62.1-8.47 15.42 18.62 40.67 27.9 65.7 21.71z" fill="#ececec"/>
</g>
</g>
<circle transform="matrix(.079762 0 0 .073759 275.26 400.9)" cy="460.93" cx="351.43" r="200" fill="#c4ccbe"/>
<path d="m301.23 421.62c-7.36 1-12.66 6.85-12.66 13.54 1.68-5.77 7.03-9.62 13.82-10.54 5.02-0.68 9.72 0.05 13.27 2.9-3.09-4.22-8.61-6.68-14.43-5.9z" fill="#a2ae98"/>
<path d="m300.39 419.26c-7.37 0.99-13.13 5.9-13.12 12.59 1.68-5.77 6.91-10.36 13.71-11.28 5.01-0.68 9.83 0.78 13.37 3.63-3.08-4.22-8.15-5.73-13.96-4.94z" fill="#ececec"/>
<path d="m310.8 451.43c6.94-2.49 10.25-10.24 8.64-16.75-0.25 5.96-4.26 11.52-10.66 13.81-4.72 1.69-9.77 1.26-13.91-0.79 4.02 3.48 10.45 5.69 15.93 3.73z" fill="#a2ae98"/>
<path d="m306.61 448.16c7.22-1.65 11.88-7.96 11.18-14.61-1.06 5.89-5.34 10.3-12.01 11.82-4.91 1.12-10.32 0.73-14.15-1.79 3.52 3.93 9.27 5.88 14.98 4.58z" fill="#ececec"/>
<g transform="matrix(.3876 0 0 .3876 251.07 351.95)">
<circle transform="matrix(.13119 0 0 .13119 265.51 542.98)" cy="460.93" cx="351.43" r="200" fill="#c4ccbe"/>
<path d="m308.24 579.84c-12.11 1.77-20.84 12.18-20.83 24.08 2.76-10.26 11.56-17.11 22.74-18.75 8.24-1.2 15.98 0.09 21.81 5.16-5.07-7.51-14.16-11.89-23.72-10.49z" fill="#a2ae98"/>
<path d="m306.85 575.63c-12.12 1.78-21.59 10.51-21.58 22.4 2.76-10.26 11.37-18.42 22.55-20.06 8.24-1.21 16.16 1.39 22 6.46-5.08-7.5-13.41-10.19-22.97-8.8z" fill="#ececec"/>
<path d="m323.98 632.86c11.41-4.43 16.84-18.21 14.2-29.8-0.41 10.61-6.99 20.49-17.53 24.57-7.76 3.01-16.07 2.24-22.89-1.41 6.62 6.2 17.2 10.13 26.22 6.64z" fill="#a2ae98"/>
<path d="m317.07 627.04c11.89-2.93 19.56-14.15 18.4-25.98-1.75 10.47-8.78 18.31-19.75 21.02-8.09 2-16.98 1.31-23.27-3.18 5.78 6.98 15.24 10.46 24.62 8.14z" fill="#ececec"/>
</g>
<g transform="matrix(.2952 0 0 .2952 212.02 418.68)">
<circle transform="matrix(.13119 0 0 .13119 265.51 542.98)" cy="460.93" cx="351.43" r="200" fill="#c4ccbe"/>
<path d="m308.24 579.84c-12.11 1.77-20.84 12.18-20.83 24.08 2.76-10.26 11.56-17.11 22.74-18.75 8.24-1.2 15.98 0.09 21.81 5.16-5.07-7.51-14.16-11.89-23.72-10.49z" fill="#a2ae98"/>
<path d="m306.85 575.63c-12.12 1.78-21.59 10.51-21.58 22.4 2.76-10.26 11.37-18.42 22.55-20.06 8.24-1.21 16.16 1.39 22 6.46-5.08-7.5-13.41-10.19-22.97-8.8z" fill="#ececec"/>
<path d="m323.98 632.86c11.41-4.43 16.84-18.21 14.2-29.8-0.41 10.61-6.99 20.49-17.53 24.57-7.76 3.01-16.07 2.24-22.89-1.41 6.62 6.2 17.2 10.13 26.22 6.64z" fill="#a2ae98"/>
<path d="m317.07 627.04c11.89-2.93 19.56-14.15 18.4-25.98-1.75 10.47-8.78 18.31-19.75 21.02-8.09 2-16.98 1.31-23.27-3.18 5.78 6.98 15.24 10.46 24.62 8.14z" fill="#ececec"/>
</g>
<g transform="matrix(.2292 0 0 .2292 275.39 444.62)">
<circle transform="matrix(.13119 0 0 .13119 265.51 542.98)" cy="460.93" cx="351.43" r="200" fill="#c4ccbe"/>
<path d="m308.24 579.84c-12.11 1.77-20.84 12.18-20.83 24.08 2.76-10.26 11.56-17.11 22.74-18.75 8.24-1.2 15.98 0.09 21.81 5.16-5.07-7.51-14.16-11.89-23.72-10.49z" fill="#a2ae98"/>
<path d="m306.85 575.63c-12.12 1.78-21.59 10.51-21.58 22.4 2.76-10.26 11.37-18.42 22.55-20.06 8.24-1.21 16.16 1.39 22 6.46-5.08-7.5-13.41-10.19-22.97-8.8z" fill="#ececec"/>
<path d="m323.98 632.86c11.41-4.43 16.84-18.21 14.2-29.8-0.41 10.61-6.99 20.49-17.53 24.57-7.76 3.01-16.07 2.24-22.89-1.41 6.62 6.2 17.2 10.13 26.22 6.64z" fill="#a2ae98"/>
<path d="m317.07 627.04c11.89-2.93 19.56-14.15 18.4-25.98-1.75 10.47-8.78 18.31-19.75 21.02-8.09 2-16.98 1.31-23.27-3.18 5.78 6.98 15.24 10.46 24.62 8.14z" fill="#ececec"/>
</g>
<g transform="matrix(.47889 -.14303 .11382 .38109 228.17 414.01)">
<circle transform="matrix(.13119 0 0 .13119 265.51 542.98)" cy="460.93" cx="351.43" r="200" fill="#c4ccbe"/>
<path d="m308.24 579.84c-12.11 1.77-20.84 12.18-20.83 24.08 2.76-10.26 11.56-17.11 22.74-18.75 8.24-1.2 15.98 0.09 21.81 5.16-5.07-7.51-14.16-11.89-23.72-10.49z" fill="#a2ae98"/>
<path d="m306.85 575.63c-12.12 1.78-21.59 10.51-21.58 22.4 2.76-10.26 11.37-18.42 22.55-20.06 8.24-1.21 16.16 1.39 22 6.46-5.08-7.5-13.41-10.19-22.97-8.8z" fill="#ececec"/>
<path d="m323.98 632.86c11.41-4.43 16.84-18.21 14.2-29.8-0.41 10.61-6.99 20.49-17.53 24.57-7.76 3.01-16.07 2.24-22.89-1.41 6.62 6.2 17.2 10.13 26.22 6.64z" fill="#a2ae98"/>
<path d="m317.07 627.04c11.89-2.93 19.56-14.15 18.4-25.98-1.75 10.47-8.78 18.31-19.75 21.02-8.09 2-16.98 1.31-23.27-3.18 5.78 6.98 15.24 10.46 24.62 8.14z" fill="#ececec"/>
</g>
<g transform="matrix(.48375 0 0 .61575 358.14 66.551)">
<circle transform="matrix(.13119 0 0 .13119 265.51 542.98)" cy="460.93" cx="351.43" r="200" fill="#c4ccbe"/>
<path d="m308.24 579.84c-12.11 1.77-20.84 12.18-20.83 24.08 2.76-10.26 11.56-17.11 22.74-18.75 8.24-1.2 15.98 0.09 21.81 5.16-5.07-7.51-14.16-11.89-23.72-10.49z" fill="#a2ae98"/>
<path d="m306.85 575.63c-12.12 1.78-21.59 10.51-21.58 22.4 2.76-10.26 11.37-18.42 22.55-20.06 8.24-1.21 16.16 1.39 22 6.46-5.08-7.5-13.41-10.19-22.97-8.8z" fill="#ececec"/>
<path d="m323.98 632.86c11.41-4.43 16.84-18.21 14.2-29.8-0.41 10.61-6.99 20.49-17.53 24.57-7.76 3.01-16.07 2.24-22.89-1.41 6.62 6.2 17.2 10.13 26.22 6.64z" fill="#a2ae98"/>
<path d="m317.07 627.04c11.89-2.93 19.56-14.15 18.4-25.98-1.75 10.47-8.78 18.31-19.75 21.02-8.09 2-16.98 1.31-23.27-3.18 5.78 6.98 15.24 10.46 24.62 8.14z" fill="#ececec"/>
</g>
<path d="m346.04 466.25c-6.11 4.22-8.18 11.85-5.15 17.81-1.12-5.91 1.91-11.77 7.55-15.67 4.16-2.87 8.68-4.36 13.13-3.43-4.66-2.36-10.7-2.05-15.53 1.29z" fill="#a2ae98"/>
<path d="m346.79 462.58c-6.85 2.87-11.14 9.11-9.4 15.57 0.12-6.01 3.99-11.8 10.31-14.45 4.67-1.96 9.7-1.8 13.87 0.03-4.08-3.27-9.37-3.42-14.78-1.15z" fill="#ececec"/>
</g>
<g transform="matrix(.98093 0 0 .98728 -102.54 27.338)">
<g transform="translate(-140.93,-467.65)">
<g transform="matrix(.32768 0 0 .32768 4.3722 213.35)">
<path d="m1242.7 1144.6c-36.096 63.661-92.125 108.7-155.67 131.7-78.084 28.263-167.52 23.24-245.22-21.408-141.02-81-190.08-261.69-109.65-403.55 80.45-141.93 259.96-191.33 400.94-110.33 140.98 80.99 190.04 261.71 109.57 403.57z" fill="url(#g)"/>
<path opacity=".16425" d="m1149.3 1211.7a13.437 8.9578 34.762 0 1 10.215 -14.718 13.437 8.9578 34.762 1 1 -10.215 14.718z"/>
<path opacity=".16425" d="m1093.7 1133.5a5.5986 4.4789 16.61 0 1 2.5606 -8.584 5.5986 4.4789 16.61 1 1 -2.5606 8.584z"/>
</g>
</g>
</g>
<g transform="translate(6.9476 -260.47)">
<g transform="matrix(.16777 0 0 .16777 128.29 365.96)">
<title>Layer 1</title>
</g>
</g>
<g transform="translate(-818.09 -273.57)">
<path d="m672.86 398.57a320 320 0 0 1 -640 0 320 320 0 1 1 640 0z" transform="matrix(.079766 0 0 .079766 1351.3 445.36)" filter="url(#e)" fill="url(#f)"/>
<path fill="#fef200" d="m170.92 678.49a0.16 0.16 0 0 1 -0.32 0 0.16 0.16 0 1 1 0.32 0z"/>
<path d="m674.29 398.08a320 320 0 1 1 -640 0 320 320 0 1 1 640 0z" clip-path="url(#d)" transform="matrix(.005235 0 0 .005235 1655.9 255.4)" fill="#fef200"/>
<g transform="translate(802.36 -416.72)">
<g transform="translate(-386.2,-145.43)">
<g fill="#fff">
<path d="m670.43 847.76c-0.10411 0-0.19095 0.0841-0.19095 0.18822 0 0.1041 0.0868 0.18822 0.19095 0.18822 0.10407 0 0.18822-0.0841 0.18822-0.18822 0-0.10409-0.0841-0.18822-0.18822-0.18822zm-1.5179 1.4981c-0.12092 0-0.22096 0.10004-0.22096 0.22097 0 0.12091 0.10004 0.21824 0.22096 0.21824 0.12094 0 0.21823-0.0973 0.21823-0.21824 0-0.12093-0.0973-0.22097-0.21823-0.22097zm-63.782-3.4038c-0.1076 0-0.19369 0.0888-0.19369 0.19641 0 0.10764 0.0861 0.1937 0.19369 0.1937 0.10761 0 0.19641-0.0861 0.19641-0.1937s-0.0888-0.19641-0.19641-0.19641zm-31.419-2.8332c-0.0781 0-0.14185 0.0639-0.14185 0.14185 0 0.0781 0.0639 0.13913 0.14185 0.13913 0.0781 0 0.14186-0.061 0.14186-0.13913 0-0.0781-0.0639-0.14185-0.14186-0.14185zm97.271 9.0426c-0.1076 0-0.19642 0.0888-0.19642 0.19642 0 0.10759 0.0888 0.19368 0.19642 0.19368 0.10759 0 0.19368-0.0861 0.19368-0.19368 0-0.1076-0.0861-0.19642-0.19368-0.19642zm-133.84-5.425c-0.0829 0-0.15002 0.0673-0.15002 0.15004 0 0.0828 0.0673 0.15003 0.15002 0.15003 0.0828 0 0.15004-0.0673 0.15004-0.15003 0-0.0829-0.0673-0.15004-0.15004-0.15004zm141.38 5.7493c-0.0966 0-0.1746 0.0807-0.1746 0.1773s0.078 0.17459 0.1746 0.17459c0.0961 0 0.17458-0.0779 0.17458-0.17459 0-0.0966-0.0785-0.1773-0.17458-0.1773zm-141.48-3.3036c-0.15608 0-0.2837 0.1276-0.2837 0.2837 0 0.15609 0.12762 0.2837 0.2837 0.2837 0.1561 0 0.28097-0.12761 0.28097-0.2837 0-0.1561-0.12487-0.2837-0.28097-0.2837zm0.26105 0.7441c-0.0933 0-0.16914 0.0758-0.16914 0.16913 0 0.0933 0.0759 0.16915 0.16914 0.16915 0.0933 0 0.1664-0.0758 0.1664-0.16915 0-0.0933-0.0731-0.16913-0.1664-0.16913zm84.721-1.5846c-0.14618 0-0.26461 0.11843-0.26461 0.26463 0 0.14617 0.11843 0.26733 0.26461 0.26733 0.1462 0 0.26464-0.12116 0.26464-0.26733 0-0.1462-0.11844-0.26463-0.26464-0.26463zm-62.352-8.05c-0.12759 0-0.23187 0.10427-0.23187 0.23188 0 0.12759 0.10428 0.23188 0.23187 0.23188 0.1276 0 0.23189-0.10429 0.23189-0.23188 0-0.12761-0.10429-0.23188-0.23189-0.23188zm8.95 29.951c-0.0978 0-0.17732 0.0795-0.17732 0.17732 0 0.0978 0.0795 0.17732 0.17732 0.17732 0.0978 0 0.17731-0.0795 0.17731-0.17732 0-0.0978-0.0795-0.17732-0.17731-0.17732zm8.4333 5.222c-0.0916 0-0.16641 0.0749-0.16641 0.16642 0 0.0916 0.0749 0.1664 0.16641 0.1664 0.0916 0 0.16639-0.0749 0.16639-0.1664 0-0.0916-0.0749-0.16642-0.16639-0.16642zm39.653-25.276c-0.0809 0-0.14731 0.0638-0.14731 0.14458 0 0.0808 0.0664 0.1473 0.14731 0.1473 0.0807 0 0.14459-0.0664 0.14459-0.1473 0-0.0808-0.0638-0.14458-0.14459-0.14458zm-40.998 25.671c-0.16193 0-0.2919 0.12997-0.2919 0.29189 0 0.16193 0.12996 0.29462 0.2919 0.29462 0.1619 0 0.29461-0.13269 0.29461-0.29462 0-0.16191-0.13271-0.29189-0.29461-0.29189zm-17.037-33.808c-0.0932 0-0.16913 0.0731-0.16913 0.16642 0 0.0932 0.0759 0.16913 0.16913 0.16913 0.0932 0 0.1664-0.0759 0.1664-0.16913 0-0.0933-0.0732-0.16642-0.1664-0.16642zm9.7354 29.795c-0.15292 0-0.27823 0.12257-0.27823 0.27551 0 0.15295 0.12531 0.27825 0.27823 0.27825 0.15295 0 0.27555-0.1253 0.27555-0.27825 0-0.15294-0.1226-0.27551-0.27555-0.27551zm67.808-29.007c-0.16112 0-0.2919 0.13076-0.2919 0.29188s0.13078 0.29188 0.2919 0.29188c0.16111 0 0.2919-0.13076 0.2919-0.29188 0-0.16111-0.13079-0.29188-0.2919-0.29188zm-60.488 34.155c-0.10872 0-0.19643 0.0877-0.19643 0.19641 0 0.10874 0.0877 0.19642 0.19643 0.19642 0.10872 0 0.19643-0.0877 0.19643-0.19642 0-0.1087-0.0877-0.19641-0.19643-0.19641zm43.369-24.528c-0.0605 0-0.10911 0.0486-0.10911 0.10913 0 0.0605 0.0485 0.10911 0.10911 0.10911 0.0606 0 0.10913-0.0485 0.10913-0.10911 0-0.0605-0.0486-0.10913-0.10913-0.10913zm1.9835 0.43647c-0.16008 0-0.2919 0.12907-0.2919 0.28916 0 0.16011 0.13182 0.28916 0.2919 0.28916s0.28916-0.12904 0.28916-0.28916c0-0.16008-0.12906-0.28916-0.28916-0.28916zm24.892 4.309c-0.0926 0-0.16912 0.0738-0.16912 0.16641 0 0.0925 0.0766 0.1664 0.16912 0.1664 0.0926 0 0.1664-0.0738 0.1664-0.1664s-0.0738-0.16641-0.1664-0.16641zm-94.3-10.83c-0.11253 0-0.2046 0.092-0.2046 0.20459 0 0.11251 0.092 0.2046 0.2046 0.2046 0.11251 0 0.20184-0.0921 0.20184-0.2046 0-0.11253-0.0893-0.20459-0.20184-0.20459zm90.84 13.892c-0.0942 0-0.17187 0.0749-0.17187 0.16914 0 0.0942 0.0776 0.17184 0.17187 0.17184 0.0942 0 0.16913-0.0776 0.16913-0.17184 0-0.0942-0.0749-0.16914-0.16913-0.16914zm52.028-13.109c-0.10377 0-0.1882 0.0845-0.1882 0.18823 0 0.10379 0.0844 0.18822 0.1882 0.18822 0.10381 0 0.18551-0.0845 0.18551-0.18822 0-0.1038-0.0817-0.18823-0.18551-0.18823zm-102.94 39.33c-0.10797 0-0.19641 0.0884-0.19641 0.19642 0 0.10795 0.0884 0.19368 0.19641 0.19368 0.10795 0 0.19369-0.0857 0.19369-0.19368 0-0.10795-0.0858-0.19642-0.19369-0.19642zm28.855-26.329c-0.0958 0-0.17458 0.0788-0.17458 0.17462 0 0.0958 0.0788 0.17188 0.17458 0.17188 0.0959 0 0.17186-0.0761 0.17186-0.17188 0-0.0958-0.076-0.17462-0.17186-0.17462zm16.29 1.5287c-0.0542 0-0.0927 0.0581-0.0927 0.11459 0 0.0642 0.0503 0.1173 0.11456 0.1173 0.0644 0 0.11731-0.053 0.11731-0.1173 0-0.0642-0.053-0.11459-0.11731-0.11459-0.01 0-0.0143-0.003-0.0218 0zm-27.846-0.95037c-0.0665 0-0.12003 0.0535-0.12003 0.12004 0 0.0665 0.0535 0.12003 0.12003 0.12003 0.0665 0 0.12002-0.0535 0.12002-0.12003 0-0.0665-0.0535-0.12004-0.12002-0.12004zm22.291 28.536c0 0.0822 0.0678 0.14731 0.15006 0.14731 0.0822 0 0.14729-0.0652 0.14729-0.14731-0.12271-0.22095-0.18896-0.12567-0.29735 0zm30.163-27.463c-0.14482 0-0.26188 0.11707-0.26188 0.26189 0 0.1448 0.11706 0.26188 0.26188 0.26188s0.26188-0.11707 0.26188-0.26188c0-0.14482-0.11706-0.26189-0.26188-0.26189zm-111.99-13.08c-0.11703 0-0.21006 0.0957-0.21006 0.21277 0 0.11701 0.093 0.21005 0.21006 0.21005 0.11701 0 0.21277-0.093 0.21277-0.21005 0-0.11703-0.0958-0.21277-0.21277-0.21277zm69.082 12.619c-0.0735 0-0.13366 0.0599-0.13366 0.13366 0 0.0735 0.06 0.13366 0.13366 0.13366 0.0736 0 0.13366-0.06 0.13366-0.13366 0-0.0736-0.06-0.13366-0.13366-0.13366zm28.288 1.0786c-0.15654 0-0.28372 0.1272-0.28372 0.28371 0 0.15654 0.12719 0.28371 0.28372 0.28371s0.2837-0.12719 0.2837-0.28371c0-0.15653-0.12719-0.28371-0.2837-0.28371zm-9.5236 0.0927c-0.124 0-0.22643 0.10244-0.22643 0.22643 0 0.12401 0.10243 0.22371 0.22643 0.22371 0.12399 0 0.22367-0.0997 0.22367-0.22371 0-0.12399-0.0997-0.22643-0.22367-0.22643zm49.505 0.30008c-0.14658 0-0.26461 0.12077-0.26461 0.26735 0 0.14659 0.11803 0.26459 0.26461 0.26459 0.14659 0 0.26462-0.118 0.26462-0.26459 0-0.14658-0.11803-0.26735-0.26462-0.26735zm-26.399 0.0491c-0.1369 0-0.24823 0.11134-0.24823 0.24826 0 0.13691 0.11133 0.24824 0.24823 0.24824s0.24824-0.11133 0.24824-0.24824c0-0.13692-0.11134-0.24826-0.24824-0.24826zm-51.661-0.51936c-0.0693 0-0.12548 0.0561-0.12548 0.12548 0 0.0695 0.0561 0.12549 0.12548 0.12549 0.0695 0 0.12549-0.0562 0.12549-0.12549 0-0.0694-0.0561-0.12548-0.12549-0.12548zm2.0923 0.81294c-0.0806 0-0.14458 0.0641-0.14458 0.14457 0 0.0807 0.0639 0.1473 0.14458 0.1473 0.0807 0 0.1473-0.0667 0.1473-0.1473s-0.0667-0.14457-0.1473-0.14457zm-63.195-10.86c-0.0918 0-0.16641 0.0746-0.16641 0.16639 0 0.0918 0.0746 0.16641 0.16641 0.16641 0.0918 0 0.16638-0.0747 0.16638-0.16641 0-0.0918-0.0747-0.16639-0.16638-0.16639zm-12.974-0.58186c-0.15733 0-0.28642 0.1291-0.28642 0.28645 0 0.15733 0.12909 0.28368 0.28642 0.28368 0.15735 0 0.28371-0.12635 0.28371-0.28368 0-0.15735-0.12637-0.28645-0.28371-0.28645zm126.57 14.212c-0.11815 0-0.21277 0.0946-0.21277 0.21278 0 0.11816 0.0946 0.21277 0.21277 0.21277 0.11819 0 0.21553-0.0946 0.21553-0.21277s-0.0973-0.21278-0.21553-0.21278zm-51.307-0.80582c-0.15406 0-0.27823 0.12416-0.27823 0.27825s0.12417 0.28097 0.27823 0.28097c0.15407 0 0.27826-0.12688 0.27826-0.28097s-0.12419-0.27825-0.27826-0.27825zm24.542 28.438c-0.14594 0-0.26461 0.1187-0.26461 0.26465 0 0.14591 0.11867 0.2646 0.26461 0.2646 0.14595 0 0.26462-0.11869 0.26462-0.2646 0-0.14596-0.11867-0.26465-0.26462-0.26465zm-6.3916 0.16643c-0.01-0.0609-0.10913 0.0507-0.10913 0.11185 0 0.0449 0.0245 0.0841 0.0626 0.10095-0.01 0-0.011-0.008-0.0163-0.008-0.0777 0-0.13911 0.0641-0.13911 0.14185 0 0.0778 0.0613 0.14183 0.13911 0.14183 0.0777 0 0.14186-0.0641 0.14186-0.14183 0-0.0582-0.14214-0.13092-0.0873-0.13092h0.01c0.0611 0 0.11184-0.048 0.11184-0.10916 0-0.0611-0.10576-0.051-0.11184-0.11182zm60.381-25.79c-0.12592 0-0.22915 0.1032-0.22915 0.22915 0 0.12593 0.10323 0.22641 0.22915 0.22641 0.12594 0 0.22643-0.10048 0.22643-0.22641 0-0.12595-0.10049-0.22915-0.22643-0.22915zm-94.843 26.683c-0.0677 0-0.12277 0.0551-0.12277 0.12278 0 0.0676 0.0551 0.12274 0.12277 0.12274 0.0676 0 0.12275-0.055 0.12275-0.12274 0-0.0676-0.055-0.12278-0.12275-0.12278zm68.162-25.611c-0.12215 0-0.22096 0.0988-0.22096 0.22096 0 0.12217 0.0988 0.22096 0.22096 0.22096 0.12217 0 0.22371-0.0988 0.22371-0.22096 0-0.12217-0.10154-0.22096-0.22371-0.22096zm-70.803 17.903c-0.0742 0-0.13365 0.0595-0.13365 0.13367 0 0.0742 0.0595 0.13365 0.13365 0.13365 0.0742 0 0.1364-0.0595 0.1364-0.13365 0-0.0742-0.0624-0.13367-0.1364-0.13367zm97.663-16.192c-0.10969 0-0.19914 0.0894-0.19914 0.19915 0 0.10967 0.0894 0.19913 0.19914 0.19913 0.10967 0 0.19914-0.0894 0.19914-0.19913 0-0.10969-0.0894-0.19915-0.19914-0.19915zm-157.33-27.47c-0.11299 0-0.2046 0.0916-0.2046 0.2046 0 0.11297 0.0916 0.20459 0.2046 0.20459 0.11297 0 0.20459-0.0916 0.20459-0.20459s-0.0916-0.2046-0.20459-0.2046z"/>
<path d="m785.02 1050.9c0.0814 0 0.14638-0.065 0.14638-0.1466 0-0.082-0.0649-0.1495-0.14638-0.1495-0.0814 0-0.14634 0.068-0.14634 0.1495 0 0.081 0.0649 0.1466 0.14634 0.1466zm86.787-36.41c0.0946 0 0.17181-0.078 0.17181-0.172 0-0.095-0.0772-0.1684-0.17181-0.1684-0.0946 0-0.16862 0.074-0.16862 0.1684 0 0.095 0.074 0.172 0.16862 0.172zm-88.464 33.161c0.11322 0 0.20683-0.093 0.20683-0.2067 0-0.1132-0.0936-0.2035-0.20683-0.2035-0.1132 0-0.20361 0.09-0.20361 0.2035 0 0.1131 0.0904 0.2067 0.20361 0.2067zm1.2823-0.021c0.0969 0 0.17497-0.078 0.17497-0.1749 0-0.097-0.0781-0.1751-0.17497-0.1751-0.0969 0-0.175 0.078-0.175 0.1751 0 0.097 0.0781 0.1749 0.175 0.1749zm20.251 22.883c0.16569 0 0.29907-0.1333 0.29907-0.299s-0.13335-0.3023-0.29907-0.3023c-0.16573 0-0.30229 0.1366-0.30229 0.3023s0.13656 0.299 0.30229 0.299zm100.77-12.822c0.0883 0 0.16226-0.07 0.16226-0.1589 0-0.088-0.0739-0.1592-0.16226-0.1592-0.0883 0-0.15907 0.071-0.15907 0.1592 0 0.088 0.0708 0.1589 0.15907 0.1589zm-76.839 28.028c0.13734 0 0.24818-0.1109 0.24818-0.2483s-0.11084-0.2481-0.24818-0.2481c-0.13737 0-0.24817 0.1107-0.24817 0.2481s0.1108 0.2483 0.24817 0.2483zm23.022-8.6854c0.18781 0 0.34046-0.1527 0.34046-0.3405s-0.15265-0.3404-0.34046-0.3404c-0.18779 0-0.34043 0.1526-0.34043 0.3404s0.15263 0.3405 0.34043 0.3405zm-68.436-31.287c0.0728 0 0.13043-0.061 0.13043-0.1336 0-0.073-0.0578-0.1304-0.13043-0.1304-0.0728 0-0.13043 0.057-0.13043 0.1304 0 0.073 0.0579 0.1336 0.13043 0.1336zm92.482-36.105c0.0844 0 0.15272-0.068 0.15272-0.1527 0-0.084-0.0683-0.1525-0.15272-0.1525-0.0844 0-0.15274 0.068-0.15274 0.1525 0 0.085 0.0683 0.1527 0.15274 0.1527zm-49.89 74.776c0.11096 0 0.20045-0.093 0.20045-0.2038 0-0.111-0.0895-0.2004-0.20045-0.2004-0.11096 0-0.20044 0.089-0.20044 0.2004 0 0.111 0.0895 0.2038 0.20044 0.2038zm1.7786-0.35c0.1814 0 0.33094-0.1496 0.33094-0.331s-0.14953-0.3277-0.33094-0.3277c-0.18136 0-0.3277 0.1463-0.3277 0.3277s0.14634 0.331 0.3277 0.331zm-2.9492-0.2738c0.1699 0 0.30863-0.1387 0.30863-0.3086 0-0.1698-0.13876-0.3054-0.30863-0.3054-0.1699 0-0.30864 0.1357-0.30864 0.3054 0 0.1699 0.13876 0.3086 0.30864 0.3086zm45.478-76.56c0.0915 0 0.16545-0.074 0.16545-0.1653 0-0.091-0.0739-0.1656-0.16545-0.1656-0.0916 0-0.16548 0.075-0.16548 0.1656 0 0.091 0.074 0.1653 0.16548 0.1653zm-61.618 58.798c0.11265 0 0.20364-0.091 0.20364-0.2038 0-0.1126-0.091-0.2036-0.20364-0.2036-0.11265 0-0.20365 0.091-0.20365 0.2036 0 0.1127 0.0909 0.2038 0.20365 0.2038zm-8.1971 0.5399c0.0907 0 0.16545-0.075 0.16545-0.1655 0-0.09-0.0748-0.1621-0.16545-0.1621-0.0907 0-0.16545 0.071-0.16545 0.1621 0 0.091 0.0748 0.1655 0.16545 0.1655zm52.197-95.503c0.12552 0 0.22592-0.10353 0.22592-0.22904 0-0.12552-0.1004-0.22587-0.22592-0.22587-0.1255 0-0.22907 0.10035-0.22907 0.22587 0 0.12551 0.10356 0.22904 0.22907 0.22904zm-4.779 9.5551c0.18373 0 0.33089-0.15045 0.33089-0.33412s-0.14716-0.33403-0.33089-0.33403c-0.18372 0-0.33408 0.15036-0.33408 0.33403s0.15036 0.33412 0.33408 0.33412zm56.744 72.699c0.12694 0 0.22908-0.1022 0.22908-0.229 0-0.127-0.10214-0.2324-0.22908-0.2324-0.12695 0-0.22909 0.1054-0.22909 0.2324 0 0.1268 0.10214 0.229 0.22909 0.229zm-32.462-48.304c0.091 0 0.16545-0.074 0.16545-0.1655 0-0.091-0.0745-0.1621-0.16545-0.1621-0.091 0-0.16546 0.071-0.16546 0.1621 0 0.091 0.0745 0.1655 0.16546 0.1655zm-63.706 58.995c0.0947 0 0.17178-0.077 0.17178-0.1715 0-0.095-0.077-0.172-0.17178-0.172-0.0948 0-0.17183 0.078-0.17183 0.172 0 0.095 0.077 0.1715 0.17183 0.1715zm49.944-145.99c0.0967 0 0.17499-0.0782 0.17499-0.17503 0-0.0967-0.0784-0.17496-0.17499-0.17496-0.0966 0-0.17499 0.0782-0.17499 0.17496 0 0.0967 0.0784 0.17503 0.17499 0.17503zm-39.829 162.1c0.17753 0 0.32136-0.1438 0.32136-0.3214 0-0.1774-0.14383-0.3213-0.32136-0.3213-0.17749 0-0.32133 0.1439-0.32133 0.3213 0 0.1776 0.14384 0.3214 0.32133 0.3214zm-11.076-17.228c0.0676 0 0.12091-0.053 0.12091-0.1209 0-0.067-0.0535-0.1241-0.12091-0.1241-0.0675 0-0.12089 0.056-0.12089 0.1241 0 0.067 0.0535 0.1209 0.12089 0.1209zm19.481 15.901c0.12599 0 0.22908-0.1031 0.22908-0.2292 0-0.1258-0.10309-0.229-0.22908-0.229-0.12597 0-0.22592 0.1032-0.22592 0.229 0 0.1261 0.0999 0.2292 0.22592 0.2292zm-15.818-7.3046c0.16347 0 0.29587-0.1323 0.29587-0.2959 0-0.1633-0.1324-0.2959-0.29587-0.2959-0.1635 0-0.29593 0.1326-0.29593 0.2959 0 0.1636 0.13243 0.2959 0.29593 0.2959zm47.361-156.32c0.18206 0 0.33089-0.14881 0.33089-0.33086 0-0.18212-0.14883-0.33093-0.33089-0.33093-0.18208 0-0.32771 0.14881-0.32771 0.33093 0 0.18205 0.14563 0.33086 0.32771 0.33086zm-0.31793-0.86541c0.10882 0 0.19726-0.0884 0.19726-0.19728 0-0.10881-0.0884-0.19727-0.19726-0.19727-0.10883 0-0.19408 0.0884-0.19408 0.19727 0 0.10881 0.0853 0.19728 0.19408 0.19728zm-36.9 53.965c0.1705 0 0.30863-0.13797 0.30863-0.30853 0-0.17047-0.13813-0.31172-0.30863-0.31172-0.17051 0-0.30863 0.14125-0.30863 0.31172 0 0.17056 0.13812 0.30853 0.30863 0.30853zm21.193 107.53c0.18463 0 0.33407-0.1494 0.33407-0.334 0-0.1847-0.14944-0.3341-0.33407-0.3341-0.18465 0-0.33408 0.1494-0.33408 0.3341 0 0.1846 0.14943 0.334 0.33408 0.334zm24.564-88.151c0.10677 0 0.19406-0.0873 0.19406-0.19393 0-0.10687-0.0873-0.19427-0.19406-0.19427-0.10678 0-0.19409 0.0874-0.19409 0.19427 0 0.10661 0.0873 0.19393 0.19409 0.19393zm-39.553-21.532c0.0942 0 0.1718-0.0741 0.1718-0.16885 0-0.0941-0.0775-0.17161-0.1718-0.17161s-0.16864 0.0773-0.16864 0.17161c0 0.0944 0.0744 0.16885 0.16864 0.16885zm41.122 21.071c0.18884 0 0.34044-0.15158 0.34044-0.34047 0-0.1888-0.15159-0.34355-0.34044-0.34355-0.18886 0-0.34364 0.15475-0.34364 0.34355 0 0.18889 0.15478 0.34047 0.34364 0.34047zm-63.876 68.896c0.18791 0 0.34045-0.1525 0.34045-0.3403 0-0.188-0.15254-0.3406-0.34045-0.3406-0.18794 0-0.34047 0.1526-0.34047 0.3406 0 0.1878 0.15253 0.3403 0.34047 0.3403zm63.853-70.219c0.12679 0 0.22908-0.10222 0.22908-0.22912 0-0.12674-0.10229-0.22905-0.22908-0.22905-0.1268 0-0.22907 0.10231-0.22907 0.22905 0 0.1269 0.10227 0.22912 0.22907 0.22912zm-43.887-22.404c0.0706 0 0.12727-0.057 0.12727-0.12722 0-0.07-0.0567-0.12731-0.12727-0.12731-0.0706 0-0.12727 0.057-0.12727 0.12731 0 0.071 0.0567 0.12722 0.12727 0.12722zm-2.3134-0.50915c0.1867 0 0.34043-0.15052 0.34043-0.33712 0-0.18676-0.15371-0.33736-0.34043-0.33736s-0.33728 0.1506-0.33728 0.33736c0 0.1866 0.15054 0.33712 0.33728 0.33712zm-29.033 59.63c0.108 0 0.19728-0.086 0.19728-0.1941 0-0.108-0.0893-0.1941-0.19728-0.1941-0.108 0-0.19407 0.086-0.19407 0.1941 0 0.108 0.0861 0.1941 0.19407 0.1941zm113.24-21.354c0.13124 0 0.23863-0.1074 0.23863-0.2384 0-0.1315-0.10739-0.2387-0.23863-0.2387s-0.23546 0.1072-0.23546 0.2387c0 0.131 0.10422 0.2384 0.23546 0.2384zm-109.19 17.798c0.10994 0 0.20041-0.087 0.20041-0.1972 0-0.1099-0.0904-0.2005-0.20041-0.2005-0.10994 0-0.19728 0.091-0.19728 0.2005 0 0.1098 0.0874 0.1972 0.19728 0.1972zm79.034-44.23c0.12591 0 0.22908-0.10329 0.22908-0.22913 0-0.12593-0.10317-0.22586-0.22908-0.22586-0.12593 0-0.22592 0.0999-0.22592 0.22586 0 0.12584 0.1 0.22913 0.22592 0.22913zm-53.27-20.36c0.11176 0 0.20362-0.0918 0.20362-0.20363 0-0.11182-0.0919-0.20045-0.20362-0.20045-0.11181 0-0.20047 0.0886-0.20047 0.20045 0 0.11183 0.0886 0.20363 0.20047 0.20363zm-19 62.872c-0.0632 0 0.10818-0.068 0.10818-0.1336 0-0.075-0.0586-0.1367-0.13364-0.1367-0.075 0-0.13681 0.062-0.13681 0.1367 0 0.075 0.0617 0.1336 0.13681 0.1336 0.01 0 0.0166 0.01 0.0255 0zm44.127-63.547c0.0776 0 0.13999-0.0627 0.13999-0.14009 0-0.0773-0.0624-0.13994-0.13999-0.13994-0.0776 0-0.14001 0.0627-0.14001 0.13994 0 0.0782 0.0625 0.14009 0.14001 0.14009zm61.032 44.658c0.13646 0 0.24495-0.11183 0.24495-0.24818 0-0.13642-0.10849-0.24491-0.24495-0.24491-0.13653 0-0.2482 0.10849-0.2482 0.24491 0 0.13635 0.11167 0.24818 0.2482 0.24818zm-83.812-45.374c0.0859 0 0.15592-0.07 0.15592-0.15581 0-0.0859-0.07-0.15598-0.15592-0.15598-0.0859 0-0.15589 0.07-0.15589 0.15598 0 0.0859 0.07 0.15581 0.15589 0.15581zm-32.994 63.397c0.18259 0 0.33088-0.1485 0.33088-0.3309 0-0.1826-0.14833-0.3309-0.33088-0.3309s-0.3309 0.1483-0.3309 0.3309c0 0.1824 0.14835 0.3309 0.3309 0.3309zm11.108-0.1082c0.14461 0 0.26407-0.1196 0.26407-0.2642 0-0.1445-0.11946-0.2608-0.26407-0.2608-0.14462 0-0.2609 0.1162-0.2609 0.2608s0.11628 0.2642 0.2609 0.2642zm44.954-64.457c0.0809 0 0.14636-0.0652 0.14636-0.14628 0-0.0806-0.0656-0.14636-0.14636-0.14636-0.0809 0-0.14634 0.066-0.14634 0.14636 0 0.0807 0.0654 0.14628 0.14634 0.14628zm-2.4404-0.94816c0.0941 0 0.16862-0.0742 0.16862-0.1686 0-0.094-0.0747-0.17186-0.16862-0.17186-0.094 0-0.17182 0.0782-0.17182 0.17186 0 0.0939 0.0778 0.1686 0.17182 0.1686zm65.297 43.321c0.10706 0 0.19408-0.087 0.19408-0.19409 0-0.10703-0.087-0.19411-0.19408-0.19411-0.10705 0-0.19406 0.0871-0.19406 0.19411 0 0.1071 0.087 0.19409 0.19406 0.19409zm-50.021-82.093c0.18353 0 0.33409-0.15053 0.33409-0.33403 0-0.18351-0.15056-0.33094-0.33409-0.33094-0.18349 0-0.33089 0.14743-0.33089 0.33094 0 0.1835 0.1474 0.33403 0.33089 0.33403zm-14.215 36.481c0.17972 0 0.32453-0.14482 0.32453-0.32457 0-0.17968-0.14481-0.32768-0.32453-0.32768s-0.32455 0.148-0.32455 0.32768c0 0.17975 0.14483 0.32457 0.32455 0.32457zm27.024 16.609c0.0789 0 0.14319-0.0643 0.14319-0.14303 0-0.079-0.0643-0.14336-0.14319-0.14336-0.0788 0-0.14319 0.0643-0.14319 0.14336 0 0.0789 0.0643 0.14303 0.14319 0.14303zm3.0808 8.9901c0.0865 0 0.1559-0.07 0.1559-0.15582 0-0.0865-0.0693-0.15597-0.1559-0.15597-0.0865 0-0.15909 0.0693-0.15909 0.15597 0 0.0865 0.0727 0.15582 0.15909 0.15582zm-11.988-52.2c0.13178 0 0.23862-0.10686 0.23862-0.23865 0-0.13178-0.10684-0.23864-0.23862-0.23864-0.13176 0-0.2386 0.10686-0.2386 0.23864 0 0.13179 0.10682 0.23865 0.2386 0.23865z"/>
<path d="m984.04 898.9c0 0.0857-0.0683 0.15408-0.15409 0.15408-0.0857 0-0.15745-0.0683-0.15745-0.15408 0-0.0857 0.0717-0.15404 0.15745-0.15404 0.0858 0 0.15409 0.0683 0.15409 0.15404zm-3.42-1.765c0 0.11918-0.0985 0.21773-0.2177 0.21773-0.11917 0-0.21434-0.0985-0.21434-0.21773 0-0.11915 0.0952-0.21432 0.21434-0.21432 0.1192 0 0.2177 0.0952 0.2177 0.21432zm-0.0202 1.3498c0 0.10196-0.0823 0.1842-0.18416 0.1842-0.10198 0-0.1842-0.0822-0.1842-0.1842 0-0.10198 0.0822-0.18422 0.1842-0.18422 0.10197 0 0.18416 0.0823 0.18416 0.18422zm11.605 46.515c0 0.1445-0.1166 0.2611-0.26117 0.2611-0.14463 0-0.26124-0.1166-0.26124-0.2611 0-0.1447 0.11661-0.2614 0.26124-0.2614 0.14457 0 0.26117 0.1167 0.26117 0.2614zm-13.589-47.806c0 0.0766-0.0642 0.13732-0.14068 0.13732-0.0766 0-0.13734-0.0608-0.13734-0.13732 0-0.0766 0.0605-0.1373 0.13734-0.1373 0.0767 0 0.14068 0.0608 0.14068 0.1373zm12.219 44.833c0 0.1167-0.0976 0.2109-0.21441 0.2109-0.11678 0-0.21102-0.094-0.21102-0.2109 0-0.1168 0.0942-0.211 0.21102-0.211 0.11685 0 0.21441 0.094 0.21441 0.211zm-0.36844 1.8721c0 0.1909-0.15736 0.3484-0.34828 0.3484-0.19097 0-0.34499-0.1574-0.34499-0.3484 0-0.1909 0.15402-0.345 0.34499-0.345 0.19092 0 0.34828 0.1541 0.34828 0.345zm-0.288-3.105c0 0.1789-0.14608 0.3251-0.32483 0.3251-0.17887 0-0.32155-0.1462-0.32155-0.3251 0-0.1786 0.14277-0.3247 0.32155-0.3247 0.17875 0 0.32483 0.1461 0.32483 0.3247zm-21.522-43.834c0 0.1974-0.16094 0.35839-0.35832 0.35839-0.1974 0-0.35502-0.16099-0.35502-0.35839s0.15762-0.35837 0.35502-0.35837c0.19738 0 0.35832 0.16097 0.35832 0.35837zm-1.0676 7.3114c0 0.19061-0.15437 0.34498-0.34496 0.34498s-0.34495-0.15437-0.34495-0.34498c0-0.19057 0.15436-0.34496 0.34495-0.34496s0.34496 0.15439 0.34496 0.34496zm-0.93441-4.7525c0 0.13345-0.10775 0.24115-0.24116 0.24115-0.13342 0-0.24111-0.1077-0.24111-0.24115 0-0.13342 0.10769-0.24112 0.24111-0.24112 0.13341 0 0.24116 0.1077 0.24116 0.24112zm-23.635 104.06c0 0.1015-0.0825 0.1843-0.18424 0.1843s-0.18418-0.082-0.18418-0.1843c0-0.1017 0.0824-0.1841 0.18418-0.1841 0.10176 0 0.18424 0.082 0.18424 0.1841zm43.308-69.296c0 0.18681-0.15136 0.33835-0.33827 0.33835-0.18681 0-0.33828-0.15154-0.33828-0.33835 0-0.18683 0.15147-0.33816 0.33828-0.33816 0.18691 0 0.33827 0.15133 0.33827 0.33816zm-21.635-36.769c0 0.14201-0.11254 0.25789-0.25452 0.25789-0.14199 0-0.25789-0.11588-0.25789-0.25789s0.1159-0.25453 0.25789-0.25453c0.14198 0 0.25452 0.11252 0.25452 0.25453zm20.239 45.616c0 0.1327-0.10851 0.2413-0.2411 0.2413-0.13261 0-0.24122-0.1086-0.24122-0.2413 0-0.1325 0.10855-0.2378 0.24122-0.2378 0.13259 0 0.2411 0.1053 0.2411 0.2378zm-18.564-56.433c0 0.17709-0.14113 0.32156-0.31825 0.32156-0.17703 0-0.32148-0.14447-0.32148-0.32156 0-0.17705 0.1444-0.31816 0.32148-0.31816 0.17712 0 0.31825 0.14111 0.31825 0.31816zm-26.342 117c0 0.1917-0.1567 0.3482-0.34835 0.3482-0.19164 0-0.3483-0.1565-0.3483-0.3482s0.15667-0.345 0.3483-0.345c0.19165 0 0.34835 0.1533 0.34835 0.345zm-1.019-0.3002c0 0.1145-0.0931 0.2076-0.20767 0.2076-0.11456 0-0.20764-0.093-0.20764-0.2076s0.0931-0.2043 0.20764-0.2043c0.11456 0 0.20767 0.089 0.20767 0.2043zm27.25-66.19c0 0.1794-0.14541 0.325-0.3249 0.325-0.17945 0-0.32819-0.1456-0.32819-0.325 0-0.1795 0.14874-0.3248 0.32819-0.3248 0.17949 0 0.3249 0.1453 0.3249 0.3248zm24.687 48.164c0 0.1125-0.092 0.2043-0.20431 0.2043-0.11238 0-0.20434-0.092-0.20434-0.2043 0-0.1124 0.092-0.2042 0.20434-0.2042 0.11239 0 0.20431 0.092 0.20431 0.2042zm-26.951-41.635c0 0.099-0.0783 0.1809-0.17754 0.1809-0.0992 0-0.18085-0.082-0.18085-0.1809 0-0.099 0.0816-0.1774 0.18085-0.1774 0.0993 0 0.17754 0.079 0.17754 0.1774zm26.465 43.286c0 0.1987-0.15957 0.3584-0.35838 0.3584-0.19877 0-0.36165-0.1596-0.36165-0.3584 0-0.1989 0.16288-0.3616 0.36165-0.3616 0.19881 0 0.35838 0.1627 0.35838 0.3616zm4.5893 9.306c-0.1878 0-0.34158-0.154-0.34158-0.3418 0-0.1876 0.15378-0.3382 0.34158-0.3382 0.73801 0.0427 0 0.67669 0 0.68zm-5.9815-9.3292c0 0.1335-0.10771 0.2411-0.24122 0.2411-0.13341 0-0.24111-0.1076-0.24111-0.2411s0.1077-0.2412 0.24111-0.2412c0.13351 0 0.24122 0.1077 0.24122 0.2412zm-27.869-46.197c0 0.075-0.0597 0.134-0.13402 0.134-0.0743 0-0.13397-0.059-0.13397-0.134 0-0.074 0.0596-0.134 0.13397-0.134 0.0743 0 0.13402 0.061 0.13402 0.134zm-0.53591-2.4352c0 0.1965-0.15848 0.3583-0.35501 0.3583-0.19654 0-0.35505-0.1618-0.35505-0.3583 0-0.1964 0.15851-0.3549 0.35505-0.3549 0.19653 0 0.35501 0.1585 0.35501 0.3549zm-17.895-89.804c0 0.1137-0.0906 0.20766-0.20431 0.20766-0.11369 0-0.2043-0.0939-0.2043-0.20766 0-0.11371 0.0906-0.20432 0.2043-0.20432s0.20431 0.0906 0.20431 0.20432zm-3.71 4.26c0 0.11572-0.092 0.21098-0.20763 0.21098-0.11572 0-0.21105-0.0953-0.21105-0.21098 0-0.11575 0.0953-0.20766 0.21105-0.20766 0.11565 0 0.20763 0.092 0.20763 0.20766zm38.392 142.43c0 0.1326-0.10866 0.2412-0.24122 0.2412-0.1325 0-0.23778-0.1086-0.23778-0.2412 0-0.1325 0.10528-0.2377 0.23778-0.2377 0.13256 0 0.24122 0.1052 0.24122 0.2377zm-25.658-56.109c0 0.1176-0.0967 0.2143-0.21439 0.2143-0.11768 0-0.21101-0.097-0.21101-0.2143 0-0.1177 0.0933-0.2108 0.21101-0.2108 0.11768 0 0.21439 0.093 0.21439 0.2108zm-14.482-79.243c0 0.0664-0.0714 0.11384-0.14067 0.11384-0.0789 0-0.14401-0.0616-0.14401-0.14066 0-0.0789 0.0651-0.14399 0.14401-0.14399 0.079 0 0.14067 0.065 0.14067 0.14399 0 0.01 0.008 0.0177 0 0.0267zm50.326 105.69c0 0.082-0.0658 0.1473-0.14744 0.1473-0.0817 0-0.14736-0.065-0.14736-0.1473 0-0.081 0.0657-0.1473 0.14736-0.1473 0.0817 0 0.14744 0.065 0.14744 0.1473zm-37.291-23.976c0 0.09-0.0736 0.164-0.16405 0.164-0.0904 0-0.16412-0.074-0.16412-0.164s0.0737-0.1641 0.16412-0.1641c0.0904 0 0.16405 0.074 0.16405 0.1641zm-13.929-93.973c0 0.19221-0.1562 0.34829-0.34837 0.34829-0.19214 0-0.34833-0.15615-0.34833-0.34829 0-0.19216 0.15619-0.3483 0.34833-0.3483 0.19217 0 0.34837 0.15614 0.34837 0.3483zm-0.1139 11.693c0 0.15221-0.12575 0.27797-0.27802 0.27797-0.15216 0-0.2746-0.12576-0.2746-0.27797 0-0.15223 0.12238-0.27464 0.2746-0.27464s0.27802 0.12241 0.27802 0.27464zm49.368 106.56c0 0.085-0.0689 0.1542-0.15405 0.1542-0.0852 0-0.15408-0.069-0.15408-0.1542 0-0.084 0.0689-0.1538 0.15408-0.1538 0.0853 0 0.15405 0.068 0.15405 0.1538zm-0.99808-2.5688c0 0.099-0.0785 0.1777-0.17748 0.1777-0.099 0-0.1809-0.078-0.1809-0.1777 0-0.099 0.082-0.1807 0.1809-0.1807 0.099 0 0.17748 0.082 0.17748 0.1807zm-47.818 43.449c0 0.1932-0.15847 0.3516-0.35161 0.3516-0.19322 0-0.34837-0.1584-0.34837-0.3516s0.15515-0.3483 0.34837-0.3483c0.19314 0 0.35161 0.1551 0.35161 0.3483zm45.407-42.33c0 0.1894-0.15248 0.3417-0.34165 0.3417-0.18918 0-0.34497-0.1523-0.34497-0.3417 0-0.1891 0.15579-0.3415 0.34497-0.3415 0.18917 0 0.34165 0.1524 0.34165 0.3415zm-3.4543-100.93c0 0.1546-0.12672 0.28132-0.28134 0.28132-0.15459 0-0.27797-0.12672-0.27797-0.28132 0-0.15463 0.12338-0.278 0.27797-0.278 0.15462 0 0.28134 0.12337 0.28134 0.278zm15.632-4.5409c0 0.19564-0.15937 0.355-0.355 0.355s-0.35507-0.15936-0.35507-0.355c0-0.19561 0.15944-0.35167 0.35507-0.35167s0.355 0.15606 0.355 0.35167zm-26.963 133.92c0 0.083-0.0676 0.1506-0.15071 0.1506-0.083 0-0.15071-0.067-0.15071-0.1506 0-0.083 0.0676-0.1509 0.15071-0.1509 0.083 0 0.15071 0.067 0.15071 0.1509zm9.438 3.22c0 0.091-0.0731 0.1642-0.16412 0.1642-0.091 0-0.16408-0.073-0.16408-0.1642 0-0.091 0.0731-0.1673 0.16408-0.1673 0.091 0 0.16412 0.076 0.16412 0.1673zm-1.5486-132.84c0 0.13465-0.10981 0.24449-0.24449 0.24449-0.13461 0-0.24449-0.10984-0.24449-0.24449 0-0.13466 0.10988-0.24452 0.24449-0.24452 0.13468 0 0.24449 0.10986 0.24449 0.24452zm-28.136 147.59c0 0.1385-0.11249 0.251-0.25118 0.251-0.13872 0-0.25121-0.1125-0.25121-0.251 0-0.1389 0.11249-0.2515 0.25121-0.2515 0.13869 0 0.25118 0.1125 0.25118 0.2515z"/>
<path d="m857.4 900.92c-0.14259 0-0.25693-0.11438-0.25693-0.2569 0-0.14262 0.11434-0.26001 0.25693-0.26001 0.14261 0 0.25694 0.11739 0.25694 0.26001 0 0.14252-0.11433 0.2569-0.25694 0.2569zm-29.752-41.122c-0.0773 0-0.13905-0.0616-0.13905-0.13907 0-0.0774 0.0616-0.14208 0.13905-0.14208 0.0773 0 0.13903 0.0647 0.13903 0.14208 0 0.0773-0.0616 0.13907-0.13903 0.13907zm-82.45 31.81c-0.0898 0-0.16311-0.0734-0.16311-0.16319 0-0.0899 0.0734-0.16019 0.16311-0.16019 0.09 0 0.16032 0.0706 0.16032 0.16019 0 0.0899-0.0706 0.16319-0.16032 0.16319zm84.041-34.901c-0.10756 0-0.19649-0.0889-0.19649-0.19648 0-0.10755 0.0889-0.19345 0.19649-0.19345 0.10754 0 0.19343 0.0859 0.19343 0.19345 0 0.10757-0.0859 0.19648-0.19343 0.19648zm-1.2181-0.0182c-0.092 0-0.16626-0.0742-0.16626-0.1662s0.0742-0.16625 0.16626-0.16625c0.0921 0 0.16624 0.0742 0.16624 0.16625 0 0.0921-0.0742 0.1662-0.16624 0.1662zm-96.771 39.862c-0.0841 0-0.15422-0.067-0.15422-0.15113 0-0.0839 0.0697-0.15105 0.15422-0.15105 0.0838 0 0.15107 0.067 0.15107 0.15105 0 0.0839-0.067 0.15113-0.15107 0.15113zm54.795-29.388c-0.1304 0-0.23566-0.10523-0.23566-0.2357 0-0.13053 0.10526-0.23577 0.23566-0.23577 0.13056 0 0.23582 0.10524 0.23582 0.23577 0 0.13047-0.10526 0.2357-0.23582 0.2357zm69.473 28.865c-0.11534 0-0.2116-0.0932-0.2116-0.20853 0-0.11543 0.0963-0.20863 0.2116-0.20863 0.11533 0 0.20855 0.0932 0.20855 0.20863 0 0.11534-0.0932 0.20853-0.20855 0.20853zm-91.344-4.1256c-0.17841 0-0.32337-0.14504-0.32337-0.32345 0-0.1784 0.14496-0.32345 0.32337-0.32345 0.17833 0 0.32344 0.14505 0.32344 0.32345 0 0.17841-0.14503 0.32345-0.32344 0.32345zm65.014-37.003c-0.0692 0-0.12393-0.058-0.12393-0.12695 0-0.0692 0.0549-0.12395 0.12393-0.12395 0.0692 0 0.12393 0.0547 0.12393 0.12395 0 0.0693-0.0549 0.12695-0.12393 0.12695zm-87.857 32.105c-0.0804 0-0.14511-0.0646-0.14511-0.14511 0-0.0802 0.0646-0.14504 0.14511-0.14504 0.0802 0 0.14502 0.0646 0.14502 0.14504 0 0.0802-0.0646 0.14511-0.14502 0.14511zm47.396-21.077c-0.10534 0-0.19039-0.0881-0.19039-0.19349 0-0.1054 0.085-0.19046 0.19039-0.19046 0.10541 0 0.19039 0.085 0.19039 0.19046 0 0.10545-0.0849 0.19349-0.19039 0.19349zm-1.6896-0.33251c-0.17239 0-0.3144-0.14202-0.3144-0.31432 0-0.17236 0.14194-0.31135 0.3144-0.31135 0.1723 0 0.3113 0.13899 0.3113 0.31135 0 0.1723-0.139 0.31432-0.3113 0.31432zm66.807 28.759c-0.134 0-0.24483-0.11077-0.24483-0.24478 0-0.134 0.11083-0.24176 0.24483-0.24176 0.13399 0 0.24181 0.10776 0.24181 0.24176 0 0.13401-0.10782 0.24478-0.24181 0.24478zm-64-29.01c-0.16134 0-0.2933-0.13184-0.2933-0.29316 0-0.16143 0.13196-0.2902 0.2933-0.2902 0.16128 0 0.29316 0.12885 0.29316 0.2902 0 0.16132-0.13188 0.29316-0.29316 0.29316zm-43.204 19.382c-0.0869 0-0.15724-0.0706-0.15724-0.15715 0-0.087 0.0706-0.15716 0.15724-0.15716 0.087 0 0.15716 0.0706 0.15716 0.15716 0 0.087-0.0706 0.15715-0.15716 0.15715zm105.04 8.622c-0.16361 0-0.29623-0.13268-0.29623-0.29624 0-0.16363 0.13262-0.29623 0.29623-0.29623 0.16358 0 0.2962 0.1326 0.2962 0.29623 0 0.16356-0.13262 0.29624-0.2962 0.29624zm-22.277-47.427c-0.17815 0-0.32345-0.14524-0.32345-0.32338 0-0.17816 0.1453-0.3204 0.32345-0.3204s0.32343 0.14224 0.32343 0.3204c0 0.17814-0.14528 0.32338-0.32343 0.32338zm-66.027 33.571c-0.11931 0-0.21459-0.0984-0.21459-0.21765 0-0.11931 0.0953-0.21465 0.21459-0.21465 0.11922 0 0.21758 0.0953 0.21758 0.21465 0 0.11922-0.0984 0.21765-0.21758 0.21765zm4.5401 9.0774c-0.17458 0-0.31439-0.1429-0.31439-0.31742 0-0.1745 0.13981-0.31733 0.31439-0.31733 0.17451 0 0.31726 0.14283 0.31726 0.31733 0 0.17452-0.14275 0.31742-0.31726 0.31742zm-35.705 3.8414c-0.12062 0-0.21766-0.097-0.21766-0.21766 0-0.12063 0.097-0.22061 0.21766-0.22061 0.12055 0 0.21751 0.10005 0.21751 0.22061 0 0.12062-0.097 0.21766-0.21751 0.21766zm90.638-47.457c-0.17202 0-0.31134-0.13933-0.31134-0.31133s0.13932-0.31133 0.31134-0.31133c0.172 0 0.31132 0.13933 0.31132 0.31133s-0.13932 0.31133-0.31132 0.31133zm4.2891-0.84331c-0.12044 0-0.21763-0.0973-0.21763-0.21764 0-0.12041 0.0972-0.21761 0.21763-0.21761 0.12041 0 0.21761 0.0972 0.21761 0.21761 0 0.12039-0.0972 0.21764-0.21761 0.21764zm-82.29 38.512c-0.0865 0-0.15732-0.0706-0.15732-0.15718 0-0.0865 0.0706-0.15414 0.15732-0.15414 0.0865 0 0.15716 0.0676 0.15716 0.15414 0 0.0864-0.0706 0.15718-0.15716 0.15718zm111.29 8.6189c-0.11924 0-0.21763-0.0984-0.21763-0.21765 0-0.11923 0.0984-0.21464 0.21763-0.21464s0.2146 0.0954 0.2146 0.21464c0 0.11923-0.0954 0.21765-0.2146 0.21765zm8.37-0.359c-0.10707 0-0.19347-0.0895-0.19347-0.1965 0-0.10703 0.0864-0.19347 0.19347-0.19347 0.10651 0 0.19342 0.0865 0.19342 0.19347 0 0.10704-0.0869 0.1965-0.19342 0.1965zm-68.738-29.016c-0.16864 0-0.30537-0.1366-0.30537-0.30528 0-0.1686 0.13673-0.30529 0.30537-0.30529 0.16862 0 0.30521 0.13669 0.30521 0.30529 0 0.16868-0.13659 0.30528-0.30521 0.30528zm33.18-19.52c-0.12817 0-0.23275-0.10157-0.23275-0.22971s0.10458-0.23274 0.23275-0.23274c0.12816 0 0.22971 0.1046 0.22971 0.23274s-0.10155 0.22971-0.22971 0.22971zm-41.169 18.266c-0.11975 0-0.21773-0.0979-0.21773-0.2176 0-0.11968 0.098-0.2177 0.21773-0.2177 0.11968 0 0.21456 0.098 0.21456 0.2177 0 0.11967-0.0949 0.2176-0.21456 0.2176zm50.931-16.754c-0.15982 0-0.2902-0.12737-0.2902-0.28723 0-0.15976 0.13038-0.29012 0.2902-0.29012 0.15979 0 0.28715 0.13032 0.28715 0.29012 0 0.15986-0.12736 0.28723-0.28715 0.28723zm48.22 44.087c-0.17773 0-0.32041-0.14267-0.32041-0.32041 0-0.17775 0.14268-0.32344 0.32041-0.32344 0.17774 0 0.32344 0.14569 0.32344 0.32344 0 0.17774-0.1457 0.32041-0.32344 0.32041zm0.67708-0.0544c-0.15441 0-0.27811-0.12673-0.27811-0.2811 0-0.15443 0.12367-0.27808 0.27811-0.27808 0.15443 0 0.28111 0.12365 0.28111 0.27808 0 0.15437-0.12668 0.2811-0.28111 0.2811zm-94.435-44.041c-0.16202 0-0.29324-0.13123-0.29324-0.29322 0-0.16195 0.13122-0.29619 0.29324-0.29619 0.16193 0 0.29315 0.13424 0.29315 0.29619 0 0.16199-0.13122 0.29322-0.29315 0.29322zm-20.133 46.9c-0.17539 0-0.31741-0.14195-0.31741-0.31733 0-0.1754 0.14202-0.31734 0.31741-0.31734 0.1754 0 0.31733 0.14194 0.31733 0.31734 0 0.17538-0.14193 0.31733-0.31733 0.31733zm114.11-5.1018c-0.13822 0-0.25089-0.11269-0.25089-0.25097 0-0.1382 0.11267-0.25088 0.25089-0.25088s0.24783 0.11268 0.24783 0.25088c0 0.13828-0.10961 0.25097-0.24783 0.25097zm-146.79-13.74c-0.10836 0-0.19649-0.0881-0.19649-0.19643 0-0.1084 0.0881-0.19645 0.19649-0.19645 0.10843 0 0.1965 0.0881 0.1965 0.19645s-0.0881 0.19643-0.1965 0.19643zm9.3444-5.7861c-0.10145 0-0.18437-0.083-0.18437-0.1844 0-0.10142 0.0829-0.18441 0.18437-0.18441 0.10151 0 0.18428 0.083 0.18428 0.18441 0 0.10144-0.0828 0.1844-0.18428 0.1844zm37.576-24.323c-0.0896 0-0.16332-0.0707-0.16332-0.16023 0-0.0895 0.0737-0.16322 0.16332-0.16322 0.0894 0 0.16011 0.0736 0.16011 0.16322 0 0.0896-0.0706 0.16023-0.16011 0.16023zm-39.066 23.885c-0.17928 0-0.32336-0.144-0.32336-0.32344 0-0.17938 0.14401-0.32639 0.32336-0.32639 0.17952 0 0.32647 0.14701 0.32647 0.32639 0 0.17944-0.14695 0.32344-0.32647 0.32344zm-8.0901 4.4471c-0.16951 0-0.30844-0.13582-0.30844-0.30528 0-0.16949 0.13893-0.30828 0.30844-0.30828 0.16937 0 0.30522 0.13879 0.30522 0.30828 0 0.16946-0.13585 0.30528-0.30522 0.30528zm8.1112-5.7036c-0.12048 0-0.21752-0.0972-0.21752-0.2177 0-0.12041 0.097-0.2176 0.21752-0.2176 0.12048 0 0.21766 0.0972 0.21766 0.2176 0 0.1205-0.0972 0.2177-0.21766 0.2177zm41.692-25.151c-0.067 0-0.12099-0.0539-0.12099-0.12096 0-0.0671 0.0536-0.1209 0.12099-0.1209 0.067 0 0.12085 0.0538 0.12085 0.1209s-0.0544 0.12096-0.12085 0.12096zm2.1977-0.48367c-0.17739 0-0.32338-0.14302-0.32338-0.3204 0-0.17736 0.14599-0.32042 0.32338-0.32042 0.17729 0 0.32035 0.14306 0.32035 0.32042 0 0.17738-0.14306 0.3204-0.32035 0.3204zm-61.792 40.231c-0.12475 0-0.22685-0.10204-0.22685-0.2267 0-0.12468 0.1021-0.22664 0.22685-0.22664 0.12459 0 0.22354 0.10196 0.22354 0.22664 0 0.12466-0.0989 0.2267-0.22354 0.2267zm147.84-0.868c-0.11498 0-0.20854-0.0935-0.20854-0.20855 0-0.11496 0.0936-0.20854 0.20854-0.20854 0.115 0 0.20554 0.0936 0.20554 0.20854 0 0.11504-0.0905 0.20855-0.20554 0.20855zm-137.39-24.24c-0.11959 0-0.21758-0.0981-0.21758-0.2177 0-0.11958 0.098-0.2146 0.21758-0.2146 0.1196 0 0.21458 0.095 0.21458 0.2146 0 0.11964-0.095 0.2177-0.21458 0.2177zm26.768 9.194c-0.0737 0-0.133-0.0594-0.133-0.13307 0-0.0736 0.0588-0.13299 0.133-0.13299 0.0737 0 0.13297 0.0593 0.13297 0.13299 0 0.0737-0.0588 0.13307-0.13297 0.13307zm-39.77 13.302c-0.12968 0-0.23281-0.10615-0.23281-0.23581 0-0.1296 0.10313-0.23274 0.23281-0.23274 0.12967 0 0.23574 0.10314 0.23574 0.23274 0 0.12966-0.10607 0.23581-0.23574 0.23581zm39.5-15.094c-0.077 0-0.13908-0.0622-0.13908-0.13903 0-0.0769 0.0625-0.13906 0.13908-0.13906 0.0769 0 0.13893 0.0622 0.13893 0.13906 0 0.0769-0.0618 0.13903-0.13893 0.13903zm2.3183-0.90077c-0.0893 0-0.16026-0.071-0.16026-0.16017 0-0.0894 0.0706-0.16327 0.16026-0.16327 0.0892 0 0.16326 0.074 0.16326 0.16327 0 0.0894-0.0742 0.16017-0.16326 0.16017zm-43.831 12.033c-0.10166 0-0.18437-0.0826-0.18437-0.18439 0-0.10171 0.0827-0.18439 0.18437-0.18439 0.10182 0 0.18444 0.0827 0.18444 0.18439 0 0.10171-0.0826 0.18439-0.18444 0.18439zm42.818-14.209c-0.17084 0-0.3083-0.13762-0.3083-0.30835s0.13746-0.31132 0.3083-0.31132c0.17068 0 0.30829 0.14059 0.30829 0.31132s-0.13761 0.30835-0.30829 0.30835zm91.093-3.1175c-0.13951 0-0.25387-0.11435-0.25387-0.2539 0-0.13951 0.11436-0.25086 0.25387-0.25086 0.13956 0 0.25092 0.11135 0.25092 0.25086 0 0.13955-0.11136 0.2539-0.25092 0.2539zm4.0981 14.108c-0.17655 0-0.32038-0.14384-0.32038-0.3204 0-0.17654 0.14383-0.32043 0.32038-0.32043 0.17654 0 0.3174 0.14389 0.3174 0.32043 0 0.17656-0.14086 0.3204-0.3174 0.3204zm-120.87-24.33c-0.0749 0-0.13599-0.061-0.13599-0.13602 0-0.075 0.0609-0.13602 0.13599-0.13602 0.0749 0 0.13615 0.0609 0.13615 0.13602 0 0.0749-0.061 0.13602-0.13615 0.13602zm-2.93 8.539c-0.0822 0-0.14806-0.066-0.14806-0.14811 0-0.0822 0.0661-0.14808 0.14806-0.14808 0.0821 0 0.15105 0.0659 0.15105 0.14808 0 0.0822-0.0692 0.14811-0.15105 0.14811zm119.89-1.3977c-0.12153 0-0.22067-0.0991-0.22067-0.22065 0-0.12148 0.0991-0.22065 0.22067-0.22065 0.12152 0 0.22066 0.0992 0.22066 0.22065 0 0.12155-0.0991 0.22065-0.22066 0.22065z"/>
<path d="m767.78 996.61c-0.0773 0-0.13906-0.062-0.13906-0.1392 0-0.077 0.0616-0.1421 0.13906-0.1421 0.0773 0 0.13902 0.065 0.13902 0.1421 0 0.077-0.0616 0.1392-0.13902 0.1392zm-82.448-13.69c-0.0899 0-0.16321-0.073-0.16321-0.1633 0-0.09 0.0733-0.1601 0.16321-0.1601 0.0899 0 0.16019 0.071 0.16019 0.1601 0 0.09-0.0703 0.1633-0.16019 0.1633zm84.04 10.603c-0.10754 0-0.19648-0.089-0.19648-0.1964 0-0.1075 0.089-0.1933 0.19648-0.1933 0.10754 0 0.19343 0.086 0.19343 0.1933 0 0.1075-0.0859 0.1964-0.19343 0.1964zm-1.2181-0.019c-0.0921 0-0.16623-0.074-0.16623-0.1661 0-0.092 0.0742-0.1663 0.16623-0.1663 0.0921 0 0.16625 0.074 0.16625 0.1663 0 0.092-0.0742 0.1661-0.16625 0.1661zm-19.238 21.739c-0.1574 0-0.28411-0.1266-0.28411-0.2841 0-0.1574 0.12668-0.2871 0.28411-0.2871 0.15744 0 0.28718 0.1297 0.28718 0.2871 0 0.1575-0.12974 0.2841-0.28718 0.2841zm-95.735-27.381c-0.0839 0-0.15415-0.067-0.15415-0.1511 0-0.084 0.0702-0.1511 0.15415-0.1511 0.0839 0 0.15111 0.067 0.15111 0.1511 0 0.084-0.0673 0.1511-0.15111 0.1511zm51.126 33.575c-0.17843 0-0.32344-0.1451-0.32344-0.3236 0-0.1783 0.14501-0.3233 0.32344-0.3233 0.1784 0 0.3234 0.145 0.3234 0.3233 0 0.1785-0.14499 0.3236-0.3234 0.3236zm65.014-29.723c-0.0692 0-0.12392-0.058-0.12392-0.1269 0-0.069 0.055-0.1239 0.12392-0.1239 0.0692 0 0.1239 0.054 0.1239 0.1239 0 0.069-0.055 0.1269-0.1239 0.1269zm-87.857-13.399c-0.0802 0-0.14509-0.065-0.14509-0.14509 0-0.0801 0.0649-0.14493 0.14509-0.14493 0.0802 0 0.14511 0.065 0.14511 0.14493 0 0.0802-0.0649 0.14509-0.14511 0.14509zm5.3043-2.2881c-0.0869 0-0.15719-0.0695-0.15719-0.15716 0-0.087 0.0702-0.15724 0.15719-0.15724 0.0869 0 0.15719 0.0705 0.15719 0.15724 0 0.087-0.0703 0.15716-0.15719 0.15716zm49.092 6.6992c-0.17814 0-0.32343-0.1452-0.32343-0.3234s0.14529-0.3204 0.32343-0.3204c0.17815 0 0.32344 0.1422 0.32344 0.3204s-0.14529 0.3234-0.32344 0.3234zm9.4459 28.259c-0.10701 0-0.19346-0.087-0.19346-0.1937 0-0.1069 0.0865-0.1933 0.19346-0.1933 0.10703 0 0.19346 0.086 0.19346 0.1933 0 0.1071-0.0864 0.1937-0.19346 0.1937zm7.7872 0.5128c-0.0862 0-0.15718-0.071-0.15718-0.1571 0-0.086 0.0711-0.154 0.15718-0.154 0.0862 0 0.15718 0.068 0.15718 0.154s-0.0711 0.1571-0.15718 0.1571zm-49.587-69.827c-0.11924 0-0.21462-0.0983-0.21462-0.2176 0-0.11923 0.0954-0.21456 0.21462-0.21456 0.11923 0 0.21764 0.0953 0.21764 0.21456 0 0.11925-0.0984 0.2176-0.21764 0.2176zm4.54 9.0774c-0.17454 0-0.31433-0.14293-0.31433-0.31742 0-0.17448 0.13979-0.31733 0.31433-0.31733 0.17455 0 0.3174 0.14285 0.3174 0.31733 0 0.17449-0.14285 0.31742-0.3174 0.31742zm-53.907 32.964c-0.12058 0-0.21763-0.097-0.21763-0.2176s0.097-0.2207 0.21763-0.2207c0.1206 0 0.21764 0.1001 0.21764 0.2207s-0.097 0.2176-0.21764 0.2176zm75.167-1.953c-0.17204 0-0.31134-0.13927-0.31134-0.31128 0-0.17202 0.1393-0.31131 0.31134-0.31131 0.172 0 0.31131 0.13929 0.31131 0.31131 0 0.17201-0.13931 0.31128-0.31131 0.31128zm4.2892-0.84334c-0.12043 0-0.21764-0.0971-0.21764-0.21758 0-0.1204 0.0972-0.21759 0.21764-0.21759 0.12042 0 0.2176 0.0972 0.2176 0.21759 0 0.12046-0.0972 0.21758-0.2176 0.21758zm-48.617-6.9924c-0.0865 0-0.15716-0.0705-0.15716-0.15723 0-0.0865 0.0708-0.15414 0.15716-0.15414 0.0865 0 0.15719 0.0673 0.15719 0.15414 0 0.0865-0.0708 0.15723-0.15719 0.15723zm60.52 35.145c-0.09 0-0.16318-0.073-0.16318-0.1631 0-0.09 0.0731-0.1633 0.16318-0.1633 0.0901 0 0.16324 0.073 0.16324 0.1633 0 0.09-0.0732 0.1631-0.16324 0.1631zm-72.146-94.986c-0.0919 0-0.16624-0.0743-0.16624-0.16629 0-0.0919 0.0745-0.16621 0.16624-0.16621 0.0918 0 0.16624 0.0743 0.16624 0.16621 0 0.0919-0.0745 0.16629-0.16624 0.16629zm62.538 110.3c-0.16867 0-0.3053-0.1365-0.3053-0.3052 0-0.1685 0.13663-0.3053 0.3053-0.3053 0.1686 0 0.30525 0.1368 0.30525 0.3053 0 0.1687-0.13665 0.3052-0.30525 0.3052zm10.522-16.366c-0.0642 0-0.11485-0.05-0.11485-0.1149 0-0.064 0.0508-0.118 0.11485-0.118 0.0641 0 0.11486 0.053 0.11486 0.118 0 0.064-0.0508 0.1149-0.11486 0.1149zm-11.011-28.869c-0.12817 0-0.23275-0.1016-0.23275-0.22966s0.10458-0.23275 0.23275-0.23275c0.12818 0 0.22972 0.10469 0.22972 0.23275s-0.10154 0.22966-0.22972 0.22966zm9.7622 1.5116c-0.15981 0-0.29019-0.12735-0.29019-0.28714 0-0.15986 0.13038-0.29025 0.29019-0.29025 0.1598 0 0.28716 0.13039 0.28716 0.29025 0 0.15979-0.12736 0.28714-0.28716 0.28714zm-2.2309 35.524c-0.15528 0-0.28106-0.1259-0.28106-0.2812 0-0.1551 0.12578-0.2811 0.28106-0.2811 0.15535 0 0.28115 0.126 0.28115 0.2811 0 0.1553-0.1258 0.2812-0.28115 0.2812zm-69.693-104.8c-0.17295 0-0.31434-0.14138-0.31434-0.31432 0-0.17301 0.14139-0.31439 0.31434-0.31439 0.17297 0 0.31133 0.14138 0.31133 0.31439 0 0.17294-0.13836 0.31432-0.31133 0.31432zm0.30204-0.82215c-0.10338 0-0.18741-0.0841-0.18741-0.18742 0-0.10337 0.084-0.18741 0.18741-0.18741 0.10338 0 0.18438 0.0841 0.18438 0.18741 0 0.10339-0.081 0.18742-0.18438 0.18742zm59.755 28.467c-0.16197 0-0.2932-0.13108-0.2932-0.29311 0-0.16196 0.13123-0.29612 0.2932-0.29612 0.16198 0 0.29319 0.13416 0.29319 0.29612 0 0.16203-0.13121 0.29311-0.29319 0.29311zm-20.133 81.256c-0.17539 0-0.31737-0.1419-0.31737-0.3172 0-0.1755 0.14198-0.3174 0.31737-0.3174 0.17541 0 0.31739 0.1419 0.31739 0.3174 0 0.1753-0.14198 0.3172-0.31739 0.3172zm-32.681-57.057c-0.10838 0-0.19647-0.0881-0.19647-0.19638 0-0.10848 0.0881-0.19645 0.19647-0.19645 0.10838 0 0.19647 0.088 0.19647 0.19645 0 0.10825-0.0881 0.19638-0.19647 0.19638zm9.3444-5.7862c-0.10144 0-0.18437-0.0829-0.18437-0.18424 0-0.10151 0.0829-0.18454 0.18437-0.18454 0.10144 0 0.18437 0.083 0.18437 0.18454 0 0.10128-0.0829 0.18424-0.18437 0.18424zm37.61-20.47c-0.0895 0-0.16321-0.0705-0.16321-0.1604 0-0.0895 0.0736-0.16305 0.16321-0.16305 0.0896 0 0.1602 0.0735 0.1602 0.16305 0 0.0898-0.0707 0.1604-0.1602 0.1604zm-39.066 20.017c-0.17941 0-0.32343-0.14401-0.32343-0.32345 0-0.17936 0.14402-0.32638 0.32343-0.32638 0.17942 0 0.32645 0.14702 0.32645 0.32638 0 0.17944-0.14703 0.32345-0.32645 0.32345zm-8.0903 4.4471c-0.16947 0-0.30831-0.13588-0.30831-0.30541 0-0.16937 0.13884-0.3082 0.30831-0.3082s0.30531 0.13883 0.30531 0.3082c0 0.16953-0.13584 0.30541-0.30531 0.30541zm68.772 40.104c-0.17852 0-0.32344-0.1449-0.32344-0.3234s0.14492-0.3234 0.32344-0.3234c0.17853 0 0.32344 0.1449 0.32344 0.3234s-0.14491 0.3234-0.32344 0.3234zm-60.661-45.808c-0.12044 0-0.21763-0.0971-0.21763-0.21768 0-0.1204 0.0972-0.21757 0.21763-0.21757 0.12047 0 0.21763 0.0972 0.21763 0.21757 0 0.12056-0.0972 0.21768-0.21763 0.21768zm41.692-21.283c-0.0671 0-0.1209-0.0541-0.1209-0.12086 0-0.0665 0.0539-0.12094 0.1209-0.12094 0.0671 0 0.1209 0.0541 0.1209 0.12094 0 0.0674-0.0539 0.12086-0.1209 0.12086zm2.1977-0.48369c-0.17737 0-0.32341-0.143-0.32341-0.32028 0-0.17742 0.14602-0.32049 0.32341-0.32049s0.32041 0.14307 0.32041 0.32049c0 0.17728-0.14301 0.32028-0.32041 0.32028zm27.581 24.348c-0.10259 0-0.18742-0.0818-0.18742-0.18441 0-0.10259 0.0848-0.18438 0.18742-0.18438 0.10261 0 0.18437 0.0818 0.18437 0.18438 0 0.10262-0.0818 0.18441-0.18437 0.18441zm-107.58 12.014c-0.12469 0-0.2267-0.10198-0.2267-0.22656 0-0.12474 0.10201-0.22673 0.2267-0.22673 0.12467 0 0.22368 0.10199 0.22368 0.22673 0 0.12458-0.099 0.22656-0.22368 0.22656zm103.74-15.39c-0.10444 0-0.1904-0.083-0.1904-0.18739 0-0.10441 0.0859-0.19044 0.1904-0.19044 0.10444 0 0.18742 0.086 0.18742 0.19044 0 0.10436-0.083 0.18739-0.18742 0.18739zm-75.082-9.7182c-0.11961 0-0.21763-0.0981-0.21763-0.21768 0-0.11961 0.098-0.21454 0.21763-0.21454s0.21463 0.0949 0.21463 0.21454c0 0.11957-0.095 0.21768-0.21463 0.21768zm50.639-19.288c-0.10619 0-0.19345-0.0872-0.19345-0.19344s0.0873-0.19043 0.19345-0.19043c0.1062 0 0.19044 0.0842 0.19044 0.19043s-0.0842 0.19344-0.19044 0.19344zm18.05 27.429c-0.06 0-0.10277-0.0642-0.10277-0.1269 0-0.0712 0.0557-0.12992 0.12696-0.12992 0.0711 0 0.12996 0.0588 0.12996 0.12992 0 0.0712-0.0587 0.1269-0.12996 0.1269-0.01 0-0.0158 0.01-0.0243 0zm-41.92-28.069c-0.0737 0-0.133-0.0595-0.133-0.1331 0-0.0735 0.0593-0.13293 0.133-0.13293s0.13301 0.0595 0.13301 0.13293c0 0.0743-0.0594 0.1331-0.13301 0.1331zm69.188 27.933c-0.16046 0-0.29017-0.12977-0.29017-0.29017 0-0.16049 0.12971-0.29025 0.29017-0.29025 0.16048 0 0.29018 0.1297 0.29018 0.29025 0 0.1604-0.1297 0.29017-0.29018 0.29017zm-127.17 14.492c-0.12965 0-0.23271-0.10624-0.23271-0.23577 0-0.12961 0.10306-0.23267 0.23271-0.23267 0.12969 0 0.23578 0.10306 0.23578 0.23267 0 0.12953-0.10609 0.23577-0.23578 0.23577zm79.622-43.105c-0.0816 0-0.14812-0.0665-0.14812-0.14802 0-0.0816 0.0665-0.14818 0.14812-0.14818 0.0816 0 0.14809 0.0665 0.14809 0.14818 0 0.0816-0.0665 0.14802-0.14809 0.14802zm31.344 27.928c-0.17346 0-0.31434-0.14108-0.31434-0.31432 0-0.17349 0.14091-0.31439 0.31434-0.31439 0.17342 0 0.31435 0.1409 0.31435 0.31439 0 0.17324-0.14093 0.31432-0.31435 0.31432zm-10.553-0.10278c-0.13737 0-0.25086-0.11359-0.25086-0.25094 0-0.13734 0.11349-0.24783 0.25086-0.24783 0.13739 0 0.24785 0.11042 0.24785 0.24783 0 0.13735-0.11046 0.25094-0.24785 0.25094zm25.602-0.38696c-0.15168 0-0.27504-0.12335-0.27504-0.27507 0-0.15175 0.12336-0.27509 0.27504-0.27509 0.1517 0 0.27506 0.12334 0.27506 0.27509 0 0.15172-0.12336 0.27507-0.27506 0.27507zm-68.309-28.547c-0.0769 0-0.13904-0.0619-0.13904-0.13898 0-0.0766 0.0623-0.13904 0.13904-0.13904 0.0769 0 0.13901 0.0626 0.13901 0.13904 0 0.0767-0.0622 0.13898-0.13901 0.13898zm2.3183-0.90076c-0.0894 0-0.1602-0.0705-0.1602-0.16018 0-0.0893 0.0709-0.16325 0.1602-0.16325 0.0894 0 0.16322 0.0743 0.16322 0.16325 0 0.0893-0.0739 0.16018-0.16322 0.16018zm-62.032 41.155c-0.10171 0-0.18438-0.0827-0.18438-0.18441 0-0.10166 0.0826-0.18439 0.18438-0.18439 0.10171 0 0.18437 0.0827 0.18437 0.18439 0 0.10176-0.0827 0.18441-0.18437 0.18441zm22.82-55.189c-0.17435 0-0.31737-0.14298-0.31737-0.31732s0.14302-0.31439 0.31737-0.31439c0.17432 0 0.31436 0.14005 0.31436 0.31439s-0.14004 0.31732-0.31436 0.31732zm106.12 40.086c-0.13093 0-0.23575-0.10484-0.23575-0.2357 0-0.13099 0.10482-0.23584 0.23575-0.23584s0.23878 0.10485 0.23878 0.23584c0 0.13086-0.10785 0.2357-0.23878 0.2357zm-67.916-28.23c-0.17071 0-0.3083-0.13757-0.3083-0.30833 0-0.1707 0.13759-0.3113 0.3083-0.3113 0.17073 0 0.30833 0.1406 0.30833 0.3113 0 0.17076-0.1376 0.30833-0.30833 0.30833zm-25.672 15.779c-0.075 0-0.13602-0.0611-0.13602-0.13587 0-0.075 0.0611-0.13618 0.13602-0.13618 0.075 0 0.13604 0.0611 0.13604 0.13618 0 0.0751-0.0611 0.13587-0.13604 0.13587zm94.191 9.0382c-0.13536 0-0.24483-0.1094-0.24483-0.24475 0-0.1354 0.10947-0.24489 0.24483-0.24489 0.13539 0 0.24786 0.10949 0.24786 0.24489 0 0.13535-0.11247 0.24475-0.24786 0.24475zm-97.118-0.49753c-0.0822 0-0.14811-0.0665-0.14811-0.14803 0-0.0822 0.0658-0.14817 0.14811-0.14817 0.0822 0 0.15113 0.0658 0.15113 0.14817 0 0.0822-0.0691 0.14803-0.15113 0.14803zm-13.311-26.79c-0.1252 0-0.2267-0.10152-0.2267-0.22672s0.1015-0.22671 0.2267-0.22671c0.12516 0 0.22667 0.10151 0.22667 0.22671s-0.10149 0.22672-0.22667 0.22672z"/>
<path d="m606.11 916.87c0 0.0773 0.062 0.13906 0.1392 0.13906 0.077 0 0.1421-0.0616 0.1421-0.13906 0-0.0773-0.065-0.13902-0.1421-0.13902-0.077 0-0.1392 0.0616-0.1392 0.13902zm13.69 82.448c0 0.09 0.0734 0.1632 0.16333 0.1632 0.0898 0 0.1601-0.073 0.1601-0.1632 0-0.09-0.0705-0.1602-0.1601-0.1602-0.09 0-0.16333 0.07-0.16333 0.1602zm-10.603-84.04c0 0.10754 0.0889 0.19648 0.1964 0.19648 0.10746 0 0.19335-0.089 0.19335-0.19648 0-0.10754-0.0859-0.19343-0.19335-0.19343-0.1075 0-0.1964 0.0859-0.1964 0.19343zm0.0194 1.2181c0 0.0921 0.0743 0.16623 0.16614 0.16623 0.092 0 0.16629-0.0742 0.16629-0.16623 0-0.0921-0.0743-0.16625-0.16629-0.16625-0.092 0-0.16614 0.0742-0.16614 0.16625zm-21.739 19.238c0 0.1574 0.1266 0.28411 0.2841 0.28411 0.1574 0 0.2871-0.12668 0.2871-0.28411 0-0.15744-0.1297-0.28718-0.2871-0.28718-0.1575 0-0.2841 0.12974-0.2841 0.28718zm27.381 95.735c0 0.084 0.0665 0.1541 0.15111 0.1541 0.0839 0 0.15112-0.07 0.15112-0.1541 0-0.084-0.0674-0.1512-0.15112-0.1512-0.0839 0-0.15111 0.067-0.15111 0.1512zm-33.575-51.126c0 0.17843 0.1451 0.32344 0.3236 0.32344 0.1783 0 0.3233-0.14501 0.3233-0.32344 0-0.1784-0.145-0.3234-0.3233-0.3234-0.1785 0-0.3236 0.14499-0.3236 0.3234zm29.723-65.014c0 0.0692 0.058 0.12392 0.1269 0.12392 0.069 0 0.12389-0.055 0.12389-0.12392 0-0.0692-0.0542-0.1239-0.12389-0.1239-0.069 0-0.1269 0.055-0.1269 0.1239zm13.399 87.857c0 0.08 0.065 0.1451 0.14509 0.1451 0.0801 0 0.14493-0.065 0.14493-0.1451 0-0.08-0.065-0.1451-0.14493-0.1451-0.0802 0-0.14509 0.065-0.14509 0.1451zm2.2881-5.3043c0 0.087 0.0695 0.1572 0.15716 0.1572 0.087 0 0.15724-0.07 0.15724-0.1572 0-0.087-0.0705-0.1572-0.15724-0.1572-0.087 0-0.15716 0.07-0.15716 0.1572zm-6.6992-49.092c0 0.17814 0.14517 0.32343 0.32344 0.32343 0.17821 0 0.32034-0.14529 0.32034-0.32343 0-0.17815-0.14213-0.32344-0.32034-0.32344-0.17827 0-0.32344 0.14529-0.32344 0.32344zm-28.259-9.4459c0 0.10701 0.087 0.19346 0.1936 0.19346 0.107 0 0.1934-0.0865 0.1934-0.19346 0-0.10703-0.086-0.19346-0.1934-0.19346-0.107 0-0.1936 0.0864-0.1936 0.19346zm-0.5128-7.7872c0 0.0862 0.071 0.15718 0.157 0.15718s0.1541-0.0711 0.1541-0.15718c0-0.0862-0.068-0.15718-0.1541-0.15718-0.086 0-0.157 0.0711-0.157 0.15718zm69.827 49.587c0 0.11924 0.0983 0.21462 0.2176 0.21462 0.11923 0 0.21456-0.0954 0.21456-0.21462 0-0.11923-0.0953-0.21764-0.21456-0.21764-0.11925 0-0.2176 0.0984-0.2176 0.21764zm-9.0774-4.54c0 0.17454 0.14293 0.31433 0.31742 0.31433 0.17448 0 0.31733-0.13979 0.31733-0.31433 0-0.17455-0.14285-0.3174-0.31733-0.3174-0.17449 0-0.31742 0.14285-0.31742 0.3174zm-32.964 53.907c0 0.1206 0.097 0.2177 0.21759 0.2177 0.12063 0 0.22068-0.097 0.22068-0.2177 0-0.1206-0.10005-0.2176-0.22068-0.2176-0.12056 0-0.21759 0.097-0.21759 0.2176zm1.953-75.167c0 0.17204 0.13927 0.31134 0.31128 0.31134 0.17202 0 0.31131-0.1393 0.31131-0.31134 0-0.172-0.13929-0.31131-0.31131-0.31131-0.17201 0-0.31128 0.13931-0.31128 0.31131zm0.84334-4.2892c0 0.12043 0.0971 0.21764 0.21758 0.21764 0.1204 0 0.21759-0.0972 0.21759-0.21764 0-0.12042-0.0972-0.2176-0.21759-0.2176-0.12046 0-0.21758 0.0972-0.21758 0.2176zm6.9924 48.617c0 0.087 0.0705 0.1572 0.15723 0.1572 0.0865 0 0.15414-0.071 0.15414-0.1572 0-0.087-0.0673-0.1572-0.15414-0.1572-0.0865 0-0.15723 0.071-0.15723 0.1572zm-35.145-60.52c0 0.09 0.073 0.16318 0.163 0.16318s0.1633-0.0731 0.1633-0.16318c0-0.0901-0.073-0.16324-0.1633-0.16324-0.09 0-0.163 0.0732-0.163 0.16324zm94.986 72.146c0 0.092 0.0743 0.1662 0.16629 0.1662 0.0919 0 0.16621-0.074 0.16621-0.1662 0-0.092-0.0743-0.1663-0.16621-0.1663-0.0919 0-0.16629 0.075-0.16629 0.1663zm-110.29-62.54c0 0.16867 0.1365 0.3053 0.3052 0.3053 0.1685 0 0.3053-0.13663 0.3053-0.3053 0-0.1686-0.1368-0.30525-0.3053-0.30525-0.1687 0-0.3052 0.13665-0.3052 0.30525zm16.366-10.522c0 0.0642 0.05 0.11485 0.1149 0.11485 0.064 0 0.118-0.0508 0.118-0.11485 0-0.0641-0.053-0.11486-0.118-0.11486-0.064 0-0.1149 0.0508-0.1149 0.11486zm28.869 11.011c0 0.12817 0.1016 0.23275 0.22966 0.23275s0.23275-0.10458 0.23275-0.23275c0-0.12818-0.10469-0.22972-0.23275-0.22972s-0.22966 0.10154-0.22966 0.22972zm-1.5116-9.7622c0 0.15981 0.12735 0.29019 0.28714 0.29019 0.15986 0 0.29025-0.13038 0.29025-0.29019 0-0.1598-0.13039-0.28716-0.29025-0.28716-0.15979 0-0.28714 0.12736-0.28714 0.28716zm-35.524 2.2309c0 0.15528 0.1259 0.28106 0.2811 0.28106s0.2812-0.12578 0.2812-0.28106c0-0.15535-0.126-0.28115-0.2812-0.28115s-0.2811 0.1258-0.2811 0.28115zm104.8 69.693c0 0.1729 0.14138 0.3143 0.31432 0.3143 0.17301 0 0.31439-0.1414 0.31439-0.3143 0-0.173-0.14138-0.3113-0.31439-0.3113-0.17294 0-0.31432 0.1383-0.31432 0.3113zm0.82215-0.3021c0 0.1034 0.0841 0.1875 0.18742 0.1875 0.10337 0 0.18741-0.084 0.18741-0.1875 0-0.1033-0.0841-0.1843-0.18741-0.1843-0.10339 0-0.18742 0.081-0.18742 0.1843zm-28.467-59.755c0 0.16197 0.13108 0.2932 0.29311 0.2932 0.16196 0 0.29612-0.13123 0.29612-0.2932 0-0.16198-0.13416-0.29319-0.29612-0.29319-0.16203 0-0.29311 0.13121-0.29311 0.29319zm-81.255 20.133c0 0.17539 0.1419 0.31737 0.3172 0.31737 0.1755 0 0.3174-0.14198 0.3174-0.31737 0-0.17541-0.1419-0.31739-0.3174-0.31739-0.1753 0-0.3172 0.14198-0.3172 0.31739zm57.057 32.681c0 0.1084 0.0881 0.1965 0.19638 0.1965 0.10848 0 0.19645-0.088 0.19645-0.1965 0-0.1084-0.088-0.1964-0.19645-0.1964-0.10825 0-0.19638 0.088-0.19638 0.1964zm5.7862-9.3444c0 0.1014 0.0829 0.1844 0.18424 0.1844 0.10151 0 0.18454-0.083 0.18454-0.1844s-0.083-0.1844-0.18454-0.1844c-0.10128 0-0.18424 0.083-0.18424 0.1844zm20.455-37.576c0 0.0895 0.0705 0.16321 0.1604 0.16321 0.0895 0 0.16305-0.0736 0.16305-0.16321 0-0.0896-0.0735-0.1602-0.16305-0.1602-0.0898 0-0.1604 0.0707-0.1604 0.1602zm-20.017 39.066c0 0.1794 0.14401 0.3234 0.32345 0.3234 0.17936 0 0.32638-0.144 0.32638-0.3234s-0.14702-0.3264-0.32638-0.3264c-0.17944 0-0.32345 0.147-0.32345 0.3264zm-4.4471 8.0903c0 0.1695 0.13588 0.3083 0.30541 0.3083 0.16937 0 0.3082-0.1388 0.3082-0.3083s-0.13883-0.3053-0.3082-0.3053c-0.16953 0-0.30541 0.1358-0.30541 0.3053zm-40.104-68.772c0 0.17852 0.1449 0.32344 0.3234 0.32344 0.1786 0 0.3234-0.14492 0.3234-0.32344 0-0.17853-0.1448-0.32344-0.3234-0.32344-0.1785 0-0.3234 0.14491-0.3234 0.32344zm45.808 60.661c0 0.1204 0.0971 0.2176 0.21768 0.2176 0.1204 0 0.21757-0.097 0.21757-0.2176 0-0.1205-0.0972-0.2176-0.21757-0.2176-0.12056 0-0.21768 0.097-0.21768 0.2176zm21.283-41.692c0 0.0671 0.0541 0.1209 0.12086 0.1209 0.0665 0 0.12094-0.0539 0.12094-0.1209 0-0.0671-0.0541-0.1209-0.12094-0.1209-0.0674 0-0.12086 0.0539-0.12086 0.1209zm0.48369-2.1977c0 0.17737 0.143 0.32341 0.32028 0.32341 0.17742 0 0.32049-0.14602 0.32049-0.32341s-0.14307-0.32041-0.32049-0.32041c-0.17728 0-0.32028 0.14301-0.32028 0.32041zm-24.348-27.581c0 0.10259 0.0818 0.18742 0.18441 0.18742 0.10259 0 0.18438-0.0848 0.18438-0.18742 0-0.10261-0.0818-0.18437-0.18438-0.18437-0.10262 0-0.18441 0.0818-0.18441 0.18437zm-12.01 107.58c0 0.1247 0.10198 0.2267 0.22656 0.2267 0.12474 0 0.22673-0.102 0.22673-0.2267 0-0.1246-0.10199-0.2237-0.22673-0.2237-0.12458 0-0.22656 0.099-0.22656 0.2237zm15.392-103.73c0 0.10444 0.083 0.1904 0.18739 0.1904 0.10441 0 0.19044-0.0859 0.19044-0.1904 0-0.10444-0.086-0.18742-0.19044-0.18742-0.10436 0-0.18739 0.083-0.18739 0.18742zm9.7182 75.082c0 0.1196 0.0981 0.2177 0.21768 0.2177 0.11961 0 0.21454-0.098 0.21454-0.2177 0-0.1196-0.0949-0.2146-0.21454-0.2146-0.11957 0-0.21768 0.095-0.21768 0.2146zm19.288-50.639c0 0.10619 0.0872 0.19345 0.19344 0.19345s0.19043-0.0873 0.19043-0.19345c0-0.1062-0.0842-0.19044-0.19043-0.19044s-0.19344 0.0842-0.19344 0.19044zm-27.429-18.05c0 0.06 0.0642 0.10277 0.1269 0.10277 0.0712 0 0.12992-0.0557 0.12992-0.12696 0-0.0711-0.0588-0.12996-0.12992-0.12996-0.0712 0-0.1269 0.0587-0.1269 0.12996 0 0.01-0.01 0.0158 0 0.0243zm28.069 41.92c0 0.0737 0.0595 0.133 0.1331 0.133 0.0735 0 0.13293-0.0593 0.13293-0.133s-0.0595-0.13301-0.13293-0.13301c-0.0743 0-0.1331 0.0594-0.1331 0.13301zm-27.93-69.24c0 0.16046 0.12977 0.29017 0.29017 0.29017 0.16049 0 0.29025-0.12971 0.29025-0.29017 0-0.16048-0.1297-0.29018-0.29025-0.29018-0.1604 0-0.29017 0.1297-0.29017 0.29018zm-14.492 127.17c0 0.1297 0.10624 0.2327 0.23577 0.2327 0.12961 0 0.23267-0.103 0.23267-0.2327s-0.10306-0.2358-0.23267-0.2358c-0.12953 0-0.23577 0.1061-0.23577 0.2358zm43.105-79.622c0 0.0816 0.0665 0.14812 0.14802 0.14812 0.0816 0 0.14818-0.0665 0.14818-0.14812 0-0.0816-0.0665-0.14809-0.14818-0.14809-0.0816 0-0.14802 0.0665-0.14802 0.14809zm-27.92-31.39c0 0.17346 0.14108 0.31434 0.31432 0.31434 0.17349 0 0.31439-0.14091 0.31439-0.31434 0-0.17342-0.1409-0.31435-0.31439-0.31435-0.17324 0-0.31432 0.14093-0.31432 0.31435zm0.10278 10.553c0 0.13737 0.11359 0.25086 0.25094 0.25086 0.13734 0 0.24783-0.11349 0.24783-0.25086 0-0.13739-0.11042-0.24785-0.24783-0.24785-0.13735 0-0.25094 0.11046-0.25094 0.24785zm0.38696-25.602c0 0.15168 0.12335 0.27504 0.27507 0.27504 0.15175 0 0.27509-0.12336 0.27509-0.27504 0-0.1517-0.12334-0.27506-0.27509-0.27506-0.15172 0-0.27507 0.12336-0.27507 0.27506zm28.547 68.309c0 0.0769 0.0619 0.13904 0.13898 0.13904 0.0766 0 0.13904-0.0623 0.13904-0.13904 0-0.0769-0.0626-0.13901-0.13904-0.13901-0.0767 0-0.13898 0.0622-0.13898 0.13901zm0.90076-2.3183c0 0.0894 0.0705 0.1602 0.16018 0.1602 0.0893 0 0.16325-0.0709 0.16325-0.1602 0-0.0894-0.0743-0.16322-0.16325-0.16322-0.0893 0-0.16018 0.0739-0.16018 0.16322zm-41.155 62.032c0 0.1017 0.0827 0.1844 0.18441 0.1844 0.10166 0 0.18439-0.083 0.18439-0.1844 0-0.1017-0.0827-0.1843-0.18439-0.1843-0.10176 0-0.18441 0.083-0.18441 0.1843zm55.189-22.82c0 0.1744 0.14298 0.3174 0.31732 0.3174s0.31439-0.143 0.31439-0.3174c0-0.1743-0.14005-0.3143-0.31439-0.3143s-0.31732 0.14-0.31732 0.3143zm-40.09-106.17c0 0.13093 0.10484 0.23575 0.2357 0.23575 0.13099 0 0.23584-0.10482 0.23584-0.23575s-0.10485-0.23878-0.23584-0.23878c-0.13086 0-0.2357 0.10785-0.2357 0.23878zm28.23 67.916c0 0.17071 0.13757 0.3083 0.30833 0.3083 0.1707 0 0.3113-0.13759 0.3113-0.3083 0-0.17073-0.1406-0.30833-0.3113-0.30833-0.17076 0-0.30833 0.1376-0.30833 0.30833zm-15.779 25.672c0 0.075 0.0611 0.136 0.13587 0.136 0.075 0 0.13618-0.061 0.13618-0.136s-0.0611-0.136-0.13618-0.136c-0.0751 0-0.13587 0.061-0.13587 0.136zm-9.0382-94.191c0 0.13536 0.1094 0.24483 0.24475 0.24483 0.1354 0 0.24489-0.10947 0.24489-0.24483 0-0.13539-0.10949-0.24786-0.24489-0.24786-0.13535 0-0.24475 0.11247-0.24475 0.24786zm0.49753 97.118c0 0.082 0.0665 0.1481 0.14803 0.1481 0.0822 0 0.14817-0.066 0.14817-0.1481 0-0.082-0.0658-0.1511-0.14817-0.1511-0.0822 0-0.14803 0.069-0.14803 0.1511zm26.79 13.311c0 0.1252 0.10152 0.2267 0.22672 0.2267s0.22671-0.1015 0.22671-0.2267-0.10151-0.2267-0.22671-0.2267-0.22672 0.1015-0.22672 0.2267z"/>
</g>
</g>
</g>
</g>
</svg>
