<svg xmlns:rdf="http://www.w3.org/1999/02/22-rdf-syntax-ns#" xmlns="http://www.w3.org/2000/svg" height="250" width="600" version="1.1" xmlns:cc="http://creativecommons.org/ns#" xmlns:dc="http://purl.org/dc/elements/1.1/" viewBox="0 0 600.00184 250.00191">
 <defs>
  <radialGradient id="f" gradientUnits="userSpaceOnUse" cy="82.897" cx="-88.068" gradientTransform="matrix(.83666 .53775 -.65296 1.0159 1009.2 990.99)" r="388.16">
   <stop stop-opacity=".89231" offset="0"/>
   <stop stop-color="#181818" stop-opacity=".9451" offset=".75"/>
   <stop stop-color="#c97900" stop-opacity=".50256" offset="1"/>
  </radialGradient>
  <filter id="g" y="-.32272" x="-.059167" width="1.1183" height="1.6454">
   <feGaussianBlur stdDeviation="15.099668"/>
  </filter>
  <filter id="h" y="-.17703" x="-.032948" width="1.0659" height="1.3541">
   <feGaussianBlur stdDeviation="8.282884"/>
  </filter>
  <filter id="i" y="-.23053" x="-.046781" width="1.0936" height="1.4611">
   <feGaussianBlur stdDeviation="11.938631"/>
  </filter>
  <filter id="a">
   <feGaussianBlur stdDeviation="15.760573"/>
  </filter>
 </defs>
 <g transform="matrix(-.032915 .47754 .47071 .033393 -120.55 -81.022)">
  <g fill-opacity=".97647" transform="translate(362,190)">
   <path fill="#d7ded1" d="m0.46804 65.119c-23.184 0-44-21.336-44-4.5 0 3.035-10.388 3.952-9.25 6.719-63.078 10.384-112.24 47.322-140.78 102.09-9.1865 21.748-7.8714 19.885-12.97 38.69-3.7892 13.975-5.0669 17.626-8.85 36.47-0.47 5.64-0.49911 11.345-0.49911 17.105 0 110.4 89.389 199.99 199.79 199.99 10.39 0 20.59-0.81 30.558-2.34-0.003 0.09-0.08816 0.29813 0 0.28 7.5079-1.5436 8.6306-2.0094 14.5-3.5 7.219-1.38 16.03-4.3007 7.219-1.38 16.477-4.45 28.623-9.94 43.125-18.21 8.0315-3.2108 9.3067-4.0924 14.527-7.5824 12.482-8.36-7.8496 5.809 12.884-9.4354 12.058-8.8662 9.8078-0.56227 5.3078-4.3023 5.84-4.88 11.41-10.08 16.66-15.59 5.438-3.3117 3.3434-2.5663 7.28-7.5 4.9895-6.2534 1.7853 1.3067 7.1446-7.8886l4.3254-7.4214c19.2-27.22 30.768-57.908 34.378-92.788 0.47073-8.9285 1.033-16.588 0.65155-38.902-0.38695-22.633-3.9747-25.612-7.6185-41.957-0.38949-1.7471 2.1285-1.0531 0.5585 0.73691-20.43-67.69-69.77-117.28-139.07-133.78-4.575-1.719-4.183-1.948-8.199-3.064-16.988-4.717-4.491-1.949-27.675-1.949z"/>
   <path fill-rule="evenodd" fill="#eef0ec" d="m-26.562 66.625c-4.941 0.192-7.521 5.872-11.157 9.437-16.426 0.764-33.059 4.951-49.125 14.094-40.526 23.064-68.586 60.084-87.036 93.064-7.61-0.28-15.18-2.2-22.68-1.94-8.37 2.42-5.01 11.76-1.6 16.94 3.75 7.9 1.8 17.96-4.72 23.84-6.8 3.75-4.63 12.16 3.04 12.32 0.83 0.31 1.62 0.47 2.37 0.53-4.15 11.46-6.03 18.59-6.03 18.59s216.36-190.21 306.88-117.38c0 0-33.439-30.91-78.286-48.432 0.584-5.486 3.553-14.122-2.563-17.219-6.025 2.92-12.85 2.84-19.375 3.219-9.6219 1.651-17.833-4.359-26.781-6.563-1.075-0.374-2.039-0.535-2.937-0.5z"/>
   <path fill-rule="evenodd" fill="#c4ccbd" d="m162.06 305.12c-109.6 59.4-180.31 128.69-292.03 106.07 0 0 69.282 45.3 143.72 38 1.833 1.75 3.533 3.65 5.875 4.59 4.636 0.69 8.78-2.67 12-5.59 0.662-0.64 1.062-1.36 1.281-2.1 17.637-4.01 35.269-11.37 52.032-23.43 3.292 2.92 6.495 6.16 10.124 5.37 3.817-4.95 8.388-9.62 11.818-14.44-0.28-2.01-0.83-5.31-1.85-8.18 5.45-5.51 10.75-11.61 15.88-18.38 4.13-2.65 7.9-5.92 11.25-9.53 2.11-2.51 5.33-5.64 3.53-9.19-0.32-0.45-0.8-0.92-1.28-1.4 10.27-17.19 19.59-37.6 27.65-61.79z"/>
  </g>
  <circle transform="matrix(.30544 0 0 .30544 194.47 315.86)" cy="460.93" cx="351.43" r="200" fill="#c4ccbe"/>
  <path fill="#a2ae98" d="m293.95 401.68c-28.2 4.12-48.51 28.37-48.51 56.06 6.43-23.89 26.93-39.84 52.95-43.64 19.19-2.8 37.21 0.19 50.79 12-11.82-17.48-32.97-27.67-55.23-24.42z"/>
  <path fill="#ececec" d="m290.7 391.89c-28.2 4.13-50.25 24.46-50.24 52.15 6.43-23.89 26.48-42.9 52.5-46.71 19.19-2.81 37.65 3.24 51.23 15.05-11.82-17.48-31.23-23.75-53.49-20.49z"/>
  <path fill="#a2ae98" d="m363.16 455.25c-0.24 6.16-1.38 12.21-3.32 17.97 1.49-0.91 3.1-1.63 4.82-2.13 0.16-5.34-0.32-10.68-1.5-15.84zm12.43 21.5c-0.3 7.99-5.26 15.43-13.18 18.5-6.06 1.94-11.39 3.16-12.03-4.03-1.01 1.34-2.08 2.64-3.19 3.9-0.69-0.27-1.38-0.58-2.03-0.93 0.51 0.48 1.08 0.93 1.65 1.37-6.5 7.25-14.77 13.12-24.47 16.88-18.08 7.01-37.41 5.24-53.28-3.25 15.41 14.41 40.05 23.56 61.03 15.43 10.82-4.19 19.32-11.99 25.19-21.59 0.84-3.34 2.38-1.78 9.63-3.84 8.59-3.33 12.68-13.72 10.68-22.44z"/>
  <circle transform="matrix(.13119 0 0 .13119 265.51 542.98)" cy="460.93" cx="351.43" r="200" fill="#c4ccbe"/>
  <path fill="#a2ae98" d="m308.24 579.84c-12.11 1.77-20.84 12.18-20.83 24.08 2.76-10.26 11.56-17.11 22.74-18.75 8.24-1.2 15.98 0.09 21.81 5.16-5.07-7.51-14.16-11.89-23.72-10.49z"/>
  <path fill="#ececec" d="m306.85 575.63c-12.12 1.78-21.59 10.51-21.58 22.4 2.76-10.26 11.37-18.42 22.55-20.06 8.24-1.21 16.16 1.39 22 6.46-5.08-7.5-13.41-10.19-22.97-8.8z"/>
  <path fill="#a2ae98" d="m323.98 632.86c11.41-4.43 16.84-18.21 14.2-29.8-0.41 10.61-6.99 20.49-17.53 24.57-7.76 3.01-16.07 2.24-22.89-1.41 6.62 6.2 17.2 10.13 26.22 6.64z"/>
  <path fill="#ececec" d="m317.07 627.04c11.89-2.93 19.56-14.15 18.4-25.98-1.75 10.47-8.78 18.31-19.75 21.02-8.09 2-16.98 1.31-23.27-3.18 5.78 6.98 15.24 10.46 24.62 8.14z"/>
  <circle transform="matrix(.06262 0 0 .06262 192.84 475.64)" cy="460.93" cx="351.43" r="200" fill="#c4ccbe"/>
  <path fill="#808080" d="m213.23 493.23c-5.78 0.85-9.94 5.82-9.94 11.5 1.32-4.9 5.52-8.17 10.85-8.95 3.94-0.57 7.63 0.04 10.41 2.46-2.42-3.58-6.75-5.67-11.32-5.01z"/>
  <path fill="#ececec" d="m212.57 491.23c-5.78 0.84-10.3 5.01-10.3 10.69 1.31-4.9 5.43-8.8 10.76-9.58 3.93-0.57 7.72 0.67 10.5 3.09-2.42-3.59-6.4-4.87-10.96-4.2z"/>
  <path fill="#808080" d="m220.74 518.54c5.45-2.11 8.05-8.69 6.78-14.22-0.19 5.06-3.34 9.78-8.36 11.73-3.71 1.43-7.67 1.07-10.93-0.67 3.16 2.95 8.21 4.83 12.51 3.16z"/>
  <path fill="#ececec" d="m217.45 515.77c5.67-1.41 9.33-6.76 8.78-12.41-0.84 5-4.19 8.74-9.43 10.04-3.86 0.95-8.1 0.62-11.11-1.52 2.76 3.33 7.28 4.99 11.76 3.89z"/>
  <circle transform="matrix(.11832 0 0 .11832 215.45 297.93)" cy="460.93" cx="351.43" r="200" fill="#daded5"/>
  <path fill="#808080" d="m253.99 331.17c-10.93 1.6-18.79 10.99-18.79 21.71 2.49-9.25 10.43-15.43 20.51-16.9 7.43-1.08 14.41 0.08 19.67 4.65-4.58-6.77-12.77-10.72-21.39-9.46z"/>
  <path fill="#ececec" d="m252.73 327.38c-10.93 1.6-19.47 9.47-19.46 20.2 2.49-9.26 10.25-16.62 20.33-18.09 7.44-1.09 14.59 1.25 19.85 5.82-4.58-6.77-12.1-9.19-20.72-7.93z"/>
  <path fill="#808080" d="m268.18 378.99c10.29-3.99 15.19-16.42 12.8-26.88-0.37 9.58-6.3 18.48-15.8 22.16-7.01 2.72-14.49 2.02-20.64-1.27 5.97 5.59 15.51 9.13 23.64 5.99z"/>
  <path fill="#ececec" d="m261.95 373.74c10.72-2.65 17.64-12.76 16.6-23.44-1.59 9.46-7.93 16.52-17.82 18.97-7.29 1.8-15.31 1.17-20.99-2.87 5.21 6.3 13.75 9.43 22.21 7.34z"/>
  <circle transform="matrix(.06262 0 0 .06262 375.84 287.64)" cy="460.93" cx="351.43" r="200" fill="#daded5"/>
  <path fill="#808080" d="m396.23 305.23c-5.78 0.85-9.94 5.82-9.94 11.5 1.32-4.9 5.52-8.17 10.85-8.95 3.94-0.57 7.63 0.04 10.41 2.46-2.42-3.58-6.75-5.67-11.32-5.01z"/>
  <path fill="#ececec" d="m395.57 303.23c-5.78 0.84-10.3 5.01-10.3 10.69 1.31-4.9 5.43-8.8 10.76-9.58 3.93-0.57 7.72 0.67 10.5 3.09-2.42-3.59-6.4-4.87-10.96-4.2z"/>
  <path fill="#808080" d="m403.74 330.54c5.45-2.11 8.05-8.69 6.78-14.22-0.19 5.06-3.34 9.78-8.36 11.73-3.71 1.43-7.67 1.07-10.93-0.67 3.16 2.95 8.21 4.83 12.51 3.16z"/>
  <path fill="#ececec" d="m400.45 327.77c5.67-1.41 9.33-6.76 8.78-12.41-0.84 5-4.19 8.74-9.43 10.04-3.86 0.95-8.1 0.62-11.11-1.52 2.76 3.33 7.28 4.99 11.76 3.89z"/>
  <g transform="matrix(.708 .14107 -.16809 .84361 236.98 12.64)">
   <circle transform="matrix(.11832 0 0 .11832 443.45 470.93)" cy="460.93" cx="351.43" r="200" fill="#c4ccbe"/>
   <path fill="#a2ae98" d="m481.99 504.17c-10.93 1.6-18.79 10.99-18.79 21.71 2.49-9.25 10.43-15.43 20.51-16.9 7.43-1.08 14.41 0.08 19.67 4.65-4.58-6.77-12.77-10.72-21.39-9.46z"/>
   <path fill="#ececec" d="m480.73 500.38c-10.93 1.6-19.47 9.47-19.46 20.2 2.49-9.26 10.25-16.62 20.33-18.09 7.44-1.09 14.59 1.25 19.85 5.82-4.58-6.77-12.1-9.19-20.72-7.93z"/>
   <path fill="#a2ae98" d="m496.18 551.99c10.29-3.99 15.19-16.42 12.8-26.88-0.37 9.58-6.3 18.48-15.8 22.16-7.01 2.72-14.49 2.02-20.64-1.27 5.97 5.59 15.51 9.13 23.64 5.99z"/>
   <path fill="#ececec" d="m489.95 546.74c10.72-2.65 17.64-12.76 16.6-23.44-1.59 9.46-7.93 16.52-17.82 18.97-7.29 1.8-15.31 1.17-20.99-2.87 5.21 6.3 13.75 9.43 22.21 7.34z"/>
  </g>
  <circle transform="matrix(.098724 0 0 .098724 321.4 432.05)" cy="460.93" cx="351.43" r="200" fill="#c4ccbe"/>
  <path fill="#ececec" d="m369.09 480.75c-0.3 7.99-13.51 11.43-22.93 10-11.13 7.74-17.66 9.77-32.82 15.94-21.58 4.26-39.41-2.01-55.28-10.5 15.41 14.41 40.05 23.56 61.03 15.43 10.82-4.19 21.32-8.49 27.19-18.09 3.09 0.41 5.13 1.97 10.63 1.66 3.59 0.42 12.18 1.28 12.18-14.44z"/>
  <circle transform="matrix(.12384 0 0 .12384 336.62 481.09)" cy="460.93" cx="351.43" r="200" fill="#c4ccbe"/>
  <path fill="#a2ae98" d="m376.95 515.88c-11.43 1.67-19.66 11.5-19.66 22.73 2.6-9.68 10.91-16.15 21.46-17.69 7.79-1.14 15.09 0.07 20.6 4.86-4.79-7.08-13.37-11.22-22.4-9.9z"/>
  <path fill="#ececec" d="m375.64 511.91c-11.44 1.68-20.38 9.92-20.37 21.15 2.6-9.69 10.73-17.4 21.28-18.94 7.79-1.14 15.27 1.31 20.77 6.1-4.79-7.09-12.66-9.63-21.68-8.31z"/>
  <path fill="#a2ae98" d="m391.81 565.93c10.77-4.17 15.9-17.19 13.4-28.13-0.38 10.02-6.6 19.34-16.54 23.2-7.33 2.84-15.17 2.11-21.61-1.33 6.25 5.84 16.24 9.56 24.75 6.26z"/>
  <path fill="#ececec" d="m385.29 560.44c11.22-2.77 18.46-13.36 17.37-24.53-1.65 9.89-8.29 17.29-18.64 19.85-7.64 1.88-16.03 1.23-21.98-3 5.46 6.59 14.4 9.87 23.25 7.68z"/>
  <circle fill-opacity=".97647" transform="matrix(.097159 -.01751 .0079452 .044087 261.22 274.57)" cy="460.93" cx="351.43" r="200" fill="#e2e4df"/>
  <path fill="#808080" d="m295.09 281.26c-8.86 2.21-14.69 6.87-13.97 10.87 1.43-3.82 7.53-7.29 15.71-9.33 6.03-1.51 11.84-2.11 16.47-1.18-4.22-1.85-11.21-2.11-18.21-0.36z"/>
  <path fill="#ececec" d="m293.81 280.03c-8.87 2.21-15.35 6.41-14.63 10.41 1.42-3.82 7.31-7.71 15.49-9.75 6.03-1.51 12.05-1.69 16.68-0.77-4.21-1.84-10.55-1.63-17.54 0.11z"/>
  <path fill="#808080" d="m309.96 296.98c8.18-3.01 11.37-8.37 8.71-11.91 0.34 3.62-3.94 7.82-11.49 10.59-5.57 2.05-11.77 2.9-17.04 2.58 5.28 1.2 13.36 1.11 19.82-1.26z"/>
  <path fill="#ececec" d="m304.49 295.94c8.63-2.57 13.63-7.36 12.06-11.19-0.67 3.76-5.4 7.33-13.36 9.7-5.87 1.76-12.49 2.71-17.43 2.04 4.71 1.58 11.93 1.48 18.73-0.55z"/>
  <circle transform="matrix(.043895 -.019239 .044616 .10179 178.48 545.14)" cy="460.93" cx="351.43" r="200" fill="#c4ccbe"/>
  <path fill="#a2ae98" d="m205.31 567.47c-3.45 3.15-2.82 12.51 1.22 21.74-2.56-8.36-1.95-14.97 1.24-17.88 2.34-2.14 5.37-2.28 9.05 0.8-4.25-5.08-8.78-7.14-11.51-4.66z"/>
  <path fill="#ececec" d="m203.42 564.42c-3.45 3.15-3.65 11.31 0.39 20.54-2.56-8.37-2.46-15.96 0.73-18.87 2.34-2.15 5.88-1.3 9.56 1.78-4.26-5.08-7.96-5.94-10.68-3.45z"/>
  <path fill="#a2ae98" d="m228.61 606.3c2.31-5.1-0.56-16.59-5.38-25.2 3.47 8.3 4.63 16.93 2.49 21.64-1.58 3.47-4.61 4.09-8.14 2.26 4.32 3.83 9.2 5.33 11.03 1.3z"/>
  <path fill="#ececec" d="m224.32 602.8c2.98-4.02 1.73-13.84-2.68-22.86 2.98 8.39 3.29 15.5 0.54 19.21-2.02 2.74-5.23 3.5-8.87 0.95 4.31 4.57 8.66 5.88 11.01 2.7z"/>
  <g transform="matrix(.9134 -.24403 .21007 .78629 -32.955 180.35)">
   <circle transform="matrix(.17954 0 0 .17954 370.24 308.37)" cy="460.93" cx="351.43" r="200" fill="#c4ccbe"/>
   <path fill="#a2ae98" d="m428.71 358.82c-16.58 2.42-28.52 16.67-28.52 32.95 3.78-14.04 15.83-23.42 31.13-25.65 11.28-1.65 21.87 0.11 29.85 7.05-6.94-10.27-19.38-16.27-32.46-14.35z"/>
   <path fill="#ececec" d="m426.8 353.06c-16.58 2.43-29.54 14.38-29.53 30.65 3.77-14.04 15.56-25.21 30.86-27.45 11.28-1.65 22.12 1.9 30.11 8.84-6.95-10.27-18.36-13.95-31.44-12.04z"/>
   <path fill="#a2ae98" d="m450.24 431.38c15.62-6.06 23.06-24.92 19.44-40.79-0.56 14.53-9.57 28.05-23.99 33.63-10.63 4.12-21.99 3.07-31.32-1.92 9.06 8.47 23.54 13.85 35.87 9.08z"/>
   <path fill="#ececec" d="m440.8 423.42c16.26-4.02 26.76-19.37 25.18-35.57-2.4 14.34-12.03 25.07-27.04 28.78-11.06 2.73-23.23 1.78-31.85-4.35 7.91 9.55 20.87 14.31 33.71 11.14z"/>
   <g transform="matrix(.10015 0 0 .10015 386.4 347.37)">
    <path fill="#a2ae98" d="m329.56 392.23c-32.32 4.72-55.59 32.51-55.59 64.23 7.37-27.37 30.86-45.64 60.68-50 21.99-3.21 42.63 0.22 58.19 13.76-13.54-20.04-37.77-31.72-63.28-27.99z"/>
    <path fill="#ececec" d="m325.84 381.01c-32.32 4.73-57.58 28.03-57.57 59.75 7.36-27.37 30.34-49.15 60.16-53.51 21.99-3.22 43.13 3.7 58.7 17.24-13.55-20.03-35.78-27.21-61.29-23.48z"/>
    <path fill="#a2ae98" d="m371.54 533.68c30.45-11.8 44.95-48.58 37.88-79.51-1.09 28.33-18.65 54.68-46.75 65.56-20.72 8.03-42.88 5.98-61.06-3.75 17.66 16.52 45.89 27.01 69.93 17.7z"/>
    <path fill="#ececec" d="m353.12 518.16c31.71-7.83 52.17-37.75 49.09-69.33-4.68 27.96-23.44 48.86-52.69 56.09-21.58 5.33-45.3 3.49-62.1-8.47 15.42 18.62 40.67 27.9 65.7 21.71z"/>
   </g>
   <g transform="matrix(.072158 0 0 .072158 413.73 346.21)">
    <path fill="#a2ae98" d="m329.56 392.23c-32.32 4.72-55.59 32.51-55.59 64.23 7.37-27.37 30.86-45.64 60.68-50 21.99-3.21 42.63 0.22 58.19 13.76-13.54-20.04-37.77-31.72-63.28-27.99z"/>
    <path fill="#ececec" d="m325.84 381.01c-32.32 4.73-57.58 28.03-57.57 59.75 7.36-27.37 30.34-49.15 60.16-53.51 21.99-3.22 43.13 3.7 58.7 17.24-13.55-20.03-35.78-27.21-61.29-23.48z"/>
    <path fill="#a2ae98" d="m371.54 533.68c30.45-11.8 44.95-48.58 37.88-79.51-1.09 28.33-18.65 54.68-46.75 65.56-20.72 8.03-42.88 5.98-61.06-3.75 17.66 16.52 45.89 27.01 69.93 17.7z"/>
    <path fill="#ececec" d="m353.12 518.16c31.71-7.83 52.17-37.75 49.09-69.33-4.68 27.96-23.44 48.86-52.69 56.09-21.58 5.33-45.3 3.49-62.1-8.47 15.42 18.62 40.67 27.9 65.7 21.71z"/>
   </g>
  </g>
  <circle transform="matrix(.079762 0 0 .073759 275.26 400.9)" cy="460.93" cx="351.43" r="200" fill="#c4ccbe"/>
  <path fill="#a2ae98" d="m301.23 421.62c-7.36 1-12.66 6.85-12.66 13.54 1.68-5.77 7.03-9.62 13.82-10.54 5.02-0.68 9.72 0.05 13.27 2.9-3.09-4.22-8.61-6.68-14.43-5.9z"/>
  <path fill="#ececec" d="m300.39 419.26c-7.37 0.99-13.13 5.9-13.12 12.59 1.68-5.77 6.91-10.36 13.71-11.28 5.01-0.68 9.83 0.78 13.37 3.63-3.08-4.22-8.15-5.73-13.96-4.94z"/>
  <path fill="#a2ae98" d="m310.8 451.43c6.94-2.49 10.25-10.24 8.64-16.75-0.25 5.96-4.26 11.52-10.66 13.81-4.72 1.69-9.77 1.26-13.91-0.79 4.02 3.48 10.45 5.69 15.93 3.73z"/>
  <path fill="#ececec" d="m306.61 448.16c7.22-1.65 11.88-7.96 11.18-14.61-1.06 5.89-5.34 10.3-12.01 11.82-4.91 1.12-10.32 0.73-14.15-1.79 3.52 3.93 9.27 5.88 14.98 4.58z"/>
  <g transform="matrix(.3876 0 0 .3876 251.07 351.95)">
   <circle transform="matrix(.13119 0 0 .13119 265.51 542.98)" cy="460.93" cx="351.43" r="200" fill="#c4ccbe"/>
   <path fill="#a2ae98" d="m308.24 579.84c-12.11 1.77-20.84 12.18-20.83 24.08 2.76-10.26 11.56-17.11 22.74-18.75 8.24-1.2 15.98 0.09 21.81 5.16-5.07-7.51-14.16-11.89-23.72-10.49z"/>
   <path fill="#ececec" d="m306.85 575.63c-12.12 1.78-21.59 10.51-21.58 22.4 2.76-10.26 11.37-18.42 22.55-20.06 8.24-1.21 16.16 1.39 22 6.46-5.08-7.5-13.41-10.19-22.97-8.8z"/>
   <path fill="#a2ae98" d="m323.98 632.86c11.41-4.43 16.84-18.21 14.2-29.8-0.41 10.61-6.99 20.49-17.53 24.57-7.76 3.01-16.07 2.24-22.89-1.41 6.62 6.2 17.2 10.13 26.22 6.64z"/>
   <path fill="#ececec" d="m317.07 627.04c11.89-2.93 19.56-14.15 18.4-25.98-1.75 10.47-8.78 18.31-19.75 21.02-8.09 2-16.98 1.31-23.27-3.18 5.78 6.98 15.24 10.46 24.62 8.14z"/>
  </g>
  <g transform="matrix(.2952 0 0 .2952 212.02 418.68)">
   <circle transform="matrix(.13119 0 0 .13119 265.51 542.98)" cy="460.93" cx="351.43" r="200" fill="#c4ccbe"/>
   <path fill="#a2ae98" d="m308.24 579.84c-12.11 1.77-20.84 12.18-20.83 24.08 2.76-10.26 11.56-17.11 22.74-18.75 8.24-1.2 15.98 0.09 21.81 5.16-5.07-7.51-14.16-11.89-23.72-10.49z"/>
   <path fill="#ececec" d="m306.85 575.63c-12.12 1.78-21.59 10.51-21.58 22.4 2.76-10.26 11.37-18.42 22.55-20.06 8.24-1.21 16.16 1.39 22 6.46-5.08-7.5-13.41-10.19-22.97-8.8z"/>
   <path fill="#a2ae98" d="m323.98 632.86c11.41-4.43 16.84-18.21 14.2-29.8-0.41 10.61-6.99 20.49-17.53 24.57-7.76 3.01-16.07 2.24-22.89-1.41 6.62 6.2 17.2 10.13 26.22 6.64z"/>
   <path fill="#ececec" d="m317.07 627.04c11.89-2.93 19.56-14.15 18.4-25.98-1.75 10.47-8.78 18.31-19.75 21.02-8.09 2-16.98 1.31-23.27-3.18 5.78 6.98 15.24 10.46 24.62 8.14z"/>
  </g>
  <g transform="matrix(.2292 0 0 .2292 275.39 444.62)">
   <circle transform="matrix(.13119 0 0 .13119 265.51 542.98)" cy="460.93" cx="351.43" r="200" fill="#c4ccbe"/>
   <path fill="#a2ae98" d="m308.24 579.84c-12.11 1.77-20.84 12.18-20.83 24.08 2.76-10.26 11.56-17.11 22.74-18.75 8.24-1.2 15.98 0.09 21.81 5.16-5.07-7.51-14.16-11.89-23.72-10.49z"/>
   <path fill="#ececec" d="m306.85 575.63c-12.12 1.78-21.59 10.51-21.58 22.4 2.76-10.26 11.37-18.42 22.55-20.06 8.24-1.21 16.16 1.39 22 6.46-5.08-7.5-13.41-10.19-22.97-8.8z"/>
   <path fill="#a2ae98" d="m323.98 632.86c11.41-4.43 16.84-18.21 14.2-29.8-0.41 10.61-6.99 20.49-17.53 24.57-7.76 3.01-16.07 2.24-22.89-1.41 6.62 6.2 17.2 10.13 26.22 6.64z"/>
   <path fill="#ececec" d="m317.07 627.04c11.89-2.93 19.56-14.15 18.4-25.98-1.75 10.47-8.78 18.31-19.75 21.02-8.09 2-16.98 1.31-23.27-3.18 5.78 6.98 15.24 10.46 24.62 8.14z"/>
  </g>
  <g transform="matrix(.47889 -.14303 .11382 .38109 228.17 414.01)">
   <circle transform="matrix(.13119 0 0 .13119 265.51 542.98)" cy="460.93" cx="351.43" r="200" fill="#c4ccbe"/>
   <path fill="#a2ae98" d="m308.24 579.84c-12.11 1.77-20.84 12.18-20.83 24.08 2.76-10.26 11.56-17.11 22.74-18.75 8.24-1.2 15.98 0.09 21.81 5.16-5.07-7.51-14.16-11.89-23.72-10.49z"/>
   <path fill="#ececec" d="m306.85 575.63c-12.12 1.78-21.59 10.51-21.58 22.4 2.76-10.26 11.37-18.42 22.55-20.06 8.24-1.21 16.16 1.39 22 6.46-5.08-7.5-13.41-10.19-22.97-8.8z"/>
   <path fill="#a2ae98" d="m323.98 632.86c11.41-4.43 16.84-18.21 14.2-29.8-0.41 10.61-6.99 20.49-17.53 24.57-7.76 3.01-16.07 2.24-22.89-1.41 6.62 6.2 17.2 10.13 26.22 6.64z"/>
   <path fill="#ececec" d="m317.07 627.04c11.89-2.93 19.56-14.15 18.4-25.98-1.75 10.47-8.78 18.31-19.75 21.02-8.09 2-16.98 1.31-23.27-3.18 5.78 6.98 15.24 10.46 24.62 8.14z"/>
  </g>
  <g transform="matrix(.48375 0 0 .61575 358.14 66.551)">
   <circle transform="matrix(.13119 0 0 .13119 265.51 542.98)" cy="460.93" cx="351.43" r="200" fill="#c4ccbe"/>
   <path fill="#a2ae98" d="m308.24 579.84c-12.11 1.77-20.84 12.18-20.83 24.08 2.76-10.26 11.56-17.11 22.74-18.75 8.24-1.2 15.98 0.09 21.81 5.16-5.07-7.51-14.16-11.89-23.72-10.49z"/>
   <path fill="#ececec" d="m306.85 575.63c-12.12 1.78-21.59 10.51-21.58 22.4 2.76-10.26 11.37-18.42 22.55-20.06 8.24-1.21 16.16 1.39 22 6.46-5.08-7.5-13.41-10.19-22.97-8.8z"/>
   <path fill="#a2ae98" d="m323.98 632.86c11.41-4.43 16.84-18.21 14.2-29.8-0.41 10.61-6.99 20.49-17.53 24.57-7.76 3.01-16.07 2.24-22.89-1.41 6.62 6.2 17.2 10.13 26.22 6.64z"/>
   <path fill="#ececec" d="m317.07 627.04c11.89-2.93 19.56-14.15 18.4-25.98-1.75 10.47-8.78 18.31-19.75 21.02-8.09 2-16.98 1.31-23.27-3.18 5.78 6.98 15.24 10.46 24.62 8.14z"/>
  </g>
  <path fill="#a2ae98" d="m346.04 466.25c-6.11 4.22-8.18 11.85-5.15 17.81-1.12-5.91 1.91-11.77 7.55-15.67 4.16-2.87 8.68-4.36 13.13-3.43-4.66-2.36-10.7-2.05-15.53 1.29z"/>
  <path fill="#ececec" d="m346.79 462.58c-6.85 2.87-11.14 9.11-9.4 15.57 0.12-6.01 3.99-11.8 10.31-14.45 4.67-1.96 9.7-1.8 13.87 0.03-4.08-3.27-9.37-3.42-14.78-1.15z"/>
 </g>
 <g transform="matrix(.98011 0 0 .98625 -102.11 23.513)">
  <g transform="translate(-140.93,-467.65)">
   <g transform="matrix(.32768 0 0 .32768 -6.0586 202.08)">
    <path opacity=".16425" d="m1149.3 1211.7a13.437 8.9578 34.762 0 1 10.215 -14.718 13.437 8.9578 34.762 1 1 -10.215 14.718z"/>
    <path opacity=".16425" d="m1093.7 1133.5a5.5986 4.4789 16.61 0 1 2.5606 -8.584 5.5986 4.4789 16.61 1 1 -2.5606 8.584z"/>
    <path fill="url(#f)" d="m1274.5 1192c-36.517 63.975-93.199 109.24-157.48 132.35-78.994 28.402-169.47 23.355-248.08-21.514-142.62-81.4-192.25-263.01-110.88-405.57 81.378-142.63 262.98-192.27 405.59-110.87 142.62 81.389 192.25 263 110.85 405.56z"/>
   </g>
  </g>
 </g>
 <g transform="translate(6.9476 -260.47)">
  <g transform="matrix(.16777 0 0 .16777 128.29 365.96)">
   <title>Layer 1</title>
   <g stroke-width="5">
    <g opacity=".75" filter="url(#i)" transform="matrix(.74885 0 0 .93973 -740.27 411.93)" fill="#fff">
     <path opacity=".41111" filter="url(#h)" d="m379.13 219.53c32.649 13.047 132.05 19.101 1.7891 7.5759 30.726-9.9705 119.98-56.146 120.99-8.1535-17.889 10.982 12.426 10.891 10.835 10.754-87.384-7.5184-68.799 0.0266-36.265-11.579 45.943-15.142 102.41-31.659 107.98 26.033 5.3399-0.63961 21.373-1.3986 16.02-1.9188-20.513-1.9936-41.29-0.29015-61.778-2.5282-11.404-1.2458 22.792-3.3695 34.263-3.244 89.246 0.97668 63.506-2.3166 106.47 4.1553 6.0897-0.2204 24.357-0.40156 18.269-0.66122-21.671-0.92418-43.39-0.36183-65.059-1.3342-5.3229-0.23885 10.633-0.87689 15.961-0.86896 30.731 0.0458 61.491 2.4726 92.189 1.0302 26.628-1.2511-54.159 1.3836-79.736-6.1264-33.392-11.064-173.96-29.539 3.3166-17.738 21.062 1.402 60.617 30.781 79.79 42.311 52.904 39.522-172.69 14.65-71.544-13.495 41.223 0.61927 82.463 0.49199 123.67 1.8578 61.581 2.0412-34.111 32.001-89.453 13.946-7.6108-5.2305-108.74-22.281-106.82-31.919 1.2739-6.4002 10.856-7.244 16.285-10.866 54.067 0.54388 119.11 1.0438 169.61 27.67-3.9611 15.207-1.0822 8.1402-8.4044 21.293l-67.916-4.882c8.0734-4.175 7.4036-1.9002-1.9486-6.8423-30.389-7.9302-151.98-32.979-24.822-27.374 1.5109-20.361 85.341 11.192 101.73 23.16 32.303 11.09-3.7058-2.6316-46.943 4.7866-3.387 0.58108 4.6945 5.0198 7.0418 7.5297-7.4165 0.26163-14.833 0.52329-22.249 0.78488-9.0502-0.25216-36.068-1.1048-27.075-2.1592 22.794-2.6728 45.864-1.822 68.795-2.733-10.309-0.86566-20.731-0.84909-30.928-2.597-1.4038-0.24064-3.98-4.0468-2.8411-3.1915 46.315 34.782-88.894 34.515-101.59 16.424-128.53-94.743 55.231-104.49 108.43-41.63 13.137 46.473 1.1745-14.97-74.057 23.558-18.935 9.6972 42.542-0.87527 63.816-0.86935 4.4194 0.001-8.8111 0.76166-13.229 0.88345-96.309 2.6551-65.674 4.343-111.41 1.1732-35.167-4.5243-19.603-1.8422 51.012-2.8753 10.408-0.15227-20.667 2.7481-31.069 3.1291-95.683 3.5051-68.066 15.042-105.81-2.9912-36.207-46.149 109.43-34.717 36.6-21.408-35.606 12.84-126.63 48.601-118.17 2.4749 92.985-4.1002 69.69-8.5189 20.322 14.206-50.036 2.5728-98.174 11.541-141.77-15.835l65.684-8.9173z"/>
     <path filter="url(#g)" d="m4186.5-551.11c32.931 13.879 132.13 19.329 3.4512 12.006 31.259-8.8251 121.74-53.042 123.67-4.4071-17.525 10.963 12.981 10.81 11.418 10.627-86.204-10.089-68-1.2242-35.06-14.285 46.416-17.35 103.69-37.641 109.26 20.051 5.3399-0.63961 21.373-1.3986 16.02-1.9188-20.513-1.9936-41.299-0.25429-61.778-2.5282-11.402-1.2661 22.792-3.3695 34.263-3.244 89.246 0.97668 63.506-2.3166 106.47 4.1553 6.0897-0.2204 24.357-0.40157 18.269-0.66122-21.671-0.92418-43.39-0.36185-65.059-1.3342-5.3229-0.23885 10.633-0.87689 15.961-0.86896 30.731 0.0458 61.491 2.4726 92.189 1.0302 26.628-1.2511-54.159 1.3836-79.736-6.1264-33.392-11.064-173.96-29.539 3.3166-17.738 21.062 1.402 60.617 30.781 79.79 42.311 52.904 39.522-172.69 14.65-71.544-13.495 41.223 0.61927 82.463 0.49199 123.67 1.8578 61.581 2.0412-34.111 32.001-89.453 13.946-7.6108-5.2305-108.74-22.281-106.82-31.919 1.2739-6.4002 10.856-7.244 16.285-10.866 54.067 0.54388 119.11 1.0438 169.61 27.67-3.9611 15.207-1.0822 8.1402-8.4044 21.293l-67.916-4.882c8.0734-4.175 7.4036-1.9001-1.9486-6.8423-30.389-7.9302-151.98-32.979-24.822-27.374 1.5109-20.361 85.341 11.192 101.73 23.16 32.303 11.09-3.7058-2.6316-46.943 4.7866-3.387 0.58108 4.6945 5.0198 7.0418 7.5297-7.4165 0.26162-14.833 0.52327-22.249 0.78486-9.0502-0.25216-36.068-1.1048-27.075-2.1592 22.794-2.6728 45.864-1.822 68.795-2.733-10.309-0.86567-20.731-0.84911-30.928-2.597-1.4038-0.24065-3.98-4.0468-2.8411-3.1915 46.315 34.782-88.894 34.515-101.59 16.424-128.53-94.743 55.231-104.49 108.43-41.63 13.137 46.473 1.1745-14.97-74.057 23.558-18.935 9.6972 42.542-0.87527 63.816-0.86935 4.4194 0.001-8.8111 0.76165-13.229 0.88345-96.309 2.6551-65.674 4.343-111.41 1.1732-35.167-4.5243-19.603-1.8422 51.012-2.8753 10.408-0.15227-20.667 2.7481-31.069 3.1291-95.683 3.5051-68.066 15.042-105.81-2.9912-36.42-46.149 109.43-34.717 36.6-21.408-35.606 12.84-130.11 48.601-122.73 2.4749 91.209-4.1002 68.828-8.5189 18.509 14.206-50.723 2.5728-99.418 11.541-143.01-15.835l65.894-8.2791z" transform="matrix(1.1031,0,0,1.4132,-416.92,249.41)"/>
    </g>
    <g transform="translate(1914,-447.21)">
     <path opacity=".5" d="m119.78 821.65c-27.528 11.143-42.421 67.518-75.762 42.63-41.864 3.9402-90.157-1.2096-126.41 28.593-26.832 15.327 35.811 1.4282 1.4238 15.622-27.093 11.29-64.723 26.445-81.96-9.1996-25.035-8.7314-90.09 21.983-62.085 55.56 15.257 10.842-35.077 14.806-44.828 20.838-20.829 1.6938-52.128 14.613-45.347 22.09 26.72 9.906 61.601 32.125 90.068 51.291 36.955 25.334 77.624-1.343 116.46 9.6814 28.154 1.6225 52.325 25.774 79.66 27.042 28.483 4.751 80.829 35.2 94.93 32.38-43.89 11.957 25.616 22.08 39.387 22.064 15.883 0.7777 18.251-2.0449 7.2108 11.278 29.158 8.3111 60.472 4.2946 90.379 2.8171 38.781-9.9583 80.441-10.056 116.9-30.086 13.739-44.379 74.937-42.99 110.76-60.754 41.909-10.776 83.056-42.157 126.29-19.754 7.5291-9.9526 55.621 8.9864 81.886-7.722-34.082-15.975-72.323-16.98-99.872-50.115-37.734 5.3262-44.561-46.699-79.542-43.25-30.694-23.09-63.501 9.1034-91.448-2.543 5.9071-19.115 44.151-8.9538 35.651-8.7659 19.226 5.2647 62.566-6.4824 18.842-11.104-20.15-3.1116-76.271 8.9282-40.604-12.966-39.257 0.5198-73.102-36.339-112.63-37.647 17.277-60.442-61.314-32.883-87.281-29.489-46.977 0.3573 36.454 21.507-0.0891 30.025-35.439 11.92-38.321-33.133-61.988-48.518zm280.8 109.31-0.9294 0.0637 0.9294-0.0637zm-0.9361 0.0605c-5.7867-4.3178-8.6324 5.0993 0 0zm-4.0251-0.78661c-3.5473-0.81543-2.2312-0.51289 0 0zm-325.21 187.87c5.1546-2.0772-7.6179-0.2259 0 0zm119.05-269.64c-12.887 1.2896-21.695-0.0617 0 0zm48.956 6.0206c-12.722 9.6879-17.619-5.2258 0 0zm-122.72 10.377c1.3681 1.5657-2.1181 0.27786 0 0zm27.427 6.7467c-2.7728 4.1376-14.057-1.3225 0 0zm-107.95 3.691c-14.212 4.9974-12.791-1.2243 0 0zm195.03 0.7866c16.526-2.5711 61.206 21.001 43.164 21.737 6.7768-28.614-74.816-11.754-43.164-21.737zm-102.5 0.30255c-2.8724 6.4045-12.344-6.5795 0 0zm59.042 18.546c22.797 2.1509-15.866 5.2414 0 0zm-3.9549 18.758c54.951 9.2094-29.757 5.4562 0 0zm191.36 7.1097c16.325-0.0609 29.81 1.3025 5.0262 0.24444l-5.0262-0.24444zm-197.91 1.785c10.341 0.13097 2.2632 0.0287 0 0zm155.67 5.1735c14.41 4.623-25.516 2.2145 0 0zm79.8 18.243c13.461-1.8214 68.264 22.581 28.399 14.732-10.041-1.6783-21.845-3.1556-28.399-14.732zm-661.45 61.597c-0.25997 4.2518-6.7171-5.2363 0 0zm-2.8316 1.7245c4.5596-1.5962 12.065 7.4481 0 0zm797.9 14.34c11.286 6.2186 59.881 5.9439 25.447 6.0125 14.856-2.7593 36.288 8.2256 8.9669 5.1532-10.863-4.5851-28.031 5.0768-34.414-11.166zm-696.5 10.77c-0.0176 2.1231-2.9409-2.542 0 0zm4.2591 9.6511c-3.4374 0.9944-1.7649 0.5106 0 0zm-42.38 1.6337c14.917 2.9825 74.871-1.7761 29.902 5.246-10.031 1.5585-20.951 1.7435-29.902-5.246zm77.413 0.6353c5.156-2.5544 2.8152 10.287 0 0zm573.41 4.5381-0.6318 0.3329 0.6318-0.3329zm-397.69 39.149c15.057-2.838 61.967 16.291 20.373 14.041-10.964 8.158-47.857 8.3918-20.373-14.041z" fill-opacity=".73333" transform="matrix(.4096 0 0 .4096 -2494.5 700.31)" filter="url(#a)" fill="#ddd"/>
    </g>
   </g>
  </g>
 </g>
</svg>
