<svg xmlns:rdf="http://www.w3.org/1999/02/22-rdf-syntax-ns#" xmlns="http://www.w3.org/2000/svg" height="1200" width="600" version="1.1" xmlns:cc="http://creativecommons.org/ns#" xmlns:dc="http://purl.org/dc/elements/1.1/" viewBox="0 0 599.99769 1199.9898">
 <defs>
  <linearGradient id="a" x1="132.02" gradientUnits="userSpaceOnUse" y1="144.28" gradientTransform="matrix(1 0 0 .99610 -.00014386 1.5969)" x2="447.44" y2="1027.1">
   <stop stop-color="#eee" offset="0"/>
   <stop stop-color="#fff" offset="1"/>
  </linearGradient>
 </defs>
 <rect transform="matrix(.74176 .67067 -.63988 .76847 0 0)" height="81.34" width="71.782" y="-362.4" x="424.14" fill="#f9f9f9"/>
 <path d="m-0.09 2.8872c-7.6564 178.82-5.3478 1186.6 0.17984 1193.7 2.2818 2.916 597.63 5.2202 600.3 2.6841 2.2486-2.1337 16.366-893.97 6.0031-1131.7-1.5756-36.145-68.464-4.9662-71.3-7.5705-6.2-5.722 35.83-56.024 1.1504-56.854-174.61-0.4762-318.27-0.4699-536.33-0.2128z" fill-rule="evenodd" stroke="#000" stroke-width=".14971" fill="url(#a)"/>
 <path d="m546.36 5.947c22.56 19.789 35.01 31.941 54.64 48.984" stroke="#000" stroke-width=".10185" fill="none"/>
</svg>
