<svg xmlns:rdf="http://www.w3.org/1999/02/22-rdf-syntax-ns#" xmlns="http://www.w3.org/2000/svg" height="580" width="680" version="1.1" xmlns:cc="http://creativecommons.org/ns#" xmlns:dc="http://purl.org/dc/elements/1.1/" viewBox="0 0 680.00001 580.00001">
 <defs>
  <filter id="a" y="-.2175" width="1.1031" height="1.435" x="-.05154">
   <feGaussianBlur stdDeviation="21.170797"/>
  </filter>
  <filter id="b" y="-.2175" width="1.1031" height="1.435" x="-.05154">
   <feGaussianBlur stdDeviation="21.170797"/>
  </filter>
  <filter id="c" y="-.32272" width="1.1183" height="1.6454" x="-.059167">
   <feGaussianBlur stdDeviation="15.099668"/>
  </filter>
  <filter id="d" y="-.17703" width="1.0659" height="1.3541" x="-.032948">
   <feGaussianBlur stdDeviation="8.282884"/>
  </filter>
  <filter id="e" y="-.23053" width="1.0936" height="1.4611" x="-.046781">
   <feGaussianBlur stdDeviation="11.938631"/>
  </filter>
 </defs>
 <path d="m0.50869 0.50167c47.687 0.09906 69.639-0.00029 69.639-0.00029s2.1658 50.444 5.2823 75.469c1.7957 14.419 3.2585 29.069 7.7147 42.904 1.888 5.8614 3.9144 12.024 7.9592 16.68 1.1204 1.2895 3.2352 1.4823 4.2747 2.8373 7.2935 9.5073 11.399 22.085 11.399 34.048 0 5.9816-2.2588 12.12-5.6996 17.024-4.0512 5.7734-12.932 7.1438-16.595 13.169-6.9434 11.42-5.2081 26.192-7.6283 39.322-2.0014 10.858-4.7461 21.63-5.6996 32.629-0.57179 6.5959-4.1608 14.697 0 19.861 2.74 3.4008 8.4535 2.5678 12.824 2.8373 10 0.61668 20.17-0.5528 29.923-2.8373 6.4397-1.5084 12.019-5.8909 18.524-7.0933 1.8679-0.34532 4.1135-1.0413 5.6996 0 3.0198 1.9826 3.9001 6.3486 4.2747 9.9306 0.50162 4.7966-0.49983 9.9697-2.8498 14.187-5.3795 9.6534-17.203 14.153-24.223 22.699-10.264 12.494-18.421 26.693-25.648 41.141-9.9883 19.967-18.756 40.79-24.223 62.421-4.6724 18.486-6.73 37.688-7.1245 56.747-0.2357 11.386 3.0522 22.661 2.8498 34.048-0.24474 13.77 3.8091 36.289-2.8835 45.113-12.357 8.0779-41.588 5.0681-58.298 5.8416-0.64008-20.35 0.47934-452.34 0.50869-578.98z" fill-rule="evenodd" stroke="#000" stroke-width=".99782px"/>
 <g transform="matrix(.16106 0 0 .16106 38.128 49.745)">
  <title>Layer 1</title>
  <path opacity="0.37" d="m168.24 288.1c-16.139 4.0227-32.279 7.4909-48.418 10.46 25.842 9.2103 48.949 26.23 76.649 26.361 21.034 2.7393 39.877-8.0498 51.691 9.7313 18.381 8.8235 37.235 25.564 60.489 14.903 731.53-68.421 47.677 48.038 71.13-78.375-17.157-2.9235-52.645-16.583-68.162 13.168-18.586 16.605 22.05 39.243-1.1892 37.749-15.854-7.3619-34.24-12.213-52.49-8.9269-17.531-1.6462 2.5079 3.7285 2.6444-9.3581-25.135 1.971-49.8-2.1434-73.288-12.642-6.183-1.7537-12.562-2.9253-19.055-3.0705zm89.465 23.572c7.4286 2.5759 13.605-4.0886 0 0z" transform="matrix(1.0221 0 0 .99553 983.58 -103.92)" filter="url(#a)" stroke-width="5" fill="#bfbfbf"/>
  <g transform="translate(-357.71 378.75)">
   <g transform="translate(-610.21 -174.65)">
    <g transform="matrix(-6.2088 0 0 -6.2088 4062.3 4434.4)">
     <title>Layer 1</title>
     <path opacity=".37" d="m613.14 349.4c15.746 8.1847 42.446 9.0351 52.213 18.478-0.55286 31.317 35.298 28.042 53.186 22.084 12.893-4.283 32.081-13.952 27.639-33.65 24.031 6.6106 37.17-24.008 59.53-26.46 15.183-17.272 35.473-18.654 54.318-27.783 20.058-18.488-23.708-19.039-34.322-18.553-19.606 4.3636-38.237-3.4475-57.91-1.4826-10.447 0.55768-22.61 5.0101-6.9852-4.7098-3.3691-23.31-41.964-14.046-59.395-14.701-22.994-2.7056-46.427 22.315-67.101 8.0541-43.358 18.624-33.974 27.768-21.173 78.722zm75.447-71.115c-4.9841 3.268-17.707 1.8903 0 0zm-97.632 11.017c23.598 3.4644-5.251 3.2444 0 0zm171.67 1.2394c-6.7846 3.8215-20.257 10.125-5.6063 2.1548l2.597-1.0433zm-164.37 5.6187c7.4295-1.3074 23.714 2.3554 6.1968 2.4357l-4.1141-0.14966zm152.02 3.9386c1.5566-0.42665 0.27582 0.53145 0 0zm-36.787 12.036c-4.149 12.822-28.389 1.3296-8.4665 1.1403l3.8554-0.55192z" transform="matrix(-1.0368 0 0 -.43241 1149.3 429.88)" filter="url(#b)" stroke-width="5" fill="#d5d5d5"/>
    </g>
   </g>
  </g>
 </g>
 <g transform="translate(-303.83 157.22)">
  <title>Layer 1</title>
  <g opacity=".75" transform="matrix(.74885 0 0 .93973 18.253 14.133)" filter="url(#e)" stroke-width="5" fill="#fff">
   <path opacity=".41111" d="m628.7 227.85c52.038-0.9862-33.197-1.4199-46.79-1.9954 261.44-67.325 54.2 13.611 28.414-5.9652-133.52 5.8262 161.19 36.74 56.399 11.803 52.904 39.522-145.99 27.419-44.837-0.72557 41.223 0.61927 77.633 18.119 96.961-10.912 82.443-123.83-34.111 32.001-89.453 13.946-323.67 80.239 263.67-133.51 79.073-15.115-38.764 21.077-68.561 14.609-78.269 9.5683-50.687 6.4256 49.147 0.43435 76.911-4.2138 32.303 11.09-3.7058-2.6316-46.943 4.7866-54.566-3.0562 63.043 11.956-4.416 0.82539-57.422 16.995-63.773 0.9234-6.2355-5.7093-61.353-0.64183-86.019 15.543-97.93 14.826-35.167-4.5243-19.603-1.8422 51.012-2.8753 10.408-0.15227-20.667 2.7481-31.069 3.1291-367.11-13.745 48.598-12.667 57.172-11.374z" filter="url(#d)"/>
   <path filter="url(#c)" d="m642.01 86.731c-73.12-89.148-151.79-76.305 3.37 18.449-100.14-43.634-173.91 13.98-71.54-13.498 41.22 0.62 575.96-109.14 603.16-117.85 57.2-18.337-513.61 151.71-568.95 133.66-223.82-45.267 313.71-87.974 223.79-37.507 19.92 6.25-164.06 8.14-171.38 21.292l-49.65 17.507c8.0734-4.175 7.4036-1.9001-1.9486-6.8423-184.89-37.219-8.0803-61.362 76.911-4.2138 32.303 11.09-3.7058-2.6316-46.943 4.7866-39.223-56.236 25.862-1.0873-15.208 8.3146-9.0502-0.25216-48.573-23.496-39.581-24.551 22.794-2.6728 58.369 20.569 81.301 19.658-10.309-0.86567-20.731-0.84911-30.928-2.597-87.866-30.439 128.06-88.88-70.052-4.84-18.935 9.6972 42.542-0.87527 63.816-0.86935 4.4194 0.001-8.8111 0.76165-13.229 0.88345-77.765 3.7632-50.019 26.645-60.397-1.7021 58.245 37.984 19.291-5.1282 87.464-10.08z"/>
  </g>
 </g>
</svg>
