<svg xmlns:rdf="http://www.w3.org/1999/02/22-rdf-syntax-ns#" xmlns="http://www.w3.org/2000/svg" height="580" width="600" version="1.1" xmlns:cc="http://creativecommons.org/ns#" xmlns:xlink="http://www.w3.org/1999/xlink" viewBox="0 0 600.00001 580.00001" xmlns:dc="http://purl.org/dc/elements/1.1/">
 <defs>
  <filter id="ar" y="-.32272" width="1.1183" x="-.059167" height="1.6454">
   <feGaussianBlur stdDeviation="15.099668"/>
  </filter>
  <filter id="aq" y="-.23053" width="1.0936" x="-.046781" height="1.4611">
   <feGaussianBlur stdDeviation="11.938631"/>
  </filter>
  <linearGradient id="an" y2="2404.7" gradientUnits="userSpaceOnUse" x2="2353.4" gradientTransform="matrix(.24829 0 0 .21379 .57693 20.614)" y1="950.66" x1="308.85">
   <stop offset="0"/>
   <stop stop-color="#134163" offset=".5862"/>
   <stop stop-opacity=".91373" stop-color="#522643" offset=".90885"/>
   <stop stop-color="#633313" offset="1"/>
  </linearGradient>
  <linearGradient id="af" y2="31000" gradientUnits="userSpaceOnUse" y1="2700" gradientTransform="matrix(.01443 .0060158 -.0052776 .012659 223.76 103.19)" x2="18000" x1="-1800">
   <stop stop-color="#051729" offset="0"/>
   <stop stop-opacity=".80392" stop-color="#041329" offset=".4"/>
   <stop stop-opacity="0" stop-color="#01072a" offset="1"/>
  </linearGradient>
  <clipPath id="ae">
   <rect stroke-linejoin="round" ry="13" height="34" width="64" stroke="#000" y="1100" x="420" stroke-width=".5"/>
  </clipPath>
  <linearGradient id="ag" x1="290.7" gradientUnits="userSpaceOnUse" x2="290.97" gradientTransform="matrix(.99997 0 0 1.0207 .00051746 -626.9)" y1="1504.5" y2="1281.9">
   <stop stop-color="#052832" offset="0"/>
   <stop stop-color="#002e3c" offset=".56869"/>
   <stop stop-color="#143748" offset=".82721"/>
   <stop stop-color="#1a3d4e" offset=".90541"/>
   <stop stop-color="#121c2a" offset="1"/>
  </linearGradient>
  <linearGradient id="aj" x1="38.7" gradientUnits="userSpaceOnUse" x2="534.85" gradientTransform="matrix(1.007 0 0 1.612 -2.1126 -491.93)" y1="792.92" y2="651.67">
   <stop stop-opacity=".78974" stop-color="#010f16" offset="0"/>
   <stop stop-color="#092133" stop-opacity=".45882" offset=".31352"/>
   <stop stop-opacity=".47179" stop-color="#134163" offset=".48454"/>
   <stop stop-opacity=".33333" stop-color="#663c64" offset=".69164"/>
   <stop stop-opacity=".41026" stop-color="#782d42" offset="1"/>
  </linearGradient>
  <filter id="ab" y="-.15618" x="-.042378" width="1.0848" height="1.3124">
   <feGaussianBlur stdDeviation="27.018125"/>
  </filter>
  <filter id="ao" y="-.2175" x="-.051540" width="1.1031" height="1.435">
   <feGaussianBlur stdDeviation="21.170797"/>
  </filter>
  <filter id="f" y="-.32272" x="-.059167" width="1.1183" height="1.6454">
   <feGaussianBlur stdDeviation="15.099668"/>
  </filter>
  <filter id="d" y="-.17703" x="-.032948" width="1.0659" height="1.3541">
   <feGaussianBlur stdDeviation="8.282884"/>
  </filter>
  <filter id="c" y="-.23053" x="-.046781" width="1.0936" height="1.4611">
   <feGaussianBlur stdDeviation="11.938631"/>
  </filter>
  <clipPath id="ap" clipPathUnits="userSpaceOnUse">
   <circle r="111.25" stroke-opacity=".69804" fill-opacity=".98974" stroke="#31389b" cy="934.59" cx="1428.6" stroke-width="1.0195" fill="#a25c18"/>
  </clipPath>
  <radialGradient id="ad" gradientUnits="userSpaceOnUse" cy="520.33" cx="628.79" gradientTransform="matrix(3.109 -.0015665 .0011545 2.2913 -1361.2 -495.53)" r="28.55">
   <stop stop-color="#1a0500" offset="0"/>
   <stop stop-opacity=".082051" stop-color="#d60000" offset="1"/>
  </radialGradient>
 </defs>
 <g transform="matrix(.99999 0 0 .99999 9.1025 -84.134)">
  <g transform="translate(131.83 267.62)">
   <g transform="translate(-140.93,-467.65)">
    <rect height="666.64" width="600" stroke-miterlimit="0" y="20.624" x="0" stroke-width="0" fill="url(#an)"/>
    <text style="word-spacing:0px;letter-spacing:0px" xml:space="preserve" font-size="40px" line-height="125%" y="1035.0393" x="1376.9393" font-family="Sans"><tspan y="1035.0393" x="1376.9393"/></text>
    <text style="word-spacing:0px;letter-spacing:0px" xml:space="preserve" font-size="13px" line-height="125%" y="1337.6892" x="1273.4375" font-family="&apos;Arial Hebrew&apos;"><tspan y="1337.6892" x="1273.4375"/></text>
    <text style="word-spacing:0px;letter-spacing:0px" xml:space="preserve" font-size="6px" line-height="125%" y="1347.9229" x="1272.1416" font-family="Krungthep"><tspan y="1347.9229" x="1272.1416"/></text>
    <g transform="translate(-1.1983 -23.496)">
     <g stroke-miterlimit="0" stroke="#fff" fill="#fff">
      <path stroke-width=".064" d="m38 320a0.36 0.41 0 0 1 -0.72 0 0.36 0.41 0 1 1 0.72 0z"/>
      <path stroke-width=".15726" d="m140 400a0.9 0.9 0 0 1 -1.8 0 0.9 0.9 0 1 1 1.8 0z"/>
      <path stroke-width=".078584" d="m120 130z"/>
      <path id="ah" d="m130 320a0.365 0.52722 0 0 1 -0.73 0 0.365 0.52722 0 1 1 0.73 0z" stroke="#fff" stroke-miterlimit="0" stroke-width=".076056" fill="#fff"/>
      <path stroke-width=".23589" d="m94 330a1.4 1.4 0 0 1 -2.6 0 1.4 1.4 0 1 1 2.6 0z"/>
      <path stroke-width=".11795" d="m150 340a0.66287 0.67292 56 1 1 -0.74 -1.1 0.66287 0.67292 56 0 1 0.74 1.1z"/>
      <path stroke-width=".076056" d="m200 330z"/>
      <path stroke-width=".15726" d="m400 70a0.92195 0.92195 0 0 1 1.2 1.4 0.89 0.89 0 0 1 0 -0.9z"/>
      <path stroke-width=".076056" d="m190 390z"/>
      <path stroke-width=".07863" d="m190 330a0.44 0.44 0 1 1 -0.002 0.88z"/>
      <path stroke-width=".076056" d="m100 370a0.38146 0.522 51 0 1 -0.9 0 0.38146 0.522 51 1 1 0.9 0z"/>
      <path stroke-width=".038994" d="m38 360a0.22 0.22 0 1 1 0.36 0 0.22 0.22 0 0 1 -0.36 0z"/>
      <path stroke-width=".038994" d="m470 340z"/>
      <path stroke-width=".11795" d="m460 76a0.67 0.66 45 1 1 0.9 -0.9 0.67 0.66 45 0 1 -0.9 0.9z"/>
      <path stroke-width=".038994" d="m100 330z"/>
      <path stroke-width=".078479" d="m260 230a0.4423 0.4423 0 0 1 0.88 0.09z"/>
      <path stroke-width=".076056" d="m160 150a0.37 0.5 5.3 0 1 0.73 0.075z"/>
      <path stroke-width=".076056" d="m82 290a0.37 0.5 5.3 1 1 0.73 0.075 0.45 0.61 5.3 0 1 -0.9 0z"/>
      <g stroke-width=".038994">
       <path d="m330 390a0.22277 0.22277 0 1 1 0.31 -0.32z"/>
       <path d="m290 360z"/>
       <path d="m220 330z"/>
      </g>
      <path stroke-width=".076056" d="m190 350a0.5 0.37 62 1 1 0.64 -0.35z"/>
      <g stroke-width=".038994">
       <path d="m160 370a0.22 0.22 0 0 1 0.081 -0.43z"/>
       <path d="m180 410a0.22 0.22 0 0 1 0.081 -0.43z"/>
       <path d="m400 350a0.22 0.22 0 1 1 -0.42 0.13z"/>
      </g>
      <path stroke-width=".038994" d="m110 380z"/>
      <path stroke-width=".19658" d="m170 270a1.1376 1.1376 0 1 1 0.58 -2.2 1.1376 1.1376 0 0 1 -0.58 2.2z"/>
      <path stroke-width=".038994" d="m130 330a0.22 0.22 0 0 1 0.14 -0.41z"/>
      <path stroke-width=".07863" d="m380 120a0.44 0.44 0 0 1 -0.88 0 0.44 0.44 0 1 1 0.88 0z"/>
      <path stroke-width=".078479" d="m48 220a0.45 0.45 0 0 1 -0.9 0 0.45 0.45 0 1 1 0.9 0z"/>
      <path stroke-width=".076056" d="m120 250a0.38146 0.522 51 0 1 -0.9 0 0.38146 0.522 51 1 1 0.9 0z"/>
      <g stroke-width=".038994">
       <path d="m97 260a0.22 0.22 0 0 1 -0.44 0 0.22 0.22 0 1 1 0.44 0z"/>
       <path d="m46 250a0.22 0.22 0 0 1 -0.44 0 0.22 0.22 0 1 1 0.44 0z"/>
       <path d="m250 260a0.22 0.22 0 0 1 -0.0009 0.44z"/>
      </g>
      <path stroke-width=".076056" d="m160 240z"/>
      <path stroke-width=".038994" d="m260 300a0.22 0.22 0 0 1 -0.44 0 0.22 0.22 0 1 1 0.44 0z"/>
      <path id="ai" d="m66 270a0.38146 0.522 51 0 1 -0.9 0 0.38146 0.522 51 1 1 0.9 0z" stroke="#fff" stroke-miterlimit="0" stroke-width=".076056" fill="#fff"/>
      <path stroke-width=".076056" d="m210 270a0.5 0.37 52 1 1 -0.57 0.46z"/>
      <path stroke-width=".038994" d="m160 260a0.22389 0.22389 0 1 1 0.39 0.22z"/>
      <path stroke-width=".078479" d="m170 300a0.443 0.443 0 1 1 0.31 0.83z"/>
      <path stroke-width=".07863" d="m330 180a0.44511 0.44511 0 0 1 0.86 -0.23z"/>
      <path stroke-width=".038994" d="m62 370z"/>
      <path stroke-width=".038994" d="m230 280a0.22 0.22 0 0 1 0.099 -0.42z"/>
      <path stroke-width=".078479" d="m36 250a0.44 0.44 0 1 1 -0.54 0 0.44 0.44 0 0 1 0.54 0z"/>
      <path stroke-width=".038994" d="m310 260z"/>
      <path stroke-width=".038994" d="m160 98z"/>
      <path stroke-width=".07863" d="m150 260a0.44511 0.44511 0 0 1 0.86 -0.23z"/>
      <path stroke-width=".078479" d="m130 56a0.45 0.45 0 1 1 0 -0.9 0.45 0.45 0 0 1 0 0.9z"/>
      <g stroke-width=".038994">
       <path d="m200 190z"/>
       <path d="m170 130z"/>
       <path d="m300 250a0.22 0.22 0 0 1 -0.44 0 0.22 0.22 0 1 1 0.44 0z"/>
       <path id="ak" d="m190 170a0.22006 0.22006 0 0 1 -0.01 0.44z" stroke="#fff" stroke-miterlimit="0" stroke-width=".038994" fill="#fff"/>
      </g>
      <path stroke-width=".078479" d="m230 170a0.44116 0.44116 0 0 1 -0.51 -0.72 0.44116 0.44116 0 1 1 0.51 0.72z"/>
      <path stroke-width=".07863" d="m180 160a0.44 0.44 0 0 1 0.59 0.65z"/>
     </g>
     <text font-size="40px" xml:space="preserve" style="word-spacing:0px;letter-spacing:0px" line-height="125%" y="915.52228" x="440.44522" font-family="Sans"><tspan y="915.52228" x="440.44522"/></text>
     <text font-size="13px" xml:space="preserve" style="word-spacing:0px;letter-spacing:0px" line-height="125%" y="1218.1722" x="336.94339" font-family="&apos;Arial Hebrew&apos;"><tspan y="1218.1722" x="336.94339"/></text>
     <text font-size="6px" xml:space="preserve" style="word-spacing:0px;letter-spacing:0px" line-height="125%" y="1228.4059" x="335.64749" font-family="Krungthep"><tspan y="1228.4059" x="335.64749"/></text>
     <g stroke-miterlimit="0" stroke="#fff">
      <g fill="#fff">
       <g stroke-width=".038994">
        <path d="m100 230a0.22 0.22 0 0 1 -0.44 0 0.22 0.22 0 1 1 0.44 0z"/>
        <path d="m67 230a0.22 0.22 0 0 1 -0.44 0 0.22 0.22 0 1 1 0.44 0z"/>
        <path d="m56 240a0.22 0.22 0 0 1 -0.44 0 0.22 0.22 0 1 1 0.44 0z"/>
        <path d="m160 260a0.22389 0.22389 0 1 1 0.39 0.22z"/>
        <path d="m69 240a0.22 0.22 0 0 1 -0.44 0 0.22 0.22 0 1 1 0.44 0z"/>
        <path d="m51 170z"/>
        <path d="m97 200z"/>
        <path d="m110 190z"/>
        <path d="m95 230z"/>
        <path d="m180 240a0.22 0.22 0 1 1 0.08 -0.43z"/>
        <path id="y" d="m220 190a0.22 0.22 0 1 1 0.43 0.082z" stroke="#fff" stroke-miterlimit="0" stroke-width=".038994" fill="#fff"/>
        <path d="m160 110a0.22 0.22 0 1 1 0.43 0.082z"/>
        <path id="h" d="m210 210a0.22023 0.22023 0 1 1 0.28 -0.34z" stroke="#fff" stroke-miterlimit="0" stroke-width=".038994" fill="#fff"/>
        <path d="m220 180a0.22 0.22 0 1 1 0.083 -0.43z"/>
        <path id="i" d="m170 190a0.22 0.22 0 1 1 0.083 -0.43z" stroke="#fff" stroke-miterlimit="0" stroke-width=".038994" fill="#fff"/>
        <path id="a" d="m190 130a0.22 0.22 0 1 1 0.083 -0.43z" stroke="#fff" stroke-miterlimit="0" stroke-width=".038994" fill="#fff"/>
        <path d="m150 47z"/>
        <path d="m120 330z"/>
        <path d="m91 280z"/>
       </g>
       <path stroke-width=".076056" d="m90 310z"/>
       <path stroke-width=".078479" d="m83 270z"/>
       <g stroke-width=".038994">
        <path d="m120 280z"/>
        <path d="m430 270z"/>
        <path d="m120 310z"/>
        <path d="m170 280a0.22 0.22 0 0 1 0.36 -0.24 0.22 0.22 0 0 1 -0.36 0.24z"/>
        <path d="m170 300a0.22 0.22 0 0 1 0.36 -0.24 0.22 0.22 0 1 1 -0.36 0.24z"/>
       </g>
       <path stroke-width=".11795" d="m110 240a0.7 0.7 0 0 1 -1.4 0 0.7 0.7 0 1 1 1.4 0z"/>
       <path stroke-width=".076056" d="m81 220a0.38146 0.522 51 0 1 -0.9 0 0.38146 0.522 51 1 1 0.9 0z"/>
       <path stroke-width=".078479" d="m31 210a0.44 0.44 0 1 1 -0.51 0 0.44 0.44 0 0 1 0.51 0z"/>
       <path stroke-width=".11795" d="m70 200a0.7 0.7 0 0 1 -1.4 0 0.7 0.7 0 1 1 1.4 0z"/>
      </g>
      <path stroke-width=".19824" fill="#d45500" d="m110 72a1.1 1.1 0 0 1 -2.2 0 1.1 1.1 0 1 1 2.2 0z"/>
      <g fill="#fff">
       <path stroke-width=".07863" d="m65 150z"/>
       <path stroke-width=".047178" d="m41 38a0.45 0.46 0 0 1 -0.9 0 0.45 0.46 0 1 1 0.9 0z"/>
       <path id="al" d="m69 120a0.49 0.49 0 1 1 0 -0.9 0.49 0.49 0 0 1 0 0.9z" stroke="#fff" stroke-miterlimit="0" stroke-width=".086493" fill="#fff"/>
       <path stroke-width=".086493" d="m60 100a0.49 0.49 0 1 1 0 -0.9 0.49 0.49 0 0 1 0 0.9z"/>
      </g>
      <path stroke-width=".11512" fill="#00f" d="m49 60a0.66 0.66 0 0 1 0 -0.9 0.66 0.66 0 1 1 0 0.9z"/>
      <g fill="#fff">
       <path stroke-width=".047178" d="m73 48a0.45 0.46 0 0 1 -0.9 0 0.45 0.46 0 1 1 0.9 0z"/>
       <path stroke-width=".095142" d="m90 61a0.54 0.53 45 0 1 0 -0.9 0.54 0.53 45 1 1 0 0.9z"/>
       <path stroke-width=".07863" d="m75 130z"/>
       <path stroke-width=".047178" d="m74 49a0.45 0.46 0 0 1 -0.9 0 0.45 0.46 0 1 1 0.9 0z"/>
       <path stroke-width=".047178" d="m73 50a0.45 0.46 0 0 1 -0.9 0 0.45 0.46 0 1 1 0.9 0z"/>
      </g>
      <path stroke-width=".15653" fill="#e3dbdb" d="m500.14 249.82a0.91216 0.91216 0 1 1 1.12 -1.44 0.91216 0.91216 0 0 1 -1.12 1.44z"/>
      <path stroke-width=".1127" fill="#fff" d="m539.88 149.9a0.632 0.632 0 0 1 -1.12 -0.464 0.632 0.632 0 1 1 1.12 0.464z"/>
      <path stroke-width=".18939" fill="#fff" d="m560.1 169.74a1.12 1.12 0 1 1 1.28 -1.76 1.12 1.12 0 0 1 -1.28 1.76z"/>
      <path id="ac" d="m520.14 239.82a0.91216 0.91216 0 1 1 1.12 -1.44 0.91216 0.91216 0 0 1 -1.12 1.44z" stroke="#fff" stroke-miterlimit="0" stroke-width=".15653" fill="#f60"/>
      <path stroke-width=".1127" fill="#fff" d="m549.88 149.9a0.632 0.632 0 0 1 -1.12 -0.464 0.632 0.632 0 1 1 1.12 0.464z"/>
      <path stroke-width=".1127" fill="#ff0" d="m539.88 149.9a0.632 0.632 0 0 1 -1.12 -0.464 0.632 0.632 0 1 1 1.12 0.464z"/>
      <g fill="#fff">
       <g stroke-width=".038994">
        <path d="m440 95a0.22 0.22 0 0 1 -0.44 0 0.22 0.22 0 1 1 0.44 0z"/>
        <path d="m460 70a0.22 0.22 0 0 1 -0.44 0 0.22 0.22 0 1 1 0.44 0z"/>
        <path d="m100 100z"/>
        <path d="m110 110z"/>
        <path d="m130 110z"/>
        <path d="m35 97a0.225 0.225 0 0 1 -0.45 0 0.225 0.225 0 1 1 0.45 0z"/>
        <path d="m400 52a0.22 0.22 0 0 1 -0.44 0 0.22 0.22 0 1 1 0.44 0z"/>
        <path d="m390 62a0.22 0.22 0 0 1 -0.44 0 0.22 0.22 0 1 1 0.44 0z"/>
        <path d="m190 91a0.22 0.22 0 0 1 -0.44 0 0.22 0.22 0 1 1 0.44 0z"/>
        <path d="m420 71z"/>
       </g>
       <path stroke-width=".11795" d="m130 300a0.7 0.7 0 0 1 -1.4 0 0.7 0.7 0 1 1 1.4 0z"/>
       <path stroke-width=".038994" d="m440 79z"/>
       <path stroke-width=".11795" d="m140 220a0.67082 0.68098 63 0 1 -0.6 -1.2 0.67082 0.68098 63 0 1 0.6 1.2z"/>
       <path id="z" d="m150 170a0.5 0.37 24 0 1 0.3 -0.67z" stroke="#fff" stroke-miterlimit="0" stroke-width=".076056" fill="#fff"/>
       <path stroke-width=".11795" d="m160 150a0.67082 0.68098 63 0 1 -0.6 -1.2 0.67082 0.68098 63 1 1 0.6 1.2z"/>
       <path stroke-width=".076056" d="m260 180z"/>
       <path stroke-width=".23589" d="m170 76a1.4 1.4 0 1 1 0 -1.8 1.4 1.4 0 0 1 0 1.8z"/>
       <path stroke-width=".076056" d="m210 140a0.5 0.37 44 0 1 0.51 -0.52z"/>
       <path stroke-width=".038994" d="m260 150z"/>
       <path stroke-width=".038994" d="m210 47z"/>
       <path stroke-width=".064" d="m160 140z"/>
       <path id="aa" d="m210 180a0.22 0.22 0 1 1 0.4 -0.17z" stroke="#fff" stroke-miterlimit="0" stroke-width=".038994" fill="#fff"/>
      </g>
      <path stroke-width=".038994" fill="url(#af)" d="m230 110z"/>
      <g fill="#fff">
       <g stroke-width=".038994">
        <path d="m260 53z"/>
        <path d="m240 56z"/>
        <path d="m250 79z"/>
       </g>
       <g stroke-width=".038994">
        <path d="m250 140z"/>
        <path d="m240 130z"/>
        <path d="m240 150a0.22 0.22 0 1 1 0.43 -0.086z"/>
        <path d="m300 67a0.22 0.22 0 1 1 0.43 0.047z"/>
       </g>
       <path stroke-width=".064" d="m230 99a0.43086 0.49098 53 1 1 0 -0.9 0.43086 0.49098 53 0 1 0 0.9z"/>
       <path stroke-width=".11795" d="m260 53a0.67 0.68 53 1 1 0 -0.9 0.67 0.68 53 0 1 0 0.9z"/>
       <path stroke-width=".11795" d="m73 94a0.68 0.67 19 0 1 0 -0.9 0.68 0.67 19 0 1 0 0.9z"/>
       <path stroke-width=".076056" d="m270 120a0.37 0.5 59 1 1 0.38 0.63z"/>
       <path stroke-width=".19658" d="m380 31a1.1236 1.1236 0 1 1 2.1 -0.8 1.1236 1.1236 0 0 1 -2.1 0.8z"/>
       <path stroke-width=".038994" d="m240 83z"/>
       <path stroke-width=".076056" d="m330 130a0.5 0.37 14 0 1 0.18 -0.71 0.5 0.37 14 1 1 -0.18 0.71z"/>
       <path stroke-width=".038994" d="m310 110z"/>
       <path stroke-width=".038994" d="m280 68z"/>
       <path stroke-width=".076056" d="m360 140a0.5 0.37 14 0 1 0.18 -0.71 0.5 0.37 14 1 1 -0.18 0.71z"/>
       <path stroke-width=".038994" d="m350 150a0.22 0.22 0 0 1 0.06 0.43z"/>
       <path stroke-width=".078479" d="m570 230a0.44522 0.44522 0 1 1 -0.48 0.75z"/>
       <path stroke-width=".078479" d="m280 61a0.45 0.45 0 1 1 0 -0.9 0.45 0.45 0 0 1 0 0.9z"/>
       <path stroke-width=".07863" d="m340 150a0.44119 0.44119 0 1 1 0.69 0.55z"/>
       <g stroke-width=".038994">
        <path d="m350 99z"/>
        <path d="m320 70z"/>
        <path d="m300 68z"/>
        <path d="m590 190a0.22 0.22 0 1 1 0.06 0.43z"/>
        <path d="m310 82z"/>
        <path d="m360 77z"/>
        <path d="m330 170a0.22142 0.22142 0 1 1 0.4 -0.19z"/>
        <path d="m340 92z"/>
        <path d="m230 74z"/>
        <path d="m290 120z"/>
       </g>
       <path stroke-width=".076056" d="m260 140a0.5 0.37 60 0 1 0.63 -0.36 0.5 0.37 60 1 1 -0.63 0.36z"/>
       <path stroke-width=".078479" d="m290 110z"/>
       <g stroke-width=".038994">
        <path d="m310 150a0.22 0.22 0 0 1 0.068 -0.43z"/>
        <path d="m300 140a0.22 0.22 0 0 1 0.068 -0.43z"/>
        <path d="m290 150a0.22 0.22 0 1 1 0.41 0.14z"/>
        <path d="m580 210a0.22 0.22 0 0 1 0.41 0.14z"/>
        <path d="m380 260a0.22 0.22 0 1 1 0.41 0.14z"/>
       </g>
       <path stroke-width=".076056" d="m340 72a0.61504 0.44364 14 1 1 0 -0.9 0.61504 0.44364 14 0 1 0 0.9z"/>
       <path stroke-width=".078479" d="m310 29a0.44 0.44 0 0 1 0 -0.85 0.44 0.44 0 1 1 0 0.85z"/>
       <path stroke-width=".11795" d="m320 91a0.67 0.68 53 1 1 0 -0.9 0.67 0.68 53 0 1 0 0.9z"/>
       <path stroke-width=".11795" d="m350 56a0.67 0.68 53 1 1 0 -0.9 0.67 0.68 53 0 1 0 0.9z"/>
       <path stroke-width=".07863" d="m490 62a0.45 0.45 0 0 1 0 0.9 0.45 0.45 0 1 1 0 -0.9z"/>
       <path stroke-width=".15726" d="m470 72z"/>
       <path stroke-width=".19658" d="m440 41z"/>
       <path stroke-width=".11795" d="m490 36a0.68 0.68 38 1 1 0 -1.1 0.68 0.68 38 0 1 0 1.1z"/>
       <path stroke-width=".11795" d="m510 86a0.68 0.68 68 0 1 0 -0.9 0.68 0.68 68 1 1 0 0.9z"/>
       <path stroke-width=".076056" d="m530 71a0.37 0.5 18 0 1 0.69 0.23z"/>
       <path stroke-width=".11795" d="m520 140a0.67498 0.66491 12 1 1 0.28 -1.3 0.67498 0.66491 12 0 1 -0.28 1.3z"/>
       <path stroke-width=".064" d="m570 77a0.5 0.44 28 1 1 0 -0.9 0.5 0.44 28 0 1 0 0.9z"/>
       <path stroke-width=".078479" d="m140 390a0.44119 0.44119 0 0 1 0.69 -0.55z"/>
       <g stroke-width=".076056">
        <path d="m120 500a0.5 0.37 51 1 1 0.58 -0.45 0.5 0.37 51 0 1 -0.58 0.45z"/>
        <path d="m81 410a0.56 0.41 51 1 1 0.9 0 0.56 0.41 51 0 1 -0.9 0z"/>
        <path d="m85 550a0.38 0.52 52 0 1 -0.9 0 0.38 0.52 52 1 1 0.9 0z"/>
       </g>
       <path stroke-width=".078479" d="m58 510a0.45 0.45 0 0 1 -0.9 0 0.45 0.45 0 1 1 0.9 0z"/>
       <path stroke-width=".038994" d="m130 430a0.22 0.22 0 0 1 0.43 0.082z"/>
       <path stroke-width=".038994" d="m150 550a0.22023 0.22023 0 0 1 0.34 0.28z"/>
       <path stroke-width=".076056" d="m45 430a0.37 0.5 6.6 1 1 0.73 0.09 0.45 0.61 6.6 0 1 -0.9 0z"/>
       <path stroke-width=".11795" d="m110 450z"/>
       <path stroke-width=".15726" d="m170 530a0.89022 0.89022 0 0 1 -1.4 -1.1 0.89022 0.89022 0 1 1 1.4 1.1z"/>
       <path stroke-width=".076056" d="m140 420a0.5 0.37 51 1 1 0.58 -0.45 0.5 0.37 51 0 1 -0.58 0.45z"/>
       <path stroke-width=".076056" d="m180 500a0.37 0.5 24 1 1 0.67 0.31z"/>
       <path stroke-width=".064" d="m220 500a0.39 0.34 23 0 1 0.26 -0.62z"/>
       <path stroke-width=".038994" d="m170 550a0.22 0.22 0 1 1 0.17 0.4z"/>
       <path stroke-width=".076056" d="m430 69a0.37 0.5 5.3 1 1 0.73 0.075z"/>
       <path stroke-width=".076056" d="m450 110a0.41 0.56 51 1 1 0 -0.9 0.41 0.56 51 0 1 0 0.9z"/>
       <path stroke-width=".038994" d="m440 38a0.22 0.22 0 0 1 -0.44 0 0.22 0.22 0 1 1 0.44 0z"/>
       <path stroke-width=".076056" d="m400 140z"/>
       <g stroke-width=".038994">
        <path d="m480 110a0.22 0.22 0 0 1 -0.44 0 0.22 0.22 0 1 1 0.44 0z"/>
        <path d="m400 150a0.22 0.22 0 0 1 -0.44 0 0.22 0.22 0 1 1 0.44 0z"/>
        <path d="m390 160a0.22 0.22 0 0 1 -0.44 0 0.22 0.22 0 1 1 0.44 0z"/>
        <path d="m350 310a0.22 0.22 0 0 1 -0.44 0 0.22 0.22 0 1 1 0.44 0z"/>
        <path d="m430 150a0.22 0.22 0 1 1 0.08 -0.43z"/>
       </g>
       <path stroke-width=".038994" d="m420 200z"/>
       <path stroke-width=".076056" d="m440 88a0.61 0.45 6.3 1 1 0 -0.9 0.61 0.45 6.3 0 1 0 0.9z"/>
       <path stroke-width=".078479" d="m420 140a0.44142 0.44142 0 0 1 0.15 -0.87z"/>
       <path stroke-width=".038994" d="m450 200z"/>
       <path stroke-width=".038994" d="m460 57z"/>
       <path stroke-width=".11795" d="m440 130a0.7 0.7 0 0 1 -1.4 0 0.7 0.7 0 1 1 1.4 0z"/>
       <path stroke-width=".076056" d="m200 420z"/>
       <path stroke-width=".038994" d="m220 440a0.22 0.22 0 0 1 -0.36 0.25 0.22 0.22 0 1 1 0.36 -0.25z"/>
       <path stroke-width=".076056" d="m250 460z"/>
       <g stroke-width=".038994">
        <path d="m190 460a0.22 0.22 0 0 1 -0.36 0.25 0.22 0.22 0 1 1 0.36 -0.25z"/>
        <path d="m210 490a0.22 0.22 0 0 1 -0.36 0.25 0.22 0.22 0 1 1 0.36 -0.25z"/>
        <path d="m230 490a0.22 0.22 0 0 1 -0.36 0.25 0.22 0.22 0 1 1 0.36 -0.25z"/>
        <path d="m230 470a0.22 0.22 0 0 1 -0.36 0.25 0.22 0.22 0 1 1 0.36 -0.25z"/>
        <path d="m190 460a0.22 0.22 0 1 1 -0.18 -0.4 0.22 0.22 0 0 1 0.18 0.4z"/>
        <path d="m250 430z"/>
       </g>
       <path stroke-width=".076056" d="m260 420z"/>
       <path stroke-width=".078479" d="m240 440z"/>
       <path stroke-width=".038994" d="m220 410z"/>
       <path stroke-width=".038994" d="m230 420z"/>
       <path stroke-width=".11795" d="m210 460a0.68 0.67 55 0 1 -1.1 0.76 0.68 0.67 55 1 1 1.1 -0.76z"/>
      </g>
     </g>
     <circle stroke-width="1.953" stroke-opacity=".71282" stroke="#622f04" cy="695.73" cx="594.35" r="27.574" fill="url(#ad)"/>
     <rect stroke-linejoin="round" transform="matrix(.73599 0 0 .78186 104.88 275.68)" clip-path="url(#ae)" ry="13" height="26" width="45" stroke="#000" y="1200" x="430" stroke-width=".5"/>
     <g stroke-miterlimit="0" stroke="#fff">
      <path stroke-width=".19824" fill="#d45500" d="m260 110a1.1 1.1 0 0 1 -2.2 0 1.1 1.1 0 1 1 2.2 0z"/>
      <path stroke-width=".11512" fill="#00f" d="m250 61a0.66 0.66 0 0 1 0 -0.9 0.66 0.66 0 1 1 0 0.9z"/>
      <g fill="#fff">
       <path stroke-width=".038994" d="m55 100z"/>
       <path stroke-width=".038994" d="m64 130z"/>
       <path stroke-width=".064" d="m53 150z"/>
       <path stroke-width=".076056" d="m67 130z"/>
       <path stroke-width=".038994" d="m57 130z"/>
       <path stroke-width=".038994" d="m52 120z"/>
      </g>
     </g>
     <g fill="#f60" transform="matrix(.8 0 0 .8 105.17 44.034)">
      <use id="am" xlink:href="#ac" transform="translate(6.9121,-18.11)" height="580" width="600" y="0" x="0" fill="#ff6600"/>
      <use xlink:href="#am" transform="translate(-6.2209,1.2442)" height="580" width="600" y="0" x="0"/>
      <use xlink:href="#ac" transform="matrix(.66085 0 0 .71737 186.66 46.24)" height="580" width="600" y="0" x="0"/>
     </g>
     <path d="m520.19 159.74a1.2881 1.2881 0 0 1 1.52 -2.08 1.2881 1.2881 0 1 1 -1.52 2.08z" stroke="#fff" stroke-miterlimit="0" stroke-width=".22506" fill="#fff"/>
     <path d="m540.23 259.69a1.544 1.544 0 1 1 1.84 -2.48 1.544 1.544 0 0 1 -1.84 2.48z" stroke="#fff" stroke-miterlimit="0" stroke-width=".27047" fill="#e3dbdb"/>
     <use xlink:href="#ah" transform="translate(46.726,-188.56)" height="580" width="600" y="0" x="0"/>
     <use xlink:href="#ai" transform="translate(46.726,-188.56)" height="580" width="600" y="0" x="0"/>
     <use xlink:href="#al" transform="translate(88.147,-15.022)" height="580" width="600" y="0" x="0"/>
     <path d="m180 14a0.45 0.45 0 0 1 -0.9 0 0.45 0.45 0 1 1 0.9 0z" stroke="#fff" stroke-miterlimit="0" stroke-width=".078479" fill="#fff"/>
     <path d="m260 50a0.38146 0.522 51 0 1 -0.9 0 0.38146 0.522 51 1 1 0.9 0z" stroke="#fff" stroke-miterlimit="0" stroke-width=".076056" fill="#fff"/>
     <use xlink:href="#ak" transform="translate(-128.29,-71.056)" height="580" width="600" y="0" x="0"/>
     <use xlink:href="#y" transform="translate(-128.29,-71.056)" height="580" width="600" y="0" x="0"/>
     <use xlink:href="#h" transform="translate(-128.29,-71.056)" height="580" width="600" y="0" x="0"/>
     <use xlink:href="#i" transform="translate(-128.29,-71.056)" height="580" width="600" y="0" x="0"/>
     <use xlink:href="#a" transform="translate(-128.29,-71.056)" height="580" width="600" y="0" x="0"/>
     <use xlink:href="#z" transform="translate(-128.29,-71.056)" height="580" width="600" y="0" x="0"/>
     <use xlink:href="#aa" transform="translate(-128.29,-71.056)" height="580" width="600" y="0" x="0"/>
     <g stroke-miterlimit="0" stroke="#fff" fill="#fff">
      <path stroke-width=".038994" d="m130 92a0.22 0.22 0 0 1 0.43 0.059z"/>
      <path stroke-width=".038994" d="m39 170a0.22006 0.22006 0 0 1 -0.0099 0.44z"/>
      <path stroke-width=".07863" d="m30 160a0.44 0.44 0 0 1 0.59 0.65z"/>
      <path stroke-width=".038994" d="m57 210a0.22023 0.22023 0 1 1 0.28 -0.34z"/>
      <path stroke-width=".038994" d="m66 180a0.22 0.22 0 1 1 0.083 -0.43z"/>
      <path stroke-width=".076056" d="m57 140a0.5 0.37 44 0 1 0.51 -0.52z"/>
      <g stroke-width=".038994">
       <path d="m57 180a0.22 0.22 0 0 1 0.4 -0.17z"/>
       <path d="m84 150a0.22 0.22 0 1 1 0.43 -0.086z"/>
       <path d="m340 35a0.22006 0.22006 0 0 1 -0.01 0.44z"/>
      </g>
      <path stroke-width=".07863" d="m330 26a0.44 0.44 0 0 1 0.59 0.65z"/>
      <g stroke-width=".038994">
       <path d="m350 71a0.22023 0.22023 0 1 1 0.28 -0.34z"/>
       <path d="m360 44a0.22 0.22 0 1 1 0.083 -0.43z"/>
       <path d="m350 44a0.22 0.22 0 0 1 0.4 -0.17z"/>
       <path d="m380 17a0.22 0.22 0 1 1 0.43 -0.086z"/>
       <path d="m530 29a0.225 0.225 0 0 1 -0.45 0 0.225 0.225 0 1 1 0.45 0z"/>
      </g>
      <path stroke-width=".11795" d="m570 26a0.68 0.67 19 0 1 0 -0.9 0.68 0.67 19 0 1 0 0.9z"/>
     </g>
     <use xlink:href="#y" transform="translate(363.3,-138.52)" height="580" width="600" y="0" x="0"/>
     <use xlink:href="#h" transform="translate(363.3,-138.52)" height="580" width="600" y="0" x="0"/>
     <use xlink:href="#i" transform="translate(363.3,-138.52)" height="580" width="600" y="0" x="0"/>
     <use xlink:href="#z" transform="translate(363.3,-138.52)" height="580" width="600" y="0" x="0"/>
     <use xlink:href="#aa" transform="translate(363.3,-138.52)" height="580" width="600" y="0" x="0"/>
     <g stroke-miterlimit="0" stroke="#fff" fill="#fff">
      <path stroke-width=".038994" d="m530 110a0.22006 0.22006 0 0 1 -0.01 0.44z"/>
      <path stroke-width=".07863" d="m520 96a0.44 0.44 0 0 1 0.59 0.65z"/>
      <g stroke-width=".038994">
       <path d="m560 110a0.22 0.22 0 0 1 0.083 -0.43z"/>
       <path d="m550 110a0.22 0.22 0 1 1 0.4 -0.17z"/>
       <path d="m580 87a0.22 0.22 0 1 1 0.43 -0.086z"/>
       <path d="m460 160a0.22 0.22 0 0 1 -0.44 0 0.22 0.22 0 1 1 0.44 0z"/>
       <path d="m440 130a0.22 0.22 0 0 1 -0.44 0 0.22 0.22 0 1 1 0.44 0z"/>
      </g>
     </g>
     <use xlink:href="#y" transform="matrix(.8 0 0 .8 407.34 -10.53)" height="580" width="600" y="0" x="0"/>
     <use xlink:href="#h" transform="matrix(.8 0 0 .8 405.32 -6.5579)" height="580" width="600" y="0" x="0"/>
     <use xlink:href="#i" transform="matrix(.8 0 0 .8 397.29 -10.562)" height="580" width="600" y="0" x="0"/>
     <use xlink:href="#z" transform="translate(363.3,-48.518)" height="580" width="600" y="0" x="0"/>
     <g stroke-miterlimit="0" stroke="#fff" fill="#fff">
      <path stroke-width=".038994" d="m530 200a0.22006 0.22006 0 0 1 -0.01 0.44z"/>
      <path stroke-width=".078479" d="m200 240a0.44522 0.44522 0 1 1 -0.48 0.75z"/>
      <path stroke-width=".038994" d="m220 190a0.22 0.22 0 1 1 0.06 0.43z"/>
      <path stroke-width=".038994" d="m200 210a0.22142 0.22142 0 0 1 0.4 -0.19z"/>
     </g>
     <g stroke="#fff" stroke-miterlimit="0" stroke-width=".038994" fill="#fff">
      <path d="m157 322a0.22 0.22 0 0 1 -0.44 0 0.22 0.22 0 1 1 0.44 0z"/>
      <path d="m106 312a0.22 0.22 0 0 1 -0.44 0 0.22 0.22 0 1 1 0.44 0z"/>
      <path d="m127 292a0.22 0.22 0 0 1 -0.44 0 0.22 0.22 0 1 1 0.44 0z"/>
      <path d="m116 302a0.22 0.22 0 0 1 -0.44 0 0.22 0.22 0 1 1 0.44 0z"/>
      <path d="m95 159a0.225 0.225 0 0 1 -0.45 0 0.225 0.225 0 1 1 0.45 0z"/>
     </g>
     <use xlink:href="#h" transform="translate(-68.288,-9.0561)" height="580" width="600" y="0" x="0"/>
     <use xlink:href="#i" transform="translate(-68.288,-9.0561)" height="580" width="600" y="0" x="0"/>
     <use xlink:href="#a" transform="translate(-68.288,-9.0561)" height="580" width="600" y="0" x="0"/>
     <use xlink:href="#aa" transform="translate(-74.288,-9.0561)" height="580" width="600" y="0" x="0"/>
     <g stroke-miterlimit="0" stroke="#fff" fill="#fff">
      <g stroke-width=".038994">
       <path d="m190 154a0.22 0.22 0 0 1 0.43 0.059z"/>
       <path d="m117 272a0.22023 0.22023 0 1 1 0.28 -0.34z"/>
       <path d="m117 242a0.22 0.22 0 0 1 0.4 -0.17z"/>
       <path d="m144 212a0.22 0.22 0 1 1 0.43 -0.086z"/>
      </g>
      <path stroke-width=".07863" d="m216 90a0.44 0.44 0 0 1 0.59 0.65z"/>
      <g stroke-width=".038994">
       <path d="m136 160a0.22 0.22 0 0 1 -0.44 0 0.22 0.22 0 1 1 0.44 0z"/>
       <path d="m196 190a0.22389 0.22389 0 0 1 0.39 0.22z"/>
       <path d="m216 170a0.22 0.22 0 1 1 0.08 -0.43z"/>
       <path d="m206 120a0.22 0.22 0 1 1 0.083 -0.43z"/>
      </g>
      <path stroke-width=".076056" d="m186 100a0.5 0.37 24 0 1 0.3 -0.67z"/>
      <path stroke-width=".11795" d="m109 24a0.68 0.67 19 0 1 0 -0.9 0.68 0.67 19 0 1 0 0.9z"/>
      <path stroke-width=".038994" d="m120 80a0.22 0.22 0 1 1 0.43 -0.086z"/>
      <path stroke-width=".038994" d="m256 120a0.22 0.22 0 1 1 0.06 0.43z"/>
     </g>
     <use xlink:href="#a" transform="translate(-32.288,-79.056)" height="580" width="600" y="0" x="0"/>
     <g stroke-miterlimit="0" stroke="#fff" fill="#fff">
      <path stroke-width=".038994" d="m153 172a0.22 0.22 0 0 1 0.4 -0.17z"/>
      <path stroke-width=".07863" d="m355.36 183.08a0.44 0.44 0 0 1 0.3111 0.82086z"/>
      <g stroke-width=".038994">
       <path d="m255.29 218.94a0.22006 0.22006 0 1 1 -0.41 -0.16 0.22006 0.22006 0 0 1 0.41 0.16z"/>
       <path d="m300.14 268.82a0.22389 0.22389 0 0 1 0.28238 0.34751z"/>
       <path d="m326.08 257.53a0.22 0.22 0 1 1 0.23186 -0.37087z"/>
       <path d="m335.07 207.34a0.22 0.22 0 1 1 0.23465 -0.36977z"/>
      </g>
      <path stroke-width=".076056" d="m323.78 181.4a0.5 0.37 45.473 0 1 0.52444 -0.51366z"/>
      <path stroke-width=".11795" d="m279.95 82.492a0.68 0.67 40.473 0 1 0.33 -0.838 0.68 0.67 40.473 0 1 -0.33 0.838z"/>
      <path stroke-width=".038994" d="m269.69 138.63a0.22 0.22 0 1 1 0.43163 0.0774z"/>
      <path stroke-width=".038994" d="m381.6 225.64a0.22 0.22 0 1 1 -0.10158 0.42212z"/>
     </g>
     <use xlink:href="#a" transform="matrix(.93059 .36607 -.36607 .93059 186.19 -65.132)" height="580" width="600" y="0" x="0"/>
     <g stroke-miterlimit="0" stroke="#fff" fill="#fff">
      <path stroke-width=".038994" d="m266.72 236.33a0.22 0.22 0 0 1 0.43447 -0.0118z"/>
      <path stroke-width=".07863" d="m113.04 148.02a0.44 0.44 0 0 1 -0.12435 0.86898z"/>
      <g stroke-width=".038994">
       <path d="m8.0974 131.04a0.22 0.22 0 0 1 -0.2806 -0.33 0.22 0.22 0 1 1 0.2806 0.33z"/>
       <path d="m23.258 196.39a0.22389 0.22389 0 1 1 0.0793 0.4407z"/>
       <path d="m51.418 199.04a0.22 0.22 0 1 1 0.38222 -0.21263z"/>
       <path d="m83.551 159.45a0.22 0.22 0 1 1 0.38413 -0.21032z"/>
      </g>
      <path stroke-width=".076056" d="m86.2 131.29a0.5 0.37 74.373 0 1 0.70737 -0.19624z"/>
      <path stroke-width=".11795" d="m95.626 23.509a0.68 0.67 69.373 0 1 0.693 -0.574 0.68 0.67 69.373 0 1 -0.693 0.574z"/>
      <path stroke-width=".038994" d="m59.51 67.698a0.22 0.22 0 1 1 0.34048 0.27636z"/>
      <path stroke-width=".038994" d="m115.44 197.96a0.22 0.22 0 1 1 -0.29293 0.32046z"/>
     </g>
     <use xlink:href="#a" transform="matrix(.63779 .77021 -.77021 .63779 84.889 -151.04)" height="580" width="600" y="0" x="0"/>
     <g stroke="#fff" stroke-miterlimit="0" stroke-width=".038994" fill="#fff">
      <path d="m9.6973 151.79a0.22 0.22 0 0 1 0.38607 0.19964z"/>
      <path d="m264 138a0.22 0.22 0 0 1 -0.0009 0.44z"/>
      <path d="m204 48a0.22006 0.22006 0 0 1 -0.01 0.44z"/>
      <path d="m174 138a0.22389 0.22389 0 0 1 0.39 0.22z"/>
      <path d="m194 118a0.22 0.22 0 1 1 0.08 -0.43z"/>
      <path d="m224 88a0.22023 0.22023 0 1 1 0.28 -0.34z"/>
      <path d="m234 58a0.22 0.22 0 1 1 0.083 -0.43z"/>
      <path d="m184 68a0.22 0.22 0 1 1 0.083 -0.43z"/>
      <path d="m204 8a0.22 0.22 0 1 1 0.083 -0.43z"/>
      <path d="m214 88a0.22142 0.22142 0 1 1 0.4 -0.19z"/>
      <path d="m204 32a0.22 0.22 0 0 1 0.43 0.059z"/>
      <path d="m210 68a0.22389 0.22389 0 0 1 0.39 0.22z"/>
      <path d="m230 48a0.22 0.22 0 1 1 0.08 -0.43z"/>
      <path d="m167 50a0.22 0.22 0 0 1 0.4 -0.17z"/>
     </g>
    </g>
    <rect stroke-opacity=".69804" height="223.2" width="599.9" stroke="#31389b" y="680.92" x=".050801" stroke-width=".10159" fill="url(#ag)"/>
    <rect height="223.76" width="600" y="679.13" x="-.0013732" fill="url(#aj)"/>
   </g>
  </g>
  <g transform="matrix(.16777 0 0 .16777 128.29 322.56)">
   <title>Layer 1</title>
   <path opacity=".5" d="m1419.2 783.86c-27.528 10.816-42.421 65.537-75.762 41.379-41.864 3.8246-90.157-1.1741-126.41 27.754-26.832 14.878 35.812 1.3863 1.4238 15.164-27.093 10.959-64.723 25.669-81.96-8.9297-25.035-8.4753-84.067 14.802-57.391 48.055 13.409 11.379-26.501 7.6636-33.55 11.558-17.011-0.72158-46.883 29.105-37.827 28.614 24.364 9.2544 51.279 19.368 71.971 41.473 32.12 34.127 72.228 14.38 111.06 25.081 28.154 1.5748 52.325 25.018 79.66 26.249 179.91 14.765 249.29 15.26 459.56-21.647 41.909-10.46 71.809-50.329 100.91-40.411 5.0658-11.721 42.174-2.527 66.158-20.653-30.619-12.61-59.33-5.6117-75.849-28.548-27.428 13.792-29.976-33.127-62.451-27.683-30.694-22.413-63.501 8.8363-91.448-2.4684 5.907-18.554 44.151-8.6911 35.651-8.5087 19.226 5.1103 62.566-6.2923 18.842-10.778-20.15-3.0203-76.271 8.6662-40.604-12.586-39.257 0.50455-73.102-35.273-112.63-36.542 17.277-58.668-61.314-31.918-87.281-28.624-46.977 0.34683 36.454 20.876-0.089 29.144-35.439 11.57-38.321-32.161-61.988-47.094zm280.8 106.1-0.9293 0.0618zm-0.936 0.0587c-5.7867-4.1911-8.6324 4.9498 0 0zm-4.0251-0.76354c-3.5473-0.7915-2.2312-0.49783 0 0zm-206.17-79.378c-12.887 1.2518-21.695-0.0599 0 0zm48.956 5.8439c-12.722 9.4037-17.619-5.0725 0 0zm-122.72 10.073c1.3681 1.5198-2.1182 0.26969 0 0zm27.427 6.5487c-2.7728 4.0162-14.056-1.2837 0 0zm-107.95 3.5827c-14.212 4.8508-12.791-1.1884 0 0zm195.03 0.76351c16.526-2.4957 61.206 20.384 43.164 21.099 6.7767-27.775-74.816-11.409-43.164-21.099zm-102.5 0.29369c-2.8724 6.2167-12.344-6.3865 0 0zm85.814 12.187c22.041-1.6355 24.511 9.8066 1.6632 6.4504-4.4065 3.4383-14.502-2.4404-1.6632-6.4504zm-26.772 5.8146c22.797 2.0878-15.866 5.0876 0 0zm20.055 4.3756c35.95-7.2717 28.334 33.672-1.0241 16.987-4.5056-4.3872-2.5752-12.811 1.0241-16.987zm-24.01 13.832c54.951 8.9392-29.757 5.2961 0 0zm191.36 6.9011c16.325-0.0591 29.811 1.2643 5.0262 0.23727zm-197.91 1.7326c10.341 0.12716 2.2633 0.0278 0 0zm155.67 5.0217c14.41 4.4874-25.516 2.1496 0 0zm79.8 17.708c13.461-1.7679 68.264 21.919 28.399 14.3-10.041-1.6291-21.845-3.063-28.399-14.3zm-648.73 43.02c-0.1982 3.5663-5.0596-5.0666 0 0zm-2.0996 1.1613c3.3827-0.8659 8.8982 7.6962 0 0zm762.96 13.225c7.4439 2.8221 43.297-8.1049 17.184-1.0767 10.802-6.0698 27.596 0.71231 6.3493 2.8122-7.6852-1.7921-19.414 12.136-23.533-1.7354zm-675 27.732c-0.019 2.0489-2.9124-2.7866 0 0zm4.2397 9.7199c-3.4313 0.68174-1.7634 0.36172 0 0zm-41.435-6.3857c14.363 6.4807 73.925 6.5955 29.027 11.666-9.8604-0.3038-20.478-2.555-29.027-11.666zm76.467 8.9362c5.1559-2.4794 2.8152 9.9854 0 0zm572.74 3.8411-0.578 0.368z" fill-opacity=".31795" transform="matrix(.8217 0 0 .41054 847.57 517.76)" filter="url(#ab)" stroke-width="5" fill="#fff"/>
   <g opacity=".75" transform="matrix(.74885 0 0 .93973 -1054.2 642.41)" filter="url(#c)" stroke-width="5" fill="#fff">
    <path opacity=".41111" d="m379.13 219.53c32.649 13.047 132.05 19.101 1.7891 7.5759 30.726-9.9705 119.98-56.146 120.99-8.1535-17.889 10.982 12.426 10.891 10.835 10.754-87.384-7.5184-68.799 0.0266-36.265-11.579 45.943-15.142 102.41-31.659 107.98 26.033 5.3399-0.63961 21.373-1.3986 16.02-1.9188-20.513-1.9936-41.29-0.29015-61.778-2.5282-11.404-1.2458 22.792-3.3695 34.263-3.244 89.246 0.97668 63.506-2.3166 106.47 4.1553 6.0897-0.2204 24.357-0.40156 18.269-0.66122-21.671-0.92418-43.39-0.36183-65.059-1.3342-5.3229-0.23885 10.633-0.87689 15.961-0.86896 30.731 0.0458 61.491 2.4726 92.189 1.0302 26.628-1.2511-54.159 1.3836-79.736-6.1264-33.392-11.064-173.96-29.539 3.3166-17.738 21.062 1.402 60.617 30.781 79.79 42.311 52.904 39.522-172.69 14.65-71.544-13.495 41.223 0.61927 82.463 0.49199 123.67 1.8578 61.581 2.0412-34.111 32.001-89.453 13.946-7.6108-5.2305-108.74-22.281-106.82-31.919 1.2739-6.4002 10.856-7.244 16.285-10.866 54.067 0.54388 119.11 1.0438 169.61 27.67-3.9611 15.207-1.0822 8.1402-8.4044 21.293l-67.916-4.882c8.0734-4.175 7.4036-1.9002-1.9486-6.8423-30.389-7.9302-151.98-32.979-24.822-27.374 1.5109-20.361 85.341 11.192 101.73 23.16 32.303 11.09-3.7058-2.6316-46.943 4.7866-3.387 0.58108 4.6945 5.0198 7.0418 7.5297-7.4165 0.26163-14.833 0.52329-22.249 0.78488-9.0502-0.25216-36.068-1.1048-27.075-2.1592 22.794-2.6728 45.864-1.822 68.795-2.733-10.309-0.86566-20.731-0.84909-30.928-2.597-1.4038-0.24064-3.98-4.0468-2.8411-3.1915 46.315 34.782-88.894 34.515-101.59 16.424-128.53-94.743 55.231-104.49 108.43-41.63 13.137 46.473 1.1745-14.97-74.057 23.558-18.935 9.6972 42.542-0.87527 63.816-0.86935 4.4194 0.001-8.8111 0.76166-13.229 0.88345-96.309 2.6551-65.674 4.343-111.41 1.1732-35.167-4.5243-19.603-1.8422 51.012-2.8753 10.408-0.15227-20.667 2.7481-31.069 3.1291-95.683 3.5051-68.066 15.042-105.81-2.9912-36.207-46.149 109.43-34.717 36.6-21.408-35.606 12.84-126.63 48.601-118.17 2.4749 92.985-4.1002 69.69-8.5189 20.322 14.206-50.036 2.5728-98.174 11.541-141.77-15.835l65.684-8.9173z" filter="url(#d)"/>
    <path filter="url(#f)" d="m371.72 210.16c32.931 13.879 132.13 19.329 3.4512 12.006 31.259-8.8251 121.74-53.042 123.67-4.4071-17.525 10.963 12.981 10.81 11.418 10.627-86.204-10.089-68-1.2242-35.06-14.285 46.416-17.35 103.69-37.641 109.26 20.051 5.3399-0.63961 21.373-1.3986 16.02-1.9188-20.513-1.9936-41.299-0.25429-61.778-2.5282-11.402-1.2661 22.792-3.3695 34.263-3.244 89.246 0.97668 63.506-2.3166 106.47 4.1553 6.0897-0.2204 24.357-0.40157 18.269-0.66122-21.671-0.92418-43.39-0.36185-65.059-1.3342-5.3229-0.23885 10.633-0.87689 15.961-0.86896 30.731 0.0458 61.491 2.4726 92.189 1.0302 26.628-1.2511-54.159 1.3836-79.736-6.1264-33.392-11.064-173.96-29.539 3.3166-17.738 21.062 1.402 60.617 30.781 79.79 42.311 52.904 39.522-172.69 14.65-71.544-13.495 41.223 0.61927 82.463 0.49199 123.67 1.8578 61.581 2.0412-34.111 32.001-89.453 13.946-7.6108-5.2305-108.74-22.281-106.82-31.919 1.2739-6.4002 10.856-7.244 16.285-10.866 54.067 0.54388 119.11 1.0438 169.61 27.67-3.9611 15.207-1.0822 8.1402-8.4044 21.293l-67.916-4.882c8.0734-4.175 7.4036-1.9001-1.9486-6.8423-30.389-7.9302-151.98-32.979-24.822-27.374 1.5109-20.361 85.341 11.192 101.73 23.16 32.303 11.09-3.7058-2.6316-46.943 4.7866-3.387 0.58108 4.6945 5.0198 7.0418 7.5297-7.4165 0.26162-14.833 0.52327-22.249 0.78486-9.0502-0.25216-36.068-1.1048-27.075-2.1592 22.794-2.6728 45.864-1.822 68.795-2.733-10.309-0.86567-20.731-0.84911-30.928-2.597-1.4038-0.24065-3.98-4.0468-2.8411-3.1915 46.315 34.782-88.894 34.515-101.59 16.424-128.53-94.743 55.231-104.49 108.43-41.63 13.137 46.473 1.1745-14.97-74.057 23.558-18.935 9.6972 42.542-0.87527 63.816-0.86935 4.4194 0.001-8.8111 0.76165-13.229 0.88345-96.309 2.6551-65.674 4.343-111.41 1.1732-35.167-4.5243-19.603-1.8422 51.012-2.8753 10.408-0.15227-20.667 2.7481-31.069 3.1291-95.683 3.5051-68.066 15.042-105.81-2.9912-36.42-46.149 109.43-34.717 36.6-21.408-35.606 12.84-130.11 48.601-122.73 2.4749 91.209-4.1002 68.828-8.5189 18.509 14.206-50.723 2.5728-99.418 11.541-143.01-15.835l65.894-8.2791z"/>
   </g>
   <path opacity=".5" d="m1354.5 901.39c-29.13 16.553-22.866 43.909-6.2162 60.721-43.89 11.606 84.792 51.749 98.563 51.734 32.996 29.237 56.687-122.81 34.298-157.5-35.439 11.57-76.393 18.603-100.06 3.6695-7.5863-27.05 3.4442 59.062-26.584 41.379zm24.12 100.43c5.1546-2.0161-7.6179-0.2192 0 0zm57.488-161.93c-2.7728 4.0162-14.056-1.2837 0 0zm77.774 104.69c54.951 8.9392-29.757 5.2961 0 0zm2.9657-40.544c10.341 0.12716 2.2633 0.0278 0 0zm-19.73 85.804c-2415.9-991.6-1208-495.8 0 0z" stroke-opacity=".6" clip-path="url(#ap)" fill-opacity=".98974" transform="matrix(1.4776,0,0,1.3087,615.53,-318.62)" filter="url(#ab)" stroke="#e21e1e" stroke-width="30.547" fill="#a25c18"/>
   <g stroke-width="5" fill="#fff">
    <path opacity="0.37" d="m2304.1 875.48c-16.139 4.0227-32.279 7.4909-48.418 10.46 25.842 9.2103 48.948 26.23 76.648 26.361 21.034 2.7394 39.877-8.0497 51.69 9.7314 18.381 8.8234 37.235 25.564 60.489 14.903 21.161-11.219 38.782-9.2677 60.268-3.9853 16.62 8.0537 35.071 19.243 54.948 13.146 24.385-3.9518 38.722 17.992 59.08 30.106 15.746 8.1846 42.446 9.035 52.213 18.478-0.5529 31.317 35.298 28.042 53.186 22.085 12.892-4.283 32.081-13.952 27.639-33.65 24.031 6.6105 37.17-24.008 59.53-26.46 15.183-17.272 35.473-18.654 54.318-27.783 20.058-18.488-23.708-19.039-34.322-18.553-19.606 4.3636-38.237-3.4475-57.91-1.4826-10.447 0.5577-22.61 5.0101-6.9852-4.7097-3.3691-23.31-41.964-14.046-59.395-14.701-22.994-2.7056-46.427 22.315-67.101 8.054-28.448-15.752-64.039-35.087-93.672-11.756-6.7425-9.3828-32.987-20.362-30.668-27.164-17.157-2.9235-52.645-16.583-68.162 13.168-18.586 16.605 22.05 39.243-1.1892 37.749-15.854-7.3618-34.24-12.213-52.49-8.9269-17.531-1.6462 2.5079 3.7285 2.6444-9.3582-25.135 1.971-49.8-2.1434-73.288-12.642-6.183-1.7537-12.562-2.9253-19.056-3.0705zm89.465 23.572c7.4285 2.5758 13.605-4.0886 0 0zm300.69 6.0353c-4.9842 3.268-17.707 1.8902 0 0zm-97.632 11.017c23.598 3.4644-5.251 3.2444 0 0zm171.67 1.2394c-6.7846 3.8215-20.257 10.125-5.6063 2.1547l2.597-1.0433 3.0093-1.1114zm-164.37 5.6187c7.4295-1.3074 23.714 2.3553 6.1968 2.4357l-4.1141-0.1497-2.0827-2.286zm152.02 3.9385c1.5566-0.4266 0.2758 0.5315 0 0zm-36.787 12.036c-4.149 12.822-28.389 1.3296-8.4665 1.1403l3.8554-0.5519 4.6111-0.5884z" transform="matrix(-1.0131 0 0 -.76913 5205.7 1629)" filter="url(#ao)"/>
    <g opacity=".75" filter="url(#c)" transform="matrix(.74885 0 0 .93973 1908.3 599.34)">
     <path opacity=".41111" d="m379.13 219.53c32.649 13.047 132.05 19.101 1.7891 7.5759 30.726-9.9705 119.98-56.146 120.99-8.1535-17.889 10.982 12.426 10.891 10.835 10.754-87.384-7.5184-68.799 0.0266-36.265-11.579 45.943-15.142 102.41-31.659 107.98 26.033 5.3399-0.63961 21.373-1.3986 16.02-1.9188-20.513-1.9936-41.29-0.29015-61.778-2.5282-11.404-1.2458 22.792-3.3695 34.263-3.244 89.246 0.97668 63.506-2.3166 106.47 4.1553 6.0897-0.2204 24.357-0.40156 18.269-0.66122-21.671-0.92418-43.39-0.36183-65.059-1.3342-5.3229-0.23885 10.633-0.87689 15.961-0.86896 30.731 0.0458 61.491 2.4726 92.189 1.0302 26.628-1.2511-54.159 1.3836-79.736-6.1264-33.392-11.064-173.96-29.539 3.3166-17.738 21.062 1.402 60.617 30.781 79.79 42.311 52.904 39.522-172.69 14.65-71.544-13.495 41.223 0.61927 82.463 0.49199 123.67 1.8578 61.581 2.0412-34.111 32.001-89.453 13.946-7.6108-5.2305-108.74-22.281-106.82-31.919 1.2739-6.4002 10.856-7.244 16.285-10.866 54.067 0.54388 119.11 1.0438 169.61 27.67-3.9611 15.207-1.0822 8.1402-8.4044 21.293l-67.916-4.882c8.0734-4.175 7.4036-1.9002-1.9486-6.8423-30.389-7.9302-151.98-32.979-24.822-27.374 1.5109-20.361 85.341 11.192 101.73 23.16 32.303 11.09-3.7058-2.6316-46.943 4.7866-3.387 0.58108 4.6945 5.0198 7.0418 7.5297-7.4165 0.26163-14.833 0.52329-22.249 0.78488-9.0502-0.25216-36.068-1.1048-27.075-2.1592 22.794-2.6728 45.864-1.822 68.795-2.733-10.309-0.86566-20.731-0.84909-30.928-2.597-1.4038-0.24064-3.98-4.0468-2.8411-3.1915 46.315 34.782-88.894 34.515-101.59 16.424-128.53-94.743 55.231-104.49 108.43-41.63 13.137 46.473 1.1745-14.97-74.057 23.558-18.935 9.6972 42.542-0.87527 63.816-0.86935 4.4194 0.001-8.8111 0.76166-13.229 0.88345-96.309 2.6551-65.674 4.343-111.41 1.1732-35.167-4.5243-19.603-1.8422 51.012-2.8753 10.408-0.15227-20.667 2.7481-31.069 3.1291-95.683 3.5051-68.066 15.042-105.81-2.9912-36.207-46.149 109.43-34.717 36.6-21.408-35.606 12.84-126.63 48.601-118.17 2.4749 92.985-4.1002 69.69-8.5189 20.322 14.206-50.036 2.5728-98.174 11.541-141.77-15.835l65.684-8.9173z" filter="url(#d)"/>
     <path filter="url(#f)" d="m339.88 184.79c32.931 13.879 132.13 19.329 3.4512 12.006 31.259-8.8251 121.74-53.042 123.67-4.4071-17.525 10.963 12.981 10.81 11.418 10.627-86.204-10.089-68-1.2242-35.06-14.285 46.416-17.35 103.69-37.641 109.26 20.051 5.3399-0.63961 21.373-1.3986 16.02-1.9188-20.513-1.9936-41.299-0.25429-61.778-2.5282-11.402-1.2661 22.792-3.3695 34.263-3.244 89.246 0.97668 63.506-2.3166 106.47 4.1553 6.0897-0.2204 24.357-0.40157 18.269-0.66122-21.671-0.92418-43.39-0.36185-65.059-1.3342-5.3229-0.23885 10.633-0.87689 15.961-0.86896 30.731 0.0458 61.491 2.4726 92.189 1.0302 26.628-1.2511-54.159 1.3836-79.736-6.1264-33.392-11.064-173.96-29.539 3.3166-17.738 21.062 1.402 60.617 30.781 79.79 42.311 52.904 39.522-172.69 14.65-71.544-13.495 41.223 0.61927 82.463 0.49199 123.67 1.8578 61.581 2.0412-34.111 32.001-89.453 13.946-7.6108-5.2305-108.74-22.281-106.82-31.919 1.2739-6.4002 10.856-7.244 16.285-10.866 54.067 0.54388 119.11 1.0438 169.61 27.67-3.9611 15.207-1.0822 8.1402-8.4044 21.293l-67.916-4.882c8.0734-4.175 7.4036-1.9001-1.9486-6.8423-30.389-7.9302-151.98-32.979-24.822-27.374 1.5109-20.361 85.341 11.192 101.73 23.16 32.303 11.09-3.7058-2.6316-46.943 4.7866-3.387 0.58108 4.6945 5.0198 7.0418 7.5297-7.4165 0.26162-14.833 0.52327-22.249 0.78486-9.0502-0.25216-36.068-1.1048-27.075-2.1592 22.794-2.6728 45.864-1.822 68.795-2.733-10.309-0.86567-20.731-0.84911-30.928-2.597-1.4038-0.24065-3.98-4.0468-2.8411-3.1915 46.315 34.782-88.894 34.515-101.59 16.424-128.53-94.743 55.231-104.49 108.43-41.63 13.137 46.473 1.1745-14.97-74.057 23.558-18.935 9.6972 42.542-0.87527 63.816-0.86935 4.4194 0.001-8.8111 0.76165-13.229 0.88345-96.309 2.6551-65.674 4.343-111.41 1.1732-35.167-4.5243-19.603-1.8422 51.012-2.8753 10.408-0.15227-20.667 2.7481-31.069 3.1291-95.683 3.5051-68.066 15.042-105.81-2.9912-36.42-46.149 109.43-34.717 36.6-21.408-35.606 12.84-130.11 48.601-122.73 2.4749 91.209-4.1002 68.828-8.5189 18.509 14.206-50.723 2.5728-99.418 11.541-143.01-15.835l65.894-8.2791z"/>
    </g>
    <g opacity=".75" fill-opacity=".33846" transform="matrix(4.7736 0 0 .57833 -1945.9 774.37)" filter="url(#c)">
     <path opacity=".41111" d="m379.13 219.53c32.649 13.047 132.05 19.101 1.7891 7.5759 30.726-9.9705 119.98-56.146 120.99-8.1535-17.889 10.982 12.426 10.891 10.835 10.754-87.384-7.5184-68.799 0.0266-36.265-11.579 45.943-15.142 102.41-31.659 107.98 26.033 5.3399-0.63961 21.373-1.3986 16.02-1.9188-20.513-1.9936-41.29-0.29015-61.778-2.5282-11.404-1.2458 22.792-3.3695 34.263-3.244 89.246 0.97668 63.506-2.3166 106.47 4.1553 6.0897-0.2204 24.357-0.40156 18.269-0.66122-21.671-0.92418-43.39-0.36183-65.059-1.3342-5.3229-0.23885 10.633-0.87689 15.961-0.86896 30.731 0.0458 61.491 2.4726 92.189 1.0302 26.628-1.2511-54.159 1.3836-79.736-6.1264-33.392-11.064-173.96-29.539 3.3166-17.738 21.062 1.402 60.617 30.781 79.79 42.311 52.904 39.522-172.69 14.65-71.544-13.495 41.223 0.61927 82.463 0.49199 123.67 1.8578 61.581 2.0412-34.111 32.001-89.453 13.946-7.6108-5.2305-108.74-22.281-106.82-31.919 1.2739-6.4002 10.856-7.244 16.285-10.866 54.067 0.54388 119.11 1.0438 169.61 27.67-3.9611 15.207-1.0822 8.1402-8.4044 21.293l-67.916-4.882c8.0734-4.175 7.4036-1.9002-1.9486-6.8423-30.389-7.9302-151.98-32.979-24.822-27.374 1.5109-20.361 85.341 11.192 101.73 23.16 32.303 11.09-3.7058-2.6316-46.943 4.7866-3.387 0.58108 4.6945 5.0198 7.0418 7.5297-7.4165 0.26163-14.833 0.52329-22.249 0.78488-9.0502-0.25216-36.068-1.1048-27.075-2.1592 22.794-2.6728 45.864-1.822 68.795-2.733-10.309-0.86566-20.731-0.84909-30.928-2.597-1.4038-0.24064-3.98-4.0468-2.8411-3.1915 46.315 34.782-88.894 34.515-101.59 16.424-128.53-94.743 55.231-104.49 108.43-41.63 13.137 46.473 1.1745-14.97-74.057 23.558-18.935 9.6972 42.542-0.87527 63.816-0.86935 4.4194 0.001-8.8111 0.76166-13.229 0.88345-96.309 2.6551-65.674 4.343-111.41 1.1732-35.167-4.5243-19.603-1.8422 51.012-2.8753 10.408-0.15227-20.667 2.7481-31.069 3.1291-95.683 3.5051-68.066 15.042-105.81-2.9912-36.207-46.149 109.43-34.717 36.6-21.408-35.606 12.84-126.63 48.601-118.17 2.4749 92.985-4.1002 69.69-8.5189 20.322 14.206-50.036 2.5728-98.174 11.541-141.77-15.835l65.684-8.9173z" filter="url(#d)"/>
     <path filter="url(#f)" d="m371.72 210.16c32.931 13.879 132.13 19.329 3.4512 12.006 31.259-8.8251 121.74-53.042 123.67-4.4071-17.525 10.963 12.981 10.81 11.418 10.627-86.204-10.089-68-1.2242-35.06-14.285 46.416-17.35 103.69-37.641 109.26 20.051 5.3399-0.63961 21.373-1.3986 16.02-1.9188-20.513-1.9936-41.299-0.25429-61.778-2.5282-11.402-1.2661 22.792-3.3695 34.263-3.244 89.246 0.97668 63.506-2.3166 106.47 4.1553 6.0897-0.2204 24.357-0.40157 18.269-0.66122-21.671-0.92418-43.39-0.36185-65.059-1.3342-5.3229-0.23885 10.633-0.87689 15.961-0.86896 30.731 0.0458 61.491 2.4726 92.189 1.0302 26.628-1.2511-54.159 1.3836-79.736-6.1264-33.392-11.064-173.96-29.539 3.3166-17.738 21.062 1.402 60.617 30.781 79.79 42.311 52.904 39.522-172.69 14.65-71.544-13.495 41.223 0.61927 82.463 0.49199 123.67 1.8578 61.581 2.0412-34.111 32.001-89.453 13.946-7.6108-5.2305-108.74-22.281-106.82-31.919 1.2739-6.4002 10.856-7.244 16.285-10.866 54.067 0.54388 119.11 1.0438 169.61 27.67-3.9611 15.207-1.0822 8.1402-8.4044 21.293l-67.916-4.882c8.0734-4.175 7.4036-1.9001-1.9486-6.8423-30.389-7.9302-151.98-32.979-24.822-27.374 1.5109-20.361 85.341 11.192 101.73 23.16 32.303 11.09-3.7058-2.6316-46.943 4.7866-3.387 0.58108 4.6945 5.0198 7.0418 7.5297-7.4165 0.26162-14.833 0.52327-22.249 0.78486-9.0502-0.25216-36.068-1.1048-27.075-2.1592 22.794-2.6728 45.864-1.822 68.795-2.733-10.309-0.86567-20.731-0.84911-30.928-2.597-1.4038-0.24065-3.98-4.0468-2.8411-3.1915 46.315 34.782-88.894 34.515-101.59 16.424-128.53-94.743 55.231-104.49 108.43-41.63 13.137 46.473 1.1745-14.97-74.057 23.558-18.935 9.6972 42.542-0.87527 63.816-0.86935 4.4194 0.001-8.8111 0.76165-13.229 0.88345-96.309 2.6551-65.674 4.343-111.41 1.1732-35.167-4.5243-19.603-1.8422 51.012-2.8753 10.408-0.15227-20.667 2.7481-31.069 3.1291-95.683 3.5051-68.066 15.042-105.81-2.9912-36.42-46.149 109.43-34.717 36.6-21.408-35.606 12.84-130.11 48.601-122.73 2.4749 91.209-4.1002 68.828-8.5189 18.509 14.206-50.723 2.5728-99.418 11.541-143.01-15.835l65.894-8.2791z"/>
    </g>
   </g>
   <g opacity=".75" transform="matrix(.74885 0 0 .93973 14.906 324.81)" filter="url(#c)" stroke-width="5">
    <path opacity=".41111" d="m3651.5 558.24c-198.57-8.768-165.1-84.427 3.3709 18.447-127.78 14.659-115.75-16.981 52.124-11.637 61.581 2.0412-34.111 32.001-89.453 13.946-224.09-46.401 4.0315-52.855 79.074-15.115-3.9611 15.207-1.0822 8.1402-8.4044 21.293l-67.916-4.882c8.0734-4.175 7.4037-1.9002-1.9486-6.8423-184.89-37.219-8.0802-61.362 76.911-4.2138 32.303 11.09-3.7058-2.6316-46.943 4.7866-3.387 0.58108 4.6945 5.0198 7.0418 7.5297-7.4165 0.26163-14.833 0.52329-22.249 0.78488-75.526-2.5608 22.449-4.1776 41.72-4.8922-10.31-0.86566-20.731-0.84909-30.928-2.597-1.4038-0.24064-3.98-4.0468-2.841-3.1915-140.15 127.04-138.75-176.99 6.8467-25.206-0.277 31.3-140.59 24.752-10.241 22.688 4.4194 0.001-8.8111 0.76166-13.229 0.88345-187.23-116.87-185.58 105.64-400.29-22.125 212.72-27.723 243.24 17.928 427.36 10.343z" fill-opacity=".68205" filter="url(#d)" fill="#f3f3f3"/>
    <path d="m1918.9 516.75c32.931 13.879 132.13 19.329 3.4512 12.006 31.259-8.8251 121.74-53.042 123.67-4.4071 24.937 18.632-86.777 20.363-23.641-3.6577 215.71 47.826-16.453-16.753 204.24 16.516 6.0897-0.2204 24.357-0.40157 18.269-0.66122-138.37-4.6105-8.6442 1.0222 43.092-1.173 26.628-1.2511-54.159 1.3836-79.736-6.1264-33.392-11.064-173.96-29.539 3.3166-17.738 21.062 1.402 60.617 30.781 79.79 42.311 52.904 39.522-172.69 14.65-71.544-13.495 132.82-26.448 154.07 50.34 34.215 15.804-7.6108-5.2305-108.74-22.281-106.82-31.919 1.2739-6.4002 10.856-7.244 16.285-10.866 54.067 0.54388 119.11 1.0438 169.61 27.67-3.9611 15.207-1.0822 8.1402-8.4043 21.293l-67.916-4.882c8.0733-4.175 7.4036-1.9001-1.9486-6.8423-184.89-37.219-8.0804-61.362 76.911-4.2138 32.303 11.09-3.7059-2.6316-46.943 4.7866-3.3871 0.58108 4.6944 5.0198 7.0417 7.5297-7.4165 0.26162-14.833 0.52327-22.249 0.78486-9.0502-0.25216-36.068-1.1048-27.075-2.1592 22.794-2.6728 45.864-1.822 68.795-2.733-10.31-0.86567-20.731-0.84911-30.928-2.597-1.4038-0.24065-3.9799-4.0468-2.841-3.1915-140.15 127.04-138.75-176.99 6.8467-25.206 13.137 46.473 1.1745-14.97-74.057 23.558-18.935 9.6972 42.542-0.87527 63.816-0.86935 4.4194 0.001-8.8111 0.76165-13.229 0.88345-164.28 20.289-142.94-25.688-160.68-22.972-110.68-31.689-97.05 90.168-247.23 0.84671z" fill-opacity=".25128" filter="url(#f)" fill="#ad9cac"/>
   </g>
  </g>
 </g>
 <g transform="translate(-303.83,157.22)">
  <title>Layer 1</title>
  <g opacity=".75" transform="matrix(.74885 0 0 .93973 18.253 14.133)" filter="url(#aq)" stroke-width="5" fill="#fff">
   <path filter="url(#ar)" d="m535.1 88.252c-73.12-89.148-151.79-76.305 3.37 18.449-100.14-43.634-173.91 13.98-71.54-13.498 41.22 0.62 575.96-109.14 603.16-117.85 57.2-18.337-513.61 151.71-568.95 133.66-223.82-45.267 313.71-87.974 223.79-37.507 19.92 6.25-164.06 8.14-171.38 21.292l-49.65 17.507c8.0734-4.175 7.4036-1.9001-1.9486-6.8423-184.89-37.219-8.0803-61.362 76.911-4.2138 32.303 11.09-3.7058-2.6316-46.943 4.7866-39.223-56.236 25.862-1.0873-15.208 8.3146-9.0502-0.25216-48.573-23.496-39.581-24.551 22.794-2.6728 58.369 20.569 81.301 19.658-10.309-0.86567-20.731-0.84911-30.928-2.597-87.866-30.439 128.06-88.88-70.052-4.84-18.935 9.6972 42.542-0.87527 63.816-0.86935 4.4194 0.001-8.8111 0.76165-13.229 0.88345-77.765 3.7632-50.019 26.645-60.397-1.7021 58.245 37.984 19.291-5.1282 87.464-10.08z"/>
  </g>
 </g>
 <path d="m0.50869 0.50167c47.687 0.09906 69.639-0.00029 69.639-0.00029s2.1658 50.444 5.2823 75.469c1.7957 14.419 3.2585 29.069 7.7147 42.904 1.888 5.8614 3.9144 12.024 7.9592 16.68 1.1204 1.2895 3.2352 1.4823 4.2747 2.8373 7.2935 9.5073 11.399 22.085 11.399 34.048 0 5.9816-2.2588 12.12-5.6996 17.024-4.0512 5.7734-12.932 7.1438-16.595 13.169-6.9434 11.42-5.2081 26.192-7.6283 39.322-2.0014 10.858-4.7461 21.63-5.6996 32.629-0.57179 6.5959-4.1608 14.697 0 19.861 2.74 3.4008 8.4535 2.5678 12.824 2.8373 10 0.61668 20.17-0.5528 29.923-2.8373 6.4397-1.5084 12.019-5.8909 18.524-7.0933 1.8679-0.34532 4.1135-1.0413 5.6996 0 3.0198 1.9826 3.9001 6.3486 4.2747 9.9306 0.50162 4.7966-0.49983 9.9697-2.8498 14.187-5.3795 9.6534-17.203 14.153-24.223 22.699-10.264 12.494-18.421 26.693-25.648 41.141-9.9883 19.967-18.756 40.79-24.223 62.421-4.6724 18.486-6.73 37.688-7.1245 56.747-0.2357 11.386 3.0522 22.661 2.8498 34.048-0.24474 13.77 3.8091 36.289-2.8835 45.113-12.357 8.0779-41.588 5.0681-58.298 5.8416-0.64008-20.35 0.47934-452.34 0.50869-578.98z" fill-rule="evenodd" stroke="#000" stroke-width=".99782px"/>
 <text style="word-spacing:0px;letter-spacing:0px" xml:space="preserve" font-size="40px" y="534.67395" x="1349.2291" line-height="125%"><tspan y="534.67395" x="1349.2291"/></text>
</svg>
