<svg xmlns:rdf="http://www.w3.org/1999/02/22-rdf-syntax-ns#" xmlns="http://www.w3.org/2000/svg" height="750" width="600" version="1.1" xmlns:cc="http://creativecommons.org/ns#" xmlns:dc="http://purl.org/dc/elements/1.1/" viewBox="0 0 600.00001 750.00001">
 <g transform="translate(-303.83,327.22)">
  <title>Layer 1</title>
 </g>
 <path d="m39.334 0.4232s-2.5742 154.51-0.45588 179.44c1.2206 14.365 15.022 16.853 18.051 30.636 1.2833 5.8393-8.2148 11.979-5.4655 16.617 0.76156 1.2846 2.199 1.4767 2.9056 2.8266 4.9575 9.4714 7.7481 22.002 7.7481 33.92 0.24056 19.91-6.2623 8.9738-10.287 17.952-4.7196 11.377-8.4072 17.035-10.052 30.115-1.3604 10.817 7.6495 42.734 7.0014 53.691-0.38866 6.571-2.8282 14.642 0 19.786 1.8624 3.388 5.746 2.5581 8.7167 2.8266 6.7972 0.61435 13.71-0.55072 20.339-2.8266 4.3772-1.5027 8.1696-5.8687 12.591-7.0665 1.2696-0.34401 18.549-11.778 19.627-10.741 2.0526 1.9751-8.8057 15.633-8.5511 19.202 0.34096 4.7785-4.636 11.364-6.2333 15.566-3.6566 9.617-11.693 14.1-16.465 22.613-6.9767 12.447-22.158 13.478-27.07 27.871-4.4382 44.092-10.985 90.053-11.671 131.83-0.16021 11.343 2.0746 22.575 1.9371 33.92-0.16636 13.718 13.095 122.19 8.546 130.98-10.346 0.0223-39.261-0.0572-50.133 0 0.051631-20.273-0.01995-623 0-749.16 27.513-0.056753 26.114 0.10174 38.92 0z" fill-rule="evenodd" stroke="#000" stroke-width=".82110px"/>
 <text style="word-spacing:0px;letter-spacing:0px" xml:space="preserve" font-size="40px" y="704.67395" x="1349.2291" line-height="125%"><tspan y="704.67395" x="1349.2291"/></text>
 <text style="word-spacing:0px;letter-spacing:0px" xml:space="preserve" font-size="40px" y="260.9422" x="22.197353" font-family="sans-serif" line-height="125%" fill="#000000"><tspan x="22.197353" y="260.9422"/></text>
</svg>
