<svg xmlns:rdf="http://www.w3.org/1999/02/22-rdf-syntax-ns#" xmlns="http://www.w3.org/2000/svg" height="61.265mm" width="60.942mm" version="1.1" xmlns:cc="http://creativecommons.org/ns#" xmlns:xlink="http://www.w3.org/1999/xlink" viewBox="0 0 215.93696 217.0791" xmlns:dc="http://purl.org/dc/elements/1.1/">
 <defs>
  <linearGradient id="a">
   <stop stop-color="#1b100c" offset="0"/>
   <stop stop-color="#3a2818" stop-opacity=".99608" offset=".66955"/>
   <stop stop-color="#ad6312" offset="1"/>
  </linearGradient>
  <radialGradient id="bb" xlink:href="#a" gradientUnits="userSpaceOnUse" cy="10.05" cx="139.06" gradientTransform="matrix(1 0 0 .73033 0 2.7102)" r="3.8808"/>
  <radialGradient id="ba" xlink:href="#a" gradientUnits="userSpaceOnUse" cy="135.01" cx="122.27" gradientTransform="matrix(1 0 0 .73299 0 36.05)" r="3.8668"/>
  <radialGradient id="az" xlink:href="#a" gradientUnits="userSpaceOnUse" cy="78.127" cx="117.56" gradientTransform="matrix(1 0 0 1.0218 0 -1.7034)" r="6.3433"/>
  <radialGradient id="ay" xlink:href="#a" gradientUnits="userSpaceOnUse" cy="122.85" cx="152.78" gradientTransform="matrix(1 0 0 .96558 0 4.2282)" r="4.7273"/>
  <radialGradient id="ax" xlink:href="#a" gradientUnits="userSpaceOnUse" cy="114.33" cx="139.02" gradientTransform="matrix(1 0 0 1.4761 0 -54.431)" r="6.8704"/>
  <radialGradient id="aw" xlink:href="#a" gradientUnits="userSpaceOnUse" cy="149.81" cx="67.881" gradientTransform="matrix(1 0 0 1.7856 0 -117.69)" r="4.6244"/>
  <radialGradient id="av" xlink:href="#a" gradientUnits="userSpaceOnUse" cy="142.94" cx="58.189" gradientTransform="matrix(1 0 0 1.3249 0 -46.438)" r="3.1545"/>
  <radialGradient id="au" xlink:href="#a" gradientUnits="userSpaceOnUse" cy="148.54" cx="128.01" gradientTransform="matrix(1 0 0 1.3296 0 -48.959)" r="3.1431"/>
  <radialGradient id="at" xlink:href="#a" gradientUnits="userSpaceOnUse" cy="19.255" cx="81.858" gradientTransform="matrix(1 0 0 1.4993 0 -9.614)" r="8.0599"/>
  <radialGradient id="as" xlink:href="#a" gradientUnits="userSpaceOnUse" cy="112.5" cx="72.967" gradientTransform="matrix(1 0 0 1.1934 0 -21.76)" r="15.847"/>
  <radialGradient id="ar" xlink:href="#a" gradientUnits="userSpaceOnUse" cy="103.37" cx="58.536" gradientTransform="matrix(1 0 0 1.2488 0 -25.716)" r="3.0433"/>
  <radialGradient id="aq" xlink:href="#a" gradientUnits="userSpaceOnUse" cy="50.399" cx="87.184" gradientTransform="matrix(1 0 0 1.1331 0 -6.7063)" r="7.5666"/>
  <radialGradient id="ap" xlink:href="#a" gradientUnits="userSpaceOnUse" cy="111.56" cx="83.905" gradientTransform="matrix(1 0 0 1.844 0 -94.161)" r="33.677"/>
  <radialGradient id="ao" xlink:href="#a" gradientUnits="userSpaceOnUse" cy="86.084" cx="144.07" gradientTransform="matrix(1 0 0 1.6459 0 -55.605)" r="9.8787"/>
  <radialGradient id="an" xlink:href="#a" gradientUnits="userSpaceOnUse" cy="110.49" cx="92.173" gradientTransform="matrix(1 0 0 1.3777 0 -41.737)" r="1.6054"/>
  <radialGradient id="am" xlink:href="#a" gradientUnits="userSpaceOnUse" cy="38.371" cx="141.46" gradientTransform="matrix(1 0 0 1.6495 0 -24.921)" r="5.8146"/>
  <radialGradient id="al" xlink:href="#a" gradientUnits="userSpaceOnUse" cy="109.16" cx="160.9" gradientTransform="matrix(1 0 0 1.1877 0 -20.493)" r="3.5214"/>
  <radialGradient id="ak" xlink:href="#a" gradientUnits="userSpaceOnUse" cy="44.056" cx="25.963" gradientTransform="matrix(1 0 0 1.378 0 -16.654)" r="3.1599"/>
  <radialGradient id="aj" xlink:href="#a" gradientUnits="userSpaceOnUse" cy="71.387" cx="68.254" gradientTransform="matrix(1 0 0 1.7969 0 -56.888)" r="9.7201"/>
  <radialGradient id="ai" xlink:href="#a" gradientUnits="userSpaceOnUse" cy="159.08" cx="109.77" gradientTransform="matrix(1 0 0 1.3744 0 -59.565)" r="9.1389"/>
  <radialGradient id="ah" xlink:href="#a" gradientUnits="userSpaceOnUse" cy="58.343" cx="121.34" gradientTransform="matrix(1 0 0 .83319 0 9.7321)" r="2.7104"/>
  <radialGradient id="ag" xlink:href="#a" gradientUnits="userSpaceOnUse" cy="55.275" cx="148.78" gradientTransform="matrix(1 0 0 1.5249 0 -29.011)" r="6.2729"/>
  <radialGradient id="af" xlink:href="#a" gradientUnits="userSpaceOnUse" cy="22.151" cx="143.75" gradientTransform="matrix(1 0 0 1.3919 0 -8.6812)" r="4.5778"/>
  <radialGradient id="ae" xlink:href="#a" gradientUnits="userSpaceOnUse" cy="34.55" cx="108.13" gradientTransform="matrix(1 0 0 1.6365 0 -21.991)" r="1.228"/>
  <radialGradient id="ad" xlink:href="#a" gradientUnits="userSpaceOnUse" cy="14.868" cx="110.92" gradientTransform="matrix(1 0 0 1.9624 0 -14.309)" r="7.5765"/>
  <radialGradient id="ac" xlink:href="#a" gradientUnits="userSpaceOnUse" cy="33.119" cx="161.77" gradientTransform="matrix(1 0 0 1.947 0 -31.365)" r="8.3572"/>
  <radialGradient id="ab" xlink:href="#a" gradientUnits="userSpaceOnUse" cy="42.415" cx="131.83" gradientTransform="matrix(1 0 0 1.3525 0 -14.953)" r="3.6264"/>
  <radialGradient id="aa" xlink:href="#a" gradientUnits="userSpaceOnUse" cy="84.449" cx="20.204" gradientTransform="matrix(1 0 0 1.3492 0 -29.49)" r="3.6353"/>
  <radialGradient id="z" xlink:href="#a" gradientUnits="userSpaceOnUse" cy="96.794" cx="165.37" gradientTransform="matrix(1 0 0 1.5998 0 -58.053)" r="7.3773"/>
  <radialGradient id="y" xlink:href="#a" gradientUnits="userSpaceOnUse" cy="97.171" cx="49.638" gradientTransform="matrix(1 0 0 1.646 0 -62.773)" r="5.8267"/>
  <radialGradient id="x" xlink:href="#a" gradientUnits="userSpaceOnUse" cy="57.956" cx="40.264" gradientTransform="matrix(1 0 0 1.1875 0 -10.866)" r="3.522"/>
  <radialGradient id="w" xlink:href="#a" gradientUnits="userSpaceOnUse" cy="104.81" cx="122.88" gradientTransform="matrix(1 0 0 1.7278 0 -76.287)" r="13.227"/>
  <radialGradient id="v" xlink:href="#a" gradientUnits="userSpaceOnUse" cy="115.04" cx="31.171" gradientTransform="matrix(1 0 0 1.5682 0 -65.366)" r="2.0794"/>
  <radialGradient id="u" xlink:href="#a" gradientUnits="userSpaceOnUse" cy="149.84" cx="99.153" gradientTransform="matrix(1 0 0 1.5811 0 -87.075)" r="2.0629"/>
  <radialGradient id="t" xlink:href="#a" gradientUnits="userSpaceOnUse" cy="9.1843" cx="60.636" gradientTransform="matrix(1 0 0 .37591 0 5.7319)" r="11.785"/>
  <radialGradient id="s" xlink:href="#a" gradientUnits="userSpaceOnUse" cy="83.536" cx="102.49" gradientTransform="matrix(1 0 0 1.5076 0 -42.4)" r="9.065"/>
  <radialGradient id="r" xlink:href="#a" gradientUnits="userSpaceOnUse" cy="43.751" cx="64.17" gradientTransform="matrix(1 0 0 1.6359 0 -27.821)" r="1.228"/>
  <radialGradient id="q" xlink:href="#a" gradientUnits="userSpaceOnUse" cy="68.099" cx="14.278" gradientTransform="matrix(1 0 0 1.4065 0 -27.682)" r="1.7477"/>
  <radialGradient id="p" xlink:href="#a" gradientUnits="userSpaceOnUse" cy="166.55" cx="115.74" gradientTransform="matrix(1 0 0 1.6353 0 -105.82)" r="1.2287"/>
  <radialGradient id="o" xlink:href="#a" gradientUnits="userSpaceOnUse" cy="57.812" cx="10.338" gradientTransform="matrix(1 0 0 1.3534 0 -20.432)" r="10.338"/>
  <radialGradient id="n" xlink:href="#a" gradientUnits="userSpaceOnUse" cy="101.92" cx="24.605" gradientTransform="matrix(1 0 0 1.947 0 -96.515)" r="8.3576"/>
  <radialGradient id="m" xlink:href="#a" gradientUnits="userSpaceOnUse" cy="76.449" cx="53.267" gradientTransform="matrix(1 0 0 1.3557 0 -27.192)" r="3.6179"/>
  <radialGradient id="l" xlink:href="#a" gradientUnits="userSpaceOnUse" cy="26.59" cx="124.47" gradientTransform="matrix(1 0 0 1.2586 0 -6.8759)" r="13.062"/>
  <radialGradient id="k" xlink:href="#a" gradientUnits="userSpaceOnUse" cy="94.492" cx="89.07" gradientTransform="matrix(1 0 0 1.6021 0 -56.894)" r="2.4748"/>
  <radialGradient id="j" xlink:href="#a" gradientUnits="userSpaceOnUse" cy="57.542" cx="53.169" gradientTransform="matrix(1 0 0 1.3328 0 -19.148)" r="7.3383"/>
  <radialGradient id="i" xlink:href="#a" gradientUnits="userSpaceOnUse" cy="23.892" cx="39.777" gradientTransform="matrix(1 0 0 1.6857 0 -16.382)" r="2.4357"/>
  <radialGradient id="h" xlink:href="#a" gradientUnits="userSpaceOnUse" cy="44.471" cx="38.451" gradientTransform="matrix(1 0 0 1.2881 0 -12.812)" r="5.621"/>
  <radialGradient id="g" xlink:href="#a" gradientUnits="userSpaceOnUse" cy="140.39" cx="107.66" gradientTransform="matrix(1 0 0 .56613 0 60.913)" r="9.9642"/>
  <radialGradient id="f" xlink:href="#a" gradientUnits="userSpaceOnUse" cy="35.356" cx="74.083" gradientTransform="matrix(1 0 0 .96398 0 1.2737)" r="7.9232"/>
  <radialGradient id="e" xlink:href="#a" gradientUnits="userSpaceOnUse" cy="30.46" cx="52.992" gradientTransform="matrix(1 0 0 1.2001 0 -6.0941)" r="13.812"/>
  <radialGradient id="d" xlink:href="#a" gradientUnits="userSpaceOnUse" cy="155.48" cx="57.663" gradientTransform="matrix(1 0 0 .78890 0 32.823)" r="9.9433"/>
  <radialGradient id="c" xlink:href="#a" gradientUnits="userSpaceOnUse" cy="136.9" cx="30.544" gradientTransform="matrix(1 0 0 1.1325 0 -18.137)" r="11.32"/>
  <radialGradient id="b" xlink:href="#a" gradientUnits="userSpaceOnUse" cy="128.19" cx="47.966" gradientTransform="matrix(1 0 0 1.1891 0 -24.242)" r="7.6876"/>
 </defs>
 <g transform="translate(-51.098 -423.82)">
  <g transform="matrix(1.25 0 0 -1.25 51.098 640.9)" fill="#85570e">
   <g fill-rule="evenodd">
    <path d="m135.18 9.531c0.051 1.067 0.957 1.973 2.719 2.719 1.812 0.773 3.265 0.84 4.359 0.199 0.906-0.531 0.906-1.199 0-2-0.508-0.453-1.442-1.211-2.801-2.277-0.828-0.856-1.762-1.137-2.801-0.844-1.039 0.27-1.531 1.004-1.476 2.203z" fill="url(#bb)"/>
    <path d="m118.41 134.49c0.051 1.067 0.961 1.977 2.719 2.723 1.789 0.773 3.226 0.84 4.32 0.199 0.906-0.535 0.922-1.199 0.039-2-1.332-0.961-2.265-1.719-2.801-2.281-0.824-0.852-1.757-1.133-2.796-0.84-1.04 0.266-1.536 1-1.481 2.199z" fill="url(#ba)"/>
    <path d="m111.97 78.012c0.293 1.597 1.043 3.089 2.242 4.476 1.25 1.414 2.48 2.121 3.68 2.121 1.066-0.027 1.972-0.398 2.718-1.121 0.082-0.078 0.867-1.078 2.36-3 1.679-2.078 1.082-3.863-1.797-5.359-1.016-0.531-3.43-1.57-7.242-3.117-1.735-0.723-2.641-0.375-2.719 1.039 0 0.265 0.25 1.918 0.758 4.961z" fill="url(#az)"/>
    <path d="m148.22 125.57c0.426 1.121 1.652 1.735 3.68 1.84 1.972 0.078 3.464-0.359 4.48-1.32 0.906-0.852 1.266-1.625 1.078-2.321-0.105-0.48-0.547-1.039-1.316-1.679-0.723-0.696-1.309-1.227-1.762-1.602-0.824-0.664-1.84-1.277-3.039-1.84-1.121-0.504-1.668-0.476-1.641 0.082v2c-0.535 0.907-0.933 1.625-1.199 2.161-0.48 0.984-0.578 1.878-0.281 2.679z" fill="url(#ay)"/>
    <path d="m135.22 121.77c0.906 1.282 2.332 2.106 4.277 2.481 1.254 0.238 2.281 0.281 3.082 0.121 0.215-0.055 0.559-0.52 1.039-1.402 0.828-1.52 1.375-2.493 1.641-2.918 1.039-1.68 0.789-4.36-0.758-8.039-0.988-2.403-2.402-4.828-4.242-7.282-0.641-0.855-1.305-0.707-2 0.442-0.879 1.785-1.625 3.16-2.238 4.117-0.403 0.668-1.067 1.629-2 2.883-0.586 0.797-1.11 1.691-1.563 2.679-0.504 1.067-0.398 2.239 0.32 3.52 0.403 0.746 1.215 1.879 2.442 3.398z" fill="url(#ax)"/>
    <path d="m65.133 152.05c0.535 1.519 1.242 2.984 2.121 4.398 1.066 1.656 1.773 2.039 2.121 1.16 1.465-3.574 2.48-6.691 3.039-9.359 0.32-1.359-0.199-2.68-1.559-3.961-0.507-0.48-1.656-1.293-3.441-2.438-0.668-0.457-1.187-0.386-1.559 0.2-0.613 0.933-1.203 1.519-1.761 1.758-0.879 0.347-1.067 1.535-0.559 3.562 0.078 0.344 0.613 1.906 1.598 4.68z" fill="url(#aw)"/>
    <path d="m55.535 145.65c0.774 1.575 1.906 1.883 3.399 0.922 1.199-0.773 1.972-1.601 2.32-2.48 0.16-0.399 0.105-0.985-0.16-1.758-0.266-0.777-0.602-1.375-1-1.801-0.614-0.695-1.121-1.16-1.52-1.402-0.719-0.453-1.347-0.492-1.879-0.117-0.695 0.476-1.187 1.398-1.48 2.757-0.32 1.497-0.215 2.786 0.32 3.879z" fill="url(#av)"/>
    <path d="m131.09 149.69c0.133-0.402 0.066-0.988-0.199-1.761-0.243-0.774-0.559-1.375-0.961-1.801-0.614-0.692-1.118-1.16-1.52-1.399-0.719-0.453-1.348-0.492-1.879-0.121-0.695 0.481-1.187 1.403-1.48 2.762-0.321 1.465-0.215 2.758 0.32 3.879 0.773 1.574 1.906 1.879 3.398 0.922 1.2-0.778 1.973-1.602 2.321-2.481z" fill="url(#au)"/>
    <path d="m80.016 29.41c0.851 0.746 2.023 1.305 3.519 1.68 1.574 0.398 2.68 0.32 3.32-0.239 0.985-0.882 1.985-3.816 3-8.8 0.293-1.492-0.441-3.629-2.203-6.403-1.332-2.105-3.023-4.265-5.078-6.476-1.414-1.524-2.613-2.176-3.601-1.961-0.559 0.133-1.184 0.652-1.879 1.558-0.348 0.454-0.762 1.309-1.239 2.559-0.695 1.922-1.203 3.227-1.523 3.922-0.559 1.226-0.68 2.238-0.359 3.039 0.613 1.066 1.121 2.121 1.519 3.16 0.906 2.266 1.524 3.735 1.84 4.399 0.75 1.468 1.641 2.656 2.684 3.562z" fill="url(#at)"/>
    <path d="m87.974 114.61c0.399-1.121 0.653-2.398 0.758-3.84 0.055-0.851 0.082-2.453 0.082-4.8 0-2.637-0.652-5.184-1.961-7.637-0.719-1.387-1.387-2.387-2-3-1.492-1.441-3.879-1.988-7.16-1.641l-4.438 0.918c-0.429 0-0.8-0.039-1.121-0.121-1.468-0.238-2.906 0.481-4.32 2.16-1.332 1.977-2.254 3.215-2.762 3.723v0.078l-0.32 0.242c-0.586 0.348-1.223 1.094-1.918 2.239-0.879 1.414-1.398 2.214-1.559 2.402-0.453 0.504-0.734 1.172-0.839 2-0.055 0.426-0.082 1.316-0.082 2.68 0.027 0.851-0.254 1.824-0.84 2.918-0.774 1.281-1.36 2.265-1.762 2.961-0.211 0.425-0.398 0.933-0.559 1.519-0.105 0.641-0.054 1.414 0.161 2.32 0.054 0.239 0.347 1.2 0.878 2.879 0.43 1.36 1.137 2.629 2.122 3.801l0.281 0.32c1.492 1.602 3.359 2.852 5.597 3.758 2 0.801 3.547 1.082 4.641 0.844l0.442-0.121c1.917-0.535 4.785-2.348 8.597-5.442l1.203-1.078c1.438-1.386 3.278-3.816 5.52-7.281 0.586-0.879 1.051-1.801 1.398-2.762l-0.039-0.039z" fill="url(#as)"/>
    <path d="m55.613 105.53c0.242 1.278 0.813 1.813 1.719 1.598 0.723-0.16 1.281-0.559 1.684-1.199 0.851-1.387 1.359-2.227 1.519-2.52 0.746-1.414 1.094-2.492 1.039-3.238-0.027-0.723-0.535-0.789-1.519-0.203-1.309 0.906-2.266 1.496-2.879 1.761-0.801 0.321-1.321 0.907-1.563 1.758-0.16 0.641-0.16 1.321 0 2.043z" fill="url(#ar)"/>
    <path d="m82.414 58.73c0.481 0.293 1.84 0.321 4.078 0.082 2.457-0.242 4.188-0.722 5.203-1.441 1.067-0.773 1.879-2.094 2.438-3.961 0.535-1.734 0.722-3.398 0.562-5-0.269-2.961-1.242-5.094-2.922-6.398-0.585-0.426-1.281-0.121-2.078 0.918-0.988 1.254-1.761 1.921-2.32 2-0.773 0.132-1.398 0.425-1.879 0.882-0.508 0.637-0.961 1.161-1.363 1.559-1.09 0.934-1.957 1.746-2.598 2.441-1.148 1.305-1.773 2.653-1.879 4.039-0.109 1.172 0.012 2.079 0.36 2.719 0.398 0.774 1.199 1.492 2.398 2.16z" fill="url(#aq)"/>
    <g fill="url(#ap)">
     <path d="m75.016 55.93c0.293 0.773 0.918 0.707 1.879-0.2 0.32-0.265 0.558-0.64 0.718-1.121 0.082-0.183 0.309-1.078 0.68-2.679 0.32-1.282 0.32-2.067 0-2.36-0.32-0.265-0.813-0.039-1.481 0.68-0.773 0.828-1.332 1.695-1.679 2.601-0.426 1.09-0.465 2.118-0.117 3.079z"/>
     <path d="m110.06 172.93c0.32-0.266 0.558-0.641 0.718-1.121 0.055-0.161 0.293-1.051 0.719-2.68 0.32-1.278 0.309-2.067-0.039-2.36-0.32-0.265-0.812-0.039-1.48 0.68-0.774 0.828-1.332 1.695-1.68 2.602-0.426 1.093-0.469 2.121-0.121 3.078 0.293 0.773 0.922 0.707 1.883-0.199z"/>
     <path d="m114.65 122.17c0.188 0.316 0.696 0.039 1.524-0.84 0.797-0.883 1.25-1.629 1.359-2.242 0.106-0.696 0.039-1.281-0.203-1.758-0.316-0.563-0.758-0.707-1.316-0.441-0.618 0.293-1.082 1.078-1.403 2.359-0.32 1.281-0.304 2.254 0.039 2.922z"/>
     <path d="m50.332 120.49c0.188 0.508 0.508 0.59 0.961 0.242 0.48-0.32 0.68-0.867 0.602-1.64-0.106-0.801-0.454-0.934-1.04-0.399-0.589 0.559-0.761 1.16-0.523 1.797z"/>
    </g>
    <path d="m150.7 94.57c1.039-1.226 1.785-2.304 2.239-3.238 0.718-1.387 1.054-3.027 1-4.922-0.028-1.066-0.079-2.734-0.161-5 0.614-7.226-0.414-11.066-3.078-11.519-1.414-0.215-3.093 0.093-5.043 0.918-1.679 0.718-3.144 1.628-4.398 2.718-2 1.735-4.039 4.137-6.121 7.203-0.797 1.254-1.09 2.614-0.879 4.079 0.082 0.667 0.266 1.496 0.558 2.48 0.376 1.094 0.641 1.906 0.801 2.441 0.055 0.188 0.348 1.481 0.879 3.879 0.348 1.575 0.789 2.813 1.32 3.723 0.293 0.531 0.696 0.984 1.204 1.359 0.293 0.239 0.773 0.586 1.437 1.039 0.402 0.293 1 0.868 1.801 1.719 0.746 0.668 1.469 0.961 2.16 0.883 0.828-0.109 1.602-0.75 2.32-1.922 0.371-0.668 0.868-1.601 1.481-2.801 0.265-0.371 1.094-1.386 2.48-3.039z" fill="url(#ao)"/>
    <path d="m91.173 112.29c0.454 0.695 1.122 0.52 2-0.52 0.879-1.011 0.801-1.972-0.238-2.878-1.066-0.907-1.789-0.801-2.16 0.32-0.375 1.121-0.242 2.144 0.398 3.078z" fill="url(#an)"/>
    <path d="m146.25 42.531c0.851-0.48 1.172-1.84 0.961-4.082-0.188-2-0.629-3.625-1.32-4.879-0.586-1.066-1.493-2.148-2.719-3.242-1.387-1.172-2.469-1.68-3.242-1.519-0.879 0.214-1.813 1.281-2.801 3.203-1.039 2.05-1.531 3.984-1.481 5.797 0.028 1.601 0.977 3.414 2.84 5.441 1.016 1.094 2.442 2.519 4.281 4.281 0.75 0.852 1.348 0.442 1.801-1.242 0.586-2.211 1.149-3.465 1.68-3.758z" fill="url(#am)"/>
    <path d="m160.73 105.05c-1.015-0.215-1.906 0.027-2.679 0.718-1.121 1.016-0.84 3.161 0.84 6.442 0.64 1.305 2.16 1.48 4.558 0.519 0.719-0.293 1.039-1.121 0.961-2.48-0.082-1.305-0.492-2.492-1.242-3.559-0.637-0.906-1.449-1.453-2.438-1.64z" fill="url(#al)"/>
    <path d="m28.973 42.769c-0.211-1.093-0.731-1.918-1.559-2.48-0.855-0.613-1.773-0.746-2.762-0.398-1.437 0.453-2.039 2.519-1.797 6.199 0.106 1.492 1.438 2.265 4 2.32 0.774 0.027 1.387-0.601 1.84-1.883 0.453-1.25 0.547-2.504 0.278-3.758z" fill="url(#ak)"/>
    <path d="m60.773 82.172c0.375 1.277 1.387 2.746 3.039 4.398 1.415 1.414 2.348 2.172 2.801 2.281 0.293 0.051 1.575-1.054 3.84-3.32 2.481-2.453 4.359-4.601 5.641-6.441 1.281-1.813 1.906-3.852 1.879-6.117 0-1.204-0.332-3.684-1-7.442-0.504-2.801-1.653-5.254-3.438-7.359-1.652-1.949-3.64-3.309-5.961-4.082-1.707-0.559-2.719 0.265-3.039 2.48-0.562 4-1.015 6.375-1.359 7.121-0.535 1.2-1.215 2.868-2.043 5-0.531 1.387-1.16 2.692-1.879 3.918-0.801 1.332-0.934 2.801-0.399 4.403 0.879 2 1.52 3.718 1.918 5.16z" fill="url(#aj)"/>
    <path d="m117.93 159.81c0.187-0.879 0.453-2.493 0.8-4.84 0.293-1.118 0.227-2.785-0.199-5-0.375-1.813-0.683-2.907-0.922-3.278-0.16-0.215-1.437-0.226-3.84-0.043-2.613 0.188-4.707 0.536-6.281 1.043-1.57 0.504-2.812 1.559-3.719 3.16-0.453 0.797-1.214 2.747-2.281 5.84-0.801 2.293-1.039 4.719-0.719 7.278 0.321 2.425 1.082 4.613 2.282 6.562 0.879 1.438 1.867 1.481 2.961 0.117 1.972-2.453 3.226-3.839 3.757-4.16 0.774-0.476 1.879-1.238 3.321-2.277 0.906-0.641 1.84-1.16 2.801-1.563 1.066-0.453 1.746-1.398 2.039-2.839z" fill="url(#ai)"/>
    <path d="m119.13 56.289c-0.586 0.242-0.653 0.867-0.199 1.883 0.425 1.094 1.187 1.812 2.281 2.16 1.039 0.344 1.785 0.359 2.238 0.039 0.32-0.266 0.52-0.812 0.602-1.641 0.05-0.718-0.535-1.398-1.762-2.039-1.254-0.64-2.305-0.773-3.16-0.402z" fill="url(#ah)"/>
    <path d="m142.93 58.371c-0.536 1.867-0.559 3.52-0.082 4.957 0.48 1.52 1.347 1.895 2.601 1.121 0.961-0.613 1.719-1.707 2.281-3.281 0.481-1.387 0.907-2.117 1.282-2.199 0.531-0.106 1.144-0.625 1.839-1.559 0.426-0.562 1.227-1.695 2.399-3.402 1.148-1.492 1.746-2.774 1.801-3.84 0.05-1.227-0.535-2.598-1.762-4.117-0.481-0.59-1.52-0.414-3.117 0.519-1.817 1.199-3.016 1.946-3.602 2.239-0.719 0.375-1.426 1.64-2.121 3.8-0.691 2.696-1.199 4.614-1.519 5.762z" fill="url(#ag)"/>
    <path d="m139.25 24.332c0.187 0.879 0.812 1.625 1.879 2.238 0.347 0.215 1.547 0.746 3.601 1.602 1.172 0.504 1.907 0.465 2.2-0.121 0.187-0.399 0.546-1.442 1.082-3.121 0.613-1.278 0.32-2.852-0.883-4.719-1.039-1.598-2.332-2.879-3.879-3.84-1.359-0.906-2.227-0.773-2.602 0.402-0.664 2.344-1 3.532-1 3.559-0.453 1.812-0.586 3.144-0.398 4z" fill="url(#af)"/>
    <path d="m108.29 32.648c-0.481-0.343-0.891 0.137-1.238 1.442-0.321 1.308-0.133 2.094 0.558 2.359 0.801 0.32 1.348-0.051 1.641-1.117 0.293-1.094-0.027-1.988-0.961-2.684z" fill="url(#ae)"/>
    <path d="m103.41 17.41c-0.293 3.305 0.387 6.238 2.039 8.801 1.387 2.133 2.789 3.305 4.199 3.519 0.828 0.106 1.868-1.148 3.121-3.761 1.602-3.305 2.735-5.305 3.403-6 1.039-1.118 1.625-2.641 1.758-4.559 0.082-1.066 0.148-2.601 0.199-4.601 0.801-4.852 0.293-8.106-1.52-9.758-1.547-1.387-3.465-1.403-5.758-0.039-1.921 1.089-3.562 3.183-4.921 6.277-1.36 3.016-2.2 6.387-2.52 10.121z" fill="url(#ad)"/>
    <path d="m160.06 22.73c-1.2 1.149-2.387 1.536-3.563 1.161-1.68-0.508-2.703 2.8-3.078 9.918-0.082 1.386 0.492 3.652 1.719 6.8 1.359 3.52 2.867 6.082 4.519 7.68 1.496 1.469 2.668 1.469 3.52 0 0.48-0.879 1.148-2.48 2-4.801 0.562-0.984 1.426-2.851 2.601-5.597 1.118-2.614 1.84-4.188 2.161-4.719 0.398-0.696 0.16-2.242-0.719-4.641-0.481-1.359-1.293-3.492-2.442-6.402-0.906-2.879-1.812-4.586-2.718-5.117-0.828-0.481-1.414 0.093-1.762 1.718-0.344 1.602-1.094 2.934-2.238 4z" fill="url(#ac)"/>
    <path d="m135.29 41.769c-0.238-0.933-0.918-1.972-2.039-3.121-1.199-1.199-2-1.449-2.399-0.757-0.855 1.332-1.48 2.414-1.882 3.238-0.774 1.574-0.957 2.789-0.559 3.64 0.398 0.907 1.012 1.547 1.84 1.922 0.453 0.239 1.199 0.438 2.238 0.598 0.801 0.16 1.551-0.305 2.242-1.398 0.719-1.2 0.907-2.575 0.559-4.122z" fill="url(#ab)"/>
    <path d="m23.652 83.809c-0.238-0.958-0.918-2.012-2.039-3.161-1.199-1.172-2-1.41-2.398-0.718-0.856 1.308-1.481 2.386-1.883 3.242-0.773 1.57-0.957 2.785-0.559 3.64 0.403 0.879 1.016 1.52 1.84 1.918 0.403 0.188 1.149 0.387 2.242 0.602 0.825 0.133 1.571-0.348 2.239-1.441 0.746-1.176 0.933-2.536 0.558-4.082z" fill="url(#aa)"/>
    <path d="m158.18 95.012c0.316 1.89 0.972 3.625 1.957 5.199 1.015 1.598 2.265 3.25 3.762 4.961 1.812 2.051 3.183 3.183 4.117 3.398 0.8 0.188 1.48-0.652 2.043-2.519 0.851-2.856 1.41-4.52 1.679-5 0.746-1.336 1.078-2.946 1-4.84-0.082-1.469-0.441-3.32-1.082-5.563-1.011-3.543-3.144-5.425-6.398-5.636-3.094-0.188-5.199 0.945-6.32 3.398-0.907 2.027-1.161 4.227-0.758 6.602z" fill="url(#z)"/>
    <path d="m43.812 96.609c0.028 1.602 0.977 3.414 2.84 5.442 2.188 2.054 3.614 3.48 4.282 4.281 0.746 0.852 1.347 0.437 1.8-1.242 0.586-2.215 1.149-3.465 1.68-3.758 0.852-0.481 1.188-1.844 1-4.082-0.187-2-0.641-3.625-1.359-4.879-0.586-1.066-1.496-2.148-2.723-3.242-1.383-1.172-2.449-1.68-3.199-1.52-0.879 0.215-1.813 1.282-2.801 3.2-1.039 2.027-1.543 3.96-1.52 5.8z" fill="url(#y)"/>
    <path d="m38.254 61.012c0.641 1.304 2.16 1.476 4.558 0.515 0.723-0.289 1.043-1.117 0.961-2.476-0.078-1.309-0.48-2.496-1.199-3.563-0.64-0.906-1.453-1.453-2.441-1.64-1.039-0.211-1.945 0.027-2.719 0.722-1.121 1.012-0.84 3.16 0.84 6.442z" fill="url(#x)"/>
    <path d="m132.41 109.17c0.746-1.735 1.625-3.336 2.641-4.801 1.121-1.629 1.347-3.535 0.679-5.723-0.398-1.304-1.226-3.664-2.48-7.078-0.453-1.734-1.785-3.812-4-6.238-1.895-2.055-3.133-3.176-3.719-3.359-0.402-0.137-2.187 1.105-5.359 3.718-3.387 2.825-5.988 5.36-7.801 7.598-1.762 2.187-2.668 4.773-2.719 7.762-0.027 1.492 0.371 4.773 1.199 9.84 0.614 3.757 2.094 7.148 4.438 10.16 2.242 2.824 4.91 4.906 8 6.238 2.32 0.988 3.723 0.055 4.203-2.801 0.133-0.851 0.332-2.316 0.598-4.398 0.293-1.918 0.761-3.481 1.402-4.68 0.746-1.414 1.719-3.492 2.918-6.238z" fill="url(#w)"/>
    <path d="m30.613 112.69c-0.961 0.934-1.465 2.012-1.519 3.239-0.028 1.226 0.187 1.972 0.64 2.242 0.375 0.211 0.985 0.172 1.84-0.121 0.746-0.266 1.266-1.16 1.559-2.68 0.265-1.52 0.082-2.641-0.559-3.359-0.398-0.457-1.054-0.227-1.961 0.679z" fill="url(#v)"/>
    <path d="m100.54 146.81c-0.402-0.454-1.055-0.227-1.961 0.679-0.961 0.934-1.453 2.016-1.48 3.242-0.055 1.227 0.16 1.973 0.64 2.239 0.348 0.215 0.946 0.175 1.801-0.118 0.746-0.269 1.266-1.16 1.559-2.679 0.265-1.524 0.082-2.641-0.559-3.363z" fill="url(#u)"/>
    <path d="m72.414 6.09c0.106-0.531-0.879-0.891-2.961-1.078-2.453-0.082-4.039-0.161-4.758-0.243-0.906-0.105-2.562 0.348-4.961 1.36-2.851 1.281-4.906 2.199-6.16 2.762-2 0.878-3.414 1.851-4.242 2.918-0.906 1.121-0.531 1.718 1.121 1.8 1.309 0.051 2.84-0.254 4.602-0.922 1.597-0.613 2.574-0.863 2.918-0.757 0.535 0.16 1.468 0.121 2.8-0.121 0.829-0.133 2.442-0.454 4.84-0.958 2.16-0.375 3.719-0.867 4.68-1.48 1.121-0.723 1.828-1.812 2.121-3.281z" fill="url(#t)"/>
    <path d="m100.97 95.531c1.816 1.707 3.187 2.106 4.121 1.199 0.668-0.668 2.094-2.414 4.281-5.242 2.105-2 2.691-5.172 1.758-9.515-0.801-3.735-2.305-7.043-4.52-9.922-1.918-2.559-3.613-2.867-5.078-0.918-2.242 2.957-3.734 4.972-4.48 6.039-2.11 3.172-3.293 5.625-3.563 7.359-0.265 1.813 0.36 3.653 1.883 5.52 0.559 0.664 2.426 2.492 5.598 5.48z" fill="url(#s)"/>
    <path d="m64.332 41.851c-0.477-0.347-0.891 0.133-1.238 1.438-0.321 1.309-0.133 2.094 0.558 2.359 0.801 0.321 1.348-0.05 1.641-1.117 0.293-1.094-0.027-1.988-0.961-2.68z" fill="url(#r)"/>
    <path d="m15.492 65.969c-0.371-0.664-1.066-0.321-2.078 1.043-0.988 1.359-1.148 2.371-0.48 3.039 0.773 0.8 1.586 0.652 2.441-0.442 0.824-1.121 0.867-2.332 0.117-3.64z" fill="url(#q)"/>
    <path d="m115.9 164.65c-0.481-0.343-0.895 0.137-1.243 1.442-0.316 1.304-0.132 2.094 0.563 2.359 0.801 0.32 1.347-0.055 1.64-1.117 0.293-1.094-0.027-1.988-0.96-2.684z" fill="url(#p)"/>
    <path d="m0.332 66.129c0.59 2.773 1.535 4.613 2.844 5.519 0.746 0.508 2.199-0.226 4.359-2.199 2.719-2.48 4.531-3.906 5.438-4.277 1.414-0.563 2.535-1.778 3.359-3.645 0.457-1.011 1.055-2.492 1.801-4.437 2.508-4.403 3.16-7.852 1.961-10.36-0.985-2.132-2.84-3.093-5.559-2.882-2.242 0.187-4.574 1.468-7 3.839-2.375 2.321-4.387 5.243-6.043 8.762-1.465 3.121-1.851 6.344-1.16 9.68z" fill="url(#o)"/>
    <path d="m16.254 102.61c-0.078 1.387 0.492 3.653 1.719 6.801 1.359 3.52 2.867 6.078 4.519 7.68 1.496 1.465 2.668 1.465 3.524 0 0.476-0.879 1.144-2.481 2-4.801 0.558-0.984 1.425-2.852 2.597-5.598 1.121-2.613 1.84-4.187 2.16-4.722 0.403-0.692 0.161-2.239-0.718-4.637-0.481-1.363-1.293-3.496-2.442-6.402-0.906-2.879-1.812-4.586-2.718-5.121-0.829-0.481-1.426 0.093-1.801 1.722-0.348 1.598-1.078 2.934-2.199 4-1.2 1.145-2.387 1.531-3.563 1.16-1.68-0.507-2.703 2.797-3.078 9.918z" fill="url(#n)"/>
    <path d="m56.695 75.809c-0.215-0.958-0.883-2.012-2-3.161-1.203-1.172-2-1.41-2.402-0.718-0.852 1.308-1.481 2.386-1.879 3.242-0.773 1.57-0.961 2.785-0.559 3.64 0.399 0.879 1.012 1.52 1.84 1.918 0.399 0.188 1.145 0.387 2.239 0.602 0.828 0.133 1.574-0.348 2.242-1.441 0.719-1.176 0.89-2.536 0.519-4.082z" fill="url(#m)"/>
    <path d="m137.09 19.891c0.453-3.254 0.558-4.989 0.32-5.2-0.961-0.718-2.148-1.922-3.559-3.601-1.281-1.117-2.816-1.239-4.601-0.36-2.055 1.039-4.078 2.52-6.078 4.442-1.789 1.707-3.375 3.586-4.762 5.64-0.961 1.438-2.094 3.614-3.398 6.52-1.364 3.039-2.204 4.824-2.524 5.359-0.719 1.118-1.078 2.68-1.078 4.68 0.027 2.027 0.426 3.668 1.199 4.918 0.696 1.094 2.321 0.977 4.879-0.359 1.496-0.774 3.844-2.2 7.043-4.282 1.492-0.879 3.465-1.945 5.918-3.199 1.922-1.226 3.359-3.027 4.32-5.398 1.016-2.453 1.789-5.508 2.321-9.16z" fill="url(#l)"/>
    <path d="m91.212 92.45c-0.343-1.199-1.066-1.84-2.16-1.918-1.039-0.055-1.746 0.332-2.117 1.16-0.562 1.254-0.426 2.575 0.399 3.957 0.347 0.536 0.773 1.094 1.281 1.684 0.613 0.664 1.066 1.039 1.359 1.117 0.266 0.055 0.508-0.226 0.719-0.84 0.266-0.961 0.453-1.519 0.562-1.679 0.399-0.774 0.387-1.934-0.043-3.481z" fill="url(#k)"/>
    <path d="m46.773 60.41c0.879 3.547 1.641 5.668 2.282 6.359 0.504 0.536 1.453 0.68 2.84 0.442 0.8-0.133 2.132-0.414 4-0.84 1.281-0.242 2.32-1.227 3.121-2.961 0.586-1.309 1.011-2.934 1.277-4.883 0.453-3.066 0.187-6.144-0.801-9.238-0.398-1.199-1.265-1.691-2.597-1.48-3.067 0.425-4.786 0.64-5.161 0.64-1.945-0.078-3.281 0.293-4 1.121-0.32 0.371-0.894 1.664-1.718 3.879-0.403 0.988-0.149 3.309 0.757 6.961z" fill="url(#j)"/>
    <path d="m39.215 19.969c-0.988 0.347-1.586 1.48-1.801 3.402-0.238 1.918 0.106 3.316 1.039 4.199 0.774 0.719 1.414 0.531 1.922-0.558 0.32-0.641 0.785-1.762 1.398-3.364 0.586-1.039 0.586-2.011 0-2.918-0.585-0.906-1.441-1.16-2.558-0.761z" fill="url(#i)"/>
    <path d="m33.055 43.012c-0.375 1.57-0.282 3.238 0.277 5 0.59 1.785 1.441 2.906 2.563 3.359 0.984 0.426 1.96 0.453 2.917 0.078 0.11-0.051 1.227-0.664 3.364-1.84 2.371-1.281 2.519-3.16 0.437-5.64-0.879-1.067-2.679-2.973-5.398-5.719-1.309-1.332-2.281-1.359-2.922-0.078-0.105 0.238-0.52 1.851-1.238 4.84z" fill="url(#h)"/>
    <path d="m98.375 142.69c0.48 2.907 2.813 3.918 7 3.039 1.492-0.293 2.891-0.613 4.199-0.961 0.375-0.105 2.305-0.64 5.801-1.597 2.348-0.668 2.852-1.602 1.52-2.801-0.243-0.242-2.11-1.402-5.602-3.48-1.84-1.094-4.027-1.774-6.559-2.04-2.586-0.269-4.441 0.024-5.558 0.879-0.988 0.774-1.485 1.707-1.485 2.801 0.004 0.106 0.231 1.492 0.684 4.16z" fill="url(#g)"/>
    <path d="m66.453 39.891c0.695 1.894 2.735 2.918 6.121 3.082 3.332 0.156 5.852-0.563 7.559-2.161 1.496-1.414 2.094-2.722 1.801-3.921-0.188-0.801-0.918-1.747-2.2-2.84-0.64-0.586-1.625-1.492-2.961-2.719-1.359-1.094-3.054-2.094-5.078-3-1.894-0.856-2.828-0.816-2.8 0.117 0.078 0.668 0.144 1.203 0.199 1.602 0.082 0.718 0.027 1.293-0.16 1.718-0.907 1.497-1.586 2.707-2.039 3.641-0.801 1.652-0.946 3.149-0.442 4.481z" fill="url(#f)"/>
    <path d="m42.094 40.93c1.945 5.414 5.558 7.226 10.84 5.441 4.375-1.469 7.828-4.148 10.359-8.039 1.68-2.563 2.762-5.547 3.242-8.961 0.371-2.668 0.36-4.812-0.043-6.441-0.105-0.454-0.183-2.039-0.238-4.758-0.027-2.11-0.348-3.387-0.961-3.84-0.641-0.481-1.895-0.574-3.758-0.281-2.48 0.508-4.496 0.867-6.043 1.078-2.797 0.375-5.117 1.055-6.957 2.043-2.426 1.304-3.906 3.094-4.441 5.359-0.508 2.078-1.078 3.746-1.719 5-0.906 1.52-1.734 2.985-2.48 4.399-0.879 1.707-0.95 3.293-0.2 4.761 1.2 1.653 2 3.067 2.399 4.239z" fill="url(#e)"/>
    <path d="m47.948 148.19c-0.48966 0.23114-0.19212 1.2368 0.8978 3.0205 1.3953 2.0192 2.2765 3.3402 2.6389 3.9666 0.45531 0.79029 1.8056 1.8506 4.0474 3.1748 2.7271 1.527 4.6886 2.6309 5.8877 3.3028 1.8965 1.0835 3.5203 1.6398 4.8706 1.6693 1.4401 0.06 1.6963-0.5968 0.77813-1.9726-0.73873-1.0818-1.8957-2.1299-3.4818-3.1474-1.4436-0.91765-2.2264-1.5535-2.3462-1.893-0.19015-0.52504-0.77721-1.2512-1.765-2.177-0.60062-0.58667-1.8192-1.6911-3.6524-3.3171-1.5878-1.5116-2.9116-2.4708-3.9764-2.8776-1.2485-0.46978-2.5443-0.38902-3.8988 0.25063z" fill="url(#d)"/>
    <path d="m35.237 149.5c2.8003 0.44275 4.8567 0.21977 6.1716-0.67769 0.74157-0.51445 0.57692-2.134-0.49114-4.8575-1.3411-3.4271-2.0232-5.6297-2.0446-6.6094-0.01897-1.5218-0.75164-3.0038-2.1994-4.442-0.78013-0.7889-1.9485-1.8778-3.4971-3.2712-3.212-3.9191-6.1984-5.7636-8.9695-5.5428-2.3434 0.15569-3.9052 1.5432-4.6825 4.1573-0.62874 2.1602-0.26836 4.7963 1.076 7.9108 1.3159 3.0489 3.323 5.9743 6.015 8.7812 2.3889 2.486 5.2596 4.0012 8.6217 4.5514z" fill="url(#c)"/>
    <path d="m41.569 126.45c0.1456 1.0182 0.3448 1.8332 0.59909 2.4472 0.35902 0.93286 1.0014 1.7903 1.9315 2.5694 0.5222 0.43941 1.3424 1.1234 2.462 2.0467 3.1985 3.3632 5.4735 4.5022 6.8219 3.4193 0.70354-0.5856 1.2693-1.5202 1.7026-2.8042 0.36944-1.1088 0.55607-2.1966 0.56691-3.2599 0.01892-1.6944-0.2649-3.6908-0.84833-5.9898-0.26179-0.91419-0.78841-1.6321-1.5794-2.1534-0.35415-0.24404-0.82916-0.5081-1.4243-0.78627-0.68344-0.28468-1.1847-0.50273-1.5088-0.65337-0.11336-0.0535-0.85681-0.46247-2.2303-1.2268-0.90181-0.5024-1.6818-0.81713-2.343-0.94946-0.37866-0.0853-0.7667-0.0848-1.162-0.00085-0.23887 0.0388-0.60887 0.12114-1.1078 0.2466-0.31102 0.068-0.84029 0.11004-1.5879 0.13203-0.63666 0.0734-1.084 0.29506-1.3402 0.65899-0.29949 0.44271-0.32142 1.0855-0.06533 1.927 0.1622 0.46134 0.39775 1.0956 0.71185 1.8987 0.06505 0.28445 0.19883 1.1124 0.40145 2.4781z" fill="url(#b)"/>
   </g>
  </g>
 </g>
</svg>
