<?xml version="1.0" encoding="UTF-8" standalone="no"?>
<!-- Created with Inkscape (http://www.inkscape.org/) -->

<svg
   xmlns:dc="http://purl.org/dc/elements/1.1/"
   xmlns:cc="http://creativecommons.org/ns#"
   xmlns:rdf="http://www.w3.org/1999/02/22-rdf-syntax-ns#"
   xmlns:svg="http://www.w3.org/2000/svg"
   xmlns="http://www.w3.org/2000/svg"
   xmlns:xlink="http://www.w3.org/1999/xlink"
   xmlns:sodipodi="http://sodipodi.sourceforge.net/DTD/sodipodi-0.dtd"
   xmlns:inkscape="http://www.inkscape.org/namespaces/inkscape"
   width="165.52406mm"
   height="120.76438mm"
   viewBox="0 0 586.50259 427.90529"
   id="svg5202"
   version="1.1"
   inkscape:version="0.91 r13725"
   sodipodi:docname="satellite.svg">
  <defs
     id="defs5204">
    <linearGradient
       x1="4740.2827"
       x2="4400.2896"
       y1="2251.8262"
       gradientUnits="userSpaceOnUse"
       y2="2274.375"
       id="linearGradient4112">
      <stop
         offset="0"
         stop-color="#454585"
         id="stop3893"
         style="stop-color:#a35227;stop-opacity:1" />
      <stop
         offset="1"
         stop-color="#babafd"
         id="stop3895"
         style="stop-color:#1f2025;stop-opacity:1" />
    </linearGradient>
    <linearGradient
       x1="4747.4595"
       x2="4412.6914"
       y1="2219.7874"
       gradientUnits="userSpaceOnUse"
       y2="2357.8562"
       id="linearGradient4110">
      <stop
         offset="0"
         stop-color="#3a3a63"
         id="stop3884"
         style="stop-color:#843d19;stop-opacity:1" />
      <stop
         offset="1"
         stop-color="#babafd"
         id="stop3887"
         style="stop-color:#02000a;stop-opacity:1" />
    </linearGradient>
    <radialGradient
       r="353.82001"
       gradientTransform="matrix(0.26261,2.114,1.5934,0.080846,-3332.5,-8761.5)"
       cx="5101.3999"
       cy="3720"
       gradientUnits="userSpaceOnUse"
       fy="3650.1001"
       fx="5068.2002"
       id="radialGradient2499">
      <stop
         offset="0"
         stop-color="#050101"
         id="stop3496" />
      <stop
         offset="1"
         stop-color="#fff"
         id="stop35889" />
    </radialGradient>
    <linearGradient
       x1="5408.2002"
       x2="5482.6001"
       gradientTransform="matrix(0.054907,0.93602,0.93691,0.072083,177.43,-2719)"
       y1="3589.5"
       gradientUnits="userSpaceOnUse"
       y2="3960.5"
       id="linearGradient2486">
      <stop
         offset="0"
         stop-opacity="0"
         stop-color="#d9d9d9"
         id="stop3506" />
      <stop
         offset=".62963"
         stop-color="#fff"
         id="stop3512" />
      <stop
         offset="1"
         stop-opacity="0"
         stop-color="#e9e9e9"
         id="stop3508" />
    </linearGradient>
    <linearGradient
       x1="5319.2998"
       x2="5371.2002"
       gradientTransform="matrix(0.15386,0.94918,1.0243,0.27253,-672.37,-3525.1)"
       y1="3508.1001"
       gradientUnits="userSpaceOnUse"
       y2="3569.8"
       id="linearGradient2483">
      <stop
         offset="0"
         id="stop3530" />
      <stop
         offset=".5"
         stop-color="#fff"
         id="stop3536" />
      <stop
         offset="1"
         stop-color="#0d0000"
         id="stop3532" />
    </linearGradient>
    <radialGradient
       r="329.35999"
       gradientTransform="matrix(-0.073903,-0.67365,-0.59529,0.011853,6512.5,5749.9)"
       cx="5063.1001"
       cy="3747.5"
       gradientUnits="userSpaceOnUse"
       fy="3654.8999"
       fx="5132.7002"
       id="radialGradient2480">
      <stop
         offset="0"
         stop-color="#c6c6c6"
         id="stop3484" />
      <stop
         offset="1"
         stop-color="#1a1a1a"
         id="stop3486" />
    </radialGradient>
    <linearGradient
       x1="4002.8999"
       x2="4002.8999"
       gradientTransform="matrix(0.70632,0.70789,0.70789,-0.70632,-2472.5,3092.3)"
       y1="5251.7002"
       gradientUnits="userSpaceOnUse"
       y2="4560.8999"
       id="linearGradient2477">
      <stop
         offset="0"
         id="stop4000" />
      <stop
         offset="1"
         stop-opacity="0"
         id="stop4002" />
    </linearGradient>
    <linearGradient
       id="linearGradient3919">
      <stop
         offset="0"
         id="stop3921" />
      <stop
         offset=".5"
         stop-color="#a1a1a1"
         id="stop3927" />
      <stop
         offset="1"
         id="stop3923" />
    </linearGradient>
    <linearGradient
       x1="4801.4058"
       x2="4604.3887"
       y1="2269.5542"
       gradientUnits="userSpaceOnUse"
       y2="2326.771"
       id="linearGradient4138">
      <stop
         offset="0"
         stop-color="#454585"
         id="stop3876"
         style="stop-color:#856145;stop-opacity:1" />
      <stop
         offset="1"
         stop-color="#fff"
         id="stop3878"
         style="stop-color:#000000;stop-opacity:1" />
    </linearGradient>
    <linearGradient
       x1="5064.1001"
       x2="4759.6001"
       y1="2318.8999"
       gradientUnits="userSpaceOnUse"
       y2="2605.8999"
       id="linearGradient4136">
      <stop
         offset="0"
         stop-color="#51519c"
         id="stop3866"
         style="stop-color:#1a180d;stop-opacity:1" />
      <stop
         offset="1"
         stop-color="#f3f3f9"
         id="stop3868"
         style="stop-color:#000000;stop-opacity:1" />
    </linearGradient>
    <linearGradient
       x1="4673.2002"
       x2="4786.3999"
       y1="1627.1"
       gradientUnits="userSpaceOnUse"
       y2="1865.6"
       id="linearGradient3276">
      <stop
         offset="0"
         id="stop3272" />
      <stop
         offset=".24074"
         stop-color="#fffbfb"
         id="stop3278" />
      <stop
         offset="1"
         id="stop3274" />
    </linearGradient>
    <radialGradient
       r="119.15"
       gradientTransform="matrix(-1.2731,0.40587,-0.37071,-1.1628,10558,3000.4)"
       cx="3977.6001"
       cy="2415.3999"
       gradientUnits="userSpaceOnUse"
       fy="2461.7"
       fx="3964.3999"
       id="radialGradient2296">
      <stop
         offset="0"
         stop-color="#fff"
         id="stop4157" />
      <stop
         offset="1"
         stop-color="#040000"
         id="stop4159" />
    </radialGradient>
    <linearGradient
       x1="4157.5"
       x2="4079.6001"
       gradientTransform="matrix(0.93962,0.67897,-0.67897,0.93962,2284.7,-2975.2)"
       y1="1786.8"
       gradientUnits="userSpaceOnUse"
       y2="2144.3999"
       id="linearGradient2293">
      <stop
         offset="0"
         id="stop4054" />
      <stop
         offset="1"
         stop-opacity="0"
         id="stop4056" />
    </linearGradient>
    <linearGradient
       x1="4851.7002"
       x2="4886.2002"
       gradientTransform="matrix(0.077467,1.1506,-1.1661,-0.27058,6242.2,-3232.4)"
       y1="1831.3"
       gradientUnits="userSpaceOnUse"
       xlink:href="#linearGradient3919"
       y2="1800.8"
       id="linearGradient2280" />
    <linearGradient
       x1="4845.5"
       x2="4875.3999"
       gradientTransform="matrix(-0.0048455,-0.61118,-0.70244,0.0055691,5924.5,4619.9)"
       y1="1829.5"
       gradientUnits="userSpaceOnUse"
       xlink:href="#linearGradient3919"
       y2="1800.1"
       id="linearGradient2263" />
    <linearGradient
       x1="4845.5"
       x2="4875.3999"
       gradientTransform="matrix(0.84221,-0.058504,0.067239,0.96797,603.64,369.59)"
       y1="1829.5"
       gradientUnits="userSpaceOnUse"
       xlink:href="#linearGradient3919"
       y2="1800.1"
       id="linearGradient2248" />
  </defs>
  <sodipodi:namedview
     id="base"
     pagecolor="#ffffff"
     bordercolor="#666666"
     borderopacity="1.0"
     inkscape:pageopacity="0.0"
     inkscape:pageshadow="2"
     inkscape:zoom="0.14162852"
     inkscape:cx="102.612"
     inkscape:cy="355.16717"
     inkscape:document-units="px"
     inkscape:current-layer="g6734"
     showgrid="false"
     fit-margin-top="0"
     fit-margin-left="0"
     fit-margin-right="0"
     fit-margin-bottom="0"
     inkscape:window-width="1280"
     inkscape:window-height="752"
     inkscape:window-x="0"
     inkscape:window-y="0"
     inkscape:window-maximized="1" />
  <metadata
     id="metadata5207">
    <rdf:RDF>
      <cc:Work
         rdf:about="">
        <dc:format>image/svg+xml</dc:format>
        <dc:type
           rdf:resource="http://purl.org/dc/dcmitype/StillImage" />
        <dc:title></dc:title>
      </cc:Work>
    </rdf:RDF>
  </metadata>
  <g
     inkscape:label="Layer 1"
     inkscape:groupmode="layer"
     id="layer1"
     transform="translate(-97.815078,-313.39167)">
    <g
       transform="translate(-18.031798,113.60316)"
       id="layer1-5">
      <g
         style="fill-rule:evenodd"
         id="g6044"
         transform="translate(-7112.8302,-5076.2955)">
        <g
           transform="matrix(7.6074,-0.25604,0.25604,7.6074,-30280,-6835.8)"
           style="fill-rule:evenodd"
           id="g6734">
          <g
             id="g6072"
             transform="matrix(0.04,0,0,0.04,4713.6228,1714.8208)">
            <path
               inkscape:connector-curvature="0"
               id="path7145"
               style="fill:#000000"
               d="m 287.44,286.58 c 8.8583,-0.0756 18.161,1.2414 27.843,4.3505 23.639,7.5916 49.437,23.77 72.544,46.876 22.316,22.316 38.195,47.044 46.114,70.042 3.5848,10.411 5.3257,20.665 5.3294,30.127 34.464,-34.381 74.719,-74.501 74.719,-74.501 8.8046,-8.8046 10.662,-25.016 4.0244,-45.788 -6.6374,-20.772 -21.622,-44.897 -43.287,-66.562 -21.664,-21.665 -45.789,-36.649 -66.561,-43.287 -20.772,-6.6373 -36.984,-4.7803 -45.788,4.0241 a 7.3368,7.3368 0 0 1 -0.32655,0.32655 c 1.5e-4,-3.8e-4 -0.15572,-0.0378 -0.32656,0.10658 a 7.3368,7.3368 0 0 1 -0.10733,0.10809 c -0.0755,0.0755 -0.23434,0.23735 -0.3258,0.32655 a 7.3368,7.3368 0 0 1 -0.10734,0.10734 c -0.0227,0.0227 -0.0755,0.0907 -0.10734,0.10734 -0.27741,0.27062 -0.46261,0.46942 -0.87004,0.87005 -1.3246,1.3035 -3.2358,3.2497 -5.7641,5.7642 -5.0603,5.0256 -12.407,12.42 -21.317,21.317 -11.973,11.959 -29.332,29.327 -45.679,45.68 z m -40.639,-122.78 -33.338,-33.338 33.338,-33.338 33.338,33.338 z m 38.467,38.467 -33.338,-33.338 33.338,-33.338 33.338,33.338 z m 38.467,38.467 -33.338,-33.338 33.338,-33.338 33.338,33.338 z m -115.4,-38.467 -33.338,-33.338 33.338,-33.338 33.338,33.338 z m 38.467,38.467 -33.338,-33.338 33.338,-33.338 33.338,33.338 z m 38.467,38.467 -33.338,-33.338 33.338,-33.338 33.338,33.338 z m 233,156.07 -33.338,-33.338 33.338,-33.338 33.338,33.338 z m 38.467,38.467 -33.338,-33.338 33.338,-33.338 33.338,33.338 z m 38.467,38.467 -33.338,-33.338 33.338,-33.338 33.338,33.338 z m -115.4,-38.467 -33.338,-33.338 33.338,-33.338 33.338,33.338 z m 38.467,38.467 -33.338,-33.338 33.338,-33.338 33.338,33.338 z m 38.467,38.467 -33.338,-33.338 33.338,-33.338 33.338,33.338 z m -26.89,-249.86 c 14.671,-18.593 23.601,-32.737 23.601,-32.737 6.0975,-9.8498 8.7897,-20.878 6.5255,-33.498 -2.2639,-12.621 -9.7854,-27.187 -25.667,-43.069 -15.989,-15.989 -29.977,-23.759 -42.199,-26.103 -12.222,-2.3439 -23.154,0.29026 -34.586,6.9608 a 8.7573,8.7573 0 0 1 -0.10733,0.10734 c -0.90581,0.51174 -0.23131,0.0975 -0.4354,0.21694 -0.20486,0.11566 -0.55106,0.2948 -0.97959,0.54275 -0.85462,0.49889 -2.117,1.2198 -3.8063,2.284 -3.3786,2.1287 -8.3084,5.4327 -14.574,10.006 -3.793,2.7685 -8.1932,6.2168 -12.943,10.115 20.824,8.7749 42.483,23.558 62.211,43.287 19.646,19.646 34.196,41.165 42.96,61.885 z m -243.08,138.23 c 15.825,15.825 27.262,20.215 35.673,20.012 8.2898,-0.19956 16.009,-4.9974 24.362,-13.269 0.18141,-0.20258 0.17082,-0.17235 0.32654,-0.32579 0.67351,-0.65991 1.1912,-1.0953 1.5228,-1.3049 0.81396,-0.51552 1.1331,-0.63722 1.4148,-0.75877 0.5639,-0.24415 0.87103,-0.43313 1.196,-0.54349 0.65234,-0.22073 1.3406,-0.40517 2.1753,-0.65311 1.67,-0.49361 3.9356,-1.1132 6.6343,-1.8491 5.3972,-1.4715 12.536,-3.2413 19.686,-5.1116 12.5,-3.2709 22.067,-5.7697 25.015,-6.5254 5.2003,-6.2337 6.9486,-16.641 2.8278,-30.888 -4.3795,-15.141 -14.954,-33.009 -30.779,-48.834 -15.825,-15.825 -33.693,-26.4 -48.834,-30.779 -14.246,-4.121 -24.654,-2.3723 -30.888,2.8278 -0.39307,1.4287 -0.92984,3.0175 -1.5226,5.2205 -1.4259,5.3024 -3.3261,12.432 -5.2202,19.577 -3.793,14.289 -7.613,28.713 -7.613,28.713 a 9.2981,9.2981 0 0 1 -2.3919,4.1331 c -8.4974,8.4974 -13.392,16.277 -13.595,24.689 -0.20259,8.4119 4.1869,19.848 20.012,35.673 z"
               transform="matrix(0.13130222,0.0044192,-0.0044192,0.13130222,4857.1197,1729.331)" />
            <g
               id="g3836"
               transform="matrix(0.88333,0.11061,-0.16835,0.87949,827.14,-1015)">
              <path
                 id="path3838"
                 style="fill:#5e889d"
                 inkscape:connector-curvature="0"
                 d="m 4611.2,2509.8 276.6,-163.3 -402.9,-220.9 -263.1,112 389.4,272.2 z" />
              <path
                 id="path3840"
                 style="fill:url(#linearGradient4112);fill-rule:nonzero"
                 inkscape:connector-curvature="0"
                 d="m 4647.5,2233.9 -160.4,-89.4 -91.4,41.1 155.4,101.4 96.4,-53.1 z m -381.6,9.1 160.7,112.8 106.5,-58.8 -157.2,-102.7 -110,48.7 z m 284.4,65.1 -105.1,59.4 167.1,116.1 110.9,-63.3 -172.9,-112.2 z m 189.6,101.6 109.5,-63.3 -184.4,-102.8 -96.9,53.8 171.8,112.3 z" />
            </g>
            <g
               id="g3842"
               transform="matrix(0.57725,0.26047,-0.56185,0.86805,2924.3,-1967.4)">
              <path
                 id="path3844"
                 style="fill:#3c687e"
                 inkscape:connector-curvature="0"
                 d="m 4611.2,2509.8 276.6,-163.3 -375.2,-219.6 c -9.4,-4.4 -16,-5.8 -28.9,-3.2 l -246.4,107.1 c -6.3,4.3 -6.3,9.7 -2.2,16 l 376.1,263 z" />
              <path
                 id="path3846"
                 style="fill:url(#linearGradient4110);fill-rule:nonzero"
                 inkscape:connector-curvature="0"
                 d="m 4651.3,2231.8 -153.4,-92.7 -102.2,46.5 155.4,101.4 100.2,-55.2 z m -385.4,11.2 160.7,112.8 106.5,-58.8 -157.2,-102.7 -110,48.7 z m 284.4,65.1 -105.1,59.4 167.1,116.1 110.9,-63.3 -172.9,-112.2 z m 189.6,101.6 109.5,-63.3 -180.6,-105 -100.7,56 171.8,112.3 z" />
            </g>
            <path
               id="path3957"
               style="fill:url(#linearGradient2263);fill-rule:nonzero"
               inkscape:connector-curvature="0"
               d="m 4604.8,1647.8 c -16.7,-15.7 -1.1,-28.2 13.8,-13.5 l 28.1,21 c 18,10.8 -5.8,28.8 -17.9,23.3 l -26.5,-29 2.5,-1.8 z" />
            <path
               id="path2423"
               style="fill:url(#linearGradient3276)"
               inkscape:connector-curvature="0"
               d="m 4640.5,1960.5 c 58.3,-34.7 50.5,-161 -5.8,-213.8 -44,-41.8 -102.2,-53.4 -142.8,-30.7 l 337.2,-149.3 c 44.6,-23.6 117.6,-31.3 166.8,21.1 32.1,34.2 47.4,126.2 -19.6,170.2 l -335.8,202.5 z" />
            <path
               id="path2425"
               style="fill:url(#radialGradient2296)"
               inkscape:connector-curvature="0"
               d="m 4483.3,1722.8 c 44.4,-34.8 101.7,-25.4 150.2,20.7 60.6,58.6 75.2,188.1 -6.4,225.1 -120.6,54.5 -246.7,-165.2 -143.8,-245.8 z" />
            <path
               id="path4050"
               style="fill:url(#linearGradient2293);fill-rule:evenodd"
               inkscape:connector-curvature="0"
               d="m 4640.5,1960.5 c 58.3,-34.7 50.5,-161 -5.8,-213.8 -44,-41.8 -102.2,-53.4 -142.8,-30.7 l 337.2,-149.3 c 44.6,-23.6 117.6,-31.3 166.8,21.1 32.1,34.2 47.4,126.2 -19.6,170.2 l -335.8,202.5 z" />
            <path
               id="path4032"
               style="fill:url(#linearGradient2280);fill-rule:nonzero"
               inkscape:connector-curvature="0"
               d="m 4436.3,1884.8 c 21.1,9.6 25.6,25.4 35.1,52.2 l 83.8,-45.4 c 25.8,-23.6 -6,-71.1 -33.4,-63.5 l -85.5,56.7 z" />
            <g
               id="g3828"
               transform="matrix(1.0194,-0.038179,-0.0098242,1.3943,408.97,-1010.5)">
              <path
                 id="path3446"
                 style="fill:#5e889d"
                 inkscape:connector-curvature="0"
                 d="m 4611.2,2509.8 276.6,-163.3 -402.9,-220.9 -263.1,112 389.4,272.2 z" />
              <path
                 id="path2836"
                 style="fill:url(#linearGradient4138);fill-rule:nonzero"
                 inkscape:connector-curvature="0"
                 d="m 4654.3,2238.3 -167.2,-93.8 -91.4,41.1 158.8,103.1 99.8,-50.4 z m -388.4,4.7 160.7,112.8 108.8,-55.4 -159.5,-106.1 -110,48.7 z m 287.8,66.9 -108.5,57.6 167.1,116.1 110.9,-63.3 -169.5,-110.4 z m 186.2,99.8 109.5,-63.3 -174.2,-97.6 -102.5,52.9 167.2,108 z" />
            </g>
            <g
               id="g3832"
               transform="matrix(1.1292,0.040925,0.16072,1.5417,-523.94,-1744.4)">
              <path
                 id="path3824"
                 style="fill:#6f95a9"
                 inkscape:connector-curvature="0"
                 d="m 5022.2,2610.9 261.5,-184.4 c 4.4,-6.2 -2.3,-10.8 -9.1,-14.2 l -379.5,-61.9 -276.2,164.4 381.4,99.4 c 8.1,1.3 15.3,0 21.9,-3.3 z" />
              <path
                 id="path3826"
                 style="fill:url(#linearGradient4136);fill-rule:nonzero"
                 inkscape:connector-curvature="0"
                 d="m 5053.2,2392.4 -156.8,-27.7 -96.1,58.9 154.8,35.1 98.1,-66.3 z m -389.2,113.9 159.6,42.7 112.4,-77.2 -156.5,-35.6 -115.5,70.1 z m 289.1,-30.7 -111.1,77.3 166,43.3 117.2,-81.9 -172.1,-38.7 z m 189.8,25.5 108.6,-75.6 -179.6,-29.7 -99.9,66.2 170.9,39.1 z" />
            </g>
            <path
               id="path3917"
               style="fill:url(#linearGradient2248);fill-rule:nonzero"
               inkscape:connector-curvature="0"
               d="m 4835.3,1867.8 c 23.5,21.2 41.1,0.7 19.3,-18.2 l -31.9,-36.5 c -16.8,-23.6 -41.3,10.7 -32.4,26.8 l 35.3,26.1 3.9,-1.8 5.8,3.6 z" />
            <g
               id="g2501"
               transform="matrix(0.99633,-0.085572,0.085572,0.99633,263.61,-30.404)">
              <path
                 id="path3830"
                 style="fill:url(#radialGradient2499)"
                 inkscape:connector-curvature="0"
                 d="m 4151.3,2803.3 c 94.8,-27.3 26,-213.7 -148.3,-403.6 -175.2,-189.6 -397.9,-328.1 -485.6,-285.8 -79.6,38.3 -25.4,212.3 148.7,402.4 129.8,139.4 360.2,323.1 485.2,287 z" />
              <path
                 id="path3856"
                 style="opacity:0.5;fill:url(#linearGradient2486)"
                 inkscape:connector-curvature="0"
                 d="m 4154.7,2796 c 94.9,-27.4 26.9,-182.4 -130.8,-383.9 -175.5,-224.2 -392.6,94 -257,196.9 113.4,85.9 262.9,223 387.8,187 z" />
              <path
                 id="path3860"
                 style="fill:url(#linearGradient2483)"
                 inkscape:connector-curvature="0"
                 d="m 3950.6,2371.4 c 4.4,-5.4 -26.9,-37.7 -34.2,-32.4 l -299.2,321.2 c -11.6,13.1 0.8,24.1 12.5,11.3 l 320.9,-300.1 z" />
              <path
                 id="path3864"
                 style="fill:url(#radialGradient2480)"
                 inkscape:connector-curvature="0"
                 d="m 3517.3,2114 c 124.9,-67.3 334.2,4.1 469.4,123.1 140,123.4 249.3,353.3 202.7,529.7 23.1,-69.7 -48.1,-216.4 -186.4,-367.1 -175.2,-189.6 -396.2,-324.5 -485.7,-285.7 z" />
              <path
                 id="path3996"
                 style="fill:url(#linearGradient2477)"
                 inkscape:connector-curvature="0"
                 d="m 3950.6,2371.4 c 4.4,-5.4 -26.9,-37.7 -34.2,-32.4 l -299.2,321.2 c -11.6,13.1 0.8,24.1 12.5,11.3 l 320.9,-300.1 z" />
            </g>
          </g>
        </g>
      </g>
    </g>
  </g>
</svg>
