<svg xmlns:rdf="http://www.w3.org/1999/02/22-rdf-syntax-ns#" xmlns="http://www.w3.org/2000/svg" height="352" width="680" version="1.1" xmlns:cc="http://creativecommons.org/ns#" xmlns:dc="http://purl.org/dc/elements/1.1/" viewBox="0 0 680.00001 352.00001">
 <defs>
  <filter id="d">
   <feGaussianBlur stdDeviation="3.6701875"/>
  </filter>
  <filter id="e">
   <feGaussianBlur stdDeviation="3.4085625"/>
  </filter>
  <filter id="c">
   <feGaussianBlur stdDeviation="3.4085625"/>
  </filter>
 </defs>
 <g transform="translate(-303.83,-70.78)">
  <title>Layer 1</title>
 </g>
 <text style="word-spacing:0px;letter-spacing:0px" xml:space="preserve" font-size="40px" y="306.67395" x="1349.2291" line-height="125%"><tspan y="306.67395" x="1349.2291"/></text>
 <text style="word-spacing:0px;letter-spacing:0px" xml:space="preserve" font-size="13px" y="609.32385" x="1245.7273" line-height="125%"><tspan y="609.32385" x="1245.7273"/></text>
 <text style="word-spacing:0px;letter-spacing:0px" xml:space="preserve" font-size="6px" y="619.5575" x="1244.4314" line-height="125%"><tspan y="619.5575" x="1244.4314"/></text>
 <text font-size="40px" xml:space="preserve" style="word-spacing:0px;letter-spacing:0px" y="-374.88983" x="551.67181" font-family="Sans" line-height="125%" fill="#000000"><tspan y="-374.88983" x="551.67181"/></text>
 <text font-size="18px" font-weight="bold" xml:space="preserve" style="word-spacing:0px;letter-spacing:0px" y="-27.362427" x="903.0603" font-family="Sans" line-height="125%" fill="#000000"><tspan y="-27.362427" x="903.0603"/></text>
 <g transform="translate(540.42,-510.05)">
  <text font-size="32.49px" xml:space="preserve" style="word-spacing:0px;letter-spacing:0px" transform="rotate(-90)" y="-740.2641" x="73.980637" line-height="125%"><tspan y="-740.2641" x="73.980637"/></text>
  <text font-size="10.559px" xml:space="preserve" style="word-spacing:0px;letter-spacing:0px" transform="rotate(-90)" y="-494.43677" x="-10.088734" line-height="125%"><tspan y="-494.43677" x="-10.088734"/></text>
  <text font-size="4.8735px" xml:space="preserve" style="word-spacing:0px;letter-spacing:0px" transform="rotate(-90)" y="-486.12445" x="-11.141315" line-height="125%"><tspan y="-486.12445" x="-11.141315"/></text>
  <g transform="matrix(-.20203 -.02302 .02302 -.20203 -420.8 439.17)">
   <text stroke-linejoin="round" style="word-spacing:0px;letter-spacing:0px" font-family="Skia" stroke-opacity=".98551" font-weight="100" xml:space="preserve" font-size="41.822px" transform="rotate(173.51)" stroke="#e5e5e5" stroke-dasharray="31.09136276, 2.5909469" y="-532.00525" x="110.77794" stroke-width="2.5909" line-height="125%" fill="#a42b23"><tspan y="-532.00525" x="110.77794" stroke-width="2.5909"/></text>
   <text font-size="61.474px" xml:space="preserve" style="word-spacing:0px;letter-spacing:0px" transform="matrix(-.99357 .1132 -.1132 -.99357 0 0)" y="-407.83047" x="134.32643" font-family="sans-serif" line-height="125%" fill="#000000"><tspan y="-407.83047" x="134.32643"/></text>
  </g>
  <g transform="translate(-581.43,229.79)">
   <g transform="translate(-303.83,157.22)">
    <title>Layer 1</title>
   </g>
   <text style="word-spacing:0px;letter-spacing:0px" xml:space="preserve" font-size="40px" y="534.67395" x="1349.2291" line-height="125%"><tspan y="534.67395" x="1349.2291"/></text>
   <text style="word-spacing:0px;letter-spacing:0px" xml:space="preserve" font-size="13px" y="837.32385" x="1245.7273" line-height="125%"><tspan y="837.32385" x="1245.7273"/></text>
   <text style="word-spacing:0px;letter-spacing:0px" xml:space="preserve" font-size="6px" y="847.5575" x="1244.4314" line-height="125%"><tspan y="847.5575" x="1244.4314"/></text>
   <text font-size="40px" xml:space="preserve" style="word-spacing:0px;letter-spacing:0px" y="-146.88985" x="551.67181" font-family="Sans" line-height="125%" fill="#000000"><tspan y="-146.88985" x="551.67181"/></text>
   <text font-size="18px" font-weight="bold" xml:space="preserve" style="word-spacing:0px;letter-spacing:0px" y="200.63757" x="903.0603" font-family="Sans" line-height="125%" fill="#000000"><tspan y="200.63757" x="903.0603"/></text>
   <g transform="matrix(.9 0 0 .9 22.154 47.114)">
    <g transform="matrix(1.0586 0 0 .99741 -163.12 129.14)">
     <path fill-opacity=".34359" fill="#2a1f2a" d="m245.34 349.78c-29.01 0-52.56 23.55-52.56 52.56 0 4.46 0.55 8.78 1.6 12.91-10.57 2.01-18.57 11.29-18.57 22.44 0 12.62 10.26 22.87 22.88 22.87 8.95 0 16.69-5.18 20.43-12.68 7.72 4.45 16.68 7.03 26.22 7.03 17.78 0 33.46-8.86 42.97-22.38 5.61 3.42 12.21 5.41 19.25 5.41 9.47 0 18.11-3.58 24.66-9.44 3.86 5.69 10.39 9.44 17.78 9.44 11.84 0 21.44-9.63 21.44-21.47s-9.6-21.44-21.44-21.44c-2.01 0-3.97 0.3-5.81 0.81-2.48-18.02-17.93-31.9-36.63-31.9-7.64 0-14.76 2.3-20.65 6.28-9.62-12.42-24.65-20.44-41.57-20.44z"/>
     <path d="m245.34 360.86c-23.016 0-41.486 18.47-41.486 41.486 0 3.5429 0.43526 6.9459 1.2559 10.191a11.078 11.078 0 0 1 -8.668 13.596c-5.4298 1.0334-9.5566 5.7016-9.5566 11.557 0 6.6144 5.1844 11.799 11.799 11.799 4.683 0 8.5887-2.679 10.527-6.5606a11.078 11.078 0 0 1 15.447 -4.6445c6.1082 3.5256 13.127 5.5488 20.682 5.5488 14.09 0 26.385-6.9812 33.912-17.674a11.078 11.078 0 0 1 14.828 -3.0801c3.9339 2.4012 8.5119 3.7852 13.479 3.7852 6.6793 0 12.661-2.4912 17.27-6.6152a11.078 11.078 0 0 1 16.557 2.041c1.8626 2.7494 4.9649 4.5742 8.6113 4.5742 5.8281 0 10.361-4.545 10.361-10.393 0-5.8476-4.5137-10.361-10.361-10.361-0.93285 0-1.8803 0.13746-2.8164 0.40039a11.078 11.078 0 0 1 -13.969 -9.1543c-1.7372-12.63-12.435-22.34-25.652-22.34-5.4166 0-10.344 1.6127-14.465 4.3906a11.078 11.078 0 0 1 -14.951 -2.4062c-7.6063-9.8264-19.39-16.141-32.803-16.141z" transform="matrix(1.0384,0,0,1.0678,-14.703,-30.892)" filter="url(#d)" fill="#e4e0e0"/>
     <g fill="#e4eaed">
      <path fill-opacity=".12941" fill="#0c0c0c" d="m203.5 424.13c-1.91 8.58 10.91 21.54 16.54 24.44 4.17 0.32 2.99-1.7 1.26-3.33-3.86-3.66-15.03-12.33-17.8-21.11z"/>
      <path fill-opacity="0" d="m205.39 424.13c-1.91 8.58 10.91 21.54 16.54 24.44 4.17 0.32 2.99-1.7 1.26-3.33-3.86-3.66-15.03-12.33-17.8-21.11z"/>
      <path fill-opacity=".12821" fill="#0c0c0c" d="m292.29 401.75c6.1 6.34 3.91 25.08 0.62 30.49-3.39 2.44-5.43-0.89-4.81-3.19 1.39-5.13 6.4-18.35 4.19-27.3z"/>
     </g>
    </g>
    <g transform="translate(250.05 500.01)">
     <g transform="translate(-179.94,-1033.6)">
      <g transform="translate(-12.992,-452.82)">
       <text style="word-spacing:0px;letter-spacing:0px" xml:space="preserve" font-size="40px" y="1078.4438" x="1376.9393" font-family="Sans" line-height="125%"><tspan y="1078.4438" x="1376.9393"/></text>
       <text style="word-spacing:0px;letter-spacing:0px" xml:space="preserve" font-size="13px" y="1381.0938" x="1273.4375" font-family="&apos;Arial Hebrew&apos;" line-height="125%"><tspan y="1381.0938" x="1273.4375"/></text>
       <text style="word-spacing:0px;letter-spacing:0px" xml:space="preserve" font-size="6px" y="1391.3274" x="1272.1416" font-family="Krungthep" line-height="125%"><tspan y="1391.3274" x="1272.1416"/></text>
       <g transform="matrix(.11236 0 0 .11236 -87.279 1217.5)">
        <path fill="#d6d6d6" d="m1605.3 2556.3c-0.097-0.3057 0.2365-2.972 0.7411-5.925 3.7481-21.936 10.364-39.785 18.253-49.244l1.5637-1.875h191.38v-71.4h-597.73c-328.75 0-597.94-0.082-598.2-0.1821-0.43257-0.166-0.47454-76.469-0.47454-862.65v-862.47h2850.6v862.47c0 786.18-0.042 862.48-0.4745 862.65-0.261 0.1002-269.52 0.1821-598.35 0.1821h-597.88l0.076 35.625 0.076 35.625 95.792 0.15 95.792 0.15 0.6029 0.75c7.0791 8.8056 11.722 19.106 15.836 35.133 1.7106 6.6633 3.9262 18.283 3.9263 20.592l0.0001 0.975h-440.68c-428.73 0-440.68-0.015-440.86-0.5557zm1799.2-1005.8v-781.05h-2716.8v1562.1h2716.8v-781.05z"/>
        <path fill="#a5a5a5" d="m1605.5 2555.9c0-2.3501 2.5763-15.379 4.3733-22.117 3.8277-14.352 9.4292-26.688 14.916-32.85l1.3358-1.5 95.662-0.15 95.662-0.15v-71.4l-598.2-0.1502c-329.01-0.083-598.23-0.1838-598.28-0.225-0.0412-0.041-0.075-388.13-0.075-862.42v-862.35h2850.6v862.32c0 786.04-0.042 862.33-0.4745 862.5-0.261 0.1002-269.52 0.1821-598.35 0.1821h-597.88v71.7h94.912c52.202 0 95.341 0.086 95.865 0.1906 0.7378 0.1476 1.3808 0.74 2.849 2.625 5.4873 7.0454 9.9123 16.992 13.693 30.78 1.8668 6.8082 4.1718 18.119 4.6011 22.579l0.1372 1.425h-881.36v-0.9828zm1799.4-1005.4v-781.35h-2717.4v1562.7h2717.4v-781.35z"/>
        <path fill="#5c5c5c" d="m1605.6 2556.3c0.082-0.2887 0.238-1.2675 0.3474-2.175 0.7917-6.5696 3.9604-20.32 6.4662-28.058 3.5023-10.817 8.4309-20.593 12.685-25.161l1.2856-1.3806h95.572c86.872 0 95.588-0.043 95.754-0.4745 0.1002-0.261 0.1821-16.366 0.1821-35.79 0-27.068-0.084-35.4-0.36-35.676-0.2797-0.2797-133.68-0.36-598.5-0.36h-598.14v-1724.7h2850.6v1724.7l-598.43 0.075-598.42 0.075-0.076 36.075-0.076 36.075h191.1l1.2166 1.0992c0.6692 0.6046 2.1649 2.5172 3.3238 4.2503 6.0336 9.0231 11.126 23.001 14.5 39.8 0.8103 4.0344 1.9609 10.897 1.9609 11.695 0 0.4064-47.016 0.4549-440.57 0.4549-419.45 0-440.56-0.025-440.42-0.525zm1799.5-1005.9 0.075-781.58h-1359c-1238.9 0-1359 0.0419-1359.2 0.47454-0.23813 0.62056-0.23812 1561.7 0.00002 1562.4 0.16603 0.4327 120.14 0.4679 1359.1 0.3995l1358.9-0.075 0.075-781.58z"/>
        <path fill="#4a4a4a" d="m1616 2556.6-10.288-0.079 0.1591-0.971c0.088-0.5341 0.3751-2.3211 0.6392-3.9711 1.3542-8.4609 3.8283-18.682 6.4304-26.565 3.1427-9.5211 7.0623-17.425 11.298-22.781l1.9002-2.4031 95.775-0.075 95.775-0.075 0.076-36.219 0.076-36.219-0.6762-0.1628c-0.3719-0.09-269.7-0.126-598.5-0.081l-597.83 0.082v-1724.6h2850.4v1724.6l-598.17-0.075c-442.18-0.056-598.28 0.013-598.58 0.2617-0.3372 0.2799-0.406 6.379-0.406 35.976 0 19.601 0.082 35.852 0.1821 36.113 0.1655 0.4313 8.8865 0.4745 95.809 0.4745h95.627l1.3856 1.4814c0.7621 0.8147 2.1615 2.671 3.1097 4.125 6.5031 9.9717 11.882 25.969 15.187 45.168l1.02 5.9248-430.09 0.075c-236.55 0.041-434.71 0.04-440.37 0zm1789.1-224.6c0.2489-0.2999 0.3172-204.33 0.2618-781.88l-0.075-781.47h-2718.4l-0.0751 781.63c-0.06 625.11 0.00005 781.68 0.3 781.87 0.20628 0.131 611.74 0.2402 1359 0.2427 1141.5 0 1358.6-0.06 1358.9-0.4012z"/>
        <path fill="#2b2b2b" d="m1606.4 2553.2c1.9908-12.428 5.378-25.42 9.014-34.575 2.5253-6.3581 6.4117-13.299 9.4484-16.875l1.3376-1.575h95.505c86.423 0 95.55-0.045 95.977-0.4714 0.4233-0.4233 0.4714-4.1252 0.4714-36.263 0-29.725-0.069-35.849-0.406-36.129-0.3001-0.2491-156.42-0.3173-598.65-0.2617l-598.24 0.075v-1724.6h2850.4v1724.6h-1196.8l-0.076 36.118c-0.056 26.442 0.014 36.227 0.2617 36.525 0.2833 0.3413 15.8 0.4071 95.986 0.4071h95.648l1.791 2.297c5.6193 7.2065 10.6 18.838 14.24 33.253 1.3851 5.4853 2.8711 12.749 3.4983 17.1 0.1903 1.32 0.468 2.7038 0.6171 3.075l0.2712 0.675h-880.68l0.5406-3.375zm1799-1002.7c0.06-625.23-0.0001-781.83-0.3-782.02-0.2063-0.13098-611.82-0.24022-1359.1-0.24275-1343.1-0.005-1358.8 0.002-1359.1 0.57569-0.33703 0.62974-0.46535 1562.3-0.12844 1563.1 0.16603 0.4327 120.16 0.4679 1359.4 0.3995l1359.2-0.075 0.075-781.78z"/>
        <path fill="#1b1b1b" d="m1605.9 2556.3c0.1839-0.1213 0.4307-1.0305 0.5484-2.0205 0.4063-3.4183 2.2567-12.662 3.6376-18.172 3.8112-15.207 9.0154-27.163 14.903-34.238l1.4475-1.7393 95.764-0.075 95.764-0.076v-73.2l-598.28-0.075c-398.8-0.05-598.28 0.025-598.28 0.225 0 0.1651-0.135 0.3001-0.3 0.3001-0.19993 0-0.3-287.65-0.3-862.35v-862.35h2850.4l-0.024 862.43c-0.013 474.33-0.092 862.26-0.175 862.05-0.121-0.2998-120.06-0.375-598.32-0.375-591.08 0-598.17 0.01-598.48 0.5803-0.2091 0.3906-0.3106 12.211-0.3106 36.17s0.1015 35.779 0.3106 36.17c0.306 0.5718 1.6963 0.5802 95.526 0.5802 52.368 0 95.428 0.082 95.689 0.1821 0.428 0.1643 0.4746 2.9017 0.4746 27.9 0 21.972-0.078 27.719-0.375 27.722-0.25 0-0.225 0.1016 0.075 0.2954 0.2906 0.1879-151.9 0.2909-429.75 0.2909-236.61 0-430.05-0.099-429.87-0.2204zm1799.5-223.9c0.2798-0.2798 0.36-174.48 0.36-782.11v-781.75l-0.7695-0.29257c-1.0598-0.40292-2716.6-0.40292-2717.7 0l-0.76953 0.29257v781.91c0 430.05 0.09 782 0.2 782.11s611.77 0.2 1359.2 0.2c1056.6 0 1359.1-0.08 1359.4-0.36zm-938.94 223.86c0.3-0.1938 0.325-0.2923 0.075-0.2954-0.2972 0-0.375-5.7075-0.375-27.507v-27.502l0.7795 0.7273c2.3542 2.1966 7.2595 10.964 9.829 17.569 3.5319 9.0779 6.898 22.091 8.7568 33.852 0.2602 1.6468 0.6332 3.096 0.8289 3.2204s-4.3017 0.2263-9.9942 0.2263c-6.7915 0-10.195-0.1-9.9-0.2909z"/>
        <path fill="#101010" d="m1818 2502c0.1101-1.2789 0.2568-18.626 0.3261-38.55l0.1259-36.225h455.4l0.1306 36.375c0.072 20.006 0.1741 37.32 0.2274 38.475l0.097 2.1-228.25 0.075-228.25 0.075 0.2002-2.3251zm-1197.1-937.13-0.01-862.2 32.7 32.7 32.7 32.7 0.0006 782.52 0.0006 782.52-32.233 46.382c-17.728 25.51-32.439 46.652-32.691 46.982-0.41055 0.538-0.45887-88.538-0.46743-861.6zm2850.1-0.1502c0-474.13 0.034-668.09 0.075-431.03s0.041 624.99 0 862.05-0.075 43.102-0.075-431.03zm-32.837 814.73-32.132-46.275 0.01-782.7 0.01-782.7 32.25-32.25 32.25-32.25v861.22c0 473.67-0.058 861.22-0.1278 861.22-0.07 0-14.587-20.824-32.26-46.275z"/>
       </g>
      </g>
      <g fill-opacity="0" transform="translate(-138.35,90.219)">
       <g transform="translate(38,-7.0771)">
        <rect stroke-linejoin="round" stroke-opacity=".50761" fill-opacity="1" ry=".18095" height="175.72" width="306.27" stroke="#010000" y="767.98" x="76.523" stroke-width=".052381" fill="#2d5785"/>
        <rect height="12.143" width="6.4286" y="956.65" x="268.97" stroke-width="0.8"/>
        <circle r=".97277" stroke-opacity=".55924" fill-opacity=".24171" stroke="#000b00" cy="839.62" cx="387.24" stroke-width="0.554" fill="#fbfaf9"/>
       </g>
      </g>
     </g>
    </g>
    <g transform="matrix(-1 0 0 1 532.27 131.76)">
     <path fill-opacity=".32308" fill="#483a48" d="m245.34 349.78c-29.01 0-52.56 23.55-52.56 52.56 0 4.46 0.55 8.78 1.6 12.91-10.57 2.01-18.57 11.29-18.57 22.44 0 12.62 10.26 22.87 22.88 22.87 8.95 0 16.69-5.18 20.43-12.68 7.72 4.45 16.68 7.03 26.22 7.03 17.78 0 33.46-8.86 42.97-22.38 5.61 3.42 12.21 5.41 19.25 5.41 9.47 0 18.11-3.58 24.66-9.44 3.86 5.69 10.39 9.44 17.78 9.44 11.84 0 21.44-9.63 21.44-21.47s-9.6-21.44-21.44-21.44c-2.01 0-3.97 0.3-5.81 0.81-2.48-18.02-17.93-31.9-36.63-31.9-7.64 0-14.76 2.3-20.65 6.28-9.62-12.42-24.65-20.44-41.57-20.44z"/>
     <path d="m245.34 360.86c-23.016 0-41.486 18.47-41.486 41.486 0 3.5429 0.43526 6.9459 1.2559 10.191 1.5619 6.182-2.4043 12.403-8.668 13.596-5.4298 1.0334-9.5566 5.7016-9.5566 11.557 0 6.6144 5.1844 11.799 11.799 11.799 4.683 0 8.5887-2.679 10.527-6.5606 2.851-5.7073 9.9212-7.8331 15.447-4.6445 6.1082 3.5256 13.127 5.5488 20.682 5.5488 14.09 0 26.385-6.9812 33.912-17.674 3.3596-4.7724 9.8457-6.1197 14.828-3.0801 3.9339 2.4012 8.5119 3.7852 13.479 3.7852 6.6793 0 12.661-2.4912 17.27-6.6152 4.9988-4.4724 12.794-3.5115 16.557 2.041 1.8626 2.7494 4.9649 4.5742 8.6113 4.5742 5.8281 0 10.361-4.545 10.361-10.393 0-5.8476 4.6981-18.567-5.9955-10.715-0.74437 0.54658-2.6079-9.7645-3.544-9.5016-6.469 1.8163-2.235-2.9705-9.7002-2.9075-1.7372-12.63-20.342-18.331-33.559-18.331-5.4166 0-10.344 1.6127-14.465 4.3906-4.8395 3.2611-11.379 2.2087-14.951-2.4062-7.6063-9.8264-19.39-16.141-32.803-16.141z" transform="matrix(1.0311,0,0,1.0607,-11.18,-24.582)" filter="url(#d)" fill="#eceaec"/>
     <g fill="#0c0c0c">
      <path fill-opacity=".12941" d="m205.39 424.13c-1.91 8.58 10.91 21.54 16.54 24.44 4.17 0.32 2.99-1.7 1.26-3.33-3.86-3.66-15.03-12.33-17.8-21.11z"/>
      <path fill-opacity=".12821" d="m292.29 401.75c6.1 6.34 3.91 25.08 0.62 30.49-3.39 2.44-5.43-0.89-4.81-3.19 1.39-5.13 6.4-18.35 4.19-27.3z"/>
      <path fill-opacity=".12821" d="m337.85 409.41c3.68 6.09 1.59 17.97-1.98 21.64-1.86-0.18-4.37-2.42-3.47-4.12 2.02-3.8 5.59-10.08 5.45-17.52z"/>
     </g>
    </g>
    <g transform="matrix(.93186 -.36282 .36282 .93186 -427.7 450.34)">
     <path fill-opacity=".40513" fill="#141116" d="m434.04 231.24c-17.01 0-30.78 12.24-30.78 27.31s13.77 27.31 30.78 27.31c2.39 0 4.73-0.26 6.97-0.72 0.12 27.9 22.79 50.5 50.72 50.5 8.4 0 16.3-2.07 23.28-5.69 6.75 9.61 17.9 15.91 30.53 15.91 20.59 0 37.31-16.72 37.31-37.31s-16.72-37.32-37.31-37.31c-1.66 0-3.28 0.13-4.88 0.34-5.86-21.54-25.55-37.38-48.93-37.38-11.71 0-22.48 3.97-31.07 10.63-5.34-8.12-15.26-13.59-26.62-13.59z"/>
     <path d="m433.71 233.53c-12.868 0-24.335 11.489-24.335 21.309 0 9.8204 18.118 22.706 30.987 22.706 1.7639 0 3.5336-0.19349 5.2402-0.54297 5.3291-1.0907 10.324 2.9667 10.348 8.4062 0.0994 23.249 18.823 41.918 42.1 41.918 6.989 0 13.501-1.7042 19.312-4.7188 3.8298-1.9866 8.5384-0.83575 11.02 2.6934 5.2023 7.4015 13.724 12.244 23.48 12.244 15.927 0 28.693-12.766 28.693-28.693s-12.766-28.693-28.693-28.693c-1.1953 0-2.4261 0.0953-3.7539 0.26953-4.2744 0.56028-8.3055-2.1235-9.4375-6.2832-4.8562-17.852-21.125-31.018-40.621-31.018-9.7558 0-22.96 1.0214-30.092 6.5574-3.9703 3.0813-5.2408 0.98656-8.0028-3.2121-3.6244-5.5091-6.129-8.4561-14.719-8.4561z" fill-opacity=".96923" filter="url(#e)" fill="#e7e6e6"/>
     <g transform="matrix(1.0354 .40313 -.40313 1.0354 471.82 15.045)">
      <g transform="translate(-757.14,272.06)">
       <title>Layer 1</title>
      </g>
      <text font-size="40px" xml:space="preserve" style="word-spacing:0px;letter-spacing:0px" line-height="125%" y="649.51617" x="895.92316"><tspan y="649.51617" x="895.92316"/></text>
      <text font-size="13px" xml:space="preserve" style="word-spacing:0px;letter-spacing:0px" line-height="125%" y="952.16608" x="792.42133"><tspan y="952.16608" x="792.42133"/></text>
      <text font-size="6px" xml:space="preserve" style="word-spacing:0px;letter-spacing:0px" line-height="125%" y="962.39972" x="791.12543"><tspan y="962.39972" x="791.12543"/></text>
      <text style="word-spacing:0px;letter-spacing:0px" xml:space="preserve" font-size="40px" line-height="125%" y="-32.047638" x="98.365852" font-family="Sans" fill="#000000"><tspan y="-32.047638" x="98.365852"/></text>
      <text style="word-spacing:0px;letter-spacing:0px" font-family="Sans" xml:space="preserve" font-size="18px" line-height="125%" y="315.4798" x="449.75433" font-weight="bold" fill="#000000"><tspan y="315.4798" x="449.75433"/></text>
      <g transform="translate(87.114,-167.21)">
       <text style="word-spacing:0px;letter-spacing:0px" xml:space="preserve" transform="rotate(-90)" line-height="125%" font-size="32.49px" y="-740.2641" x="73.980637"><tspan y="-740.2641" x="73.980637"/></text>
       <text style="word-spacing:0px;letter-spacing:0px" xml:space="preserve" transform="rotate(-90)" line-height="125%" font-size="10.559px" y="-494.43677" x="-10.088734"><tspan y="-494.43677" x="-10.088734"/></text>
       <text style="word-spacing:0px;letter-spacing:0px" xml:space="preserve" transform="rotate(-90)" line-height="125%" font-size="4.8735px" y="-486.12445" x="-11.141315"><tspan y="-486.12445" x="-11.141315"/></text>
       <g transform="matrix(-.20203 -.02302 .02302 -.20203 -420.8 439.17)">
        <text stroke-linejoin="round" font-size="41.822px" stroke-width="2.5909" stroke-opacity=".98551" font-family="Skia" xml:space="preserve" transform="rotate(173.51)" line-height="125%" stroke="#e5e5e5" style="word-spacing:0px;letter-spacing:0px" stroke-dasharray="31.09136276, 2.5909469" y="-532.00525" x="110.77794" font-weight="100" fill="#a42b23"><tspan y="-532.00525" x="110.77794" stroke-width="2.5909"/></text>
        <text style="word-spacing:0px;letter-spacing:0px" xml:space="preserve" transform="matrix(-.99357 .1132 -.1132 -.99357 0 0)" line-height="125%" font-size="61.474px" y="-407.83047" x="134.32643" font-family="sans-serif" fill="#000000"><tspan y="-407.83047" x="134.32643"/></text>
       </g>
       <g transform="translate(-581.43,229.79)">
        <g transform="translate(-63.853,24.775)">
         <title>Layer 1</title>
        </g>
        <text font-size="40px" xml:space="preserve" style="word-spacing:0px;letter-spacing:0px" line-height="125%" y="402.22873" x="1589.2069"><tspan y="402.22873" x="1589.2069"/></text>
        <text font-size="13px" xml:space="preserve" style="word-spacing:0px;letter-spacing:0px" line-height="125%" y="704.87872" x="1485.705"><tspan y="704.87872" x="1485.705"/></text>
        <text font-size="6px" xml:space="preserve" style="word-spacing:0px;letter-spacing:0px" line-height="125%" y="715.11237" x="1484.4091"><tspan y="715.11237" x="1484.4091"/></text>
        <text style="word-spacing:0px;letter-spacing:0px" xml:space="preserve" font-size="40px" line-height="125%" y="-279.33539" x="791.64917" font-family="Sans" fill="#000000"><tspan y="-279.33539" x="791.64917"/></text>
        <text style="word-spacing:0px;letter-spacing:0px" font-family="Sans" xml:space="preserve" font-size="18px" line-height="125%" y="68.192184" x="1143.0378" font-weight="bold" fill="#000000"><tspan y="68.192184" x="1143.0378"/></text>
        <g transform="translate(325.3,-340.28)">
         <g transform="translate(-179.94,-1033.6)">
          <g fill-opacity="0" transform="translate(-138.35,90.219)">
           <g stroke="#000" transform="translate(38,-7.0771)">
            <g transform="translate(599.39,443.53)">
             <path d="m324.55 838.32 1.1827-1.1971 1.7617-1.1057 2.498-0.7825 170.93-0.0133c1.0602 0.30306 2.2943 0.78966 2.8427 1.0437 0.49445 0.31341 1.0869 0.68372 1.6265 1.1311 0.42696 0.35392 0.80395 0.78999 1.192 1.0468l1.3428 1.6658 0.89226 2.1082 0.60702 2.2005-0.0907 114.82h-187.05v-116.32l1.1562-2.9801z" fill-opacity=".76777" transform="translate(2.0502e-6,-1.174e-5)" stroke-width=".099837" fill="#fff"/>
             <path d="m328.29 841.78 0.64017-0.66295 0.79907-0.56006 1.0288-0.36501h169.28l1.3878 0.49964 0.81466 0.59659 0.77992 0.70041 0.62648 0.76331 0.48516 1.0735 0.33209 1.1636v109.73h-177.31l0.0454-110.11 0.13719-0.96178 0.42216-1.0367z" fill-opacity="1" transform="translate(2.0502e-6,-1.174e-5)" stroke-width="8.9" fill="#007cff"/>
             <path d="m297.73 959.35h237.66l0.001 6.7469-0.30062 0.92382-0.6082 0.74579-0.97656 0.55969-1.3827 0.2797h-231.13l-0.99615-0.21608-0.9737-0.44021-0.7671-0.70294-0.52989-0.81864z" fill-opacity="1" transform="translate(2.0502e-6,-1.174e-5)" stroke-width=".1" fill="#b3b3b3"/>
            </g>
            <g fill-opacity="1" transform="translate(599.39,445.53)">
             <path stroke-width=".1" fill="#ccc" d="m297.69 957.31h237.74c0.007 2.266 0.0277 4.3729-0.00051 6.6386-82.493 0.0249-166.03 0.18242-236.93 0.25774-0.2754 0.00029-0.5506 0.002-0.8256 0.002-0.0466-2.1904 0.0124-4.7503 0.0124-6.8985z"/>
             <path stroke-width=".098197" fill="#b3b3b3" d="m404.7 957.31h23.718v1.6486l-0.15012 0.50242-0.33444 0.52811-0.40255 0.51137-0.43911 0.2587-0.48138 0.1281h-19.83l-0.58392-0.1708-0.52997-0.27172-0.42641-0.43064-0.42301-0.60158-0.11667-0.51435z"/>
             <rect ry=".16492" height=".64792" width="8.3277" y="960.54" x="504.16" stroke-width=".060334"/>
            </g>
           </g>
          </g>
         </g>
        </g>
        <g transform="matrix(.93186 -.36282 .36282 .93186 405.09 39.839)">
         <path fill-opacity=".24615" fill="#09080a" d="m457.19 261.88c-17.01 0-30.78 12.24-30.78 27.31s13.77 27.31 30.78 27.31c2.39 0 4.73-0.26 6.97-0.72 0.12 27.9 22.79 50.5 50.72 50.5 8.4 0 16.3-2.07 23.28-5.69 6.75 9.61 17.9 15.91 30.53 15.91 20.59 0 37.31-16.72 37.31-37.31s-16.72-37.32-37.31-37.31c-1.66 0-3.28 0.13-4.88 0.34-5.86-21.54-25.55-37.38-48.93-37.38-11.71 0-22.48 3.97-31.07 10.63-5.34-8.12-15.26-13.59-26.62-13.59z"/>
         <path d="m638.54 99.861c-12.868 0-24.335 11.489-24.335 21.309 0 9.8204 18.118 22.706 30.987 22.706 1.7639 0 3.5336-0.19349 5.2402-0.54297 5.3291-1.0907 10.324 2.9667 10.348 8.4062 0.0994 23.249 18.823 41.918 42.1 41.918 6.989 0 13.501-1.7042 19.312-4.7188 3.8298-1.9866 8.5384-0.83575 11.02 2.6934 5.2023 7.4015 13.724 12.244 23.48 12.244 15.927 0 28.693-12.766 28.693-28.693s-12.766-28.693-28.693-28.693c-1.1953 0-2.4261 0.0953-3.7539 0.26953-4.2744 0.56028-8.3055-2.1235-9.4375-6.2832-4.8562-17.852-21.125-31.018-40.621-31.018-9.7558 0-22.96 1.0214-30.092 6.5574-3.9703 3.0813-5.2408 0.98656-8.0028-3.2121-3.6244-5.5091-6.129-8.4561-14.719-8.4561z" fill-opacity=".96923" transform="translate(-181.68,164.31)" filter="url(#c)" fill="#e7e6e6"/>
         <path fill-opacity=".11282" fill="#282929" d="m478.43 283.3c-10.07 3.11-17.22 22.68-17.41 29.67 1.79 4.13 3.32 1.86 4.17-0.71 1.9-5.76 5.36-21.3 13.24-28.96z"/>
         <path fill-opacity=".11282" fill="#282929" d="m547.16 326.58c-9.42 4.74-13.22 25.22-12.25 32.14 2.45 3.78 3.59 1.28 4-1.39 0.91-5.99 1.75-21.89 8.25-30.75z"/>
        </g>
        <g transform="matrix(-.96847 -.24914 -.24914 .96847 1704.4 -28.168)">
         <path fill-opacity=".24615" fill="#09080a" d="m457.19 261.88c-17.01 0-30.78 12.24-30.78 27.31s13.77 27.31 30.78 27.31c2.39 0 4.73-0.26 6.97-0.72 0.12 27.9 22.79 50.5 50.72 50.5 8.4 0 16.3-2.07 23.28-5.69 6.75 9.61 17.9 15.91 30.53 15.91 20.59 0 37.31-16.72 37.31-37.31s-16.72-37.32-37.31-37.31c-1.66 0-3.28 0.13-4.88 0.34-5.86-21.54-25.55-37.38-48.93-37.38-11.71 0-22.48 3.97-31.07 10.63-5.34-8.12-15.26-13.59-26.62-13.59z"/>
         <path d="m638.54 99.861c-12.868 0-24.335 11.489-24.335 21.309 0 9.8204 18.118 22.706 30.987 22.706 1.7639 0 3.5336-0.19349 5.2402-0.54297 5.3291-1.0907 10.324 2.9667 10.348 8.4062 0.0994 23.249 18.823 41.918 42.1 41.918 6.989 0 13.501-1.7042 19.312-4.7188 3.8298-1.9866 8.5384-0.83575 11.02 2.6934 5.2023 7.4015 13.724 12.244 23.48 12.244 15.927 0 28.693-12.766 28.693-28.693s-12.766-28.693-28.693-28.693c-1.1953 0-2.4261 0.0953-3.7539 0.26953-4.2744 0.56028-8.3055-2.1235-9.4375-6.2832-4.8562-17.852-21.125-31.018-40.621-31.018-9.7558 0-22.96 1.0214-30.092 6.5574-3.9703 3.0813-5.2408 0.98656-8.0028-3.2121-3.6244-5.5091-6.129-8.4561-14.719-8.4561z" fill-opacity=".96923" transform="translate(-181.68,164.31)" filter="url(#c)" fill="#e7e6e6"/>
         <path fill-opacity=".11282" fill="#282929" d="m478.43 283.3c-10.07 3.11-17.22 22.68-17.41 29.67 1.79 4.13 3.32 1.86 4.17-0.71 1.9-5.76 5.36-21.3 13.24-28.96z"/>
         <path fill-opacity=".11282" fill="#282929" d="m547.16 326.58c-9.42 4.74-13.22 25.22-12.25 32.14 2.45 3.78 3.59 1.28 4-1.39 0.91-5.99 1.75-21.89 8.25-30.75z"/>
        </g>
       </g>
      </g>
     </g>
    </g>
   </g>
  </g>
 </g>
</svg>
