<?xml version="1.0" encoding="UTF-8" standalone="no"?>
<svg
   xmlns:dc="http://purl.org/dc/elements/1.1/"
   xmlns:cc="http://creativecommons.org/ns#"
   xmlns:rdf="http://www.w3.org/1999/02/22-rdf-syntax-ns#"
   xmlns:svg="http://www.w3.org/2000/svg"
   xmlns="http://www.w3.org/2000/svg"
   xmlns:xlink="http://www.w3.org/1999/xlink"
   id="svg2"
   xml:space="preserve"
   viewBox="0 0 215.93 217.08"
   version="1.1"><defs
     id="defs20116"><linearGradient
       id="linearGradient23366"><stop
         id="stop23368"
         offset="0"
         style="stop-color:#1b100c;stop-opacity:1" /><stop
         style="stop-color:#3a2818;stop-opacity:0.99607843;"
         offset="0.72514921"
         id="stop23370" /><stop
         id="stop23372"
         offset="1"
         style="stop-color:#ad7112;stop-opacity:0.85490197" /></linearGradient><linearGradient
       id="linearGradient20658"><stop
         id="stop21887"
         offset="0"
         style="stop-color:#1b100c;stop-opacity:1" /><stop
         style="stop-color:#3a2818;stop-opacity:0.99607843;"
         offset="0.72514921"
         id="stop21889" /><stop
         id="stop21891"
         offset="1"
         style="stop-color:#a28d42;stop-opacity:0.99607843" /></linearGradient><linearGradient
       id="linearGradient21893"><stop
         style="stop-color:#1b100c;stop-opacity:1"
         offset="0"
         id="stop20660" /><stop
         id="stop20666"
         offset="0.72514921"
         style="stop-color:#3a2818;stop-opacity:0.99607843;" /><stop
         style="stop-color:#a28d42;stop-opacity:0.99607843"
         offset="1"
         id="stop20662" /></linearGradient><radialGradient
       xlink:href="#linearGradient20658"
       id="radialGradient20670"
       cx="86.374344"
       cy="86.831406"
       fx="86.374344"
       fy="86.831406"
       r="86.374786"
       gradientTransform="matrix(1,0,0,1.0052892,0,-0.45926858)"
       gradientUnits="userSpaceOnUse" /><radialGradient
       xlink:href="#linearGradient20658"
       id="radialGradient20672"
       gradientUnits="userSpaceOnUse"
       gradientTransform="matrix(1,0,0,1.0052892,6.4,-8.4592686)"
       cx="86.374344"
       cy="86.831406"
       fx="86.374344"
       fy="86.831406"
       r="86.374786" /><radialGradient
       xlink:href="#linearGradient20658"
       id="radialGradient20674"
       gradientUnits="userSpaceOnUse"
       gradientTransform="matrix(1,0,0,1.0052892,6.4,-8.4592686)"
       cx="86.374344"
       cy="86.831406"
       fx="86.374344"
       fy="86.831406"
       r="86.374786" /><radialGradient
       xlink:href="#linearGradient20658"
       id="radialGradient20676"
       gradientUnits="userSpaceOnUse"
       gradientTransform="matrix(1,0,0,1.0052892,6.4,-8.4592686)"
       cx="86.374344"
       cy="86.831406"
       fx="86.374344"
       fy="86.831406"
       r="86.374786" /><radialGradient
       xlink:href="#linearGradient20658"
       id="radialGradient20684"
       gradientUnits="userSpaceOnUse"
       gradientTransform="matrix(-0.59564519,-0.80324766,0.8074962,-0.59879568,85.820611,210.25964)"
       cx="86.374344"
       cy="86.831406"
       fx="86.374344"
       fy="86.831406"
       r="86.374786" /><radialGradient
       xlink:href="#linearGradient20658"
       id="radialGradient20688"
       gradientUnits="userSpaceOnUse"
       gradientTransform="matrix(0.35830521,-0.93360451,0.93854253,0.36020036,-27.04947,125.95322)"
       cx="86.374344"
       cy="86.831406"
       fx="86.374344"
       fy="86.831406"
       r="86.374786" /><radialGradient
       xlink:href="#linearGradient20658"
       id="radialGradient20692"
       gradientUnits="userSpaceOnUse"
       gradientTransform="matrix(-0.42475844,0.47872776,-0.48125985,-0.42700507,151.07295,94.673645)"
       cx="86.374344"
       cy="86.831406"
       fx="86.374344"
       fy="86.831406"
       r="86.374786" /><radialGradient
       gradientUnits="userSpaceOnUse"
       gradientTransform="matrix(1,0,0,0.73033416,0,2.7101802)"
       r="3.8808239"
       fy="10.050143"
       fx="139.05669"
       cy="10.050143"
       cx="139.05669"
       id="radialGradient23860"
       xlink:href="#linearGradient23366" /><radialGradient
       gradientUnits="userSpaceOnUse"
       gradientTransform="matrix(1,0,0,0.73298657,0,36.050314)"
       r="3.8668261"
       fy="135.01311"
       fx="122.27271"
       cy="135.01311"
       cx="122.27271"
       id="radialGradient23862"
       xlink:href="#linearGradient23366" /><radialGradient
       gradientUnits="userSpaceOnUse"
       gradientTransform="matrix(1,0,0,1.0218028,0,-1.7033947)"
       r="6.3433223"
       fy="78.127373"
       fx="117.55532"
       cy="78.127373"
       cx="117.55532"
       id="radialGradient23864"
       xlink:href="#linearGradient23366" /><radialGradient
       gradientUnits="userSpaceOnUse"
       gradientTransform="matrix(1,0,0,0.96558375,0,4.228183)"
       r="4.7272825"
       fy="122.85427"
       fx="152.7791"
       cy="122.85427"
       cx="152.7791"
       id="radialGradient23866"
       xlink:href="#linearGradient23366" /><radialGradient
       gradientUnits="userSpaceOnUse"
       gradientTransform="matrix(1,0,0,1.4761084,0,-54.431397)"
       r="6.8703833"
       fy="114.32565"
       fx="139.0162"
       cy="114.32565"
       cx="139.0162"
       id="radialGradient23868"
       xlink:href="#linearGradient23366" /><radialGradient
       gradientUnits="userSpaceOnUse"
       gradientTransform="matrix(1,0,0,1.7855657,0,-117.68521)"
       r="4.6244268"
       fy="149.80949"
       fx="67.881096"
       cy="149.80949"
       cx="67.881096"
       id="radialGradient23870"
       xlink:href="#linearGradient23366" /><radialGradient
       gradientUnits="userSpaceOnUse"
       gradientTransform="matrix(1,0,0,1.3248816,0,-46.438119)"
       r="3.1545007"
       fy="142.93858"
       fx="58.18906"
       cy="142.93858"
       cx="58.18906"
       id="radialGradient23872"
       xlink:href="#linearGradient23366" /><radialGradient
       gradientUnits="userSpaceOnUse"
       gradientTransform="matrix(1,0,0,1.3296111,0,-48.959025)"
       r="3.1431434"
       fy="148.53575"
       fx="128.01326"
       cy="148.53575"
       cx="128.01326"
       id="radialGradient23874"
       xlink:href="#linearGradient23366" /><radialGradient
       gradientUnits="userSpaceOnUse"
       gradientTransform="matrix(1,0,0,1.4992934,0,-9.6139555)"
       r="8.0598631"
       fy="19.255121"
       fx="81.857826"
       cy="19.255121"
       cx="81.857826"
       id="radialGradient23876"
       xlink:href="#linearGradient23366" /><radialGradient
       gradientUnits="userSpaceOnUse"
       gradientTransform="matrix(1,0,0,1.1934187,0,-21.760164)"
       r="15.846852"
       fy="112.50291"
       fx="72.967148"
       cy="112.50291"
       cx="72.967148"
       id="radialGradient23878"
       xlink:href="#linearGradient23366" /><radialGradient
       gradientUnits="userSpaceOnUse"
       gradientTransform="matrix(1,0,0,1.2487702,0,-25.716333)"
       r="3.0433156"
       fy="103.37384"
       fx="58.536316"
       cy="103.37384"
       cx="58.536316"
       id="radialGradient23880"
       xlink:href="#linearGradient23366" /><radialGradient
       gradientUnits="userSpaceOnUse"
       gradientTransform="matrix(1,0,0,1.1330626,0,-6.7062539)"
       r="7.5665507"
       fy="50.399258"
       fx="87.183769"
       cy="50.399258"
       cx="87.183769"
       id="radialGradient23882"
       xlink:href="#linearGradient23366" /><radialGradient
       gradientUnits="userSpaceOnUse"
       gradientTransform="matrix(1,0,0,1.8661359,0,-45.873466)"
       r="1.8758488"
       fy="52.96336"
       fx="76.65715"
       cy="52.96336"
       cx="76.65715"
       id="radialGradient23884"
       xlink:href="#linearGradient23366" /><radialGradient
       gradientUnits="userSpaceOnUse"
       gradientTransform="matrix(1,0,0,1.8500565,0,-144.64767)"
       r="1.8921787"
       fy="170.16241"
       fx="109.83617"
       cy="170.16241"
       cx="109.83617"
       id="radialGradient23886"
       xlink:href="#linearGradient23366" /><radialGradient
       gradientUnits="userSpaceOnUse"
       gradientTransform="matrix(1,0,0,1.7299665,0,-87.25144)"
       r="1.6001031"
       fy="119.528"
       fx="115.98155"
       cy="119.528"
       cx="115.98155"
       id="radialGradient23888"
       xlink:href="#linearGradient23366" /><radialGradient
       gradientUnits="userSpaceOnUse"
       gradientTransform="matrix(1,0,0,1.5282687,0,-63.211342)"
       r="0.84142733"
       fy="119.65757"
       fx="51.069981"
       cy="119.65757"
       cx="51.069981"
       id="radialGradient23890"
       xlink:href="#linearGradient23366" /><radialGradient
       gradientUnits="userSpaceOnUse"
       gradientTransform="matrix(1,0,0,1.6459398,0,-55.60539)"
       r="9.8787441"
       fy="86.08448"
       fx="144.07149"
       cy="86.08448"
       cx="144.07149"
       id="radialGradient23892"
       xlink:href="#linearGradient23366" /><radialGradient
       gradientUnits="userSpaceOnUse"
       gradientTransform="matrix(1,0,0,1.3777294,0,-41.737178)"
       r="1.6053987"
       fy="110.49492"
       fx="92.172729"
       cy="110.49492"
       cx="92.172729"
       id="radialGradient23894"
       xlink:href="#linearGradient23366" /><radialGradient
       gradientUnits="userSpaceOnUse"
       gradientTransform="matrix(1,0,0,1.6494638,0,-24.920533)"
       r="5.8146195"
       fy="38.370937"
       fx="141.45917"
       cy="38.370937"
       cx="141.45917"
       id="radialGradient23896"
       xlink:href="#linearGradient23366" /><radialGradient
       gradientUnits="userSpaceOnUse"
       gradientTransform="matrix(1,0,0,1.1877415,0,-20.493226)"
       r="3.5214479"
       fy="109.1566"
       fx="160.90002"
       cy="109.1566"
       cx="160.90002"
       id="radialGradient23898"
       xlink:href="#linearGradient23366" /><radialGradient
       gradientUnits="userSpaceOnUse"
       gradientTransform="matrix(1,0,0,1.3780094,0,-16.653761)"
       r="3.1598892"
       fy="44.056477"
       fx="25.96282"
       cy="44.056477"
       cx="25.96282"
       id="radialGradient23900"
       xlink:href="#linearGradient23366" /><radialGradient
       gradientUnits="userSpaceOnUse"
       gradientTransform="matrix(1,0,0,1.7968993,0,-56.887969)"
       r="9.7200994"
       fy="71.38665"
       fx="68.253738"
       cy="71.38665"
       cx="68.253738"
       id="radialGradient23902"
       xlink:href="#linearGradient23366" /><radialGradient
       gradientUnits="userSpaceOnUse"
       gradientTransform="matrix(1,0,0,1.3744294,0,-59.564722)"
       r="9.1388998"
       fy="159.08133"
       fx="109.77038"
       cy="159.08133"
       cx="109.77038"
       id="radialGradient23904"
       xlink:href="#linearGradient23366" /><radialGradient
       gradientUnits="userSpaceOnUse"
       gradientTransform="matrix(1,0,0,0.83319071,0,9.7320908)"
       r="2.7104149"
       fy="58.342621"
       fx="121.34454"
       cy="58.342621"
       cx="121.34454"
       id="radialGradient23906"
       xlink:href="#linearGradient23366" /><radialGradient
       gradientUnits="userSpaceOnUse"
       gradientTransform="matrix(1,0,0,1.5248503,0,-29.011059)"
       r="6.2729239"
       fy="55.274925"
       fx="148.78104"
       cy="55.274925"
       cx="148.78104"
       id="radialGradient23908"
       xlink:href="#linearGradient23366" /><radialGradient
       gradientUnits="userSpaceOnUse"
       gradientTransform="matrix(1,0,0,1.3919173,0,-8.6811998)"
       r="4.5777583"
       fy="22.150591"
       fx="143.74515"
       cy="22.150591"
       cx="143.74515"
       id="radialGradient23910"
       xlink:href="#linearGradient23366" /><radialGradient
       gradientUnits="userSpaceOnUse"
       gradientTransform="matrix(1,0,0,1.6364923,0,-21.991096)"
       r="1.2280195"
       fy="34.550449"
       fx="108.128"
       cy="34.550449"
       cx="108.128"
       id="radialGradient23912"
       xlink:href="#linearGradient23366" /><radialGradient
       gradientUnits="userSpaceOnUse"
       gradientTransform="matrix(1,0,0,1.9624245,0,-14.309313)"
       r="7.5764503"
       fy="14.867984"
       fx="110.92027"
       cy="14.867984"
       cx="110.92027"
       id="radialGradient23914"
       xlink:href="#linearGradient23366" /><radialGradient
       gradientUnits="userSpaceOnUse"
       gradientTransform="matrix(1,0,0,1.9470279,0,-31.364726)"
       r="8.3571663"
       fy="33.119114"
       fx="161.76848"
       cy="33.119114"
       cx="161.76848"
       id="radialGradient23916"
       xlink:href="#linearGradient23366" /><radialGradient
       gradientUnits="userSpaceOnUse"
       gradientTransform="matrix(1,0,0,1.3525473,0,-14.953256)"
       r="3.6263535"
       fy="42.414898"
       fx="131.83327"
       cy="42.414898"
       cx="131.83327"
       id="radialGradient23918"
       xlink:href="#linearGradient23366" /><radialGradient
       gradientUnits="userSpaceOnUse"
       gradientTransform="matrix(1,0,0,1.3492073,0,-29.490141)"
       r="3.635314"
       fy="84.448814"
       fx="20.204464"
       cy="84.448814"
       cx="20.204464"
       id="radialGradient23920"
       xlink:href="#linearGradient23366" /><radialGradient
       gradientUnits="userSpaceOnUse"
       gradientTransform="matrix(1,0,0,1.599758,0,-58.052896)"
       r="7.3773198"
       fy="96.793861"
       fx="165.37181"
       cy="96.793861"
       cx="165.37181"
       id="radialGradient23922"
       xlink:href="#linearGradient23366" /><radialGradient
       gradientUnits="userSpaceOnUse"
       gradientTransform="matrix(1,0,0,1.6460075,0,-62.773214)"
       r="5.8266935"
       fy="97.171036"
       fx="49.637939"
       cy="97.171036"
       cx="49.637939"
       id="radialGradient23924"
       xlink:href="#linearGradient23366" /><radialGradient
       gradientUnits="userSpaceOnUse"
       gradientTransform="matrix(1,0,0,1.1874932,0,-10.866369)"
       r="3.5219879"
       fy="57.956074"
       fx="40.263557"
       cy="57.956074"
       cx="40.263557"
       id="radialGradient23926"
       xlink:href="#linearGradient23366" /><radialGradient
       gradientUnits="userSpaceOnUse"
       gradientTransform="matrix(1,0,0,1.7278295,0,-76.287041)"
       r="13.226792"
       fy="104.81443"
       fx="122.87751"
       cy="104.81443"
       cx="122.87751"
       id="radialGradient23928"
       xlink:href="#linearGradient23366" /><radialGradient
       gradientUnits="userSpaceOnUse"
       gradientTransform="matrix(1,0,0,1.5681892,0,-65.366431)"
       r="2.0793636"
       fy="115.04343"
       fx="31.170942"
       cy="115.04343"
       cx="31.170942"
       id="radialGradient23930"
       xlink:href="#linearGradient23366" /><radialGradient
       gradientUnits="userSpaceOnUse"
       gradientTransform="matrix(1,0,0,1.581103,0,-87.075104)"
       r="2.0628574"
       fy="149.84451"
       fx="99.15345"
       cy="149.84451"
       cx="99.15345"
       id="radialGradient23932"
       xlink:href="#linearGradient23366" /><radialGradient
       gradientUnits="userSpaceOnUse"
       gradientTransform="matrix(1,0,0,0.37590636,0,5.7318817)"
       r="11.785242"
       fy="9.18433"
       fx="60.636482"
       cy="9.18433"
       cx="60.636482"
       id="radialGradient23934"
       xlink:href="#linearGradient23366" /><radialGradient
       gradientUnits="userSpaceOnUse"
       gradientTransform="matrix(1,0,0,1.5075659,0,-42.400172)"
       r="9.0649757"
       fy="83.536293"
       fx="102.49482"
       cy="83.536293"
       cx="102.49482"
       id="radialGradient23936"
       xlink:href="#linearGradient23366" /><radialGradient
       gradientUnits="userSpaceOnUse"
       gradientTransform="matrix(1,0,0,1.635904,0,-27.821247)"
       r="1.2280195"
       fy="43.750706"
       fx="64.170006"
       cy="43.750706"
       cx="64.170006"
       id="radialGradient23938"
       xlink:href="#linearGradient23366" /><radialGradient
       gradientUnits="userSpaceOnUse"
       gradientTransform="matrix(1,0,0,1.4064955,0,-27.682058)"
       r="1.7477314"
       fy="68.099304"
       fx="14.277543"
       cy="68.099304"
       cx="14.277543"
       id="radialGradient23940"
       xlink:href="#linearGradient23366" /><radialGradient
       gradientUnits="userSpaceOnUse"
       gradientTransform="matrix(1,0,0,1.6353364,0,-105.81667)"
       r="1.2287371"
       fy="166.5522"
       fx="115.7363"
       cy="166.5522"
       cx="115.7363"
       id="radialGradient23942"
       xlink:href="#linearGradient23366" /><radialGradient
       gradientUnits="userSpaceOnUse"
       gradientTransform="matrix(1,0,0,1.35342,0,-20.431808)"
       r="10.338384"
       fy="57.811684"
       fx="10.337942"
       cy="57.811684"
       cx="10.337942"
       id="radialGradient23944"
       xlink:href="#linearGradient23366" /><radialGradient
       gradientUnits="userSpaceOnUse"
       gradientTransform="matrix(1,0,0,1.9469918,0,-96.515165)"
       r="8.3575659"
       fy="101.91764"
       fx="24.604527"
       cy="101.91764"
       cx="24.604527"
       id="radialGradient23946"
       xlink:href="#linearGradient23366" /><radialGradient
       gradientUnits="userSpaceOnUse"
       gradientTransform="matrix(1,0,0,1.3556921,0,-27.192243)"
       r="3.6179249"
       fy="76.448814"
       fx="53.2673"
       cy="76.448814"
       cx="53.2673"
       id="radialGradient23948"
       xlink:href="#linearGradient23366" /><radialGradient
       gradientUnits="userSpaceOnUse"
       gradientTransform="matrix(1,0,0,1.2585877,0,-6.875857)"
       r="13.061825"
       fy="26.59004"
       fx="124.47182"
       cy="26.59004"
       cx="124.47182"
       id="radialGradient23950"
       xlink:href="#linearGradient23366" /><radialGradient
       gradientUnits="userSpaceOnUse"
       gradientTransform="matrix(1,0,0,1.6021008,0,-56.893592)"
       r="2.4748404"
       fy="94.491814"
       fx="89.069878"
       cy="94.491814"
       cx="89.069878"
       id="radialGradient23952"
       xlink:href="#linearGradient23366" /><radialGradient
       gradientUnits="userSpaceOnUse"
       gradientTransform="matrix(1,0,0,1.3327692,0,-19.148112)"
       r="7.338253"
       fy="57.541714"
       fx="53.168709"
       cy="57.541714"
       cx="53.168709"
       id="radialGradient23954"
       xlink:href="#linearGradient23366" /><radialGradient
       gradientUnits="userSpaceOnUse"
       gradientTransform="matrix(1,0,0,1.6856898,0,-16.382491)"
       r="2.4357176"
       fy="23.891987"
       fx="39.776783"
       cy="23.891987"
       cx="39.776783"
       id="radialGradient23956"
       xlink:href="#linearGradient23366" /><radialGradient
       gradientUnits="userSpaceOnUse"
       gradientTransform="matrix(1,0,0,1.2881024,0,-12.812258)"
       r="5.6210346"
       fy="44.471195"
       fx="38.450546"
       cy="44.471195"
       cx="38.450546"
       id="radialGradient23958"
       xlink:href="#linearGradient23366" /><radialGradient
       gradientUnits="userSpaceOnUse"
       gradientTransform="matrix(1,0,0,0.56613199,0,60.912674)"
       r="9.9641914"
       fy="140.39449"
       fx="107.65519"
       cy="140.39449"
       cx="107.65519"
       id="radialGradient23960"
       xlink:href="#linearGradient23366" /><radialGradient
       gradientUnits="userSpaceOnUse"
       gradientTransform="matrix(1,0,0,0.96397613,0,1.2736634)"
       r="7.9231853"
       fy="35.356094"
       fx="74.083046"
       cy="35.356094"
       cx="74.083046"
       id="radialGradient23962"
       xlink:href="#linearGradient23366" /><radialGradient
       gradientUnits="userSpaceOnUse"
       gradientTransform="matrix(1,0,0,1.2000697,0,-6.0940808)"
       r="13.812102"
       fy="30.459789"
       fx="52.992001"
       cy="30.459789"
       cx="52.992001"
       id="radialGradient23964"
       xlink:href="#linearGradient23366" /><radialGradient
       gradientUnits="userSpaceOnUse"
       gradientTransform="matrix(1,0,0,0.7888934,0,32.824083)"
       r="9.9433403"
       fy="155.48582"
       fx="57.663303"
       cy="155.48582"
       cx="57.663303"
       id="radialGradient23966"
       xlink:href="#linearGradient23366" /><radialGradient
       gradientUnits="userSpaceOnUse"
       gradientTransform="matrix(1,0,0,1.1324871,0,-18.137911)"
       r="11.319722"
       fy="136.90327"
       fx="30.543776"
       cy="136.90327"
       cx="30.543776"
       id="radialGradient23968"
       xlink:href="#linearGradient23366" /><radialGradient
       gradientUnits="userSpaceOnUse"
       gradientTransform="matrix(1,0,0,1.1891229,0,-24.243742)"
       r="7.6875839"
       fy="128.19038"
       fx="47.966019"
       cy="128.19038"
       cx="47.966019"
       id="radialGradient23970"
       xlink:href="#linearGradient23366" /></defs><g
     id="g10"
     transform="matrix(1.25 0 0 -1.25 0 217.08)"
     style="fill-opacity:1;fill:#85570e"><g
       id="g12"
       style="fill-opacity:1;fill:#85570e"><path
         id="path14"
         style="fill-rule:evenodd;fill:url(#radialGradient23860);fill-opacity:1.0"
         d="m135.18 9.531c0.051 1.067 0.957 1.973 2.719 2.719 1.812 0.773 3.265 0.84 4.359 0.199 0.906-0.531 0.906-1.199 0-2-0.508-0.453-1.442-1.211-2.801-2.277-0.828-0.856-1.762-1.137-2.801-0.844-1.039 0.27-1.531 1.004-1.476 2.203z" /><path
         id="path16"
         style="fill-rule:evenodd;fill:url(#radialGradient23862);fill-opacity:1.0"
         d="m118.41 134.49c0.051 1.067 0.961 1.977 2.719 2.723 1.789 0.773 3.226 0.84 4.32 0.199 0.906-0.535 0.922-1.199 0.039-2-1.332-0.961-2.265-1.719-2.801-2.281-0.824-0.852-1.757-1.133-2.796-0.84-1.04 0.266-1.536 1-1.481 2.199z" /><path
         id="path18"
         style="fill-rule:evenodd;fill:url(#radialGradient23864);fill-opacity:1.0"
         d="m111.97 78.012c0.293 1.597 1.043 3.089 2.242 4.476 1.25 1.414 2.48 2.121 3.68 2.121 1.066-0.027 1.972-0.398 2.718-1.121 0.082-0.078 0.867-1.078 2.36-3 1.679-2.078 1.082-3.863-1.797-5.359-1.016-0.531-3.43-1.57-7.242-3.117-1.735-0.723-2.641-0.375-2.719 1.039 0 0.265 0.25 1.918 0.758 4.961z" /><path
         id="path20"
         style="fill-rule:evenodd;fill:url(#radialGradient23866);fill-opacity:1.0"
         d="m148.22 125.57c0.426 1.121 1.652 1.735 3.68 1.84 1.972 0.078 3.464-0.359 4.48-1.32 0.906-0.852 1.266-1.625 1.078-2.321-0.105-0.48-0.547-1.039-1.316-1.679-0.723-0.696-1.309-1.227-1.762-1.602-0.824-0.664-1.84-1.277-3.039-1.84-1.121-0.504-1.668-0.476-1.641 0.082v2c-0.535 0.907-0.933 1.625-1.199 2.161-0.48 0.984-0.578 1.878-0.281 2.679z" /><path
         id="path22"
         style="fill-rule:evenodd;fill:url(#radialGradient23868);fill-opacity:1.0"
         d="m135.22 121.77c0.906 1.282 2.332 2.106 4.277 2.481 1.254 0.238 2.281 0.281 3.082 0.121 0.215-0.055 0.559-0.52 1.039-1.402 0.828-1.52 1.375-2.493 1.641-2.918 1.039-1.68 0.789-4.36-0.758-8.039-0.988-2.403-2.402-4.828-4.242-7.282-0.641-0.855-1.305-0.707-2 0.442-0.879 1.785-1.625 3.16-2.238 4.117-0.403 0.668-1.067 1.629-2 2.883-0.586 0.797-1.11 1.691-1.563 2.679-0.504 1.067-0.398 2.239 0.32 3.52 0.403 0.746 1.215 1.879 2.442 3.398z" /><path
         id="path24"
         style="fill-rule:evenodd;fill:url(#radialGradient23870);fill-opacity:1.0"
         d="m65.133 152.05c0.535 1.519 1.242 2.984 2.121 4.398 1.066 1.656 1.773 2.039 2.121 1.16 1.465-3.574 2.48-6.691 3.039-9.359 0.32-1.359-0.199-2.68-1.559-3.961-0.507-0.48-1.656-1.293-3.441-2.438-0.668-0.457-1.187-0.386-1.559 0.2-0.613 0.933-1.203 1.519-1.761 1.758-0.879 0.347-1.067 1.535-0.559 3.562 0.078 0.344 0.613 1.906 1.598 4.68z" /><path
         id="path26"
         style="fill-rule:evenodd;fill:url(#radialGradient23872);fill-opacity:1.0"
         d="m55.535 145.65c0.774 1.575 1.906 1.883 3.399 0.922 1.199-0.773 1.972-1.601 2.32-2.48 0.16-0.399 0.105-0.985-0.16-1.758-0.266-0.777-0.602-1.375-1-1.801-0.614-0.695-1.121-1.16-1.52-1.402-0.719-0.453-1.347-0.492-1.879-0.117-0.695 0.476-1.187 1.398-1.48 2.757-0.32 1.497-0.215 2.786 0.32 3.879z" /><path
         id="path28"
         style="fill-rule:evenodd;fill:url(#radialGradient23874);fill-opacity:1.0"
         d="m131.09 149.69c0.133-0.402 0.066-0.988-0.199-1.761-0.243-0.774-0.559-1.375-0.961-1.801-0.614-0.692-1.118-1.16-1.52-1.399-0.719-0.453-1.348-0.492-1.879-0.121-0.695 0.481-1.187 1.403-1.48 2.762-0.321 1.465-0.215 2.758 0.32 3.879 0.773 1.574 1.906 1.879 3.398 0.922 1.2-0.778 1.973-1.602 2.321-2.481z" /><path
         id="path30"
         style="fill-rule:evenodd;fill:url(#radialGradient23876);fill-opacity:1.0"
         d="m80.016 29.41c0.851 0.746 2.023 1.305 3.519 1.68 1.574 0.398 2.68 0.32 3.32-0.239 0.985-0.882 1.985-3.816 3-8.8 0.293-1.492-0.441-3.629-2.203-6.403-1.332-2.105-3.023-4.265-5.078-6.476-1.414-1.524-2.613-2.176-3.601-1.961-0.559 0.133-1.184 0.652-1.879 1.558-0.348 0.454-0.762 1.309-1.239 2.559-0.695 1.922-1.203 3.227-1.523 3.922-0.559 1.226-0.68 2.238-0.359 3.039 0.613 1.066 1.121 2.121 1.519 3.16 0.906 2.266 1.524 3.735 1.84 4.399 0.75 1.468 1.641 2.656 2.684 3.562z" /><path
         id="path32"
         style="fill:url(#radialGradient23878);fill-opacity:1.0;fill-rule:evenodd"
         d="m 87.974,114.61 c 0.399,-1.121 0.653,-2.398 0.758,-3.84 0.055,-0.851 0.082,-2.453 0.082,-4.8 0,-2.637 -0.652,-5.184 -1.961,-7.637 -0.719,-1.387 -1.387,-2.387 -2,-3 -1.492,-1.441 -3.879,-1.988 -7.16,-1.641 l -4.438,0.918 c -0.429,0 -0.8,-0.039 -1.121,-0.121 -1.468,-0.238 -2.906,0.481 -4.32,2.16 -1.332,1.977 -2.254,3.215 -2.762,3.723 l 0,0.078 -0.32,0.242 c -0.586,0.348 -1.223,1.094 -1.918,2.239 -0.879,1.414 -1.398,2.214 -1.559,2.402 -0.453,0.504 -0.734,1.172 -0.839,2 -0.055,0.426 -0.082,1.316 -0.082,2.68 0.027,0.851 -0.254,1.824 -0.84,2.918 -0.774,1.281 -1.36,2.265 -1.762,2.961 -0.211,0.425 -0.398,0.933 -0.559,1.519 -0.105,0.641 -0.054,1.414 0.161,2.32 0.054,0.239 0.347,1.2 0.878,2.879 0.43,1.36 1.137,2.629 2.122,3.801 l 0.281,0.32 c 1.492,1.602 3.359,2.852 5.597,3.758 2,0.801 3.547,1.082 4.641,0.844 l 0.442,-0.121 c 1.917,-0.535 4.785,-2.348 8.597,-5.442 l 1.203,-1.078 c 1.438,-1.386 3.278,-3.816 5.52,-7.281 0.586,-0.879 1.051,-1.801 1.398,-2.762 l -0.039,-0.039 z" /><path
         id="path34"
         style="fill-rule:evenodd;fill:url(#radialGradient23880);fill-opacity:1.0"
         d="m55.613 105.53c0.242 1.278 0.813 1.813 1.719 1.598 0.723-0.16 1.281-0.559 1.684-1.199 0.851-1.387 1.359-2.227 1.519-2.52 0.746-1.414 1.094-2.492 1.039-3.238-0.027-0.723-0.535-0.789-1.519-0.203-1.309 0.906-2.266 1.496-2.879 1.761-0.801 0.321-1.321 0.907-1.563 1.758-0.16 0.641-0.16 1.321 0 2.043z" /><path
         id="path36"
         style="fill-rule:evenodd;fill:url(#radialGradient23882);fill-opacity:1.0"
         d="m82.414 58.73c0.481 0.293 1.84 0.321 4.078 0.082 2.457-0.242 4.188-0.722 5.203-1.441 1.067-0.773 1.879-2.094 2.438-3.961 0.535-1.734 0.722-3.398 0.562-5-0.269-2.961-1.242-5.094-2.922-6.398-0.585-0.426-1.281-0.121-2.078 0.918-0.988 1.254-1.761 1.921-2.32 2-0.773 0.132-1.398 0.425-1.879 0.882-0.508 0.637-0.961 1.161-1.363 1.559-1.09 0.934-1.957 1.746-2.598 2.441-1.148 1.305-1.773 2.653-1.879 4.039-0.109 1.172 0.012 2.079 0.36 2.719 0.398 0.774 1.199 1.492 2.398 2.16z" /><path
         id="path38"
         style="fill-rule:evenodd;fill:url(#radialGradient23884);fill-opacity:1.0"
         d="m75.016 55.93c0.293 0.773 0.918 0.707 1.879-0.2 0.32-0.265 0.558-0.64 0.718-1.121 0.082-0.183 0.309-1.078 0.68-2.679 0.32-1.282 0.32-2.067 0-2.36-0.32-0.265-0.813-0.039-1.481 0.68-0.773 0.828-1.332 1.695-1.679 2.601-0.426 1.09-0.465 2.118-0.117 3.079z" /><path
         id="path40"
         style="fill-rule:evenodd;fill:url(#radialGradient23886);fill-opacity:1.0"
         d="m110.06 172.93c0.32-0.266 0.558-0.641 0.718-1.121 0.055-0.161 0.293-1.051 0.719-2.68 0.32-1.278 0.309-2.067-0.039-2.36-0.32-0.265-0.812-0.039-1.48 0.68-0.774 0.828-1.332 1.695-1.68 2.602-0.426 1.093-0.469 2.121-0.121 3.078 0.293 0.773 0.922 0.707 1.883-0.199z" /><path
         id="path42"
         style="fill-rule:evenodd;fill:url(#radialGradient23888);fill-opacity:1.0"
         d="m114.65 122.17c0.188 0.316 0.696 0.039 1.524-0.84 0.797-0.883 1.25-1.629 1.359-2.242 0.106-0.696 0.039-1.281-0.203-1.758-0.316-0.563-0.758-0.707-1.316-0.441-0.618 0.293-1.082 1.078-1.403 2.359-0.32 1.281-0.304 2.254 0.039 2.922z" /><path
         id="path44"
         style="fill-rule:evenodd;fill:url(#radialGradient23890);fill-opacity:1.0"
         d="m50.332 120.49c0.188 0.508 0.508 0.59 0.961 0.242 0.48-0.32 0.68-0.867 0.602-1.64-0.106-0.801-0.454-0.934-1.04-0.399-0.589 0.559-0.761 1.16-0.523 1.797z" /><path
         id="path46"
         style="fill-rule:evenodd;fill:url(#radialGradient23892);fill-opacity:1.0"
         d="m150.7 94.57c1.039-1.226 1.785-2.304 2.239-3.238 0.718-1.387 1.054-3.027 1-4.922-0.028-1.066-0.079-2.734-0.161-5 0.614-7.226-0.414-11.066-3.078-11.519-1.414-0.215-3.093 0.093-5.043 0.918-1.679 0.718-3.144 1.628-4.398 2.718-2 1.735-4.039 4.137-6.121 7.203-0.797 1.254-1.09 2.614-0.879 4.079 0.082 0.667 0.266 1.496 0.558 2.48 0.376 1.094 0.641 1.906 0.801 2.441 0.055 0.188 0.348 1.481 0.879 3.879 0.348 1.575 0.789 2.813 1.32 3.723 0.293 0.531 0.696 0.984 1.204 1.359 0.293 0.239 0.773 0.586 1.437 1.039 0.402 0.293 1 0.868 1.801 1.719 0.746 0.668 1.469 0.961 2.16 0.883 0.828-0.109 1.602-0.75 2.32-1.922 0.371-0.668 0.868-1.601 1.481-2.801 0.265-0.371 1.094-1.386 2.48-3.039z" /><path
         id="path48"
         style="fill:url(#radialGradient23894);fill-opacity:1.0;fill-rule:evenodd"
         d="m 91.173,112.29 c 0.454,0.695 1.122,0.52 2,-0.52 0.879,-1.011 0.801,-1.972 -0.238,-2.878 -1.066,-0.907 -1.789,-0.801 -2.16,0.32 -0.375,1.121 -0.242,2.144 0.398,3.078 z" /><path
         id="path50"
         style="fill-rule:evenodd;fill:url(#radialGradient23896);fill-opacity:1.0"
         d="m146.25 42.531c0.851-0.48 1.172-1.84 0.961-4.082-0.188-2-0.629-3.625-1.32-4.879-0.586-1.066-1.493-2.148-2.719-3.242-1.387-1.172-2.469-1.68-3.242-1.519-0.879 0.214-1.813 1.281-2.801 3.203-1.039 2.05-1.531 3.984-1.481 5.797 0.028 1.601 0.977 3.414 2.84 5.441 1.016 1.094 2.442 2.519 4.281 4.281 0.75 0.852 1.348 0.442 1.801-1.242 0.586-2.211 1.149-3.465 1.68-3.758z" /><path
         id="path52"
         style="fill-rule:evenodd;fill:url(#radialGradient23898);fill-opacity:1.0"
         d="m160.73 105.05c-1.015-0.215-1.906 0.027-2.679 0.718-1.121 1.016-0.84 3.161 0.84 6.442 0.64 1.305 2.16 1.48 4.558 0.519 0.719-0.293 1.039-1.121 0.961-2.48-0.082-1.305-0.492-2.492-1.242-3.559-0.637-0.906-1.449-1.453-2.438-1.64z" /><path
         id="path54"
         style="fill-rule:evenodd;fill:url(#radialGradient23900);fill-opacity:1.0"
         d="m28.973 42.769c-0.211-1.093-0.731-1.918-1.559-2.48-0.855-0.613-1.773-0.746-2.762-0.398-1.437 0.453-2.039 2.519-1.797 6.199 0.106 1.492 1.438 2.265 4 2.32 0.774 0.027 1.387-0.601 1.84-1.883 0.453-1.25 0.547-2.504 0.278-3.758z" /><path
         id="path56"
         style="fill-rule:evenodd;fill:url(#radialGradient23902);fill-opacity:1.0"
         d="m60.773 82.172c0.375 1.277 1.387 2.746 3.039 4.398 1.415 1.414 2.348 2.172 2.801 2.281 0.293 0.051 1.575-1.054 3.84-3.32 2.481-2.453 4.359-4.601 5.641-6.441 1.281-1.813 1.906-3.852 1.879-6.117 0-1.204-0.332-3.684-1-7.442-0.504-2.801-1.653-5.254-3.438-7.359-1.652-1.949-3.64-3.309-5.961-4.082-1.707-0.559-2.719 0.265-3.039 2.48-0.562 4-1.015 6.375-1.359 7.121-0.535 1.2-1.215 2.868-2.043 5-0.531 1.387-1.16 2.692-1.879 3.918-0.801 1.332-0.934 2.801-0.399 4.403 0.879 2 1.52 3.718 1.918 5.16z" /><path
         id="path58"
         style="fill-rule:evenodd;fill:url(#radialGradient23904);fill-opacity:1.0"
         d="m117.93 159.81c0.187-0.879 0.453-2.493 0.8-4.84 0.293-1.118 0.227-2.785-0.199-5-0.375-1.813-0.683-2.907-0.922-3.278-0.16-0.215-1.437-0.226-3.84-0.043-2.613 0.188-4.707 0.536-6.281 1.043-1.57 0.504-2.812 1.559-3.719 3.16-0.453 0.797-1.214 2.747-2.281 5.84-0.801 2.293-1.039 4.719-0.719 7.278 0.321 2.425 1.082 4.613 2.282 6.562 0.879 1.438 1.867 1.481 2.961 0.117 1.972-2.453 3.226-3.839 3.757-4.16 0.774-0.476 1.879-1.238 3.321-2.277 0.906-0.641 1.84-1.16 2.801-1.563 1.066-0.453 1.746-1.398 2.039-2.839z" /><path
         id="path60"
         style="fill-rule:evenodd;fill:url(#radialGradient23906);fill-opacity:1.0"
         d="m119.13 56.289c-0.586 0.242-0.653 0.867-0.199 1.883 0.425 1.094 1.187 1.812 2.281 2.16 1.039 0.344 1.785 0.359 2.238 0.039 0.32-0.266 0.52-0.812 0.602-1.641 0.05-0.718-0.535-1.398-1.762-2.039-1.254-0.64-2.305-0.773-3.16-0.402z" /><path
         id="path62"
         style="fill-rule:evenodd;fill:url(#radialGradient23908);fill-opacity:1.0"
         d="m142.93 58.371c-0.536 1.867-0.559 3.52-0.082 4.957 0.48 1.52 1.347 1.895 2.601 1.121 0.961-0.613 1.719-1.707 2.281-3.281 0.481-1.387 0.907-2.117 1.282-2.199 0.531-0.106 1.144-0.625 1.839-1.559 0.426-0.562 1.227-1.695 2.399-3.402 1.148-1.492 1.746-2.774 1.801-3.84 0.05-1.227-0.535-2.598-1.762-4.117-0.481-0.59-1.52-0.414-3.117 0.519-1.817 1.199-3.016 1.946-3.602 2.239-0.719 0.375-1.426 1.64-2.121 3.8-0.691 2.696-1.199 4.614-1.519 5.762z" /><path
         id="path64"
         style="fill-rule:evenodd;fill:url(#radialGradient23910);fill-opacity:1.0"
         d="m139.25 24.332c0.187 0.879 0.812 1.625 1.879 2.238 0.347 0.215 1.547 0.746 3.601 1.602 1.172 0.504 1.907 0.465 2.2-0.121 0.187-0.399 0.546-1.442 1.082-3.121 0.613-1.278 0.32-2.852-0.883-4.719-1.039-1.598-2.332-2.879-3.879-3.84-1.359-0.906-2.227-0.773-2.602 0.402-0.664 2.344-1 3.532-1 3.559-0.453 1.812-0.586 3.144-0.398 4z" /><path
         id="path66"
         style="fill-rule:evenodd;fill:url(#radialGradient23912);fill-opacity:1.0"
         d="m108.29 32.648c-0.481-0.343-0.891 0.137-1.238 1.442-0.321 1.308-0.133 2.094 0.558 2.359 0.801 0.32 1.348-0.051 1.641-1.117 0.293-1.094-0.027-1.988-0.961-2.684z" /><path
         id="path68"
         style="fill-rule:evenodd;fill:url(#radialGradient23914);fill-opacity:1.0"
         d="m103.41 17.41c-0.293 3.305 0.387 6.238 2.039 8.801 1.387 2.133 2.789 3.305 4.199 3.519 0.828 0.106 1.868-1.148 3.121-3.761 1.602-3.305 2.735-5.305 3.403-6 1.039-1.118 1.625-2.641 1.758-4.559 0.082-1.066 0.148-2.601 0.199-4.601 0.801-4.852 0.293-8.106-1.52-9.758-1.547-1.387-3.465-1.403-5.758-0.039-1.921 1.089-3.562 3.183-4.921 6.277-1.36 3.016-2.2 6.387-2.52 10.121z" /><path
         id="path70"
         style="fill-rule:evenodd;fill:url(#radialGradient23916);fill-opacity:1.0"
         d="m160.06 22.73c-1.2 1.149-2.387 1.536-3.563 1.161-1.68-0.508-2.703 2.8-3.078 9.918-0.082 1.386 0.492 3.652 1.719 6.8 1.359 3.52 2.867 6.082 4.519 7.68 1.496 1.469 2.668 1.469 3.52 0 0.48-0.879 1.148-2.48 2-4.801 0.562-0.984 1.426-2.851 2.601-5.597 1.118-2.614 1.84-4.188 2.161-4.719 0.398-0.696 0.16-2.242-0.719-4.641-0.481-1.359-1.293-3.492-2.442-6.402-0.906-2.879-1.812-4.586-2.718-5.117-0.828-0.481-1.414 0.093-1.762 1.718-0.344 1.602-1.094 2.934-2.238 4z" /><path
         id="path72"
         style="fill-rule:evenodd;fill:url(#radialGradient23918);fill-opacity:1.0"
         d="m135.29 41.769c-0.238-0.933-0.918-1.972-2.039-3.121-1.199-1.199-2-1.449-2.399-0.757-0.855 1.332-1.48 2.414-1.882 3.238-0.774 1.574-0.957 2.789-0.559 3.64 0.398 0.907 1.012 1.547 1.84 1.922 0.453 0.239 1.199 0.438 2.238 0.598 0.801 0.16 1.551-0.305 2.242-1.398 0.719-1.2 0.907-2.575 0.559-4.122z" /><path
         id="path74"
         style="fill-rule:evenodd;fill:url(#radialGradient23920);fill-opacity:1.0"
         d="m23.652 83.809c-0.238-0.958-0.918-2.012-2.039-3.161-1.199-1.172-2-1.41-2.398-0.718-0.856 1.308-1.481 2.386-1.883 3.242-0.773 1.57-0.957 2.785-0.559 3.64 0.403 0.879 1.016 1.52 1.84 1.918 0.403 0.188 1.149 0.387 2.242 0.602 0.825 0.133 1.571-0.348 2.239-1.441 0.746-1.176 0.933-2.536 0.558-4.082z" /><path
         id="path76"
         style="fill-rule:evenodd;fill:url(#radialGradient23922);fill-opacity:1.0"
         d="m158.18 95.012c0.316 1.89 0.972 3.625 1.957 5.199 1.015 1.598 2.265 3.25 3.762 4.961 1.812 2.051 3.183 3.183 4.117 3.398 0.8 0.188 1.48-0.652 2.043-2.519 0.851-2.856 1.41-4.52 1.679-5 0.746-1.336 1.078-2.946 1-4.84-0.082-1.469-0.441-3.32-1.082-5.563-1.011-3.543-3.144-5.425-6.398-5.636-3.094-0.188-5.199 0.945-6.32 3.398-0.907 2.027-1.161 4.227-0.758 6.602z" /><path
         id="path78"
         style="fill-rule:evenodd;fill:url(#radialGradient23924);fill-opacity:1.0"
         d="m43.812 96.609c0.028 1.602 0.977 3.414 2.84 5.442 2.188 2.054 3.614 3.48 4.282 4.281 0.746 0.852 1.347 0.437 1.8-1.242 0.586-2.215 1.149-3.465 1.68-3.758 0.852-0.481 1.188-1.844 1-4.082-0.187-2-0.641-3.625-1.359-4.879-0.586-1.066-1.496-2.148-2.723-3.242-1.383-1.172-2.449-1.68-3.199-1.52-0.879 0.215-1.813 1.282-2.801 3.2-1.039 2.027-1.543 3.96-1.52 5.8z" /><path
         id="path80"
         style="fill-rule:evenodd;fill:url(#radialGradient23926);fill-opacity:1.0"
         d="m38.254 61.012c0.641 1.304 2.16 1.476 4.558 0.515 0.723-0.289 1.043-1.117 0.961-2.476-0.078-1.309-0.48-2.496-1.199-3.563-0.64-0.906-1.453-1.453-2.441-1.64-1.039-0.211-1.945 0.027-2.719 0.722-1.121 1.012-0.84 3.16 0.84 6.442z" /><path
         id="path82"
         style="fill-rule:evenodd;fill:url(#radialGradient23928);fill-opacity:1.0"
         d="m132.41 109.17c0.746-1.735 1.625-3.336 2.641-4.801 1.121-1.629 1.347-3.535 0.679-5.723-0.398-1.304-1.226-3.664-2.48-7.078-0.453-1.734-1.785-3.812-4-6.238-1.895-2.055-3.133-3.176-3.719-3.359-0.402-0.137-2.187 1.105-5.359 3.718-3.387 2.825-5.988 5.36-7.801 7.598-1.762 2.187-2.668 4.773-2.719 7.762-0.027 1.492 0.371 4.773 1.199 9.84 0.614 3.757 2.094 7.148 4.438 10.16 2.242 2.824 4.91 4.906 8 6.238 2.32 0.988 3.723 0.055 4.203-2.801 0.133-0.851 0.332-2.316 0.598-4.398 0.293-1.918 0.761-3.481 1.402-4.68 0.746-1.414 1.719-3.492 2.918-6.238z" /><path
         id="path84"
         style="fill-rule:evenodd;fill:url(#radialGradient23930);fill-opacity:1.0"
         d="m30.613 112.69c-0.961 0.934-1.465 2.012-1.519 3.239-0.028 1.226 0.187 1.972 0.64 2.242 0.375 0.211 0.985 0.172 1.84-0.121 0.746-0.266 1.266-1.16 1.559-2.68 0.265-1.52 0.082-2.641-0.559-3.359-0.398-0.457-1.054-0.227-1.961 0.679z" /><path
         id="path86"
         style="fill-rule:evenodd;fill:url(#radialGradient23932);fill-opacity:1.0"
         d="m100.54 146.81c-0.402-0.454-1.055-0.227-1.961 0.679-0.961 0.934-1.453 2.016-1.48 3.242-0.055 1.227 0.16 1.973 0.64 2.239 0.348 0.215 0.946 0.175 1.801-0.118 0.746-0.269 1.266-1.16 1.559-2.679 0.265-1.524 0.082-2.641-0.559-3.363z" /><path
         id="path88"
         style="fill-rule:evenodd;fill:url(#radialGradient23934);fill-opacity:1.0"
         d="m72.414 6.09c0.106-0.531-0.879-0.891-2.961-1.078-2.453-0.082-4.039-0.161-4.758-0.243-0.906-0.105-2.562 0.348-4.961 1.36-2.851 1.281-4.906 2.199-6.16 2.762-2 0.878-3.414 1.851-4.242 2.918-0.906 1.121-0.531 1.718 1.121 1.8 1.309 0.051 2.84-0.254 4.602-0.922 1.597-0.613 2.574-0.863 2.918-0.757 0.535 0.16 1.468 0.121 2.8-0.121 0.829-0.133 2.442-0.454 4.84-0.958 2.16-0.375 3.719-0.867 4.68-1.48 1.121-0.723 1.828-1.812 2.121-3.281z" /><path
         id="path90"
         style="fill-rule:evenodd;fill:url(#radialGradient23936);fill-opacity:1.0"
         d="m100.97 95.531c1.816 1.707 3.187 2.106 4.121 1.199 0.668-0.668 2.094-2.414 4.281-5.242 2.105-2 2.691-5.172 1.758-9.515-0.801-3.735-2.305-7.043-4.52-9.922-1.918-2.559-3.613-2.867-5.078-0.918-2.242 2.957-3.734 4.972-4.48 6.039-2.11 3.172-3.293 5.625-3.563 7.359-0.265 1.813 0.36 3.653 1.883 5.52 0.559 0.664 2.426 2.492 5.598 5.48z" /><path
         id="path92"
         style="fill-rule:evenodd;fill:url(#radialGradient23938);fill-opacity:1.0"
         d="m64.332 41.851c-0.477-0.347-0.891 0.133-1.238 1.438-0.321 1.309-0.133 2.094 0.558 2.359 0.801 0.321 1.348-0.05 1.641-1.117 0.293-1.094-0.027-1.988-0.961-2.68z" /><path
         id="path94"
         style="fill-rule:evenodd;fill:url(#radialGradient23940);fill-opacity:1.0"
         d="m15.492 65.969c-0.371-0.664-1.066-0.321-2.078 1.043-0.988 1.359-1.148 2.371-0.48 3.039 0.773 0.8 1.586 0.652 2.441-0.442 0.824-1.121 0.867-2.332 0.117-3.64z" /><path
         id="path96"
         style="fill-rule:evenodd;fill:url(#radialGradient23942);fill-opacity:1.0"
         d="m115.9 164.65c-0.481-0.343-0.895 0.137-1.243 1.442-0.316 1.304-0.132 2.094 0.563 2.359 0.801 0.32 1.347-0.055 1.64-1.117 0.293-1.094-0.027-1.988-0.96-2.684z" /><path
         id="path98"
         style="fill-rule:evenodd;fill:url(#radialGradient23944);fill-opacity:1.0"
         d="m0.332 66.129c0.59 2.773 1.535 4.613 2.844 5.519 0.746 0.508 2.199-0.226 4.359-2.199 2.719-2.48 4.531-3.906 5.438-4.277 1.414-0.563 2.535-1.778 3.359-3.645 0.457-1.011 1.055-2.492 1.801-4.437 2.508-4.403 3.16-7.852 1.961-10.36-0.985-2.132-2.84-3.093-5.559-2.882-2.242 0.187-4.574 1.468-7 3.839-2.375 2.321-4.387 5.243-6.043 8.762-1.465 3.121-1.851 6.344-1.16 9.68z" /><path
         id="path100"
         style="fill-rule:evenodd;fill:url(#radialGradient23946);fill-opacity:1.0"
         d="m16.254 102.61c-0.078 1.387 0.492 3.653 1.719 6.801 1.359 3.52 2.867 6.078 4.519 7.68 1.496 1.465 2.668 1.465 3.524 0 0.476-0.879 1.144-2.481 2-4.801 0.558-0.984 1.425-2.852 2.597-5.598 1.121-2.613 1.84-4.187 2.16-4.722 0.403-0.692 0.161-2.239-0.718-4.637-0.481-1.363-1.293-3.496-2.442-6.402-0.906-2.879-1.812-4.586-2.718-5.121-0.829-0.481-1.426 0.093-1.801 1.722-0.348 1.598-1.078 2.934-2.199 4-1.2 1.145-2.387 1.531-3.563 1.16-1.68-0.507-2.703 2.797-3.078 9.918z" /><path
         id="path102"
         style="fill-rule:evenodd;fill:url(#radialGradient23948);fill-opacity:1.0"
         d="m56.695 75.809c-0.215-0.958-0.883-2.012-2-3.161-1.203-1.172-2-1.41-2.402-0.718-0.852 1.308-1.481 2.386-1.879 3.242-0.773 1.57-0.961 2.785-0.559 3.64 0.399 0.879 1.012 1.52 1.84 1.918 0.399 0.188 1.145 0.387 2.239 0.602 0.828 0.133 1.574-0.348 2.242-1.441 0.719-1.176 0.89-2.536 0.519-4.082z" /><path
         id="path104"
         style="fill-rule:evenodd;fill:url(#radialGradient23950);fill-opacity:1.0"
         d="m137.09 19.891c0.453-3.254 0.558-4.989 0.32-5.2-0.961-0.718-2.148-1.922-3.559-3.601-1.281-1.117-2.816-1.239-4.601-0.36-2.055 1.039-4.078 2.52-6.078 4.442-1.789 1.707-3.375 3.586-4.762 5.64-0.961 1.438-2.094 3.614-3.398 6.52-1.364 3.039-2.204 4.824-2.524 5.359-0.719 1.118-1.078 2.68-1.078 4.68 0.027 2.027 0.426 3.668 1.199 4.918 0.696 1.094 2.321 0.977 4.879-0.359 1.496-0.774 3.844-2.2 7.043-4.282 1.492-0.879 3.465-1.945 5.918-3.199 1.922-1.226 3.359-3.027 4.32-5.398 1.016-2.453 1.789-5.508 2.321-9.16z" /><path
         id="path106"
         style="fill:url(#radialGradient23952);fill-opacity:1.0;fill-rule:evenodd"
         d="m 91.212,92.45 c -0.343,-1.199 -1.066,-1.84 -2.16,-1.918 -1.039,-0.055 -1.746,0.332 -2.117,1.16 -0.562,1.254 -0.426,2.575 0.399,3.957 0.347,0.536 0.773,1.094 1.281,1.684 0.613,0.664 1.066,1.039 1.359,1.117 0.266,0.055 0.508,-0.226 0.719,-0.84 0.266,-0.961 0.453,-1.519 0.562,-1.679 0.399,-0.774 0.387,-1.934 -0.043,-3.481 z" /><path
         id="path108"
         style="fill-rule:evenodd;fill:url(#radialGradient23954);fill-opacity:1.0"
         d="m46.773 60.41c0.879 3.547 1.641 5.668 2.282 6.359 0.504 0.536 1.453 0.68 2.84 0.442 0.8-0.133 2.132-0.414 4-0.84 1.281-0.242 2.32-1.227 3.121-2.961 0.586-1.309 1.011-2.934 1.277-4.883 0.453-3.066 0.187-6.144-0.801-9.238-0.398-1.199-1.265-1.691-2.597-1.48-3.067 0.425-4.786 0.64-5.161 0.64-1.945-0.078-3.281 0.293-4 1.121-0.32 0.371-0.894 1.664-1.718 3.879-0.403 0.988-0.149 3.309 0.757 6.961z" /><path
         id="path110"
         style="fill-rule:evenodd;fill:url(#radialGradient23956);fill-opacity:1.0"
         d="m39.215 19.969c-0.988 0.347-1.586 1.48-1.801 3.402-0.238 1.918 0.106 3.316 1.039 4.199 0.774 0.719 1.414 0.531 1.922-0.558 0.32-0.641 0.785-1.762 1.398-3.364 0.586-1.039 0.586-2.011 0-2.918-0.585-0.906-1.441-1.16-2.558-0.761z" /><path
         id="path112"
         style="fill-rule:evenodd;fill:url(#radialGradient23958);fill-opacity:1.0"
         d="m33.055 43.012c-0.375 1.57-0.282 3.238 0.277 5 0.59 1.785 1.441 2.906 2.563 3.359 0.984 0.426 1.96 0.453 2.917 0.078 0.11-0.051 1.227-0.664 3.364-1.84 2.371-1.281 2.519-3.16 0.437-5.64-0.879-1.067-2.679-2.973-5.398-5.719-1.309-1.332-2.281-1.359-2.922-0.078-0.105 0.238-0.52 1.851-1.238 4.84z" /><path
         id="path114"
         style="fill-rule:evenodd;fill:url(#radialGradient23960);fill-opacity:1.0"
         d="m98.375 142.69c0.48 2.907 2.813 3.918 7 3.039 1.492-0.293 2.891-0.613 4.199-0.961 0.375-0.105 2.305-0.64 5.801-1.597 2.348-0.668 2.852-1.602 1.52-2.801-0.243-0.242-2.11-1.402-5.602-3.48-1.84-1.094-4.027-1.774-6.559-2.04-2.586-0.269-4.441 0.024-5.558 0.879-0.988 0.774-1.485 1.707-1.485 2.801 0.004 0.106 0.231 1.492 0.684 4.16z" /><path
         id="path116"
         style="fill-rule:evenodd;fill:url(#radialGradient23962);fill-opacity:1.0"
         d="m66.453 39.891c0.695 1.894 2.735 2.918 6.121 3.082 3.332 0.156 5.852-0.563 7.559-2.161 1.496-1.414 2.094-2.722 1.801-3.921-0.188-0.801-0.918-1.747-2.2-2.84-0.64-0.586-1.625-1.492-2.961-2.719-1.359-1.094-3.054-2.094-5.078-3-1.894-0.856-2.828-0.816-2.8 0.117 0.078 0.668 0.144 1.203 0.199 1.602 0.082 0.718 0.027 1.293-0.16 1.718-0.907 1.497-1.586 2.707-2.039 3.641-0.801 1.652-0.946 3.149-0.442 4.481z" /><path
         id="path118"
         style="fill-rule:evenodd;fill:url(#radialGradient23964);fill-opacity:1.0"
         d="m42.094 40.93c1.945 5.414 5.558 7.226 10.84 5.441 4.375-1.469 7.828-4.148 10.359-8.039 1.68-2.563 2.762-5.547 3.242-8.961 0.371-2.668 0.36-4.812-0.043-6.441-0.105-0.454-0.183-2.039-0.238-4.758-0.027-2.11-0.348-3.387-0.961-3.84-0.641-0.481-1.895-0.574-3.758-0.281-2.48 0.508-4.496 0.867-6.043 1.078-2.797 0.375-5.117 1.055-6.957 2.043-2.426 1.304-3.906 3.094-4.441 5.359-0.508 2.078-1.078 3.746-1.719 5-0.906 1.52-1.734 2.985-2.48 4.399-0.879 1.707-0.95 3.293-0.2 4.761 1.2 1.653 2 3.067 2.399 4.239z" /><path
         d="m 47.948246,148.19222 c -0.489663,0.23114 -0.192121,1.23677 0.897805,3.02052 1.395251,2.01921 2.276488,3.34022 2.63889,3.96659 0.455314,0.79029 1.805574,1.85064 4.047413,3.17484 2.727145,1.52704 4.688577,2.63091 5.887744,3.30283 1.896542,1.08352 3.520345,1.63975 4.870604,1.66929 1.440095,0.06 1.696267,-0.5968 0.778128,-1.97261 -0.738734,-1.08183 -1.895658,-2.12993 -3.481754,-3.14736 -1.443636,-0.91765 -2.226393,-1.55351 -2.346151,-1.89297 -0.190151,-0.52504 -0.777214,-1.25124 -1.765,-2.17702 -0.600621,-0.58667 -1.81924,-1.69111 -3.652434,-3.31709 -1.587811,-1.51165 -2.91162,-2.47085 -3.976426,-2.87765 -1.248466,-0.46978 -2.544324,-0.38902 -3.898819,0.25063 z"
         style="fill:url(#radialGradient23966);fill-opacity:1.0;fill-rule:evenodd"
         id="path20682" /><path
         d="m 35.236598,149.50219 c 2.800285,0.44275 4.856716,0.21977 6.171583,-0.67769 0.741567,-0.51445 0.576919,-2.13397 -0.491144,-4.85749 -1.341107,-3.42707 -2.023178,-5.62971 -2.044563,-6.60942 -0.01897,-1.52184 -0.751645,-3.00375 -2.199441,-4.442 -0.780128,-0.7889 -1.94853,-1.87785 -3.497095,-3.27122 -3.212031,-3.9191 -6.198418,-5.7636 -8.969506,-5.54284 -2.343376,0.15569 -3.905226,1.5432 -4.682467,4.15727 -0.628737,2.16015 -0.268357,4.7963 1.075971,7.91077 1.315921,3.04893 3.323003,5.97431 6.015004,8.78124 2.388863,2.486 5.259564,4.00119 8.621658,4.55138 z"
         style="fill:url(#radialGradient23968);fill-opacity:1.0;fill-rule:evenodd"
         id="path20686" /><path
         d="m 41.568704,126.45344 c 0.145596,1.01815 0.344795,1.83317 0.599087,2.44724 0.359018,0.93286 1.001413,1.79032 1.931539,2.56938 0.522204,0.43941 1.342424,1.12345 2.462025,2.04672 3.198485,3.36325 5.473451,4.50219 6.821872,3.41927 0.703535,-0.5856 1.269271,-1.52019 1.702584,-2.80415 0.369443,-1.10876 0.556072,-2.19663 0.566906,-3.25994 0.01892,-1.69441 -0.264897,-3.69081 -0.84833,-5.98983 -0.261792,-0.91419 -0.788407,-1.63213 -1.579368,-2.15339 -0.354154,-0.24404 -0.829162,-0.5081 -1.42426,-0.78627 -0.683437,-0.28468 -1.184725,-0.50273 -1.508806,-0.65337 -0.113362,-0.0535 -0.856811,-0.46247 -2.230347,-1.22684 -0.901812,-0.5024 -1.681796,-0.81713 -2.342985,-0.94946 -0.378658,-0.0853 -0.7667,-0.0848 -1.162,-8.5e-4 -0.23887,0.0388 -0.608873,0.12114 -1.107776,0.2466 -0.31102,0.068 -0.840294,0.11004 -1.587923,0.13203 -0.63666,0.0734 -1.084028,0.29506 -1.340195,0.65899 -0.299489,0.44271 -0.321417,1.08549 -0.06533,1.92704 0.162205,0.46134 0.397753,1.09557 0.71185,1.89874 0.06505,0.28445 0.19883,1.11244 0.401452,2.47809 z"
         style="fill:url(#radialGradient23970);fill-opacity:1.0;fill-rule:evenodd"
         id="path20690" /></g></g><metadata
     id="metadata20112"><rdf:RDF><cc:Work><dc:format>image/svg+xml</dc:format><dc:type
           rdf:resource="http://purl.org/dc/dcmitype/StillImage" /><cc:license
           rdf:resource="http://creativecommons.org/licenses/publicdomain/" /><dc:publisher><cc:Agent
             rdf:about="http://openclipart.org/"><dc:title>Openclipart</dc:title></cc:Agent></dc:publisher><dc:title></dc:title></cc:Work><cc:License
         rdf:about="http://creativecommons.org/licenses/publicdomain/"><cc:permits
           rdf:resource="http://creativecommons.org/ns#Reproduction" /><cc:permits
           rdf:resource="http://creativecommons.org/ns#Distribution" /><cc:permits
           rdf:resource="http://creativecommons.org/ns#DerivativeWorks" /></cc:License></rdf:RDF></metadata></svg>