<svg xmlns:rdf="http://www.w3.org/1999/02/22-rdf-syntax-ns#" xmlns="http://www.w3.org/2000/svg" height="770.08" width="599.99" version="1.1" xmlns:cc="http://creativecommons.org/ns#" xmlns:xlink="http://www.w3.org/1999/xlink" viewBox="0 0 599.99397 770.08513" xmlns:dc="http://purl.org/dc/elements/1.1/">
 <defs>
  <clipPath id="ak">
   <rect stroke-linejoin="round" ry="13" height="34" width="64" stroke="#000" y="1100" x="420" stroke-width=".5"/>
  </clipPath>
  <clipPath id="ac">
   <rect stroke-linejoin="round" ry="13" height="34" width="64" stroke="#000" y="1100" x="420" stroke-width=".5"/>
  </clipPath>
  <linearGradient id="p" y2="31000" gradientUnits="userSpaceOnUse" x2="18000" gradientTransform="matrix(.01443 .0060158 -.0052776 .012659 223.76 103.19)" y1="2700" x1="-1800">
   <stop stop-color="#051729" offset="0"/>
   <stop stop-opacity=".80392" stop-color="#041329" offset=".4"/>
   <stop stop-opacity="0" stop-color="#01072a" offset="1"/>
  </linearGradient>
  <clipPath id="ap">
   <rect stroke-linejoin="round" ry="13" height="34" width="64" stroke="#000" y="1100" x="420" stroke-width=".5"/>
  </clipPath>
  <clipPath id="ab">
   <rect stroke-linejoin="round" ry="13" height="34" width="64" stroke="#000" y="1100" x="420" stroke-width=".5"/>
  </clipPath>
  <clipPath id="ao">
   <rect stroke-linejoin="round" ry="13" height="34" width="64" stroke="#000" y="1100" x="420" stroke-width=".5"/>
  </clipPath>
  <filter id="v" y="-.22642" x="-.22642" height="1.4528" width="1.4528">
   <feGaussianBlur stdDeviation="2.6954178"/>
  </filter>
  <radialGradient id="an" gradientUnits="userSpaceOnUse" cy="493.59" cx="50" gradientTransform="matrix(10.596,-4.6347e-6,4.5903e-6,10.498,-1821.2,-6028.9)" r="14.286">
   <stop stop-opacity=".93725" stop-color="#c70600" offset="0"/>
   <stop stop-opacity=".019608" stop-color="#987500" offset="1"/>
  </radialGradient>
  <radialGradient id="am" gradientUnits="userSpaceOnUse" cy="541.34" cx="1218.3" gradientTransform="matrix(1.9492 .034225 -.031898 1.8166 -1141.1 -483.77)" r="27.574">
   <stop stop-color="#c70600" stop-opacity=".93725" offset="0"/>
   <stop stop-color="#ad0000" stop-opacity=".019608" offset="1"/>
  </radialGradient>
  <radialGradient id="al" gradientUnits="userSpaceOnUse" cy="280.6" cx="576.36" gradientTransform="matrix(-1.6287 -1.4651 2.458 -1.1251 -137.05 1920.1)" r="300.01">
   <stop stop-color="#ed9528" offset="0"/>
   <stop stop-opacity=".76863" stop-color="#2a113b" offset=".20611"/>
   <stop stop-color="#134163" offset=".33072"/>
   <stop offset="1"/>
  </radialGradient>
  <linearGradient id="ah" x1="-1800" xlink:href="#p" gradientUnits="userSpaceOnUse" y1="2700" gradientTransform="matrix(.01443 .0060158 -.0052776 .012659 223.76 103.19)" x2="18000" y2="31000"/>
  <style type="text/css">.str0 {stroke:#1F1A17;stroke-width:0.00710253}
    .str1 {stroke:#DEDEDD;stroke-width:0.0426112}
    .fil2 {fill:none}
    .fil5 {fill:#00923F}
    .fil0 {fill:#1F1A17}
    .fil3 {fill:#00923F;fill-rule:nonzero}
    .fil4 {fill:#2AAD78;fill-rule:nonzero}
    .fil1 {fill:white;fill-rule:nonzero}</style>
  <style type="text/css">.str0 {stroke:#4D4948;stroke-width:0.147924}
    .str2 {stroke:#582E3A;stroke-width:0.29589}
    .str3 {stroke:#582E3A;stroke-width:0.29589;stroke-linecap:round}
    .str1 {stroke:#E77817;stroke-width:0.591821;stroke-linecap:round}
    .fil2 {fill:none}
    .fil1 {fill:#4D4948}
    .fil5 {fill:#582E3A}
    .fil3 {fill:#DEDEDD}
    .fil4 {fill:#582E3A;fill-rule:nonzero}
    .fil0 {fill:black;fill-rule:nonzero}</style>
  <style type="text/css">.str0 {stroke:#4D4948;stroke-width:0.147924}
    .str2 {stroke:#582E3A;stroke-width:0.29589}
    .str3 {stroke:#582E3A;stroke-width:0.29589;stroke-linecap:round}
    .str1 {stroke:#E77817;stroke-width:0.591821;stroke-linecap:round}
    .fil2 {fill:none}
    .fil1 {fill:#4D4948}
    .fil5 {fill:#582E3A}
    .fil3 {fill:#DEDEDD}
    .fil4 {fill:#582E3A;fill-rule:nonzero}
    .fil0 {fill:black;fill-rule:nonzero}</style>
  <filter id="aq" color-interpolation-filters="sRGB">
   <feGaussianBlur stdDeviation="4.6264466"/>
  </filter>
  <filter id="ai">
   <feGaussianBlur stdDeviation="3.6701875"/>
  </filter>
  <linearGradient id="u" x1="536" gradientUnits="userSpaceOnUse" y1="1034.4" gradientTransform="matrix(.10737 0 0 .10737 989.77 506.5)" x2="536" y2="308.36">
   <stop stop-color="#555753" offset="0"/>
   <stop stop-color="#a4cded" offset="1"/>
  </linearGradient>
  <linearGradient id="t" x1="-590.94" xlink:href="#n" gradientUnits="userSpaceOnUse" y1="76.555" gradientTransform="matrix(1.1404,0,0,1.1538,79.917,-13.253)" x2="-587.4" y2="136.15"/>
  <linearGradient id="n">
   <stop stop-color="#8a9da5" offset="0"/>
   <stop offset="1"/>
  </linearGradient>
  <linearGradient id="s" x1="-590.94" xlink:href="#n" gradientUnits="userSpaceOnUse" y1="76.555" gradientTransform="matrix(1.8958,0,0,1.1538,255.94,-13.253)" x2="-587.4" y2="136.15"/>
  <linearGradient id="r" y2="481.36" gradientUnits="userSpaceOnUse" y1="264.52" x2="-857.25" x1="-878">
   <stop stop-color="#8a9da5" offset="0"/>
   <stop stop-color="#74848a" offset="1"/>
  </linearGradient>
 </defs>
 <text style="word-spacing:0px;letter-spacing:0px" xml:space="preserve" font-size="40px" y="725.58691" x="1336.0771" line-height="125%"><tspan y="725.58691" x="1336.0771"/></text>
 <g transform="translate(989.17 -617.47)">
  <g transform="matrix(.99999 0 0 .99999 -4.0495 536.7)">
   <rect height="770.01" width="600.01" y="80.846" x="-985.13" fill="url(#al)"/>
   <g transform="translate(131.83,215.02)">
    <g transform="translate(-182.93,-467.65)">
     <text font-size="40px" xml:space="preserve" style="word-spacing:0px;letter-spacing:0px" y="991.03918" x="1418.9371" font-family="Sans" line-height="125%"><tspan y="991.03918" x="1418.9371"/></text>
     <text font-size="13px" xml:space="preserve" style="word-spacing:0px;letter-spacing:0px" y="1293.6891" x="1315.4353" font-family="&apos;Arial Hebrew&apos;" line-height="125%"><tspan y="1293.6891" x="1315.4353"/></text>
     <text font-size="6px" xml:space="preserve" style="word-spacing:0px;letter-spacing:0px" y="1303.9227" x="1314.1394" font-family="Krungthep" line-height="125%"><tspan y="1303.9227" x="1314.1394"/></text>
     <g transform="translate(40.8,-67.496)">
      <text style="word-spacing:0px;letter-spacing:0px" xml:space="preserve" font-size="40px" y="915.52228" x="440.44522" font-family="Sans" line-height="125%"><tspan y="915.52228" x="440.44522"/></text>
      <text style="word-spacing:0px;letter-spacing:0px" xml:space="preserve" font-size="13px" y="1218.1722" x="336.94339" font-family="&apos;Arial Hebrew&apos;" line-height="125%"><tspan y="1218.1722" x="336.94339"/></text>
      <text style="word-spacing:0px;letter-spacing:0px" xml:space="preserve" font-size="6px" y="1228.4059" x="335.64749" font-family="Krungthep" line-height="125%"><tspan y="1228.4059" x="335.64749"/></text>
      <rect stroke-linejoin="round" transform="matrix(.73599 0 0 .78186 104.88 275.68)" clip-path="url(#ap)" ry="13" height="26" width="45" stroke="#000" y="1200" x="430" stroke-width=".5"/>
     </g>
    </g>
   </g>
   <text font-size="40px" xml:space="preserve" style="word-spacing:0px;letter-spacing:0px" y="832.71497" x="1988.6168" font-family="Sans" line-height="125%"><tspan y="832.71497" x="1988.6168"/></text>
   <text font-size="13px" xml:space="preserve" style="word-spacing:0px;letter-spacing:0px" y="1135.3656" x="1885.1147" font-family="&apos;Arial Hebrew&apos;" line-height="125%"><tspan y="1135.3656" x="1885.1147"/></text>
   <text font-size="6px" xml:space="preserve" style="word-spacing:0px;letter-spacing:0px" y="1145.5992" x="1883.8188" font-family="Krungthep" line-height="125%"><tspan y="1145.5992" x="1883.8188"/></text>
   <g transform="translate(2.8595,-346.72)">
    <g stroke="#fff" stroke-miterlimit="0" fill="#fff">
     <path stroke-width=".064" d="m38 320a0.36 0.41 0 0 1 -0.72 0 0.36 0.41 0 1 1 0.72 0z"/>
     <path stroke-width=".15726" d="m140 400a0.9 0.9 0 0 1 -1.8 0 0.9 0.9 0 1 1 1.8 0z"/>
     <path stroke-width=".078584" d="m120 130z"/>
     <path id="aa" d="m130 320a0.365 0.52722 0 0 1 -0.73 0 0.365 0.52722 0 1 1 0.73 0z" stroke="#fff" stroke-miterlimit="0" stroke-width=".076056" fill="#fff"/>
     <path stroke-width=".23589" d="m94 330a1.4 1.4 0 0 1 -2.6 0 1.4 1.4 0 1 1 2.6 0z"/>
     <path stroke-width=".11795" d="m150 340a0.66287 0.67292 56 1 1 -0.74 -1.1 0.66287 0.67292 56 0 1 0.74 1.1z"/>
     <path stroke-width=".076056" d="m200 330z"/>
     <path stroke-width=".15726" d="m400 70a0.92195 0.92195 0 0 1 1.2 1.4 0.89 0.89 0 0 1 0 -0.9z"/>
     <path stroke-width=".076056" d="m190 390z"/>
     <path stroke-width=".07863" d="m190 330a0.44 0.44 0 1 1 -0.002 0.88z"/>
     <path stroke-width=".076056" d="m100 370a0.38146 0.522 51 0 1 -0.9 0 0.38146 0.522 51 1 1 0.9 0z"/>
     <path stroke-width=".038994" d="m38 360a0.22 0.22 0 1 1 0.36 0 0.22 0.22 0 0 1 -0.36 0z"/>
     <path stroke-width=".038994" d="m470 340z"/>
     <path stroke-width=".11795" d="m460 76a0.67 0.66 45 1 1 0.9 -0.9 0.67 0.66 45 0 1 -0.9 0.9z"/>
     <path stroke-width=".038994" d="m100 330z"/>
     <path stroke-width=".078479" d="m260 230a0.4423 0.4423 0 0 1 0.88 0.09z"/>
     <path stroke-width=".076056" d="m160 150a0.37 0.5 5.3 0 1 0.73 0.075z"/>
     <path stroke-width=".076056" d="m82 290a0.37 0.5 5.3 1 1 0.73 0.075 0.45 0.61 5.3 0 1 -0.9 0z"/>
     <g stroke-width=".038994">
      <path d="m330 390a0.22277 0.22277 0 1 1 0.31 -0.32z"/>
      <path d="m290 360z"/>
      <path d="m220 330z"/>
     </g>
     <path stroke-width=".076056" d="m190 350a0.5 0.37 62 1 1 0.64 -0.35z"/>
     <g stroke-width=".038994">
      <path d="m160 370a0.22 0.22 0 0 1 0.081 -0.43z"/>
      <path d="m180 410a0.22 0.22 0 0 1 0.081 -0.43z"/>
      <path d="m400 350a0.22 0.22 0 1 1 -0.42 0.13z"/>
     </g>
     <path stroke-width=".038994" d="m110 380z"/>
     <path stroke-width=".19658" d="m170 270a1.1376 1.1376 0 1 1 0.58 -2.2 1.1376 1.1376 0 0 1 -0.58 2.2z"/>
     <path stroke-width=".038994" d="m130 330a0.22 0.22 0 0 1 0.14 -0.41z"/>
     <path stroke-width=".07863" d="m380 120a0.44 0.44 0 0 1 -0.88 0 0.44 0.44 0 1 1 0.88 0z"/>
     <path stroke-width=".078479" d="m48 220a0.45 0.45 0 0 1 -0.9 0 0.45 0.45 0 1 1 0.9 0z"/>
     <path stroke-width=".076056" d="m120 250a0.38146 0.522 51 0 1 -0.9 0 0.38146 0.522 51 1 1 0.9 0z"/>
     <g stroke-width=".038994">
      <path d="m97 260a0.22 0.22 0 0 1 -0.44 0 0.22 0.22 0 1 1 0.44 0z"/>
      <path d="m46 250a0.22 0.22 0 0 1 -0.44 0 0.22 0.22 0 1 1 0.44 0z"/>
      <path d="m250 260a0.22 0.22 0 0 1 -0.0009 0.44z"/>
     </g>
     <path stroke-width=".076056" d="m160 240z"/>
     <path stroke-width=".038994" d="m260 300a0.22 0.22 0 0 1 -0.44 0 0.22 0.22 0 1 1 0.44 0z"/>
     <path id="z" d="m66 270a0.38146 0.522 51 0 1 -0.9 0 0.38146 0.522 51 1 1 0.9 0z" stroke="#fff" stroke-miterlimit="0" stroke-width=".076056" fill="#fff"/>
     <path stroke-width=".076056" d="m210 270a0.5 0.37 52 1 1 -0.57 0.46z"/>
     <path stroke-width=".038994" d="m160 260a0.22389 0.22389 0 1 1 0.39 0.22z"/>
     <path stroke-width=".078479" d="m170 300a0.443 0.443 0 1 1 0.31 0.83z"/>
     <path stroke-width=".07863" d="m330 180a0.44511 0.44511 0 0 1 0.86 -0.23z"/>
     <path stroke-width=".038994" d="m62 370z"/>
     <path stroke-width=".038994" d="m230 280a0.22 0.22 0 0 1 0.099 -0.42z"/>
     <path stroke-width=".078479" d="m36 250a0.44 0.44 0 1 1 -0.54 0 0.44 0.44 0 0 1 0.54 0z"/>
     <path stroke-width=".038994" d="m310 260z"/>
     <path stroke-width=".038994" d="m160 98z"/>
     <path stroke-width=".07863" d="m150 260a0.44511 0.44511 0 0 1 0.86 -0.23z"/>
     <path stroke-width=".078479" d="m130 56a0.45 0.45 0 1 1 0 -0.9 0.45 0.45 0 0 1 0 0.9z"/>
     <g stroke-width=".038994">
      <path d="m200 190z"/>
      <path d="m170 130z"/>
      <path d="m300 250a0.22 0.22 0 0 1 -0.44 0 0.22 0.22 0 1 1 0.44 0z"/>
      <path id="y" d="m190 170a0.22006 0.22006 0 0 1 -0.01 0.44z" stroke="#fff" stroke-miterlimit="0" stroke-width=".038994" fill="#fff"/>
     </g>
     <path stroke-width=".078479" d="m230 170a0.44116 0.44116 0 0 1 -0.51 -0.72 0.44116 0.44116 0 1 1 0.51 0.72z"/>
     <path stroke-width=".07863" d="m180 160a0.44 0.44 0 0 1 0.59 0.65z"/>
    </g>
    <text font-size="40px" xml:space="preserve" style="word-spacing:0px;letter-spacing:0px" y="915.52228" x="440.44522" font-family="Sans" line-height="125%"><tspan y="915.52228" x="440.44522"/></text>
    <text font-size="13px" xml:space="preserve" style="word-spacing:0px;letter-spacing:0px" y="1218.1722" x="336.94339" font-family="&apos;Arial Hebrew&apos;" line-height="125%"><tspan y="1218.1722" x="336.94339"/></text>
    <text font-size="6px" xml:space="preserve" style="word-spacing:0px;letter-spacing:0px" y="1228.4059" x="335.64749" font-family="Krungthep" line-height="125%"><tspan y="1228.4059" x="335.64749"/></text>
    <g stroke="#fff" stroke-miterlimit="0" transform="translate(0,-199.01)">
     <g fill="#fff">
      <g stroke-width=".038994">
       <path d="m100 230a0.22 0.22 0 0 1 -0.44 0 0.22 0.22 0 1 1 0.44 0z"/>
       <path d="m67 230a0.22 0.22 0 0 1 -0.44 0 0.22 0.22 0 1 1 0.44 0z"/>
       <path d="m56 240a0.22 0.22 0 0 1 -0.44 0 0.22 0.22 0 1 1 0.44 0z"/>
       <path d="m160 260a0.22389 0.22389 0 1 1 0.39 0.22z"/>
       <path d="m69 240a0.22 0.22 0 0 1 -0.44 0 0.22 0.22 0 1 1 0.44 0z"/>
       <path d="m51 170z"/>
       <path d="m97 200z"/>
       <path d="m110 190z"/>
       <path d="m95 230z"/>
       <path d="m180 240a0.22 0.22 0 1 1 0.08 -0.43z"/>
       <path id="m" d="m220 190a0.22 0.22 0 1 1 0.43 0.082z" stroke="#fff" stroke-miterlimit="0" stroke-width=".038994" fill="#fff"/>
       <path d="m160 110a0.22 0.22 0 1 1 0.43 0.082z"/>
       <path id="e" d="m210 210a0.22023 0.22023 0 1 1 0.28 -0.34z" stroke="#fff" stroke-miterlimit="0" stroke-width=".038994" fill="#fff"/>
       <path d="m220 180a0.22 0.22 0 1 1 0.083 -0.43z"/>
       <path id="d" d="m170 190a0.22 0.22 0 1 1 0.083 -0.43z" stroke="#fff" stroke-miterlimit="0" stroke-width=".038994" fill="#fff"/>
       <path id="c" d="m190 130a0.22 0.22 0 1 1 0.083 -0.43z" stroke="#fff" stroke-miterlimit="0" stroke-width=".038994" fill="#fff"/>
       <path d="m150 47z"/>
       <path d="m120 330z"/>
       <path d="m91 280z"/>
      </g>
      <path stroke-width=".076056" d="m90 310z"/>
      <path stroke-width=".078479" d="m83 270z"/>
      <g stroke-width=".038994">
       <path d="m120 280z"/>
       <path d="m430 270z"/>
       <path d="m120 310z"/>
       <path d="m170 280a0.22 0.22 0 0 1 0.36 -0.24 0.22 0.22 0 0 1 -0.36 0.24z"/>
       <path d="m170 300a0.22 0.22 0 0 1 0.36 -0.24 0.22 0.22 0 1 1 -0.36 0.24z"/>
      </g>
      <path stroke-width=".11795" d="m110 240a0.7 0.7 0 0 1 -1.4 0 0.7 0.7 0 1 1 1.4 0z"/>
      <path stroke-width=".076056" d="m81 220a0.38146 0.522 51 0 1 -0.9 0 0.38146 0.522 51 1 1 0.9 0z"/>
      <path stroke-width=".078479" d="m31 210a0.44 0.44 0 1 1 -0.51 0 0.44 0.44 0 0 1 0.51 0z"/>
      <path stroke-width=".11795" d="m70 200a0.7 0.7 0 0 1 -1.4 0 0.7 0.7 0 1 1 1.4 0z"/>
     </g>
     <path stroke-width=".19824" fill="#d45500" d="m110 72a1.1 1.1 0 0 1 -2.2 0 1.1 1.1 0 1 1 2.2 0z"/>
     <g fill="#fff">
      <path stroke-width=".07863" d="m65 150z"/>
      <path stroke-width=".047178" d="m41 38a0.45 0.46 0 0 1 -0.9 0 0.45 0.46 0 1 1 0.9 0z"/>
      <path id="x" d="m69 120a0.49 0.49 0 1 1 0 -0.9 0.49 0.49 0 0 1 0 0.9z" stroke="#fff" stroke-miterlimit="0" stroke-width=".086493" fill="#fff"/>
      <path stroke-width=".086493" d="m60 100a0.49 0.49 0 1 1 0 -0.9 0.49 0.49 0 0 1 0 0.9z"/>
     </g>
     <path stroke-width=".11512" fill="#00f" d="m49 60a0.66 0.66 0 0 1 0 -0.9 0.66 0.66 0 1 1 0 0.9z"/>
     <g fill="#fff">
      <path stroke-width=".047178" d="m73 48a0.45 0.46 0 0 1 -0.9 0 0.45 0.46 0 1 1 0.9 0z"/>
      <path stroke-width=".095142" d="m90 61a0.54 0.53 45 0 1 0 -0.9 0.54 0.53 45 1 1 0 0.9z"/>
      <path stroke-width=".07863" d="m75 130z"/>
      <path stroke-width=".047178" d="m74 49a0.45 0.46 0 0 1 -0.9 0 0.45 0.46 0 1 1 0.9 0z"/>
      <path stroke-width=".047178" d="m73 50a0.45 0.46 0 0 1 -0.9 0 0.45 0.46 0 1 1 0.9 0z"/>
     </g>
     <path stroke-width=".15653" fill="#e3dbdb" d="m500.14 249.82a0.91216 0.91216 0 1 1 1.12 -1.44 0.91216 0.91216 0 0 1 -1.12 1.44z"/>
     <path stroke-width=".1127" fill="#fff" d="m539.88 149.9a0.632 0.632 0 0 1 -1.12 -0.464 0.632 0.632 0 1 1 1.12 0.464z"/>
     <path stroke-width=".18939" fill="#fff" d="m560.1 169.74a1.12 1.12 0 1 1 1.28 -1.76 1.12 1.12 0 0 1 -1.28 1.76z"/>
     <path id="q" d="m520.14 239.82a0.91216 0.91216 0 1 1 1.12 -1.44 0.91216 0.91216 0 0 1 -1.12 1.44z" stroke="#fff" stroke-miterlimit="0" stroke-width=".15653" fill="#f60"/>
     <path stroke-width=".1127" fill="#fff" d="m549.88 149.9a0.632 0.632 0 0 1 -1.12 -0.464 0.632 0.632 0 1 1 1.12 0.464z"/>
     <path stroke-width=".1127" fill="#ff0" d="m539.88 149.9a0.632 0.632 0 0 1 -1.12 -0.464 0.632 0.632 0 1 1 1.12 0.464z"/>
     <g fill="#fff">
      <g stroke-width=".038994">
       <path d="m440 95a0.22 0.22 0 0 1 -0.44 0 0.22 0.22 0 1 1 0.44 0z"/>
       <path d="m460 70a0.22 0.22 0 0 1 -0.44 0 0.22 0.22 0 1 1 0.44 0z"/>
       <path d="m100 100z"/>
       <path d="m110 110z"/>
       <path d="m130 110z"/>
       <path d="m35 97a0.225 0.225 0 0 1 -0.45 0 0.225 0.225 0 1 1 0.45 0z"/>
       <path d="m400 52a0.22 0.22 0 0 1 -0.44 0 0.22 0.22 0 1 1 0.44 0z"/>
       <path d="m390 62a0.22 0.22 0 0 1 -0.44 0 0.22 0.22 0 1 1 0.44 0z"/>
       <path d="m190 91a0.22 0.22 0 0 1 -0.44 0 0.22 0.22 0 1 1 0.44 0z"/>
       <path d="m420 71z"/>
      </g>
      <path stroke-width=".11795" d="m130 300a0.7 0.7 0 0 1 -1.4 0 0.7 0.7 0 1 1 1.4 0z"/>
      <path stroke-width=".038994" d="m440 79z"/>
      <path stroke-width=".11795" d="m140 220a0.67082 0.68098 63 0 1 -0.6 -1.2 0.67082 0.68098 63 0 1 0.6 1.2z"/>
      <path id="l" d="m150 170a0.5 0.37 24 0 1 0.3 -0.67z" stroke="#fff" stroke-miterlimit="0" stroke-width=".076056" fill="#fff"/>
      <path stroke-width=".11795" d="m160 150a0.67082 0.68098 63 0 1 -0.6 -1.2 0.67082 0.68098 63 1 1 0.6 1.2z"/>
      <path stroke-width=".076056" d="m260 180z"/>
      <path stroke-width=".23589" d="m170 76a1.4 1.4 0 1 1 0 -1.8 1.4 1.4 0 0 1 0 1.8z"/>
      <path stroke-width=".076056" d="m210 140a0.5 0.37 44 0 1 0.51 -0.52z"/>
      <path stroke-width=".038994" d="m260 150z"/>
      <path stroke-width=".038994" d="m210 47z"/>
      <path stroke-width=".064" d="m160 140z"/>
      <path id="k" d="m210 180a0.22 0.22 0 1 1 0.4 -0.17z" stroke="#fff" stroke-miterlimit="0" stroke-width=".038994" fill="#fff"/>
     </g>
     <path stroke-width=".038994" fill="url(#ah)" d="m230 110z"/>
     <g fill="#fff">
      <g stroke-width=".038994">
       <path d="m260 53z"/>
       <path d="m240 56z"/>
       <path d="m250 79z"/>
      </g>
      <g stroke-width=".038994">
       <path d="m250 140z"/>
       <path d="m240 130z"/>
       <path d="m240 150a0.22 0.22 0 1 1 0.43 -0.086z"/>
       <path d="m300 67a0.22 0.22 0 1 1 0.43 0.047z"/>
      </g>
      <path stroke-width=".064" d="m230 99a0.43086 0.49098 53 1 1 0 -0.9 0.43086 0.49098 53 0 1 0 0.9z"/>
      <path stroke-width=".11795" d="m260 53a0.67 0.68 53 1 1 0 -0.9 0.67 0.68 53 0 1 0 0.9z"/>
      <path stroke-width=".11795" d="m73 94a0.68 0.67 19 0 1 0 -0.9 0.68 0.67 19 0 1 0 0.9z"/>
      <path stroke-width=".076056" d="m270 120a0.37 0.5 59 1 1 0.38 0.63z"/>
      <path stroke-width=".19658" d="m380 31a1.1236 1.1236 0 1 1 2.1 -0.8 1.1236 1.1236 0 0 1 -2.1 0.8z"/>
      <path stroke-width=".038994" d="m240 83z"/>
      <path stroke-width=".076056" d="m330 130a0.5 0.37 14 0 1 0.18 -0.71 0.5 0.37 14 1 1 -0.18 0.71z"/>
      <path stroke-width=".038994" d="m310 110z"/>
      <path stroke-width=".038994" d="m280 68z"/>
      <path stroke-width=".076056" d="m360 140a0.5 0.37 14 0 1 0.18 -0.71 0.5 0.37 14 1 1 -0.18 0.71z"/>
      <path stroke-width=".038994" d="m350 150a0.22 0.22 0 0 1 0.06 0.43z"/>
      <path stroke-width=".078479" d="m570 230a0.44522 0.44522 0 1 1 -0.48 0.75z"/>
      <path stroke-width=".078479" d="m280 61a0.45 0.45 0 1 1 0 -0.9 0.45 0.45 0 0 1 0 0.9z"/>
      <path stroke-width=".07863" d="m340 150a0.44119 0.44119 0 1 1 0.69 0.55z"/>
      <g stroke-width=".038994">
       <path d="m350 99z"/>
       <path d="m320 70z"/>
       <path d="m300 68z"/>
       <path d="m590 190a0.22 0.22 0 1 1 0.06 0.43z"/>
       <path d="m310 82z"/>
       <path d="m360 77z"/>
       <path d="m330 170a0.22142 0.22142 0 1 1 0.4 -0.19z"/>
       <path d="m340 92z"/>
       <path d="m230 74z"/>
       <path d="m290 120z"/>
      </g>
      <path stroke-width=".076056" d="m260 140a0.5 0.37 60 0 1 0.63 -0.36 0.5 0.37 60 1 1 -0.63 0.36z"/>
      <path stroke-width=".078479" d="m290 110z"/>
      <g stroke-width=".038994">
       <path d="m310 150a0.22 0.22 0 0 1 0.068 -0.43z"/>
       <path d="m300 140a0.22 0.22 0 0 1 0.068 -0.43z"/>
       <path d="m290 150a0.22 0.22 0 1 1 0.41 0.14z"/>
       <path d="m580 210a0.22 0.22 0 0 1 0.41 0.14z"/>
       <path d="m380 260a0.22 0.22 0 1 1 0.41 0.14z"/>
      </g>
      <path stroke-width=".076056" d="m340 72a0.61504 0.44364 14 1 1 0 -0.9 0.61504 0.44364 14 0 1 0 0.9z"/>
      <path stroke-width=".078479" d="m310 29a0.44 0.44 0 0 1 0 -0.85 0.44 0.44 0 1 1 0 0.85z"/>
      <path stroke-width=".11795" d="m320 91a0.67 0.68 53 1 1 0 -0.9 0.67 0.68 53 0 1 0 0.9z"/>
      <path stroke-width=".11795" d="m350 56a0.67 0.68 53 1 1 0 -0.9 0.67 0.68 53 0 1 0 0.9z"/>
      <path stroke-width=".07863" d="m490 62a0.45 0.45 0 0 1 0 0.9 0.45 0.45 0 1 1 0 -0.9z"/>
      <path stroke-width=".15726" d="m470 72z"/>
      <path stroke-width=".19658" d="m440 41z"/>
      <path stroke-width=".11795" d="m490 36a0.68 0.68 38 1 1 0 -1.1 0.68 0.68 38 0 1 0 1.1z"/>
      <path stroke-width=".11795" d="m510 86a0.68 0.68 68 0 1 0 -0.9 0.68 0.68 68 1 1 0 0.9z"/>
      <path stroke-width=".076056" d="m530 71a0.37 0.5 18 0 1 0.69 0.23z"/>
      <path stroke-width=".11795" d="m520 140a0.67498 0.66491 12 1 1 0.28 -1.3 0.67498 0.66491 12 0 1 -0.28 1.3z"/>
      <path stroke-width=".064" d="m570 77a0.5 0.44 28 1 1 0 -0.9 0.5 0.44 28 0 1 0 0.9z"/>
      <path stroke-width=".078479" d="m140 390a0.44119 0.44119 0 0 1 0.69 -0.55z"/>
      <g stroke-width=".076056">
       <path d="m120 500a0.5 0.37 51 1 1 0.58 -0.45 0.5 0.37 51 0 1 -0.58 0.45z"/>
       <path d="m81 410a0.56 0.41 51 1 1 0.9 0 0.56 0.41 51 0 1 -0.9 0z"/>
       <path d="m85 550a0.38 0.52 52 0 1 -0.9 0 0.38 0.52 52 1 1 0.9 0z"/>
      </g>
      <path stroke-width=".078479" d="m58 510a0.45 0.45 0 0 1 -0.9 0 0.45 0.45 0 1 1 0.9 0z"/>
      <path stroke-width=".038994" d="m130 430a0.22 0.22 0 0 1 0.43 0.082z"/>
      <path stroke-width=".038994" d="m150 550a0.22023 0.22023 0 0 1 0.34 0.28z"/>
      <path stroke-width=".076056" d="m45 430a0.37 0.5 6.6 1 1 0.73 0.09 0.45 0.61 6.6 0 1 -0.9 0z"/>
      <path stroke-width=".11795" d="m110 450z"/>
      <path stroke-width=".15726" d="m170 530a0.89022 0.89022 0 0 1 -1.4 -1.1 0.89022 0.89022 0 1 1 1.4 1.1z"/>
      <path stroke-width=".076056" d="m140 420a0.5 0.37 51 1 1 0.58 -0.45 0.5 0.37 51 0 1 -0.58 0.45z"/>
      <path stroke-width=".076056" d="m180 500a0.37 0.5 24 1 1 0.67 0.31z"/>
      <path stroke-width=".064" d="m220 500a0.39 0.34 23 0 1 0.26 -0.62z"/>
      <path stroke-width=".038994" d="m170 550a0.22 0.22 0 1 1 0.17 0.4z"/>
      <path stroke-width=".076056" d="m430 69a0.37 0.5 5.3 1 1 0.73 0.075z"/>
      <path stroke-width=".076056" d="m450 110a0.41 0.56 51 1 1 0 -0.9 0.41 0.56 51 0 1 0 0.9z"/>
      <path stroke-width=".038994" d="m440 38a0.22 0.22 0 0 1 -0.44 0 0.22 0.22 0 1 1 0.44 0z"/>
      <path stroke-width=".076056" d="m400 140z"/>
      <g stroke-width=".038994">
       <path d="m480 110a0.22 0.22 0 0 1 -0.44 0 0.22 0.22 0 1 1 0.44 0z"/>
       <path d="m400 150a0.22 0.22 0 0 1 -0.44 0 0.22 0.22 0 1 1 0.44 0z"/>
       <path d="m390 160a0.22 0.22 0 0 1 -0.44 0 0.22 0.22 0 1 1 0.44 0z"/>
       <path d="m350 310a0.22 0.22 0 0 1 -0.44 0 0.22 0.22 0 1 1 0.44 0z"/>
       <path d="m430 150a0.22 0.22 0 1 1 0.08 -0.43z"/>
      </g>
      <path stroke-width=".038994" d="m420 200z"/>
      <path stroke-width=".076056" d="m440 88a0.61 0.45 6.3 1 1 0 -0.9 0.61 0.45 6.3 0 1 0 0.9z"/>
      <path stroke-width=".078479" d="m420 140a0.44142 0.44142 0 0 1 0.15 -0.87z"/>
      <path stroke-width=".038994" d="m450 200z"/>
      <path stroke-width=".038994" d="m460 57z"/>
      <path stroke-width=".11795" d="m440 130a0.7 0.7 0 0 1 -1.4 0 0.7 0.7 0 1 1 1.4 0z"/>
      <path stroke-width=".076056" d="m200 420z"/>
      <path stroke-width=".038994" d="m220 440a0.22 0.22 0 0 1 -0.36 0.25 0.22 0.22 0 1 1 0.36 -0.25z"/>
      <path stroke-width=".076056" d="m250 460z"/>
      <g stroke-width=".038994">
       <path d="m190 460a0.22 0.22 0 0 1 -0.36 0.25 0.22 0.22 0 1 1 0.36 -0.25z"/>
       <path d="m210 490a0.22 0.22 0 0 1 -0.36 0.25 0.22 0.22 0 1 1 0.36 -0.25z"/>
       <path d="m230 490a0.22 0.22 0 0 1 -0.36 0.25 0.22 0.22 0 1 1 0.36 -0.25z"/>
       <path d="m230 470a0.22 0.22 0 0 1 -0.36 0.25 0.22 0.22 0 1 1 0.36 -0.25z"/>
       <path d="m190 460a0.22 0.22 0 1 1 -0.18 -0.4 0.22 0.22 0 0 1 0.18 0.4z"/>
       <path d="m250 430z"/>
      </g>
      <path stroke-width=".076056" d="m260 420z"/>
      <path stroke-width=".078479" d="m240 440z"/>
      <path stroke-width=".038994" d="m220 410z"/>
      <path stroke-width=".038994" d="m230 420z"/>
      <path stroke-width=".11795" d="m210 460a0.68 0.67 55 0 1 -1.1 0.76 0.68 0.67 55 1 1 1.1 -0.76z"/>
     </g>
    </g>
    <rect stroke-linejoin="round" transform="matrix(.73599 0 0 .78186 104.88 275.68)" clip-path="url(#ab)" ry="13" height="26" width="45" stroke="#000" y="1200" x="430" stroke-width=".5"/>
    <g stroke="#fff" stroke-miterlimit="0">
     <path stroke-width=".19824" fill="#d45500" d="m260 110a1.1 1.1 0 0 1 -2.2 0 1.1 1.1 0 1 1 2.2 0z"/>
     <path stroke-width=".11512" fill="#00f" d="m250 61a0.66 0.66 0 0 1 0 -0.9 0.66 0.66 0 1 1 0 0.9z"/>
     <g fill="#fff">
      <path stroke-width=".038994" d="m55 100z"/>
      <path stroke-width=".038994" d="m64 130z"/>
      <path stroke-width=".064" d="m53 150z"/>
      <path stroke-width=".076056" d="m67 130z"/>
      <path stroke-width=".038994" d="m57 130z"/>
      <path stroke-width=".038994" d="m52 120z"/>
     </g>
    </g>
    <g fill="#f60" transform="matrix(.8 0 0 .8 105.17 44.034)">
     <use id="w" xlink:href="#q" transform="translate(6.9121,-18.11)" height="580" width="600" y="0" x="0" fill="#ff6600"/>
     <use xlink:href="#w" transform="translate(-6.2209,1.2442)" height="580" width="600" y="0" x="0"/>
     <use xlink:href="#q" transform="matrix(.66085 0 0 .71737 186.66 46.24)" height="580" width="600" y="0" x="0"/>
    </g>
    <path d="m520.19 159.74a1.2881 1.2881 0 0 1 1.52 -2.08 1.2881 1.2881 0 1 1 -1.52 2.08z" stroke="#fff" stroke-miterlimit="0" stroke-width=".22506" fill="#fff"/>
    <path d="m540.23 259.69a1.544 1.544 0 1 1 1.84 -2.48 1.544 1.544 0 0 1 -1.84 2.48z" stroke="#fff" stroke-miterlimit="0" stroke-width=".27047" fill="#e3dbdb"/>
    <use xlink:href="#aa" transform="translate(46.726,-188.56)" height="580" width="600" y="0" x="0"/>
    <use xlink:href="#z" transform="translate(46.726,-188.56)" height="580" width="600" y="0" x="0"/>
    <use xlink:href="#x" transform="translate(88.147,-15.022)" height="580" width="600" y="0" x="0"/>
    <path d="m180 14a0.45 0.45 0 0 1 -0.9 0 0.45 0.45 0 1 1 0.9 0z" stroke="#fff" stroke-miterlimit="0" stroke-width=".078479" fill="#fff"/>
    <path d="m260 50a0.38146 0.522 51 0 1 -0.9 0 0.38146 0.522 51 1 1 0.9 0z" stroke="#fff" stroke-miterlimit="0" stroke-width=".076056" fill="#fff"/>
    <use xlink:href="#y" transform="translate(-128.29,-71.056)" height="580" width="600" y="0" x="0"/>
    <use xlink:href="#m" transform="translate(-128.29,-71.056)" height="580" width="600" y="0" x="0"/>
    <use xlink:href="#e" transform="translate(-128.29,-71.056)" height="580" width="600" y="0" x="0"/>
    <use xlink:href="#d" transform="translate(-128.29,-71.056)" height="580" width="600" y="0" x="0"/>
    <use xlink:href="#c" transform="translate(-128.29,-71.056)" height="580" width="600" y="0" x="0"/>
    <use xlink:href="#l" transform="translate(-128.29,-71.056)" height="580" width="600" y="0" x="0"/>
    <use xlink:href="#k" transform="translate(-128.29,-71.056)" height="580" width="600" y="0" x="0"/>
    <g stroke="#fff" stroke-miterlimit="0" fill="#fff">
     <path stroke-width=".038994" d="m130 92a0.22 0.22 0 0 1 0.43 0.059z"/>
     <path stroke-width=".038994" d="m39 170a0.22006 0.22006 0 0 1 -0.0099 0.44z"/>
     <path stroke-width=".07863" d="m30 160a0.44 0.44 0 0 1 0.59 0.65z"/>
     <path stroke-width=".038994" d="m57 210a0.22023 0.22023 0 1 1 0.28 -0.34z"/>
     <path stroke-width=".038994" d="m66 180a0.22 0.22 0 1 1 0.083 -0.43z"/>
     <path stroke-width=".076056" d="m57 140a0.5 0.37 44 0 1 0.51 -0.52z"/>
     <g stroke-width=".038994">
      <path d="m57 180a0.22 0.22 0 0 1 0.4 -0.17z"/>
      <path d="m84 150a0.22 0.22 0 1 1 0.43 -0.086z"/>
      <path d="m340 35a0.22006 0.22006 0 0 1 -0.01 0.44z"/>
     </g>
     <path stroke-width=".07863" d="m330 26a0.44 0.44 0 0 1 0.59 0.65z"/>
     <g stroke-width=".038994">
      <path d="m350 71a0.22023 0.22023 0 1 1 0.28 -0.34z"/>
      <path d="m360 44a0.22 0.22 0 1 1 0.083 -0.43z"/>
      <path d="m350 44a0.22 0.22 0 0 1 0.4 -0.17z"/>
      <path d="m380 17a0.22 0.22 0 1 1 0.43 -0.086z"/>
      <path d="m530 29a0.225 0.225 0 0 1 -0.45 0 0.225 0.225 0 1 1 0.45 0z"/>
     </g>
     <path stroke-width=".11795" d="m570 26a0.68 0.67 19 0 1 0 -0.9 0.68 0.67 19 0 1 0 0.9z"/>
    </g>
    <use xlink:href="#m" transform="translate(363.3,-138.52)" height="580" width="600" y="0" x="0"/>
    <use xlink:href="#e" transform="translate(363.3,-138.52)" height="580" width="600" y="0" x="0"/>
    <use xlink:href="#d" transform="translate(363.3,-138.52)" height="580" width="600" y="0" x="0"/>
    <use xlink:href="#l" transform="translate(363.3,-138.52)" height="580" width="600" y="0" x="0"/>
    <use xlink:href="#k" transform="translate(363.3,-138.52)" height="580" width="600" y="0" x="0"/>
    <g stroke="#fff" stroke-miterlimit="0" fill="#fff">
     <path stroke-width=".038994" d="m530 110a0.22006 0.22006 0 0 1 -0.01 0.44z"/>
     <path stroke-width=".07863" d="m520 96a0.44 0.44 0 0 1 0.59 0.65z"/>
     <g stroke-width=".038994">
      <path d="m560 110a0.22 0.22 0 0 1 0.083 -0.43z"/>
      <path d="m550 110a0.22 0.22 0 1 1 0.4 -0.17z"/>
      <path d="m580 87a0.22 0.22 0 1 1 0.43 -0.086z"/>
      <path d="m460 160a0.22 0.22 0 0 1 -0.44 0 0.22 0.22 0 1 1 0.44 0z"/>
      <path d="m440 130a0.22 0.22 0 0 1 -0.44 0 0.22 0.22 0 1 1 0.44 0z"/>
     </g>
    </g>
    <use xlink:href="#m" transform="matrix(.8 0 0 .8 407.34 -10.53)" height="580" width="600" y="0" x="0"/>
    <use xlink:href="#e" transform="matrix(.8 0 0 .8 405.32 -6.5579)" height="580" width="600" y="0" x="0"/>
    <use xlink:href="#d" transform="matrix(.8 0 0 .8 397.29 -10.562)" height="580" width="600" y="0" x="0"/>
    <use xlink:href="#l" transform="translate(363.3,-48.518)" height="580" width="600" y="0" x="0"/>
    <g stroke="#fff" stroke-miterlimit="0" fill="#fff">
     <path stroke-width=".038994" d="m530 200a0.22006 0.22006 0 0 1 -0.01 0.44z"/>
     <path stroke-width=".078479" d="m200 240a0.44522 0.44522 0 1 1 -0.48 0.75z"/>
     <path stroke-width=".038994" d="m220 190a0.22 0.22 0 1 1 0.06 0.43z"/>
     <path stroke-width=".038994" d="m200 210a0.22142 0.22142 0 0 1 0.4 -0.19z"/>
    </g>
    <g stroke="#fff" stroke-width=".038994" stroke-miterlimit="0" fill="#fff">
     <path d="m157 322a0.22 0.22 0 0 1 -0.44 0 0.22 0.22 0 1 1 0.44 0z"/>
     <path d="m106 312a0.22 0.22 0 0 1 -0.44 0 0.22 0.22 0 1 1 0.44 0z"/>
     <path d="m127 292a0.22 0.22 0 0 1 -0.44 0 0.22 0.22 0 1 1 0.44 0z"/>
     <path d="m116 302a0.22 0.22 0 0 1 -0.44 0 0.22 0.22 0 1 1 0.44 0z"/>
     <path d="m95 159a0.225 0.225 0 0 1 -0.45 0 0.225 0.225 0 1 1 0.45 0z"/>
    </g>
    <use xlink:href="#e" transform="translate(-68.288,-9.0561)" height="580" width="600" y="0" x="0"/>
    <use xlink:href="#d" transform="translate(-68.288,-9.0561)" height="580" width="600" y="0" x="0"/>
    <use xlink:href="#c" transform="translate(-68.288,-9.0561)" height="580" width="600" y="0" x="0"/>
    <use xlink:href="#k" transform="translate(-74.288,-9.0561)" height="580" width="600" y="0" x="0"/>
    <g stroke="#fff" stroke-miterlimit="0" fill="#fff">
     <g stroke-width=".038994">
      <path d="m190 154a0.22 0.22 0 0 1 0.43 0.059z"/>
      <path d="m117 272a0.22023 0.22023 0 1 1 0.28 -0.34z"/>
      <path d="m117 242a0.22 0.22 0 0 1 0.4 -0.17z"/>
      <path d="m144 212a0.22 0.22 0 1 1 0.43 -0.086z"/>
     </g>
     <path stroke-width=".07863" d="m216 90a0.44 0.44 0 0 1 0.59 0.65z"/>
     <g stroke-width=".038994">
      <path d="m136 160a0.22 0.22 0 0 1 -0.44 0 0.22 0.22 0 1 1 0.44 0z"/>
      <path d="m196 190a0.22389 0.22389 0 0 1 0.39 0.22z"/>
      <path d="m216 170a0.22 0.22 0 1 1 0.08 -0.43z"/>
      <path d="m206 120a0.22 0.22 0 1 1 0.083 -0.43z"/>
     </g>
     <path stroke-width=".076056" d="m186 100a0.5 0.37 24 0 1 0.3 -0.67z"/>
     <path stroke-width=".11795" d="m109 24a0.68 0.67 19 0 1 0 -0.9 0.68 0.67 19 0 1 0 0.9z"/>
     <path stroke-width=".038994" d="m120 80a0.22 0.22 0 1 1 0.43 -0.086z"/>
     <path stroke-width=".038994" d="m256 120a0.22 0.22 0 1 1 0.06 0.43z"/>
    </g>
    <use xlink:href="#c" transform="translate(-32.288,-79.056)" height="580" width="600" y="0" x="0"/>
    <g stroke="#fff" stroke-miterlimit="0" fill="#fff">
     <path stroke-width=".038994" d="m153 172a0.22 0.22 0 0 1 0.4 -0.17z"/>
     <path stroke-width=".07863" d="m355.36 183.08a0.44 0.44 0 0 1 0.3111 0.82086z"/>
     <g stroke-width=".038994">
      <path d="m255.29 218.94a0.22006 0.22006 0 1 1 -0.41 -0.16 0.22006 0.22006 0 0 1 0.41 0.16z"/>
      <path d="m300.14 268.82a0.22389 0.22389 0 0 1 0.28238 0.34751z"/>
      <path d="m326.08 257.53a0.22 0.22 0 1 1 0.23186 -0.37087z"/>
      <path d="m335.07 207.34a0.22 0.22 0 1 1 0.23465 -0.36977z"/>
     </g>
     <path stroke-width=".076056" d="m323.78 181.4a0.5 0.37 45.473 0 1 0.52444 -0.51366z"/>
     <path stroke-width=".11795" d="m279.95 82.492a0.68 0.67 40.473 0 1 0.33 -0.838 0.68 0.67 40.473 0 1 -0.33 0.838z"/>
     <path stroke-width=".038994" d="m269.69 138.63a0.22 0.22 0 1 1 0.43163 0.0774z"/>
     <path stroke-width=".038994" d="m381.6 225.64a0.22 0.22 0 1 1 -0.10158 0.42212z"/>
    </g>
    <use xlink:href="#c" transform="matrix(.93059 .36607 -.36607 .93059 186.19 -65.132)" height="580" width="600" y="0" x="0"/>
    <g stroke="#fff" stroke-miterlimit="0" fill="#fff">
     <path stroke-width=".038994" d="m266.72 236.33a0.22 0.22 0 0 1 0.43447 -0.0118z"/>
     <path stroke-width=".07863" d="m113.04 148.02a0.44 0.44 0 0 1 -0.12435 0.86898z"/>
     <g stroke-width=".038994">
      <path d="m8.0974 131.04a0.22 0.22 0 0 1 -0.2806 -0.33 0.22 0.22 0 1 1 0.2806 0.33z"/>
      <path d="m23.258 196.39a0.22389 0.22389 0 1 1 0.0793 0.4407z"/>
      <path d="m51.418 199.04a0.22 0.22 0 1 1 0.38222 -0.21263z"/>
      <path d="m83.551 159.45a0.22 0.22 0 1 1 0.38413 -0.21032z"/>
     </g>
     <path stroke-width=".076056" d="m86.2 131.29a0.5 0.37 74.373 0 1 0.70737 -0.19624z"/>
     <path stroke-width=".11795" d="m95.626 23.509a0.68 0.67 69.373 0 1 0.693 -0.574 0.68 0.67 69.373 0 1 -0.693 0.574z"/>
     <path stroke-width=".038994" d="m59.51 67.698a0.22 0.22 0 1 1 0.34048 0.27636z"/>
     <path stroke-width=".038994" d="m115.44 197.96a0.22 0.22 0 1 1 -0.29293 0.32046z"/>
    </g>
    <use xlink:href="#c" transform="matrix(.63779 .77021 -.77021 .63779 84.889 -151.04)" height="580" width="600" y="0" x="0"/>
    <g stroke="#fff" stroke-width=".038994" stroke-miterlimit="0" fill="#fff">
     <path d="m9.6973 151.79a0.22 0.22 0 0 1 0.38607 0.19964z"/>
     <path d="m264 138a0.22 0.22 0 0 1 -0.0009 0.44z"/>
     <path d="m204 48a0.22006 0.22006 0 0 1 -0.01 0.44z"/>
     <path d="m174 138a0.22389 0.22389 0 0 1 0.39 0.22z"/>
     <path d="m194 118a0.22 0.22 0 1 1 0.08 -0.43z"/>
     <path d="m224 88a0.22023 0.22023 0 1 1 0.28 -0.34z"/>
     <path d="m234 58a0.22 0.22 0 1 1 0.083 -0.43z"/>
     <path d="m184 68a0.22 0.22 0 1 1 0.083 -0.43z"/>
     <path d="m204 8a0.22 0.22 0 1 1 0.083 -0.43z"/>
     <path d="m214 88a0.22142 0.22142 0 1 1 0.4 -0.19z"/>
     <path d="m204 32a0.22 0.22 0 0 1 0.43 0.059z"/>
     <path d="m210 68a0.22389 0.22389 0 0 1 0.39 0.22z"/>
     <path d="m230 48a0.22 0.22 0 1 1 0.08 -0.43z"/>
     <path d="m167 50a0.22 0.22 0 0 1 0.4 -0.17z"/>
    </g>
   </g>
   <g transform="translate(-50.592 -72.893)">
    <g transform="matrix(.99999 0 0 .99999 -4.0495 106.78)">
     <g transform="translate(131.83,215.02)">
      <g transform="translate(-182.93,-467.65)">
       <text style="word-spacing:0px;letter-spacing:0px" xml:space="preserve" font-size="40px" y="991.03918" x="1418.9371" font-family="Sans" line-height="125%"><tspan y="991.03918" x="1418.9371"/></text>
       <text style="word-spacing:0px;letter-spacing:0px" xml:space="preserve" font-size="13px" y="1293.6891" x="1315.4353" font-family="&apos;Arial Hebrew&apos;" line-height="125%"><tspan y="1293.6891" x="1315.4353"/></text>
       <text style="word-spacing:0px;letter-spacing:0px" xml:space="preserve" font-size="6px" y="1303.9227" x="1314.1394" font-family="Krungthep" line-height="125%"><tspan y="1303.9227" x="1314.1394"/></text>
       <g transform="translate(40.8,-67.496)">
        <text font-size="40px" xml:space="preserve" style="word-spacing:0px;letter-spacing:0px" y="915.52228" x="440.44522" font-family="Sans" line-height="125%"><tspan y="915.52228" x="440.44522"/></text>
        <text font-size="13px" xml:space="preserve" style="word-spacing:0px;letter-spacing:0px" y="1218.1722" x="336.94339" font-family="&apos;Arial Hebrew&apos;" line-height="125%"><tspan y="1218.1722" x="336.94339"/></text>
        <text font-size="6px" xml:space="preserve" style="word-spacing:0px;letter-spacing:0px" y="1228.4059" x="335.64749" font-family="Krungthep" line-height="125%"><tspan y="1228.4059" x="335.64749"/></text>
        <rect stroke-linejoin="round" transform="matrix(.73599 0 0 .78186 104.88 275.68)" clip-path="url(#ao)" ry="13" height="26" width="45" stroke="#000" y="1200" x="430" stroke-width=".5"/>
       </g>
      </g>
     </g>
     <text style="word-spacing:0px;letter-spacing:0px" xml:space="preserve" font-size="40px" y="832.71497" x="1988.6168" font-family="Sans" line-height="125%"><tspan y="832.71497" x="1988.6168"/></text>
     <text style="word-spacing:0px;letter-spacing:0px" xml:space="preserve" font-size="13px" y="1135.3656" x="1885.1147" font-family="&apos;Arial Hebrew&apos;" line-height="125%"><tspan y="1135.3656" x="1885.1147"/></text>
     <text style="word-spacing:0px;letter-spacing:0px" xml:space="preserve" font-size="6px" y="1145.5992" x="1883.8188" font-family="Krungthep" line-height="125%"><tspan y="1145.5992" x="1883.8188"/></text>
     <g transform="translate(123.24,623.31)">
      <g transform="matrix(.99999 0 0 .99999 9.1025 -84.134)">
       <g transform="translate(131.83,249.62)">
        <g transform="translate(-182.93,-467.65)">
         <text font-size="40px" xml:space="preserve" style="word-spacing:0px;letter-spacing:0px" y="991.03918" x="1418.9371" font-family="Sans" line-height="125%"><tspan y="991.03918" x="1418.9371"/></text>
         <text font-size="13px" xml:space="preserve" style="word-spacing:0px;letter-spacing:0px" y="1293.6891" x="1315.4353" font-family="&apos;Arial Hebrew&apos;" line-height="125%"><tspan y="1293.6891" x="1315.4353"/></text>
         <text font-size="6px" xml:space="preserve" style="word-spacing:0px;letter-spacing:0px" y="1303.9227" x="1314.1394" font-family="Krungthep" line-height="125%"><tspan y="1303.9227" x="1314.1394"/></text>
         <g transform="translate(40.8,-67.496)">
          <text font-size="40px" xml:space="preserve" style="word-spacing:0px;letter-spacing:0px" y="915.52228" x="440.44522" font-family="Sans" line-height="125%"><tspan y="915.52228" x="440.44522"/></text>
          <text font-size="13px" xml:space="preserve" style="word-spacing:0px;letter-spacing:0px" y="1218.1722" x="336.94339" font-family="&apos;Arial Hebrew&apos;" line-height="125%"><tspan y="1218.1722" x="336.94339"/></text>
          <text font-size="6px" xml:space="preserve" style="word-spacing:0px;letter-spacing:0px" y="1228.4059" x="335.64749" font-family="Krungthep" line-height="125%"><tspan y="1228.4059" x="335.64749"/></text>
          <g transform="translate(841.13,1351.6)">
           <ellipse rx="172.8" ry="172.83" cy="-860.03" cx="-1291.4" fill="url(#an)"/>
           <circle fill-opacity=".64615" transform="matrix(5.193,0,0,5.3721,-1549.8,-3492.3)" filter="url(#v)" cy="492.36" cx="50" r="14.286" fill="#a75800"/>
          </g>
         </g>
        </g>
       </g>
       <text font-size="40px" xml:space="preserve" style="word-spacing:0px;letter-spacing:0px" y="867.31873" x="1988.6168" font-family="Sans" line-height="125%"><tspan y="867.31873" x="1988.6168"/></text>
       <text font-size="13px" xml:space="preserve" style="word-spacing:0px;letter-spacing:0px" y="1169.9694" x="1885.1147" font-family="&apos;Arial Hebrew&apos;" line-height="125%"><tspan y="1169.9694" x="1885.1147"/></text>
       <text font-size="6px" xml:space="preserve" style="word-spacing:0px;letter-spacing:0px" y="1180.203" x="1883.8188" font-family="Krungthep" line-height="125%"><tspan y="1180.203" x="1883.8188"/></text>
      </g>
      <text font-size="40px" xml:space="preserve" style="word-spacing:0px;letter-spacing:0px" y="534.67395" x="1349.2291" line-height="125%"><tspan y="534.67395" x="1349.2291"/></text>
     </g>
     <g transform="translate(-1539.7,216.39)">
      <ellipse opacity=".99" rx="64.705" ry="79.314" cy="541.34" cx="1216.3" fill="url(#am)"/>
      <circle r="37.21" stroke="#a62017" cy="541.35" cx="1215" stroke-width="2.381" fill="none"/>
     </g>
    </g>
    <text style="word-spacing:0px;letter-spacing:0px" xml:space="preserve" font-size="40px" y="725.58691" x="1336.0771" line-height="125%"><tspan y="725.58691" x="1336.0771"/></text>
   </g>
  </g>
  <text font-size="40px" xml:space="preserve" style="word-spacing:0px;letter-spacing:0px" y="1155.5096" x="1336.0771" line-height="125%"><tspan y="1155.5096" x="1336.0771"/></text>
 </g>
 <g transform="matrix(.99999 0 0 .99999 -4.0495 106.78)">
  <g transform="translate(131.83,215.02)">
   <g transform="translate(-182.93,-467.65)">
    <text style="word-spacing:0px;letter-spacing:0px" xml:space="preserve" font-size="40px" y="991.03918" x="1418.9371" font-family="Sans" line-height="125%"><tspan y="991.03918" x="1418.9371"/></text>
    <text style="word-spacing:0px;letter-spacing:0px" xml:space="preserve" font-size="13px" y="1293.6891" x="1315.4353" font-family="&apos;Arial Hebrew&apos;" line-height="125%"><tspan y="1293.6891" x="1315.4353"/></text>
    <text style="word-spacing:0px;letter-spacing:0px" xml:space="preserve" font-size="6px" y="1303.9227" x="1314.1394" font-family="Krungthep" line-height="125%"><tspan y="1303.9227" x="1314.1394"/></text>
    <g transform="translate(40.8,-67.496)">
     <text font-size="40px" xml:space="preserve" style="word-spacing:0px;letter-spacing:0px" y="915.52228" x="440.44522" font-family="Sans" line-height="125%"><tspan y="915.52228" x="440.44522"/></text>
     <text font-size="13px" xml:space="preserve" style="word-spacing:0px;letter-spacing:0px" y="1218.1722" x="336.94339" font-family="&apos;Arial Hebrew&apos;" line-height="125%"><tspan y="1218.1722" x="336.94339"/></text>
     <text font-size="6px" xml:space="preserve" style="word-spacing:0px;letter-spacing:0px" y="1228.4059" x="335.64749" font-family="Krungthep" line-height="125%"><tspan y="1228.4059" x="335.64749"/></text>
     <rect stroke-linejoin="round" transform="matrix(.73599 0 0 .78186 104.88 275.68)" clip-path="url(#ak)" ry="13" height="26" width="45" stroke="#000" y="1200" x="430" stroke-width=".5"/>
    </g>
   </g>
  </g>
  <text style="word-spacing:0px;letter-spacing:0px" xml:space="preserve" font-size="40px" y="832.71497" x="1988.6168" font-family="Sans" line-height="125%"><tspan y="832.71497" x="1988.6168"/></text>
  <text style="word-spacing:0px;letter-spacing:0px" xml:space="preserve" font-size="13px" y="1135.3656" x="1885.1147" font-family="&apos;Arial Hebrew&apos;" line-height="125%"><tspan y="1135.3656" x="1885.1147"/></text>
  <text style="word-spacing:0px;letter-spacing:0px" xml:space="preserve" font-size="6px" y="1145.5992" x="1883.8188" font-family="Krungthep" line-height="125%"><tspan y="1145.5992" x="1883.8188"/></text>
  <g transform="translate(6.2514 -109.2)">
   <g stroke="#fff" stroke-miterlimit="0" fill="#fff">
    <path stroke-width=".064" d="m38 320a0.36 0.41 0 0 1 -0.72 0 0.36 0.41 0 1 1 0.72 0z"/>
    <path stroke-width=".15726" d="m140 400a0.9 0.9 0 0 1 -1.8 0 0.9 0.9 0 1 1 1.8 0z"/>
    <path stroke-width=".078584" d="m120 130z"/>
    <path id="ad" d="m130 320a0.365 0.52722 0 0 1 -0.73 0 0.365 0.52722 0 1 1 0.73 0z" stroke="#fff" stroke-miterlimit="0" stroke-width=".076056" fill="#fff"/>
    <path stroke-width=".23589" d="m94 330a1.4 1.4 0 0 1 -2.6 0 1.4 1.4 0 1 1 2.6 0z"/>
    <path stroke-width=".11795" d="m150 340a0.66287 0.67292 56 1 1 -0.74 -1.1 0.66287 0.67292 56 0 1 0.74 1.1z"/>
    <path stroke-width=".076056" d="m200 330z"/>
    <path stroke-width=".15726" d="m400 70a0.92195 0.92195 0 0 1 1.2 1.4 0.89 0.89 0 0 1 0 -0.9z"/>
    <path stroke-width=".076056" d="m190 390z"/>
    <path stroke-width=".07863" d="m190 330a0.44 0.44 0 1 1 -0.002 0.88z"/>
    <path stroke-width=".076056" d="m100 370a0.38146 0.522 51 0 1 -0.9 0 0.38146 0.522 51 1 1 0.9 0z"/>
    <path stroke-width=".038994" d="m38 360a0.22 0.22 0 1 1 0.36 0 0.22 0.22 0 0 1 -0.36 0z"/>
    <path stroke-width=".038994" d="m470 340z"/>
    <path stroke-width=".11795" d="m460 76a0.67 0.66 45 1 1 0.9 -0.9 0.67 0.66 45 0 1 -0.9 0.9z"/>
    <path stroke-width=".038994" d="m100 330z"/>
    <path stroke-width=".078479" d="m260 230a0.4423 0.4423 0 0 1 0.88 0.09z"/>
    <path stroke-width=".076056" d="m160 150a0.37 0.5 5.3 0 1 0.73 0.075z"/>
    <path stroke-width=".076056" d="m82 290a0.37 0.5 5.3 1 1 0.73 0.075 0.45 0.61 5.3 0 1 -0.9 0z"/>
    <g stroke-width=".038994">
     <path d="m330 390a0.22277 0.22277 0 1 1 0.31 -0.32z"/>
     <path d="m290 360z"/>
     <path d="m220 330z"/>
    </g>
    <path stroke-width=".076056" d="m190 350a0.5 0.37 62 1 1 0.64 -0.35z"/>
    <g stroke-width=".038994">
     <path d="m160 370a0.22 0.22 0 0 1 0.081 -0.43z"/>
     <path d="m180 410a0.22 0.22 0 0 1 0.081 -0.43z"/>
     <path d="m400 350a0.22 0.22 0 1 1 -0.42 0.13z"/>
    </g>
    <path stroke-width=".038994" d="m110 380z"/>
    <path stroke-width=".19658" d="m170 270a1.1376 1.1376 0 1 1 0.58 -2.2 1.1376 1.1376 0 0 1 -0.58 2.2z"/>
    <path stroke-width=".038994" d="m130 330a0.22 0.22 0 0 1 0.14 -0.41z"/>
    <path stroke-width=".07863" d="m380 120a0.44 0.44 0 0 1 -0.88 0 0.44 0.44 0 1 1 0.88 0z"/>
    <path stroke-width=".078479" d="m48 220a0.45 0.45 0 0 1 -0.9 0 0.45 0.45 0 1 1 0.9 0z"/>
    <path stroke-width=".076056" d="m120 250a0.38146 0.522 51 0 1 -0.9 0 0.38146 0.522 51 1 1 0.9 0z"/>
    <g stroke-width=".038994">
     <path d="m97 260a0.22 0.22 0 0 1 -0.44 0 0.22 0.22 0 1 1 0.44 0z"/>
     <path d="m46 250a0.22 0.22 0 0 1 -0.44 0 0.22 0.22 0 1 1 0.44 0z"/>
     <path d="m250 260a0.22 0.22 0 0 1 -0.0009 0.44z"/>
    </g>
    <path stroke-width=".076056" d="m160 240z"/>
    <path stroke-width=".038994" d="m260 300a0.22 0.22 0 0 1 -0.44 0 0.22 0.22 0 1 1 0.44 0z"/>
    <path id="ae" d="m66 270a0.38146 0.522 51 0 1 -0.9 0 0.38146 0.522 51 1 1 0.9 0z" stroke="#fff" stroke-miterlimit="0" stroke-width=".076056" fill="#fff"/>
    <path stroke-width=".076056" d="m210 270a0.5 0.37 52 1 1 -0.57 0.46z"/>
    <path stroke-width=".038994" d="m160 260a0.22389 0.22389 0 1 1 0.39 0.22z"/>
    <path stroke-width=".078479" d="m170 300a0.443 0.443 0 1 1 0.31 0.83z"/>
    <path stroke-width=".07863" d="m330 180a0.44511 0.44511 0 0 1 0.86 -0.23z"/>
    <path stroke-width=".038994" d="m62 370z"/>
    <path stroke-width=".038994" d="m230 280a0.22 0.22 0 0 1 0.099 -0.42z"/>
    <path stroke-width=".078479" d="m36 250a0.44 0.44 0 1 1 -0.54 0 0.44 0.44 0 0 1 0.54 0z"/>
    <path stroke-width=".038994" d="m310 260z"/>
    <path stroke-width=".038994" d="m160 98z"/>
    <path stroke-width=".07863" d="m150 260a0.44511 0.44511 0 0 1 0.86 -0.23z"/>
    <path stroke-width=".078479" d="m130 56a0.45 0.45 0 1 1 0 -0.9 0.45 0.45 0 0 1 0 0.9z"/>
    <g stroke-width=".038994">
     <path d="m200 190z"/>
     <path d="m170 130z"/>
     <path d="m300 250a0.22 0.22 0 0 1 -0.44 0 0.22 0.22 0 1 1 0.44 0z"/>
     <path id="af" d="m190 170a0.22006 0.22006 0 0 1 -0.01 0.44z" stroke="#fff" stroke-miterlimit="0" stroke-width=".038994" fill="#fff"/>
    </g>
    <path stroke-width=".078479" d="m230 170a0.44116 0.44116 0 0 1 -0.51 -0.72 0.44116 0.44116 0 1 1 0.51 0.72z"/>
    <path stroke-width=".07863" d="m180 160a0.44 0.44 0 0 1 0.59 0.65z"/>
   </g>
   <text style="word-spacing:0px;letter-spacing:0px" xml:space="preserve" font-size="40px" y="915.52228" x="440.44522" font-family="Sans" line-height="125%"><tspan y="915.52228" x="440.44522"/></text>
   <text style="word-spacing:0px;letter-spacing:0px" xml:space="preserve" font-size="13px" y="1218.1722" x="336.94339" font-family="&apos;Arial Hebrew&apos;" line-height="125%"><tspan y="1218.1722" x="336.94339"/></text>
   <text style="word-spacing:0px;letter-spacing:0px" xml:space="preserve" font-size="6px" y="1228.4059" x="335.64749" font-family="Krungthep" line-height="125%"><tspan y="1228.4059" x="335.64749"/></text>
   <g stroke="#fff" stroke-miterlimit="0">
    <g fill="#fff">
     <g stroke-width=".038994">
      <path d="m100 230a0.22 0.22 0 0 1 -0.44 0 0.22 0.22 0 1 1 0.44 0z"/>
      <path d="m67 230a0.22 0.22 0 0 1 -0.44 0 0.22 0.22 0 1 1 0.44 0z"/>
      <path d="m56 240a0.22 0.22 0 0 1 -0.44 0 0.22 0.22 0 1 1 0.44 0z"/>
      <path d="m160 260a0.22389 0.22389 0 1 1 0.39 0.22z"/>
      <path d="m69 240a0.22 0.22 0 0 1 -0.44 0 0.22 0.22 0 1 1 0.44 0z"/>
      <path d="m51 170z"/>
      <path d="m97 200z"/>
      <path d="m110 190z"/>
      <path d="m95 230z"/>
      <path d="m180 240a0.22 0.22 0 1 1 0.08 -0.43z"/>
      <path id="h" d="m220 190a0.22 0.22 0 1 1 0.43 0.082z" stroke="#fff" stroke-miterlimit="0" stroke-width=".038994" fill="#fff"/>
      <path d="m160 110a0.22 0.22 0 1 1 0.43 0.082z"/>
      <path id="f" d="m210 210a0.22023 0.22023 0 1 1 0.28 -0.34z" stroke="#fff" stroke-miterlimit="0" stroke-width=".038994" fill="#fff"/>
      <path d="m220 180a0.22 0.22 0 1 1 0.083 -0.43z"/>
      <path id="g" d="m170 190a0.22 0.22 0 1 1 0.083 -0.43z" stroke="#fff" stroke-miterlimit="0" stroke-width=".038994" fill="#fff"/>
      <path id="b" d="m190 130a0.22 0.22 0 1 1 0.083 -0.43z" stroke="#fff" stroke-miterlimit="0" stroke-width=".038994" fill="#fff"/>
      <path d="m150 47z"/>
      <path d="m120 330z"/>
      <path d="m91 280z"/>
     </g>
     <path stroke-width=".076056" d="m90 310z"/>
     <path stroke-width=".078479" d="m83 270z"/>
     <g stroke-width=".038994">
      <path d="m120 280z"/>
      <path d="m430 270z"/>
      <path d="m120 310z"/>
      <path d="m170 280a0.22 0.22 0 0 1 0.36 -0.24 0.22 0.22 0 0 1 -0.36 0.24z"/>
      <path d="m170 300a0.22 0.22 0 0 1 0.36 -0.24 0.22 0.22 0 1 1 -0.36 0.24z"/>
     </g>
     <path stroke-width=".11795" d="m110 240a0.7 0.7 0 0 1 -1.4 0 0.7 0.7 0 1 1 1.4 0z"/>
     <path stroke-width=".076056" d="m81 220a0.38146 0.522 51 0 1 -0.9 0 0.38146 0.522 51 1 1 0.9 0z"/>
     <path stroke-width=".078479" d="m31 210a0.44 0.44 0 1 1 -0.51 0 0.44 0.44 0 0 1 0.51 0z"/>
     <path stroke-width=".11795" d="m70 200a0.7 0.7 0 0 1 -1.4 0 0.7 0.7 0 1 1 1.4 0z"/>
    </g>
    <path stroke-width=".19824" d="m110 72a1.1 1.1 0 0 1 -2.2 0 1.1 1.1 0 1 1 2.2 0z" fill="#d45500"/>
    <g fill="#fff">
     <path stroke-width=".07863" d="m65 150z"/>
     <path stroke-width=".047178" d="m41 38a0.45 0.46 0 0 1 -0.9 0 0.45 0.46 0 1 1 0.9 0z"/>
     <path id="ag" d="m69 120a0.49 0.49 0 1 1 0 -0.9 0.49 0.49 0 0 1 0 0.9z" stroke="#fff" stroke-miterlimit="0" stroke-width=".086493" fill="#fff"/>
     <path stroke-width=".086493" d="m60 100a0.49 0.49 0 1 1 0 -0.9 0.49 0.49 0 0 1 0 0.9z"/>
    </g>
    <path stroke-width=".11512" d="m49 60a0.66 0.66 0 0 1 0 -0.9 0.66 0.66 0 1 1 0 0.9z" fill="#00f"/>
    <g fill="#fff">
     <path stroke-width=".047178" d="m73 48a0.45 0.46 0 0 1 -0.9 0 0.45 0.46 0 1 1 0.9 0z"/>
     <path stroke-width=".095142" d="m90 61a0.54 0.53 45 0 1 0 -0.9 0.54 0.53 45 1 1 0 0.9z"/>
     <path stroke-width=".07863" d="m75 130z"/>
     <path stroke-width=".047178" d="m74 49a0.45 0.46 0 0 1 -0.9 0 0.45 0.46 0 1 1 0.9 0z"/>
     <path stroke-width=".047178" d="m73 50a0.45 0.46 0 0 1 -0.9 0 0.45 0.46 0 1 1 0.9 0z"/>
    </g>
    <path stroke-width=".15653" d="m500.14 249.82a0.91216 0.91216 0 1 1 1.12 -1.44 0.91216 0.91216 0 0 1 -1.12 1.44z" fill="#e3dbdb"/>
    <path stroke-width=".1127" d="m539.88 149.9a0.632 0.632 0 0 1 -1.12 -0.464 0.632 0.632 0 1 1 1.12 0.464z" fill="#fff"/>
    <path stroke-width=".18939" d="m560.1 169.74a1.12 1.12 0 1 1 1.28 -1.76 1.12 1.12 0 0 1 -1.28 1.76z" fill="#fff"/>
    <path id="o" d="m520.14 239.82a0.91216 0.91216 0 1 1 1.12 -1.44 0.91216 0.91216 0 0 1 -1.12 1.44z" stroke="#fff" stroke-miterlimit="0" stroke-width=".15653" fill="#f60"/>
    <path stroke-width=".1127" d="m549.88 149.9a0.632 0.632 0 0 1 -1.12 -0.464 0.632 0.632 0 1 1 1.12 0.464z" fill="#fff"/>
    <path stroke-width=".1127" d="m539.88 149.9a0.632 0.632 0 0 1 -1.12 -0.464 0.632 0.632 0 1 1 1.12 0.464z" fill="#ff0"/>
    <g fill="#fff">
     <g stroke-width=".038994">
      <path d="m440 95a0.22 0.22 0 0 1 -0.44 0 0.22 0.22 0 1 1 0.44 0z"/>
      <path d="m460 70a0.22 0.22 0 0 1 -0.44 0 0.22 0.22 0 1 1 0.44 0z"/>
      <path d="m100 100z"/>
      <path d="m110 110z"/>
      <path d="m130 110z"/>
      <path d="m35 97a0.225 0.225 0 0 1 -0.45 0 0.225 0.225 0 1 1 0.45 0z"/>
      <path d="m400 52a0.22 0.22 0 0 1 -0.44 0 0.22 0.22 0 1 1 0.44 0z"/>
      <path d="m390 62a0.22 0.22 0 0 1 -0.44 0 0.22 0.22 0 1 1 0.44 0z"/>
      <path d="m190 91a0.22 0.22 0 0 1 -0.44 0 0.22 0.22 0 1 1 0.44 0z"/>
      <path d="m420 71z"/>
     </g>
     <path stroke-width=".11795" d="m130 300a0.7 0.7 0 0 1 -1.4 0 0.7 0.7 0 1 1 1.4 0z"/>
     <path stroke-width=".038994" d="m440 79z"/>
     <path stroke-width=".11795" d="m140 220a0.67082 0.68098 63 0 1 -0.6 -1.2 0.67082 0.68098 63 0 1 0.6 1.2z"/>
     <path id="i" d="m150 170a0.5 0.37 24 0 1 0.3 -0.67z" stroke="#fff" stroke-miterlimit="0" stroke-width=".076056" fill="#fff"/>
     <path stroke-width=".11795" d="m160 150a0.67082 0.68098 63 0 1 -0.6 -1.2 0.67082 0.68098 63 1 1 0.6 1.2z"/>
     <path stroke-width=".076056" d="m260 180z"/>
     <path stroke-width=".23589" d="m170 76a1.4 1.4 0 1 1 0 -1.8 1.4 1.4 0 0 1 0 1.8z"/>
     <path stroke-width=".076056" d="m210 140a0.5 0.37 44 0 1 0.51 -0.52z"/>
     <path stroke-width=".038994" d="m260 150z"/>
     <path stroke-width=".038994" d="m210 47z"/>
     <path stroke-width=".064" d="m160 140z"/>
     <path id="j" d="m210 180a0.22 0.22 0 1 1 0.4 -0.17z" stroke="#fff" stroke-miterlimit="0" stroke-width=".038994" fill="#fff"/>
    </g>
    <path stroke-width=".038994" d="m230 110z" fill="url(#p)"/>
    <g fill="#fff">
     <g stroke-width=".038994">
      <path d="m260 53z"/>
      <path d="m240 56z"/>
      <path d="m250 79z"/>
     </g>
     <g stroke-width=".038994">
      <path d="m250 140z"/>
      <path d="m240 130z"/>
      <path d="m240 150a0.22 0.22 0 1 1 0.43 -0.086z"/>
      <path d="m300 67a0.22 0.22 0 1 1 0.43 0.047z"/>
     </g>
     <path stroke-width=".064" d="m230 99a0.43086 0.49098 53 1 1 0 -0.9 0.43086 0.49098 53 0 1 0 0.9z"/>
     <path stroke-width=".11795" d="m260 53a0.67 0.68 53 1 1 0 -0.9 0.67 0.68 53 0 1 0 0.9z"/>
     <path stroke-width=".11795" d="m73 94a0.68 0.67 19 0 1 0 -0.9 0.68 0.67 19 0 1 0 0.9z"/>
     <path stroke-width=".076056" d="m270 120a0.37 0.5 59 1 1 0.38 0.63z"/>
     <path stroke-width=".19658" d="m380 31a1.1236 1.1236 0 1 1 2.1 -0.8 1.1236 1.1236 0 0 1 -2.1 0.8z"/>
     <path stroke-width=".038994" d="m240 83z"/>
     <path stroke-width=".076056" d="m330 130a0.5 0.37 14 0 1 0.18 -0.71 0.5 0.37 14 1 1 -0.18 0.71z"/>
     <path stroke-width=".038994" d="m310 110z"/>
     <path stroke-width=".038994" d="m280 68z"/>
     <path stroke-width=".076056" d="m360 140a0.5 0.37 14 0 1 0.18 -0.71 0.5 0.37 14 1 1 -0.18 0.71z"/>
     <path stroke-width=".038994" d="m350 150a0.22 0.22 0 0 1 0.06 0.43z"/>
     <path stroke-width=".078479" d="m570 230a0.44522 0.44522 0 1 1 -0.48 0.75z"/>
     <path stroke-width=".078479" d="m280 61a0.45 0.45 0 1 1 0 -0.9 0.45 0.45 0 0 1 0 0.9z"/>
     <path stroke-width=".07863" d="m340 150a0.44119 0.44119 0 1 1 0.69 0.55z"/>
     <g stroke-width=".038994">
      <path d="m350 99z"/>
      <path d="m320 70z"/>
      <path d="m300 68z"/>
      <path d="m590 190a0.22 0.22 0 1 1 0.06 0.43z"/>
      <path d="m310 82z"/>
      <path d="m360 77z"/>
      <path d="m330 170a0.22142 0.22142 0 1 1 0.4 -0.19z"/>
      <path d="m340 92z"/>
      <path d="m230 74z"/>
      <path d="m290 120z"/>
     </g>
     <path stroke-width=".076056" d="m260 140a0.5 0.37 60 0 1 0.63 -0.36 0.5 0.37 60 1 1 -0.63 0.36z"/>
     <path stroke-width=".078479" d="m290 110z"/>
     <g stroke-width=".038994">
      <path d="m310 150a0.22 0.22 0 0 1 0.068 -0.43z"/>
      <path d="m300 140a0.22 0.22 0 0 1 0.068 -0.43z"/>
      <path d="m290 150a0.22 0.22 0 1 1 0.41 0.14z"/>
      <path d="m580 210a0.22 0.22 0 0 1 0.41 0.14z"/>
      <path d="m380 260a0.22 0.22 0 1 1 0.41 0.14z"/>
     </g>
     <path stroke-width=".076056" d="m340 72a0.61504 0.44364 14 1 1 0 -0.9 0.61504 0.44364 14 0 1 0 0.9z"/>
     <path stroke-width=".078479" d="m310 29a0.44 0.44 0 0 1 0 -0.85 0.44 0.44 0 1 1 0 0.85z"/>
     <path stroke-width=".11795" d="m320 91a0.67 0.68 53 1 1 0 -0.9 0.67 0.68 53 0 1 0 0.9z"/>
     <path stroke-width=".11795" d="m350 56a0.67 0.68 53 1 1 0 -0.9 0.67 0.68 53 0 1 0 0.9z"/>
     <path stroke-width=".07863" d="m490 62a0.45 0.45 0 0 1 0 0.9 0.45 0.45 0 1 1 0 -0.9z"/>
     <path stroke-width=".15726" d="m470 72z"/>
     <path stroke-width=".19658" d="m440 41z"/>
     <path stroke-width=".11795" d="m490 36a0.68 0.68 38 1 1 0 -1.1 0.68 0.68 38 0 1 0 1.1z"/>
     <path stroke-width=".11795" d="m510 86a0.68 0.68 68 0 1 0 -0.9 0.68 0.68 68 1 1 0 0.9z"/>
     <path stroke-width=".076056" d="m530 71a0.37 0.5 18 0 1 0.69 0.23z"/>
     <path stroke-width=".11795" d="m520 140a0.67498 0.66491 12 1 1 0.28 -1.3 0.67498 0.66491 12 0 1 -0.28 1.3z"/>
     <path stroke-width=".064" d="m570 77a0.5 0.44 28 1 1 0 -0.9 0.5 0.44 28 0 1 0 0.9z"/>
     <path stroke-width=".078479" d="m140 390a0.44119 0.44119 0 0 1 0.69 -0.55z"/>
     <g stroke-width=".076056">
      <path d="m120 500a0.5 0.37 51 1 1 0.58 -0.45 0.5 0.37 51 0 1 -0.58 0.45z"/>
      <path d="m81 410a0.56 0.41 51 1 1 0.9 0 0.56 0.41 51 0 1 -0.9 0z"/>
      <path d="m85 550a0.38 0.52 52 0 1 -0.9 0 0.38 0.52 52 1 1 0.9 0z"/>
     </g>
     <path stroke-width=".078479" d="m58 510a0.45 0.45 0 0 1 -0.9 0 0.45 0.45 0 1 1 0.9 0z"/>
     <path stroke-width=".038994" d="m130 430a0.22 0.22 0 0 1 0.43 0.082z"/>
     <path stroke-width=".038994" d="m150 550a0.22023 0.22023 0 0 1 0.34 0.28z"/>
     <path stroke-width=".076056" d="m45 430a0.37 0.5 6.6 1 1 0.73 0.09 0.45 0.61 6.6 0 1 -0.9 0z"/>
     <path stroke-width=".11795" d="m110 450z"/>
     <path stroke-width=".15726" d="m170 530a0.89022 0.89022 0 0 1 -1.4 -1.1 0.89022 0.89022 0 1 1 1.4 1.1z"/>
     <path stroke-width=".076056" d="m140 420a0.5 0.37 51 1 1 0.58 -0.45 0.5 0.37 51 0 1 -0.58 0.45z"/>
     <path stroke-width=".076056" d="m180 500a0.37 0.5 24 1 1 0.67 0.31z"/>
     <path stroke-width=".064" d="m220 500a0.39 0.34 23 0 1 0.26 -0.62z"/>
     <path stroke-width=".038994" d="m170 550a0.22 0.22 0 1 1 0.17 0.4z"/>
     <path stroke-width=".076056" d="m430 69a0.37 0.5 5.3 1 1 0.73 0.075z"/>
     <path stroke-width=".076056" d="m450 110a0.41 0.56 51 1 1 0 -0.9 0.41 0.56 51 0 1 0 0.9z"/>
     <path stroke-width=".038994" d="m440 38a0.22 0.22 0 0 1 -0.44 0 0.22 0.22 0 1 1 0.44 0z"/>
     <path stroke-width=".076056" d="m400 140z"/>
     <g stroke-width=".038994">
      <path d="m480 110a0.22 0.22 0 0 1 -0.44 0 0.22 0.22 0 1 1 0.44 0z"/>
      <path d="m400 150a0.22 0.22 0 0 1 -0.44 0 0.22 0.22 0 1 1 0.44 0z"/>
      <path d="m390 160a0.22 0.22 0 0 1 -0.44 0 0.22 0.22 0 1 1 0.44 0z"/>
      <path d="m350 310a0.22 0.22 0 0 1 -0.44 0 0.22 0.22 0 1 1 0.44 0z"/>
      <path d="m430 150a0.22 0.22 0 1 1 0.08 -0.43z"/>
     </g>
     <path stroke-width=".038994" d="m420 200z"/>
     <path stroke-width=".076056" d="m440 88a0.61 0.45 6.3 1 1 0 -0.9 0.61 0.45 6.3 0 1 0 0.9z"/>
     <path stroke-width=".078479" d="m420 140a0.44142 0.44142 0 0 1 0.15 -0.87z"/>
     <path stroke-width=".038994" d="m450 200z"/>
     <path stroke-width=".038994" d="m460 57z"/>
     <path stroke-width=".11795" d="m440 130a0.7 0.7 0 0 1 -1.4 0 0.7 0.7 0 1 1 1.4 0z"/>
     <path stroke-width=".076056" d="m200 420z"/>
     <path stroke-width=".038994" d="m220 440a0.22 0.22 0 0 1 -0.36 0.25 0.22 0.22 0 1 1 0.36 -0.25z"/>
     <path stroke-width=".076056" d="m250 460z"/>
     <g stroke-width=".038994">
      <path d="m190 460a0.22 0.22 0 0 1 -0.36 0.25 0.22 0.22 0 1 1 0.36 -0.25z"/>
      <path d="m210 490a0.22 0.22 0 0 1 -0.36 0.25 0.22 0.22 0 1 1 0.36 -0.25z"/>
      <path d="m230 490a0.22 0.22 0 0 1 -0.36 0.25 0.22 0.22 0 1 1 0.36 -0.25z"/>
      <path d="m230 470a0.22 0.22 0 0 1 -0.36 0.25 0.22 0.22 0 1 1 0.36 -0.25z"/>
      <path d="m190 460a0.22 0.22 0 1 1 -0.18 -0.4 0.22 0.22 0 0 1 0.18 0.4z"/>
      <path d="m250 430z"/>
     </g>
     <path stroke-width=".076056" d="m260 420z"/>
     <path stroke-width=".078479" d="m240 440z"/>
     <path stroke-width=".038994" d="m220 410z"/>
     <path stroke-width=".038994" d="m230 420z"/>
     <path stroke-width=".11795" d="m210 460a0.68 0.67 55 0 1 -1.1 0.76 0.68 0.67 55 1 1 1.1 -0.76z"/>
    </g>
   </g>
   <rect stroke-linejoin="round" transform="matrix(.73599 0 0 .78186 104.88 275.68)" clip-path="url(#ac)" ry="13" height="26" width="45" stroke="#000" y="1200" x="430" stroke-width=".5"/>
   <g stroke="#fff" stroke-miterlimit="0">
    <path stroke-width=".19824" d="m260 110a1.1 1.1 0 0 1 -2.2 0 1.1 1.1 0 1 1 2.2 0z" fill="#d45500"/>
    <path stroke-width=".11512" d="m250 61a0.66 0.66 0 0 1 0 -0.9 0.66 0.66 0 1 1 0 0.9z" fill="#00f"/>
    <g fill="#fff">
     <path stroke-width=".038994" d="m55 100z"/>
     <path stroke-width=".038994" d="m64 130z"/>
     <path stroke-width=".064" d="m53 150z"/>
     <path stroke-width=".076056" d="m67 130z"/>
     <path stroke-width=".038994" d="m57 130z"/>
     <path stroke-width=".038994" d="m52 120z"/>
    </g>
   </g>
   <g transform="matrix(.8 0 0 .8 105.17 44.034)" fill="#f60">
    <use id="aj" xlink:href="#o" transform="translate(6.9121,-18.11)" height="580" width="600" y="0" x="0" fill="#ff6600"/>
    <use xlink:href="#aj" transform="translate(-6.2209,1.2442)" height="580" width="600" y="0" x="0"/>
    <use xlink:href="#o" transform="matrix(.66085 0 0 .71737 186.66 46.24)" height="580" width="600" y="0" x="0"/>
   </g>
   <path d="m520.19 159.74a1.2881 1.2881 0 0 1 1.52 -2.08 1.2881 1.2881 0 1 1 -1.52 2.08z" stroke="#fff" stroke-miterlimit="0" stroke-width=".22506" fill="#fff"/>
   <path d="m540.23 259.69a1.544 1.544 0 1 1 1.84 -2.48 1.544 1.544 0 0 1 -1.84 2.48z" stroke="#fff" stroke-miterlimit="0" stroke-width=".27047" fill="#e3dbdb"/>
   <use xlink:href="#ad" transform="translate(46.726,-188.56)" height="580" width="600" y="0" x="0"/>
   <use xlink:href="#ae" transform="translate(46.726,-188.56)" height="580" width="600" y="0" x="0"/>
   <use xlink:href="#ag" transform="translate(88.147,-15.022)" height="580" width="600" y="0" x="0"/>
   <path d="m180 14a0.45 0.45 0 0 1 -0.9 0 0.45 0.45 0 1 1 0.9 0z" stroke="#fff" stroke-miterlimit="0" stroke-width=".078479" fill="#fff"/>
   <path d="m260 50a0.38146 0.522 51 0 1 -0.9 0 0.38146 0.522 51 1 1 0.9 0z" stroke="#fff" stroke-miterlimit="0" stroke-width=".076056" fill="#fff"/>
   <use xlink:href="#af" transform="translate(-128.29,-71.056)" height="580" width="600" y="0" x="0"/>
   <use xlink:href="#h" transform="translate(-128.29,-71.056)" height="580" width="600" y="0" x="0"/>
   <use xlink:href="#f" transform="translate(-128.29,-71.056)" height="580" width="600" y="0" x="0"/>
   <use xlink:href="#g" transform="translate(-128.29,-71.056)" height="580" width="600" y="0" x="0"/>
   <use xlink:href="#b" transform="translate(-128.29,-71.056)" height="580" width="600" y="0" x="0"/>
   <use xlink:href="#i" transform="translate(-128.29,-71.056)" height="580" width="600" y="0" x="0"/>
   <use xlink:href="#j" transform="translate(-128.29,-71.056)" height="580" width="600" y="0" x="0"/>
   <g stroke="#fff" stroke-miterlimit="0" fill="#fff">
    <path stroke-width=".038994" d="m130 92a0.22 0.22 0 0 1 0.43 0.059z"/>
    <path stroke-width=".038994" d="m39 170a0.22006 0.22006 0 0 1 -0.0099 0.44z"/>
    <path stroke-width=".07863" d="m30 160a0.44 0.44 0 0 1 0.59 0.65z"/>
    <path stroke-width=".038994" d="m57 210a0.22023 0.22023 0 1 1 0.28 -0.34z"/>
    <path stroke-width=".038994" d="m66 180a0.22 0.22 0 1 1 0.083 -0.43z"/>
    <path stroke-width=".076056" d="m57 140a0.5 0.37 44 0 1 0.51 -0.52z"/>
    <g stroke-width=".038994">
     <path d="m57 180a0.22 0.22 0 0 1 0.4 -0.17z"/>
     <path d="m84 150a0.22 0.22 0 1 1 0.43 -0.086z"/>
     <path d="m340 35a0.22006 0.22006 0 0 1 -0.01 0.44z"/>
    </g>
    <path stroke-width=".07863" d="m330 26a0.44 0.44 0 0 1 0.59 0.65z"/>
    <g stroke-width=".038994">
     <path d="m350 71a0.22023 0.22023 0 1 1 0.28 -0.34z"/>
     <path d="m360 44a0.22 0.22 0 1 1 0.083 -0.43z"/>
     <path d="m350 44a0.22 0.22 0 0 1 0.4 -0.17z"/>
     <path d="m380 17a0.22 0.22 0 1 1 0.43 -0.086z"/>
     <path d="m530 29a0.225 0.225 0 0 1 -0.45 0 0.225 0.225 0 1 1 0.45 0z"/>
    </g>
    <path stroke-width=".11795" d="m570 26a0.68 0.67 19 0 1 0 -0.9 0.68 0.67 19 0 1 0 0.9z"/>
   </g>
   <use xlink:href="#h" transform="translate(363.3,-138.52)" height="580" width="600" y="0" x="0"/>
   <use xlink:href="#f" transform="translate(363.3,-138.52)" height="580" width="600" y="0" x="0"/>
   <use xlink:href="#g" transform="translate(363.3,-138.52)" height="580" width="600" y="0" x="0"/>
   <use xlink:href="#i" transform="translate(363.3,-138.52)" height="580" width="600" y="0" x="0"/>
   <use xlink:href="#j" transform="translate(363.3,-138.52)" height="580" width="600" y="0" x="0"/>
   <g stroke="#fff" stroke-miterlimit="0" fill="#fff">
    <path stroke-width=".038994" d="m530 110a0.22006 0.22006 0 0 1 -0.01 0.44z"/>
    <path stroke-width=".07863" d="m520 96a0.44 0.44 0 0 1 0.59 0.65z"/>
    <g stroke-width=".038994">
     <path d="m560 110a0.22 0.22 0 0 1 0.083 -0.43z"/>
     <path d="m550 110a0.22 0.22 0 1 1 0.4 -0.17z"/>
     <path d="m580 87a0.22 0.22 0 1 1 0.43 -0.086z"/>
     <path d="m460 160a0.22 0.22 0 0 1 -0.44 0 0.22 0.22 0 1 1 0.44 0z"/>
     <path d="m440 130a0.22 0.22 0 0 1 -0.44 0 0.22 0.22 0 1 1 0.44 0z"/>
    </g>
   </g>
   <use xlink:href="#h" transform="matrix(.8 0 0 .8 407.34 -10.53)" height="580" width="600" y="0" x="0"/>
   <use xlink:href="#f" transform="matrix(.8 0 0 .8 405.32 -6.5579)" height="580" width="600" y="0" x="0"/>
   <use xlink:href="#g" transform="matrix(.8 0 0 .8 397.29 -10.562)" height="580" width="600" y="0" x="0"/>
   <use xlink:href="#i" transform="translate(363.3,-48.518)" height="580" width="600" y="0" x="0"/>
   <g stroke="#fff" stroke-miterlimit="0" fill="#fff">
    <path stroke-width=".038994" d="m530 200a0.22006 0.22006 0 0 1 -0.01 0.44z"/>
    <path stroke-width=".078479" d="m200 240a0.44522 0.44522 0 1 1 -0.48 0.75z"/>
    <path stroke-width=".038994" d="m220 190a0.22 0.22 0 1 1 0.06 0.43z"/>
    <path stroke-width=".038994" d="m200 210a0.22142 0.22142 0 0 1 0.4 -0.19z"/>
   </g>
   <g stroke="#fff" stroke-width=".038994" stroke-miterlimit="0" fill="#fff">
    <path d="m157 322a0.22 0.22 0 0 1 -0.44 0 0.22 0.22 0 1 1 0.44 0z"/>
    <path d="m106 312a0.22 0.22 0 0 1 -0.44 0 0.22 0.22 0 1 1 0.44 0z"/>
    <path d="m127 292a0.22 0.22 0 0 1 -0.44 0 0.22 0.22 0 1 1 0.44 0z"/>
    <path d="m116 302a0.22 0.22 0 0 1 -0.44 0 0.22 0.22 0 1 1 0.44 0z"/>
    <path d="m95 159a0.225 0.225 0 0 1 -0.45 0 0.225 0.225 0 1 1 0.45 0z"/>
   </g>
   <use xlink:href="#f" transform="translate(-68.288,-9.0561)" height="580" width="600" y="0" x="0"/>
   <use xlink:href="#g" transform="translate(-68.288,-9.0561)" height="580" width="600" y="0" x="0"/>
   <use xlink:href="#b" transform="translate(-68.288,-9.0561)" height="580" width="600" y="0" x="0"/>
   <use xlink:href="#j" transform="translate(-74.288,-9.0561)" height="580" width="600" y="0" x="0"/>
   <g stroke="#fff" stroke-miterlimit="0" fill="#fff">
    <g stroke-width=".038994">
     <path d="m190 154a0.22 0.22 0 0 1 0.43 0.059z"/>
     <path d="m117 272a0.22023 0.22023 0 1 1 0.28 -0.34z"/>
     <path d="m117 242a0.22 0.22 0 0 1 0.4 -0.17z"/>
     <path d="m144 212a0.22 0.22 0 1 1 0.43 -0.086z"/>
    </g>
    <path stroke-width=".07863" d="m216 90a0.44 0.44 0 0 1 0.59 0.65z"/>
    <g stroke-width=".038994">
     <path d="m136 160a0.22 0.22 0 0 1 -0.44 0 0.22 0.22 0 1 1 0.44 0z"/>
     <path d="m196 190a0.22389 0.22389 0 0 1 0.39 0.22z"/>
     <path d="m216 170a0.22 0.22 0 1 1 0.08 -0.43z"/>
     <path d="m206 120a0.22 0.22 0 1 1 0.083 -0.43z"/>
    </g>
    <path stroke-width=".076056" d="m186 100a0.5 0.37 24 0 1 0.3 -0.67z"/>
    <path stroke-width=".11795" d="m109 24a0.68 0.67 19 0 1 0 -0.9 0.68 0.67 19 0 1 0 0.9z"/>
    <path stroke-width=".038994" d="m120 80a0.22 0.22 0 1 1 0.43 -0.086z"/>
    <path stroke-width=".038994" d="m256 120a0.22 0.22 0 1 1 0.06 0.43z"/>
   </g>
   <use xlink:href="#b" transform="translate(-32.288,-79.056)" height="580" width="600" y="0" x="0"/>
   <g stroke="#fff" stroke-miterlimit="0" fill="#fff">
    <path stroke-width=".038994" d="m153 172a0.22 0.22 0 0 1 0.4 -0.17z"/>
    <path stroke-width=".07863" d="m355.36 183.08a0.44 0.44 0 0 1 0.3111 0.82086z"/>
    <g stroke-width=".038994">
     <path d="m255.29 218.94a0.22006 0.22006 0 1 1 -0.41 -0.16 0.22006 0.22006 0 0 1 0.41 0.16z"/>
     <path d="m300.14 268.82a0.22389 0.22389 0 0 1 0.28238 0.34751z"/>
     <path d="m326.08 257.53a0.22 0.22 0 1 1 0.23186 -0.37087z"/>
     <path d="m335.07 207.34a0.22 0.22 0 1 1 0.23465 -0.36977z"/>
    </g>
    <path stroke-width=".076056" d="m323.78 181.4a0.5 0.37 45.473 0 1 0.52444 -0.51366z"/>
    <path stroke-width=".11795" d="m279.95 82.492a0.68 0.67 40.473 0 1 0.33 -0.838 0.68 0.67 40.473 0 1 -0.33 0.838z"/>
    <path stroke-width=".038994" d="m269.69 138.63a0.22 0.22 0 1 1 0.43163 0.0774z"/>
    <path stroke-width=".038994" d="m381.6 225.64a0.22 0.22 0 1 1 -0.10158 0.42212z"/>
   </g>
   <use xlink:href="#b" transform="matrix(.93059 .36607 -.36607 .93059 186.19 -65.132)" height="580" width="600" y="0" x="0"/>
   <g stroke="#fff" stroke-miterlimit="0" fill="#fff">
    <path stroke-width=".038994" d="m266.72 236.33a0.22 0.22 0 0 1 0.43447 -0.0118z"/>
    <path stroke-width=".07863" d="m113.04 148.02a0.44 0.44 0 0 1 -0.12435 0.86898z"/>
    <g stroke-width=".038994">
     <path d="m8.0974 131.04a0.22 0.22 0 0 1 -0.2806 -0.33 0.22 0.22 0 1 1 0.2806 0.33z"/>
     <path d="m23.258 196.39a0.22389 0.22389 0 1 1 0.0793 0.4407z"/>
     <path d="m51.418 199.04a0.22 0.22 0 1 1 0.38222 -0.21263z"/>
     <path d="m83.551 159.45a0.22 0.22 0 1 1 0.38413 -0.21032z"/>
    </g>
    <path stroke-width=".076056" d="m86.2 131.29a0.5 0.37 74.373 0 1 0.70737 -0.19624z"/>
    <path stroke-width=".11795" d="m95.626 23.509a0.68 0.67 69.373 0 1 0.693 -0.574 0.68 0.67 69.373 0 1 -0.693 0.574z"/>
    <path stroke-width=".038994" d="m59.51 67.698a0.22 0.22 0 1 1 0.34048 0.27636z"/>
    <path stroke-width=".038994" d="m115.44 197.96a0.22 0.22 0 1 1 -0.29293 0.32046z"/>
   </g>
   <use xlink:href="#b" transform="matrix(.63779 .77021 -.77021 .63779 84.889 -151.04)" height="580" width="600" y="0" x="0"/>
   <g stroke="#fff" stroke-width=".038994" stroke-miterlimit="0" fill="#fff">
    <path d="m9.6973 151.79a0.22 0.22 0 0 1 0.38607 0.19964z"/>
    <path d="m264 138a0.22 0.22 0 0 1 -0.0009 0.44z"/>
    <path d="m204 48a0.22006 0.22006 0 0 1 -0.01 0.44z"/>
    <path d="m174 138a0.22389 0.22389 0 0 1 0.39 0.22z"/>
    <path d="m194 118a0.22 0.22 0 1 1 0.08 -0.43z"/>
    <path d="m224 88a0.22023 0.22023 0 1 1 0.28 -0.34z"/>
    <path d="m234 58a0.22 0.22 0 1 1 0.083 -0.43z"/>
    <path d="m184 68a0.22 0.22 0 1 1 0.083 -0.43z"/>
    <path d="m204 8a0.22 0.22 0 1 1 0.083 -0.43z"/>
    <path d="m214 88a0.22142 0.22142 0 1 1 0.4 -0.19z"/>
    <path d="m204 32a0.22 0.22 0 0 1 0.43 0.059z"/>
    <path d="m210 68a0.22389 0.22389 0 0 1 0.39 0.22z"/>
    <path d="m230 48a0.22 0.22 0 1 1 0.08 -0.43z"/>
    <path d="m167 50a0.22 0.22 0 0 1 0.4 -0.17z"/>
   </g>
  </g>
 </g>
 <g transform="translate(20.087 49.617)">
  <g transform="translate(0,-502.36)">
   <g transform="matrix(.99999 0 0 .99999 2.8372 503.25)">
    <g transform="translate(-31.739 357.03)">
     <circle opacity=".91575" transform="matrix(.67742 .10579 .10515 -.67332 274.1 240.63)" stroke="#72f9ff" filter="url(#aq)" cy="65.54" cx="64.171" r="63.144" fill="#0cf"/>
     <g transform="matrix(.87598 .12426 -.14258 1.0051 -516.09 -522.18)">
      <path fill="url(#u)" d="m1043.7 545.84v4.295h-2.1475v31.353h-2.577v-18.468h-10.308v9.8784h-1.5033v-22.978h-9.449v16.106h-2.7917v6.8719h-0.2148v8.5899l-3.4552-0.63542c0.8856 5.5828-0.9094 5.2953 1.0363 9.4678l-1.2366 5.6802 77.283-2.9225 5.8421 0.0445 3.175-0.36596-0.6108-28.878h-5.5836v-16.536h-3.6507v16.536h-1.7179v17.18h-1.718v-17.395h-6.2278v-7.6302l-10.737-3.5367v6.4424h-9.0195v14.603h-4.9392v-23.408h-1.718v-4.295z"/>
     </g>
     <g transform="matrix(.084872 .013254 -.013254 .084872 325.7 102.82)">
      <rect fill-rule="evenodd" height="600" width="140" y="282.36" x="55" fill="#4cc6b9"/>
      <g transform="matrix(.83333 0 0 .83333 21.489 56.217)">
       <path fill="#ff0" d="m64.213 354.37h13.948v25h-13.948v-25z"/>
       <g fill="#c7c738">
        <path d="m64.213 354.37h13.948v25h-13.948v-25z"/>
        <path d="m85.423 354.37h13.948v25h-13.948v-25z"/>
        <path d="m106.63 354.37h13.948v25h-13.948v-25z"/>
        <path d="m127.84 354.37h13.948v25h-13.948v-25z"/>
        <path d="m149.05 354.37h13.948v25h-13.948v-25z"/>
        <path d="m170.26 354.37h13.948v25h-13.948v-25z"/>
       </g>
      </g>
      <g transform="matrix(.83333 0 0 .83333 21.489 86.217)">
       <path fill="#ff0" d="m64.213 354.37h13.948v25h-13.948v-25z"/>
       <path fill="#987a00" d="m64.213 354.37h13.948v25h-13.948v-25z"/>
       <g fill="#e1a600">
        <path d="m85.423 354.37h13.948v25h-13.948v-25z"/>
        <path d="m106.63 354.37h13.948v25h-13.948v-25z"/>
        <path d="m127.84 354.37h13.948v25h-13.948v-25z"/>
        <path d="m149.05 354.37h13.948v25h-13.948v-25z"/>
       </g>
       <path fill="#987a00" d="m170.26 354.37h13.948v25h-13.948v-25z"/>
      </g>
      <g transform="matrix(.83333 0 0 .83333 21.489 116.22)">
       <path fill="#ff0" d="m64.213 354.37h13.948v25h-13.948v-25z"/>
       <path fill="#987a00" d="m64.213 354.37h13.948v25h-13.948v-25z"/>
       <g fill="#e1a600">
        <path d="m85.423 354.37h13.948v25h-13.948v-25z"/>
        <path d="m106.63 354.37h13.948v25h-13.948v-25z"/>
        <path d="m127.84 354.37h13.948v25h-13.948v-25z"/>
        <path d="m149.05 354.37h13.948v25h-13.948v-25z"/>
       </g>
       <path fill="#987a00" d="m170.26 354.37h13.948v25h-13.948v-25z"/>
      </g>
      <g transform="matrix(.83333 0 0 .83333 21.489 146.22)">
       <path fill="#ff0" d="m64.213 354.37h13.948v25h-13.948v-25z"/>
       <path fill="#987a00" d="m64.213 354.37h13.948v25h-13.948v-25z"/>
       <path fill="#e1a600" d="m85.423 354.37h13.948v25h-13.948v-25z"/>
       <path fill="#e1a600" d="m106.63 354.37h13.948v25h-13.948v-25z"/>
       <path fill="#987a00" d="m127.84 354.37h13.948v25h-13.948v-25z"/>
       <path fill="#dc9f32" d="m149.05 354.37h13.948v25h-13.948v-25z"/>
       <path fill="#987a00" d="m170.26 354.37h13.948v25h-13.948v-25z"/>
      </g>
      <g transform="matrix(.83333 0 0 .83333 21.489 176.22)">
       <path fill="#ff0" d="m64.213 354.37h13.948v25h-13.948v-25z"/>
       <path fill="#987a00" d="m64.213 354.37h13.948v25h-13.948v-25z"/>
       <path fill="#e1a600" d="m85.423 354.37h13.948v25h-13.948v-25z"/>
       <path fill="#e1a600" d="m106.63 354.37h13.948v25h-13.948v-25z"/>
       <path fill="#dc9f32" d="m127.84 354.37h13.948v25h-13.948v-25z"/>
       <path fill="#dc9f32" d="m149.05 354.37h13.948v25h-13.948v-25z"/>
       <path fill="#987a00" d="m170.26 354.37h13.948v25h-13.948v-25z"/>
      </g>
      <g transform="matrix(.83333 0 0 .83333 21.489 206.22)">
       <path fill="#ff0" d="m64.213 354.37h13.948v25h-13.948v-25z"/>
       <path fill="#987a00" d="m64.213 354.37h13.948v25h-13.948v-25z"/>
       <path fill="#dc9f32" d="m106.63 354.37h13.948v25h-13.948v-25z"/>
       <path fill="#987a00" d="m127.84 354.37h13.948v25h-13.948v-25z"/>
       <path fill="#dc9f32" d="m149.05 354.37h13.948v25h-13.948v-25z"/>
       <path fill="#987a00" d="m170.26 354.37h13.948v25h-13.948v-25z"/>
      </g>
      <g transform="matrix(.83333 0 0 .83333 21.489 236.22)">
       <path fill="#ff0" d="m64.213 354.37h13.948v25h-13.948v-25z"/>
       <path fill="#987a00" d="m64.213 354.37h13.948v25h-13.948v-25z"/>
       <path fill="#987a00" d="m106.63 354.37h13.948v25h-13.948v-25z"/>
       <path fill="#dc9f32" d="m127.84 354.37h13.948v25h-13.948v-25z"/>
       <path fill="#dc9f32" d="m149.05 354.37h13.948v25h-13.948v-25z"/>
      </g>
      <g transform="matrix(.83333 0 0 .83333 21.489 266.22)">
       <path fill="#ff0" d="m64.213 354.37h13.948v25h-13.948v-25z"/>
       <g fill="#987a00">
        <path d="m64.213 354.37h13.948v25h-13.948v-25z"/>
        <path d="m106.63 354.37h13.948v25h-13.948v-25z"/>
        <path d="m127.84 354.37h13.948v25h-13.948v-25z"/>
        <path d="m149.05 354.37h13.948v25h-13.948v-25z"/>
       </g>
      </g>
      <g transform="matrix(.83333 0 0 .83333 21.489 296.22)">
       <path fill="#ff0" d="m64.213 354.37h13.948v25h-13.948v-25z"/>
       <path fill="#987a00" d="m64.213 354.37h13.948v25h-13.948v-25z"/>
      </g>
      <g transform="matrix(.83333 0 0 .83333 21.489 326.22)">
       <path fill="#ff0" d="m64.213 354.37h13.948v25h-13.948v-25z"/>
       <path fill="#987a00" d="m64.213 354.37h13.948v25h-13.948v-25z"/>
       <path fill="#987a00" d="m106.63 354.37h13.948v25h-13.948v-25z"/>
       <path fill="#dc9f32" d="m149.05 354.37h13.948v25h-13.948v-25z"/>
      </g>
      <g transform="matrix(.83333 0 0 .83333 21.489 356.22)">
       <path fill="#ff0" d="m64.213 354.37h13.948v25h-13.948v-25z"/>
       <path fill="#987a00" d="m64.213 354.37h13.948v25h-13.948v-25z"/>
       <path fill="#987a00" d="m127.84 354.37h13.948v25h-13.948v-25z"/>
       <path fill="#dc9f32" d="m149.05 354.37h13.948v25h-13.948v-25z"/>
      </g>
      <g transform="matrix(.83333 0 0 .83333 21.489 386.22)">
       <path fill="#ff0" d="m64.213 354.37h13.948v25h-13.948v-25z"/>
       <path fill="#987a00" d="m64.213 354.37h13.948v25h-13.948v-25z"/>
       <path fill="#dc9f32" d="m149.05 354.37h13.948v25h-13.948v-25z"/>
      </g>
      <g transform="matrix(.83333 0 0 .83333 21.489 416.22)">
       <path fill="#ff0" d="m64.213 354.37h13.948v25h-13.948v-25z"/>
       <path fill="#987a00" d="m64.213 354.37h13.948v25h-13.948v-25z"/>
       <path fill="#987a00" d="m106.63 354.37h13.948v25h-13.948v-25z"/>
       <g fill="#dc9f32">
        <path transform="translate(-1.5206e-5,-36)" d="m127.84 354.37h13.948v25h-13.948v-25z"/>
        <path transform="translate(5.0943e-5,-252)" d="m85.423 354.37h13.948v25h-13.948v-25z"/>
        <path transform="translate(1.3322e-5,-216)" d="m85.423 354.37h13.948v25h-13.948v-25z"/>
        <path transform="translate(1.3322e-5,-216)" d="m170.26 354.37h13.948v25h-13.948v-25z"/>
        <path transform="translate(-2.43e-5,-180)" d="m85.423 354.37h13.948v25h-13.948v-25z"/>
        <path transform="translate(-2.43e-5,-180)" d="m170.26 354.37h13.948v25h-13.948v-25z"/>
        <path transform="translate(-6.1921e-5,-144)" d="m85.423 354.37h13.948v25h-13.948v-25z"/>
        <path transform="translate(-6.1921e-5,-144)" d="m106.63 354.37h13.948v25h-13.948v-25z"/>
        <path transform="translate(-6.1921e-5,-144)" d="m127.84 354.37h13.948v25h-13.948v-25z"/>
        <path transform="translate(-6.1921e-5,-144)" d="m149.05 354.37h13.948v25h-13.948v-25z"/>
        <path transform="translate(-6.1921e-5,-144)" d="m170.26 354.37h13.948v25h-13.948v-25z"/>
        <path transform="translate(6.0038e-5,-108)" d="m85.423 354.37h13.948v25h-13.948v-25z"/>
        <path transform="translate(6.0038e-5,-108)" d="m127.84 354.37h13.948v25h-13.948v-25z"/>
        <path transform="translate(6.0038e-5,-108)" d="m170.26 354.37h13.948v25h-13.948v-25z"/>
        <path transform="translate(2.2416e-5,-72)" d="m85.423 354.37h13.948v25h-13.948v-25z"/>
        <path transform="translate(2.2416e-5,-72)" d="m106.63 354.37h13.948v25h-13.948v-25z"/>
        <path transform="translate(2.2416e-5,-72)" d="m170.26 354.37h13.948v25h-13.948v-25z"/>
        <path transform="translate(-1.5206e-5,-36)" d="m85.423 354.37h13.948v25h-13.948v-25z"/>
        <path transform="translate(-1.5206e-5,-36)" d="m106.63 354.37h13.948v25h-13.948v-25z"/>
        <path transform="translate(-1.5206e-5,-36)" d="m170.26 354.37h13.948v25h-13.948v-25z"/>
        <path d="m85.423 354.37h13.948v25h-13.948v-25z"/>
        <path d="m127.84 354.37h13.948v25h-13.948v-25z"/>
       </g>
       <path fill="#dc9f32" d="m149.05 354.37h13.948v25h-13.948v-25z"/>
       <path fill="#987a00" d="m170.26 354.37h13.948v25h-13.948v-25z"/>
      </g>
      <g transform="matrix(.83333 0 0 .83333 21.489 446.22)">
       <path fill="#ff0" d="m64.213 354.37h13.948v25h-13.948v-25z"/>
       <path fill="#987a00" d="m64.213 354.37h13.948v25h-13.948v-25z"/>
       <path fill="#987a00" d="m85.423 354.37h13.948v25h-13.948v-25z"/>
       <g fill="#dc9f32">
        <path d="m106.63 354.37h13.948v25h-13.948v-25z"/>
        <path d="m127.84 354.37h13.948v25h-13.948v-25z"/>
        <path d="m149.05 354.37h13.948v25h-13.948v-25z"/>
       </g>
       <path fill="#987a00" d="m170.26 354.37h13.948v25h-13.948v-25z"/>
      </g>
      <g transform="matrix(.83333 0 0 .83333 21.489 476.22)">
       <path fill="#ff0" d="m64.213 354.37h13.948v25h-13.948v-25z"/>
       <path fill="#987a00" d="m64.213 354.37h13.948v25h-13.948v-25z"/>
       <path fill="#987a00" d="m85.423 354.37h13.948v25h-13.948v-25z"/>
       <path fill="#dc9f32" d="m106.63 354.37h13.948v25h-13.948v-25z"/>
       <path fill="#dc9f32" d="m127.84 354.37h13.948v25h-13.948v-25z"/>
       <path fill="#987a00" d="m149.05 354.37h13.948v25h-13.948v-25z"/>
       <path fill="#dc9f32" d="m170.26 354.37h13.948v25h-13.948v-25z"/>
      </g>
      <g transform="matrix(.83333 0 0 .83333 21.489 506.22)">
       <path fill="#ff0" d="m64.213 354.37h13.948v25h-13.948v-25z"/>
       <path fill="#987a00" d="m64.213 354.37h13.948v25h-13.948v-25z"/>
       <path fill="#987a00" d="m85.423 354.37h13.948v25h-13.948v-25z"/>
       <path fill="#dc9f32" d="m106.63 354.37h13.948v25h-13.948v-25z"/>
       <path fill="#987a00" d="m127.84 354.37h13.948v25h-13.948v-25z"/>
       <path fill="#987a00" d="m149.05 354.37h13.948v25h-13.948v-25z"/>
       <path fill="#dc9f32" d="m170.26 354.37h13.948v25h-13.948v-25z"/>
      </g>
      <path d="m-47.661 300.87h-288.12l72.032-124.76 72.032-124.76 72.032 124.76z" fill-rule="evenodd" transform="matrix(.48589 0 0 .40076 218.16 161.79)" fill="#00617b"/>
      <g fill="#ffa07a" fill-rule="evenodd">
       <rect y="882.36" width="20" height="20" x="25"/>
       <rect y="882.36" width="20" height="20" x="205"/>
       <rect y="832.36" width="200" height="50" x="25"/>
      </g>
      <g transform="matrix(.83333 0 0 .83333 72.489 549.22)">
       <g transform="matrix(1.0089,0,0,1.0089,5.2963,-3.3748)">
        <g transform="translate(-120)">
         <path fill="#ff0" d="m64.213 354.37h13.948v25h-13.948v-25z"/>
         <g fill="#585835">
          <path d="m64.213 354.37h13.948v25h-13.948v-25z"/>
          <path d="m85.423 354.37h13.948v25h-13.948v-25z"/>
          <path d="m106.63 354.37h13.948v25h-13.948v-25z"/>
          <path d="m127.84 354.37h13.948v25h-13.948v-25z"/>
          <path d="m149.05 354.37h13.948v25h-13.948v-25z"/>
          <path d="m170.26 354.37h13.948v25h-13.948v-25z"/>
         </g>
        </g>
        <path fill="#ff0" d="m71.413 354.37h13.948v25h-13.948v-25z"/>
        <g fill="#585835">
         <path d="m71.413 354.37h13.948v25h-13.948v-25z"/>
         <path d="m92.623 354.37h13.948v25h-13.947v-25z"/>
         <path d="m113.83 354.37h13.948v25h-13.948v-25z"/>
         <path d="m135.04 354.37h13.948v25h-13.948v-25z"/>
         <path d="m156.25 354.37h13.948v25h-13.948v-25z"/>
        </g>
       </g>
      </g>
      <g fill-rule="evenodd">
       <rect transform="scale(1,-1)" height="510" width="45" y="-832.36" x="25" fill="#00617b"/>
       <path d="m-47.661 300.87h-288.12l72.032-124.76 72.032-124.76 72.032 124.76z" transform="matrix(.15618 0 0 .12864 77.444 283.66)" fill="#800080"/>
       <path d="m-47.661 300.87h-288.12l72.032-124.76 72.032-124.76 72.032 124.76z" transform="matrix(.15618 0 0 .12864 232.44 283.66)" fill="#800080"/>
       <rect transform="scale(1,-1)" height="510" width="45" y="-832.36" x="180" fill="#00617b"/>
      </g>
      <rect fill-rule="evenodd" height="150" width="250" y="902.36" x="0" fill="#ffa07a"/>
      <g fill="#ff0">
       <g transform="translate(-5)">
        <path d="m10 922.36h10v20h-10v-20z"/>
        <path d="m25 922.36h10v20h-10v-20z"/>
        <path d="m40 922.36h10v20h-10v-20z"/>
        <path d="m55 922.36h10v20h-10v-20z"/>
        <path d="m70 922.36h10v20h-10v-20z"/>
       </g>
       <g transform="translate(-5,30)">
        <path d="m10 922.36h10v20h-10v-20z"/>
        <path d="m25 922.36h10v20h-10v-20z"/>
        <path d="m40 922.36h10v20h-10v-20z"/>
        <path d="m55 922.36h10v20h-10v-20z"/>
        <path d="m70 922.36h10v20h-10v-20z"/>
       </g>
       <g transform="translate(-5,60)">
        <path d="m10 922.36h10v20h-10v-20z"/>
        <path d="m25 922.36h10v20h-10v-20z"/>
        <path d="m40 922.36h10v20h-10v-20z"/>
        <path d="m55 922.36h10v20h-10v-20z"/>
        <path d="m70 922.36h10v20h-10v-20z"/>
       </g>
      </g>
      <g fill="#ff0" transform="translate(115.33,-59.531)">
       <g transform="translate(49.672,59.531)">
        <path d="m10 922.36h10v20h-10v-20z"/>
        <path d="m25 922.36h10v20h-10v-20z"/>
        <path d="m40 922.36h10v20h-10v-20z"/>
        <path d="m55 922.36h10v20h-10v-20z"/>
        <path d="m70 922.36h10v20h-10v-20z"/>
       </g>
       <g transform="translate(49.672,89.531)">
        <path d="m10 922.36h10v20h-10v-20z"/>
        <path d="m25 922.36h10v20h-10v-20z"/>
        <path d="m40 922.36h10v20h-10v-20z"/>
        <path d="m55 922.36h10v20h-10v-20z"/>
        <path d="m70 922.36h10v20h-10v-20z"/>
       </g>
       <g transform="translate(49.672,119.53)">
        <path d="m10 922.36h10v20h-10v-20z"/>
        <path d="m25 922.36h10v20h-10v-20z"/>
        <path d="m40 922.36h10v20h-10v-20z"/>
        <path d="m55 922.36h10v20h-10v-20z"/>
        <path d="m70 922.36h10v20h-10v-20z"/>
       </g>
      </g>
      <g fill="#00bfff" transform="matrix(.83333 0 0 .83333 20.401 629.11)">
       <path d="m110.52 483.9h12v24h-12v-24z"/>
       <path d="m128.52 483.9h12v24h-12v-24z"/>
      </g>
      <path d="m-135.65 886.93a25.479 25.479 0 0 1 -12.739 22.065 25.479 25.479 0 0 1 -25.479 -0.00001 25.479 25.479 0 0 1 -12.739 -22.065h25.479z" fill-rule="evenodd" transform="matrix(1.5699,0,0,-1.5699,377.96,2344.8)" fill="#00bfff"/>
      <rect fill-rule="evenodd" height="80" width="80" y="952.36" x="85" fill="#87ceeb"/>
     </g>
     <g transform="matrix(.78844 .13556 -.13556 .78844 -329.3 -993.4)">
      <g transform="matrix(.13848 0 0 .13848 1235.6 1325.4)">
       <g transform="matrix(1.2295,0,0,1.2295,-380.83,-473.02)">
        <rect height="30.305" width="65.66" y="66.92" x="-622.76" fill="url(#t)"/>
        <rect height="345.47" width="88.893" y="94.738" x="-634.38" fill="#8a9da5"/>
        <g fill="#555753" transform="translate(-3.2454)">
         <rect y="146.58" width="4" height="292.94" x="-571.57"/>
         <rect y="146.58" width="4" height="292.94" x="-560.16"/>
         <rect y="146.58" width="4" height="292.94" x="-582.98"/>
         <rect y="146.58" width="4" height="292.94" x="-594.39"/>
         <rect y="146.58" width="4" height="292.94" x="-605.8"/>
         <rect y="146.58" width="4" height="292.94" x="-617.2"/>
        </g>
        <rect y="44.735" width="2.8284" height="23.335" x="-596.58"/>
        <rect y="4.4299" width="2.8284" height="62.933" x="-584.07"/>
       </g>
       <g transform="matrix(.99996 -.0089797 .0089797 .99996 -724.44 -287.05)">
        <rect height="30.305" width="109.16" y="66.92" x="-912.26" fill="url(#s)"/>
        <rect height="345.47" width="132.89" y="91.788" x="-923.7" fill="url(#r)"/>
        <g fill="#555753">
         <rect y="106.25" width="113.14" height="9.1924" x="-915.7"/>
         <rect y="127.37" width="113.14" height="9.1924" x="-915.7"/>
         <rect y="254.09" width="113.14" height="9.1924" x="-915.7"/>
         <rect y="275.2" width="113.14" height="9.1924" x="-915.7"/>
         <rect y="296.32" width="113.14" height="9.1924" x="-915.7"/>
         <rect y="317.44" width="113.14" height="9.1924" x="-915.7"/>
         <rect y="338.56" width="113.14" height="9.1924" x="-915.7"/>
         <rect y="359.68" width="113.14" height="9.1924" x="-915.7"/>
         <rect y="380.8" width="113.14" height="9.1924" x="-915.7"/>
         <rect y="401.92" width="113.14" height="9.1924" x="-915.7"/>
         <rect y="423.04" width="113.14" height="9.1924" x="-914.29"/>
         <rect y="148.49" width="113.14" height="9.1924" x="-915.7"/>
         <rect y="169.61" width="113.14" height="9.1924" x="-915.7"/>
         <rect y="190.73" width="113.14" height="9.1924" x="-915.7"/>
         <rect y="211.85" width="113.14" height="9.1924" x="-915.7"/>
         <rect y="232.97" width="113.14" height="9.1924" x="-915.7"/>
        </g>
       </g>
      </g>
     </g>
     <g transform="matrix(.33607 .10989 -.12009 .30754 356.17 -13.454)">
      <g transform="translate(-130.03,242.71)">
       <path fill="#e4eaed" d="m241.31 338.86c-34.812 0-63.072 28.26-63.072 63.072 0 5.352 0.66 10.536 1.92 15.492-12.684 2.412-22.284 13.548-22.284 26.928 0 15.144 12.312 27.444 27.456 27.444 10.74 0 20.028-6.216 24.516-15.216 9.264 5.34 20.016 8.436 31.464 8.436 21.336 0 40.152-10.632 51.564-26.856 6.732 4.104 14.652 6.492 23.1 6.492 11.364 0 21.732-4.296 29.592-11.328 4.632 6.828 12.468 11.328 21.336 11.328 14.208 0 25.728-11.556 25.728-25.764s-11.52-25.728-25.728-25.728c-2.412 0-4.764 0.36-6.972 0.972-2.976-21.624-21.516-38.28-43.956-38.28-9.168 0-17.712 2.76-24.78 7.536-11.55-14.91-29.59-24.53-49.89-24.53z"/>
       <path d="m245.34 360.86c-23.016 0-41.486 18.47-41.486 41.486 0 3.5429 0.43526 6.9459 1.2559 10.191a11.078 11.078 0 0 1 -8.668 13.596c-5.4298 1.0334-9.5566 5.7016-9.5566 11.557 0 6.6144 5.1844 11.799 11.799 11.799 4.683 0 8.5887-2.679 10.527-6.5606a11.078 11.078 0 0 1 15.447 -4.6445c6.1082 3.5256 13.127 5.5488 20.682 5.5488 14.09 0 26.385-6.9812 33.912-17.674a11.078 11.078 0 0 1 14.828 -3.0801c3.9339 2.4012 8.5119 3.7852 13.479 3.7852 6.6793 0 12.661-2.4912 17.27-6.6152a11.078 11.078 0 0 1 16.557 2.041c1.8626 2.7494 4.9649 4.5742 8.6113 4.5742 5.8281 0 10.361-4.545 10.361-10.393 0-5.8476-4.5137-10.361-10.361-10.361-0.93285 0-1.8803 0.13746-2.8164 0.40039a11.078 11.078 0 0 1 -13.969 -9.1543c-1.7372-12.63-12.435-22.34-25.652-22.34-5.4166 0-10.344 1.6127-14.465 4.3906a11.078 11.078 0 0 1 -14.951 -2.4062c-7.6063-9.8264-19.39-16.141-32.803-16.141z" filter="url(#ai)" fill="#fff"/>
       <g fill="#e4eaed">
        <path d="m205.39 424.13c-1.91 8.58 10.91 21.54 16.54 24.44 4.17 0.32 2.99-1.7 1.26-3.33-3.86-3.66-15.03-12.33-17.8-21.11z"/>
        <path d="m205.39 424.13c-1.91 8.58 10.91 21.54 16.54 24.44 4.17 0.32 2.99-1.7 1.26-3.33-3.86-3.66-15.03-12.33-17.8-21.11z"/>
        <path d="m292.29 401.75c6.1 6.34 3.91 25.08 0.62 30.49-3.39 2.44-5.43-0.89-4.81-3.19 1.39-5.13 6.4-18.35 4.19-27.3z"/>
        <path d="m339.97 409.94c3.68 6.09 1.59 17.97-1.98 21.64-1.86-0.18-4.37-2.42-3.47-4.12 2.02-3.8 5.59-10.08 5.45-17.52z"/>
       </g>
      </g>
     </g>
    </g>
   </g>
  </g>
 </g>
</svg>
