<svg xmlns:rdf="http://www.w3.org/1999/02/22-rdf-syntax-ns#" xmlns="http://www.w3.org/2000/svg" height="100%" viewBox="0 0 600 580" width="100%" version="1.1" xmlns:cc="http://creativecommons.org/ns#" xmlns:xlink="http://www.w3.org/1999/xlink" xmlns:dc="http://purl.org/dc/elements/1.1/">
 <defs>
  <linearGradient id="m" x1="-1800" gradientUnits="userSpaceOnUse" y1="2700" gradientTransform="matrix(.014430 .0060158 -.0052776 .012659 223.76 103.19)" x2="18000" y2="31000">
   <stop stop-color="#051729" offset="0"/>
   <stop stop-color="#041329" stop-opacity=".80392" offset=".4"/>
   <stop stop-color="#01072a" stop-opacity="0" offset="1"/>
  </linearGradient>
  <clipPath id="n">
   <rect stroke-linejoin="round" ry="13" height="34" width="64" stroke="#000" y="1100" x="420" stroke-width=".5"/>
  </clipPath>
 </defs>
 <g stroke="#FFF" stroke-miterlimit="0" fill="#FFF">
  <path stroke-width=".064" d="m38 320a0.36 0.41 0 0 1 -0.72 0 0.36 0.41 0 1 1 0.72 0z"/>
  <path stroke-width=".15726" d="m140 400a0.9 0.9 0 0 1 -1.8 0 0.9 0.9 0 1 1 1.8 0z"/>
  <path stroke-width=".078584" d="m120 130z"/>
  <path id="l" d="m130 320a0.36 0.52 0 0 1 -0.73 0 0.36 0.52 0 1 1 0.73 0z" stroke="#FFF" stroke-miterlimit="0" stroke-width=".076056" fill="#FFF"/>
  <path stroke-width=".23589" d="m94 330a1.4 1.4 0 0 1 -2.6 0 1.4 1.4 0 1 1 2.6 0z"/>
  <path stroke-width=".11795" d="m150 340a0.66 0.67 56 1 1 -0.74 -1.1 0.66 0.67 56 0 1 0.74 1.1z"/>
  <path stroke-width=".076056" d="m200 330z"/>
  <path stroke-width=".15726" d="m400 70a0.89 0.89 0 0 1 1.2 1.4 0.89 0.89 0 0 1 0 -0.9z"/>
  <path stroke-width=".076056" d="m190 390z"/>
  <path stroke-width=".07863" d="m190 330a0.44 0.44 0 1 1 -0.002 0.88z"/>
  <path stroke-width=".076056" d="m100 370a0.38 0.52 51 0 1 -0.9 0 0.38 0.52 51 1 1 0.9 0z"/>
  <path stroke-width=".038994" d="m38 360a0.22 0.22 0 1 1 0.36 0 0.22 0.22 0 0 1 -0.36 0z"/>
  <path stroke-width=".038994" d="m470 340z"/>
  <path stroke-width=".11795" d="m460 76a0.67 0.66 45 1 1 0.9 -0.9 0.67 0.66 45 0 1 -0.9 0.9z"/>
  <path stroke-width=".038994" d="m100 330z"/>
  <path stroke-width=".078479" d="m260 230a0.44 0.44 0 0 1 0.88 0.09z"/>
  <path stroke-width=".076056" d="m160 150a0.37 0.5 5.3 0 1 0.73 0.075z"/>
  <path stroke-width=".076056" d="m82 290a0.37 0.5 5.3 1 1 0.73 0.075 0.45 0.61 5.3 0 1 -0.9 0z"/>
  <g stroke-width=".038994">
   <path d="m330 390a0.22 0.22 0 1 1 0.31 -0.32z"/>
   <path d="m290 360z"/>
   <path d="m220 330z"/>
  </g>
  <path stroke-width=".076056" d="m190 350a0.5 0.37 62 1 1 0.64 -0.35z"/>
  <g stroke-width=".038994">
   <path d="m160 370a0.22 0.22 0 0 1 0.081 -0.43z"/>
   <path d="m180 410a0.22 0.22 0 0 1 0.081 -0.43z"/>
   <path d="m400 350a0.22 0.22 0 1 1 -0.42 0.13z"/>
  </g>
  <path stroke-width=".038994" d="m110 380z"/>
  <path stroke-width=".19658" d="m170 270a1.1 1.1 0 1 1 0.58 -2.2 1.1 1.1 0 0 1 -0.58 2.2z"/>
  <path stroke-width=".038994" d="m130 330a0.22 0.22 0 0 1 0.14 -0.41z"/>
  <path stroke-width=".07863" d="m380 120a0.44 0.44 0 0 1 -0.88 0 0.44 0.44 0 1 1 0.88 0z"/>
  <path stroke-width=".078479" d="m48 220a0.45 0.45 0 0 1 -0.9 0 0.45 0.45 0 1 1 0.9 0z"/>
  <path stroke-width=".076056" d="m120 250a0.38 0.52 51 0 1 -0.9 0 0.38 0.52 51 1 1 0.9 0z"/>
  <g stroke-width=".038994">
   <path d="m97 260a0.22 0.22 0 0 1 -0.44 0 0.22 0.22 0 1 1 0.44 0z"/>
   <path d="m46 250a0.22 0.22 0 0 1 -0.44 0 0.22 0.22 0 1 1 0.44 0z"/>
   <path d="m250 260a0.22 0.22 0 0 1 -0.0009 0.44z"/>
  </g>
  <path stroke-width=".076056" d="m160 240z"/>
  <path stroke-width=".038994" d="m260 300a0.22 0.22 0 0 1 -0.44 0 0.22 0.22 0 1 1 0.44 0z"/>
  <path id="k" d="m66 270a0.38 0.52 51 0 1 -0.9 0 0.38 0.52 51 1 1 0.9 0z" stroke="#FFF" stroke-miterlimit="0" stroke-width=".076056" fill="#FFF"/>
  <path stroke-width=".076056" d="m210 270a0.5 0.37 52 1 1 -0.57 0.46z"/>
  <path stroke-width=".038994" d="m160 260a0.22 0.22 0 1 1 0.39 0.22z"/>
  <path stroke-width=".078479" d="m170 300a0.44 0.44 0 1 1 0.31 0.83z"/>
  <path stroke-width=".07863" d="m330 180a0.44 0.44 0 0 1 0.86 -0.23z"/>
  <path stroke-width=".038994" d="m62 370z"/>
  <path stroke-width=".038994" d="m230 280a0.22 0.22 0 0 1 0.099 -0.42z"/>
  <path stroke-width=".078479" d="m36 250a0.44 0.44 0 1 1 -0.54 0 0.44 0.44 0 0 1 0.54 0z"/>
  <path stroke-width=".038994" d="m310 260z"/>
  <path stroke-width=".038994" d="m160 98z"/>
  <path stroke-width=".07863" d="m150 260a0.44 0.44 0 0 1 0.86 -0.23z"/>
  <path stroke-width=".078479" d="m130 56a0.45 0.45 0 1 1 0 -0.9 0.45 0.45 0 0 1 0 0.9z"/>
  <g stroke-width=".038994">
   <path d="m200 190z"/>
   <path d="m170 130z"/>
   <path d="m300 250a0.22 0.22 0 0 1 -0.44 0 0.22 0.22 0 1 1 0.44 0z"/>
   <path id="j" d="m190 170a0.22 0.22 0 0 1 -0.01 0.44z" stroke="#FFF" stroke-miterlimit="0" stroke-width=".038994" fill="#FFF"/>
  </g>
  <path stroke-width=".078479" d="m230 170a0.44 0.44 0 0 1 -0.51 -0.72 0.44 0.44 0 1 1 0.51 0.72z"/>
  <path stroke-width=".07863" d="m180 160a0.44 0.44 0 0 1 0.59 0.65z"/>
 </g>
 <text style="word-spacing:0px;letter-spacing:0px" xml:space="preserve" font-size="40px" line-height="125%" y="915.52228" x="440.44522" font-family="Sans"><tspan y="915.52228" x="440.44522"/></text>
 <text style="word-spacing:0px;letter-spacing:0px" xml:space="preserve" font-size="13px" line-height="125%" y="1218.1722" x="336.94339" font-family="Arial Hebrew"><tspan y="1218.1722" x="336.94339"/></text>
 <text style="word-spacing:0px;letter-spacing:0px" xml:space="preserve" font-size="6px" line-height="125%" y="1228.4059" x="335.64749" font-family="Krungthep"><tspan y="1228.4059" x="335.64749"/></text>
 <g stroke="#FFF" stroke-miterlimit="0">
  <g fill="#FFF">
   <g stroke-width=".038994">
    <path d="m100 230a0.22 0.22 0 0 1 -0.44 0 0.22 0.22 0 1 1 0.44 0z"/>
    <path d="m67 230a0.22 0.22 0 0 1 -0.44 0 0.22 0.22 0 1 1 0.44 0z"/>
    <path d="m56 240a0.22 0.22 0 0 1 -0.44 0 0.22 0.22 0 1 1 0.44 0z"/>
    <path d="m160 260a0.22 0.22 0 1 1 0.39 0.22z"/>
    <path d="m69 240a0.22 0.22 0 0 1 -0.44 0 0.22 0.22 0 1 1 0.44 0z"/>
    <path d="m51 170z"/>
    <path d="m97 200z"/>
    <path d="m110 190z"/>
    <path d="m95 230z"/>
    <path d="m180 240a0.22 0.22 0 1 1 0.08 -0.43z"/>
    <path id="f" d="m220 190a0.22 0.22 0 1 1 0.43 0.082z" stroke="#FFF" stroke-miterlimit="0" stroke-width=".038994" fill="#FFF"/>
    <path d="m160 110a0.22 0.22 0 1 1 0.43 0.082z"/>
    <path id="c" d="m210 210a0.22 0.22 0 1 1 0.28 -0.34z" stroke="#FFF" stroke-miterlimit="0" stroke-width=".038994" fill="#FFF"/>
    <path d="m220 180a0.22 0.22 0 1 1 0.083 -0.43z"/>
    <path id="b" d="m170 190a0.22 0.22 0 1 1 0.083 -0.43z" stroke="#FFF" stroke-miterlimit="0" stroke-width=".038994" fill="#FFF"/>
    <path id="a" d="m190 130a0.22 0.22 0 1 1 0.083 -0.43z" stroke="#FFF" stroke-miterlimit="0" stroke-width=".038994" fill="#FFF"/>
    <path d="m150 47z"/>
    <path d="m120 330z"/>
    <path d="m91 280z"/>
   </g>
   <path stroke-width=".076056" d="m90 310z"/>
   <path stroke-width=".078479" d="m83 270z"/>
   <g stroke-width=".038994">
    <path d="m120 280z"/>
    <path d="m430 270z"/>
    <path d="m120 310z"/>
    <path d="m170 280a0.22 0.22 0 0 1 0.36 -0.24 0.22 0.22 0 0 1 -0.36 0.24z"/>
    <path d="m170 300a0.22 0.22 0 0 1 0.36 -0.24 0.22 0.22 0 1 1 -0.36 0.24z"/>
   </g>
   <path stroke-width=".11795" d="m110 240a0.68 0.68 0 0 1 -1.4 0 0.68 0.68 0 1 1 1.4 0z"/>
   <path stroke-width=".076056" d="m81 220a0.38 0.52 51 0 1 -0.9 0 0.38 0.52 51 1 1 0.9 0z"/>
   <path stroke-width=".078479" d="m31 210a0.44 0.44 0 1 1 -0.51 0 0.44 0.44 0 0 1 0.51 0z"/>
   <path stroke-width=".11795" d="m70 200a0.68 0.68 0 0 1 -1.4 0 0.68 0.68 0 1 1 1.4 0z"/>
  </g>
  <path d="m110 72a1.1 1.1 0 0 1 -2.2 0 1.1 1.1 0 1 1 2.2 0z" stroke-width=".19824" fill="#d45500"/>
  <g fill="#FFF">
   <path stroke-width=".07863" d="m65 150z"/>
   <path stroke-width=".047178" d="m41 38a0.45 0.46 0 0 1 -0.9 0 0.45 0.46 0 1 1 0.9 0z"/>
   <path id="i" d="m69 120a0.49 0.49 0 1 1 0 -0.9 0.49 0.49 0 0 1 0 0.9z" stroke="#FFF" stroke-miterlimit="0" stroke-width=".086493" fill="#FFF"/>
   <path stroke-width=".086493" d="m60 100a0.49 0.49 0 1 1 0 -0.9 0.49 0.49 0 0 1 0 0.9z"/>
  </g>
  <path d="m49 60a0.66 0.66 0 0 1 0 -0.9 0.66 0.66 0 1 1 0 0.9z" stroke-width=".11512" fill="#00F"/>
  <g fill="#FFF">
   <path stroke-width=".047178" d="m73 48a0.45 0.46 0 0 1 -0.9 0 0.45 0.46 0 1 1 0.9 0z"/>
   <path stroke-width=".095142" d="m90 61a0.54 0.53 45 0 1 0 -0.9 0.54 0.53 45 1 1 0 0.9z"/>
   <path stroke-width=".07863" d="m75 130z"/>
   <path stroke-width=".047178" d="m74 49a0.45 0.46 0 0 1 -0.9 0 0.45 0.46 0 1 1 0.9 0z"/>
   <path stroke-width=".047178" d="m73 50a0.45 0.46 0 0 1 -0.9 0 0.45 0.46 0 1 1 0.9 0z"/>
  </g>
  <path stroke-width=".19566" fill="#e3dbdb" d="m500 250a1.1 1.1 0 1 1 1.4 -1.8 1.1 1.1 0 0 1 -1.4 1.8z"/>
  <path stroke-width=".14087" fill="#FFF" d="m540 150a0.79 0.79 0 0 1 -1.4 -0.58 0.79 0.79 0 1 1 1.4 0.58z"/>
  <path stroke-width=".23674" fill="#FFF" d="m560 170a1.4 1.4 0 1 1 1.6 -2.2 1.4 1.4 0 0 1 -1.6 2.2z"/>
  <path id="g" d="m520 240a1.1 1.1 0 1 1 1.4 -1.8 1.1 1.1 0 0 1 -1.4 1.8z" stroke="#FFF" stroke-miterlimit="0" stroke-width=".19566" fill="#F60"/>
  <path stroke-width=".14087" fill="#FFF" d="m550 150a0.79 0.79 0 0 1 -1.4 -0.58 0.79 0.79 0 1 1 1.4 0.58z"/>
  <path stroke-width=".14087" fill="#FF0" d="m540 150a0.79 0.79 0 0 1 -1.4 -0.58 0.79 0.79 0 1 1 1.4 0.58z"/>
  <g fill="#FFF">
   <g stroke-width=".038994">
    <path d="m440 95a0.22 0.22 0 0 1 -0.44 0 0.22 0.22 0 1 1 0.44 0z"/>
    <path d="m460 70a0.22 0.22 0 0 1 -0.44 0 0.22 0.22 0 1 1 0.44 0z"/>
    <path d="m100 100z"/>
    <path d="m110 110z"/>
    <path d="m130 110z"/>
    <path d="m35 97a0.22 0.22 0 0 1 -0.45 0 0.22 0.22 0 1 1 0.45 0z"/>
    <path d="m400 52a0.22 0.22 0 0 1 -0.44 0 0.22 0.22 0 1 1 0.44 0z"/>
    <path d="m390 62a0.22 0.22 0 0 1 -0.44 0 0.22 0.22 0 1 1 0.44 0z"/>
    <path d="m190 91a0.22 0.22 0 0 1 -0.44 0 0.22 0.22 0 1 1 0.44 0z"/>
    <path d="m420 71z"/>
   </g>
   <path stroke-width=".11795" d="m130 300a0.68 0.68 0 0 1 -1.4 0 0.68 0.68 0 1 1 1.4 0z"/>
   <path stroke-width=".038994" d="m440 79z"/>
   <path stroke-width=".11795" d="m140 220a0.66 0.67 63 0 1 -0.6 -1.2 0.66 0.67 63 0 1 0.6 1.2z"/>
   <path id="e" d="m150 170a0.5 0.37 24 0 1 0.3 -0.67z" stroke="#FFF" stroke-miterlimit="0" stroke-width=".076056" fill="#FFF"/>
   <path stroke-width=".11795" d="m160 150a0.66 0.67 63 0 1 -0.6 -1.2 0.66 0.67 63 1 1 0.6 1.2z"/>
   <path stroke-width=".076056" d="m260 180z"/>
   <path stroke-width=".23589" d="m170 76a1.4 1.4 0 1 1 0 -1.8 1.4 1.4 0 0 1 0 1.8z"/>
   <path stroke-width=".076056" d="m210 140a0.5 0.37 44 0 1 0.51 -0.52z"/>
   <path stroke-width=".038994" d="m260 150z"/>
   <path stroke-width=".038994" d="m210 47z"/>
   <path stroke-width=".064" d="m160 140z"/>
   <path id="d" d="m210 180a0.22 0.22 0 1 1 0.4 -0.17z" stroke="#FFF" stroke-miterlimit="0" stroke-width=".038994" fill="#FFF"/>
  </g>
  <path d="m230 110z" stroke-width=".038994" fill="url(#m)"/>
  <g fill="#FFF">
   <g stroke-width=".038994">
    <path d="m260 53z"/>
    <path d="m240 56z"/>
    <path d="m250 79z"/>
   </g>
   <g stroke-width=".038994">
    <path d="m250 140z"/>
    <path d="m240 130z"/>
    <path d="m240 150a0.22 0.22 0 1 1 0.43 -0.086z"/>
    <path d="m300 67a0.22 0.22 0 1 1 0.43 0.047z"/>
   </g>
   <path stroke-width=".064" d="m230 99a0.43 0.49 53 1 1 0 -0.9 0.43 0.49 53 0 1 0 0.9z"/>
   <path stroke-width=".11795" d="m260 53a0.67 0.68 53 1 1 0 -0.9 0.67 0.68 53 0 1 0 0.9z"/>
   <path stroke-width=".11795" d="m73 94a0.68 0.67 19 0 1 0 -0.9 0.68 0.67 19 0 1 0 0.9z"/>
   <path stroke-width=".076056" d="m270 120a0.37 0.5 59 1 1 0.38 0.63z"/>
   <path stroke-width=".19658" d="m380 31a1.1 1.1 0 1 1 2.1 -0.8 1.1 1.1 0 0 1 -2.1 0.8z"/>
   <path stroke-width=".038994" d="m240 83z"/>
   <path stroke-width=".076056" d="m330 130a0.5 0.37 14 0 1 0.18 -0.71 0.5 0.37 14 1 1 -0.18 0.71z"/>
   <path stroke-width=".038994" d="m310 110z"/>
   <path stroke-width=".038994" d="m280 68z"/>
   <path stroke-width=".076056" d="m360 140a0.5 0.37 14 0 1 0.18 -0.71 0.5 0.37 14 1 1 -0.18 0.71z"/>
   <path stroke-width=".038994" d="m350 150a0.22 0.22 0 0 1 0.06 0.43z"/>
   <path stroke-width=".078479" d="m570 230a0.44 0.44 0 1 1 -0.48 0.75z"/>
   <path stroke-width=".078479" d="m280 61a0.45 0.45 0 1 1 0 -0.9 0.45 0.45 0 0 1 0 0.9z"/>
   <path stroke-width=".07863" d="m340 150a0.44 0.44 0 1 1 0.69 0.55z"/>
   <g stroke-width=".038994">
    <path d="m350 99z"/>
    <path d="m320 70z"/>
    <path d="m300 68z"/>
    <path d="m590 190a0.22 0.22 0 1 1 0.06 0.43z"/>
    <path d="m310 82z"/>
    <path d="m360 77z"/>
    <path d="m330 170a0.22 0.22 0 1 1 0.4 -0.19z"/>
    <path d="m340 92z"/>
    <path d="m230 74z"/>
    <path d="m290 120z"/>
   </g>
   <path stroke-width=".076056" d="m260 140a0.5 0.37 60 0 1 0.63 -0.36 0.5 0.37 60 1 1 -0.63 0.36z"/>
   <path stroke-width=".078479" d="m290 110z"/>
   <g stroke-width=".038994">
    <path d="m310 150a0.22 0.22 0 0 1 0.068 -0.43z"/>
    <path d="m300 140a0.22 0.22 0 0 1 0.068 -0.43z"/>
    <path d="m290 150a0.22 0.22 0 1 1 0.41 0.14z"/>
    <path d="m580 210a0.22 0.22 0 0 1 0.41 0.14z"/>
    <path d="m380 260a0.22 0.22 0 1 1 0.41 0.14z"/>
   </g>
   <path stroke-width=".076056" d="m340 72a0.61 0.44 14 1 1 0 -0.9 0.61 0.44 14 0 1 0 0.9z"/>
   <path stroke-width=".078479" d="m310 29a0.44 0.44 0 0 1 0 -0.85 0.44 0.44 0 1 1 0 0.85z"/>
   <path stroke-width=".11795" d="m320 91a0.67 0.68 53 1 1 0 -0.9 0.67 0.68 53 0 1 0 0.9z"/>
   <path stroke-width=".11795" d="m350 56a0.67 0.68 53 1 1 0 -0.9 0.67 0.68 53 0 1 0 0.9z"/>
   <path stroke-width=".07863" d="m490 62a0.45 0.45 0 0 1 0 0.9 0.45 0.45 0 1 1 0 -0.9z"/>
   <path stroke-width=".15726" d="m470 72z"/>
   <path stroke-width=".19658" d="m440 41z"/>
   <path stroke-width=".11795" d="m490 36a0.68 0.68 38 1 1 0 -1.1 0.68 0.68 38 0 1 0 1.1z"/>
   <path stroke-width=".11795" d="m510 86a0.68 0.68 68 0 1 0 -0.9 0.68 0.68 68 1 1 0 0.9z"/>
   <path stroke-width=".076056" d="m530 71a0.37 0.5 18 0 1 0.69 0.23z"/>
   <path stroke-width=".11795" d="m520 140a0.67 0.66 12 1 1 0.28 -1.3 0.67 0.66 12 0 1 -0.28 1.3z"/>
   <path stroke-width=".064" d="m570 77a0.5 0.44 28 1 1 0 -0.9 0.5 0.44 28 0 1 0 0.9z"/>
   <path stroke-width=".078479" d="m140 390a0.44 0.44 0 0 1 0.69 -0.55z"/>
   <g stroke-width=".076056">
    <path d="m120 500a0.5 0.37 51 1 1 0.58 -0.45 0.5 0.37 51 0 1 -0.58 0.45z"/>
    <path d="m81 410a0.56 0.41 51 1 1 0.9 0 0.56 0.41 51 0 1 -0.9 0z"/>
    <path d="m85 550a0.38 0.52 52 0 1 -0.9 0 0.38 0.52 52 1 1 0.9 0z"/>
   </g>
   <path stroke-width=".078479" d="m58 510a0.45 0.45 0 0 1 -0.9 0 0.45 0.45 0 1 1 0.9 0z"/>
   <path stroke-width=".038994" d="m130 430a0.22 0.22 0 0 1 0.43 0.082z"/>
   <path stroke-width=".038994" d="m150 550a0.22 0.22 0 0 1 0.34 0.28z"/>
   <path stroke-width=".076056" d="m45 430a0.37 0.5 6.6 1 1 0.73 0.09 0.45 0.61 6.6 0 1 -0.9 0z"/>
   <path stroke-width=".11795" d="m110 450z"/>
   <path stroke-width=".15726" d="m170 530a0.88 0.88 0 0 1 -1.4 -1.1 0.88 0.88 0 1 1 1.4 1.1z"/>
   <path stroke-width=".076056" d="m140 420a0.5 0.37 51 1 1 0.58 -0.45 0.5 0.37 51 0 1 -0.58 0.45z"/>
   <path stroke-width=".076056" d="m180 500a0.37 0.5 24 1 1 0.67 0.31z"/>
   <path stroke-width=".064" d="m220 500a0.39 0.34 23 0 1 0.26 -0.62z"/>
   <path stroke-width=".038994" d="m170 550a0.22 0.22 0 1 1 0.17 0.4z"/>
   <path stroke-width=".076056" d="m430 69a0.37 0.5 5.3 1 1 0.73 0.075z"/>
   <path stroke-width=".076056" d="m450 110a0.41 0.56 51 1 1 0 -0.9 0.41 0.56 51 0 1 0 0.9z"/>
   <path stroke-width=".038994" d="m440 38a0.22 0.22 0 0 1 -0.44 0 0.22 0.22 0 1 1 0.44 0z"/>
   <path stroke-width=".076056" d="m400 140z"/>
   <g stroke-width=".038994">
    <path d="m480 110a0.22 0.22 0 0 1 -0.44 0 0.22 0.22 0 1 1 0.44 0z"/>
    <path d="m400 150a0.22 0.22 0 0 1 -0.44 0 0.22 0.22 0 1 1 0.44 0z"/>
    <path d="m390 160a0.22 0.22 0 0 1 -0.44 0 0.22 0.22 0 1 1 0.44 0z"/>
    <path d="m350 310a0.22 0.22 0 0 1 -0.44 0 0.22 0.22 0 1 1 0.44 0z"/>
    <path d="m430 150a0.22 0.22 0 1 1 0.08 -0.43z"/>
   </g>
   <path stroke-width=".038994" d="m420 200z"/>
   <path stroke-width=".076056" d="m440 88a0.61 0.45 6.3 1 1 0 -0.9 0.61 0.45 6.3 0 1 0 0.9z"/>
   <path stroke-width=".078479" d="m420 140a0.44 0.44 0 0 1 0.15 -0.87z"/>
   <path stroke-width=".038994" d="m450 200z"/>
   <path stroke-width=".038994" d="m460 57z"/>
   <path stroke-width=".11795" d="m440 130a0.68 0.68 0 0 1 -1.4 0 0.68 0.68 0 1 1 1.4 0z"/>
   <path stroke-width=".076056" d="m200 420z"/>
   <path stroke-width=".038994" d="m220 440a0.22 0.22 0 0 1 -0.36 0.25 0.22 0.22 0 1 1 0.36 -0.25z"/>
   <path stroke-width=".076056" d="m250 460z"/>
   <g stroke-width=".038994">
    <path d="m190 460a0.22 0.22 0 0 1 -0.36 0.25 0.22 0.22 0 1 1 0.36 -0.25z"/>
    <path d="m210 490a0.22 0.22 0 0 1 -0.36 0.25 0.22 0.22 0 1 1 0.36 -0.25z"/>
    <path d="m230 490a0.22 0.22 0 0 1 -0.36 0.25 0.22 0.22 0 1 1 0.36 -0.25z"/>
    <path d="m230 470a0.22 0.22 0 0 1 -0.36 0.25 0.22 0.22 0 1 1 0.36 -0.25z"/>
    <path d="m190 460a0.22 0.22 0 1 1 -0.18 -0.4 0.22 0.22 0 0 1 0.18 0.4z"/>
    <path d="m250 430z"/>
   </g>
   <path stroke-width=".076056" d="m260 420z"/>
   <path stroke-width=".078479" d="m240 440z"/>
   <path stroke-width=".038994" d="m220 410z"/>
   <path stroke-width=".038994" d="m230 420z"/>
   <path stroke-width=".11795" d="m210 460a0.68 0.67 55 0 1 -1.1 0.76 0.68 0.67 55 1 1 1.1 -0.76z"/>
  </g>
 </g>
 <rect stroke-linejoin="round" transform="matrix(.73599 0 0 .78186 104.88 275.68)" clip-path="url(#n)" ry="13" height="26" width="45" stroke="#000" y="1200" x="430" stroke-width=".5"/>
 <path d="m260 110a1.1 1.1 0 0 1 -2.2 0 1.1 1.1 0 1 1 2.2 0z" stroke="#FFF" stroke-miterlimit="0" stroke-width=".19824" fill="#d45500"/>
 <path d="m250 61a0.66 0.66 0 0 1 0 -0.9 0.66 0.66 0 1 1 0 0.9z" stroke="#FFF" stroke-miterlimit="0" stroke-width=".11512" fill="#00F"/>
 <g stroke="#FFF" stroke-miterlimit="0" fill="#FFF">
  <path stroke-width=".038994" d="m55 100z"/>
  <path stroke-width=".038994" d="m64 130z"/>
  <path stroke-width=".064" d="m53 150z"/>
  <path stroke-width=".076056" d="m67 130z"/>
  <path stroke-width=".038994" d="m57 130z"/>
  <path stroke-width=".038994" d="m52 120z"/>
 </g>
 <g fill="#f60">
  <use id="h" xlink:href="#g" transform="translate(6.9121 -18.11)" height="580" width="600" y="0" x="0" fill="#ff6600"/>
  <use xlink:href="#h" transform="translate(-6.2209 1.2442)" height="580" width="600" y="0" x="0"/>
  <use xlink:href="#g" transform="matrix(.66085 0 0 .71737 186.66 46.24)" height="580" width="600" y="0" x="0"/>
 </g>
 <path d="m520 160a1.6 1.6 0 1 1 1.9 -2.6 1.6 1.6 0 0 1 -1.9 2.6z" stroke="#FFF" stroke-miterlimit="0" stroke-width=".28132" fill="#FFF"/>
 <path d="m540 260a1.9 1.9 0 1 1 2.3 -3.1 1.9 1.9 0 0 1 -2.3 3.1z" stroke="#FFF" stroke-miterlimit="0" stroke-width=".33809" fill="#e3dbdb"/>
 <use xlink:href="#l" transform="translate(46.726 -188.56)" height="580" width="600" y="0" x="0"/>
 <use xlink:href="#k" transform="translate(46.726 -188.56)" height="580" width="600" y="0" x="0"/>
 <use xlink:href="#i" transform="translate(88.147 -15.022)" height="580" width="600" y="0" x="0"/>
 <path d="m180 14a0.45 0.45 0 0 1 -0.9 0 0.45 0.45 0 1 1 0.9 0z" stroke="#FFF" stroke-miterlimit="0" stroke-width=".078479" fill="#FFF"/>
 <path d="m260 50a0.38 0.52 51 0 1 -0.9 0 0.38 0.52 51 1 1 0.9 0z" stroke="#FFF" stroke-miterlimit="0" stroke-width=".076056" fill="#FFF"/>
 <use xlink:href="#j" transform="translate(-128.29 -71.056)" height="580" width="600" y="0" x="0"/>
 <use xlink:href="#f" transform="translate(-128.29 -71.056)" height="580" width="600" y="0" x="0"/>
 <use xlink:href="#c" transform="translate(-128.29 -71.056)" height="580" width="600" y="0" x="0"/>
 <use xlink:href="#b" transform="translate(-128.29 -71.056)" height="580" width="600" y="0" x="0"/>
 <use xlink:href="#a" transform="translate(-128.29 -71.056)" height="580" width="600" y="0" x="0"/>
 <use xlink:href="#e" transform="translate(-128.29 -71.056)" height="580" width="600" y="0" x="0"/>
 <use xlink:href="#d" transform="translate(-128.29 -71.056)" height="580" width="600" y="0" x="0"/>
 <g stroke="#FFF" stroke-miterlimit="0" fill="#FFF">
  <path stroke-width=".038994" d="m130 92a0.22 0.22 0 0 1 0.43 0.059z"/>
  <path stroke-width=".038994" d="m39 170a0.22 0.22 0 0 1 -0.0099 0.44z"/>
  <path stroke-width=".07863" d="m30 160a0.44 0.44 0 0 1 0.59 0.65z"/>
  <path stroke-width=".038994" d="m57 210a0.22 0.22 0 1 1 0.28 -0.34z"/>
  <path stroke-width=".038994" d="m66 180a0.22 0.22 0 1 1 0.083 -0.43z"/>
  <path stroke-width=".076056" d="m57 140a0.5 0.37 44 0 1 0.51 -0.52z"/>
  <g stroke-width=".038994">
   <path d="m57 180a0.22 0.22 0 0 1 0.4 -0.17z"/>
   <path d="m84 150a0.22 0.22 0 1 1 0.43 -0.086z"/>
   <path d="m340 35a0.22 0.22 0 0 1 -0.01 0.44z"/>
  </g>
  <path stroke-width=".07863" d="m330 26a0.44 0.44 0 0 1 0.59 0.65z"/>
  <g stroke-width=".038994">
   <path d="m350 71a0.22 0.22 0 1 1 0.28 -0.34z"/>
   <path d="m360 44a0.22 0.22 0 1 1 0.083 -0.43z"/>
   <path d="m350 44a0.22 0.22 0 0 1 0.4 -0.17z"/>
   <path d="m380 17a0.22 0.22 0 1 1 0.43 -0.086z"/>
   <path d="m530 29a0.22 0.22 0 0 1 -0.45 0 0.22 0.22 0 1 1 0.45 0z"/>
  </g>
  <path stroke-width=".11795" d="m570 26a0.68 0.67 19 0 1 0 -0.9 0.68 0.67 19 0 1 0 0.9z"/>
 </g>
 <use xlink:href="#f" transform="translate(363.3 -138.52)" height="580" width="600" y="0" x="0"/>
 <use xlink:href="#c" transform="translate(363.3 -138.52)" height="580" width="600" y="0" x="0"/>
 <use xlink:href="#b" transform="translate(363.3 -138.52)" height="580" width="600" y="0" x="0"/>
 <use xlink:href="#e" transform="translate(363.3 -138.52)" height="580" width="600" y="0" x="0"/>
 <use xlink:href="#d" transform="translate(363.3 -138.52)" height="580" width="600" y="0" x="0"/>
 <g stroke="#FFF" stroke-miterlimit="0" fill="#FFF">
  <path stroke-width=".038994" d="m530 110a0.22 0.22 0 0 1 -0.01 0.44z"/>
  <path stroke-width=".07863" d="m520 96a0.44 0.44 0 0 1 0.59 0.65z"/>
  <g stroke-width=".038994">
   <path d="m560 110a0.22 0.22 0 0 1 0.083 -0.43z"/>
   <path d="m550 110a0.22 0.22 0 1 1 0.4 -0.17z"/>
   <path d="m580 87a0.22 0.22 0 1 1 0.43 -0.086z"/>
   <path d="m460 160a0.22 0.22 0 0 1 -0.44 0 0.22 0.22 0 1 1 0.44 0z"/>
   <path d="m440 130a0.22 0.22 0 0 1 -0.44 0 0.22 0.22 0 1 1 0.44 0z"/>
  </g>
 </g>
 <use xlink:href="#f" transform="translate(363.3 -48.518)" height="580" width="600" y="0" x="0"/>
 <use xlink:href="#c" transform="translate(363.3 -48.518)" height="580" width="600" y="0" x="0"/>
 <use xlink:href="#b" transform="translate(363.3 -48.518)" height="580" width="600" y="0" x="0"/>
 <use xlink:href="#e" transform="translate(363.3 -48.518)" height="580" width="600" y="0" x="0"/>
 <g stroke="#FFF" stroke-miterlimit="0" fill="#FFF">
  <path stroke-width=".038994" d="m530 200a0.22 0.22 0 0 1 -0.01 0.44z"/>
  <path stroke-width=".078479" d="m200 240a0.44 0.44 0 1 1 -0.48 0.75z"/>
  <path stroke-width=".038994" d="m220 190a0.22 0.22 0 1 1 0.06 0.43z"/>
  <path stroke-width=".038994" d="m200 210a0.22 0.22 0 0 1 0.4 -0.19z"/>
 </g>
 <g stroke="#fff" stroke-width=".038994" stroke-miterlimit="0" fill="#fff">
  <path d="m157 322a0.22 0.22 0 0 1 -0.44 0 0.22 0.22 0 1 1 0.44 0z"/>
  <path d="m106 312a0.22 0.22 0 0 1 -0.44 0 0.22 0.22 0 1 1 0.44 0z"/>
  <path d="m127 292a0.22 0.22 0 0 1 -0.44 0 0.22 0.22 0 1 1 0.44 0z"/>
  <path d="m116 302a0.22 0.22 0 0 1 -0.44 0 0.22 0.22 0 1 1 0.44 0z"/>
  <path d="m95 159a0.225 0.225 0 0 1 -0.45 0 0.225 0.225 0 1 1 0.45 0z"/>
 </g>
 <use xlink:href="#c" transform="translate(-68.288 -9.0561)" height="580" width="600" y="0" x="0"/>
 <use xlink:href="#b" transform="translate(-68.288 -9.0561)" height="580" width="600" y="0" x="0"/>
 <use xlink:href="#a" transform="translate(-68.288 -9.0561)" height="580" width="600" y="0" x="0"/>
 <use xlink:href="#d" transform="translate(-74.288 -9.0561)" height="580" width="600" y="0" x="0"/>
 <g stroke="#fff" stroke-miterlimit="0" fill="#fff">
  <g stroke-width=".038994">
   <path d="m190 154a0.22 0.22 0 0 1 0.43 0.059z"/>
   <path d="m117 272a0.22023 0.22023 0 1 1 0.28 -0.34z"/>
   <path d="m117 242a0.22 0.22 0 0 1 0.4 -0.17z"/>
   <path d="m144 212a0.22 0.22 0 1 1 0.43 -0.086z"/>
  </g>
  <path stroke-width=".07863" d="m216 90a0.44 0.44 0 0 1 0.59 0.65z"/>
  <g stroke-width=".038994">
   <path d="m136 160a0.22 0.22 0 0 1 -0.44 0 0.22 0.22 0 1 1 0.44 0z"/>
   <path d="m196 190a0.22389 0.22389 0 0 1 0.39 0.22z"/>
   <path d="m216 170a0.22 0.22 0 1 1 0.08 -0.43z"/>
   <path d="m206 120a0.22 0.22 0 1 1 0.083 -0.43z"/>
  </g>
  <path stroke-width=".076056" d="m186 100a0.5 0.37 24 0 1 0.3 -0.67z"/>
  <path stroke-width=".11795" d="m109 24a0.68 0.67 19 0 1 0 -0.9 0.68 0.67 19 0 1 0 0.9z"/>
  <path stroke-width=".038994" d="m120 80a0.22 0.22 0 1 1 0.43 -0.086z"/>
  <path stroke-width=".038994" d="m256 120a0.22 0.22 0 1 1 0.06 0.43z"/>
 </g>
 <use xlink:href="#a" transform="translate(-32.288 -79.056)" height="580" width="600" y="0" x="0"/>
 <g stroke="#fff" stroke-miterlimit="0" fill="#fff">
  <path stroke-width=".038994" d="m153 172a0.22 0.22 0 0 1 0.4 -0.17z"/>
  <path stroke-width=".07863" d="m355.36 183.08a0.44 0.44 0 0 1 0.3111 0.82086z"/>
  <g stroke-width=".038994">
   <path d="m255.29 218.94a0.22 0.22 0 1 1 -0.40946 -0.16108 0.22 0.22 0 0 1 0.40946 0.16108z"/>
   <path d="m300.14 268.82a0.22389 0.22389 0 0 1 0.28238 0.34751z"/>
   <path d="m326.08 257.53a0.22 0.22 0 1 1 0.23186 -0.37087z"/>
   <path d="m335.07 207.34a0.22 0.22 0 1 1 0.23465 -0.36977z"/>
  </g>
  <path stroke-width=".076056" d="m323.78 181.4a0.5 0.37 45.473 0 1 0.52444 -0.51366z"/>
  <path stroke-width=".11795" d="m279.95 82.492a0.68 0.67 40.473 0 1 0.32946 -0.83753 0.68 0.67 40.473 0 1 -0.32946 0.83753z"/>
  <path stroke-width=".038994" d="m269.69 138.63a0.22 0.22 0 1 1 0.43163 0.0774z"/>
  <path stroke-width=".038994" d="m381.6 225.64a0.22 0.22 0 1 1 -0.10158 0.42212z"/>
 </g>
 <use xlink:href="#a" transform="matrix(.93059 .36607 -.36607 .93059 186.19 -65.132)" height="580" width="600" y="0" x="0"/>
 <g stroke="#fff" stroke-miterlimit="0" fill="#fff">
  <path stroke-width=".038994" d="m266.72 236.33a0.22 0.22 0 0 1 0.43447 -0.0118z"/>
  <path stroke-width=".07863" d="m113.04 148.02a0.44 0.44 0 0 1 -0.12435 0.86898z"/>
  <g stroke-width=".038994">
   <path d="m8.0974 131.04a0.22 0.22 0 0 1 -0.2806 -0.33 0.22 0.22 0 1 1 0.2806 0.33z"/>
   <path d="m23.258 196.39a0.22389 0.22389 0 1 1 0.0793 0.4407z"/>
   <path d="m51.418 199.04a0.22 0.22 0 1 1 0.38222 -0.21263z"/>
   <path d="m83.551 159.45a0.22 0.22 0 1 1 0.38413 -0.21032z"/>
  </g>
  <path stroke-width=".076056" d="m86.2 131.29a0.5 0.37 74.373 0 1 0.70737 -0.19624z"/>
  <path stroke-width=".11795" d="m95.626 23.509a0.68 0.67 69.373 0 1 0.69319 -0.57401 0.68 0.67 69.373 0 1 -0.69319 0.57401z"/>
  <path stroke-width=".038994" d="m59.51 67.698a0.22 0.22 0 1 1 0.34048 0.27636z"/>
  <path stroke-width=".038994" d="m115.44 197.96a0.22 0.22 0 1 1 -0.29293 0.32046z"/>
 </g>
 <use xlink:href="#a" transform="matrix(.63779 .77021 -.77021 .63779 84.889 -151.04)" height="580" width="600" y="0" x="0"/>
 <g stroke="#fff" stroke-width=".038994" stroke-miterlimit="0" fill="#fff">
  <path d="m9.6973 151.79a0.22 0.22 0 0 1 0.38607 0.19964z"/>
  <path d="m264 138a0.22 0.22 0 0 1 -0.0009 0.44z"/>
  <path d="m204 48a0.22006 0.22006 0 0 1 -0.01 0.44z"/>
  <path d="m174 138a0.22389 0.22389 0 0 1 0.39 0.22z"/>
  <path d="m194 118a0.22 0.22 0 1 1 0.08 -0.43z"/>
  <path d="m224 88a0.22023 0.22023 0 1 1 0.28 -0.34z"/>
  <path d="m234 58a0.22 0.22 0 1 1 0.083 -0.43z"/>
  <path d="m184 68a0.22 0.22 0 1 1 0.083 -0.43z"/>
  <path d="m204 8a0.22 0.22 0 1 1 0.083 -0.43z"/>
  <path d="m214 88a0.22142 0.22142 0 1 1 0.4 -0.19z"/>
  <path d="m204 32a0.22 0.22 0 0 1 0.43 0.059z"/>
  <path d="m210 68a0.22389 0.22389 0 0 1 0.39 0.22z"/>
  <path d="m230 48a0.22 0.22 0 1 1 0.08 -0.43z"/>
  <path d="m167 50a0.22 0.22 0 0 1 0.4 -0.17z"/>
 </g>
</svg>
