<svg xmlns:rdf="http://www.w3.org/1999/02/22-rdf-syntax-ns#" xmlns="http://www.w3.org/2000/svg" xml:space="preserve" viewBox="0 0 118.58475 64.301247" height="64.301" width="118.58" version="1.1" xmlns:cc="http://creativecommons.org/ns#" xmlns:xlink="http://www.w3.org/1999/xlink" xmlns:dc="http://purl.org/dc/elements/1.1/"><defs><linearGradient id="b"><stop offset="0"/><stop stop-opacity="0" offset="1"/></linearGradient><linearGradient id="a" x1="54.302" gradientUnits="userSpaceOnUse" x2="140.84" gradientTransform="matrix(.72992 -.32752 -.32752 -.72992 .00025954 56.6)" y1="13.116" y2="-10.177"><stop stop-color="#141410" offset="0"/><stop stop-color="#32250f" offset="1"/></linearGradient><clipPath id="t"><path d="m39.961 28.042c11.84 3.597 26.586 5.625 44.238 6.078 17.653 0.426 33.039-0.879 46.16-3.918 13.121-3.016 20.133-6.867 21.039-11.563 0.91-4.691-4.56-8.851-16.4-12.48-11.87-3.625-26.61-5.652-44.24-6.078-17.657-0.426-33.043 0.867-46.16 3.879-13.122 3.039-20.137 6.906-21.043 11.601-0.907 4.692 4.562 8.852 16.402 12.481z"/></clipPath><clipPath id="s"><path d="m28.575-120.94h48.298v45.777h-48.298v-45.777z"/></clipPath><radialGradient id="c" gradientUnits="userSpaceOnUse" cy="-98.06" cx="52.726" r="21.464"><stop stop-color="#fff" stop-opacity=".6471" offset="0"/><stop stop-color="#fff" stop-opacity="0" offset=".9569"/><stop stop-color="#fff" stop-opacity="0" offset="1"/></radialGradient><mask id="d"><g clip-path="url(#s)"><path fill="url(#c)" d="m28.575-120.94h48.298v45.777h-48.298v-45.777z"/></g></mask><linearGradient id="r" y2="33.32" xlink:href="#b" gradientUnits="userSpaceOnUse" x2="95.641" y1="33.32" x1="94.242"/><linearGradient id="q" y2="31.772" xlink:href="#b" gradientUnits="userSpaceOnUse" x2="98.965" y1="31.772" x1="96.316"/><linearGradient id="p" y2="24.66" xlink:href="#b" gradientUnits="userSpaceOnUse" x2="95.324" y1="24.66" x1="92.157"/><linearGradient id="o" y2="38.654" xlink:href="#b" gradientUnits="userSpaceOnUse" x2="101.89" y1="38.654" x1="95.355"/><linearGradient id="n" y2="50.597" xlink:href="#a" gradientUnits="userSpaceOnUse" x2="70.802" y1="50.597" x1="61"/><linearGradient id="m" y2="36.176" xlink:href="#a" gradientUnits="userSpaceOnUse" x2="61.441" y1="36.176" x1="58.359"/><linearGradient id="l" y2="22.252" xlink:href="#a" gradientUnits="userSpaceOnUse" x2="83.041" y1="22.252" x1="75.838"/><linearGradient id="k" y2="24.7" xlink:href="#a" gradientUnits="userSpaceOnUse" x2="104.7" y1="24.7" x1="97.755"/><linearGradient id="j" y2="31.063" xlink:href="#a" gradientUnits="userSpaceOnUse" x2="62.52" y1="31.063" x1="57"/><linearGradient id="i" y2="27.35" xlink:href="#a" gradientUnits="userSpaceOnUse" x2="40.48" y1="27.35" x1="34.961"/><linearGradient id="h" y2="29.73" xlink:href="#a" gradientUnits="userSpaceOnUse" x2="28.526" y1="29.73" x1="21.319"/><linearGradient id="g" y2="20.544" gradientUnits="userSpaceOnUse" x2="40.216" y1="20.544" x1="23.431"><stop stop-color="#1a1408" stop-opacity=".65294" offset="0"/><stop stop-color="#443415" stop-opacity="0" offset="1"/></linearGradient><linearGradient id="f" y2="38.528" gradientUnits="userSpaceOnUse" x2="55.441" y1="38.528" x1="39.038"><stop stop-color="#1a1408" stop-opacity=".65294" offset="0"/><stop stop-color="#443415" stop-opacity="0" offset="1"/></linearGradient><linearGradient id="e" y2="46.616" xlink:href="#a" gradientUnits="userSpaceOnUse" x2="92.564" y1="46.616" x1="83.397"/></defs><g transform="matrix(1.25 0 0 -1.25 -20.063 70.75)"><g><g clip-path="url(#t)"><g transform="matrix(.15104 -.7856 2.9513 .07136 368.92 65.517)"><g mask="url(#d)"><path d="m39.961 28.042c11.84 3.597 26.586 5.625 44.238 6.078 17.653 0.426 33.039-0.879 46.16-3.918 13.121-3.016 20.133-6.867 21.039-11.563 0.91-4.691-4.56-8.851-16.4-12.48-11.87-3.625-26.61-5.652-44.24-6.078-17.657-0.426-33.043 0.867-46.16 3.879-13.122 3.039-20.137 6.906-21.043 11.601-0.907 4.692 4.562 8.852 16.402 12.481z" fill-rule="evenodd"/></g></g></g></g><g fill="#2a200d"><path d="m87.68 52.679c7.148-3.067 12.882-8.797 17.199-17.2 3.336-6.504 5.309-13.238 5.922-20.199 0.238-2.801 0.094-4.906-0.442-6.32-0.558-1.387-1.625-2.371-3.199-2.957-1.387-0.481-3.558-0.762-6.519-0.844h-32.282c-9.812 0.188-18.05 0.789-24.718 1.801-19.016 2.828-28.2 9.265-27.559 19.32 0.344 5.172 3.227 10.055 8.637 14.641 4.933 4.16 11.375 7.597 19.32 10.32 7.68 2.613 15.414 4.078 23.203 4.398 8.184 0.375 15-0.613 20.438-2.96z" fill-rule="evenodd" fill="#2a200d"/></g><g fill-rule="evenodd" stroke="#000" stroke-miterlimit="3.8" stroke-width=".2"><path d="m83.039 21.761c0.027-0.696-0.293-1.243-0.957-1.641-0.641-0.398-1.453-0.535-2.441-0.398-1.016 0.105-1.895 0.464-2.641 1.078-0.746 0.613-1.133 1.281-1.16 2-0.028 0.691 0.32 1.242 1.039 1.64 0.695 0.375 1.547 0.481 2.562 0.321 0.957-0.161 1.786-0.536 2.481-1.122 0.719-0.585 1.094-1.214 1.117-1.878z" fill="url(#l)"/><path d="m25.762 23.882c1.652 0.613 3.679 0.785 6.078 0.519 2.215-0.265 4.133-0.84 5.762-1.722 1.625-0.879 2.492-1.825 2.597-2.84 0.133-1.012-0.504-1.84-1.918-2.481-1.441-0.636-3.281-0.89-5.519-0.758-2.43 0.161-4.547 0.692-6.364 1.602-1.863 0.934-2.851 1.957-2.957 3.078-0.109 1.121 0.664 1.988 2.321 2.602z" fill="url(#g)"/><path d="m104.68 24.042c0.082-0.934-0.172-1.684-0.758-2.242-0.613-0.559-1.387-0.758-2.32-0.598-0.989 0.156-1.852 0.652-2.602 1.477-0.746 0.828-1.16 1.75-1.238 2.761-0.055 0.985 0.238 1.735 0.879 2.239 0.668 0.535 1.48 0.695 2.441 0.48 0.934-0.211 1.746-0.719 2.441-1.52 0.692-0.8 1.079-1.664 1.157-2.597z" fill="url(#k)"/></g><g fill-rule="evenodd"><path d="m98.961 31.44c0.027-0.347-0.082-0.613-0.32-0.801-0.243-0.187-0.532-0.238-0.879-0.16-0.375 0.106-0.707 0.321-1 0.641-0.27 0.32-0.414 0.652-0.442 1-0.027 0.348 0.078 0.613 0.321 0.801 0.238 0.187 0.547 0.226 0.918 0.121 0.347-0.11 0.668-0.32 0.961-0.641 0.265-0.293 0.414-0.613 0.441-0.961z" fill="url(#q)"/><path d="m94.879 34.042c0.453-0.137 0.707-0.442 0.762-0.922 0-0.188-0.067-0.332-0.2-0.441-0.109-0.106-0.253-0.133-0.441-0.079-0.453 0.133-0.707 0.442-0.758 0.918 0 0.215 0.067 0.364 0.199 0.442 0.106 0.105 0.25 0.133 0.438 0.082z" fill="url(#r)"/><path d="m55.441 36.722c0-1.043-0.746-1.774-2.242-2.204-1.519-0.425-3.371-0.425-5.558 0-2.375 0.43-4.399 1.231-6.082 2.403-1.704 1.148-2.547 2.293-2.52 3.437 0.027 1.121 0.91 1.883 2.641 2.281 1.707 0.375 3.734 0.266 6.082-0.32 2.16-0.531 3.984-1.344 5.48-2.437 1.465-1.094 2.199-2.149 2.199-3.16z" stroke="#000" stroke-miterlimit="3.8" stroke-width=".2" fill="url(#f)"/></g><g fill-rule="evenodd"><path d="m62.52 30.561c0-0.535-0.266-0.949-0.801-1.242-0.504-0.293-1.145-0.371-1.918-0.238-0.774 0.133-1.426 0.453-1.961 0.961-0.559 0.476-0.84 1-0.84 1.558 0 0.536 0.281 0.946 0.84 1.239 0.535 0.269 1.187 0.336 1.961 0.203 0.746-0.16 1.387-0.481 1.918-0.961 0.508-0.481 0.773-0.988 0.801-1.52z" stroke="#000" stroke-miterlimit="3.8" stroke-width=".2" fill="url(#j)"/><path d="m40.48 26.839c0-0.532-0.265-0.946-0.8-1.239-0.504-0.293-1.133-0.375-1.879-0.242-0.774 0.133-1.442 0.453-2 0.961-0.535 0.481-0.813 1-0.84 1.563 0 0.558 0.281 0.972 0.84 1.238 0.531 0.293 1.187 0.359 1.961 0.199 0.746-0.16 1.386-0.48 1.918-0.961 0.535-0.476 0.8-0.984 0.8-1.519z" stroke="#000" stroke-miterlimit="3.8" stroke-width=".2" fill="url(#i)"/><path d="m94.801 25.518c0.32-0.343 0.492-0.73 0.519-1.16 0.028-0.398-0.105-0.719-0.398-0.957-0.27-0.242-0.613-0.32-1.043-0.242-0.426 0.082-0.813 0.293-1.16 0.641-0.321 0.347-0.504 0.734-0.559 1.16-0.027 0.426 0.106 0.746 0.399 0.961 0.293 0.238 0.668 0.32 1.121 0.238 0.429-0.078 0.8-0.293 1.121-0.641z" fill="url(#p)"/></g><g fill-rule="evenodd" stroke="#000" stroke-miterlimit="3.8" stroke-width=".2"><path d="m61.441 35.839c0-0.293-0.148-0.52-0.441-0.68-0.293-0.133-0.652-0.145-1.078-0.039-0.43 0.105-0.789 0.293-1.082 0.559-0.32 0.269-0.481 0.546-0.481 0.839 0 0.297 0.161 0.508 0.481 0.641 0.293 0.16 0.652 0.188 1.082 0.082 0.426-0.105 0.785-0.293 1.078-0.562 0.293-0.266 0.441-0.543 0.441-0.84z" fill="url(#m)"/><path d="m28.52 29.202c0.054-0.668-0.254-1.203-0.918-1.602-0.668-0.398-1.497-0.535-2.481-0.398-1.016 0.105-1.879 0.465-2.601 1.078-0.747 0.586-1.145 1.238-1.2 1.961-0.027 0.719 0.321 1.266 1.039 1.641 0.696 0.398 1.547 0.519 2.563 0.359 0.984-0.16 1.824-0.535 2.519-1.121 0.692-0.586 1.051-1.227 1.079-1.918z" fill="url(#h)"/><path d="m92.559 44.921c0.054-0.852-0.317-1.442-1.118-1.762-0.828-0.293-1.855-0.227-3.082 0.199-1.304 0.453-2.453 1.176-3.437 2.16-0.961 0.989-1.469 1.934-1.524 2.84-0.023 0.91 0.403 1.496 1.282 1.762 0.906 0.266 2.015 0.133 3.32-0.398 1.227-0.508 2.293-1.227 3.199-2.161 0.883-0.906 1.336-1.789 1.36-2.64z" fill="url(#e)"/></g><path d="m101.88 37.561c0.055-0.64-0.199-1.093-0.758-1.359-0.586-0.27-1.332-0.27-2.242 0-0.93 0.293-1.731 0.785-2.399 1.477-0.691 0.722-1.066 1.414-1.121 2.082-0.05 0.664 0.243 1.132 0.883 1.398 0.613 0.242 1.387 0.188 2.32-0.16 0.879-0.32 1.637-0.813 2.278-1.481 0.668-0.664 1.012-1.316 1.039-1.957z" fill-rule="evenodd" fill="url(#o)"/><path d="m70.801 48.921c0.027-0.508-0.414-0.774-1.321-0.801-0.906-0.051-2.027 0.133-3.359 0.559-1.387 0.453-2.574 1.043-3.562 1.761-1.012 0.696-1.532 1.305-1.559 1.84 0 0.508 0.508 0.774 1.52 0.801 0.988 0.027 2.175-0.215 3.562-0.723 1.277-0.453 2.383-1.023 3.316-1.719 0.911-0.664 1.375-1.238 1.403-1.718z" fill-rule="evenodd" stroke="#000" stroke-miterlimit="3.8" stroke-width=".2" fill="url(#n)"/></g></svg>
