<svg xmlns:rdf="http://www.w3.org/1999/02/22-rdf-syntax-ns#" xmlns="http://www.w3.org/2000/svg" height="676.96" width="599.99" version="1.1" xmlns:cc="http://creativecommons.org/ns#" xmlns:dc="http://purl.org/dc/elements/1.1/" viewBox="0 0 599.99403 676.95826">
 <defs>
  <linearGradient id="m" x1="1427.8" gradientUnits="userSpaceOnUse" y1="24.28" gradientTransform="matrix(.24829 0 0 .11571 42.575 282.46)" x2="1967.8" y2="3521.8">
   <stop stop-color="#133d5e" offset="0"/>
   <stop stop-color="#124a60" stop-opacity=".92549" offset=".11938"/>
   <stop stop-color="#144068" stop-opacity=".90196" offset=".37716"/>
   <stop stop-color="#2c0e40" stop-opacity=".79608" offset=".59304"/>
   <stop stop-opacity=".89744" stop-color="#743117" offset=".8051"/>
   <stop stop-color="#dfae0a" stop-opacity=".74902" offset="1"/>
  </linearGradient>
  <linearGradient id="p" y2="1274.7" gradientUnits="userSpaceOnUse" y1="1504.5" gradientTransform="matrix(.99997 0 0 1.4565 41.998 -1225.3)" x2="295.18" x1="290.7">
   <stop stop-color="#073645" offset="0"/>
   <stop stop-color="#00465c" offset=".40722"/>
   <stop stop-color="#112f3d" stop-opacity=".88235" offset=".65832"/>
   <stop stop-color="#6e4025" offset=".90547"/>
   <stop stop-color="#af6032" offset="1"/>
  </linearGradient>
  <filter id="g" y="-.15618" x="-.042378" height="1.3124" width="1.0848">
   <feGaussianBlur stdDeviation="27.018125"/>
  </filter>
  <filter id="k" y="-.2175" x="-.051540" height="1.435" width="1.1031">
   <feGaussianBlur stdDeviation="21.170797"/>
  </filter>
  <filter id="d" y="-.32272" x="-.059167" height="1.6454" width="1.1183">
   <feGaussianBlur stdDeviation="15.099668"/>
  </filter>
  <filter id="e" y="-.17703" x="-.032948" height="1.3541" width="1.0659">
   <feGaussianBlur stdDeviation="8.282884"/>
  </filter>
  <filter id="f" y="-.23053" x="-.046781" height="1.4611" width="1.0936">
   <feGaussianBlur stdDeviation="11.938631"/>
  </filter>
  <clipPath id="j" clipPathUnits="userSpaceOnUse">
   <circle stroke-width="1.0195" stroke-opacity=".69804" fill-opacity=".98974" stroke="#31389b" cy="934.59" cx="1428.6" r="111.25" fill="#a25c18"/>
  </clipPath>
  <linearGradient id="h" y2="1040.1" gradientUnits="userSpaceOnUse" y1="888.17" x2="1416.6" x1="1415.9">
   <stop stop-color="#f091d4" stop-opacity=".51795" offset="0"/>
   <stop stop-color="#d5781c" stop-opacity=".37436" offset="1"/>
  </linearGradient>
  <radialGradient id="n" gradientUnits="userSpaceOnUse" cy="675.73" cx="562.35" gradientTransform="translate(2.164,15.898)" r="27.574">
   <stop stop-color="#761200" offset="0"/>
   <stop stop-opacity=".53725" stop-color="#a40" offset="1"/>
  </radialGradient>
  <filter id="q" y="-.22642" width="1.4528" x="-.22642" height="1.4528">
   <feGaussianBlur stdDeviation="2.6954178"/>
  </filter>
  <radialGradient id="o" gradientUnits="userSpaceOnUse" cy="493.59" cx="50" gradientTransform="matrix(10.596,-4.6347e-6,4.5903e-6,10.498,-807.18,-5813.2)" r="14.286">
   <stop stop-color="#ffc899" stop-opacity=".93846" offset="0"/>
   <stop stop-color="#af9700" stop-opacity=".020513" offset="1"/>
  </radialGradient>
  <linearGradient id="i" y2="530.35" gradientUnits="userSpaceOnUse" y1="530.35" x2="2373.2" x1="1823.9">
   <stop stop-color="#ad9cac" offset="0"/>
   <stop stop-color="#ad9cac" stop-opacity="0" offset="1"/>
  </linearGradient>
 </defs>
 <g transform="matrix(.99999 0 0 .99999 9.1019 -82.432)">
  <g transform="translate(131.83,267.62)">
   <g transform="translate(-182.93,-467.65)">
    <rect height="360.8" width="600" stroke-miterlimit="0" y="282.46" x="41.998" stroke-width="0" fill="url(#m)"/>
    <text style="word-spacing:0px;letter-spacing:0px" xml:space="preserve" font-size="40px" y="991.03918" x="1418.9371" font-family="Sans" line-height="125%"><tspan y="991.03918" x="1418.9371"/></text>
    <text style="word-spacing:0px;letter-spacing:0px" xml:space="preserve" font-size="13px" y="1293.6891" x="1315.4353" font-family="&apos;Arial Hebrew&apos;" line-height="125%"><tspan y="1293.6891" x="1315.4353"/></text>
    <text style="word-spacing:0px;letter-spacing:0px" xml:space="preserve" font-size="6px" y="1303.9227" x="1314.1394" font-family="Krungthep" line-height="125%"><tspan y="1303.9227" x="1314.1394"/></text>
    <g transform="translate(40.8,-67.496)">
     <g stroke-miterlimit="0" stroke="#fff" fill="#fff">
      <path stroke-width=".15726" d="m140 400a0.9 0.9 0 0 1 -1.8 0 0.9 0.9 0 1 1 1.8 0z"/>
      <path stroke-width=".076056" d="m190 390z"/>
      <path stroke-width=".076056" d="m100 370a0.38146 0.522 51 0 1 -0.9 0 0.38146 0.522 51 1 1 0.9 0z"/>
      <path stroke-width=".038994" d="m38 360a0.22 0.22 0 1 1 0.36 0 0.22 0.22 0 0 1 -0.36 0z"/>
      <g stroke-width=".038994">
       <path d="m330 390a0.22277 0.22277 0 1 1 0.31 -0.32z"/>
       <path d="m290 360z"/>
       <path d="m220 330z"/>
      </g>
      <path stroke-width=".076056" d="m190 350a0.5 0.37 62 1 1 0.64 -0.35z"/>
      <g stroke-width=".038994">
       <path d="m160 370a0.22 0.22 0 0 1 0.081 -0.43z"/>
       <path d="m180 410a0.22 0.22 0 0 1 0.081 -0.43z"/>
       <path d="m400 350a0.22 0.22 0 1 1 -0.42 0.13z"/>
       <path d="m110 380z"/>
       <path d="m62 370z"/>
      </g>
     </g>
     <text font-size="40px" xml:space="preserve" style="word-spacing:0px;letter-spacing:0px" y="915.52228" x="440.44522" font-family="Sans" line-height="125%"><tspan y="915.52228" x="440.44522"/></text>
     <text font-size="13px" xml:space="preserve" style="word-spacing:0px;letter-spacing:0px" y="1218.1722" x="336.94339" font-family="&apos;Arial Hebrew&apos;" line-height="125%"><tspan y="1218.1722" x="336.94339"/></text>
     <text font-size="6px" xml:space="preserve" style="word-spacing:0px;letter-spacing:0px" y="1228.4059" x="335.64749" font-family="Krungthep" line-height="125%"><tspan y="1228.4059" x="335.64749"/></text>
     <g stroke-miterlimit="0" stroke="#fff">
      <g fill="#fff">
       <path stroke-width=".078479" d="m140 390a0.44119 0.44119 0 0 1 0.69 -0.55z"/>
       <g stroke-width=".076056">
        <path d="m120 500a0.5 0.37 51 1 1 0.58 -0.45 0.5 0.37 51 0 1 -0.58 0.45z"/>
        <path d="m81 410a0.56 0.41 51 1 1 0.9 0 0.56 0.41 51 0 1 -0.9 0z"/>
        <path d="m85 550a0.38 0.52 52 0 1 -0.9 0 0.38 0.52 52 1 1 0.9 0z"/>
       </g>
       <path stroke-width=".078479" d="m58 510a0.45 0.45 0 0 1 -0.9 0 0.45 0.45 0 1 1 0.9 0z"/>
       <path stroke-width=".038994" d="m130 430a0.22 0.22 0 0 1 0.43 0.082z"/>
       <path stroke-width=".038994" d="m150 550a0.22023 0.22023 0 0 1 0.34 0.28z"/>
       <path stroke-width=".076056" d="m45 430a0.37 0.5 6.6 1 1 0.73 0.09 0.45 0.61 6.6 0 1 -0.9 0z"/>
       <path stroke-width=".11795" d="m110 450z"/>
       <path stroke-width=".15726" d="m170 530a0.89022 0.89022 0 0 1 -1.4 -1.1 0.89022 0.89022 0 1 1 1.4 1.1z"/>
       <path stroke-width=".076056" d="m140 420a0.5 0.37 51 1 1 0.58 -0.45 0.5 0.37 51 0 1 -0.58 0.45z"/>
       <path stroke-width=".076056" d="m180 500a0.37 0.5 24 1 1 0.67 0.31z"/>
       <path stroke-width=".064" d="m220 500a0.39 0.34 23 0 1 0.26 -0.62z"/>
       <path stroke-width=".038994" d="m170 550a0.22 0.22 0 1 1 0.17 0.4z"/>
       <path stroke-width=".076056" d="m200 420z"/>
       <path stroke-width=".038994" d="m220 440a0.22 0.22 0 0 1 -0.36 0.25 0.22 0.22 0 1 1 0.36 -0.25z"/>
       <path stroke-width=".076056" d="m250 460z"/>
       <g stroke-width=".038994">
        <path d="m190 460a0.22 0.22 0 0 1 -0.36 0.25 0.22 0.22 0 1 1 0.36 -0.25z"/>
        <path d="m210 490a0.22 0.22 0 0 1 -0.36 0.25 0.22 0.22 0 1 1 0.36 -0.25z"/>
        <path d="m230 490a0.22 0.22 0 0 1 -0.36 0.25 0.22 0.22 0 1 1 0.36 -0.25z"/>
        <path d="m230 470a0.22 0.22 0 0 1 -0.36 0.25 0.22 0.22 0 1 1 0.36 -0.25z"/>
        <path d="m190 460a0.22 0.22 0 1 1 -0.18 -0.4 0.22 0.22 0 0 1 0.18 0.4z"/>
        <path d="m250 430z"/>
       </g>
       <path stroke-width=".076056" d="m260 420z"/>
       <path stroke-width=".078479" d="m240 440z"/>
       <path stroke-width=".038994" d="m220 410z"/>
       <path stroke-width=".038994" d="m230 420z"/>
       <path stroke-width=".11795" d="m210 460a0.68 0.67 55 0 1 -1.1 0.76 0.68 0.67 55 1 1 1.1 -0.76z"/>
      </g>
     </g>
     <g transform="matrix(1.0279 0 0 1.1952 844.05 1537.1)">
      <ellipse rx="172.8" ry="172.83" cy="-644.3" cx="-277.35" fill="url(#o)"/>
      <circle fill-opacity=".78462" transform="matrix(5.193,0,0,5.3721,-536.25,-3282.3)" filter="url(#q)" cy="492.36" cx="50" r="14.286" fill="#765e00"/>
     </g>
     <circle cy="691.63" cx="564.51" r="27.574" fill="url(#n)"/>
    </g>
    <rect height="318.51" width="599.9" y="640.92" x="42.049" fill="url(#p)"/>
   </g>
  </g>
  <g transform="matrix(.16777 0 0 .16777 168.29 280.56)">
   <title>Layer 1</title>
   <path opacity=".5" d="m1419.2 783.86c-27.528 10.816-42.421 65.537-75.762 41.379-41.864 3.8246-90.157-1.1741-126.41 27.754-26.832 14.878 35.812 1.3863 1.4238 15.164-27.093 10.959-64.723 25.669-81.96-8.9297-25.035-8.4753-84.067 14.802-57.391 48.055 13.409 11.379-26.501 7.6636-33.55 11.558-17.011-0.72158-46.883 29.105-37.827 28.614 24.364 9.2544 51.279 19.368 71.971 41.473 32.12 34.127 72.228 14.38 111.06 25.081 28.154 1.5748 52.325 25.018 79.66 26.249 179.91 14.765 249.29 15.26 459.56-21.647 41.909-10.46 71.809-50.329 100.91-40.411 5.0658-11.721 42.174-2.527 66.158-20.653-30.619-12.61-59.33-5.6117-75.849-28.548-27.428 13.792-29.976-33.127-62.451-27.683-30.694-22.413-63.501 8.8363-91.448-2.4684 5.907-18.554 44.151-8.6911 35.651-8.5087 19.226 5.1103 62.566-6.2923 18.842-10.778-20.15-3.0203-76.271 8.6662-40.604-12.586-39.257 0.50455-73.102-35.273-112.63-36.542 17.277-58.668-61.314-31.918-87.281-28.624-46.977 0.34683 36.454 20.876-0.089 29.144-35.439 11.57-38.321-32.161-61.988-47.094zm280.8 106.1-0.9293 0.0618zm-0.936 0.0587c-5.7867-4.1911-8.6324 4.9498 0 0zm-4.0251-0.76354c-3.5473-0.7915-2.2312-0.49783 0 0zm-206.17-79.378c-12.887 1.2518-21.695-0.0599 0 0zm48.956 5.8439c-12.722 9.4037-17.619-5.0725 0 0zm-122.72 10.073c1.3681 1.5198-2.1182 0.26969 0 0zm27.427 6.5487c-2.7728 4.0162-14.056-1.2837 0 0zm-107.95 3.5827c-14.212 4.8508-12.791-1.1884 0 0zm195.03 0.76351c16.526-2.4957 61.206 20.384 43.164 21.099 6.7767-27.775-74.816-11.409-43.164-21.099zm-102.5 0.29369c-2.8724 6.2167-12.344-6.3865 0 0zm85.814 12.187c22.041-1.6355 24.511 9.8066 1.6632 6.4504-4.4065 3.4383-14.502-2.4404-1.6632-6.4504zm-26.772 5.8146c22.797 2.0878-15.866 5.0876 0 0zm20.055 4.3756c35.95-7.2717 28.334 33.672-1.0241 16.987-4.5056-4.3872-2.5752-12.811 1.0241-16.987zm-24.01 13.832c54.951 8.9392-29.757 5.2961 0 0zm191.36 6.9011c16.325-0.0591 29.811 1.2643 5.0262 0.23727zm-197.91 1.7326c10.341 0.12716 2.2633 0.0278 0 0zm155.67 5.0217c14.41 4.4874-25.516 2.1496 0 0zm79.8 17.708c13.461-1.7679 68.264 21.919 28.399 14.3-10.041-1.6291-21.845-3.063-28.399-14.3zm-648.73 43.02c-0.1982 3.5663-5.0596-5.0666 0 0zm-2.0996 1.1613c3.3827-0.8659 8.8982 7.6962 0 0zm762.96 13.225c7.4439 2.8221 43.297-8.1049 17.184-1.0767 10.802-6.0698 27.596 0.71231 6.3493 2.8122-7.6852-1.7921-19.414 12.136-23.533-1.7354zm-675 27.732c-0.019 2.0489-2.9124-2.7866 0 0zm4.2397 9.7199c-3.4313 0.68174-1.7634 0.36172 0 0zm-41.435-6.3857c14.363 6.4807 73.925 6.5955 29.027 11.666-9.8604-0.3038-20.478-2.555-29.027-11.666zm76.467 8.9362c5.1559-2.4794 2.8152 9.9854 0 0zm572.74 3.8411-0.578 0.368z" fill-opacity=".31795" transform="matrix(.8217 0 0 .41054 847.57 517.76)" filter="url(#g)" stroke-width="5" fill="#fff"/>
   <g opacity=".75" transform="matrix(.74885 0 0 .93973 -1328.4 547.04)" filter="url(#f)" stroke-width="5" fill="#fff">
    <path opacity=".41111" d="m379.13 219.53c32.649 13.047 132.05 19.101 1.7891 7.5759 30.726-9.9705 119.98-56.146 120.99-8.1535-17.889 10.982 12.426 10.891 10.835 10.754-87.384-7.5184-68.799 0.0266-36.265-11.579 45.943-15.142 102.41-31.659 107.98 26.033 5.3399-0.63961 21.373-1.3986 16.02-1.9188-20.513-1.9936-41.29-0.29015-61.778-2.5282-11.404-1.2458 22.792-3.3695 34.263-3.244 89.246 0.97668 63.506-2.3166 106.47 4.1553 6.0897-0.2204 24.357-0.40156 18.269-0.66122-21.671-0.92418-43.39-0.36183-65.059-1.3342-5.3229-0.23885 10.633-0.87689 15.961-0.86896 30.731 0.0458 61.491 2.4726 92.189 1.0302 26.628-1.2511-54.159 1.3836-79.736-6.1264-33.392-11.064-173.96-29.539 3.3166-17.738 21.062 1.402 60.617 30.781 79.79 42.311 52.904 39.522-172.69 14.65-71.544-13.495 41.223 0.61927 82.463 0.49199 123.67 1.8578 61.581 2.0412-34.111 32.001-89.453 13.946-7.6108-5.2305-108.74-22.281-106.82-31.919 1.2739-6.4002 10.856-7.244 16.285-10.866 54.067 0.54388 119.11 1.0438 169.61 27.67-3.9611 15.207-1.0822 8.1402-8.4044 21.293l-67.916-4.882c8.0734-4.175 7.4036-1.9002-1.9486-6.8423-30.389-7.9302-151.98-32.979-24.822-27.374 1.5109-20.361 85.341 11.192 101.73 23.16 32.303 11.09-3.7058-2.6316-46.943 4.7866-3.387 0.58108 4.6945 5.0198 7.0418 7.5297-7.4165 0.26163-14.833 0.52329-22.249 0.78488-9.0502-0.25216-36.068-1.1048-27.075-2.1592 22.794-2.6728 45.864-1.822 68.795-2.733-10.309-0.86566-20.731-0.84909-30.928-2.597-1.4038-0.24064-3.98-4.0468-2.8411-3.1915 46.315 34.782-88.894 34.515-101.59 16.424-128.53-94.743 55.231-104.49 108.43-41.63 13.137 46.473 1.1745-14.97-74.057 23.558-18.935 9.6972 42.542-0.87527 63.816-0.86935 4.4194 0.001-8.8111 0.76166-13.229 0.88345-96.309 2.6551-65.674 4.343-111.41 1.1732-35.167-4.5243-19.603-1.8422 51.012-2.8753 10.408-0.15227-20.667 2.7481-31.069 3.1291-95.683 3.5051-68.066 15.042-105.81-2.9912-36.207-46.149 109.43-34.717 36.6-21.408-35.606 12.84-126.63 48.601-118.17 2.4749 92.985-4.1002 69.69-8.5189 20.322 14.206-50.036 2.5728-98.174 11.541-141.77-15.835l65.684-8.9173z" filter="url(#e)"/>
    <path filter="url(#d)" d="m371.72 210.16c32.931 13.879 132.13 19.329 3.4512 12.006 31.259-8.8251 121.74-53.042 123.67-4.4071-17.525 10.963 12.981 10.81 11.418 10.627-86.204-10.089-68-1.2242-35.06-14.285 46.416-17.35 103.69-37.641 109.26 20.051 5.3399-0.63961 21.373-1.3986 16.02-1.9188-20.513-1.9936-41.299-0.25429-61.778-2.5282-11.402-1.2661 22.792-3.3695 34.263-3.244 89.246 0.97668 63.506-2.3166 106.47 4.1553 6.0897-0.2204 24.357-0.40157 18.269-0.66122-21.671-0.92418-43.39-0.36185-65.059-1.3342-5.3229-0.23885 10.633-0.87689 15.961-0.86896 30.731 0.0458 61.491 2.4726 92.189 1.0302 26.628-1.2511-54.159 1.3836-79.736-6.1264-33.392-11.064-173.96-29.539 3.3166-17.738 21.062 1.402 60.617 30.781 79.79 42.311 52.904 39.522-172.69 14.65-71.544-13.495 41.223 0.61927 82.463 0.49199 123.67 1.8578 61.581 2.0412-34.111 32.001-89.453 13.946-7.6108-5.2305-108.74-22.281-106.82-31.919 1.2739-6.4002 10.856-7.244 16.285-10.866 54.067 0.54388 119.11 1.0438 169.61 27.67-3.9611 15.207-1.0822 8.1402-8.4044 21.293l-67.916-4.882c8.0734-4.175 7.4036-1.9001-1.9486-6.8423-30.389-7.9302-151.98-32.979-24.822-27.374 1.5109-20.361 85.341 11.192 101.73 23.16 32.303 11.09-3.7058-2.6316-46.943 4.7866-3.387 0.58108 4.6945 5.0198 7.0418 7.5297-7.4165 0.26162-14.833 0.52327-22.249 0.78486-9.0502-0.25216-36.068-1.1048-27.075-2.1592 22.794-2.6728 45.864-1.822 68.795-2.733-10.309-0.86567-20.731-0.84911-30.928-2.597-1.4038-0.24065-3.98-4.0468-2.8411-3.1915 46.315 34.782-88.894 34.515-101.59 16.424-128.53-94.743 55.231-104.49 108.43-41.63 13.137 46.473 1.1745-14.97-74.057 23.558-18.935 9.6972 42.542-0.87527 63.816-0.86935 4.4194 0.001-8.8111 0.76165-13.229 0.88345-96.309 2.6551-65.674 4.343-111.41 1.1732-35.167-4.5243-19.603-1.8422 51.012-2.8753 10.408-0.15227-20.667 2.7481-31.069 3.1291-95.683 3.5051-68.066 15.042-105.81-2.9912-36.42-46.149 109.43-34.717 36.6-21.408-35.606 12.84-130.11 48.601-122.73 2.4749 91.209-4.1002 68.828-8.5189 18.509 14.206-50.723 2.5728-99.418 11.541-143.01-15.835l65.894-8.2791z"/>
   </g>
   <path opacity=".5" d="m1354.5 901.39c-29.13 16.553 24.12 100.43-6.2162 60.721 30.336 39.709 84.792 51.749 98.563 51.734 4.248 115.15 52.58-85.848 30.191-120.54-35.439 11.57-55.859 24.763-79.526 9.8298 0 0-12.983 15.94-43.011-1.743zm24.12 100.43c5.1546-2.0161-7.6179-0.2192 0 0zm55.435-100.33c-2.7728 4.0162-14.056-1.2837 0 0zm79.827 43.087c-67.035 69.265-29.757 5.2961 0 0zm2.9657-40.544c10.341 0.12716 2.2633 0.0278 0 0zm-19.73 85.804c16.764-45.26-394.32-25.918 0 0z" stroke-opacity=".6" clip-path="url(#j)" fill-opacity=".69231" transform="matrix(1.5025 0 0 .81457 156.38 216.32)" filter="url(#g)" stroke="url(#h)" stroke-width="30.547" fill="#170d04"/>
   <g stroke-width="5">
    <g fill="#fff" transform="translate(-274.19,-95.37)">
     <path opacity="0.37" d="m2304.1 875.48c-16.139 4.0227-32.279 7.4909-48.418 10.46 25.842 9.2103 48.948 26.23 76.648 26.361 21.034 2.7394 39.877-8.0497 51.69 9.7314 18.381 8.8234 37.235 25.564 60.489 14.903 21.161-11.219 38.782-9.2677 60.268-3.9853 16.62 8.0537 35.071 19.243 54.948 13.146 24.385-3.9518 38.722 17.992 59.08 30.106 15.746 8.1846 42.446 9.035 52.213 18.478-0.5529 31.317 35.298 28.042 53.186 22.085 12.892-4.283 32.081-13.952 27.639-33.65 24.031 6.6105 37.17-24.008 59.53-26.46 15.183-17.272 35.473-18.654 54.318-27.783 20.058-18.488-23.708-19.039-34.322-18.553-19.606 4.3636-38.237-3.4475-57.91-1.4826-10.447 0.5577-22.61 5.0101-6.9852-4.7097-3.3691-23.31-41.964-14.046-59.395-14.701-22.994-2.7056-46.427 22.315-67.101 8.054-28.448-15.752-64.039-35.087-93.672-11.756-6.7425-9.3828-32.987-20.362-30.668-27.164-17.157-2.9235-52.645-16.583-68.162 13.168-18.586 16.605 22.05 39.243-1.1892 37.749-15.854-7.3618-34.24-12.213-52.49-8.9269-17.531-1.6462 2.5079 3.7285 2.6444-9.3582-25.135 1.971-49.8-2.1434-73.288-12.642-6.183-1.7537-12.562-2.9253-19.056-3.0705zm89.465 23.572c7.4285 2.5758 13.605-4.0886 0 0zm300.69 6.0353c-4.9842 3.268-17.707 1.8902 0 0zm-97.632 11.017c23.598 3.4644-5.251 3.2444 0 0zm171.67 1.2394c-6.7846 3.8215-20.257 10.125-5.6063 2.1547l2.597-1.0433 3.0093-1.1114zm-164.37 5.6187c7.4295-1.3074 23.714 2.3553 6.1968 2.4357l-4.1141-0.1497-2.0827-2.286zm152.02 3.9385c1.5566-0.4266 0.2758 0.5315 0 0zm-36.787 12.036c-4.149 12.822-28.389 1.3296-8.4665 1.1403l3.8554-0.5519 4.6111-0.5884z" transform="matrix(-1.0131 0 0 -.76913 4931.5 1593.2)" filter="url(#k)"/>
     <g opacity=".75" filter="url(#f)" transform="matrix(.74885 0 0 .93973 1908.3 599.34)">
      <path opacity=".41111" d="m379.13 219.53c32.649 13.047 132.05 19.101 1.7891 7.5759 30.726-9.9705 119.98-56.146 120.99-8.1535-17.889 10.982 12.426 10.891 10.835 10.754-87.384-7.5184-68.799 0.0266-36.265-11.579 45.943-15.142 102.41-31.659 107.98 26.033 5.3399-0.63961 21.373-1.3986 16.02-1.9188-20.513-1.9936-41.29-0.29015-61.778-2.5282-11.404-1.2458 22.792-3.3695 34.263-3.244 89.246 0.97668 63.506-2.3166 106.47 4.1553 6.0897-0.2204 24.357-0.40156 18.269-0.66122-21.671-0.92418-43.39-0.36183-65.059-1.3342-5.3229-0.23885 10.633-0.87689 15.961-0.86896 30.731 0.0458 61.491 2.4726 92.189 1.0302 26.628-1.2511-54.159 1.3836-79.736-6.1264-33.392-11.064-173.96-29.539 3.3166-17.738 21.062 1.402 60.617 30.781 79.79 42.311 52.904 39.522-172.69 14.65-71.544-13.495 41.223 0.61927 82.463 0.49199 123.67 1.8578 61.581 2.0412-34.111 32.001-89.453 13.946-7.6108-5.2305-108.74-22.281-106.82-31.919 1.2739-6.4002 10.856-7.244 16.285-10.866 54.067 0.54388 119.11 1.0438 169.61 27.67-3.9611 15.207-1.0822 8.1402-8.4044 21.293l-67.916-4.882c8.0734-4.175 7.4036-1.9002-1.9486-6.8423-30.389-7.9302-151.98-32.979-24.822-27.374 1.5109-20.361 85.341 11.192 101.73 23.16 32.303 11.09-3.7058-2.6316-46.943 4.7866-3.387 0.58108 4.6945 5.0198 7.0418 7.5297-7.4165 0.26163-14.833 0.52329-22.249 0.78488-9.0502-0.25216-36.068-1.1048-27.075-2.1592 22.794-2.6728 45.864-1.822 68.795-2.733-10.309-0.86566-20.731-0.84909-30.928-2.597-1.4038-0.24064-3.98-4.0468-2.8411-3.1915 46.315 34.782-88.894 34.515-101.59 16.424-128.53-94.743 55.231-104.49 108.43-41.63 13.137 46.473 1.1745-14.97-74.057 23.558-18.935 9.6972 42.542-0.87527 63.816-0.86935 4.4194 0.001-8.8111 0.76166-13.229 0.88345-96.309 2.6551-65.674 4.343-111.41 1.1732-35.167-4.5243-19.603-1.8422 51.012-2.8753 10.408-0.15227-20.667 2.7481-31.069 3.1291-95.683 3.5051-68.066 15.042-105.81-2.9912-36.207-46.149 109.43-34.717 36.6-21.408-35.606 12.84-126.63 48.601-118.17 2.4749 92.985-4.1002 69.69-8.5189 20.322 14.206-50.036 2.5728-98.174 11.541-141.77-15.835l65.684-8.9173z" filter="url(#e)"/>
      <path filter="url(#d)" d="m339.88 184.79c32.931 13.879 132.13 19.329 3.4512 12.006 31.259-8.8251 121.74-53.042 123.67-4.4071-17.525 10.963 12.981 10.81 11.418 10.627-86.204-10.089-68-1.2242-35.06-14.285 46.416-17.35 103.69-37.641 109.26 20.051 5.3399-0.63961 21.373-1.3986 16.02-1.9188-20.513-1.9936-41.299-0.25429-61.778-2.5282-11.402-1.2661 22.792-3.3695 34.263-3.244 89.246 0.97668 63.506-2.3166 106.47 4.1553 6.0897-0.2204 24.357-0.40157 18.269-0.66122-21.671-0.92418-43.39-0.36185-65.059-1.3342-5.3229-0.23885 10.633-0.87689 15.961-0.86896 30.731 0.0458 61.491 2.4726 92.189 1.0302 26.628-1.2511-54.159 1.3836-79.736-6.1264-33.392-11.064-173.96-29.539 3.3166-17.738 21.062 1.402 60.617 30.781 79.79 42.311 52.904 39.522-172.69 14.65-71.544-13.495 41.223 0.61927 82.463 0.49199 123.67 1.8578 61.581 2.0412-34.111 32.001-89.453 13.946-7.6108-5.2305-108.74-22.281-106.82-31.919 1.2739-6.4002 10.856-7.244 16.285-10.866 54.067 0.54388 119.11 1.0438 169.61 27.67-3.9611 15.207-1.0822 8.1402-8.4044 21.293l-67.916-4.882c8.0734-4.175 7.4036-1.9001-1.9486-6.8423-30.389-7.9302-151.98-32.979-24.822-27.374 1.5109-20.361 85.341 11.192 101.73 23.16 32.303 11.09-3.7058-2.6316-46.943 4.7866-3.387 0.58108 4.6945 5.0198 7.0418 7.5297-7.4165 0.26162-14.833 0.52327-22.249 0.78486-9.0502-0.25216-36.068-1.1048-27.075-2.1592 22.794-2.6728 45.864-1.822 68.795-2.733-10.309-0.86567-20.731-0.84911-30.928-2.597-1.4038-0.24065-3.98-4.0468-2.8411-3.1915 46.315 34.782-88.894 34.515-101.59 16.424-128.53-94.743 55.231-104.49 108.43-41.63 13.137 46.473 1.1745-14.97-74.057 23.558-18.935 9.6972 42.542-0.87527 63.816-0.86935 4.4194 0.001-8.8111 0.76165-13.229 0.88345-96.309 2.6551-65.674 4.343-111.41 1.1732-35.167-4.5243-19.603-1.8422 51.012-2.8753 10.408-0.15227-20.667 2.7481-31.069 3.1291-95.683 3.5051-68.066 15.042-105.81-2.9912-36.42-46.149 109.43-34.717 36.6-21.408-35.606 12.84-130.11 48.601-122.73 2.4749 91.209-4.1002 68.828-8.5189 18.509 14.206-50.723 2.5728-99.418 11.541-143.01-15.835l65.894-8.2791z"/>
     </g>
     <g opacity=".75" fill-opacity=".33846" transform="matrix(4.7736 0 0 .57833 -1945.9 774.37)" filter="url(#f)">
      <path opacity=".41111" d="m379.13 219.53c32.649 13.047 132.05 19.101 1.7891 7.5759 30.726-9.9705 119.98-56.146 120.99-8.1535-17.889 10.982 12.426 10.891 10.835 10.754-87.384-7.5184-68.799 0.0266-36.265-11.579 45.943-15.142 102.41-31.659 107.98 26.033 5.3399-0.63961 21.373-1.3986 16.02-1.9188-20.513-1.9936-41.29-0.29015-61.778-2.5282-11.404-1.2458 22.792-3.3695 34.263-3.244 89.246 0.97668 63.506-2.3166 106.47 4.1553 6.0897-0.2204 24.357-0.40156 18.269-0.66122-21.671-0.92418-43.39-0.36183-65.059-1.3342-5.3229-0.23885 10.633-0.87689 15.961-0.86896 30.731 0.0458 61.491 2.4726 92.189 1.0302 26.628-1.2511-54.159 1.3836-79.736-6.1264-33.392-11.064-173.96-29.539 3.3166-17.738 21.062 1.402 60.617 30.781 79.79 42.311 52.904 39.522-172.69 14.65-71.544-13.495 41.223 0.61927 82.463 0.49199 123.67 1.8578 61.581 2.0412-34.111 32.001-89.453 13.946-7.6108-5.2305-108.74-22.281-106.82-31.919 1.2739-6.4002 10.856-7.244 16.285-10.866 54.067 0.54388 119.11 1.0438 169.61 27.67-3.9611 15.207-1.0822 8.1402-8.4044 21.293l-67.916-4.882c8.0734-4.175 7.4036-1.9002-1.9486-6.8423-30.389-7.9302-151.98-32.979-24.822-27.374 1.5109-20.361 85.341 11.192 101.73 23.16 32.303 11.09-3.7058-2.6316-46.943 4.7866-3.387 0.58108 4.6945 5.0198 7.0418 7.5297-7.4165 0.26163-14.833 0.52329-22.249 0.78488-9.0502-0.25216-36.068-1.1048-27.075-2.1592 22.794-2.6728 45.864-1.822 68.795-2.733-10.309-0.86566-20.731-0.84909-30.928-2.597-1.4038-0.24064-3.98-4.0468-2.8411-3.1915 46.315 34.782-88.894 34.515-101.59 16.424-128.53-94.743 55.231-104.49 108.43-41.63 13.137 46.473 1.1745-14.97-74.057 23.558-18.935 9.6972 42.542-0.87527 63.816-0.86935 4.4194 0.001-8.8111 0.76166-13.229 0.88345-96.309 2.6551-65.674 4.343-111.41 1.1732-35.167-4.5243-19.603-1.8422 51.012-2.8753 10.408-0.15227-20.667 2.7481-31.069 3.1291-95.683 3.5051-68.066 15.042-105.81-2.9912-36.207-46.149 109.43-34.717 36.6-21.408-35.606 12.84-126.63 48.601-118.17 2.4749 92.985-4.1002 69.69-8.5189 20.322 14.206-50.036 2.5728-98.174 11.541-141.77-15.835l65.684-8.9173z" filter="url(#e)"/>
      <path filter="url(#d)" d="m371.72 210.16c32.931 13.879 132.13 19.329 3.4512 12.006 31.259-8.8251 121.74-53.042 123.67-4.4071-17.525 10.963 12.981 10.81 11.418 10.627-86.204-10.089-68-1.2242-35.06-14.285 64.832-19.47 186.07 28.349 63.502 15.604 43.39-3.1354 121.27-2.0229 140.73 0.9113 6.0897-0.2204 24.357-0.40157 18.269-0.66122-122.21-4.3502-12.102 1.169 43.091-1.173-177.88-33.52-206.76-109.87 3.3706 18.447 52.904 39.522-172.69 14.65-71.544-13.495 41.223 0.61927 82.463 0.49199 123.67 1.8578 61.581 2.0412-34.111 32.001-89.453 13.946-218.09-42.761-1.9294-55.857 79.075-15.115-3.9611 15.207-1.0822 8.1402-8.4044 21.293l-67.916-4.882c8.0734-4.175 7.4036-1.9001-1.9486-6.8423-30.389-7.9302-151.98-32.979-24.822-27.374 1.5109-20.361 85.341 11.192 101.73 23.16 32.303 11.09-3.7058-2.6316-46.943 4.7866-3.387 0.58108 4.6945 5.0198 7.0418 7.5297-7.4165 0.26162-14.833 0.52327-22.249 0.78486-9.0502-0.25216-36.068-1.1048-27.075-2.1592 22.794-2.6728 45.864-1.822 68.795-2.733-10.309-0.86567-20.731-0.84911-30.928-2.597-1.4038-0.24065-3.98-4.0468-2.8411-3.1915-111.1 12.428-176.49-216.34 6.84-25.206-44.323 14.029-114.09 24.332-10.241 22.689 4.4194 0.001-8.8111 0.76165-13.229 0.88345-205.85-76.085 17.644 101.1-197.28-1.5642-36.42-46.149 109.43-34.717 36.6-21.408-35.606 12.84-130.11 48.601-122.73 2.4749 91.209-4.1002 68.828-8.5189 18.509 14.206-50.723 2.5728-99.418 11.541-143.01-15.835l65.894-8.2791z"/>
     </g>
    </g>
    <g opacity=".75" filter="url(#f)" transform="matrix(.74885 0 0 .93973 14.906 324.81)">
     <path opacity=".41111" d="m2075.5 558.24c-198.57-8.768-165.1-84.427 3.3709 18.447-127.78 14.659-115.75-16.981 52.124-11.637 61.581 2.0412-34.111 32.001-89.453 13.946-224.09-46.401 4.0315-52.855 79.074-15.115-3.9611 15.207-1.0822 8.1402-8.4044 21.293l-67.916-4.882c8.0734-4.175 7.4037-1.9002-1.9486-6.8423-184.89-37.219-8.0802-61.362 76.911-4.2138 32.303 11.09-3.7058-2.6316-46.943 4.7866-3.387 0.58108 4.6945 5.0198 7.0418 7.5297-7.4165 0.26163-14.833 0.52329-22.249 0.78488-75.526-2.5608 22.449-4.1776 41.72-4.8922-10.31-0.86566-20.731-0.84909-30.928-2.597-1.4038-0.24064-3.98-4.0468-2.841-3.1915-140.15 127.04-138.75-176.99 6.8467-25.206-0.277 31.3-140.59 24.752-10.241 22.688 4.4194 0.001-8.8111 0.76166-13.229 0.88345-187.23-116.87-185.58 105.64-400.29-22.125 212.72-27.723 243.24 17.928 427.36 10.343z" fill-opacity=".68205" filter="url(#e)" fill="#f3f3f3"/>
     <path d="m1918.9 516.75c32.931 13.879 132.13 19.329 3.4512 12.006 31.259-8.8251 121.74-53.042 123.67-4.4071 24.937 18.632-86.777 20.363-23.641-3.6577 215.71 47.826-16.453-16.753 204.24 16.516 6.0897-0.2204 24.357-0.40157 18.269-0.66122-138.37-4.6105-8.6442 1.0222 43.092-1.173 26.628-1.2511-54.159 1.3836-79.736-6.1264-33.392-11.064-173.96-29.539 3.3166-17.738 21.062 1.402 60.617 30.781 79.79 42.311 52.904 39.522-172.69 14.65-71.544-13.495 132.82-26.448 154.07 50.34 34.215 15.804-7.6108-5.2305-108.74-22.281-106.82-31.919 1.2739-6.4002 10.856-7.244 16.285-10.866 54.067 0.54388 119.11 1.0438 169.61 27.67-3.9611 15.207-1.0822 8.1402-8.4043 21.293l-67.916-4.882c8.0733-4.175 7.4036-1.9001-1.9486-6.8423-184.89-37.219-8.0804-61.362 76.911-4.2138 32.303 11.09-3.7059-2.6316-46.943 4.7866-3.3871 0.58108 4.6944 5.0198 7.0417 7.5297-7.4165 0.26162-14.833 0.52327-22.249 0.78486-9.0502-0.25216-36.068-1.1048-27.075-2.1592 22.794-2.6728 45.864-1.822 68.795-2.733-10.31-0.86567-20.731-0.84911-30.928-2.597-1.4038-0.24065-3.9799-4.0468-2.841-3.1915-140.15 127.04-138.75-176.99 6.8467-25.206 13.137 46.473 1.1745-14.97-74.057 23.558-18.935 9.6972 42.542-0.87527 63.816-0.86935 4.4194 0.001-8.8111 0.76165-13.229 0.88345-164.28 20.289-142.94-25.688-160.68-22.972-110.68-31.689-97.05 90.168-247.23 0.84671z" fill-opacity=".25128" filter="url(#d)" fill="#ad9cac"/>
    </g>
    <g opacity=".75" filter="url(#f)" transform="matrix(.74885 0 0 .93973 817.61 368.71)">
     <path opacity=".41111" d="m2075.5 558.24c-198.57-8.768-165.1-84.427 3.3709 18.447-127.78 14.659-115.75-16.981 52.124-11.637 61.581 2.0412-34.111 32.001-89.453 13.946-224.09-46.401 4.0315-52.855 79.074-15.115-3.9611 15.207-1.0822 8.1402-8.4044 21.293l-67.916-4.882c8.0734-4.175 7.4037-1.9002-1.9486-6.8423-184.89-37.219-8.0802-61.362 76.911-4.2138 32.303 11.09-3.7058-2.6316-46.943 4.7866-3.387 0.58108 4.6945 5.0198 7.0418 7.5297-7.4165 0.26163-14.833 0.52329-22.249 0.78488-75.526-2.5608 22.449-4.1776 41.72-4.8922-10.31-0.86566-20.731-0.84909-30.928-2.597-1.4038-0.24064-3.98-4.0468-2.841-3.1915-140.15 127.04-138.75-176.99 6.8467-25.206-0.277 31.3-140.59 24.752-10.241 22.688 4.4194 0.001-8.8111 0.76166-13.229 0.88345-187.23-116.87-185.58 105.64-400.29-22.125 212.72-27.723 243.24 17.928 427.36 10.343z" fill-opacity=".68205" filter="url(#e)" fill="#f3f3f3"/>
     <path d="m1918.9 516.75c32.931 13.879 132.13 19.329 3.4512 12.006 31.259-8.8251 121.74-53.042 123.67-4.4071 24.937 18.632-86.777 20.363-23.641-3.6577 215.71 47.826-16.453-16.753 204.24 16.516 6.0897-0.2204 24.357-0.40157 18.269-0.66122-138.37-4.6105-8.6442 1.0222 43.092-1.173 26.628-1.2511-54.159 1.3836-79.736-6.1264-33.392-11.064-173.96-29.539 3.3166-17.738 21.062 1.402 60.617 30.781 79.79 42.311 52.904 39.522-172.69 14.65-71.544-13.495 132.82-26.448 154.07 50.34 34.215 15.804-7.6108-5.2305-108.74-22.281-106.82-31.919 1.2739-6.4002 10.856-7.244 16.285-10.866 54.067 0.54388 119.11 1.0438 169.61 27.67-3.9611 15.207-1.0822 8.1402-8.4043 21.293l-67.916-4.882c8.0733-4.175 7.4036-1.9001-1.9486-6.8423-184.89-37.219-8.0804-61.362 76.911-4.2138 32.303 11.09-3.7059-2.6316-46.943 4.7866-3.3871 0.58108 4.6944 5.0198 7.0417 7.5297-7.4165 0.26162-14.833 0.52327-22.249 0.78486-9.0502-0.25216-36.068-1.1048-27.075-2.1592 22.794-2.6728 45.864-1.822 68.795-2.733-10.31-0.86567-20.731-0.84911-30.928-2.597-1.4038-0.24065-3.9799-4.0468-2.841-3.1915-140.15 127.04-138.75-176.99 6.8467-25.206 13.137 46.473 1.1745-14.97-74.057 23.558-18.935 9.6972 42.542-0.87527 63.816-0.86935 4.4194 0.001-8.8111 0.76165-13.229 0.88345-164.28 20.289-142.94-25.688-160.68-22.972-110.68-31.689-97.05 90.168-247.23 0.84671z" fill-opacity=".25128" filter="url(#d)" fill="url(#i)"/>
    </g>
    <g opacity=".75" filter="url(#f)" transform="matrix(.74885 0 0 .93973 817.61 428.31)">
     <path opacity=".41111" d="m2075.5 558.24c-198.57-8.768-165.1-84.427 3.3709 18.447-127.78 14.659-115.75-16.981 52.124-11.637 61.581 2.0412-34.111 32.001-89.453 13.946-224.09-46.401 4.0315-52.855 79.074-15.115-3.9611 15.207-1.0822 8.1402-8.4044 21.293l-67.916-4.882c8.0734-4.175 7.4037-1.9002-1.9486-6.8423-184.89-37.219-8.0802-61.362 76.911-4.2138 32.303 11.09-3.7058-2.6316-46.943 4.7866-3.387 0.58108 4.6945 5.0198 7.0418 7.5297-7.4165 0.26163-14.833 0.52329-22.249 0.78488-75.526-2.5608 22.449-4.1776 41.72-4.8922-10.31-0.86566-20.731-0.84909-30.928-2.597-1.4038-0.24064-3.98-4.0468-2.841-3.1915-140.15 127.04-138.75-176.99 6.8467-25.206-0.277 31.3-140.59 24.752-10.241 22.688 4.4194 0.001-8.8111 0.76166-13.229 0.88345-187.23-116.87-185.58 105.64-400.29-22.125 212.72-27.723 243.24 17.928 427.36 10.343z" fill-opacity=".68205" filter="url(#e)" fill="#f3f3f3"/>
     <path d="m1918.9 516.75c32.931 13.879 132.13 19.329 3.4512 12.006 31.259-8.8251 121.74-53.042 123.67-4.4071 24.937 18.632-86.777 20.363-23.641-3.6577 215.71 47.826-16.453-16.753 204.24 16.516 6.0897-0.2204 24.357-0.40157 18.269-0.66122-138.37-4.6105-8.6442 1.0222 43.092-1.173 26.628-1.2511-54.159 1.3836-79.736-6.1264-33.392-11.064-173.96-29.539 3.3166-17.738 21.062 1.402 60.617 30.781 79.79 42.311 52.904 39.522-172.69 14.65-71.544-13.495 132.82-26.448 154.07 50.34 34.215 15.804-7.6108-5.2305-108.74-22.281-106.82-31.919 1.2739-6.4002 10.856-7.244 16.285-10.866 54.067 0.54388 119.11 1.0438 169.61 27.67-3.9611 15.207-1.0822 8.1402-8.4043 21.293l-67.916-4.882c8.0733-4.175 7.4036-1.9001-1.9486-6.8423-184.89-37.219-8.0804-61.362 76.911-4.2138 32.303 11.09-3.7059-2.6316-46.943 4.7866-3.3871 0.58108 4.6944 5.0198 7.0417 7.5297-7.4165 0.26162-14.833 0.52327-22.249 0.78486-9.0502-0.25216-36.068-1.1048-27.075-2.1592 22.794-2.6728 45.864-1.822 68.795-2.733-10.31-0.86567-20.731-0.84911-30.928-2.597-1.4038-0.24065-3.9799-4.0468-2.841-3.1915-140.15 127.04-138.75-176.99 6.8467-25.206 13.137 46.473 1.1745-14.97-74.057 23.558-18.935 9.6972 42.542-0.87527 63.816-0.86935 4.4194 0.001-8.8111 0.76165-13.229 0.88345-164.28 20.289-142.94-25.688-160.68-22.972-110.68-31.689-97.05 90.168-247.23 0.84671z" fill-opacity=".25128" filter="url(#d)" fill="#ad9cac"/>
    </g>
   </g>
  </g>
  <text style="word-spacing:0px;letter-spacing:0px" xml:space="preserve" font-size="40px" y="885.31873" x="1988.6168" font-family="Sans" line-height="125%"><tspan y="885.31873" x="1988.6168"/></text>
  <text style="word-spacing:0px;letter-spacing:0px" xml:space="preserve" font-size="13px" y="1187.9694" x="1885.1147" font-family="&apos;Arial Hebrew&apos;" line-height="125%"><tspan y="1187.9694" x="1885.1147"/></text>
  <text style="word-spacing:0px;letter-spacing:0px" xml:space="preserve" font-size="6px" y="1198.203" x="1883.8188" font-family="Krungthep" line-height="125%"><tspan y="1198.203" x="1883.8188"/></text>
  <g transform="matrix(.16777 0 0 .16777 739.96 372.86)">
   <title>Layer 1</title>
  </g>
 </g>
 <text style="word-spacing:0px;letter-spacing:0px" xml:space="preserve" font-size="40px" y="536.37592" x="1349.2285" line-height="125%"><tspan y="536.37592" x="1349.2285"/></text>
</svg>
