<?xml version="1.0" encoding="UTF-8" standalone="no"?>
<!-- Created with Inkscape (http://www.inkscape.org/) -->
<svg xmlns:rdf="http://www.w3.org/1999/02/22-rdf-syntax-ns#" xmlns="http://www.w3.org/2000/svg" height="100%" width="100%" version="1.1" preserveAspectRatio="xMinYMin slice" xmlns:cc="http://creativecommons.org/ns#" xmlns:xlink="http://www.w3.org/1999/xlink" viewBox="0 0 880.37454 568.4849" xmlns:dc="http://purl.org/dc/elements/1.1/">
 <defs>
  <linearGradient id="f" x1="16.644" gradientUnits="userSpaceOnUse" y1="-9.9301" gradientTransform="matrix(1.3549,0,0,1.1385,234.28,86.425)" x2="-5.1925" y2="56.466">
   <stop stop-color="#fff" offset="0"/>
   <stop stop-opacity="0" stop-color="#fff" offset="1"/>
  </linearGradient>
  <filter id="m" y="-.2191" width="1.2247" x="-.11236" height="1.4382">
   <feGaussianBlur stdDeviation="3.6515865"/>
  </filter>
  <radialGradient id="radialGradient8746" gradientUnits="userSpaceOnUse" cy="90.877" cx="-30.001" gradientTransform="matrix(1 0 0 .60222 0 36.149)" r="47.763">
   <stop stop-color="#ffe887" stop-opacity="0" offset="0"/>
   <stop stop-color="#ffe887" stop-opacity="0" offset="1"/>
  </radialGradient>
  <radialGradient id="radialGradient8834" gradientUnits="userSpaceOnUse" cy="219.73" cx="206.49" gradientTransform="matrix(1.2523 -.054648 .057767 1.3238 -64.795 -71.577)" r="164.86">
   <stop stop-color="#d4aa00" stop-opacity="0" offset="0"/>
   <stop stop-color="#d4aa00" stop-opacity="0" offset=".5761"/>
   <stop stop-color="#d4be4a" stop-opacity=".6902" offset=".80242"/>
   <stop stop-color="#d4ca76" stop-opacity=".27451" offset="1"/>
  </radialGradient>
  <linearGradient id="linearGradient22728" y2="373.16" gradientUnits="userSpaceOnUse" y1="441.34" x2="245.21" x1="269.93">
   <stop stop-color="#002c4e" offset="0"/>
   <stop stop-opacity="0" stop-color="#002c4e" offset="1"/>
  </linearGradient>
  <linearGradient id="linearGradient22730" y2="344.06" gradientUnits="userSpaceOnUse" y1="448.74" x2="223.58" x1="224.25">
   <stop stop-color="#285a8e" offset="0"/>
   <stop stop-opacity="0" stop-color="#285a8e" offset="1"/>
  </linearGradient>
  <radialGradient id="radialGradient22724-8" gradientUnits="userSpaceOnUse" cy="118" cx="120" gradientTransform="matrix(1.728,0,0,1.7626,-70.217,315.7)" r="100">
   <stop stop-opacity=".48571" stop-color="#fff" offset="0"/>
   <stop stop-opacity="0" stop-color="#fff" offset="1"/>
  </radialGradient>
  <radialGradient id="radialGradient6641-6" gradientUnits="userSpaceOnUse" cy="520.66" cx="136.67" gradientTransform="matrix(1,0,0,1.02,0,-2.36)" r="100">
   <stop stop-opacity="0" stop-color="#5e7076" offset="0"/>
   <stop stop-opacity="0" stop-color="#fff" offset="1"/>
  </radialGradient>
  <linearGradient id="linearGradient20533" y2="373.16" xlink:href="#linearGradient22728" gradientUnits="userSpaceOnUse" x2="245.21" gradientTransform="matrix(2.986,0,0,2.986,-399.45,-748.57)" y1="441.34" x1="269.93"/>
  <linearGradient id="linearGradient20535" y2="344.06" xlink:href="#linearGradient22730" gradientUnits="userSpaceOnUse" x2="223.58" gradientTransform="matrix(2.986,0,0,2.986,-399.45,-748.57)" y1="448.74" x1="224.25"/>
  <radialGradient id="radialGradient20568-8" xlink:href="#radialGradient22724-8" gradientUnits="userSpaceOnUse" cy="118" cx="120" gradientTransform="matrix(1.728,0,0,1.7626,874.86,334.11)" r="100"/>
  <filter id="o-7">
   <feGaussianBlur stdDeviation="6.4"/>
  </filter>
  <radialGradient id="radialGradient86776-2" gradientUnits="userSpaceOnUse" cy="332.64" cx="496.68" gradientTransform="matrix(.8 -.0013598 .0016584 .9757 -152.55 47.806)" r="66.207">
   <stop stop-opacity="0" stop-color="#cdcdcd" offset="0"/>
   <stop stop-opacity="0" stop-color="#cdcdcd" offset=".39692"/>
   <stop stop-opacity=".27059" stop-color="#517ee2" offset=".71041"/>
   <stop stop-opacity=".4" stop-color="#75cdff" offset=".81092"/>
   <stop stop-opacity=".26396" stop-color="#8485cd" offset=".91535"/>
   <stop stop-opacity=".086294" stop-color="#09c5dd" offset="1"/>
  </radialGradient>
  <radialGradient id="radialGradient86832-8" gradientUnits="userSpaceOnUse" cy="331.16" cx="482.79" gradientTransform="matrix(1,0,0,1.4759,-250.16,-118.29)" r="40.598">
   <stop offset="0"/>
   <stop stop-opacity="0" offset="1"/>
  </radialGradient>
  <linearGradient id="linearGradient28418" x1="269.93" xlink:href="#linearGradient22728" gradientUnits="userSpaceOnUse" y1="441.34" gradientTransform="matrix(2.986,0,0,2.986,-426.66,-347.28)" x2="245.21" y2="373.16"/>
  <linearGradient id="linearGradient28420" x1="224.25" xlink:href="#linearGradient22730" gradientUnits="userSpaceOnUse" y1="448.74" gradientTransform="matrix(2.986,0,0,2.986,-426.66,-347.28)" x2="223.58" y2="344.06"/>
  <linearGradient id="linearGradient28438" x1="269.93" xlink:href="#linearGradient22728" gradientUnits="userSpaceOnUse" y1="441.34" gradientTransform="translate(144.5,-23.386)" x2="245.21" y2="373.16"/>
  <linearGradient id="linearGradient28440" x1="224.25" xlink:href="#linearGradient22730" gradientUnits="userSpaceOnUse" y1="448.74" gradientTransform="translate(144.5,-23.386)" x2="223.58" y2="344.06"/>
  <linearGradient id="linearGradient28454" x1="269.93" xlink:href="#linearGradient22728" gradientUnits="userSpaceOnUse" y1="441.34" gradientTransform="matrix(2.986,0,0,2.986,-468.16,-654.92)" x2="245.21" y2="373.16"/>
  <linearGradient id="linearGradient28456" x1="224.25" xlink:href="#linearGradient22730" gradientUnits="userSpaceOnUse" y1="448.74" gradientTransform="matrix(2.986,0,0,2.986,-468.16,-654.92)" x2="223.58" y2="344.06"/>
  <radialGradient id="radialGradient28908" gradientUnits="userSpaceOnUse" cy="407.75" cx="315.82" gradientTransform="matrix(1.0943,3.7364e-4,-3.7475e-4,1.0976,-138.86,-1051.9)" r="150">
   <stop offset="0"/>
   <stop offset=".82314"/>
   <stop stop-color="#2186c6" offset=".88299"/>
   <stop stop-color="#1e3a6a" stop-opacity=".59608" offset=".94526"/>
   <stop stop-color="#193578" stop-opacity="0" offset="1"/>
  </radialGradient>
  <linearGradient id="linearGradient28910" y2="4.2271" gradientUnits="userSpaceOnUse" x2="739.94" y1="311.48" x1="527.31">
   <stop stop-color="#020202" offset="0"/>
   <stop stop-color="#020202" stop-opacity=".25882" offset=".26155"/>
   <stop stop-color="#020202" stop-opacity="0" offset=".54888"/>
   <stop stop-color="#020202" stop-opacity=".80392" offset=".80466"/>
   <stop stop-color="#020202" offset="1"/>
  </linearGradient>
  <radialGradient id="radialGradient28912" gradientUnits="userSpaceOnUse" cy="232.93" cx="546.98" gradientTransform="matrix(1.9508,-1.8505,1.4376,1.5157,-805.77,873.06)" r="73.94">
   <stop stop-color="#0a0a0a" offset="0"/>
   <stop stop-color="#00003a" stop-opacity="0" offset=".75059"/>
   <stop stop-color="#ea5e9f" stop-opacity=".0039216" offset=".83018"/>
   <stop stop-color="#fff" stop-opacity=".62857" offset=".96147"/>
   <stop stop-color="#d62135" stop-opacity="0" offset="1"/>
  </radialGradient>
  <linearGradient id="linearGradient28914" y2="259.27" gradientUnits="userSpaceOnUse" x2="485.71" y1="168.88" x1="594.6">
   <stop stop-color="#020002" stop-opacity="0" offset="0"/>
   <stop stop-color="#323232" stop-opacity=".17255" offset="1"/>
  </linearGradient>
  <radialGradient id="radialGradient28996" gradientUnits="userSpaceOnUse" cy="398.57" cx="352.86" gradientTransform="translate(-1.4286 .49496)" r="384">
   <stop stop-color="#d68200" offset="0"/>
   <stop stop-opacity=".59524" stop-color="#ffab5b" offset=".47562"/>
   <stop stop-opacity="0" stop-color="#e9534f" offset=".85612"/>
   <stop stop-opacity=".50952" stop-color="#cdcdcd" offset="1"/>
  </radialGradient>
  <radialGradient id="radialGradient28998" gradientUnits="userSpaceOnUse" cy="334.13" cx="494.98" gradientTransform="matrix(.512 0 0 .512 -10.662 200.01)" r="50">
   <stop stop-color="#f4dca0" offset="0"/>
   <stop stop-color="#fdf9f1" stop-opacity=".091371" offset=".85651"/>
   <stop stop-opacity="0" stop-color="#fff" offset="1"/>
  </radialGradient>
  <linearGradient id="linearGradient29416" y2="572.28" gradientUnits="userSpaceOnUse" y1="55.09" x2="229.66" x1="201.21">
   <stop stop-color="#a26b14" offset="0"/>
   <stop stop-color="#a26b14" stop-opacity="0" offset="1"/>
  </linearGradient>
  <radialGradient id="radialGradient5148" xlink:href="#radialGradient28908" gradientUnits="userSpaceOnUse" cy="407.75" cx="315.82" gradientTransform="matrix(1.0943,3.7364e-4,-3.7475e-4,1.0976,-138.86,-1051.9)" r="150"/>
  <linearGradient id="linearGradient5150" y2="4.2271" xlink:href="#linearGradient28910" gradientUnits="userSpaceOnUse" x2="739.94" y1="311.48" x1="527.31"/>
  <radialGradient id="radialGradient5152" xlink:href="#radialGradient28912" gradientUnits="userSpaceOnUse" cy="232.93" cx="546.98" gradientTransform="matrix(1.9508,-1.8505,1.4376,1.5157,-805.77,873.06)" r="73.94"/>
  <linearGradient id="linearGradient5154" y2="259.27" xlink:href="#linearGradient28914" gradientUnits="userSpaceOnUse" x2="485.71" y1="168.88" x1="594.6"/>
  <radialGradient id="radialGradient5174" xlink:href="#radialGradient6641-6" gradientUnits="userSpaceOnUse" cy="520.66" cx="136.67" gradientTransform="matrix(1,0,0,1.02,0,-2.36)" r="100"/>
  <radialGradient id="radialGradient5180" xlink:href="#radialGradient22724-8" gradientUnits="userSpaceOnUse" cy="118" cx="120" gradientTransform="matrix(1.728,0,0,1.7626,-70.217,315.7)" r="100"/>
  <linearGradient id="linearGradient5184" y2="373.16" xlink:href="#linearGradient22728" gradientUnits="userSpaceOnUse" x2="245.21" y1="441.34" x1="269.93"/>
  <linearGradient id="linearGradient5186" y2="344.06" xlink:href="#linearGradient22730" gradientUnits="userSpaceOnUse" x2="223.58" y1="448.74" x1="224.25"/>
  <radialGradient id="radialGradient5232" xlink:href="#radialGradient28908" gradientUnits="userSpaceOnUse" cy="407.75" cx="315.82" gradientTransform="matrix(-.00037364 1.0943 -1.0976 -.00037475 936.63 338.31)" r="150"/>
  <linearGradient id="linearGradient5234" y2="4.2271" xlink:href="#linearGradient28910" gradientUnits="userSpaceOnUse" x2="739.94" gradientTransform="translate(-115.27 477.17)" y1="311.48" x1="527.31"/>
  <radialGradient id="radialGradient5236" xlink:href="#radialGradient28912" gradientUnits="userSpaceOnUse" cy="232.93" cx="546.98" gradientTransform="matrix(1.9508 -1.8505 1.4376 1.5157 -921.04 1350.2)" r="73.94"/>
  <linearGradient id="linearGradient5238" y2="259.27" xlink:href="#linearGradient28914" gradientUnits="userSpaceOnUse" x2="485.71" gradientTransform="translate(-115.27 477.17)" y1="168.88" x1="594.6"/>
 </defs>
 <metadata>
  <rdf:RDF>
   <cc:Work rdf:about="">
    <dc:format>image/svg+xml</dc:format>
    <dc:type rdf:resource="http://purl.org/dc/dcmitype/StillImage"/>
    <dc:title/>
   </cc:Work>
  </rdf:RDF>
 </metadata>
 <g transform="translate(599.47 -248.12)">
  <g transform="translate(92.672 219.74)">
   <g id="ng-lightbulb" transform="matrix(.68957 .1186 -.1186 .68957 -67.455 -13.426)">
    <title>Lightbulb</title>
    <path id="ng-light-0" style="color:#000000" d="m9 90.877c0 11.04-17.472 20-39 20s-39-8.96-39-20 17.472-20 39-20 39 8.96 39 20z" fill-rule="evenodd" transform="matrix(3.6067,0,0,5.5332,318.2,-276.96)" filter="url(#m)" fill="url(#radialGradient8746)">
     <title>Light 0</title>
    </path>
    <g transform="matrix(.25436 -.96711 .96711 .25436 -349.71 70.008)">
     <g transform="matrix(.5769 -.099222 .099222 .5769 -.55490 277.49)">
      <g transform="translate(-667.15,336.33)">
       <g transform="matrix(1.4174 .25402 -.25402 1.4174 351.6 -565.17)">
        <path d="m231.68 361.08 1.701-2.3172-20.715-34.565 22.071 33.539 3.8707-1.6715 6.7553-1.4364-0.22866-44.065 2.4175 44.19 5.8962 1.1218 4.919 2.3045 57.788-63.596-56.457 67.378 2.9669 3.967 0.52218 5.9284-0.95032 7.0482 10.394 8.0226-11.446-7.807-4.8202 7.4876 16.867 25.282-18.063-24.829-3.6606 1.9871-5.106 0.79807-0.82484 15.062-0.42031-15.201-6.1404-1.9052-42.205 59.159 37.423-59.442-2.7189-5.1577-68.434 41.074 65.816-43.697-0.15478-10.217-72.395-13.587 72.472 11.388z" stroke-opacity=".076190" fill-rule="evenodd" stroke="url(#radialGradient86832-8)" stroke-width="0.3" fill="url(#radialGradient86776-2)"/>
        <g transform="translate(-503.33,-250.91)">
         <g transform="translate(-911.65,681.4)">
          <path d="m672.86 398.57a320 320 0 0 1 -640 0 320 320 0 1 1 640 0z" transform="matrix(.039582 0 0 .039582 1644.1 -74.4)" filter="url(#o-7)" fill="url(#radialGradient28996)"/>
         </g>
        </g>
        <circle opacity=".9" stroke-width="0.591" stroke-opacity=".052381" stroke-dashoffset="0.27" stroke="#ffedd9" cy="371.08" cx="242.77" r="24.905" fill="url(#radialGradient28998)"/>
       </g>
       <path fill="url(#radialGradient5148)" transform="rotate(90)" d="m372.34-604.24c1.1523 59.701-33.939 97.014-85.46 127.2-51.519 30.184-111.43 48.114-162.94 17.922-51.515-30.19-80.394-81.53-79.233-141.22l162.77-3.91z"/>
       <path fill="url(#linearGradient5150)" d="m604.63 371.56c-59.7 1.05-106.76-31.38-136.95-78.52-30.18-47.14-52.29-145.21-22.1-192.34 30.19-47.135 100.96-31.008 160.66-29.946l-0.81 146.08z"/>
       <path d="m605.05 342.15c-93.82-0.41-143.97-66.64-144.24-136.75-1.91-75.63 53.94-144.91 143.72-145.08l-0.64 142.74s1.5152 105.64 1.1594 139.09z" stroke="url(#linearGradient5154)" stroke-width="3" fill="url(#radialGradient5152)"/>
       <g transform="translate(7.1795,-123.01)">
        <g transform="matrix(.16777 0 0 .16777 128.29 365.96)">
         <title>Layer 1</title>
        </g>
       </g>
       <g stroke-opacity=".87059" stroke="#2964ff" fill="none">
        <g stroke-width="2.048" transform="translate(-362.06,-573.68)">
         <ellipse id="ng-node-1" rx="5.0904" ry="5.0939" transform="matrix(.91966 -.39271 .39203 .91995 0 0)" cy="1122" cx="554.03">
          <title>Node 1</title>
         </ellipse>
         <circle id="ng-node-2-0" transform="rotate(66.898)" cy="-577.2" cx="973.42" r="4.6612">
          <title>Node 2</title>
         </circle>
        </g>
        <path id="ng-connection-9-1-1" stroke-dasharray="2.0000235, 1.00001175, 0.50000587, 1.00001175" d="m542.39 190.37 46.311 50.911">
         <title>Connection 9 1</title>
        </path>
       </g>
       <g transform="matrix(.017468 .0044003 -.0044003 .017468 391.33 147.23)">
        <g fill="#fff" transform="translate(1294.8,631.61)">
         <circle stroke-width="20" stroke-opacity=".99048" stroke="#fbf6f6" cy="120" cx="120" r="90" fill="none"/>
        </g>
        <path d="m1453.5 851.38 3842.8-40.6s79.742-2.779 80-31.429c0.2691-29.889-82.857-34.286-82.857-34.286l-3845.6-83.67s99.883 5.4618 100 97.143c0.1173 91.681-94.286 92.857-94.286 92.857z" fill-opacity=".15238" fill-rule="evenodd" fill="#00ccf6"/>
        <g fill="url(#radialGradient5174)" transform="matrix(1.2,0,0,1.2,102.43,98.762)">
         <circle cy="545.55" cx="1082.2" r="155.52" fill="url(#radialGradient20568-8)"/>
        </g>
        <g transform="matrix(.63834 -.046033 .046033 .63834 790.02 253.86)">
         <g transform="matrix(3.4614 .92604 -.92604 3.4614 -267.46 -938.57)">
          <g stroke-width="5" transform="matrix(0,-1,1,0,-131.54,678.8)">
           <path d="m305.92 697.16c-86.623 0-156.94 70.32-156.94 156.94 0 13.317 1.6423 26.217 4.7776 38.549-31.562 6.0018-55.45 33.712-55.45 67.006 0 37.683 30.636 68.289 68.319 68.289 26.725 0 49.836-15.467 61.004-37.862 23.052 13.288 49.806 20.991 78.292 20.991 53.091 0 99.911-26.456 128.31-66.826 16.751 10.212 36.459 16.154 57.48 16.154 28.277 0 54.076-10.69 73.634-28.188 11.526 16.99 31.024 28.188 53.091 28.188 35.354 0 64.02-28.755 64.02-64.109s-28.665-64.02-64.02-64.02c-6.0018 0-11.854 0.8958-17.349 2.4187-7.4052-53.807-53.539-95.253-109.38-95.253-22.813 0-44.073 6.8678-61.661 18.752-28.725-37.086-73.605-61.034-124.13-61.034z" stroke="url(#linearGradient28420)" stroke-dasharray="29.86000051, 14.93000027, 7.46500015, 14.93000027" stroke-width="14.93" fill="url(#linearGradient28418)"/>
          </g>
         </g>
        </g>
       </g>
       <g transform="matrix(.0047516 .0079053 -.0079053 .0047516 529.32 152.44)">
        <g fill="#fff" transform="translate(160.71,609.51)">
         <circle stroke-width="20" stroke-opacity=".99048" stroke="#fbf6f6" cy="120" cx="120" r="90" fill="none"/>
        </g>
        <path d="m278.57 823.79 3586.6 196.61s79.742-2.779 80-31.429c0.2691-29.889-82.857-34.286-82.857-34.286l-3589.5-320.88s99.883 5.4618 100 97.143c0.11725 91.681-94.286 92.857-94.286 92.857z" fill-opacity=".15238" fill-rule="evenodd" fill="#00ccf6"/>
        <g fill="url(#radialGradient5174)" transform="matrix(1.2,0,0,1.2,102.43,98.762)">
         <circle cy="527.14" cx="137.14" r="155.52" fill="url(#radialGradient5180)"/>
        </g>
        <g transform="translate(503.65,-23.676)">
         <g transform="matrix(3.4614 .92604 -.92604 3.4614 -267.46 -938.57)">
          <g stroke-width="5" transform="matrix(0,-1,1,0,-131.54,678.8)">
           <path d="m245.34 349.78c-29.01 0-52.56 23.55-52.56 52.56 0 4.46 0.55 8.78 1.6 12.91-10.57 2.01-18.57 11.29-18.57 22.44 0 12.62 10.26 22.87 22.88 22.87 8.95 0 16.69-5.18 20.43-12.68 7.72 4.45 16.68 7.03 26.22 7.03 17.78 0 33.46-8.86 42.97-22.38 5.61 3.42 12.21 5.41 19.25 5.41 9.47 0 18.11-3.58 24.66-9.44 3.86 5.69 10.39 9.44 17.78 9.44 11.84 0 21.44-9.63 21.44-21.47s-9.6-21.44-21.44-21.44c-2.01 0-3.97 0.3-5.81 0.81-2.48-18.02-17.93-31.9-36.63-31.9-7.64 0-14.76 2.3-20.65 6.28-9.62-12.42-24.65-20.44-41.57-20.44z" stroke="url(#linearGradient5186)" stroke-dasharray="10.00005376, 5.00002688, 2.50001344, 5.00002688" fill="url(#linearGradient5184)"/>
          </g>
         </g>
        </g>
       </g>
       <g transform="matrix(.0038801 .010857 -.010857 .0038801 564.38 -.083879)">
        <g fill="#fff" transform="translate(760.96,-572.67)">
         <circle stroke-width="20" stroke-opacity=".99048" stroke="#fbf6f6" cy="120" cx="120" r="90" fill="none"/>
        </g>
        <path d="m867.56-362.42 5950.3 1133.9s79.742-2.779 80-31.429c0.2691-29.889-82.857-34.286-82.857-34.286l-5953.2-1258.2s99.883 5.4618 100 97.143c0.11725 91.681-94.286 92.857-94.286 92.857z" fill-opacity=".15294" fill-rule="evenodd" fill="#00ccf6"/>
        <g fill="url(#radialGradient5174)" transform="matrix(1.2,0,0,1.2,702.68,-1083.4)">
         <circle cy="527.14" cx="137.14" r="155.52" fill="url(#radialGradient5180)"/>
        </g>
        <g transform="matrix(.99438 .10589 -.10589 .99438 1394.7 -643.89)">
         <g transform="matrix(3.4614 .92604 -.92604 3.4614 -267.46 -938.57)">
          <g stroke-width="5" transform="matrix(0,-1,1,0,-131.54,678.8)">
           <path d="m333.13 295.87c-86.623 0-156.94 70.32-156.94 156.94 0 13.317 1.6423 26.217 4.7776 38.549-31.562 6.0018-55.45 33.712-55.45 67.005 0 37.683 30.636 68.289 68.319 68.289 26.725 0 49.836-15.467 61.004-37.862 23.052 13.288 49.806 20.991 78.292 20.991 53.091 0 99.911-26.456 128.31-66.826 16.751 10.212 36.459 16.154 57.48 16.154 28.277 0 54.076-10.69 73.634-28.188 11.526 16.99 31.024 28.188 53.091 28.188 35.354 0 64.019-28.755 64.019-64.109s-28.665-64.02-64.019-64.02c-6.0018 0-11.854 0.8958-17.349 2.4186-7.4052-53.807-53.539-95.253-109.38-95.253-22.813 0-44.073 6.8678-61.661 18.752-28.725-37.086-73.605-61.034-124.13-61.034z" stroke="url(#linearGradient20535)" stroke-dasharray="29.86000051, 14.93000027, 7.46500015, 14.93000027" stroke-width="14.93" fill="url(#linearGradient20533)"/>
          </g>
         </g>
        </g>
       </g>
       <path id="ng-connection-node-2-8" d="m550.34 94.733-33.55-77.821" stroke-opacity=".87059" stroke="#2964ff" stroke-dasharray="1.95691747, 0.97845874, 0.48922936, 0.97845874" stroke-width=".97846" fill="none">
        <title fill="url(#linearGradient16767)">Connection Node 2</title>
       </path>
       <path id="ng-connection-1-2-4" d="m550.99 95.513c10.567 48.953 23.521 97.174 37.08 145.4" stroke-opacity=".87059" stroke="#2964ff" stroke-dasharray="2.0000235, 1.00001175, 0.50000587, 1.00001175" fill="none">
        <title>Connection 1-2</title>
       </path>
       <g transform="matrix(.0067403 .0093543 -.0093543 .0067403 501.81 17.426)">
        <g fill="#fff" transform="translate(506.03,-1219.6)">
         <circle stroke-width="20" stroke-opacity=".99048" stroke="#fbf6f6" cy="120" cx="120" r="90" fill="none"/>
        </g>
        <path d="m630.88-1015 7250.4 1563.7s79.742-2.779 80-31.429c0.2691-29.889-82.857-34.286-82.857-34.286l-7253.3-1688s99.883 5.4618 100 97.143c0.11725 91.681-94.286 92.857-94.286 92.857z" fill-opacity=".15238" fill-rule="evenodd" fill="#00ccf6"/>
        <g fill="url(#radialGradient5174)" transform="matrix(1.2,0,0,1.2,447.75,-1730.3)">
         <circle cy="527.14" cx="137.14" r="155.52" fill="url(#radialGradient5180)"/>
        </g>
        <g transform="matrix(2.9709 .30011 -.30011 2.9709 969.67 -1558.2)">
         <g transform="matrix(3.4614 .92604 -.92604 3.4614 -267.46 -938.57)">
          <g stroke-width="5" transform="matrix(0,-1,1,0,-131.54,678.8)">
           <path d="m389.84 326.39c-29.01 0-52.56 23.55-52.56 52.56 0 4.46 0.55 8.78 1.6 12.91-10.57 2.01-18.57 11.29-18.57 22.44 0 12.62 10.26 22.87 22.88 22.87 8.95 0 16.69-5.18 20.43-12.68 7.72 4.45 16.68 7.03 26.22 7.03 17.78 0 33.46-8.86 42.97-22.38 5.61 3.42 12.21 5.41 19.25 5.41 9.47 0 18.11-3.58 24.66-9.44 3.86 5.69 10.39 9.44 17.78 9.44 11.84 0 21.44-9.63 21.44-21.47s-9.6-21.44-21.44-21.44c-2.01 0-3.97 0.3-5.81 0.81-2.48-18.02-17.93-31.9-36.63-31.9-7.64 0-14.76 2.3-20.65 6.28-9.62-12.42-24.65-20.44-41.57-20.44z" stroke="url(#linearGradient28440)" stroke-dasharray="10.00005376, 5.00002688, 2.50001344, 5.00002688" fill="url(#linearGradient28438)"/>
          </g>
         </g>
        </g>
       </g>
       <g transform="matrix(.0091323 .0070381 -.0070381 .0091323 444.63 54.856)">
        <g fill="#fff" transform="translate(1199,557.71)">
         <circle stroke-width="20" stroke-opacity=".99048" stroke="#fbf6f6" cy="120" cx="120" r="90" fill="none"/>
        </g>
        <path d="m1332.3 792.08 7370-374.95s79.742-2.779 80-31.429c0.269-29.889-82.857-34.286-82.857-34.286l-7372.9 250.66s99.883 5.4618 100 97.143c0.1173 91.681-94.286 92.857-94.286 92.857z" fill-opacity=".15238" fill-rule="evenodd" fill="#00ccf6"/>
        <g fill="url(#radialGradient5174)" transform="matrix(1.2,0,0,1.2,1148.6,51.519)">
         <circle cy="527.14" cx="137.14" r="155.52" fill="url(#radialGradient5180)"/>
        </g>
        <g transform="matrix(.99943 -.033877 .033877 .99943 1382.1 128.2)">
         <g transform="matrix(3.4614 .92604 -.92604 3.4614 -267.46 -938.57)">
          <g stroke-width="5" transform="matrix(0,-1,1,0,-131.54,678.8)">
           <path d="m264.42 389.52c-86.623 0-156.94 70.32-156.94 156.94 0 13.317 1.6423 26.217 4.7776 38.549-31.562 6.0018-55.45 33.712-55.45 67.005 0 37.683 30.636 68.289 68.319 68.289 26.725 0 49.836-15.467 61.004-37.862 23.052 13.288 49.806 20.991 78.292 20.991 53.091 0 99.911-26.456 128.31-66.826 16.751 10.212 36.459 16.154 57.48 16.154 28.277 0 54.076-10.69 73.634-28.188 11.526 16.99 31.024 28.188 53.091 28.188 35.354 0 64.019-28.755 64.019-64.109s-28.665-64.019-64.019-64.019c-6.0018 0-11.854 0.8958-17.349 2.4186-7.4052-53.807-53.539-95.253-109.38-95.253-22.813 0-44.073 6.8678-61.661 18.752-28.725-37.086-73.605-61.034-124.13-61.034z" stroke="url(#linearGradient28456)" stroke-dasharray="29.86000051, 14.93000027, 7.46500015, 14.93000027" stroke-width="14.93" fill="url(#linearGradient28454)"/>
          </g>
         </g>
        </g>
       </g>
       <g transform="matrix(.0040972 .0061366 -.0061366 .0040972 577.99 119.53)">
        <g fill="#fff" transform="translate(160.71,609.51)">
         <circle stroke-width="20" stroke-opacity=".99048" stroke="#fbf6f6" cy="120" cx="120" r="90" fill="none"/>
        </g>
        <path d="m278.57 823.79 5091-80.421s79.742-2.779 80-31.429c0.2691-29.889-82.857-34.286-82.857-34.286l-5093.9-43.86s99.883 5.4618 100 97.143c0.11725 91.681-94.286 92.857-94.286 92.857z" fill-opacity=".15238" fill-rule="evenodd" fill="#00ccf6"/>
        <g fill="url(#radialGradient5174)" transform="matrix(1.2,0,0,1.2,102.43,98.762)">
         <circle cy="527.14" cx="137.14" r="155.52" fill="url(#radialGradient5180)"/>
        </g>
        <g transform="translate(503.65,-23.676)">
         <g transform="matrix(3.4614 .92604 -.92604 3.4614 -267.46 -938.57)">
          <g stroke-width="5" transform="matrix(0,-1,1,0,-131.54,678.8)">
           <path d="m245.34 349.78c-29.01 0-52.56 23.55-52.56 52.56 0 4.46 0.55 8.78 1.6 12.91-10.57 2.01-18.57 11.29-18.57 22.44 0 12.62 10.26 22.87 22.88 22.87 8.95 0 16.69-5.18 20.43-12.68 7.72 4.45 16.68 7.03 26.22 7.03 17.78 0 33.46-8.86 42.97-22.38 5.61 3.42 12.21 5.41 19.25 5.41 9.47 0 18.11-3.58 24.66-9.44 3.86 5.69 10.39 9.44 17.78 9.44 11.84 0 21.44-9.63 21.44-21.47s-9.6-21.44-21.44-21.44c-2.01 0-3.97 0.3-5.81 0.81-2.48-18.02-17.93-31.9-36.63-31.9-7.64 0-14.76 2.3-20.65 6.28-9.62-12.42-24.65-20.44-41.57-20.44z" stroke="url(#linearGradient5186)" stroke-dasharray="10.00005376, 5.00002688, 2.50001344, 5.00002688" fill="url(#linearGradient5184)"/>
          </g>
         </g>
        </g>
       </g>
       <g stroke-opacity=".87059" stroke="#2964ff">
        <g transform="translate(-362.06,-573.68)">
         <g stroke-width=".97845" stroke-dasharray="1.95689448, 0.97844724, 0.48922361, 0.97844724" fill="none">
          <path id="ng-connection-node-9-6" d="m903.63 765.21-16.29-32.73">
           <title fill="url(#linearGradient16767)">Connection Node 9</title>
          </path>
          <path id="ng-connection-node-3-8" d="m861.37 805.03-81.849 8.4793">
           <title fill="url(#linearGradient16767)">Connection Node 3</title>
          </path>
          <path id="ng-connection-node-4" fill-opacity=".15238" fill="#00ccf6" d="m945.38 654.7-10.43-72">
           <title fill="url(#linearGradient16767)">Connection Node 4</title>
          </path>
          <path id="ng-connection-2-3-5" d="m913.21 669.34s-11.396 9.9868-31.434 63.248-19.78 71.925-19.78 71.925">
           <title fill="url(#linearGradient16767)">Connection  2 3</title>
          </path>
          <path id="ng-connection-node-7" d="m957.33 728.33-20.4-29.88">
           <title fill="url(#linearGradient16767)">Connection Node 7</title>
          </path>
         </g>
         <g stroke-width="2.048" fill="none">
          <circle id="ng-node-9-8" cy="-531.26" cx="1058" r="4.6612" transform="rotate(66.898)">
           <title>Node 9</title>
          </circle>
          <ellipse id="ng-node-3-9" rx="4.1221" ry="4.122" transform="matrix(.39236 .91981 -.9198 .39238 0 0)" cy="-476.73" cx="1078.6">
           <title>Node 3</title>
          </ellipse>
          <circle id="ng-node-4" cy="1126.8" cx="231.57" r="4.6612" transform="matrix(-.39237 .91981 .91981 .39237 0 0)">
           <title>Node 4</title>
          </circle>
          <circle id="ng-node-7" cy="1166.7" cx="294.36" r="4.6612" transform="matrix(-.39237 .91981 .91981 .39237 0 0)">
           <title>Node 7</title>
          </circle>
          <circle id="ng-node-10-3" cy="-482.5" cx="1031.7" r="4.6612" transform="rotate(66.898)">
           <title>Node 10</title>
          </circle>
         </g>
         <g stroke-width=".83885" fill="#ff2310">
          <circle id="ng-node-9-center-1" cy="-531.34" cx="1058.1" r="1.9092" transform="rotate(66.898)">
           <title>Node 9</title>
          </circle>
          <circle id="ng-node-3-center-3" cy="-476.73" cx="1078.6" r="1.6884" transform="matrix(.39236 .91981 -.9198 .39238 0 0)">
           <title>Node 3</title>
          </circle>
          <circle id="ng-node-4-center" cy="1126.8" cx="231.57" r="1.9093" transform="matrix(-.39237 .91981 .91981 .39237 0 0)">
           <title>Node 4</title>
          </circle>
          <circle id="ng-node-7-center" cy="1166.7" cx="294.36" r="1.9093" transform="matrix(-.39237 .91981 .91981 .39237 0 0)">
           <title>Node 7</title>
          </circle>
          <circle id="ng-node-10-center-8" cy="-482.5" cx="1031.7" r="1.9092" transform="rotate(66.898)">
           <title>Node 10</title>
          </circle>
         </g>
         <g fill="none">
          <g stroke-width=".97845" stroke-dasharray="1.95689448, 0.97844724, 0.48922361, 0.97844724">
           <path id="ng-connection-node-5-6" d="m881.17 691.19-65.2-45.28">
            <title fill="url(#linearGradient16767)">Connection Node 5</title>
           </path>
           <path id="ng-connection-7-4" d="m945.46 654.14 12.11 73.83">
            <title fill="url(#linearGradient16767)">Connection 7 4</title>
           </path>
           <path id="ng-connection-node-10-4" d="m848.61 759.7-71.58-19.04">
            <title fill="url(#linearGradient16767)">Connection Node 10</title>
           </path>
           <path id="ng-connection-10-5-2" d="m884.04 692.99s-11.853 6.9497-24.129 31.24-11.356 35.813-11.356 35.813">
            <title fill="url(#linearGradient16767)">Connection 10 5</title>
           </path>
          </g>
          <circle id="ng-node-5-3" stroke-width="2.048" transform="rotate(66.898)" cy="-541.04" cx="984.61" r="4.6612">
           <title>Node 5</title>
          </circle>
         </g>
        </g>
        <g fill="#ff2310" transform="translate(-362.06,-573.68)">
         <ellipse id="ng-node-1-center-8" rx="2.085" transform="matrix(.91966 -.39271 .39203 .91995 0 0)" ry="2.0865" cy="1122" cx="554.03" stroke-width=".83885">
          <title>Node 1</title>
         </ellipse>
         <circle id="ng-node-2-center-2" stroke-width=".83885" transform="rotate(66.898)" cy="-577.2" cx="973.42" r="1.9092">
          <title>Node 2</title>
         </circle>
         <circle id="ng-node-5-center-3" stroke-width=".83866" transform="rotate(66.898)" cy="-541.04" cx="984.61" r="1.9092">
          <title>Node 5</title>
         </circle>
        </g>
       </g>
      </g>
     </g>
     <g transform="matrix(-.5769 .099222 .099222 .5769 -188.57 26.4)">
      <g transform="translate(-667.15,336.33)">
       <path fill="url(#radialGradient5232)" d="m488.97 849.51c-59.701 1.1523-97.014-33.939-127.2-85.46-30.184-51.519-48.114-111.43-17.922-162.94 30.192-51.515 86.516-81.044 146.21-79.883l-1.08 163.42z"/>
       <path fill="url(#linearGradient5234)" d="m489.36 848.73c-59.7 1.05-106.76-31.38-136.95-78.52-30.18-47.14-52.29-145.21-22.1-192.34 30.19-47.135 96.05-30.395 155.75-29.333l4.1 145.46z"/>
       <path d="m489.78 819.32c-93.82-0.41-143.97-66.64-144.24-136.75-1.91-75.63 53.94-144.91 143.72-145.08l-0.64 142.74s1.5152 105.64 1.1594 139.09z" stroke="url(#linearGradient5238)" stroke-width="3" fill="url(#radialGradient5236)"/>
       <g transform="translate(7.1795,-123.01)">
        <g transform="matrix(.16777 0 0 .16777 128.29 365.96)">
         <title>Layer 1</title>
        </g>
       </g>
       <g stroke-opacity=".87059" transform="translate(-115.27 477.17)" stroke="#2964ff" fill="none">
        <g stroke-width="2.048" transform="translate(-362.06,-573.68)">
         <ellipse rx="5.0904" transform="matrix(.91966 -.39271 .39203 .91995 0 0)" ry="5.0939" cy="1122" cx="554.03">
          <title>Node 1</title>
         </ellipse>
         <circle transform="rotate(66.898)" cy="-577.2" cx="973.42" r="4.6612">
          <title>Node 2</title>
         </circle>
        </g>
        <path stroke-dasharray="2.0000235, 1.00001175, 0.50000587, 1.00001175" d="m542.39 190.37 46.311 50.911">
         <title>Connection 9 1</title>
        </path>
       </g>
       <g transform="matrix(.017468 .0044003 -.0044003 .017468 276.06 624.4)">
        <g fill="#fff" transform="translate(1294.8,631.61)">
         <circle stroke-width="20" stroke-opacity=".99048" stroke="#fbf6f6" cy="120" cx="120" r="90" fill="none"/>
        </g>
        <path d="m1453.5 851.38 3842.8-40.6s79.742-2.779 80-31.429c0.2691-29.889-82.857-34.286-82.857-34.286l-3845.6-83.67s99.883 5.4618 100 97.143c0.1173 91.681-94.286 92.857-94.286 92.857z" fill-opacity=".15238" fill-rule="evenodd" fill="#00ccf6"/>
        <g fill="url(#radialGradient5174)" transform="matrix(1.2,0,0,1.2,102.43,98.762)">
         <circle cy="545.55" cx="1082.2" r="155.52" fill="url(#radialGradient20568-8)"/>
        </g>
        <g transform="matrix(.63834 -.046033 .046033 .63834 790.02 253.86)">
         <g transform="matrix(3.4614 .92604 -.92604 3.4614 -267.46 -938.57)">
          <g stroke-width="5" transform="matrix(0,-1,1,0,-131.54,678.8)">
           <path d="m305.92 697.16c-86.623 0-156.94 70.32-156.94 156.94 0 13.317 1.6423 26.217 4.7776 38.549-31.562 6.0018-55.45 33.712-55.45 67.006 0 37.683 30.636 68.289 68.319 68.289 26.725 0 49.836-15.467 61.004-37.862 23.052 13.288 49.806 20.991 78.292 20.991 53.091 0 99.911-26.456 128.31-66.826 16.751 10.212 36.459 16.154 57.48 16.154 28.277 0 54.076-10.69 73.634-28.188 11.526 16.99 31.024 28.188 53.091 28.188 35.354 0 64.02-28.755 64.02-64.109s-28.665-64.02-64.02-64.02c-6.0018 0-11.854 0.8958-17.349 2.4187-7.4052-53.807-53.539-95.253-109.38-95.253-22.813 0-44.073 6.8678-61.661 18.752-28.725-37.086-73.605-61.034-124.13-61.034z" stroke="url(#linearGradient28420)" stroke-dasharray="29.86000051, 14.93000027, 7.46500015, 14.93000027" stroke-width="14.93" fill="url(#linearGradient28418)"/>
          </g>
         </g>
        </g>
       </g>
       <g transform="matrix(.0047516 .0079053 -.0079053 .0047516 414.05 629.61)">
        <g fill="#fff" transform="translate(160.71,609.51)">
         <circle stroke-width="20" stroke-opacity=".99048" stroke="#fbf6f6" cy="120" cx="120" r="90" fill="none"/>
        </g>
        <path d="m278.57 823.79 3586.6 196.61s79.742-2.779 80-31.429c0.2691-29.889-82.857-34.286-82.857-34.286l-3589.5-320.88s99.883 5.4618 100 97.143c0.11725 91.681-94.286 92.857-94.286 92.857z" fill-opacity=".15238" fill-rule="evenodd" fill="#00ccf6"/>
        <g fill="url(#radialGradient5174)" transform="matrix(1.2,0,0,1.2,102.43,98.762)">
         <circle cy="527.14" cx="137.14" r="155.52" fill="url(#radialGradient5180)"/>
        </g>
        <g transform="translate(503.65,-23.676)">
         <g transform="matrix(3.4614 .92604 -.92604 3.4614 -267.46 -938.57)">
          <g stroke-width="5" transform="matrix(0,-1,1,0,-131.54,678.8)">
           <path d="m245.34 349.78c-29.01 0-52.56 23.55-52.56 52.56 0 4.46 0.55 8.78 1.6 12.91-10.57 2.01-18.57 11.29-18.57 22.44 0 12.62 10.26 22.87 22.88 22.87 8.95 0 16.69-5.18 20.43-12.68 7.72 4.45 16.68 7.03 26.22 7.03 17.78 0 33.46-8.86 42.97-22.38 5.61 3.42 12.21 5.41 19.25 5.41 9.47 0 18.11-3.58 24.66-9.44 3.86 5.69 10.39 9.44 17.78 9.44 11.84 0 21.44-9.63 21.44-21.47s-9.6-21.44-21.44-21.44c-2.01 0-3.97 0.3-5.81 0.81-2.48-18.02-17.93-31.9-36.63-31.9-7.64 0-14.76 2.3-20.65 6.28-9.62-12.42-24.65-20.44-41.57-20.44z" stroke="url(#linearGradient5186)" stroke-dasharray="10.00005376, 5.00002688, 2.50001344, 5.00002688" fill="url(#linearGradient5184)"/>
          </g>
         </g>
        </g>
       </g>
       <path d="m435.07 571.91-33.55-77.821" stroke-opacity=".87059" stroke="#2964ff" stroke-dasharray="1.95691747, 0.97845874, 0.48922936, 0.97845874" stroke-width=".97846" fill="none">
        <title fill="url(#linearGradient16767)">Connection Node 2</title>
       </path>
       <g transform="matrix(.0067403 .0093543 -.0093543 .0067403 386.54 494.6)">
        <g fill="#fff" transform="translate(506.03,-1219.6)">
         <circle stroke-width="20" stroke-opacity=".99048" stroke="#fbf6f6" cy="120" cx="120" r="90" fill="none"/>
        </g>
        <path d="m630.88-1015 7250.4 1563.7s79.742-2.779 80-31.429c0.2691-29.889-82.857-34.286-82.857-34.286l-7253.3-1688s99.883 5.4618 100 97.143c0.11725 91.681-94.286 92.857-94.286 92.857z" fill-opacity=".15238" fill-rule="evenodd" fill="#00ccf6"/>
        <g fill="url(#radialGradient5174)" transform="matrix(1.2,0,0,1.2,447.75,-1730.3)">
         <circle cy="527.14" cx="137.14" r="155.52" fill="url(#radialGradient5180)"/>
        </g>
        <g transform="matrix(2.9709 .30011 -.30011 2.9709 969.67 -1558.2)">
         <g transform="matrix(3.4614 .92604 -.92604 3.4614 -267.46 -938.57)">
          <g stroke-width="5" transform="matrix(0,-1,1,0,-131.54,678.8)">
           <path d="m389.84 326.39c-29.01 0-52.56 23.55-52.56 52.56 0 4.46 0.55 8.78 1.6 12.91-10.57 2.01-18.57 11.29-18.57 22.44 0 12.62 10.26 22.87 22.88 22.87 8.95 0 16.69-5.18 20.43-12.68 7.72 4.45 16.68 7.03 26.22 7.03 17.78 0 33.46-8.86 42.97-22.38 5.61 3.42 12.21 5.41 19.25 5.41 9.47 0 18.11-3.58 24.66-9.44 3.86 5.69 10.39 9.44 17.78 9.44 11.84 0 21.44-9.63 21.44-21.47s-9.6-21.44-21.44-21.44c-2.01 0-3.97 0.3-5.81 0.81-2.48-18.02-17.93-31.9-36.63-31.9-7.64 0-14.76 2.3-20.65 6.28-9.62-12.42-24.65-20.44-41.57-20.44z" stroke="url(#linearGradient28440)" stroke-dasharray="10.00005376, 5.00002688, 2.50001344, 5.00002688" fill="url(#linearGradient28438)"/>
          </g>
         </g>
        </g>
       </g>
       <g transform="matrix(.0091323 .0070381 -.0070381 .0091323 329.36 532.03)">
        <g fill="#fff" transform="translate(1199,557.71)">
         <circle stroke-width="20" stroke-opacity=".99048" stroke="#fbf6f6" cy="120" cx="120" r="90" fill="none"/>
        </g>
        <path d="m1332.3 792.08 7370-374.95s79.742-2.779 80-31.429c0.269-29.889-82.857-34.286-82.857-34.286l-7372.9 250.66s99.883 5.4618 100 97.143c0.1173 91.681-94.286 92.857-94.286 92.857z" fill-opacity=".15238" fill-rule="evenodd" fill="#00ccf6"/>
        <g fill="url(#radialGradient5174)" transform="matrix(1.2,0,0,1.2,1148.6,51.519)">
         <circle cy="527.14" cx="137.14" r="155.52" fill="url(#radialGradient5180)"/>
        </g>
        <g transform="matrix(.99943 -.033877 .033877 .99943 1382.1 128.2)">
         <g transform="matrix(3.4614 .92604 -.92604 3.4614 -267.46 -938.57)">
          <g stroke-width="5" transform="matrix(0,-1,1,0,-131.54,678.8)">
           <path d="m264.42 389.52c-86.623 0-156.94 70.32-156.94 156.94 0 13.317 1.6423 26.217 4.7776 38.549-31.562 6.0018-55.45 33.712-55.45 67.005 0 37.683 30.636 68.289 68.319 68.289 26.725 0 49.836-15.467 61.004-37.862 23.052 13.288 49.806 20.991 78.292 20.991 53.091 0 99.911-26.456 128.31-66.826 16.751 10.212 36.459 16.154 57.48 16.154 28.277 0 54.076-10.69 73.634-28.188 11.526 16.99 31.024 28.188 53.091 28.188 35.354 0 64.019-28.755 64.019-64.109s-28.665-64.019-64.019-64.019c-6.0018 0-11.854 0.8958-17.349 2.4186-7.4052-53.807-53.539-95.253-109.38-95.253-22.813 0-44.073 6.8678-61.661 18.752-28.725-37.086-73.605-61.034-124.13-61.034z" stroke="url(#linearGradient28456)" stroke-dasharray="29.86000051, 14.93000027, 7.46500015, 14.93000027" stroke-width="14.93" fill="url(#linearGradient28454)"/>
          </g>
         </g>
        </g>
       </g>
       <g transform="matrix(.0040972 .0061366 -.0061366 .0040972 462.72 596.7)">
        <g fill="#fff" transform="translate(160.71,609.51)">
         <circle stroke-width="20" stroke-opacity=".99048" stroke="#fbf6f6" cy="120" cx="120" r="90" fill="none"/>
        </g>
       </g>
       <g stroke-opacity=".87059" stroke="#2964ff" transform="translate(-115.27 477.17)">
        <g transform="translate(-362.06,-573.68)">
         <g stroke-width=".97845" stroke-dasharray="1.95689448, 0.97844724, 0.48922361, 0.97844724" fill="none">
          <path d="m903.63 765.21-16.29-32.73">
           <title fill="url(#linearGradient16767)">Connection Node 9</title>
          </path>
          <path d="m861.37 805.03-81.849 8.4793">
           <title fill="url(#linearGradient16767)">Connection Node 3</title>
          </path>
          <path d="m913.21 669.34s-11.396 9.9868-31.434 63.248-19.78 71.925-19.78 71.925">
           <title fill="url(#linearGradient16767)">Connection  2 3</title>
          </path>
         </g>
         <g stroke-width="2.048" fill="none">
          <circle cy="-531.26" cx="1058" r="4.6612" transform="rotate(66.898)">
           <title>Node 9</title>
          </circle>
          <ellipse rx="4.1221" transform="matrix(.39236 .91981 -.9198 .39238 0 0)" ry="4.122" cy="-476.73" cx="1078.6">
           <title>Node 3</title>
          </ellipse>
          <circle cy="-482.5" cx="1031.7" r="4.6612" transform="rotate(66.898)">
           <title>Node 10</title>
          </circle>
         </g>
         <g stroke-width=".83885" fill="#ff2310">
          <circle cy="-531.34" cx="1058.1" r="1.9092" transform="rotate(66.898)">
           <title>Node 9</title>
          </circle>
          <circle cy="-482.5" cx="1031.7" r="1.9092" transform="rotate(66.898)">
           <title>Node 10</title>
          </circle>
          <circle cx="1078.5" cy="-476.82" r="1.9092" transform="rotate(66.898)">
           <title>Node 9</title>
          </circle>
          <circle cy="-553.51" cx="1122" r="1.9092" transform="rotate(66.898)">
           <title>Node 9</title>
          </circle>
         </g>
         <g fill="none">
          <g stroke-width=".97845" stroke-dasharray="1.95689448, 0.97844724, 0.48922361, 0.97844724">
           <path d="m881.17 691.19-65.2-45.28">
            <title fill="url(#linearGradient16767)">Connection Node 5</title>
           </path>
           <path d="m848.61 759.7-71.58-19.04">
            <title fill="url(#linearGradient16767)">Connection Node 10</title>
           </path>
           <path d="m884.04 692.99s-11.853 6.9497-24.129 31.24-11.356 35.813-11.356 35.813">
            <title fill="url(#linearGradient16767)">Connection 10 5</title>
           </path>
          </g>
          <circle stroke-width="2.048" transform="rotate(66.898)" cy="-541.04" cx="984.61" r="4.6612">
           <title>Node 5</title>
          </circle>
         </g>
        </g>
        <g fill="#ff2310" transform="translate(-362.06,-573.68)">
         <circle stroke-width=".83885" transform="rotate(66.898)" cy="-577.2" cx="973.42" r="1.9092">
          <title>Node 2</title>
         </circle>
         <circle stroke-width=".83866" transform="rotate(66.898)" cy="-541.04" cx="984.61" r="1.9092">
          <title>Node 5</title>
         </circle>
        </g>
       </g>
      </g>
     </g>
    </g>
    <g stroke-width="4">
     <path style="color:#000000" d="m220.19 622.91 8-2h-37.237l8 2h21.237z" stroke="#6f5f5f" fill="#333"/>
     <path style="color:#000000" d="m172.33 606.91h74.475l-18.619 10v2h-37.237v-2l-18.619-10z" stroke="#000"/>
     <path style="color:#000000" d="m152.13 594.7 20.203 12.203h74.475l20-12.203v-99.797l5.6728-20.203h-125.76l5.3455 20.203 0.0657 99.797z" stroke="#fff" fill="none"/>
    </g>
    <g stroke="#000" stroke-width="4" fill="#c1c1c1">
     <path style="color:#000000" d="m152.06 566.7 114.74-10 6 10.102-6 10.102-114.74 10-6-10.102 6-10.102z"/>
     <path style="color:#000000" d="m152.06 536.7 114.74-10 6 10.102-6 10.102-114.74 10-6-10.102 6-10.102z"/>
     <path style="color:#000000" d="m152.06 506.7 114.74-10 6 10.102-6 10.102-114.74 10-6-10.102 6-10.102z"/>
     <path opacity=".2" style="color:#000000" d="m152.06 506.7 114.74-10 6 10.102-6 10.102-114.74 10-6-10.102 6-10.102z"/>
     <path opacity=".2" style="color:#000000" d="m152.06 566.7 114.74-10 6 10.102-6 10.102-114.74 10-6-10.102 6-10.102z"/>
     <path opacity=".2" style="color:#000000" d="m152.06 536.7 114.74-10 6 10.102-6 10.102-114.74 10-6-10.102 6-10.102z"/>
    </g>
    <path id="ng-light-1" fill-rule="evenodd" style="color:#000000" fill="url(#f)" d="m350.81 151.18c0 64.731-63.129 117.27-140.91 117.27-77.784 0-140.91-52.535-140.91-117.27 0-64.731 63.129-117.27 140.91-117.27 77.784 0 140.91 52.535 140.91 117.27z">
     <title>Light 1</title>
    </path>
    <path id="ng-light-2" style="color:#000000" d="m372.29 191.91c0 44.949-18.24 85.663-47.717 115.14-14.739 14.739-51.768 73.758-51.768 94.912v72.351l-126.74 0.45344v-72.805c0-21.155-37.03-80.174-51.768-94.912-29.474-29.48-47.714-70.19-47.714-115.14 0-89.897 72.96-162.86 162.86-162.86 89.897 0 162.86 72.96 162.86 162.86z" stroke="url(#linearGradient29416)" stroke-width="4" fill="url(#radialGradient8834)">
     <title stroke="url(#linearGradient29416)">Light 2</title>
    </path>
   </g>
   <g transform="matrix(.3983 0 0 .3983 -671.54 23.327)">
    <g id="ng-connections" stroke="#fff" transform="matrix(1.1025,0,0,1.1025,7.0402,-103.69)" fill="none">
     <title>Connections</title>
     <ellipse id="ng-o" opacity=".87" stroke-linejoin="bevel" cx="437.34" rx="96.484" ry="94.573" cy="820.41" stroke-linecap="round" stroke-width="16">
      <title>O</title>
     </ellipse>
     <g stroke-width="5" stroke-dasharray="20, 10">
      <path d="m97.126 503.92 342.55 334.55-46.63-307.5"/>
      <path d="m574.59 1207.7-134.26-369.38 165.22 96.18"/>
      <path d="m647.37 645.87-207.6 189.04"/>
     </g>
    </g>
    <g font-family="sans-serif" transform="translate(30.128)" fill="#fff">
     <g font-size="206.39px" transform="matrix(1.1576,0,0,1.1576,-44.659,-154.5)">
      <text id="ng-r" style="word-spacing:0px;letter-spacing:0px" xml:space="preserve" line-height="125%" y="492.95126" x="22.97196"><title>R</title><tspan y="492.95126" x="22.97196">R</tspan></text>
      <text id="ng-e-1" style="word-spacing:0px;letter-spacing:0px" xml:space="preserve" line-height="125%" y="518.72559" x="316.38644"><title>E-1</title><tspan y="518.72559" x="316.38644">E</tspan></text>
      <text id="ng-m" style="word-spacing:0px;letter-spacing:0px" xml:space="preserve" line-height="125%" y="625.93768" x="620.35541"><title>M</title><tspan y="625.93768" x="620.35541">M</tspan></text>
      <text style="word-spacing:0px;letter-spacing:0px" xml:space="preserve" line-height="125%" y="1358.8525" x="503.65811"><title>E 2</title><tspan y="1358.8525" x="503.65811">E</tspan></text>
      <text id="ng-t" style="word-spacing:0px;letter-spacing:0px" xml:space="preserve" line-height="125%" y="1075.5585" x="620.35541"><title>T</title><tspan y="1075.5585" x="620.35541">T</tspan></text>
     </g>
     <g transform="matrix(1.3401,0,0,1.3401,-110.33,-312.98)">
      <text id="ng-remote" font-size="57.6px" xml:space="preserve" style="word-spacing:0px;letter-spacing:0px" line-height="125%" stroke="#ffffff" y="993.87347" x="17.591017" stroke-width="4"><title>Remote</title><tspan y="993.87347" x="17.591017">REMOTE</tspan></text>
      <text id="ng-office-not-required" font-size="40px" xml:space="preserve" style="word-spacing:0px;letter-spacing:0px" line-height="125%" y="1063.459" x="18.99806"><title>Office not required</title><tspan y="1063.459" x="18.99806">OFFICE NOT REQUIRED</tspan></text>
     </g>
    </g>
    <text style="word-spacing:0px;letter-spacing:0px" xml:space="preserve" font-size="53.604px" y="1276.9943" x="-13.581711" font-family="sans-serif" line-height="125%" fill="#000000"><tspan y="1276.9943" x="-13.581711" font-size="23.452px" fill="#ffffff">Jason Fried and David Heinemeir Hansson</tspan></text>
   </g>
   <g stroke-linejoin="bevel" fill-opacity=".32487" transform="matrix(.85738 0 0 .85738 -2.3343 87.378)" stroke="#fff" stroke-linecap="round">
    <circle id="ng-bubble-3" opacity=".87" cx="-19.37" cy="464.73" r="41.424" stroke-width="2.1516">
     <title>Bubble 3</title>
    </circle>
    <circle id="ng-bubble-2" opacity=".87" cx="-68.177" cy="533.21" r="28.334" stroke-width="2.3327">
     <title>Bubble 2</title>
    </circle>
    <circle id="ng-bubble-1" opacity=".87" cx="-113.56" cy="573.45" r="19.623" stroke-width="2.3327">
     <title>Bubble 1</title>
    </circle>
   </g>
  </g>
 </g>
</svg>
