<?xml version="1.0" encoding="UTF-8" standalone="no"?>
<svg xmlns:rdf="http://www.w3.org/1999/02/22-rdf-syntax-ns#" xmlns="http://www.w3.org/2000/svg" height="100%" width="100%" version="1.1" preserveAspectRatio="xMinYMin slice" xmlns:cc="http://creativecommons.org/ns#" xmlns:dc="http://purl.org/dc/elements/1.1/" viewBox="0 0 1224.8168 566.98212">
 <metadata>
  <rdf:RDF>
   <cc:Work rdf:about="">
    <dc:format>image/svg+xml</dc:format>
    <dc:type rdf:resource="http://purl.org/dc/dcmitype/StillImage"/>
    <dc:title/>
   </cc:Work>
  </rdf:RDF>
 </metadata>
 <g transform="matrix(.9768 .21416 -.21416 .9768 74.972 27.505)">
  <path d="m393.88 202.61c-8.5743-0.43503-25.433-1.1071-37.465-1.4934-12.031-0.38635-32.282-1.2713-45-1.9666-12.719-0.6953-28.75-1.5092-35.625-1.8087-6.8751-0.29947-17-0.78802-22.5-1.0857-5.5-0.29765-35.554-1.1548-66.787-1.9049-50.379-1.2098-57.361-1.6207-61.876-3.6408-9.7-4.34-148.7-146.49-167.36-171.16-3.958-5.236-7.032-7.641-14.376-11.254-5.138-2.5277-10.143-5.8201-11.122-7.3166-1.5979-2.4421-1.5079-2.9932 0.87799-5.3791 2.2512-2.2512 3.5573-2.5336 8.5292-1.8443 14.17 1.9647 47.687 11.611 78.997 22.735 58.198 20.678 62.587 22.33 139.38 52.478 6.1876 2.4293 17.719 7.0808 25.625 10.337 7.9063 3.2559 23.094 9.4583 33.75 13.783 63.863 25.004 125.89 55.119 188.12 79.756 95.969 37.99 187.64 62.332 270.63 15.256 6.5313-3.6748 14.406-8.2024 17.5-10.061 21.762-13.075 99.326-53.291 150-77.774 38.019-18.368 123.3-58.434 124.38-58.434 0.22286 0 6.285-2.7801 13.471-6.178 7.1864-3.3979 18.625-8.5301 25.42-11.405 6.7947-2.8748 16.854-7.1859 22.354-9.5803 25.328-11.026 80.38-32.973 95.626-38.121 26.641-8.9966 35.162-10.113 36.84-4.8283 1.3153 4.1438-0.8315 6.456-10.513 11.324-7.4385 3.74-10.407 6.052-13.156 10.247-1.9524 2.9792-6.1664 8.5106-9.3646 12.292-3.1981 3.7813-6.9097 8.3405-8.2479 10.132-4.2261 5.6562-24.557 29.986-34.327 41.079-17.933 20.361-33.227 38.18-35.084 40.877-1.0268 1.4912-5.5021 6.5904-9.9452 11.332-8.2743 8.8296-10.231 10.975-31.642 34.707-29.142 32.301-31.793 34.39-43.584 34.356-7.5049-0.0215-36.959 2.469-83.478 7.0585-17.531 1.7296-43.125 4.1845-56.875 5.4553s-30.625 2.9009-37.5 3.6224c-6.8751 0.72156-22.063 2.1828-33.75 3.2472-11.688 1.0644-25.75 2.4652-31.25 3.1128-5.5 0.64759-13.938 1.5271-18.75 1.9545-120.86 25.468-221.81 4.6669-311.92 0.0947z" stroke-opacity=".87143" stroke="#fff" stroke-width="8.5" fill="#e8e7d7"/>
  <path d="m528.88 417.49c-44.077-7.2107-74.115-37.531-85.027-85.826-7.4724-33.074-3.3829-63.564 12.121-90.369l5.7216-9.8924-2.8011-2.1129c-4.6261-3.4895-44.01-24.522-48.721-26.019-2.4063-0.76451-31.938-2.546-65.626-3.9588s-73.626-3.1356-88.751-3.8283c-15.125-0.69272-50.642-1.9662-78.926-2.8299l-51.425-1.5704-11.075-10.168c-30.734-28.2-126.86-127.74-152.59-158-8.265-9.71-10.725-11.759-18.386-15.308-10.221-4.7353-13.093-7.459-11.144-10.569 4.115-6.5682 34.232 1.16 109.23 28.029 153.07 54.837 357.97 143.49 414.63 179.4 20.668 13.097 17.19 12.542 27.699 4.4222 11.267-8.7052 26.274-16.206 39.494-19.739 14.351-3.8357 41.759-3.8705 57.137-0.0725 18.528 4.576 32.482 11.99 45.631 24.243l6.5175 6.0735 10.082-7.4755c40.1-29.732 160.15-92.381 303.76-158.52 124.75-57.456 206.16-88.906 214.86-83.004 3.873 2.6293 0.5055 7.0186-9.502 12.385-6.7069 3.5965-10.701 6.6793-12.855 9.9224-15 22.607-152.26 179.18-159.83 182.34-1.8878 0.78673-14.995 2.0309-58.275 5.532-9.6251 0.77859-28.188 2.5006-41.25 3.8267-13.063 1.3261-35.844 3.5658-50.625 4.9771s-50.791 4.9594-80.021 7.8847l-53.145 5.3188-18.73 11.281c-28.104 16.926-31.976 19.61-31.356 21.729 0.30152 1.0313 2.7756 6.9376 5.498 13.125 9.7278 22.11 13.2 45.804 10.329 70.495-5.9334 51.037-33.046 85.296-76.326 96.446-13.616 3.5076-40.747 4.4045-56.295 1.861z"/>
  <g stroke="#000">
   <path stroke="#f93" stroke-width="2" d="m462.72 230.18-3.3365-2.6604c-1.8351-1.4632-13.549-8.2141-26.031-15.002l-22.694-12.342-15.68-0.88906c-8.6239-0.48897-32.555-1.5102-53.18-2.2694-20.625-0.75923-42-1.9208-47.5-2.5813-10.371-1.2454-17.857-1.5145-104.38-3.7507-28.531-0.73746-54.924-1.6554-58.651-2.04l-6.7752-0.69918-24.5-23.476c-13.493-12.9-26.72-25.93-29.41-28.94-2.691-3.01-18.941-19.81-36.112-37.344-33.312-34.011-63.535-66.58-74.467-80.244-5.559-6.95-8.033-8.938-14.587-11.724-10.112-4.2972-13.764-7.5046-11.563-10.156 2.899-3.4934 15.943-0.8077 56.298 11.591 12.17 3.74 23.702 7.416 25.625 8.171 1.923 0.754 16.605 6.084 32.627 11.844 30.696 11.036 89.329 33.674 130.25 50.291 65.506 26.601 79.439 32.474 144.38 60.857 62.056 27.124 127.77 60.647 146.76 74.863 0 0 131.7 6.1466 163.84 5.153 0.70755-0.43729 6.0433-4.3828 11.857-8.7677 28.103-21.196 131.14-76.549 226.76-121.82 12.812-6.0658 30.044-14.246 38.295-18.178 87.671-41.788 191.12-85.456 229.34-96.811 14.478-4.3012 19.75-4.7681 20.87-1.8484 0.9978 2.6005-1.0713 4.4359-10.835 9.6114-6.6685 3.5347-9.4696 6.0914-15.625 14.262-9.3475 12.408-46.19 56.285-71.189 84.78-3.6188 4.125-8.1977 9.4688-10.175 11.875-1.9777 2.4063-11.761 13.354-21.741 24.329-9.9801 10.975-20.672 22.787-23.76 26.25-3.088 3.4628-10.967 11.804-17.51 18.537l-11.896 12.241-21.865 1.8712c-12.026 1.0292-29.74 2.3881-39.365 3.0199-17.639 1.1579-51.687 4.4195-58.889 5.6412-3.4806 0.5905-29.364 3.0944-70.487 6.8188-22.874 2.0716-52.34 5.0849-62.239 6.3648-5.0125 0.64806-11.763 1.1814-15 1.1853-3.2376 0.004-8.1365 0.61126-10.887 1.3498-4.844 1.301-45.697 24.992-52.632 30.521l-3.429 2.7342c-151.53-24.942-175.13 1.0857-180.51-2.6185zm193.64-11.864c35.309-22.565 87.586-51.061 155.7-84.871 62.03-30.791 111.01-53.637 248.49-115.91 62.406-28.265 87.682-40.434 84.217-40.544-2.7593-0.0874-30.789 9.585-50.085 17.283-110.27 43.996-295.8 131.82-387.87 183.6-36.536 20.548-69.376 42.17-69.376 45.678 0 1.3357 2.3126 4.6302 3.2501 4.6302 0.13755 0 7.197-4.4395 15.688-9.8655zm-187.73 4.2952c2.0647-2.4878 1.2939-3.3831-8.3988-9.7552-51.32-33.73-221.15-108.79-385.31-170.28-58.833-22.039-124.98-43.587-127.15-41.42-1.18 1.1834 22.523 10.766 133.4 53.927 187.31 72.92 299.55 121.92 367.5 160.45 8.5938 4.8731 16.259 8.8688 17.035 8.8794 0.77519 0.01 2.0892-0.8 2.9201-1.8011zm-74.33-28.899c-3.7483-2.833-8.2265-3.6394-9.4268-1.6973-1.6919 2.7376-0.13537 3.6687 6.063 3.6266 5.5047-0.0374 5.7107-0.15545 3.3638-1.9293zm323.91 0.71904c2.2846 0 2.211-3.6396-0.0915-4.5232-1.9936-0.76502-9.4398 3.1387-9.4398 4.9489 0 0.62521 1.7578 0.78518 3.9063 0.35549s4.6797-0.78126 5.625-0.78126zm-355.76-5.8698c2.0474-3.2284 3.7225-6.5771 3.7225-7.4416 0-1.2409-9.8441-6.6888-12.086-6.6888-0.64509 0-7.9139 16.096-7.9139 17.525 0 1.2881 3.094 2.1397 8.4651 2.3302 3.5738 0.1267 4.56-0.59595 7.8126-5.7248zm18.382 2.4852c1.7135-2.5907 1.5695-2.9155-2.3546-5.3079-5.7964-3.5339-8.1953-3.2077-11.069 1.5049-3.971 6.5129-3.4135 7.3617 4.5558 6.9374 5.6329-0.29987 7.4074-0.9271 8.8674-3.1344zm-34.973-8.3907c2.2761-5.4451 3.6997-10.26 3.1636-10.7-0.53618-0.43998-2.5222-1.4574-4.4134-2.261-3.235-1.3746-3.6132-1.1842-6.392 3.2176-4.0308 6.3851-9.5447 17.386-9.5447 19.043 0 0.85078 2.4334 1.216 6.524 0.97906l6.524-0.37783 4.1384-9.9002zm393.49 9.2031c0.75963-1.2291-4.903-11.178-6.3622-11.178-1.867 0-10.558 5.2333-10.558 6.3576 0 0.71872 0.5823 2.3948 1.294 3.7246 1.0344 1.9327 2.6499 2.4178 8.0513 2.4178 3.7165 0 7.125-0.59496 7.5744-1.3222zm-439.95-0.88449c1.5256-1.0421 21.781-29.644 21.781-30.756 0-1.1976-7.2115-4.5429-9.6255-4.4651-1.8848 0.0607-27.574 30.006-28.888 33.674-0.63155 1.763 14.384 3.1515 16.733 1.5473zm30.696-10.918c3.3275-6.1876 6.058-11.946 6.0677-12.796 0.0159-1.3876-7.4512-5.3293-10.096-5.3293-1.4667 0-19.887 26.315-19.887 28.41 0 1.3085 2.0554 1.6151 8.9325 1.3324l8.9325-0.36726 6.05-11.25zm427.63 9.7922c0.93883-0.55493-7.285-17.917-8.4867-17.917-1.3795 0-10.425 5.0203-11.145 6.1857-0.77623 1.256 4.8774 11.192 7.3346 12.89 1.2877 0.88999 10.261 0.0445 12.297-1.1586zm-475.63-6.3547c3.3933-3.9532 10.236-12.193 15.207-18.31 9.5488-11.752 9.7905-13.02 2.8763-15.096-2.4758-0.74331-5.5644 1.8121-22.5 18.616-21.641 21.473-21.822 21.923-8.8165 21.958 7.0585 0.0191 7.0685 0.0137 13.233-7.1684zm-10.07-14.326c11.219-11.145 20.389-20.848 20.378-21.563-0.0265-1.675-18.429-9.4829-20.378-8.6459-0.81225 0.34888-4.0958 3.8321-7.2968 7.7404-3.201 3.9084-12.075 14.657-19.721 23.887-10.001 12.073-13.453 17.065-12.305 17.794 0.87773 0.55701 5.4949 1.0214 10.26 1.0319l8.6644 0.0191 20.398-20.263zm502.9 18.33c0-1.0633-2.5805-6.4071-5.7344-11.875-6.1003-10.576-8.0371-11.725-12.998-7.7072l-2.7596 2.2346 4.7702 9.6405 4.7702 9.6405h5.976c4.5586 0 5.9759-0.45851 5.9759-1.9332zm-548.47-0.87927c2.7175-2.1122 40.968-48.508 40.968-49.692 0-0.97894-11.432-6.2462-13.557-6.2462-2.4046 0-47.632 53.07-47.672 55.938-0.0154 1.1095 2.6272 1.5625 9.1144 1.5625 5.4034 0 9.9575-0.63839 11.147-1.5625zm571.41-0.94381c1.3938-1.3102-18.819-27.494-21.225-27.494-3.1363 0-9.2178 3.7178-9.2178 5.6351 0 1.0015 2.3043 5.6277 5.1206 10.28 9.5934 15.849 7.8328 14.418 16.544 13.444 4.2411-0.47438 8.1913-1.314 8.7783-1.8657zm-607.75-17.19c9.1384-10.141 22.134-24.559 28.879-32.041 6.7449-7.482 12.076-14.167 11.846-14.857-0.59041-1.7712-11.501-5.876-12.95-4.8721-2.7429 1.9003-61.731 66.5-61.731 67.604 0 1.137 4.3653 1.9192 13.358 2.3936 3.6352 0.19179 5.4328-1.3989 20.598-18.228zm18.781 7.6027c5.0264-5.9592 16.03-18.91 24.451-28.778 8.422-9.8689 15.313-18.232 15.313-18.585 0-1.4032-11.568-5.4952-13.052-4.6167-1.4035 0.83117-21.247 22.6-46.011 50.475-4.6407 5.2236-8.4376 10.137-8.4376 10.919 0 0.93424 3.1862 1.4212 9.2988 1.4212h9.2988l9.1388-10.835zm-56.703 6.139c12.515-12.907 61.467-66.784 61.467-67.651 0-0.9839-11.642-6.4033-13.755-6.4033-1.947 0-27.955 28.077-60.946 65.793-4.29 4.9046-7.8 9.5452-7.8 10.313 0 0.89551 3.1683 1.3952 8.8462 1.3952 8.0143 0 9.1605-0.32408 12.188-3.4459zm664.28 2.6436c2.5782-0.42614 4.6875-1.2898 4.6875-1.9193 0-1.6882-27.437-31.587-29.403-32.042-2.3036-0.53233-9.3469 3.2451-9.3469 5.013 0 1.4117 14.848 21.434 19.977 26.938 2.7101 2.9084 5.8988 3.3635 14.086 2.0102zm-685.96-6.3853c4.9151-6.167 37.254-42.629 51.723-58.317 6.2794-6.8087 11.417-12.876 11.417-13.482 0-1.3763-10.581-6.0191-15.648-6.8662-3.5423-0.59217-5.7784 1.4031-36.563 32.624-18.034 18.29-32.79 34.039-32.79 34.998 0 1.874 14.799 15.64 16.875 15.697 0.68751 0.0189 2.9312-2.075 4.986-4.6532zm710.93 3.8896c3.2408-0.53573 4.3832-1.243 3.75-2.3217-1.6719-2.8483-39.468-35.631-41.08-35.631-2.2482 0-7.9561 2.7252-7.9561 3.7985 0 0.99032 12.508 14.987 24.253 27.139 8.0794 8.3597 9.6758 8.8921 21.033 7.0146zm26.324-2.512c2.6041-0.43035 4.5728-1.2636 4.375-1.8518-0.95388-2.8365-41.767-46.081-43.44-46.027-1.0562 0.034-6.0696 2.1863-11.141 4.7829l-9.2208 4.7211 5.4708 5.0454c3.0089 2.775 12.783 11.581 21.721 19.57 15.621 13.962 16.468 14.525 21.875 14.533 3.0938 0.005 7.7556-0.34313 10.36-0.77347zm28.917-2.8066c2.1391-0.83827 1.6023-1.817-4.9226-8.9747-24.142-26.483-42.434-44.909-44.582-44.909-2.3827 0-8.9733 2.9269-11.963 5.3127-1.7682 1.4111-2.3355 0.72065 25.16 30.625l17.527 19.063 8.1901-0.0879c4.5046-0.0484 9.2706-0.51124 10.591-1.0287zm25.099-2.6907c2.1544-0.80751-1.588-5.0457-27.069-30.655l-29.569-29.718-5.7309 2.1887c-3.152 1.2038-6.0494 2.704-6.4387 3.3338-0.71808 1.1619 49.581 55.534 52.318 56.554 1.8863 0.70325 13.182-0.46336 16.489-1.703zm26.014-2.4243c1.1901-1.0813-63.248-64.189-66.195-64.828-2.6533-0.57532-11.694 3.5568-11.694 5.3448 0 0.77361 13.641 14.996 30.313 31.606l30.313 30.199 8.1251-0.70069c4.4688-0.3854 8.5813-1.1152 9.1388-1.6218zm18.812-0.81342c3.1897-0.4372 5.7995-1.3787 5.7995-2.0923 0-1.4348-66.965-69.165-70.072-70.873-2.1069-1.1581-16.54 4.6226-15.905 6.3703 0.19305 0.53138 15.646 15.912 34.339 34.178 25.521 24.938 34.742 33.212 37.013 33.212 1.6638 0 5.6349-0.35772 8.8247-0.79491zm18.391-8.8927c11.214-11.842 10.933-10.401 3.4014-17.456-27.09-25.379-63.795-57.857-65.387-57.857-2.45 0-16.858 7.2279-16.855 8.4556 0.001 0.50573 15.226 16.107 33.832 34.67s34.375 34.735 35.042 35.938c1.8903 3.4106 3.902 2.6537 9.9659-3.75zm-846.47-32.05c29-29.015 32.689-33.142 30.616-34.245-4.8741-2.5936-18.489-7.7642-20.385-7.7418-2.3415 0.0276-58.847 57.779-58.847 60.145 0 1.9386 12.467 14.833 14.341 14.833 0.71585 0 16.139-14.846 34.275-32.991zm867.6 9.2837c4.3655-5.0392 6.1281-8.0004 5.4363-9.1334-2.1308-3.4892-59.535-55.91-61.225-55.91-2.3719 0-21.674 8.8665-21.674 9.9561 0 1.929 67.22 62.545 69.359 62.545 0.9045 0 4.5514-3.3556 8.1044-7.4569zm-891.35-23.36c15.189-15.574 27.616-28.985 27.616-29.803 0-1.5423-15.382-8.132-18.982-8.132-1.125 0-3.569 1.8281-5.431 4.0625s-12.6 14.028-23.861 26.209c-11.262 12.181-20.476 22.847-20.476 23.703 0 2.0087 10.053 12.276 12.019 12.276 0.82437 0 13.926-12.742 29.115-28.316zm-29.627-3.25c23.727-25.353 32.277-35.019 32.277-36.479 0-1.7999-18.113-8.7267-20.462-7.8252-1.6989 0.65194-33.8 35.101-39.521 42.412l-2.681 3.426 6.513 6.8866c3.5822 3.7876 7.2056 6.8866 8.0522 6.8866 0.84653 0 7.9814-6.8907 15.855-15.313zm937.11 8.5812c2.9588-3.0148 5.1853-6.3163 4.9478-7.3367-0.5872-2.5231-50.377-50.932-52.384-50.932-2.4774 0-18.673 7.7383-18.673 8.922 0 2.0508 57.024 54.828 59.239 54.828 0.8198 0 3.9113-2.4666 6.8701-5.4814zm-942.42-40.593c7.397-8.032 12.504-14.557 11.875-15.169-2.149-2.091-19.876-8.494-21.304-7.696-1.642 0.918-32.921 36.722-32.924 37.686-0.000962 0.34375 3.1179 4 6.9308 8.1251l6.9326 7.5001 7.7546-8.1752c4.265-4.49 13.596-14.512 20.735-22.265zm959.52 21.773c4.7194-5.5241 5.5748-7.2317 4.5663-9.116-2.0043-3.745-41.321-40.928-43.696-41.324-2.3494-0.39255-18.345 6.4413-19.518 8.3386-1.0139 1.6405 47.895 48.899 50.606 48.899 1.2287 0 4.8473-3.0588 8.0413-6.7974zm-988.26-28.692c8.288-9.551 14.809-17.786 14.491-18.301-0.855-1.382-16.5-7.459-19.205-7.459-2.5147 0-27.646 25.266-27.646 27.794 0 2.1541 14.069 16.091 15.826 15.677 0.80518-0.18989 8.2451-8.1597 16.533-17.711zm1004.4 10.355c3.1575-3.5119 5.7409-7.139 5.7409-8.0603 0-0.92126-7.7854-9.6963-17.301-19.5l-17.301-17.825-8.0119 3.5273c-16.223 7.1425-16.935 4.3836 7.1389 27.688 11.605 11.234 21.75 20.454 22.546 20.49 0.7957 0.036 4.0301-2.808 7.1876-6.3199zm-1027.5-24.748c6.691-6.811 12.213-12.858 12.271-13.438 0.129-1.281-22.433-10.261-26.026-10.359-1.636-0.045-5.3615 3.061-10.335 8.616l-7.7774 8.6867 8.4602 9.4025c4.6531 5.1714 9.0859 9.4187 9.8506 9.4384 0.76477 0.0197 6.8653-5.5365 13.557-12.347zm1045 4.67c3.839-4.2422 6.98-8.1234 6.98-8.6248 0-1.3934-27.774-27.412-29.261-27.412-1.3541 0-19.49 8.823-19.49 9.4818 0 1.4498 31.848 34.122 33.333 34.196 0.8017 0.0399 4.5986-3.3984 8.4376-7.6406zm26.46-31.497c0.5825-1.7383-1.246-4.3904-7.1612-10.387-6.5203-6.6098-8.5033-7.9415-11.068-7.433-5.2338 1.0374-25.214 10.762-24.781 12.062 0.2232 0.66942 6.3121 6.5705 13.531 13.113l13.125 11.896 7.7862-8.4586c4.2824-4.6522 8.1381-9.509 8.5684-10.793zm-1097.2 7.967 6.5235-7.411-3.4688-1.736c-1.9078-0.955-6.3484-2.749-9.868-3.987l-6.3992-2.25-4.5384 3.4616c-2.4961 1.9039-4.5384 4.3615-4.5384 5.4614 0 2.6321 12.411 15.159 14.301 14.434 0.80592-0.30925 4.4009-3.8972 7.9887-7.9733zm-21.904-13.174c1.9304-1.6983 3.2248-3.5492 2.8763-4.113-0.90576-1.4656-17.987-8.0201-19.546-7.5004-1.2965 0.43215 10.727 14.816 12.322 14.741 0.46064-0.0217 2.417-1.429 4.3474-3.1273zm1130-7.345c3.1773-3.7191 5.7769-7.6486 5.7769-8.7323s-2.2112-3.4337-4.9136-5.2221l-4.9136-3.2517-7.899 3.4449c-12.296 5.3626-12.288 5.3331-3.5219 13.449 4.2022 3.8906 8.1026 7.0737 8.6674 7.0737s3.6265-3.0429 6.8038-6.7619zm13.467-16.676c4.8649-5.2958 8.8789-11.563 7.4062-11.563-2.9154 0-18.846 7.9374-18.846 9.39 0 1.6578 4.7374 5.4352 6.9537 5.5446 0.7308 0.0361 2.7497-1.4813 4.4864-3.372z" fill="#d9822b"/>
   <g transform="translate(-10.798 -49.252)">
    <path d="m516.56 465.96c-73.109-13.812-118.89-72.698-123.11-158.37-1.7376-35.256 4.4685-61.985 21.293-91.711l9.1185-16.111c5.0531-7.3702 8.6659-13.614 16.317-19.171l6.4692-5.4511c10.379-8.7458 30.077-21.339 40.784-26.074 20.264-8.9618 37.584-12.31 63.786-12.332 54.273-1.4499 102.18 19.304 132.58 66.798l8.3494 18.73c12.937 29.022 16.417 45.684 16.505 79.03 0.0829 31.617-2.7173 48.4-12.367 74.118-7.8938 21.038-15.781 33.836-30.499 49.481-18.451 19.614-37.263 30.521-66.862 38.762-17.139 4.772-62.585 6.0425-82.38 2.3028z" stroke-opacity=".82381" stroke="#fff" stroke-width="5"/>
    <path stroke="#f93" stroke-width="2" d="m533.14 457.21c-59.576-5.7205-100.95-39.124-119.77-96.708-8.1576-24.95-10.056-39.24-9.1266-68.7 0.7193-22.805 1.3104-26.655 6.4218-41.831 3.0962-9.1927 9.3357-22.881 13.865-30.417 8.6103-15.756 8.6463-18.18 31.221-37.971 19.269-16.046 41.98-27.044 66.184-32.05 18.3-3.7845 55.715-2.441 73.15 2.6266 21.773 6.3288 37.009 14.005 55.051 28.492 9.6577 8.6741 19.007 20.037 24.185 28.833l5.2537 9.962c7.1257 13.512 13.119 30.814 16.609 47.947 4.3756 21.484 2.9362 62.972-2.9517 85.082-14.279 53.616-47.619 88.277-96.7 100.53-17.866 4.4612-43.223 6.1449-63.387 4.2086zm53.15-7.4931c15.162-2.901 28.941-7.1832 30.326-9.4252 0.52088-0.8428-2.9106-13.447-7.6257-28.009-15.976-49.34-22.092-78.765-22.092-106.29 0-20.042 2.1217-31.35 8.3984-44.764 10.316-22.046 27.05-34.171 57.694-41.805 11.44-2.8498 15.938-4.684 15.543-6.3375-1.0225-4.2754-14.363-20.299-23.15-27.806-8.5056-7.2665-27.285-19.429-29.998-19.429-0.7539 0-1.3706 6.5323-1.3706 14.516 0 15.568-1.7113 21.072-6.552 21.072-4.4719 0-6.7547-5.5829-10.255-25.081-1.7237-9.6005-3.4135-17.703-3.7551-18.007-0.34163-0.30349-2.4429-1.1129-4.6694-1.7985l-4.0483-1.2467 1.5064 14.17c3.1399 29.537 1.4109 40.437-6.4137 40.437-4.9152 0-7.7629-8.7776-10.775-33.213-1.4662-11.895-3.0523-22.253-3.5246-23.018-0.47233-0.76427-3.7491-1.3895-7.2818-1.3895h-6.4229l0.16796 25.058c0.14423 21.522-0.26562 25.722-2.9048 29.761-3.6831 5.6363-7.1941 5.3044-12-1.1339-3.1474-4.2167-3.6382-7.5688-4.1552-28.386-0.56779-22.864-0.70058-23.603-4.2367-23.582-2.0078 0.0138-5.3664 0.48298-7.4636 1.045-3.6727 0.98426-3.813 1.7358-3.813 20.424 0 20.61-1.4268 25.958-6.9248 25.958-4.7997 0-7.975-8.589-9.3731-25.354-1.1505-13.795-1.1777-13.858-5.4606-12.784-8.5159 2.1373-28.005 15.009-40.051 26.45-11.396 10.826-22.627 24.604-21.059 25.835 0.37148 0.29121 8.4083 1.4034 17.859 2.4716 56.219 6.354 83.65 37.891 83.65 96.178 0 32.809-8.4698 70.03-26.185 115.07-3.2854 8.3533-5.3481 15.813-4.5839 16.578 5.7471 5.7471 58.054 8.2206 81 3.8303zm-83.876-13.988c13.917-31.845 25.852-75.206 28.564-103.77 5.655-59.567-15.344-95.149-63.486-107.58-10.798-2.7874-36.503-3.5843-36.503-1.1316 0 0.81168 4.6423 2.0011 10.316 2.643 39.152 4.4296 66.81 25.477 78.1 59.431 3.4406 10.348 3.9373 15.108 3.8901 37.283-0.0488 22.913-0.59433 27.574-5.5329 47.261-3.0134 12.012-9.6406 32.901-14.727 46.418-5.0867 13.517-8.8434 25.233-8.3482 26.034 1.9531 3.1602 4.365 1.1026 7.7279-6.5929zm-9.28-6.78c2.3823-5.3595 7.7246-19.871 11.871-32.247 22.26-66.432 19.192-114.01-9.1782-142.38-10.029-10.029-31.475-20.076-50.186-23.512-17.466-3.207-22.162-1.9853-23.968 6.2345-0.6419 2.9226-0.90388 5.4948-0.58215 5.7162 0.32171 0.2213 10.499 2.8118 22.616 5.7567 25.396 6.1721 46.965 15.971 54.801 24.895 5.6271 6.4088 8.7247 15.21 8.7396 24.829 0.0343 22.459-17.074 79.449-23.851 79.449-0.79208 0-2.257-1.5264-3.2555-3.392-1.3891-2.5957-0.54207-9.4595 3.6077-29.234 3.3514-15.969 5.4788-31.145 5.5688-39.726 0.14253-13.58 0.0191-14.016-5.6244-19.84-6.9371-7.1599-24.249-15.93-45.321-22.959-16.025-5.3456-23.38-6.3744-25.145-3.517-0.56232 0.90985-1.4677 5.4144-2.012 10.01l-0.98962 8.3556 11.656 1.1432c36.161 3.5463 59.954 16.539 59.954 32.736 0 17.883-16.567 56.741-32.932 77.24-10.915 13.673-10.919 13.647 4.3646 28.249 9.7251 9.2916 28.914 21.941 33.283 21.941 1.2376 0 4.1994-4.385 6.5817-9.7445zm133.81 5.5768c0.52189-1.36-2.1009-9.9394-5.8284-19.066-31.579-77.312-31.673-135.05-0.2672-166.46 10.195-10.195 27.661-19.392 42.741-22.508 5.3631-1.1077 9.7511-2.6241 9.7511-3.3697 0-2.1406-11.724-1.5381-23.335 1.1994-45.187 10.654-64.706 45.429-57.3 102.08 3.6385 27.832 16.974 78.539 27.859 105.93 2.0236 5.0919 4.8892 6.0742 6.3806 2.1875zm21.299-14.368c6.0398-5.5344 13.929-14.342 17.532-19.574 6.4704-9.3947 6.515-9.5684 3.6182-14.086-13.999-21.837-24.399-51.542-26.048-74.403-0.82832-11.487-0.49316-14.68 1.9286-18.377 4.2902-6.5476 16.232-11.142 31.723-12.203 7.3659-0.50487 13.818-1.6052 14.337-2.4451 1.2051-1.95-0.817-16.898-2.6975-19.94-1.7919-2.8992-7.5631-0.79266-24.518 8.9494-15.19 8.7277-25.897 18.666-27.89 25.885-1.7295 6.2638 0.71769 20.874 6.4972 38.79 10.785 33.432 12.415 45.778 6.0423 45.778-2.5974 0-5.2497-3.7838-11.351-16.196-14.144-28.771-21.421-62.437-16.631-76.951 4.298-13.023 19.043-25.119 42.387-34.774 6.9906-2.8911 14.397-5.957 16.459-6.8131 3.318-1.3781 3.5459-2.136 1.9868-6.6082-3.0168-8.6538-5.1892-9.3997-18.001-6.1812-23.937 6.0127-44.171 20.839-52.779 38.672-7.1676 14.851-9.1669 27.54-8.2058 52.079 1.0115 25.827 6.088 48.527 17.862 79.872 8.2575 21.985 11.611 28.588 14.516 28.588 1.2394 0 7.195-4.5281 13.235-10.062zm-201.55-36.61c8.3235-10.297 20.914-34.179 25.87-49.076 4.4058-13.24 5.1973-27.017 1.8457-32.132-5.9698-9.1111-30.516-17.9-51.379-18.397-10.982-0.26147-13.202 0.14183-13.679 2.4849-0.46012 2.2584 1.814 3.1933 11.808 4.8545 17.12 2.8455 37.178 9.3709 41.671 13.557 2.4341 2.2677 3.7531 5.4952 3.7531 9.1834 0 7.0647-5.717 25.863-9.4965 31.225-3.7199 5.2782-9.4511 4.3354-28.819-4.741-8.1145-3.8026-15.091-6.5764-15.504-6.164-1.6228 1.6228 1.8712 4.5467 10.279 8.6024 4.8394 2.3343 12.421 6.9188 16.849 10.188 10.585 7.8152 10.662 12.158 0.45983 26.016-4.6609 6.3313-7.1962 11.336-6.5699 12.968 1.5476 4.0329 4.0838 2.3494 12.911-8.5701zm-6.999-10.753c5.9436-9.3393 4.9057-11.655-9.2474-20.634-13.176-8.3594-15.446-8.5132-14.22-0.96291 1.0277 6.3331 9.1851 27.822 11.833 31.171 2.2467 2.8416 5.37 0.27197 11.635-9.5725zm238.68 5.1075c-0.0292-1.5171-1.9316-5.8086-4.228-9.5369-7.3046-11.86-5.1927-17.984 8.094-23.47 9.625-3.9747 7.6354-6.0392-3.3575-3.484-15.575 3.6205-18.832-0.62732-21.673-28.259-1.0435-10.15-0.78931-11.565 2.8332-15.764 4.3002-4.9853 13.04-7.7198 24.88-7.785 5.1095-0.028 7.1283-0.68489 6.636-2.1587-1.6248-4.8646-33.519 0.26588-40.408 6.5001-9.0293 8.1714 0.24235 52.189 17.218 81.745 4.273 7.4396 5.6069 8.6642 7.6184 6.9949 1.3411-1.113 2.4146-3.2649 2.3854-4.7818zm-30.45-10.11c0-0.77913-3.4362-12.79-7.6362-26.692-4.1999-13.902-8.0926-30.612-8.6504-37.138-0.97151-11.363-0.78994-12.169 4.3139-19.143 5.8589-8.0055 24.605-21.044 39.587-27.534 11.29-4.8906 13.274-9.4433 3.3137-7.6029-17.999 3.3256-46.056 21.385-52.457 33.766-3.5114 6.79-2.0335 29.791 2.9513 45.935 4.8372 15.665 15.202 39.825 17.085 39.825 0.82145 0 1.4936-0.63747 1.4936-1.4166zm36.297-4.0911c4.3549-10.756 4.7383-14.829 1.3959-14.829-4.8173 0-10.577 4.9228-10.577 9.0397 0 3.4992 4.2201 11.296 6.1139 11.296 0.46075 0 1.8412-2.4784 3.0677-5.5077zm-192.48-11.82c4.8946-13.343 10.419-41.395 10.419-52.905 0-17.664-6.2768-25.833-27.319-35.555-20.351-9.4025-57.415-17.946-57.415-13.233 0 0.71899 7.0542 3.4482 15.676 6.0647 18.02 5.4692 41.598 16.09 50.081 22.561 3.2025 2.4426 7.3494 7.8928 9.2156 12.111 4.0514 9.1586 3.4273 19.266-3.0364 49.181-2.2817 10.56-4.1487 20.436-4.1487 21.947 0 4.4875 2.6854 0.30322 6.5274-10.17zm-36.228-13.099c3.8948-7.5318 7.3678-24.231 5.8772-28.26-1.6089-4.349-11.382-8.4054-30.406-12.62-23.66-5.2419-22.588-5.7863-21.707 11.016 0.46671 8.8922 1.6659 15.398 3.1782 17.242 3.0827 3.7589 31.69 17.431 36.702 17.54 2.5074 0.0547 4.6352-1.5915 6.3551-4.9175zm230.81-4.3375c4.5445-1.898 5.5517-3.3916 6.4652-9.5891 0.59519-4.0375 0.84192-12.298 0.5483-18.357l-0.53385-11.015-8.4733-0.54875c-12.109-0.7842-20.889 2.1738-22.222 7.4872-1.4412 5.7422 0.71403 23.744 3.6976 30.885 2.2961 5.4953 2.7144 5.7136 8.7732 4.5779 3.4991-0.65595 8.7846-2.2043 11.745-3.4407zm-139.24-155.05c0-24.28-1.1243-28.664-6.793-26.488-2.435 0.93443-2.7148 4.0118-2.2322 24.544 0.40031 17.029 1.2068 24.262 2.9373 26.343 4.6895 5.6385 6.0879 0.034 6.0879-24.398zm35.832 20.824c1.5244-6.0738-2.1644-40.904-4.6492-43.897-2.9822-3.5934-6.6105-2.7835-6.6051 1.4743 0.005 2.0972 0.81765 10.677 1.8111 19.066 3.035 25.626 6.6376 34.537 9.4432 23.358zm-69.522-9.9942c1.1109-4.4263-0.36463-29.345-1.8241-30.805-0.42447-0.42448-2.055-0.27934-3.6234 0.32251-2.4611 0.94437-2.7258 3.0042-1.9329 15.038 0.9532 14.467 2.2558 19.875 4.7874 19.875 0.81457 0 1.9814-1.9936 2.593-4.4303zm96.411-0.72198c1.2664-5.7659-0.42013-21.227-2.8118-25.775-0.85755-1.6311-2.7816-2.9656-4.2756-2.9656-2.3188 0-2.5565 1.5498-1.6236 10.592 1.317 12.765 4.0749 23.302 6.0989 23.302 0.81421 0 1.9897-2.3186 2.612-5.1523z" fill="#f93"/>
   </g>
  </g>
 </g>
</svg>
