<?xml version="1.0" encoding="UTF-8" standalone="no"?>
<svg xmlns:rdf="http://www.w3.org/1999/02/22-rdf-syntax-ns#" xmlns="http://www.w3.org/2000/svg" height="100%" width="100%" version="1.1" xmlns:cc="http://creativecommons.org/ns#" xmlns:dc="http://purl.org/dc/elements/1.1/" viewBox="0 0 62.095422 31.072999">
 <metadata>
  <rdf:RDF>
   <cc:Work rdf:about="">
    <dc:format>image/svg+xml</dc:format>
    <dc:type rdf:resource="http://purl.org/dc/dcmitype/StillImage"/>
    <dc:title/>
   </cc:Work>
  </rdf:RDF>
 </metadata>
 <defs>
  <linearGradient id="a" x1="44.286" gradientUnits="userSpaceOnUse" y1="451.68" gradientTransform="matrix(.10704 0 0 .093333 25.917 -20.625)" x2="80.714" y2="451.68">
   <stop offset="0"/>
   <stop stop-color="#797979" offset="1"/>
  </linearGradient>
 </defs>
 <g transform="translate(-107.93 -514.24)">
  <g transform="matrix(-1,0,0,1,173.41,500.03)">
   <g transform="matrix(.96386 .26642 -.26642 .96386 9.7443 -7.3113)">
    <g stroke-opacity=".82381" stroke="#fff" stroke-width="0.3" fill="#f93">
     <path d="m19.517 21.614 18.756-0.27709 6.4654 14.722c0.88932 2.5604-0.27036 2.7995-1.831 3.8221-1.8757 1.1141-6.234 3.7159-8.1556 4.5899-4.4395 2.0192-5.9532 0.71254-10.504-3.0225-2.0889-1.858-3.26-3.818-3.107-5.095l2.1376-14.606z" fill="#f93"/>
     <path stroke-linejoin="bevel" d="m-0.15506 22.684 31.307-6.872 32.642 6.299-31.497 12.027-32.452-11.454z" stroke-linecap="round" fill="#000"/>
     <path d="m11.692 37.135 1.7207-0.04595c0.97305 3.955 2.7499 9.4518 2.2086 10.347-0.69102 1.4752-3.9523 2.0979-4.7212 0.41528 0.04438-3.1816 0.92179-6.4808 0.79197-10.717z"/>
    </g>
    <g stroke="#000">
     <rect stroke-opacity=".82381" transform="matrix(.99011 -.14027 .16669 .98601 0 0)" height="3.2807" width="1.9868" stroke="#fff" y="35.633" x="5.1482" stroke-width=".30005"/>
     <path d="m31.947 21.923 1.1005 0.30036c-1.724 0.785-17.983 2.201-20.367 4.534-0.718 0.71667-0.0345 3.9633-0.26326 5.9389l-1.1335 0.0063c0.15587-1.9319-0.338-4.804 0.16934-5.915 0.55309-1.1324 2.7796-2.3587 20.351-4.9055z" stroke-opacity="0" fill="#f93"/>
     <circle stroke-width="2.245" stroke-opacity=".82381" cy="408.9" transform="matrix(.13363 0 0 .13363 -20.502 -20.925)" stroke="#fff" cx="242.94" r="11.617"/>
    </g>
    <g fill="#f93">
     <path d="m43.626 18.809c0.19646-0.04672 2.0193 0.31242 1.3014 0.33142-3.9203 0.39677-9.0569 1.7701-10.676 2.4612-0.09715-0.22335-0.82005-0.35463-1.1064-0.38611 3.052-1.53 8.149-2.125 10.481-2.407z"/>
     <path d="m34.208 22.015c4.285 0.937 9.979 2.501 14.322 5.118 0.22405 0.06912-0.65437 0.53761-1.2953 0.54124-3.9555-2.1008-8.0529-3.8712-14.775-5.2266 0.66232-0.04563 1.2398-0.23359 1.7483-0.43294z"/>
     <path d="m20.392 18.764c4.3317 0.36472 6.8326 0.9946 11.704 2.4654-0.21844 0.11799-1.3059 0.04224-1.5056 0.44673-3.8413-1.4235-6.8749-1.9481-11.14-2.6722-0.47545-0.10312 0.94172-0.23995 0.94172-0.23995z"/>
    </g>
    <path d="m34.557 21.662c-1.1329 0.61945-3.5597-0.52954-3.9423-0.03527-0.04007 0.05177 0.0533 0.31986 0.05923 0.40674 0.93432 0.68279 2.7374 0.69531 3.8357 0.0085l0.04733-0.37993h0.000006-0.000004z" fill="#373737"/>
    <path d="m34.557 21.662c-0.87189 0.62672-3.0652 0.61198-3.9583 0.0062 0-0.44182 0.93191-0.80618 2.0086-0.80618 1.0768 0 1.9496 0.35817 1.9496 0.79999z" fill="url(#a)"/>
   </g>
  </g>
 </g>
</svg>
